<svg xmlns="http://www.w3.org/2000/svg" width="510" height="462" viewBox="0 0 510 462">
  <defs>
    <style>
      .cls-1 {
        fill: #edebeb;
      }

      .cls-2 {
        fill: #cbc8c7;
      }

      .cls-3 {
        fill: #679c8d;
      }

      .cls-4 {
        fill: #49007f;
      }

      .cls-5 {
        fill: #191b31;
      }

      .cls-6 {
        fill: #6ca4fb;
      }

      .cls-7 {
        fill: #468be7;
      }

      .cls-8 {
        fill: #cf9889;
      }

      .cls-9 {
        fill: #eabcad;
      }

      .cls-10 {
        fill: #503b8a;
      }

      .cls-11 {
        fill: #423374;
      }

      .cls-12 {
        fill: #281e45;
      }

      .cls-13 {
        fill: #1c162e;
      }

      .cls-14 {
        fill: #372623;
      }

      .cls-15 {
        fill: #5e5a42;
      }

      .cls-16 {
        fill: #134c0e;
      }

      .cls-17 {
        fill: #eaa82f;
      }

      .cls-18 {
        fill: #d19225;
      }

      .cls-19 {
        fill: #7363a1;
      }

      .cls-20 {
        fill: #a22239;
      }

      .cls-21 {
        fill: #640289;
      }

      .cls-22 {
        fill: #471d72;
      }

      .cls-23 {
        fill: #d9d9d9;
      }

      .cls-24 {
        fill: #da867b;
      }

      .cls-25 {
        fill: #8e8a87;
      }

      .cls-26 {
        fill: #b8b0d0;
      }
    </style>
  </defs>
  <g id="DESIGNED_BY_FREEPIK" data-name="DESIGNED BY FREEPIK">
    <g>
      <path class="cls-1" d="M449.274,39.6579C414.3796-9.96413,362.94108,1.19465,333.64246,15.45941,299.6046,32.03159,246.94009,113.70875,158.6736,136.51248,70.40719,159.31613-3.11039,240.63245,25.93694,330.333c26.38836,81.48943,104.76844,90.61857,149.5719,104.94973H449.274Z"/>
      <path class="cls-2" d="M98.31162,162.72418H449.274v-1.18372H100.17737C99.5509,161.92909,98.93332,162.32927,98.31162,162.72418Z"/>
      <path class="cls-2" d="M283.972,111.38l.59418.00232V56.96015q-.58869.55845-1.18373,1.12087v52.113l-64.304-.27491q-.94588.59193-1.90116,1.17549Z"/>
      <path class="cls-2" d="M356.99318,149.56678a28.089,28.089,0,1,1,28.08924-28.08924A28.12071,28.12071,0,0,1,356.99318,149.56678Zm0-54.99418a26.90523,26.90523,0,1,0,26.90552,26.90494A26.93569,26.93569,0,0,0,356.99318,94.5726Z"/>
      <g>
        <rect class="cls-2" x="283.81941" y="148.58362" width="165.26522" height="1.18373"/>
        <path class="cls-2" d="M408.49918,149.7055H393.72224v-61.6h14.77694ZM394.906,148.52177h12.40948V89.28918H394.906Z"/>
        <path class="cls-2" d="M424.572,149.7055H409.795v-61.6H424.572Zm-13.5932-1.18373h12.40948V89.28918H410.97877Z"/>
        <path class="cls-2" d="M433.3956,149.51129l-9.67212-56.82467,14.56886-2.479,9.67212,56.82468Zm-8.30574-55.856,9.27445,54.49075,12.23377-2.08251-9.27445-54.49074Z"/>
      </g>
      <path class="cls-3" d="M66.931,366.43448l11.49459-.65422a99.75451,99.75451,0,0,0,8.332-18.28455l-10.13277-1.57922L87.604,344.83377a52.98768,52.98768,0,0,0,2.5389-14.8791l-9.51642.3783,9.46837-1.87768c-.35149-5.36145-2.48767-8.69307-6.83554-8.41606a14.51167,14.51167,0,0,0-3.02586.5428l1.57676,3.99053-2.99465-3.512c-17.15,6.80238-20.83,45.57154-21.61378,61.16958q1.97835,1.96287,4.01617,3.81757c5.83808-4.26623,11.14231-10.54994,15.56908-17.56878Z"/>
      <path class="cls-3" d="M50.99021,366.11015a456.9139,456.9139,0,0,0-1.83072-50.11029L39.9614,329.77933l8.64221-18.82368c-1.13872-9.49517-2.79091-18.60591-5.17686-25.81932l-8.96566,6.13148L41.369,279.81895c-2.62235-5.72537-5.94349-9.41736-10.15062-9.8018-4.55053-.41587-7.17353,2.98431-8.352,8.815l6.85982,2.374H22.47961c-.76143,6.02722-.30749,14.03414.966,22.886l12.98841,5.023H24.23959c1.36695,7.971,3.30337,16.42407,5.54836,24.61031l10.17345,4.49678-9.32582-1.4681c1.8133,6.34476,3.79459,12.46844,5.8198,18.00762A121.49439,121.49439,0,0,0,52.32522,377.107Z"/>
      <polygon class="cls-4" points="270.389 228.284 252.607 419.453 218.311 420.861 208.902 229.647 270.389 228.284"/>
      <path class="cls-5" d="M244.7648,419.77475s14.16053,4.36642,19.0434,7.32574,3.84712,11.2454-19.67946,6.80643-15.66654-14.13217-15.66654-14.13217Z"/>
      <rect class="cls-5" x="57.5207" y="373.73448" width="107.18498" height="2.36637" transform="translate(-279.6792 388.72696) rotate(-75.51572)"/>
      <rect class="cls-5" x="377.12487" y="320.74679" width="2.36814" height="108.12905" transform="translate(-88.25863 118.07045) rotate(-15.91098)"/>
      <path class="cls-6" d="M95.48011,234.2719s-10.75992-1.41274-16.66821,11.61971c-4.69831,10.36349-8.96345,80.59208,68.37456,80.00022l2.26849-11.24541Z"/>
      <path class="cls-7" d="M147.58657,323.90837h0c-7.98626-1.55776-37.5547-3.93809-53.03358-26.13006-15.30756-21.94636-6.88645-55.38194-6.88645-55.38194l5.18443-8.05959c-3.56607.44455-9.95873,2.55444-14.03906,11.55478C74.143,256.19,69.91633,325.59163,145.7531,325.88236,146.4204,325.16782,147.03321,324.50732,147.58657,323.90837Z"/>
      <path class="cls-6" d="M389.052,234.2719s10.75992-1.41274,16.66821,11.61971c4.69831,10.36349,8.96344,80.59208-68.37456,80.00022l-2.26849-11.24541Z"/>
      <path class="cls-7" d="M336.94554,323.90837h0c7.98626-1.55776,37.55469-3.93809,53.03357-26.13006,15.30757-21.94636,6.88646-55.38194,6.88646-55.38194l-5.18443-8.05959c3.56606.44455,9.95872,2.55444,14.03906,11.55478,4.66887,10.29844,8.89558,79.70007-66.9412,79.9908C338.11171,325.16782,337.49889,324.50732,336.94554,323.90837Z"/>
      <path class="cls-3" d="M209.65269,82.93185l-17.38505,1.03882s-19.01587-.607-22.44473,21.628S159.37243,211.572,159.37243,211.572s-1.5986,16.73121,10.2422,17.6356,97.54579-.924,97.54579-.924,12.71348.38731,10.55371-15.16c-1.67411-12.05126-11.83764-110.04645-11.83764-110.04645S263.33155,81.27279,238.73042,81.39Z"/>
      <path class="cls-4" d="M208.84617,94.42522s4.73932,4.58557,15.89254,3.79639c11.15329-.7891,16.93573-10.63671,16.97323-14.38925a15.66691,15.66691,0,0,0-.16119-2.34347c-.91012-.062-1.84162-.1036-2.82031-.099l-29.07775,1.54194-9.66438.57749Z"/>
      <path class="cls-8" d="M230.17938,40.2882s1.94821-3.23059,4.90753-1.677c3.46864,1.821,2.19483,8.48338-4.90753,7.89151Z"/>
      <path class="cls-9" d="M205.038,83.2076s.51014,10.78762,15.86793,11.548c12.43524.61571,18.31467-8.45547,17.82453-13.36567Z"/>
      <path class="cls-9" d="M207.93809,64.87075s.40444,16.75855-2.90013,18.33685L212.41,85.64135,238.73042,81.39l-6.907-17.15552-20.59711-3.84593Z"/>
      <path class="cls-10" d="M258.63478,88.69711s24.36442,34.77739,50.68006,55.00631l-11.07991,29.58626s-17.4093-7.6802-31.68868-19.62313Z"/>
      <path class="cls-11" d="M266.54622,153.66655a124.1922,124.1922,0,0,0,12.721,9.2353c-4.17935-16.49214-3.85962-50.68564-11.48829-62.07429a52.191,52.191,0,0,0-4.67051-6.04211l-4.12878-3.2567Z"/>
      <path class="cls-10" d="M215.6188,229.217c1.26811-26.38431,3.32368-102.36649-2.0346-119.973-5.05767-16.61875-7.76757-22.41512-7.4358-26.10278l-13.88076.82942s-19.01586-.607-22.44472,21.62794C166.39406,127.83357,159.3724,211.572,159.3724,211.572s-1.59858,16.7312,10.24223,17.63561C174.56043,229.58533,196.52766,229.46044,215.6188,229.217Z"/>
      <path class="cls-11" d="M186.70208,210.00738c-9.4589,5.95252-25.49442,4.04363-32.664-9.50833-10.02476,11.50608-13.34229,22.68249,9.84378,23.88818,49.322,2.5647,53.198-62.255,53.198-62.255l.00354-2.81764C208.69626,183.651,195.5067,204.46667,186.70208,210.00738Z"/>
      <path class="cls-12" d="M278.55121,275.832s-16.04243,9.31591-15.738,38.81246-.00428,108.0171-.00428,108.0171h37.00427l3.94576-90.55794L321.5149,271.5608Z"/>
      <path class="cls-13" d="M321.5149,271.56075l-13.74631,1.36659L290.15923,283.1761s-8.78767,12.41382-8.74309,28.05854c.04458,15.64479,15.24049,48.492,15.24049,48.492l-1.17578,62.93484h4.33241l3.94573-90.55794Z"/>
      <path class="cls-10" d="M172.74475,96.1667s-20.50282,54.15356-22.27841,84.82451,23.34685,37.1272,36.23576,29.01621,35.18209-48.94959,38.03664-85.65972l-13.84716-3.24065s-6.93671,23.37861-26.88631,50.60433C184.00527,171.71138,200.15264,96.57784,172.74475,96.1667Z"/>
      <path class="cls-14" d="M187.04234,84.98865a139.12584,139.12584,0,0,1-1.14809,66.91678.25021.25021,0,0,0,.48214.13292,139.78376,139.78376,0,0,0,1.14809-67.18262c-.0717-.31355-.55388-.18084-.48214.13292Z"/>
      <path class="cls-14" d="M185.37714,169.3567c8.17835-16.19514,17.88518-31.55755,26.06353-47.7527.1447-.28653-.2865-.54-.43174-.25236-8.17835,16.19515-17.88518,31.55756-26.06353,47.7527-.1447.28654.2865.54.43174.25236Z"/>
      <path class="cls-14" d="M224.48874,124.3477c-2.83038,22.382-10.899,43.51938-20.80988,63.67163-4.77908,9.71755-11.09573,19.43917-21.28557,24.09106a24.91681,24.91681,0,0,1-15.87161,1.98212,22.06775,22.06775,0,0,1-12.40573-8.43926c-8.20379-10.88587-6.94324-25.15406-4.788-37.80993.0536-.31473-.42815-.45-.48214-.13292-1.98379,11.649-3.28847,24.438,2.83043,35.13715a25.07046,25.07046,0,0,0,10.08853,10.0273,22.20321,22.20321,0,0,0,14.4984,1.763c11.18739-2.23582,19.20223-10.90377,24.68746-20.404a171.46634,171.46634,0,0,0,7.74821-15.89308c2.37805-5.31958,4.67109-10.68,6.74305-16.12707a164.27024,164.27024,0,0,0,9.54683-37.866c.04026-.31839-.46011-.31546-.5,0Z"/>
      <path class="cls-15" d="M201.66253,270.01718s29.90987,11.78081,33.547,54.77369c2.00945,23.75265.87971,102.01369.87971,102.01369H198.01271s-.65636-82.565-10.04461-101.20867-52.98457-55.57871-52.98457-55.57871Z"/>
      <path class="cls-16" d="M193.35238,348.21329c5.4509-9.52791,12.0382-33.539,9.00064-45.40768-3.15656-12.334-13.00193-19.60107-13.00193-19.60107l-.9599-13.18739H139.92594c1.34607,2.4457,2.92492,5.29859,4.676,8.43637,13.398,12.0202,36.78354,34.07015,43.36621,47.14237C190.23412,330.09592,191.9902,338.32508,193.35238,348.21329Z"/>
      <path class="cls-10" d="M277.7141,213.12362c-1.67408-12.05127-11.83763-110.04645-11.83763-110.04645s-2.54489-21.80437-27.146-21.68726h0a78.93387,78.93387,0,0,1-.77407,23.44089c-2.459,13.021,5.82709,107.9164,13.91594,121.332a8.57488,8.57488,0,0,0,2.142,2.38407c7.972-.153,13.14606-.26327,13.14606-.26327S279.87392,228.67094,277.7141,213.12362Z"/>
      <path class="cls-17" d="M112.62887,265.72964c-30.47306,0-27.8522-21.91022-27.8522-21.91022s4.06921-39.06039,9.37253-72.93416S125.46871,134.424,125.46871,134.424h54.25606s23.737,0,25.09342,27.72371c1.18187,24.15648,4.74741,84.51249,4.74741,84.51249s2.0346,19.06946-13.564,19.06946Z"/>
      <path class="cls-4" d="M375.38168,265.72964c32.3045,0,29.52612-23.227,29.52612-23.227s-4.31376-41.40794-9.93581-77.31754-33.20183-38.65262-33.20183-38.65262H304.25329s-25.16363,0-26.60155,29.38992c-1.2529,25.6083-5.03273,89.59172-5.03273,89.59172s-2.15688,20.21555,14.37922,20.21555Z"/>
      <path class="cls-9" d="M136.11365,134.424s6.021,22.49081,26.2884,21.81374c21.28176-.71095,7.88652-21.81374,7.88652-21.81374Z"/>
      <rect class="cls-9" x="138.72001" y="83.83236" width="26.38531" height="34.62021"/>
      <path class="cls-9" d="M165.10532,83.83236s11.66232,33.84,0,34.62021a19.903,19.903,0,0,1-17.42821-7.90042Z"/>
      <polygon class="cls-9" points="231.675 62.873 207.938 64.871 207.174 32.13 233.559 32.13 231.675 62.873"/>
      <path class="cls-9" d="M233.55949,32.13023s8.77916,31.99975-2.88316,32.78a19.903,19.903,0,0,1-17.42821-7.90042Z"/>
      <rect class="cls-9" x="316.97385" y="76.14791" width="26.38531" height="34.62021" transform="translate(660.33301 186.91603) rotate(-180)"/>
      <path class="cls-9" d="M316.97385,76.14791s-11.66232,33.84,0,34.62021a19.903,19.903,0,0,0,17.42821-7.90042Z"/>
      <path class="cls-14" d="M91.55755,187.63823a.25015.25015,0,0,0,0-.5.25015.25015,0,0,0,0,.5Z"/>
      <path class="cls-14" d="M148.39482,330.5808a.25015.25015,0,0,0,0-.5.25015.25015,0,0,0,0,.5Z"/>
      <path class="cls-14" d="M148.19082,330.333,144.8924,398.7452l-.939,19.475c-.0155.32165.48453.32085.5,0l3.29842-68.41218.939-19.475c.01551-.32165-.48453-.32084-.5,0Z"/>
      <path class="cls-14" d="M152.26715,276.04782a90.78229,90.78229,0,0,1,35.9992,39.42439,88.46873,88.46873,0,0,1,5.31234,14.37361.25021.25021,0,0,0,.48214-.13292,91.24509,91.24509,0,0,0-29.07146-45.29967,89.20982,89.20982,0,0,0-12.46986-8.79714.25018.25018,0,0,0-.25236.43173Z"/>
      <path class="cls-14" d="M146.31862,418.73629l17.68061.52183,8.7158.25724,4.23339.12494a12.57231,12.57231,0,0,0,3.84785-.15548.25021.25021,0,0,0-.13292-.48214,14.02291,14.02291,0,0,1-4.213.12292l-4.23339-.12494-8.71579-.25724-17.18257-.50713a.25015.25015,0,0,0,0,.5Z"/>
      <path class="cls-9" d="M187.2006,259.39417c-6.91915-2.52843-66.54895-17.81515-66.54895-17.81515l2.83273-22.88847L88.2068,214.03417c-2.112,17.13681-3.43016,29.78522-3.43016,29.78522s-2.62083,21.91022,27.85226,21.91022H191.421C191.93067,264.04606,192.04978,261.16618,187.2006,259.39417Z"/>
      <path class="cls-9" d="M211.13056,212.29564s2.74608,39.02138,1.44792,44.94-9.94405,9.29367-21.15753,8.49395l-58.85848.11637v-3.28355s22.169-16.12248,52.66293-17.16114c0,0,6.00661-24.30617,6.43728-30.38523A159.02423,159.02423,0,0,1,211.13056,212.29564Z"/>
      <path class="cls-17" d="M205.09443,167.62333s4.874,32.8842,11.15263,42.30863c0,0-7.45715,5.28139-24.58438,5.0841"/>
      <path class="cls-14" d="M333.40137,329.553q6.41942,33.78705,14.1231,67.31261,2.1623,9.404,4.42578,18.78424c.0754.31267.55767.18027.48214-.13292q-8.06262-33.433-14.84722-67.1566-1.90182-9.46008-3.70166-18.94025c-.06-.31575-.542-.18205-.48214.13292Z"/>
      <polygon class="cls-9" points="311.877 126.532 309.315 140.047 346.422 126.532 311.877 126.532"/>
      <path class="cls-12" d="M381.44108,270.01718s6.75711,37.23094-38.20931,48.92025l24.00458,107.86713h-44.2418S290.08227,324.584,289.4455,319.442c-3.42262-27.63814,25.5589-49.42486,25.5589-49.42486Z"/>
      <path class="cls-4" d="M280.19942,143.34685a74.57615,74.57615,0,0,0-4.406,14.1598c-1.62763,7.99016-12.5771,83.44494-12.5771,83.44494s-3.99508,20.72319,13.169,24.89439h17.90387l-5.91863-9.64608Z"/>
      <path class="cls-17" d="M92.6228,180.99121s-5.19606,25.16847-11.21027,33.57784c0,0,21.40879,8.53581,45.37927,5.90632a61.14941,61.14941,0,0,1-.59187-14.3874"/>
      <path class="cls-18" d="M188.38987,159.4707s7.428,16.38372,8.27014,27.77268c.599,8.10045,1.20172,5.03294-3.53319,25.05226l-1.46414,2.72042s3.32787-15.82128,2.57014-23.69367S188.63143,161.632,188.38987,159.4707Z"/>
      <path class="cls-18" d="M120.65165,241.579s21.23267,2.04378,34.94417,6.68c0,0,17.51072-5.894,26.53522-6.68,0,0,8.55771-26.6616,9.53164-26.563,0,0-1.41935,11.30053-6.43728,30.38523,0,0-14.75042.24776-28.37991,5.30124Z"/>
      <path class="cls-14" d="M187.95575,158.56979l2.89707,14.51729c.9724,4.87274,2.06706,9.74444,2.68586,14.67835,1.23175,9.82107-.69012,19.40253-2.79926,28.96085-.06919.31356.41273.44749.48214.13292,2.119-9.603,4.05317-19.22529,2.81712-29.09377-.60326-4.81639-1.65792-9.57071-2.60715-14.32736l-2.99364-15.0012c-.06292-.31529-.54495-.18183-.48214.13292Z"/>
      <path class="cls-15" d="M104.00505,270.01718s-8.58436,50.05465,42.31708,53.014c0,0-7.01314,57.41076-2.1187,105.15442H182.427s2.8-49.88761,6.92413-75.95582,23.65548-59.27073-39.27934-82.21257Z"/>
      <path class="cls-19" d="M239.64511,270.01718H107.2603v2.08734s31.12775,13.39106,132.116,11.44734c100.98823,1.94372,132.116-11.44734,132.116-11.44734v-2.08734Z"/>
      <path class="cls-16" d="M199.32454,333.03314s5.28924,47.80335,4.25752,93.77142h-5.56935s-.62957-47.003-4.55648-80.32042C193.45623,346.48414,197.08519,332.77615,199.32454,333.03314Z"/>
      <path class="cls-9" d="M160.71269,117.81105h0L142.77211,113.906,138.72,118.45255s.69821,14.39308-2.60638,15.97143l7.84219,4.7349,26.33272-4.7349C163.08238,129.68907,160.71269,117.81105,160.71269,117.81105Z"/>
      <path class="cls-5" d="M141.482,98.31925s14.56371-.59081,19.71182-10.23155a8.67535,8.67535,0,0,0,5.6967,2.09448s2.76051-6.51094-3.79779-11.59066c-6.55018-5.07343-12.1332-5.57659-20.71522-3.94576a19.79207,19.79207,0,0,0-15.88167,19.72878c0,10.65355-1.13354,20.18361-5.84422,28.53822s-7.996,8.74919-7.63571,16.24612c0,0,6.59207-3.94575,12.45277-4.7349h10.64494a10.078,10.078,0,0,0,8.28609-7.89152c1.47966-7.053-4.99693-15.69306-5.67973-22.17456C138.72,104.3579,137.52857,98.86074,141.482,98.31925Z"/>
      <path class="cls-9" d="M141.482,98.31925s-1.94821-3.23059-4.90753-1.67695c-3.46864,1.821-2.19483,8.48338,4.90753,7.89152Z"/>
      <path class="cls-5" d="M167.567,117.59887a26.99655,26.99655,0,0,0,4.89694,9.6241c3.84712,4.9322,3.94576,7.201,3.94576,7.201h-6.12113s-6.35538-3.33579-9.43464-15.97141C160.85392,118.45257,166.1542,118.60381,167.567,117.59887Z"/>
      <g>
        <path class="cls-5" d="M138.13286,104.70162c.73508,2.54675,2.33146,4.24327,3.70734,6.4384,2.71211,4.327,3.55513,10.417-.42684,14.3394-.27178.26771.14679.68617.41851.41851a10.67785,10.67785,0,0,0,2.83743-8.79127c-.48145-5.06716-4.62009-7.90036-5.96572-12.56238a.29618.29618,0,0,0-.57072.15734Z"/>
        <path class="cls-5" d="M127.13,90.11839c-.5972,8.11053-1.19639,16.35545-3.80092,24.11676-1.96107,5.84386-5.73894,10.8441-5.4217,17.222.01885.37909.61083.38135.59186,0-.36175-7.27283,4.76156-14.00633,6.53929-20.969,1.6977-6.64924,2.18125-13.551,2.68334-20.36977.028-.38-.564-.37821-.59187,0Z"/>
        <path class="cls-5" d="M126.896,93.27542c.318,9.22212-1.754,16.36158-6.37084,24.31242-3.25094,5.59856-5.9931,10.9646-5.24491,17.60027.04219.37422.63454.37851.59186,0-1.08705-9.641,5.54673-16.3241,9.11233-24.57056,2.39543-5.54011,2.70885-11.38552,2.50342-17.34213-.0131-.37981-.605-.38158-.59186,0Z"/>
        <path class="cls-5" d="M160.82455,86.66527c-.48259,3.38815-2.12661,6.88745-5.24438,8.59046-2.73435,1.49357-5.95754,1.5237-8.98932,1.57683a.29611.29611,0,0,0,0,.59186c3.39672-.05953,7.08005-.141,10.01675-2.09176,2.80184-1.86116,4.32739-5.27853,4.78767-8.51005.05306-.37254-.51714-.5335-.57072-.15734Z"/>
      </g>
      <path class="cls-5" d="M168.15838,117.04579a4.56507,4.56507,0,0,1-.45467.43494c2.19464,5.23234,7.74683,9.36238,6.70724,15.48049-.06337.37252.50689.53262.57069.15729C176.07614,126.67759,170.30049,122.5607,168.15838,117.04579Z"/>
      <path class="cls-8" d="M160.85392,118.45257a34.06912,34.06912,0,0,1-8.612-1.40678s4.56766,10.14336,12.86339,11.80023C165.10532,128.846,162.655,125.60151,160.85392,118.45257Z"/>
      <path class="cls-5" d="M133.31908,80.69045a2.38426,2.38426,0,0,0-1.917-2.13681,4.50065,4.50065,0,0,0-3.25479.46181,6.29194,6.29194,0,0,0-2.2072,2.15328,8.54194,8.54194,0,0,0-1.07728,7.06237,2.889,2.889,0,0,0,1.66543,2.06682,3.56433,3.56433,0,0,0,3.11776-.72479,8.18263,8.18263,0,0,0,2.86153-3.9802,16.949,16.949,0,0,0,.77454-4.66036"/>
      <path class="cls-20" d="M132.26653,134.424c.074,0,.98644,14.79658,16.47354,23.67454,17.2174,9.86985,31.17148-.04932,28.64277-11.7481-1.94974-9.0203-5.46145-11.92644-5.46145-11.92644Z"/>
      <path class="cls-9" d="M136.11365,134.424s6.021,22.49081,26.2884,21.81374c21.28176-.71095,7.88652-21.81374,7.88652-21.81374l-15.31527-1.0914Z"/>
      <path class="cls-16" d="M146.32213,323.03115s-3.698-3.79779-3.99392-6.97906c0,0-8.586,6.07191-26.74683-4.91721C115.58138,311.13488,124.8659,322.242,146.32213,323.03115Z"/>
      <polygon class="cls-18" points="127.023 188.736 125.067 242.555 120.652 241.579 127.023 188.736"/>
      <path class="cls-14" d="M117.62307,241.19266c20.01129,4.1735,39.66354,9.83467,59.29311,15.49579l8.31692,2.39859a24.40073,24.40073,0,0,1,4.035,1.29606c1.459.71813,2.78193,2.32828,1.84551,3.98586a.25018.25018,0,0,0,.43173.25236,3.17913,3.17913,0,0,0-.99815-4.03215c-1.65582-1.33462-4.14554-1.6856-6.13166-2.2584q-8.02623-2.31475-16.05376-4.625c-10.7211-3.07347-21.46265-6.08374-32.28483-8.78369q-9.12069-2.27544-18.32094-4.21152c-.314-.06548-.44822.41638-.13292.48214Z"/>
      <path class="cls-5" d="M343.35916,83.84276s-6.2092,3.45408-7.41761-3.50031c0,0-6.988,5.26378-21.065,2.74287l-.70323,2.69057s-7.30709-6.17327-2.86811-13.79351,20.49326.51788,25.67206,1.25771a7.74187,7.74187,0,0,1,5.99264-.36992c3.84711,1.33169,7.65884,4.80889.38921,27.29971Z"/>
      <path class="cls-9" d="M341.08265,85.753s1.94821-3.23059,4.90753-1.67695c3.46864,1.821,2.19483,8.48338-4.90753,7.89151Z"/>
      <path class="cls-5" d="M335.85985,79.49215c-2.6865,8.60316-14.905,3.82439-20.79,2.51938-.37112-.0823-.49319.2459-.1209.32846,6.06,1.3438,18.67583,6.2948,21.48166-2.6905.11379-.36441-.45738-.5203-.57072-.15734Z"/>
      <path class="cls-5" d="M334.36115,79.23623a8.32163,8.32163,0,0,1-.81808,2.082c-.90538,1.39486-2.22233,1.54219-3.72913,1.62042a12.82168,12.82168,0,0,1-6.2551-.87145c-.34339-.159-.64438.351-.29872.511,2.43045,1.12536,5.93686,1.0197,8.5569.44611,2.10448-.46073,2.52787-1.72034,3.11485-3.63076.11212-.36491-.459-.52094-.57072-.15734Z"/>
      <path class="cls-5" d="M311.80464,73.7554c-1.56407,1.41853-3.13366,3.83891-2.70372,6.079.46823,2.43951,3.24193,2.93169,5.29062,3.12864.37818.03635.46882-.54864.08871-.58518-1.94783-.18725-4.76382-.37214-4.94642-2.79988-.15219-2.02347,1.15842-4.01878,2.62186-5.34605.27941-.25341-.06871-.73259-.351-.47651Z"/>
      <path class="cls-9" d="M343.35915,110.76808l-4.05208-4.54649-18.98161,4.13156s-1.44115,9.98936-8.44894,16.17929l24.08969,2.762,10.4563-2.762C343.11791,124.95416,343.35915,110.76808,343.35915,110.76808Z"/>
      <path class="cls-8" d="M320.2547,110.76812s7.96344-.71037,12.528-5.98723c0,0,.01041,15.70958-20.90617,21.75155C311.87652,126.53244,317.77876,122.10582,320.2547,110.76812Z"/>
      <path class="cls-21" d="M346.42251,126.53244l-37.10767,13.51424,7.40691,11.92521,35.42208-25.43943S348.61736,125.52131,346.42251,126.53244Z"/>
      <path class="cls-21" d="M309.31484,140.04668l-12.835,5.02292L310.96,124.3477s.84329-1.26086,3.97282-1.16567c0,0-1.35062,2.65988-3.0563,3.35041Z"/>
      <path class="cls-21" d="M344.29162,122.36919s8.37008-.10755,7.85221,4.16327l-5.72132,0S344.84847,125.88121,344.29162,122.36919Z"/>
      <path class="cls-22" d="M348.33371,126.1009a6.05109,6.05109,0,0,0-1.9112.43154s-.95479-.365-1.61181-2.15539C344.8107,124.37705,348.99956,124.41778,348.33371,126.1009Z"/>
      <path class="cls-22" d="M311.87652,126.53244a1.827,1.827,0,0,1,1.66917-1.31025A4.78885,4.78885,0,0,1,311.87652,126.53244Z"/>
      <path class="cls-22" d="M308.27035,189.44285S314.80711,236.2811,340.06,265.846l14.11161-.1374S323.43526,234.79462,308.27035,189.44285Z"/>
      <path class="cls-14" d="M354.34834,265.5318a208.47841,208.47841,0,0,1-38.81082-58.17292q-4.06741-9.11984-7.23459-18.603c-.10169-.30356-.58476-.1734-.48214.13292a208.97715,208.97715,0,0,0,33.12968,61.80289q6.15026,7.9082,13.04431,15.19365c.22148.23434.5746-.11967.35356-.35356Z"/>
      <path class="cls-22" d="M360.67073,188.82236s-.554,24.92392-3.67732,25.01627l6.49447,3.05166a2.4102,2.4102,0,0,1-.6905-1.33169C362.69873,214.76945,360.67073,189.76338,360.67073,188.82236Z"/>
      <path class="cls-14" d="M316.545,184.17662a158.376,158.376,0,0,0,60.88343,38.756,156.13585,156.13585,0,0,0,19.77021,5.48454c.314.06536.44824-.41651.13292-.48214a157.83354,157.83354,0,0,1-65.3431-30.51524,156.12865,156.12865,0,0,1-15.08991-13.59672c-.225-.23081-.57841.1229-.35355.35356Z"/>
      <path class="cls-14" d="M360.42073,187.88135l2.36143,28.714c.02619.31844.52642.32124.5,0l-2.36143-28.714c-.02619-.31844-.52642-.32124-.5,0Z"/>
      <path class="cls-14" d="M359.51469,169.74217a96.65978,96.65978,0,0,1,.78422-24.80813c1.01227-5.6832,2.71191-12.38439,7.32611-16.27244.24638-.20761-.10885-.55975-.35355-.35356-4.58066,3.85979-6.34516,10.472-7.38579,16.11288a96.38166,96.38166,0,0,0-.871,25.32125c.02623.31842.52646.32122.5,0Z"/>
      <polygon class="cls-22" points="296.48 145.07 301.466 146.261 309.315 140.047 296.48 145.07"/>
      <polygon class="cls-22" points="309.315 140.047 314.933 151.717 316.722 151.972 309.315 140.047"/>
      <path class="cls-22" d="M316.72175,151.97189s18.406-12.02385,26.10023-15.871,12.20145-7.497,13.53886-9.56848l-4.217,0Z"/>
      <path class="cls-22" d="M283.819,139.02747a95.76427,95.76427,0,0,0-4.54834,15.9407c-2.07152,10.01076-7.47226,56.00349-7.47226,56.00349l4.65163.88779s3.00257-40.78208,3.76241-48.35659S283.819,139.02747,283.819,139.02747Z"/>
      <path class="cls-14" d="M276.7,210.23092c.91027-18.78391,2.80327-37.55526,5.22519-56.20062.6904-5.31508,1.44243-10.62241,2.2907-15.9147.05046-.31478-.43127-.45029-.48214-.13292-3.07433,19.18054-5.14433,38.55471-6.62221,57.92007-.36418,4.77193-.67988,9.54787-.91154,14.32817-.01558.32164.48446.32083.5,0Z"/>
      <path class="cls-2" d="M280.39189,262.095H204.468a2.60732,2.60732,0,0,1-2.60731-2.60732L196.291,208.69528a2.60731,2.60731,0,0,1,2.60731-2.60731h75.92388a2.60731,2.60731,0,0,1,2.60731,2.60731l5.56972,50.79236A2.60732,2.60732,0,0,1,280.39189,262.095Z"/>
      <path class="cls-14" d="M263.72034,96.67265c2.92275,9.09379,3.33477,18.50494,4.27295,27.92314.82038,8.23561,1.68073,16.46721,2.52277,24.70061.284,2.77725.59617,5.55431.83036,8.33639.02679.3183.527.32115.5,0-1.09946-13.06118-2.95382-26.06151-3.92828-39.13322-.556-7.45847-1.416-14.80484-3.71566-21.95983-.09807-.30513-.581-.17466-.48214.13291Z"/>
      <path class="cls-14" d="M305.65175,148.07814a.727.727,0,0,0,.2532.8147.30468.30468,0,0,0,.35862.04627.58677.58677,0,0,0-.17705-1.07018.31074.31074,0,0,0-.33419.136.62985.62985,0,0,0,.23.94492.30148.30148,0,0,0,.35861-.04628.84587.84587,0,0,0-.00662-1.1765l-.28793.49462.04777.0074c.37009-.03893.38878-.60125,0-.59186a.708.708,0,0,0-.26934,1.36816.797.797,0,0,0,.83672-1.27965.91719.91719,0,0,0-1.59322.51364.92965.92965,0,0,0,1.49955.74544.96053.96053,0,0,0-.38689-1.57981.97224.97224,0,0,0-1.04205,1.38487,1.00181,1.00181,0,0,0,1.7248-.0968,1.014,1.014,0,0,0-1.21154-1.34333.84916.84916,0,0,0,.13239,1.66317.72248.72248,0,0,0,.19736-1.41921.29619.29619,0,0,0-.15734.57073q-.13364.64957.122-.27834a.46825.46825,0,0,1,.40254.45788c-.07041.64741-1.10841.13567-.59767-.27067.41295-.32854.75069.393.2544.52319q-.455-.02745-.17528-.54864.7473.33858.26353.18123v-.59186c-.93854.09874-1.12113,1.47787-.08292,1.553.9866.07141,1.05948-1.28258.1925-1.53928a.29841.29841,0,0,0-.28793.49461l.00662.33948.35862-.04627-.01768-.13514-.3342.136.03567-.01159.35862.04627-.101-.23885a.29619.29619,0,0,0-.57073-.15734Z"/>
      <path class="cls-14" d="M304.69731,153.52968a.727.727,0,0,0,.2532.8147.30467.30467,0,0,0,.35862.04627.58677.58677,0,0,0-.17705-1.07018.31076.31076,0,0,0-.3342.136.62986.62986,0,0,0,.23.94492.3015.3015,0,0,0,.35862-.04628.84588.84588,0,0,0-.00662-1.1765l-.28793.49462.04777.0074c.37009-.03893.38878-.60125,0-.59186a.708.708,0,0,0-.26934,1.36816.797.797,0,0,0,.83672-1.27965.91719.91719,0,0,0-1.59322.51364.92965.92965,0,0,0,1.49955.74545.96054.96054,0,0,0-.38689-1.57982.97224.97224,0,0,0-1.042,1.38487,1.00181,1.00181,0,0,0,1.7248-.09679,1.014,1.014,0,0,0-1.21155-1.34334.84916.84916,0,0,0,.13239,1.66317.72248.72248,0,0,0,.19737-1.4192.29618.29618,0,0,0-.15734.57072q-.13365.64957.122-.27834a.46825.46825,0,0,1,.40254.45788c-.07041.64742-1.10841.13567-.59767-.27067.413-.32854.75069.393.25439.52319q-.455-.02745-.17527-.54864.7473.33858.26353.18123v-.59186c-.93855.09874-1.12113,1.47787-.08292,1.553.9866.07141,1.05948-1.28257.19249-1.53928a.29842.29842,0,0,0-.28792.49462l.00662.33947.35862-.04627-.01768-.13514-.3342.136.03567-.01159.35861.04627-.101-.23885a.29619.29619,0,0,0-.57072-.15734Z"/>
      <path class="cls-10" d="M206.72689,79.87575s-5.01358.14576-5.53219,3.56148l3.62444.75233,1.32926-1.04833A16.74079,16.74079,0,0,1,206.72689,79.87575Z"/>
      <path class="cls-10" d="M237.76144,78.98321a14.2672,14.2672,0,0,1,1.32648,5.939l3.9226-3.31642S242.09175,78.953,237.76144,78.98321Z"/>
      <path class="cls-11" d="M201.1947,83.43723s-.69508,9.06087,12.3895,25.80678l.14193.48924S199.591,100.39532,198.193,83.61661Z"/>
      <path class="cls-11" d="M243.01052,81.60577s3.32817,11.59325-5.24908,24.88142l-.085.75751s11.29517-8.15865,9.24365-24.96574A26.4657,26.4657,0,0,0,243.01052,81.60577Z"/>
      <path class="cls-23" d="M241.54721,231.628a5.15455,5.15455,0,0,0-5.67024-4.55688c-.04364.00679-.08208.02579-.12521.03381a3.9118,3.9118,0,0,1-3.85925,4.08669,5.7841,5.7841,0,0,0-.03728,1.941,4.92449,4.92449,0,1,0,9.692-1.50466Z"/>
      <path class="cls-5" d="M210.55429,40.78142s2.95428-1.79544,3.17184-4.45882c0,0,7.96042,5.85831,14.71823,4.45882s5.64949-6.53669,5.64949-6.53669l.97168,4.43718s4.03017-4.87473,1.66382-9.01778-7.94043-5.91863-14.84516-5.91863-10.60388,2.66338-10.60388,2.66338-8.45577.97681-5.63356,12.69559c0,0-1.98265,11.42636,2.06946,16.25671a57.88428,57.88428,0,0,0,.00137-8.55685S207.75674,41.61507,210.55429,40.78142Z"/>
      <path class="cls-5" d="M212.05714,27.03774a4.67413,4.67413,0,0,1-1.50285-2.29347,4.80344,4.80344,0,0,0,.24514,2.29347C211.24332,28.18447,212.05714,27.03774,212.05714,27.03774Z"/>
      <path class="cls-5" d="M211.28353,26.88977s-2.37067-.48089-2.92554-2.1455c0,0-.148,2.01809,1.10974,2.80313A1.2,1.2,0,0,0,211.28353,26.88977Z"/>
      <path class="cls-8" d="M231.99538,64.66162s-11.83711,3.28868-17.36117-4.47952c0,0,3.66225,12.42748,11.29473,11.65231,6.31321-.64119,6.52538-6.03288,6.52538-6.03288Z"/>
      <path class="cls-8" d="M87.66654,218.46107s13.93146,7.19773,35.25835,6.451l.52147-4.13942s-13.8926,1.77392-35.56528-4.07972Z"/>
      <path class="cls-14" d="M127.02549,186.20133c-1.83069,18.47832-3.94212,36.93443-6.61491,55.31123-.04578.31474.43593.45064.48214.13292,2.67923-18.42108,4.79767-36.9213,6.63277-55.44415.0317-.32-.46852-.31776-.5,0Z"/>
      <path class="cls-5" d="M212.05714,38.68191s.25894,11.89473,2.57707,15.34727,16.80489,7.30358,22.08929-.39261c0,0,1.58525,5.17684-1.26667,9.54617-2.26129,3.46444-9.56233,3.91676-11.91256,3.25091s-8.74251-2.21948-10.7843-10.43159a88.84338,88.84338,0,0,1-2.312-16.27625Z"/>
      <path class="cls-5" d="M213.24812,55.55816a11.4644,11.4644,0,0,1-.43882,3.058,6.8584,6.8584,0,0,0,.91683-1.529C213.9437,56.446,213.24812,55.55816,213.24812,55.55816Z"/>
      <path class="cls-5" d="M212.8093,54.79367a9.63921,9.63921,0,0,1-.27129,2.29347,5.37739,5.37739,0,0,0,.71011-1.529A.81245.81245,0,0,0,212.8093,54.79367Z"/>
      <g>
        <path class="cls-5" d="M222.1639,49.39157a4.30431,4.30431,0,1,1,4.30488-4.30431A4.3089,4.3089,0,0,1,222.1639,49.39157Zm0-7.72081a3.41651,3.41651,0,1,0,3.41709,3.4165A3.4205,3.4205,0,0,0,222.1639,41.67076Z"/>
        <path class="cls-5" d="M232.65907,48.32517a4.1205,4.1205,0,1,1,4.12108-4.1205A4.125,4.125,0,0,1,232.65907,48.32517Zm0-7.35321a3.23271,3.23271,0,1,0,3.23329,3.23271A3.23587,3.23587,0,0,0,232.65907,40.972Z"/>
        <path class="cls-5" d="M226.05841,44.407l-.55256-.69475a3.26711,3.26711,0,0,1,3.72573-.14739l-.47626.75024A2.37845,2.37845,0,0,0,226.05841,44.407Z"/>
        <path class="cls-5" d="M218.06825,44.58094c-.06127-.03872-6.21572-3.87485-9.02014-4.59734l.22195-.86005c2.9362.75716,9.012,4.54417,9.26983,4.70485Z"/>
      </g>
      <path class="cls-9" d="M210.55429,40.78142s-1.94822-3.23059-4.90754-1.67695c-3.46864,1.821-2.19482,8.48338,4.90754,7.89151Z"/>
      <path class="cls-13" d="M343.23177,318.93743s-.80436-4.4883.77394-6.85575c0,0,1.174,4.5193,14.19987,1.17457A57.99085,57.99085,0,0,1,343.23177,318.93743Z"/>
      <g>
        <ellipse class="cls-5" cx="155.20125" cy="99.94195" rx="0.57993" ry="0.77628" transform="translate(-15.02095 28.52609) rotate(-10.0193)"/>
        <ellipse class="cls-5" cx="166.88027" cy="97.42448" rx="0.57993" ry="0.77628" transform="translate(-14.40484 30.51961) rotate(-10.0193)"/>
        <path class="cls-24" d="M162.24284,99.17116s1.20551,3.2147,2.75545,4.13318-.11481,2.23881-1.37772,2.411S161.43916,99.11375,162.24284,99.17116Z"/>
      </g>
      <g>
        <ellipse class="cls-5" cx="327.69317" cy="91.16762" rx="0.77628" ry="0.57993" transform="matrix(0.03367, -0.99943, 0.99943, 0.03367, 225.5447, 415.60566)"/>
        <ellipse class="cls-5" cx="315.77609" cy="90.31876" rx="0.77628" ry="0.57993" transform="translate(214.87722 402.87506) rotate(-88.07064)"/>
        <path class="cls-24" d="M320.61318,91.39544s-.74112,3.35236-2.14638,4.47982.42873,2.20038,1.70331,2.19315S321.40078,91.22551,320.61318,91.39544Z"/>
      </g>
      <ellipse class="cls-5" cx="223.22523" cy="45.76376" rx="0.57993" ry="0.77628" transform="matrix(0.99943, -0.03367, 0.03367, 0.99943, -1.41419, 7.54132)"/>
      <ellipse class="cls-5" cx="233.03453" cy="45.35703" rx="0.57993" ry="0.77628" transform="translate(-1.39494 7.87135) rotate(-1.92936)"/>
      <path class="cls-5" d="M162.42961,111.46961a3.87552,3.87552,0,0,1-.52944-.037,3.35186,3.35186,0,0,1-2.89574-3.29108v-.79648l.52019.604c.07861.09016,1.95824,2.205,5.65623,1.14095l.615-.17686-.26356.58319A3.56566,3.56566,0,0,1,162.42961,111.46961Zm-2.71309-2.568a2.57424,2.57424,0,0,0,2.26457,1.94494,2.804,2.804,0,0,0,2.62755-1.00918A6.09452,6.09452,0,0,1,159.71652,108.9016Z"/>
      <path class="cls-5" d="M318.91971,104.36321a7.02934,7.02934,0,0,1-1.43457-.13468l.13525-.57568c.17455.04046,4.25286.94733,6.16948-2.56223l.52019.28321A5.85054,5.85054,0,0,1,318.91971,104.36321Z"/>
      <path class="cls-24" d="M226.11053,50.11768a2.72524,2.72524,0,0,1,2.01237-1.14437,2.23675,2.23675,0,0,1,2.05611.74254,2.49427,2.49427,0,0,1-1.65987.82925A4.13039,4.13039,0,0,1,226.11053,50.11768Z"/>
      <path class="cls-5" d="M226.74044,56.9517a3.7458,3.7458,0,0,1-1.20916-.20981,2.8146,2.8146,0,0,1-2.19176-2.65356l-.04969-.64735.52135.38725a7.1809,7.1809,0,0,0,5.41925,1.20512l.7537-.193-.43581.64561A3.63865,3.63865,0,0,1,226.74044,56.9517Zm-2.69922-2.27382a2.29361,2.29361,0,0,0,1.682,1.50336,2.81582,2.81582,0,0,0,2.7235-.41558A7.737,7.737,0,0,1,224.04122,54.67788Z"/>
      <path class="cls-8" d="M209.81808,47.03009s-.10752,2.68366-1.949,3.05346l-.15146-3.27922A6.87051,6.87051,0,0,0,209.81808,47.03009Z"/>
      <path class="cls-8" d="M341.08265,91.96754s.057,4.25208,2.27651,5.39881V91.89323A8.30245,8.30245,0,0,1,341.08265,91.96754Z"/>
      <path class="cls-14" d="M189.94381,261.60323c6.47494,2.28233,14.6178-.78667,20.24268,3.97446.24421.2067.5996-.14529.35356-.35356-5.75079-4.8677-13.87363-1.78026-20.46332-4.103-.30406-.10718-.43485.37571-.13292.48213Z"/>
      <path class="cls-14" d="M191.50181,262.09319c1.79687.07928,3.59511.09035,5.39242.016,1.69188-.07,3.38131-.31681,5.07327-.34205a10.492,10.492,0,0,1,8.06733,3.657c.21116.24355.56353-.11137.35356-.35356a10.98748,10.98748,0,0,0-7.474-3.77968,48.23664,48.23664,0,0,0-5.66091.30249c-1.91669.09007-3.835.08443-5.75168-.00013-.32172-.01419-.321.48584,0,.5Z"/>
      <rect class="cls-2" x="204.46802" y="262.09496" width="89.82115" height="3.75102" rx="1.19331"/>
      <path class="cls-23" d="M201.86071,259.48766a2.6073,2.6073,0,0,0,2.60732,2.60725h75.92384a2.6073,2.6073,0,0,0,2.60732-2.60725l-.91959-8.3863-84.25313-28.40353Z"/>
      <path class="cls-2" d="M232.1586,234.2719a5.02534,5.02534,0,0,0,5.3668,3.41767,4.51476,4.51476,0,0,0,2.06589-.91193Z"/>
      <path class="cls-25" d="M294.28917,264.43339v-.92587a1.41257,1.41257,0,0,0-1.41254-1.41261H205.88057a1.41257,1.41257,0,0,0-1.41254,1.41261v.05368h80.4623c1.29469.037,1.17968,1.10974,1.17968,1.10974v1.03764l.06893.13735h6.69769A1.41251,1.41251,0,0,0,294.28917,264.43339Z"/>
      <path class="cls-14" d="M205.88057,262.345h74.51132a.25015.25015,0,0,0,0-.5H205.88057a.25015.25015,0,0,0,0,.5Z"/>
      <path class="cls-9" d="M312.3918,186.357l-3.7216,2.0479s-.34832.33037-.98361-.36347-2.94116-2.02673-3.14766-4.81926c-.1436-1.942,1.606-3.2788,2.64177-3.94464,0,0-.39326-1.81028,1.66219-1.682a6.63954,6.63954,0,0,1-.69357-1.52039,1.32521,1.32521,0,0,0-.63559-.257c-.41807-.06533-3.71648-.4617-4.35522-1.64543s1.39563-.46521,2.96785-.4823a12.21248,12.21248,0,0,0,2.90391-.40077s4.84454,3.38921,5.07862,3.49056,2.33789.725,2.75419,2.28626a5.302,5.302,0,0,1-.32354,3.17039,9.358,9.358,0,0,1-.24044,1.96055C316.13264,184.41939,312.3918,186.357,312.3918,186.357Z"/>
      <path class="cls-14" d="M308.188,189.03823c2.82138-1.72216,5.83851-3.10036,8.65989-4.82252.27424-.1674.02331-.6-.25236-.43174-2.82138,1.72217-5.83851,3.10036-8.65989,4.82252-.27424.1674-.02331.6.25236.43174Z"/>
      <path class="cls-14" d="M316.71041,184.0663a7.20843,7.20843,0,0,0-1.68875-6.49312,25.852,25.852,0,0,0-6.05259-4.44532.25019.25019,0,0,0-.25236.43173,27.98788,27.98788,0,0,1,5.587,4.00614,6.07626,6.07626,0,0,1,1.74565,2.67488,7.4018,7.4018,0,0,1,.17888,3.69277c-.06466.31406.41719.44837.48214.13292Z"/>
      <path class="cls-14" d="M308.77643,173.10266a16.60461,16.60461,0,0,1-5.14105.38527c-.29529-.01948-.68379-.05939-.72366.33486-.03251.32155.27858.63241.489.83479a4.56075,4.56075,0,0,0,1.87654.99708c.90146.2727,1.82754.36813,2.74436.56489.31379.06734.44787-.41455.13292-.48214-.91682-.19676-1.843-.29172-2.74436-.56489a5.18691,5.18691,0,0,1-1.092-.452,2.87122,2.87122,0,0,1-.53489-.38861c-.14111-.13223-.23464-.317-.36789-.44536q-.12951.11511.036.08831.092.007.184.013.14011.00925.28035.01641.384.01965.76852.02432.69322.00864,1.386-.0307a15.11714,15.11714,0,0,0,2.8391-.41316.25022.25022,0,0,0-.13292-.48214Z"/>
      <path class="cls-14" d="M307.847,176.04494a6.5353,6.5353,0,0,0,1.22858,1.99917.25.25,0,1,0,.35356-.35355,5.86587,5.86587,0,0,1-1.1-1.77854.25746.25746,0,0,0-.30753-.17461.25182.25182,0,0,0-.17461.30753Z"/>
      <path class="cls-14" d="M309.39714,177.62916a1.67815,1.67815,0,0,0-2.61615,1.49138.25561.25561,0,0,0,.25.25.25228.25228,0,0,0,.25-.25,1.18061,1.18061,0,0,1,1.8638-1.05964.25.25,0,0,0,.25235-.43174Z"/>
      <path class="cls-14" d="M313.70592,176.93377a4.98632,4.98632,0,0,1,2.8567,2.11557,2.83486,2.83486,0,0,1,.14184,1.62171,7.65548,7.65548,0,0,1-.332,1.73839c-.10711.30409.37578.43488.48214.13292a8.41382,8.41382,0,0,0,.35467-1.91678,3.16937,3.16937,0,0,0-.21492-1.8286,5.52029,5.52029,0,0,0-3.15551-2.34535c-.29655-.12386-.426.35974-.13292.48214Z"/>
      <path class="cls-9" d="M213.924,121.91067s-.35123-6.06778-1.25084-7.43887a11.7485,11.7485,0,0,1,1.92359,1.63155s.35466.23213.40758-.51186.08956-8.0111-.09095-9.02407c0,0,1.817,1.79838,2.40889,6.50863l.2616.1707s1.38511-.9995,2.32879.80941c0,0,1.68177-1.032,2.6566.277a2.57106,2.57106,0,0,1,2.50748.18023,2.52594,2.52594,0,0,1,.99655,1.86162s2.28358,3.583-2.796,7.70062Z"/>
      <path class="cls-14" d="M211.15834,121.71889c4.551.7348,8.96291,2.13508,13.51394,2.86988.31478.05082.45025-.43091.13292-.48214-4.551-.7348-8.96292-2.13508-13.51394-2.86988-.31478-.05082-.45025.43091-.13292.48214Z"/>
      <path class="cls-14" d="M214.16505,121.86039c-.69462-2.46006.08539-5.208-1.276-7.49859l-.34205.34205a10.37429,10.37429,0,0,1,2.10248,1.84953c.21156.24323.564-.11166.35356-.35355a10.85817,10.85817,0,0,0-2.20368-1.92772c-.21248-.1408-.46571.134-.342.34205,1.32369,2.22712.54679,4.975,1.22563,7.37915a.25021.25021,0,0,0,.48214-.13292Z"/>
      <path class="cls-14" d="M215.19625,116.221a66.9127,66.9127,0,0,0-.04241-9.84871l-.42677.17678a7.13121,7.13121,0,0,1,1.53678,3.13247c.34607,1.27355.63275,2.56509.89987,3.85721.06509.31491.54716.18164.48214-.13292-.288-1.39329-.58912-2.79286-.98465-4.16022a7.24991,7.24991,0,0,0-1.58059-3.05009.25253.25253,0,0,0-.42678.17677,66.9127,66.9127,0,0,1,.04241,9.84871c-.03286.31978.46738.31748.5,0Z"/>
      <path class="cls-14" d="M217.67435,113.5291a1.02279,1.02279,0,0,1,1.13423-.25705,1.67044,1.67044,0,0,1,.91231.98564.25743.25743,0,0,0,.30753.17461.25183.25183,0,0,0,.17461-.30753,2.18514,2.18514,0,0,0-1.29461-1.34613,1.51227,1.51227,0,0,0-1.66581.4981.25149.25149,0,0,0,.08969.34205.25625.25625,0,0,0,.34205-.08969Z"/>
      <path class="cls-14" d="M220.09033,114.38441a1.40106,1.40106,0,0,1,2.35339.27136c.14732.28619.57891.03355.43173-.25236a1.90269,1.90269,0,0,0-3.13867-.37255.25641.25641,0,0,0,0,.35355.25218.25218,0,0,0,.35355,0Z"/>
      <path class="cls-5" d="M156.237,428.18557s5.99467,24.68247,19.27947,25.54878c10.17816.66372,6.21415-19.30412,1.65189-25.54878Z"/>
      <path class="cls-5" d="M206.54541,426.80456s-.8878,9.02591,6.95439,12.1332,30.03708,5.32677,34.32809,4.58694,5.91863-9.76575-17.312-16.72014Z"/>
      <path class="cls-5" d="M273.574,422.66151s-11.39337,8.73-14.94455,15.68438,9.17388,4.439,18.05183-.88779,19.39943-9.61778,18.79962-14.79659Z"/>
      <path class="cls-5" d="M333.64244,426.80456s-3.99925,26.44389,7.00938,29.1986c11.14493,2.78881,11.19608-27.571,10.90015-29.1986Z"/>
      <path class="cls-16" d="M50.99021,366.11015a456.72359,456.72359,0,0,0-1.84076-50.20841c-.01192.039-8.84118,29.00435.86612,58.54869q1.14171,1.35033,2.30965,2.65652Z"/>
      <path class="cls-16" d="M76.62616,322.135c-15.07482,8.97152-18.57969,44.20141-19.39032,59.46545C75.82947,350.24637,76.61561,322.544,76.62616,322.135Z"/>
      <path class="cls-3" d="M59.31936,337.03854l12.28377-5.98128a177.18093,177.18093,0,0,0,1.4798-20.6158l-11.00157,2.7253,10.9981-5.44887c-.2213-18.85373-4.61823-30.025-12.97873-19.60671a31.86515,31.86515,0,0,0-3.96293,6.54749l5.94356,6.86806L55.12,297.022a75.55193,75.55193,0,0,0-4.16147,16.6955l7.17714,8.41751-7.45978-6.34309c-3.51188,27.52259,1.6454,61.2893,1.6493,61.315q2.28224,2.54483,4.66541,4.91509c7.01075-13.19663,11.686-30.74966,14.11542-47.34742Z"/>
      <g>
        <path class="cls-16" d="M76.787,368.47891l-5.369-1.11372a27.9673,27.9673,0,0,0-6.17432,15.34344A71.07431,71.07431,0,0,0,76.787,368.47891Z"/>
        <path class="cls-16" d="M73.67255,365.15206a12.35041,12.35041,0,0,0-1.08467.96047l5.83771-.33227c.15722-.269.30627-.54273.46088-.8133Z"/>
      </g>
      <g>
        <path class="cls-3" d="M134.1893,423.47554a36.72859,36.72859,0,0,0,12.79384-24.17024,35.8757,35.8757,0,0,0-.449-10.30559l-41.4371,6.05388L66.58724,383.10766a36.02177,36.02177,0,0,0-1.50249,6.30278C86.013,406.90553,111.0041,416.48914,134.1893,423.47554Z"/>
        <g>
          <path class="cls-3" d="M67.17565,381.481,105.097,395.05362,70.73918,374.64238A36.44525,36.44525,0,0,0,67.17565,381.481Z"/>
          <path class="cls-3" d="M73.631,370.8402,105.097,395.05362l.15269-38.31674A41.73766,41.73766,0,0,0,73.631,370.8402Z"/>
          <path class="cls-3" d="M112.31158,357.29309,105.097,395.05362,138.272,371.77273A42.48932,42.48932,0,0,0,112.31158,357.29309Z"/>
          <path class="cls-3" d="M140.62346,374.87105,105.097,395.05362l39.88174-11.719A37.93318,37.93318,0,0,0,140.62346,374.87105Z"/>
        </g>
      </g>
      <ellipse class="cls-13" cx="429.91978" cy="433.84518" rx="44.05774" ry="6.7433"/>
      <g>
        <path class="cls-17" d="M444.64168,361.20974s1.23964-38.42866,45.86646-51.68173c0,0-6.19817,37.89976-35.01966,51.68173Z"/>
        <path class="cls-20" d="M478.559,314.12283c-32.89517,15.86231-33.91728,47.08688-33.91728,47.08688h4.80086C472.63748,343.98754,478.51039,314.36964,478.559,314.12283Z"/>
        <path class="cls-17" d="M441.85251,361.20974s-.92973-61.249,42.76737-89.43411c0,0-4.03426,56.43781-35.17734,89.43411Z"/>
        <path class="cls-20" d="M450.764,315.24958a135.908,135.908,0,0,0-8.91145,45.96013h2.78917C454.23023,343.27882,450.77743,315.35762,450.764,315.24958Z"/>
        <path class="cls-17" d="M436.44112,361.20974S418.60937,270.34593,430.076,218.3846c0,0,30.99085,67.9912,14.5657,142.82514Z"/>
        <path class="cls-20" d="M434.09957,347.84611c10.51465-58.90289-7.76973-92.19309-7.81407-92.27359C425.65812,290.17347,430.90826,328.21951,434.09957,347.84611Z"/>
        <path class="cls-17" d="M428.21653,361.20974s-2.16936-72.06269-21.38369-93.44638c0,0-9.60716,55.49155,14.5657,93.44638Z"/>
        <path class="cls-20" d="M416.33242,285.41536c-.01415.18038-4.36475,55.84663,8.785,75.79435l2.92642-3.98387C427.44108,345.368,424.96817,309.61682,416.33242,285.41536Z"/>
        <path class="cls-20" d="M407.4199,323.32778c2.3057,12.86975,6.542,26.20535,13.97864,37.88193h6.818C425.74021,337.2294,407.4634,323.36069,407.4199,323.32778Z"/>
        <g>
          <path class="cls-26" d="M419.35693,429.36957h34.29872c28.419-17.28811,22.25485-61.26439,22.25485-61.26439l-39.40421-2.801-39.40422,2.801S390.938,412.08146,419.35693,429.36957Z"/>
          <rect class="cls-19" x="391.25964" y="361.20974" width="90.49329" height="8.18894" rx="1.55811"/>
        </g>
        <path class="cls-13" d="M476.31055,372.592S431.52061,372.39448,396.77278,385c0,0-.55587-11.57752.1808-15.60127h79.10535S476.253,371.52092,476.31055,372.592Z"/>
        <path class="cls-17" d="M425.11745,361.20974s-17.045-63.07535,0-103.36345c0,0,14.25579,46.81411,6.19817,103.36345Z"/>
        <path class="cls-17" d="M425.11745,361.20974S412.4112,317.82255,378.32126,309.528c0,0,7.74771,36.04031,34.39985,51.68173Z"/>
        <path class="cls-20" d="M447.54337,285.43284q-.63318-5.11792-1.4266-9.95929l-6.66961,4.68615-6.23063,62.10276c1.79181,11.64359,3.22461,18.94725,3.22461,18.94725C448.70953,338.29539,447.56032,286.17636,447.54337,285.43284Z"/>
        <path class="cls-20" d="M428.21653,361.20971h3.09909L432.53248,299.53S426.59406,321.68744,428.21653,361.20971Z"/>
        <path class="cls-17" d="M429.921,361.20974s-.46486-94.686,16.5801-135.284c0,0,3.6156,89.68479-7.95431,135.284Z"/>
        <path class="cls-20" d="M378.32126,309.528a102.65446,102.65446,0,0,0,11.07348,27.22239C388.793,316.90966,378.32126,309.528,378.32126,309.528Z"/>
        <path class="cls-20" d="M439.97338,247.255a45.6085,45.6085,0,0,0-4.70333,26.77981S438.13251,254.63529,439.97338,247.255Z"/>
        <path class="cls-13" d="M464.7861,369.39868s.55166,39.71589-18.17058,59.97089h-1.97384s18.31049-22.61324,16.95864-59.97089Z"/>
        <path class="cls-13" d="M437.35908,429.36957s4.82876-37.31175,4.49188-59.97089h2.79072s-1.4586,39.124-6.29215,59.97089Z"/>
      </g>
      <rect class="cls-26" x="64.50163" y="265.72964" width="350.66873" height="4.28754"/>
      <path class="cls-14" d="M75.48516,270.26715H401.86037a.25015.25015,0,0,0,0-.5H75.48516a.25015.25015,0,0,0,0,.5Z"/>
      <circle class="cls-13" cx="292.16193" cy="264.65422" r="0.56015"/>
      <circle class="cls-13" cx="290.36167" cy="264.65422" r="0.56015"/>
      <path class="cls-14" d="M175.413,282.765c9.9582,7.04153,17.97891,16.66753,19.47871,29.12609,1.86538,15.49534-4.36814,30.07142-6.54037,45.1565-2.45757,17.06661-3.53572,34.29459-4.77632,51.47981q-.70952,9.82835-1.39809,19.65821c-.02248.32112.47762.31972.5,0,.99191-14.17329,1.98984-28.34708,3.09865-42.51176q1.00906-12.89062,2.67894-25.71771c.5291-4.07594,1.16566-8.14184,2.05033-12.157.81969-3.7203,1.9102-7.37428,2.76748-11.08631,1.72039-7.44943,2.87652-15.12954,2.31216-22.79053a37.10932,37.10932,0,0,0-5.69885-17.4015,52.54631,52.54631,0,0,0-14.22028-14.18749c-.26324-.18615-.51329.24722-.25236.43173Z"/>
      <path class="cls-14" d="M302.14429,282.66955c-9.02544,11.47-16.30235,26.16855-11.89005,41.027a.25022.25022,0,0,0,.48214-.13292c-4.35867-14.67788,2.846-29.21023,11.76146-40.54055.19683-.25014-.15463-.60636-.35355-.35355Z"/>
      <path class="cls-14" d="M290.25424,323.69657c3.71877,12.32583,7.63677,24.59385,11.49544,36.87629q7.85276,24.99588,15.77448,49.97011c1.73032,5.4465,3.44739,10.89813,5.22932,16.328.09989.30435.58288.174.48214-.13292-4.01442-12.23278-7.83644-24.53092-11.714-36.80747q-7.89116-24.98377-15.71328-49.98938c-1.70356-5.45491-3.42125-10.90637-5.072-16.3776a.25022.25022,0,0,0-.48214.13292Z"/>
      <path class="cls-5" d="M113.01594,139.15888a3.26856,3.26856,0,0,0,4.05943,2.86068c3.20593-.59187,2.41678-6.46118,7.29965-7.44762s-7.053-.69051-7.053-.69051l-3.10728,2.56475Z"/>
      <path class="cls-16" d="M138.32519,419.318c-34.444-4.46159-73.24044-29.90753-73.24044-29.90753,20.92829,17.49509,45.91935,27.0787,69.10455,34.0651A38.99382,38.99382,0,0,0,138.32519,419.318Z"/>
      <g>
        <path class="cls-2" d="M449.274,54.086H287.5883c-.41348.394-.82588.78708-1.24276,1.18372H449.274Z"/>
        <path class="cls-2" d="M303.69151,38.7808H448.64063c-.28444-.39629-.56823-.79532-.85477-1.18373H304.96215Q304.33,38.18435,303.69151,38.7808Z"/>
      </g>
      <path class="cls-2" d="M447.19,60.9803H291.57377V54.20162H447.19ZM292.7575,59.79658H446.00622V55.38534H292.7575Z"/>
    </g>
  </g>
</svg>
