<svg id="Layer_1" data-name="Layer 1" xmlns="http://www.w3.org/2000/svg" xmlns:xlink="http://www.w3.org/1999/xlink" width="287" height="180" viewBox="0 0 287 180">
  <defs>
    <style>
      .cls-1 {
        fill: none;
      }

      .cls-2 {
        fill: #f1f3ff;
      }

      .cls-3 {
        fill: #9981f7;
      }

      .cls-4 {
        fill: #fff;
      }

      .cls-5 {
        fill: #fafbff;
      }

      .cls-6 {
        clip-path: url(#clip-path);
      }

      .cls-7 {
        clip-path: url(#clip-path-2);
      }

      .cls-8 {
        clip-path: url(#clip-path-3);
      }

      .cls-9 {
        fill: #c9bcfe;
      }

      .cls-10 {
        fill: #5a6bf0;
      }

      .cls-11 {
        fill: #481bcd;
      }

      .cls-12 {
        fill: #1f19b2;
      }

      .cls-13 {
        fill: #fed77c;
      }

      .cls-14 {
        fill: #fdbc05;
      }

      .cls-15 {
        fill: #b5a397;
      }

      .cls-16 {
        fill: #ca841b;
      }

      .cls-17 {
        fill: #6e5e4b;
      }

      .cls-18 {
        fill: #003bcd;
      }

      .cls-19 {
        fill: #fed692;
      }

      .cls-20 {
        fill: #fdac05;
      }

      .cls-21 {
        fill: #f5e5f5;
      }

      .cls-22 {
        fill: #f9d195;
      }

      .cls-23 {
        fill: #3f1dc4;
      }

      .cls-24 {
        fill: #f0d9b6;
      }

      .cls-25 {
        fill: #4e427f;
      }

      .cls-26 {
        fill: #cbbfc6;
      }

      .cls-27 {
        fill: #0c9fe7;
      }

      .cls-28 {
        fill: #fed83f;
      }

      .cls-29 {
        fill: #76509c;
      }

      .cls-30 {
        fill: #2d27c1;
      }

      .cls-31 {
        fill: #fdeaae;
      }

      .cls-32 {
        fill: #816ef4;
      }

      .cls-33 {
        fill: #c4bcfb;
      }
    </style>
    <clipPath id="clip-path">
      <polyline class="cls-1" points="125.141 80.186 179.016 80.186 179.016 117.818 125.141 117.818 125.141 80.186"/>
    </clipPath>
    <clipPath id="clip-path-2">
      <polyline class="cls-1" points="67.169 35.6 121.044 35.6 121.044 73.232 67.169 73.232 67.169 35.6"/>
    </clipPath>
    <clipPath id="clip-path-3">
      <polyline class="cls-1" points="135.218 18.132 189.092 18.132 189.092 55.764 135.218 55.764 135.218 18.132"/>
    </clipPath>
  </defs>
  <g>
    <path class="cls-2" d="M254.55248,114.18037c3.22553-6.65516,5.06844-14.88991.8334-20.93235-4.97264-7.09427-15.46214-7.67042-24.44488-8.11814-8.54471-.4262-18.56853-2.38928-21.90309-9.86527-2.5597-5.73929.01038-12.28.72035-18.51007,2.05456-18.02611-13.59736-35.15269-32.2606-38.44773-18.6636-3.295-38.39162,5.55018-50.48976,19.64662-5.24133,6.1071-10.84573,13.94006-19.07473,13.62327-4.19918-.16179-7.8577-2.54352-11.47247-4.55289-6.597-3.6675-14.026-6.36351-21.70042-6.258-7.67439.10582-15.60061,3.37978-19.79907,9.53952-3.24094,4.75487-3.97888,10.5867-5.48563,16.05764C45.72879,79.96711,36.96273,91.879,32.12811,105.17827c-4.83481,13.29957-4.602,30.11706,6.81349,38.86769,6.14252,4.70859,14.31592,6.14251,22.15066,7.20692a432.25009,432.25009,0,0,0,88.27978,2.83556,434.22479,434.22479,0,0,0,43.94722-5.33568c10.22762-1.77582,23.21148-2.13241,32.86256-5.79884,12.41743-4.71756,22.94711-17.58305,28.37066-28.77355Z"/>
    <polygon class="cls-3" points="123.077 119.881 123.077 78.122 181.08 78.122 181.08 119.881 123.077 119.881 123.077 119.881"/>
    <polygon class="cls-4" points="125.141 80.186 179.016 80.186 179.016 117.818 125.141 117.818 125.141 80.186 125.141 80.186"/>
    <path class="cls-5" d="M128.04147,93.36678H146.708a2.35874,2.35874,0,0,1-1.45868-2.04632,9.1506,9.1506,0,0,0,.10475-1.23014,2.28335,2.28335,0,0,0-1.694-1.69869,4.119,4.119,0,0,0-2.73046-.01937,2.98112,2.98112,0,0,0-1.85006,1.93976c-.29634-.80826.08322-1.75428-.01327-2.60991a2.16546,2.16546,0,0,0-3.07737-1.71446,3.85625,3.85625,0,0,0-1.75465,2.597,2.87377,2.87377,0,0,0-3.42928.042,2.38287,2.38287,0,0,0-.06243,3.08883.91148.91148,0,0,0-1.14908-.08466,3.44988,3.44988,0,0,0-.852.91373c-.25578.33184-.2809.82226-.69991.82226Z"/>
    <g class="cls-6">
      <path class="cls-5" d="M167.78237,92.68514a5.61391,5.61391,0,1,1-5.61374-5.61407,5.61381,5.61381,0,0,1,5.61374,5.61407Z"/>
      <path class="cls-2" d="M181.63619,95.51c-3.69762,2.28451-6.59525,5.62951-9.85951,8.49914-3.26462,2.86964-7.217,5.377-11.56358,5.37552-5.75759-.0018-11.13812-4.39649-16.78449-3.27073-2.69312.53705-5.16241,2.31358-7.90183,2.122-2.33976-.1636-4.32975-1.73743-6.58377-2.38677a10.56145,10.56145,0,0,0-8.897,1.85008,18.47742,18.47742,0,0,0-5.68691,7.36154c-.842,1.81276-1.50064,3.92366-.74619,5.77481.87176,2.13851,3.298,3.15735,5.54484,3.69225,9.87747,2.35161,20.17107-.46816,30.323-.65113,8.99386-.16179,18.00029,1.75895,26.94176.77561a83.5238,83.5238,0,0,0,13.73118-3.101,9.77183,9.77183,0,0,0,4.68238-2.32041,9.77151,9.77151,0,0,0,1.94155-4.77675,37.933,37.933,0,0,0,1.19071-10.22329c-.21382-3.24024-1.7446-8.05431-4.48832-10.129-3.21406-2.43018-8.86973-.42979-11.84379,1.40809Z"/>
    </g>
    <polygon class="cls-3" points="65.105 75.295 65.105 33.536 123.108 33.536 123.108 75.295 65.105 75.295 65.105 75.295"/>
    <polygon class="cls-4" points="67.169 35.6 121.044 35.6 121.044 73.232 67.169 73.232 67.169 35.6 67.169 35.6"/>
    <path class="cls-5" d="M70.06961,48.78061H88.7361a2.358,2.358,0,0,1-1.45868-2.04631,9.21859,9.21859,0,0,0,.10476-1.23015,2.28336,2.28336,0,0,0-1.69438-1.69869,4.11662,4.11662,0,0,0-2.73044-.01936,2.979,2.979,0,0,0-1.84973,1.93975c-.29632-.80826.08288-1.75428-.01362-2.6099a2.16458,2.16458,0,0,0-3.077-1.71447,3.856,3.856,0,0,0-1.755,2.59663,2.87489,2.87489,0,0,0-3.42929.042,2.38339,2.38339,0,0,0-.06206,3.08921.9115.9115,0,0,0-1.14943-.08468,3.4485,3.4485,0,0,0-.85168.91374c-.25579.33185-.2809.82226-.69993.82226Z"/>
    <g class="cls-7">
      <path class="cls-5" d="M109.81051,48.09863a5.6139,5.6139,0,1,1-5.61409-5.61373,5.614,5.614,0,0,1,5.61409,5.61373Z"/>
      <path class="cls-2" d="M123.664,50.92342c-3.69764,2.28488-6.5949,5.6295-9.85953,8.49951-3.26463,2.86964-7.217,5.37694-11.56359,5.37552-5.75758-.00181-11.13775-4.39649-16.78447-3.27074-2.69279.53705-5.16206,2.31358-7.90147,2.122-2.34013-.16359-4.32976-1.73743-6.58378-2.38712a10.56331,10.56331,0,0,0-8.897,1.85007,18.4831,18.4831,0,0,0-5.68727,7.36155c-.84162,1.81276-1.50029,3.924-.74584,5.7748.87141,2.13886,3.298,3.15771,5.54448,3.69262,9.87782,2.3516,20.17108-.46818,30.32335-.65114,8.9935-.16179,18.00028,1.75859,26.9414.77562a83.55208,83.55208,0,0,0,13.73117-3.101,9.77023,9.77023,0,0,0,4.6824-2.32039,9.76528,9.76528,0,0,0,1.94155-4.77675,37.93515,37.93515,0,0,0,1.19105-10.22331c-.21382-3.24022-1.745-8.05429-4.48869-10.1293-3.21367-2.43018-8.86937-.42943-11.84376,1.40809Z"/>
    </g>
    <polygon class="cls-3" points="133.154 57.828 133.154 16.069 191.156 16.069 191.156 57.828 133.154 57.828 133.154 57.828"/>
    <polygon class="cls-4" points="135.218 18.132 189.092 18.132 189.092 55.764 135.218 55.764 135.218 18.132 135.218 18.132"/>
    <path class="cls-5" d="M138.118,31.31339h18.66648a2.3575,2.3575,0,0,1-1.45867-2.0463,9.211,9.211,0,0,0,.10475-1.23016,2.284,2.284,0,0,0-1.69438-1.69861,4.11844,4.11844,0,0,0-2.73044-.01945,2.97968,2.97968,0,0,0-1.84971,1.93988c-.29633-.80838.08287-1.75429-.01364-2.60984a2.16481,2.16481,0,0,0-3.077-1.7146,3.85667,3.85667,0,0,0-1.755,2.59684,2.87391,2.87391,0,0,0-3.42894.04194,2.38279,2.38279,0,0,0-.0624,3.08909.91148.91148,0,0,0-1.14908-.08474,3.45341,3.45341,0,0,0-.852.9137c-.2558.332-.28091.82225-.69993.82225Z"/>
    <g class="cls-8">
      <path class="cls-5" d="M177.85892,30.63166a5.6139,5.6139,0,1,1-5.61408-5.61382,5.61389,5.61389,0,0,1,5.61408,5.61382Z"/>
      <path class="cls-2" d="M191.71242,33.4565c-3.69764,2.28476-6.5949,5.62953-9.85952,8.49925-3.26464,2.86965-7.217,5.37694-11.5636,5.37551-5.75758-.0018-11.13775-4.39648-16.78448-3.27073-2.69278.53706-5.16206,2.31358-7.90147,2.122-2.34012-.16358-4.32974-1.73742-6.58378-2.38676a10.56091,10.56091,0,0,0-8.897,1.85007,18.47818,18.47818,0,0,0-5.68726,7.36155c-.84163,1.81277-1.50029,3.92365-.74585,5.7748.87141,2.13851,3.298,3.15736,5.54449,3.69225,9.87782,2.35161,20.17107-.46816,30.32335-.65113,8.9935-.16179,18.00027,1.759,26.9414.77562a83.51355,83.51355,0,0,0,13.73116-3.101,9.77059,9.77059,0,0,0,4.68241-2.3204,9.76536,9.76536,0,0,0,1.94155-4.77675,37.93386,37.93386,0,0,0,1.191-10.2233c-.21382-3.24027-1.74461-8.0542-4.48869-10.129-3.21368-2.43021-8.86936-.42961-11.84376,1.40806Z"/>
    </g>
    <path class="cls-9" d="M267.26266,148.58808c0,6.24154-55.41038,11.301-123.76266,11.301s-123.76261-5.05945-123.76261-11.301c0-6.24117,55.41033-11.301,123.76261-11.301s123.76266,5.0598,123.76266,11.301Z"/>
    <path class="cls-10" d="M75.11292,65.93926,54.64624,63.26514a3.659,3.659,0,0,1-3.15413-4.10194l1.468-11.23463a3.65922,3.65922,0,0,1,4.102-3.15413l20.46669,2.67449a3.65848,3.65848,0,0,1,3.15412,4.102l-1.468,11.23425a3.65848,3.65848,0,0,1-4.102,3.15413Z"/>
    <path class="cls-11" d="M85.43488,49.26743l1.86909.24431a1.756,1.756,0,0,1,1.51357,1.96846L87.0141,65.28275a1.75592,1.75592,0,0,1-1.96846,1.51356l-1.86909-.2443a1.75479,1.75479,0,0,1-1.29473-.866L79.4,61.36987l1.05364-8.06435,3.5075-3.534a1.75573,1.75573,0,0,1,1.47375-.504Z"/>
    <polygon class="cls-12" points="58.463 64.349 74.964 64.349 74.964 66.36 58.463 66.36 58.463 64.349 58.463 64.349"/>
    <polygon class="cls-12" points="65.544 64.736 67.883 64.736 67.883 151.148 65.544 151.148 65.544 64.736 65.544 64.736"/>
    <polygon class="cls-12" points="65.648 126.273 67.743 127.312 55.964 151.043 53.87 150.003 65.648 126.273 65.648 126.273"/>
    <polygon class="cls-12" points="67.639 126.273 65.544 127.312 77.323 151.043 79.418 150.003 67.639 126.273 67.639 126.273"/>
    <path class="cls-13" d="M209.82,59.87137a3.672,3.672,0,1,0,4.44348-2.68741A3.67189,3.67189,0,0,0,209.82,59.87137Z"/>
    <path class="cls-13" d="M194.332,52.9866a2.142,2.142,0,1,0,2.592-1.56739,2.14213,2.14213,0,0,0-2.592,1.56739Z"/>
    <polygon class="cls-13" points="214.263 57.184 196.924 51.419 195.9 55.579 212.507 64.315 214.263 57.184 214.263 57.184"/>
    <path class="cls-13" d="M210.52527,58.44677a3.672,3.672,0,1,0,5.16312-.5575,3.67183,3.67183,0,0,0-5.16312.5575Z"/>
    <path class="cls-13" d="M218.56235,42.8189a4.25333,4.25333,0,1,0,5.98038-.64575,4.25351,4.25351,0,0,0-5.98038.64575Z"/>
    <polygon class="cls-13" points="225.188 48.154 216.246 63.052 210.525 58.447 218.562 42.819 225.188 48.154 225.188 48.154"/>
    <path class="cls-14" d="M204.53234,54.15361l5.87309,1.87232.00646.00143.01112.00286a3.294,3.294,0,0,1,.82657.38171,3.32829,3.32829,0,0,1,1.205,1.3055.203.203,0,1,0,.36162-.18475,3.75663,3.75663,0,0,0-1.44039-1.51967,3.50837,3.50837,0,0,0-.86709-.37992l-.04844.19732.06171-.19337-5.86628-1.87016a.203.203,0,1,0-.12341.38673Z"/>
    <path class="cls-14" d="M218.3417,42.53836a4.21459,4.21459,0,0,0-.78529,1.525l-3.36615,6.55006,5.92656,5.34466,4.85173-8.08443a4.25385,4.25385,0,1,0-6.62685-5.33533Z"/>
    <polygon class="cls-14" points="221.05 55.308 220.141 56.906 213.585 50.7 214.494 49.102 221.05 55.308 221.05 55.308"/>
    <path class="cls-15" d="M224.48494,142.17005a17.03018,17.03018,0,0,1,6.85105.35768s-.70493.58871-3.42571.58871c-2.7204,0-3.42534-.94639-3.42534-.94639Z"/>
    <polygon class="cls-13" points="231.256 144.559 231.409 134.518 224.024 134.518 224.565 144.837 231.256 144.559 231.256 144.559"/>
    <path class="cls-14" d="M213.59153,149.98076h12.0816c.75516,0,1.30369-.91374,2.461-.91374.38386,0,.56072.91374.56072.91374h3.39341c0-.2497-.01828-.59086-.04268-.98083-.15822-2.29062-.71281-6.47006-.71281-6.47006s-.34119.28019-2.87541.28019a10.63525,10.63525,0,0,1-3.97244-.63966,5.708,5.708,0,0,1-1.26707,1.3586c-1.77908,1.62047-4.61821,2.05922-6.97592,2.41259-1.572.23749-2.22391,1.93725-2.47968,3.05834a6.51467,6.51467,0,0,0-.17074.98083Z"/>
    <path class="cls-16" d="M213.98719,148.24942H219.31a2.68991,2.68991,0,0,1,1.81455.50548,1.14441,1.14441,0,0,1,.27587.34369.7859.7859,0,0,1,.047.11157l.01112.04054.05991-.01112a1.03054,1.03054,0,0,0-.35409-.53059,2.744,2.744,0,0,0-1.85438-.52019h-5.32279v.06062Z"/>
    <path class="cls-16" d="M231.63984,145.06839a4.066,4.066,0,0,0-2.10765,3.79881q0,.18456.01219.37955l.06063-.00358c-.00788-.12879-.01182-.25436-.01182-.376a4.26855,4.26855,0,0,1,1.03714-2.92848,3.80231,3.80231,0,0,1,.71249-.62674c.09722-.06565.17793-.11264.23425-.14349.05636-.03052.08789-.04449.08789-.04449l-.02512-.05561Z"/>
    <path class="cls-16" d="M224.46162,142.72934c-.00035.00036-.12305.14925-.34224.38314a9.20991,9.20991,0,0,1-3.81925,2.58983l-.019.005-.00322.01938a8.94757,8.94757,0,0,0-.11266,1.36254,5.311,5.311,0,0,0,.03372.62348l.00324.02765.028-.00073c.00073,0,.25078-.00753.649-.01506.39858-.0079.94459-.01543,1.53474-.01543.95823,0,2.0334.02009,2.78245.09256a1.71069,1.71069,0,0,1,1.23877.76808,2.67025,2.67025,0,0,1,.2644.47354,1.989,1.989,0,0,1,.07856.21024l.05849-.01686a2.11032,2.11032,0,0,0-1.63446-1.49563c-.753-.07283-1.82891-.09292-2.78821-.09292-1.18173,0-2.1855.03049-2.1855.03049l.00072.0305.03048-.00359a5.24817,5.24817,0,0,1-.03337-.61632,8.74521,8.74521,0,0,1,.05562-.94208c.028-.2497.056-.4097.056-.41006l-.03012-.00537.00788.02941a10.05208,10.05208,0,0,0,4.19306-2.99305l-.047-.03875Z"/>
    <path class="cls-17" d="M223.96869,142.58046a1.48578,1.48578,0,0,0-.50044,1.14907,1.89478,1.89478,0,0,0,.02689.31463.09149.09149,0,1,0,.18049-.03014,1.72876,1.72876,0,0,1-.02441-.28449,1.37607,1.37607,0,0,1,.21739-.75839,1.23232,1.23232,0,0,1,.14852-.18727l.04771-.04556.0122-.01076.00287-.00215a.09135.09135,0,0,0-.11122-.14494Z"/>
    <path class="cls-17" d="M223.3947,143.3941l.00826-.01a.777.777,0,0,1,.58045-.287.90821.90821,0,0,1,.456.13561.09145.09145,0,0,0,.09113-.15857,1.0935,1.0935,0,0,0-.5471-.16.90881.90881,0,0,0-.54459.18583.93922.93922,0,0,0-.19262.188.09128.09128,0,1,0,.1485.10619Z"/>
    <path class="cls-17" d="M222.8042,143.64737a1.48568,1.48568,0,0,0-.50046,1.14909,1.89909,1.89909,0,0,0,.02691.315.0915.0915,0,1,0,.18045-.0305,1.69129,1.69129,0,0,1-.0244-.28448,1.37618,1.37618,0,0,1,.21741-.7584,1.25141,1.25141,0,0,1,.14853-.18763l.04734-.0452.01256-.01076.00287-.00215a.09135.09135,0,0,0-.11121-.14495Z"/>
    <path class="cls-17" d="M222.1283,144.34192l.01759-.014a1.638,1.638,0,0,1,.91481-.34655.94612.94612,0,0,1,.47931.127.09144.09144,0,0,0,.09111-.15857,1.12957,1.12957,0,0,0-.57042-.151,1.82908,1.82908,0,0,0-1.05042.40359.09138.09138,0,0,0,.118.13955Z"/>
    <path class="cls-17" d="M221.63215,144.38675a.76357.76357,0,0,0-.29632.1758.96034.96034,0,0,0-.287.73508,1.72377,1.72377,0,0,0,.02511.28485.09131.09131,0,0,0,.18012-.03014,1.53051,1.53051,0,0,1-.02264-.25471.77714.77714,0,0,1,.22888-.60126.63579.63579,0,0,1,.155-.10691l.04951-.02116.01222-.00431.00215-.00072a.09134.09134,0,1,0-.047-.17652Z"/>
    <path class="cls-17" d="M220.90211,144.92668l.02367-.00394a2.36608,2.36608,0,0,1,1.44973.25255.09134.09134,0,0,0,.09074-.15856,2.42555,2.42555,0,0,0-1.1993-.30135,2.29071,2.29071,0,0,0-.40036.03193.09143.09143,0,0,0,.03552.17937Z"/>
    <path class="cls-17" d="M221.04632,145.62266a1.59573,1.59573,0,0,0-.4531-.677.09139.09139,0,0,0-.103.151,1.017,1.017,0,0,1,.27662.34943c.03442.06494.06168.12521.08.16862s.02726.06922.02726.06922a.0914.0914,0,0,0,.1722-.06133Z"/>
    <path class="cls-14" d="M213.561,148.99993v.98083h12.8709a2.37668,2.37668,0,0,1,1.45615-.73185c.58153,0,.77634.73185.77634.73185h3.45439v-.98083Z"/>
    <path class="cls-16" d="M231.39986,143.08738a6.816,6.816,0,0,1-.75768.17542,11.09759,11.09759,0,0,1-1.97742.17579,10.95553,10.95553,0,0,1-1.6761-.12771l-.00933.06027a10.99315,10.99315,0,0,0,1.68543.12843,10.0109,10.0109,0,0,0,2.75338-.35409l-.01828-.05811Z"/>
    <polygon class="cls-13" points="252.211 142.587 250.075 132.774 242.884 134.455 245.76 144.38 252.211 142.587 252.211 142.587"/>
    <path class="cls-14" d="M234.86432,150.49736l12.04285-.96612c.753-.06027,1.22657-1.01527,2.38033-1.10782.3824-.03049.63175.86638.63175.86638l3.38264-.27157c-.0201-.249-.06529-.58765-.12087-.97437-.34118-2.27053-1.228-6.39256-1.228-6.39256s-.3175.30673-2.84381.50943a10.6311,10.6311,0,0,1-4.01083-.32,5.69976,5.69976,0,0,1-1.15446,1.45545c-1.64378,1.75787-4.43881,2.42191-6.76065,2.96291-1.548.36234-2.06172,2.10874-2.22711,3.24669a6.54964,6.54964,0,0,0-.09181.99159Z"/>
    <path class="cls-16" d="M235.12009,148.73984s.86927-.0696,1.96667-.15785c1.0978-.0879,2.42443-.19444,3.33924-.26763.14421-.01149.27874-.01686.405-.01686a2.28425,2.28425,0,0,1,1.50818.42548,1.09688,1.09688,0,0,1,.2497.28951.77185.77185,0,0,1,.047.094l.01185.03372.05885-.01577a.98725.98725,0,0,0-.32866-.44809,2.33981,2.33981,0,0,0-1.54689-.43982c-.1277,0-.26442.00537-.41.01686-.91483.07354-2.24114.18008-3.33891.268s-1.96487.1575-1.96667.15785l.00466.06063Z"/>
    <path class="cls-16" d="M252.46208,144.15753a4.00029,4.00029,0,0,0-1.81492,3.51431,5.72779,5.72779,0,0,0,.06028.81831l.06026-.00861a5.67,5.67,0,0,1-.05994-.8097,4.14462,4.14462,0,0,1,.89331-2.663,3.78492,3.78492,0,0,1,.61345-.60772c.0836-.06494.15319-.11265.20162-.14422.04844-.03122.07537-.04593.07537-.04593l-.02943-.05344Z"/>
    <path class="cls-16" d="M245.11988,142.39965c-.00035.00036-.11084.15893-.31067.40934a9.21063,9.21063,0,0,1-3.60007,2.88721l-.01826.00645-.00181.01939c0,.00071-.028.30242-.028.71893a6.654,6.654,0,0,0,.10833,1.2671l.00538.02726.02761-.00286c.0018-.00036.75985-.08431,1.73564-.16826.97579-.0843,2.16756-.1686,3.02967-.1686.06527,0,.12879.00071.1901.00178a1.70926,1.70926,0,0,1,1.29618.66656,2.639,2.639,0,0,1,.30134.451,1.86238,1.86238,0,0,1,.09507.203l.05706-.02152a2.10965,2.10965,0,0,0-1.7489-1.36c-.06175-.00108-.12521-.00143-.19085-.00143-1.73135,0-4.77139.33686-4.77174.33686l.00324.03012.02973-.00572a6.6206,6.6206,0,0,1-.1069-1.25527c0-.41364.02764-.71247.02764-.7132l-.03053-.00286.01043.02869a10.05028,10.05028,0,0,0,3.94016-3.31915l-.04988-.0348Z"/>
    <path class="cls-17" d="M244.61655,142.291a1.46554,1.46554,0,0,0-.4122,1.04827,1.83426,1.83426,0,0,0,.05741.4488.0914.0914,0,1,0,.17721-.04484,1.64913,1.64913,0,0,1-.052-.404,1.35435,1.35435,0,0,1,.179-.68272,1.17581,1.17581,0,0,1,.122-.17506l.03876-.043.01-.00969.00254-.0025a.09132.09132,0,0,0-.12273-.13525Z"/>
    <path class="cls-17" d="M244.10967,143.148l.00788-.0122a.76867.76867,0,0,1,.61275-.33363.95185.95185,0,0,1,.40788.10117.09139.09139,0,1,0,.07785-.16538,1.1346,1.1346,0,0,0-.48573-.1184.89767.89767,0,0,0-.58227.21633.96013.96013,0,0,0-.19516.21776.0915.0915,0,1,0,.1568.09435Z"/>
    <path class="cls-17" d="M243.541,143.44756a1.46568,1.46568,0,0,0-.4122,1.04827,1.83515,1.83515,0,0,0,.05739.4488.09141.09141,0,1,0,.17723-.04484,1.64843,1.64843,0,0,1-.052-.404,1.35406,1.35406,0,0,1,.179-.68271,1.17172,1.17172,0,0,1,.122-.17507l.03871-.043.01005-.00968.00252-.00251a.09131.09131,0,0,0-.12271-.13525Z"/>
    <path class="cls-17" d="M242.92289,144.19376l.0183-.01722a1.58459,1.58459,0,0,1,.96324-.4201.944.944,0,0,1,.40684.09185.09148.09148,0,0,0,.07819-.1654,1.12869,1.12869,0,0,0-.485-.109,1.78064,1.78064,0,0,0-1.11032.49.09145.09145,0,1,0,.12878.12987Z"/>
    <path class="cls-17" d="M242.43214,144.27807a.75566.75566,0,0,0-.26083.17722.91923.91923,0,0,0-.25255.66835,1.595,1.595,0,0,0,.05238.391.09136.09136,0,0,0,.17723-.04448,1.4161,1.4161,0,0,1-.047-.34656.73637.73637,0,0,1,.20019-.54028.64912.64912,0,0,1,.136-.10547l.043-.02224.01075-.00466.00182-.00073a.09134.09134,0,0,0-.061-.17219Z"/>
    <path class="cls-17" d="M241.74727,144.87467l.03911-.0097a2.43969,2.43969,0,0,1,.52665-.056,2.16168,2.16168,0,0,1,.92271.1959.09147.09147,0,0,0,.07821-.16538,2.34471,2.34471,0,0,0-1.00092-.21312,2.46852,2.46852,0,0,0-.61564.07248.09136.09136,0,0,0,.04988.17579Z"/>
    <path class="cls-17" d="M241.9471,145.557a2.20022,2.20022,0,0,0-.13918-.25221,1.1843,1.1843,0,0,0-.36665-.38638.09135.09135,0,1,0-.09076.15857,1.01511,1.01511,0,0,1,.30348.32647c.03985.0617.07143.11945.09328.16143.0219.042.03263.06673.033.06673a.09137.09137,0,1,0,.16681-.07461Z"/>
    <path class="cls-14" d="M234.75559,149.52191l.07858.9776,12.82963-1.02889a2.37564,2.37564,0,0,1,1.39265-.84594c.57973-.04627.83233.66727.83233.66727l3.44364-.27587-.07859-.97795-18.49824,1.48378Z"/>
    <path class="cls-16" d="M252.06457,142.202c-.00039.00036-.09218.03767-.2644.09435a10.93831,10.93831,0,0,1-3.3224.51014c-.2554,0-.52017-.009-.79247-.02906l-.00466.061c.27412.02009.54029.029.79713.029a10.49493,10.49493,0,0,0,3.60975-.60879l-.023-.05669Z"/>
    <polyline class="cls-14" points="243.978 71.115 221.214 70.232 221.803 41.105 242.79 42.184 243.978 71.115"/>
    <polygon class="cls-18" points="234.136 109.906 222.149 110.32 220.142 80.923 235.378 80.923 234.136 109.906 234.136 109.906"/>
    <path class="cls-18" d="M222.46446,86.41923a7.62689,7.62689,0,1,0-.20876-10.78439,7.62678,7.62678,0,0,0,.20876,10.78439Z"/>
    <path class="cls-18" d="M223.949,113.912a6.02172,6.02172,0,1,0-.165-8.51458,6.02183,6.02183,0,0,0,.165,8.51458Z"/>
    <polygon class="cls-18" points="232.951 137.344 223.974 137.056 222.103 109.651 234.146 109.572 232.951 137.344 232.951 137.344"/>
    <path class="cls-18" d="M223.949,113.912a6.02172,6.02172,0,1,0-.165-8.51458,6.02183,6.02183,0,0,0,.165,8.51458Z"/>
    <path class="cls-18" d="M220.27105,79.63024l.94282-9.39782,22.76446.88254.45024,8.49841a1.83648,1.83648,0,0,1-1.14654,1.79986l-8.97451,3.6205a7.207,7.207,0,0,1-5.763-.16108l-7.22772-3.39736a1.83679,1.83679,0,0,1-1.04578-1.84505Z"/>
    <path class="cls-19" d="M227.52427,42.28437a3.791,3.791,0,1,0,3.15378-4.33571,3.79063,3.79063,0,0,0-3.15378,4.33571"/>
    <polyline class="cls-19" points="235.014 41.102 234.196 35.922 226.949 37.016 227.524 42.284 235.014 41.102"/>
    <path class="cls-13" d="M235.62126,33.30783s2.25546-.46584,2.01046,2.01047-3.133,1.76782-3.133,1.76782l1.12252-3.77829Z"/>
    <path class="cls-20" d="M236.04962,34.38949a1.10588,1.10588,0,0,1,.14994-.01043.65077.65077,0,0,1,.60774.30235.99692.99692,0,0,1,.08036.22447,1.06076,1.06076,0,0,1,.02581.23333,1.111,1.111,0,0,1-.04267.30447.86957.86957,0,0,1-.28341.4488.669.669,0,0,1-.40613.14515.535.535,0,0,1-.11049-.0113.10148.10148,0,0,0-.042.19857.73862.73862,0,0,0,.15244.01571.86928.86928,0,0,0,.53239-.18927,1.07242,1.07242,0,0,0,.35229-.55205,1.31547,1.31547,0,0,0,.0506-.36008,1.25661,1.25661,0,0,0-.03122-.27831,1.18225,1.18225,0,0,0-.09652-.27036.8499.8499,0,0,0-.78924-.41443,1.30667,1.30667,0,0,0-.17758.01231.10148.10148,0,1,0,.02764.20107Z"/>
    <path class="cls-20" d="M236.05605,35.28856l-.01-.045a.26978.26978,0,0,1,.11732-.19.51813.51813,0,0,1,.31855-.10809.64221.64221,0,0,1,.438.18974.10156.10156,0,0,0,.1378-.14923.846.846,0,0,0-.57583-.24346.71945.71945,0,0,0-.4445.15193.46459.46459,0,0,0-.19444.34911.30562.30562,0,0,0,.03122.13506.10147.10147,0,0,0,.18187-.09Z"/>
    <polyline class="cls-21" points="227.408 41.222 227.408 41.222 227.328 40.507 227.33 40.508 227.408 41.222"/>
    <path class="cls-22" d="M229.80307,41.74552a6.31249,6.31249,0,0,1-2.39468-.52341l-.07821-.71427a5.70176,5.70176,0,0,0,2.43914.56144,4.84974,4.84974,0,0,0,4.0392-2.19028,4.24178,4.24178,0,0,1-4.00545,2.86652"/>
    <path class="cls-13" d="M235.09857,36.3713s-1.5204,4.07017-3.77585,4.70731c-2.25583.63749-5.14878-.14709-5.14878-2.893V32.26846a3.99787,3.99787,0,0,1,2.23214-3.62086,6.39254,6.39254,0,0,1,5.025-.073c5.05085,1.7653,1.66747,7.79671,1.66747,7.79671Z"/>
    <path class="cls-23" d="M228.6486,33.08719a1.0525,1.0525,0,0,0-.73186-.26665,1.00056,1.00056,0,0,0-.711.26665.10148.10148,0,1,0,.14351.14351.80039.80039,0,0,1,.56753-.20718.856.856,0,0,1,.58835.20718.10148.10148,0,1,0,.14351-.14351Z"/>
    <path class="cls-23" d="M231.62874,33.08719a1.053,1.053,0,0,0-.73221-.26665.9998.9998,0,0,0-.71069.26662.10149.10149,0,0,0,.14351.14354.79945.79945,0,0,1,.56718-.20718.85761.85761,0,0,1,.5887.20718.10148.10148,0,1,0,.14351-.14351Z"/>
    <path class="cls-20" d="M228.28377,38.62659a1.98649,1.98649,0,0,0,.97793.27756,1.50269,1.50269,0,0,0,1.06587-.439.10142.10142,0,1,0-.14029-.14651,1.29781,1.29781,0,0,1-.92558.3825,1.71338,1.71338,0,0,1-.61776-.12369,1.8319,1.8319,0,0,1-.18584-.0851l-.0495-.02741-.01507-.00918a.10151.10151,0,0,0-.10976.1708Z"/>
    <path class="cls-14" d="M230.77848,48.78132l.28739,20.00643a.20289.20289,0,1,0,.40574-.00575l-.28736-20.00677a.20291.20291,0,0,0-.40577.00609"/>
    <path class="cls-24" d="M230.69346,36.43161a.86335.86335,0,1,0,.86353-.86337.86354.86354,0,0,0-.86353.86337Z"/>
    <path class="cls-24" d="M226.2665,36.43161a.86351.86351,0,1,0,.8635-.86337.86354.86354,0,0,0-.8635.86337Z"/>
    <path class="cls-25" d="M237.63172,35.02865s.11837-.78-.25258-1.11733c-1.27645-1.16049-2.29993-.06131-2.45206,2.11752,0,0-.23607.21873-.245-.13156a15.15538,15.15538,0,0,0,.03624-2.772,3.59938,3.59938,0,0,1,.21631-1.73689s-5.49461,1.22183-8.13213-.90509c-.92882.702-.536,3.37085-.62854,4.3159-.69238-1.211-2.42373-3.18972-1.16918-4.37151-1.24986-1.05236-3.02137-5.60156-.73506-7.62473,1.52826-1.35217,3.17815-1.32666,6.62538,2.06557,1.8368,1.80746,3.35181-.96493,4.79115,2.38655,1.30044-1.2186,3.52792.59019,3.32237,3.12149a8.95133,8.95133,0,0,1-1.37688,4.65213Z"/>
    <path class="cls-26" d="M234.75489,28.83038a1.07442,1.07442,0,0,0,.08824-.4319,1.15286,1.15286,0,0,0-.43265-.9071,1.59561,1.59561,0,0,0-.98836-.28008,3.587,3.587,0,0,0-.36915.02066,9.86695,9.86695,0,0,1-1.00522.09831,2.04822,2.04822,0,0,1-.37167-.03153,2.677,2.677,0,0,1-1.46727-.97054c-.39317-.45579-.719-.9744-1.14873-1.40659a4.14222,4.14222,0,0,0-2.71287-1.20235l-.03265.02967.02978.03262a4.07926,4.07926,0,0,1,2.67125,1.184c.42369.42537.74907.94254,1.14588,1.40332a2.73767,2.73767,0,0,0,1.50314.99112,2.1109,2.1109,0,0,0,.38314.03258,9.88432,9.88432,0,0,0,1.01168-.09866,3.52443,3.52443,0,0,1,.36269-.02031,1.53434,1.53434,0,0,1,.95032.26721,1.09068,1.09068,0,0,1,.40828.85762,1.01559,1.01559,0,0,1-.08287.40686l.01578.041.04126-.016Z"/>
    <path class="cls-26" d="M234.13782,30.11607a.55243.55243,0,0,0,.05061-.234.77583.77583,0,0,0-.37312-.63405,1.151,1.151,0,0,0-.60342-.15158,1.95834,1.95834,0,0,0-.35875.03538c-.32109.06034-.62529.17751-.93885.23677a2.74529,2.74529,0,0,1-.51229.04718,3.66653,3.66653,0,0,1-1.62873-.41568,7.62384,7.62384,0,0,1-1.77219-1.32838,4.81953,4.81953,0,0,0-1.00167-.80877,1.66394,1.66394,0,0,0-.76878-.20409,1.13778,1.13778,0,0,0-.49221.10638l-.01471.04157.0416.01471a1.07337,1.07337,0,0,1,.46532-.10035,1.60218,1.60218,0,0,1,.7394.19678,4.75149,4.75149,0,0,1,.988.799,7.7,7.7,0,0,0,1.78731,1.33882,3.7279,3.7279,0,0,0,1.6567.42235,2.80837,2.80837,0,0,0,.52377-.04828c.32108-.061.62531-.17809.93885-.23675a1.89313,1.89313,0,0,1,.34727-.03429,1.08934,1.08934,0,0,1,.57113.1425.71438.71438,0,0,1,.343.58077.48781.48781,0,0,1-.04484.20772l.01506.04137.0416-.01514Z"/>
    <path class="cls-26" d="M235.10323,30.207a1.16006,1.16006,0,0,1,.88109-.39631,1.08884,1.08884,0,0,1,.4556.09708,1.1705,1.1705,0,0,1,.65545,1.04117,1.0286,1.0286,0,0,1-.014.16907,2.30384,2.30384,0,0,1-.41436.86459l-.60053.90416.00862.04323.04338-.00876.60055-.90415a2.36392,2.36392,0,0,0,.424-.88887,1.11562,1.11562,0,0,0,.01434-.17927,1.23146,1.23146,0,0,0-.69166-1.09782,1.14952,1.14952,0,0,0-.48144-.10278,1.22229,1.22229,0,0,0-.9288.41856l.00357.0439.04414-.0038Z"/>
    <path class="cls-26" d="M235.6905,28.86974a1.88593,1.88593,0,0,1,1.30191.041,1.11375,1.11375,0,0,1,.452.31165.6468.6468,0,0,1,.15029.39846.49052.49052,0,0,1-.0118.10705l.02367.03717.03731-.02365a.548.548,0,0,0,.01292-.12057.70681.70681,0,0,0-.164-.43779,1.17448,1.17448,0,0,0-.47677-.33,1.94859,1.94859,0,0,0-1.34566-.04237l-.01936.03947.03944.01959Z"/>
    <path class="cls-25" d="M236.25984,27.50523a6.51141,6.51141,0,0,0-.65722-1.36365,2.2521,2.2521,0,0,0-1.21689-.932,2.30117,2.30117,0,0,0-.60878-.07107c-.26906.00011-.53528.02809-.79214.0358-.03517.001-.07031.00162-.10583.00162a1.49258,1.49258,0,0,1-1.09815-.35556.10147.10147,0,1,0-.14635.14059,1.68524,1.68524,0,0,0,1.2445.418q.05649,0,.11193-.00176c.26727-.00821.5313-.0358.786-.03569a2.10386,2.10386,0,0,1,.55569.064,2.05191,2.05191,0,0,1,1.10278.85142,6.30951,6.30951,0,0,1,.635,1.32181.10158.10158,0,0,0,.18942-.07347Z"/>
    <path class="cls-25" d="M235.83974,27.6371a1.3818,1.3818,0,0,1,1.37689-1.18577,1.35739,1.35739,0,0,1,.33289.04093.1015.1015,0,0,0,.04988-.19677,1.56538,1.56538,0,0,0-.38277-.04711,1.58472,1.58472,0,0,0-1.57779,1.35977.10149.10149,0,0,0,.2009.029Z"/>
    <path class="cls-25" d="M226.14848,29.94376a4.028,4.028,0,0,1-3.10644-3.68487.10134.10134,0,1,0-.20232.01194,4.22963,4.22963,0,0,0,3.26282,3.87056.10145.10145,0,1,0,.04594-.19763Z"/>
    <path class="cls-4" d="M228.61309,34.5896l-.099-.02141a1.55187,1.55187,0,0,1-3.06875-.32585,1.56862,1.56862,0,0,1,.03516-.32912,1.55188,1.55188,0,0,1,3.06876.32589,1.56988,1.56988,0,0,1-.03517.32908l.099.02141.09936.02146a1.75289,1.75289,0,1,0-1.71339,1.38463,1.75967,1.75967,0,0,0,1.71339-1.38463l-.09936-.02143Z"/>
    <path class="cls-4" d="M232.9249,34.77077l-.09937-.02141a1.47576,1.47576,0,1,1,.03372-.31348,1.47846,1.47846,0,0,1-.03372.31348l.09937.02141.099.02146a1.67919,1.67919,0,1,0-1.64165,1.32648,1.68569,1.68569,0,0,0,1.64165-1.32648l-.099-.02143Z"/>
    <path class="cls-4" d="M228.72859,34.464l-.0104-.00978.01005.01008.00035-.0003-.0104-.00978.01005.01008a.57626.57626,0,0,1,.38995-.135,1.12189,1.12189,0,0,1,.62532.22673.10154.10154,0,0,0,.11408-.168,1.32374,1.32374,0,0,0-.7394-.26167.7665.7665,0,0,0-.53525.19627.1015.1015,0,0,0,.14565.14141Z"/>
    <polygon class="cls-18" points="234.669 110.518 246.594 109.231 244.421 79.845 229.338 82.002 234.669 110.518 234.669 110.518"/>
    <path class="cls-18" d="M242.89959,85.61563a7.62694,7.62694,0,1,1-1.3195-10.7051,7.627,7.627,0,0,1,1.3195,10.7051Z"/>
    <path class="cls-18" d="M245.32115,113.0417a6.02195,6.02195,0,1,1-1.04218-8.45214,6.02222,6.02222,0,0,1,1.04218,8.45214Z"/>
    <polygon class="cls-18" points="243.011 137.452 251.619 134.892 246.467 107.911 234.8 110.894 243.011 137.452 243.011 137.452"/>
    <path class="cls-18" d="M245.765,112.50142a6.02183,6.02183,0,1,1-2.00365-8.27708,6.022,6.022,0,0,1,2.00365,8.27708Z"/>
    <path class="cls-13" d="M249.25842,67.17156a3.67207,3.67207,0,1,0-4.40147-2.75591,3.67216,3.67216,0,0,0,4.40147,2.75591Z"/>
    <path class="cls-13" d="M250.0918,84.10027a2.14187,2.14187,0,1,0-2.56757-1.60756,2.142,2.142,0,0,0,2.56757,1.60756Z"/>
    <polygon class="cls-13" points="244.857 64.416 247.524 82.493 251.699 81.533 252.014 62.77 244.857 64.416 244.857 64.416"/>
    <path class="cls-13" d="M244.63126,63.65152a3.672,3.672,0,1,0,3.227-4.06859,3.6716,3.6716,0,0,0-3.227,4.06859Z"/>
    <path class="cls-13" d="M239.14239,46.95744a4.2532,4.2532,0,1,0,3.73782-4.71254,4.25325,4.25325,0,0,0-3.73782,4.71254Z"/>
    <polygon class="cls-13" points="247.593 45.983 251.927 62.81 244.631 63.652 239.142 46.957 247.593 45.983 247.593 45.983"/>
    <path class="cls-27" d="M230.63968,91.98738l4.16541,19.31438a.203.203,0,1,0,.39679-.08574l-4.16543-19.31438a.203.203,0,0,0-.39677.08574"/>
    <polygon class="cls-27" points="233.334 135.719 223.502 135.311 223.586 137.043 233.225 137.465 233.334 135.719 233.334 135.719"/>
    <polygon class="cls-27" points="251.522 133.25 242.081 136.028 242.717 137.64 251.98 134.938 251.522 133.25 251.522 133.25"/>
    <polygon class="cls-27" points="244.134 71.121 221.079 70.211 220.791 72.342 244.219 72.98 244.134 71.121 244.134 71.121"/>
    <path class="cls-27" d="M241.343,74.38747c-.00035.00466-.04267.47067-.04267,1.17885a14.34348,14.34348,0,0,0,.3993,3.50032,4.92864,4.92864,0,0,0,1.99714,3.11431.203.203,0,1,0,.20809-.34871,4.538,4.538,0,0,1-1.81241-2.8682,13.94242,13.94242,0,0,1-.386-3.39772c0-.3462.01042-.63284.02045-.8323.00539-.09974.0104-.17758.01436-.23068.00359-.05274.00609-.07892.00609-.07892a.203.203,0,0,0-.40432-.037Z"/>
    <path class="cls-27" d="M222.56312,73.86333l.00035.07821c0,.33077-.01005,1.67249-.16144,3.16848a19.37169,19.37169,0,0,1-.3476,2.25044,6.645,6.645,0,0,1-.64039,1.81921.203.203,0,0,0,.35085.20414,7.02163,7.02163,0,0,0,.68558-1.93439,28.87218,28.87218,0,0,0,.51911-5.50788l-.00032-.08144a.20308.20308,0,0,0-.40614.00323Z"/>
    <path class="cls-14" d="M227.849,49.54726a9.44375,9.44375,0,0,1-4.67523-.16933.203.203,0,0,0-.11517.38923,9.8417,9.8417,0,0,0,4.87722.17651.2029.2029,0,1,0-.08682-.39641Z"/>
    <path class="cls-14" d="M229.4009,52.01474a.42512.42512,0,1,0,.42511-.42512.425.425,0,0,0-.42511.42512Z"/>
    <path class="cls-14" d="M229.4009,54.39a.42512.42512,0,1,0,.42511-.42512.425.425,0,0,0-.42511.42512Z"/>
    <path class="cls-14" d="M229.4009,56.765a.42512.42512,0,1,0,.42511-.42476.4251.4251,0,0,0-.42511.42476Z"/>
    <path class="cls-27" d="M230.04879,77.55487c-.00035.00287-.30638,3.66463-.30638,6.371,0,.677.019,1.29437.06782,1.7855a4.85884,4.85884,0,0,0,.099.63822,1.1151,1.1151,0,0,0,.184.43767,10.93092,10.93092,0,0,0,1.04755,1.1724.20293.20293,0,0,0,.26906-.30387l-.00215-.00179a11.07115,11.07115,0,0,1-.99911-1.12217.79651.79651,0,0,1-.10475-.27695,11.97757,11.97757,0,0,1-.1557-2.329c0-1.33921.076-2.92489.15246-4.17441.038-.62494.07642-1.16594.1051-1.55052.02836-.38459.04739-.61167.04739-.61239a.20287.20287,0,1,0-.40434-.03372Z"/>
    <path class="cls-14" d="M239.10941,46.96318a4.22408,4.22408,0,0,0,.53524,1.6298l2.30245,6.99528,7.96677-.46961-2.35268-9.13055a4.25392,4.25392,0,1,0-8.45178.97508Z"/>
    <polygon class="cls-14" points="250.105 53.998 250.606 55.766 241.584 56.08 241.084 54.311 250.105 53.998 250.105 53.998"/>
    <path class="cls-14" d="M240.60465,52.84381,240.0034,49.925a.20292.20292,0,1,0-.39751.08179l.6009,2.91915a.20313.20313,0,1,0,.39786-.08216"/>
    <path class="cls-14" d="M221.71757,52.18586l.08967-2.9787a.203.203,0,1,0-.40576-.01219l-.08969,2.97869a.203.203,0,1,0,.40578.0122"/>
    <path class="cls-14" d="M246.1854,71.9494l-.97548-6.0862-.0014-.00645-.00145-.00682a2.9555,2.9555,0,0,1-.04918-.569,3.38924,3.38924,0,0,1,.639-2.00972.20307.20307,0,0,0-.3279-.23964,3.79957,3.79957,0,0,0-.71715,2.24936,3.22012,3.22012,0,0,0,.06135.66655l.19768-.04556-.20054.03229.97436,6.07939a.20293.20293,0,0,0,.40075-.06423Z"/>
    <path class="cls-13" d="M249.525,86.44864c.037.26476.48.23893,1.15946.01973.621-.20018,1.12183-.44377,1.09455-.71355l-.01185-.127-.00177-.01722h.00035l-.05275-.5209c-.23641-2.34408-.79928-4.33872-1.7629-4.22249-.94493.11444-.941,2.17653-.61237,4.50948.02367.16862.05025.33292.07821.494l.00467.04054.1044.5374Z"/>
    <path class="cls-13" d="M248.10935,82.78472c.20376-.32359.92166-1.78944,1.33957-1.60863l.15785-.06888c.43876.28916.44879,2.69278.06063,2.88973l-1.29687.60952c-.20377.32395-.37846.75445-.68523.53418a.81.81,0,0,1-.20843-.979,14.67393,14.67393,0,0,1,.63248-1.37689Z"/>
    <path class="cls-13" d="M247.39866,84.9914c-.07925-.47392.33867-1.08522.79-1.06549l.09-.06278c.452.01973.39427.07641.50443.54423a4.38954,4.38954,0,0,1-.20092,1.89168c-.1722.58584-.69635,1.09383-.97509,1.07482-.2798-.005-.584-.207-.61236-.404a2.52194,2.52194,0,0,0,.40393-1.9785Z"/>
    <path class="cls-13" d="M250.86347,86.01814l-1.02422-1.98533a.71834.71834,0,0,0-1.2768.65867l1.02422,1.98532a.71855.71855,0,0,0,.96793.30925h0a.71868.71868,0,0,0,.30887-.96791Z"/>
    <path class="cls-13" d="M251.7478,89.11667,251.40159,86.91a.71827.71827,0,1,0-1.41921.22242l.34621,2.207a.71829.71829,0,1,0,1.41921-.22278Z"/>
    <path class="cls-13" d="M251.26993,87.6544l-.34583-2.207a.71844.71844,0,0,0-1.41956.22242l.34618,2.207a.71827.71827,0,1,0,1.41921-.22242Z"/>
    <path class="cls-13" d="M250.50367,84.97848a.56224.56224,0,0,1,.47782-.6357.67232.67232,0,0,1,.68952.55l.5984,5.30771a.55407.55407,0,1,1-1.09884.13919l-.6669-5.36116Z"/>
    <path class="cls-14" d="M250.17216,85.78209a1.70267,1.70267,0,0,1,.179.41292,7.56958,7.56958,0,0,1,.29276,1.86406.20289.20289,0,1,0,.40574-.005,8.05727,8.05727,0,0,0-.14745-1.31624,5.97814,5.97814,0,0,0-.164-.66549,2.05736,2.05736,0,0,0-.23-.51767.20294.20294,0,0,0-.33615.22745Z"/>
    <path class="cls-14" d="M249.09232,83.58366a7.18373,7.18373,0,0,1-.28518.90154.20281.20281,0,1,0,.37559.15319,7.51158,7.51158,0,0,0,.30315-.95571.20291.20291,0,0,0-.39356-.099Z"/>
    <path class="cls-13" d="M194.66457,50.08646s1.6262,2.01259,2.94964,3.65028c1.32344,1.63806-1.53975,1.79949-2.58408.85741-.52159-.47068-2.45169-1.61293-2.78425-2.79286-.21023-.74549,1.61113-2.714,2.41869-1.71483Z"/>
    <path class="cls-13" d="M194.082,50.83624a15.606,15.606,0,0,0-3.07017.30135c-.52915.15571-1.87124,1.98784-2.10444,2.33367-.23317.34548.32969,1.17886,1.1907.17471.40968-.47785,1.26064-1.56629,1.26064-1.56629l3.25422.11515s.94031-.95248-.53095-1.35859Z"/>
    <path class="cls-13" d="M194.17738,49.779a12.15063,12.15063,0,0,0-3.19862-.498c-.43013.08575-1.64164,1.81707-1.8386,2.07394-.19658.25687.23572.95606.95572.22278.34261-.34907,1.05652-1.14978,1.05652-1.14978l2.91771.76413s1.28293-.988.10727-1.41312Z"/>
    <path class="cls-13" d="M194.73131,51.53223a13.16063,13.16063,0,0,0-3.10319.78924c-.44021.25041-1.05116,2.18693-1.20255,2.54964s.47068,1.00629,1.07126-.085c.28592-.51947.86455-1.6854.86455-1.6854l3.03576-.32574s.687-1.17492-.66583-1.24271Z"/>
    <path class="cls-13" d="M195.39534,51.59644a29.51707,29.51707,0,0,0-2.82441,1.41168c-.38927.25974-.83771,2.09007-.95573,2.43519-.11767.34512.49111.90047.979-.14745.2321-.49865.6956-1.614.6956-1.614l2.14462-.80575s1.20684-1.30334-.03911-1.27966Z"/>
    <path class="cls-28" d="M195.4757,52.83412a.95088.95088,0,0,0-.64682-.27767.64371.64371,0,0,0-.16755.02118l-.00287.00107c-.12986.04233-.34151.13381-.555.221a3.35551,3.35551,0,0,1-.54745.1887l-.00322.00072a.95314.95314,0,0,1-.20808.02189,1.52222,1.52222,0,0,1-.58549-.13059,1.95791,1.95791,0,0,1-.21811-.10906,1.00388,1.00388,0,0,1-.282-.22529.26459.26459,0,0,1-.06422-.15068l.01543-.05094-.04771-.03479.01828.056c.00038,0,.17511-.05632.36773-.11624.1923-.05991.40467-.12448.46852-.13848l.04484-.0703-.07-.04485c-.14815.033-.84557.25722-.84736.25758l-.02939.02116a.20136.20136,0,0,0-.03806.1209.37559.37559,0,0,0,.089.22351,1.11621,1.11621,0,0,0,.31568.25435,2.10413,2.10413,0,0,0,.23105.11587,1.64209,1.64209,0,0,0,.63176.13992,1.05126,1.05126,0,0,0,.23427-.02511l-.01327-.05741.01.05812a3.393,3.393,0,0,0,.57224-.19588c.21415-.08753.42725-.17937.54671-.21811l-.01793-.056.01541.05668a.52032.52032,0,0,1,.1367-.01723.83462.83462,0,0,1,.56394.24395l.0836-.00072-.00072-.08323Z"/>
    <path class="cls-28" d="M194.60791,53.6718a.55881.55881,0,0,1,.02007-.05991.69689.69689,0,0,1,.12269-.20592.3181.3181,0,0,1,.24036-.11516h.00825a.05886.05886,0,1,0,.00324-.11767l-.01149-.00035a.47153.47153,0,0,0-.39282.23927.87826.87826,0,0,0-.10438.22961l.04195.07212.07213-.042Z"/>
    <polygon class="cls-12" points="186.437 60.581 202.937 60.581 202.937 62.591 186.437 62.591 186.437 60.581 186.437 60.581"/>
    <polygon class="cls-12" points="193.518 60.967 195.856 60.967 195.856 147.379 193.518 147.379 193.518 60.967 193.518 60.967"/>
    <polygon class="cls-12" points="193.622 122.504 195.716 123.544 183.938 147.274 181.843 146.234 193.622 122.504 193.622 122.504"/>
    <polygon class="cls-12" points="195.612 122.504 193.518 123.544 205.296 147.274 207.391 146.234 195.612 122.504 195.612 122.504"/>
    <path class="cls-11" d="M196.77437,60.6886l-2.54245.10224a1.86414,1.86414,0,0,1-1.93761-1.78765L191.76622,45.859a1.864,1.864,0,0,1,1.78766-1.93725l2.54245-.10225a1.86458,1.86458,0,0,1,1.93761,1.78766l.52808,13.14424a1.864,1.864,0,0,1-1.78765,1.93725Z"/>
    <polygon class="cls-10" points="192.194 56.507 187.881 56.68 187.554 48.528 191.866 48.355 192.194 56.507 192.194 56.507"/>
    <path class="cls-11" d="M188.05962,57.39923l-2.63825.10582a1.816,1.816,0,0,1-1.88774-1.74137l-.24468-6.09194a1.81579,1.81579,0,0,1,1.74175-1.88738l2.6386-.1062a1.8162,1.8162,0,0,1,1.88738,1.74174l.24467,6.09194a1.816,1.816,0,0,1-1.74173,1.88739Z"/>
    <polyline class="cls-10" points="186.886 47.71 187.276 57.431 187.532 57.42 187.141 47.699"/>
    <polyline class="cls-10" points="185.474 47.766 185.865 57.487 186.121 57.477 185.73 47.756"/>
    <path class="cls-29" d="M103.49184,104.281a7.83063,7.83063,0,0,0,15.48365-2.352c-.64969-4.276-7.55527-28.54358-15.728-25.09169-4.49011,1.89635-.405,23.16807.24431,27.44366Z"/>
    <path class="cls-30" d="M114.88036,118.54027a233.12108,233.12108,0,0,0-6.84493-30.074.2059.2059,0,0,0-.39464.11767,232.75583,232.75583,0,0,1,6.83276,30.02092.206.206,0,1,0,.40681-.06457Z"/>
    <path class="cls-31" d="M126.11176,106.7216a6.04309,6.04309,0,0,1-11.466-3.82177c1.05544-3.166,9.49288-20.71458,15.25477-17.01658,3.1656,2.032-2.73369,17.672-3.78875,20.83835Z"/>
    <path class="cls-30" d="M115.87984,116.17251a179.72313,179.72313,0,0,1,9.13736-21.9329.15883.15883,0,1,0-.28448-.14134,179.91626,179.91626,0,0,0-9.15388,21.97165.159.159,0,0,0,.301.10259Z"/>
    <polygon class="cls-3" points="122.953 120.133 121.629 145.017 108.459 145.017 107.136 120.133 122.953 120.133 122.953 120.133"/>
    <polygon class="cls-3" points="124.431 112.498 105.997 112.498 105.997 109.278 124.431 109.278 124.431 112.498 124.431 112.498"/>
    <polygon class="cls-32" points="123.356 112.5 122.953 120.133 107.136 120.133 106.732 112.5 123.356 112.5 123.356 112.5"/>
    <path class="cls-3" d="M122.90309,19.36741a7.03083,7.03083,0,1,1-9.13234-3.93251,7.03108,7.03108,0,0,1,9.13234,3.93251Z"/>
    <path class="cls-4" d="M113.054,19.71658a1.06965,1.06965,0,0,0-.59766,1.38776l1.66351,4.17947a1.06959,1.06959,0,0,0,1.38764.59758L119.6869,24.218a1.0696,1.0696,0,0,0,.59767-1.38771l-1.66352-4.17951a1.06942,1.06942,0,0,0-1.38765-.59753L113.054,19.71658Zm6.81805,4.96661-4.17944,1.66342a1.571,1.571,0,0,1-2.03806-.87765L111.991,21.28949a1.57118,1.57118,0,0,1,.87785-2.03814L117.0483,17.588a1.57078,1.57078,0,0,1,2.038.87762l1.66353,4.17951a1.57086,1.57086,0,0,1-.87786,2.03809Z"/>
    <path class="cls-33" d="M94.6361,90.60153a11.47356,11.47356,0,1,1-15.09979-5.93982A11.47337,11.47337,0,0,1,94.6361,90.60153Z"/>
    <path class="cls-4" d="M89.393,93.27314l-6.96908,7.951a.39423.39423,0,0,1-.65795-.10261l-3.599-8.26666a.394.394,0,0,1,.3731-.5514l10.56842.31569a.39425.39425,0,0,1,.28449.654Z"/>
    <path class="cls-9" d="M216.26706,108.09383a9.22536,9.22536,0,1,1-.06207-13.04631,9.22548,9.22548,0,0,1,.06207,13.04631Z"/>
    <path class="cls-4" d="M204.75871,101.02681l1.53546,1.29688s7.03329-3.85727,6.87007-3.80993-8.40553,2.513-8.40553,2.513Z"/>
    <polygon class="cls-4" points="210.108 105.412 213.164 98.514 207.052 102.936 210.108 105.412 210.108 105.412"/>
    <polygon class="cls-9" points="95.283 26.174 97.707 23.75 95.283 21.327 92.86 23.75 95.283 26.174 95.283 26.174"/>
    <polygon class="cls-3" points="86.686 26.174 89.109 23.75 86.686 21.327 84.262 23.75 86.686 26.174 86.686 26.174"/>
    <polygon class="cls-10" points="78.088 26.174 80.512 23.75 78.088 21.327 75.665 23.75 78.088 26.174 78.088 26.174"/>
    <polygon class="cls-9" points="184.208 71.209 186.631 68.785 184.208 66.362 181.784 68.785 184.208 71.209 184.208 71.209"/>
    <polygon class="cls-3" points="175.61 71.209 178.034 68.785 175.61 66.362 173.187 68.785 175.61 71.209 175.61 71.209"/>
    <polygon class="cls-10" points="167.013 71.209 169.436 68.785 167.013 66.362 164.589 68.785 167.013 71.209 167.013 71.209"/>
    <polygon class="cls-9" points="53.823 93.082 56.247 90.659 53.823 88.235 51.4 90.659 53.823 93.082 53.823 93.082"/>
    <polygon class="cls-3" points="45.225 93.082 47.649 90.659 45.225 88.235 42.802 90.659 45.225 93.082 45.225 93.082"/>
    <polygon class="cls-10" points="36.628 93.082 39.051 90.659 36.628 88.235 34.204 90.659 36.628 93.082 36.628 93.082"/>
  </g>
</svg>
