<svg id="Layer_1" data-name="Layer 1" xmlns="http://www.w3.org/2000/svg" xmlns:xlink="http://www.w3.org/1999/xlink" width="287" height="180" viewBox="0 0 287 180">
  <defs>
    <style>
      .cls-1 {
        fill: none;
      }

      .cls-2 {
        clip-path: url(#clip-path);
      }

      .cls-3 {
        fill: #f7f7ff;
      }

      .cls-4 {
        fill: #fafaff;
      }

      .cls-5 {
        fill: #f4f5ff;
      }

      .cls-6 {
        fill: #f1f3ff;
      }

      .cls-7 {
        fill: #eaedfd;
      }

      .cls-8 {
        fill: #d2cbfb;
      }

      .cls-9 {
        fill: #f5f4ff;
      }

      .cls-10 {
        fill: #f1eeff;
      }

      .cls-11 {
        fill: #ccbefb;
      }

      .cls-12 {
        fill: #c1affd;
      }

      .cls-13 {
        fill: #ac99fc;
      }

      .cls-14 {
        fill: #faf2ff;
      }

      .cls-15 {
        fill: #faeafe;
      }

      .cls-16 {
        fill: #733be7;
      }

      .cls-17 {
        fill: #8246dd;
      }

      .cls-18 {
        fill: #f8c02e;
      }

      .cls-19 {
        fill: #ae9df8;
      }

      .cls-20 {
        fill: #3e20c8;
      }

      .cls-21 {
        fill: #fda702;
      }

      .cls-22 {
        fill: #b8aaf9;
      }

      .cls-23 {
        fill: #b096f8;
      }

      .cls-24 {
        fill: #a08cfb;
      }

      .cls-25 {
        fill: #1f0fad;
      }

      .cls-26 {
        fill: #2a07b7;
      }

      .cls-27 {
        fill: #b983f3;
      }

      .cls-28 {
        fill: #1a3976;
      }

      .cls-29 {
        fill: #684ffe;
      }

      .cls-30 {
        fill: #ccc9fa;
      }

      .cls-31 {
        fill: #f2f2ff;
      }

      .cls-32 {
        fill: #c0bcf9;
      }

      .cls-33 {
        fill: #a25e9c;
      }

      .cls-34 {
        fill: #fdab06;
      }

      .cls-35 {
        fill: #fdb40e;
      }

      .cls-36 {
        clip-path: url(#clip-path-2);
      }

      .cls-37 {
        fill: #f6bd10;
      }

      .cls-38 {
        fill: #f8c810;
      }

      .cls-39 {
        fill: #112f61;
      }

      .cls-40 {
        fill: #f6c787;
      }

      .cls-41 {
        fill: #4d28e5;
      }

      .cls-42 {
        fill: #9459ea;
      }

      .cls-43 {
        fill: #5122c7;
      }

      .cls-44 {
        fill: #8e74f6;
      }

      .cls-45 {
        fill: #fdbc05;
      }

      .cls-46 {
        fill: #b15016;
      }

      .cls-47 {
        fill: #351bc8;
      }

      .cls-48 {
        fill: #7e5ef9;
      }

      .cls-49 {
        fill: #ada9f8;
      }

      .cls-50 {
        fill: #beb6f9;
      }

      .cls-51 {
        fill: #a697f7;
      }

      .cls-52 {
        fill: #471ae0;
      }

      .cls-53 {
        fill: #fdbe06;
      }

      .cls-54 {
        fill: #78509c;
      }

      .cls-55 {
        fill: #fff;
      }

      .cls-56 {
        fill: #644bff;
      }

      .cls-57 {
        fill: #743ce7;
      }

      .cls-58 {
        fill: #fdb904;
      }

      .cls-59 {
        fill: #293c78;
      }

      .cls-60 {
        fill: #f6c112;
      }

      .cls-61 {
        fill: #0d1395;
      }

      .cls-62 {
        fill: #fba904;
      }

      .cls-63 {
        fill: #373965;
      }
    </style>
    <clipPath id="clip-path">
      <rect class="cls-1" x="0.01076" y="0.01793" width="286.98924" height="179.35707"/>
    </clipPath>
    <clipPath id="clip-path-2">
      <path class="cls-1" d="M67.97057,102.13524H66.78822c-.49938-.00091-.92262-.0027-1.16665-.00539-.41992-.00537-.49356-.374-.49705-.61167l4.76491-.89687c-.0495.5462-.07847.89508-.07883.96144v.0036a.54777.54777,0,0,0,.0095.104c.07973.42512.64522.43947.71822.43947-.10906,0-1.33876.00359-2.56775.00539"/>
    </clipPath>
  </defs>
  <g>
    <g class="cls-2">
      <path class="cls-3" d="M269.70914,135.94113c-5.02429,0-12.83875-.34978-12.94817-.22959H230.8027l-7.59742-.01166h-68.028l-19.86757-.01256H82.93484l-21.87568-.01166H21.4999l-.1967-.28789-.02187-.02422s-.0218-.02421-.0218-.03587c-.08746-.096-33.342-42.928,20.86589-61.72428,21.20965-7.35429-.42611-21.057,30.96568-29.95285,20.76507-5.8844,36.88193-1.926,53.99519,2.03241,16.2442,3.75736,33.38617,7.51473,56.25288,2.85449,44.04466-8.97611,70.11052,5.66762,67.193,22.24266-1.37041,7.78552,1.07535,19.38632,10.2737,20.95854,14.36529,2.45565,17.5689,17.05229,15.47556,29.761a33.28381,33.28381,0,0,1-6.57228,14.44148"/>
    </g>
    <polyline class="cls-4" points="135.856 88.151 109.713 88.151 109.713 58.624 135.856 58.624 135.856 88.151"/>
    <polyline class="cls-3" points="115.678 64.805 112.021 64.805 112.021 61.148 115.678 61.148 115.678 64.805"/>
    <polyline class="cls-5" points="115.678 70.257 112.021 70.257 112.021 66.6 115.678 66.6 115.678 70.257"/>
    <polyline class="cls-6" points="115.678 75.709 112.021 75.709 112.021 72.052 115.678 72.052 115.678 75.709"/>
    <polyline class="cls-7" points="115.678 81.161 112.021 81.161 112.021 77.504 115.678 77.504 115.678 81.161"/>
    <polyline class="cls-8" points="115.678 86.613 112.021 86.613 112.021 82.956 115.678 82.956 115.678 86.613"/>
    <polyline class="cls-9" points="121.608 64.805 117.952 64.805 117.952 61.148 121.608 61.148 121.608 64.805"/>
    <polyline class="cls-10" points="121.608 70.257 117.952 70.257 117.952 66.6 121.608 66.6 121.608 70.257"/>
    <polyline class="cls-11" points="121.608 75.709 117.952 75.709 117.952 72.052 121.608 72.052 121.608 75.709"/>
    <polyline class="cls-12" points="121.608 81.161 117.952 81.161 117.952 77.504 121.608 77.504 121.608 81.161"/>
    <polyline class="cls-13" points="121.608 86.613 117.952 86.613 117.952 82.956 121.608 82.956 121.608 86.613"/>
    <polyline class="cls-14" points="127.604 64.805 123.947 64.805 123.947 61.148 127.604 61.148 127.604 64.805"/>
    <polyline class="cls-15" points="127.604 70.257 123.947 70.257 123.947 66.6 127.604 66.6 127.604 70.257"/>
    <polyline class="cls-16" points="127.604 75.709 123.947 75.709 123.947 72.052 127.604 72.052 127.604 75.709"/>
    <polyline class="cls-17" points="127.604 81.161 123.947 81.161 123.947 77.504 127.604 77.504 127.604 81.161"/>
    <polyline class="cls-18" points="127.604 86.613 123.947 86.613 123.947 82.956 127.604 82.956 127.604 86.613"/>
    <polyline class="cls-19" points="133.862 61.467 129.19 61.467 129.19 61.148 133.862 61.148 133.862 61.467"/>
    <polyline class="cls-19" points="133.862 62.205 129.19 62.205 129.19 61.886 133.862 61.886 133.862 62.205"/>
    <polyline class="cls-19" points="133.862 66.891 129.19 66.891 129.19 66.572 133.862 66.572 133.862 66.891"/>
    <polyline class="cls-19" points="133.862 67.629 129.19 67.629 129.19 67.31 133.862 67.31 133.862 67.629"/>
    <polyline class="cls-19" points="133.862 72.315 129.19 72.315 129.19 71.996 133.862 71.996 133.862 72.315"/>
    <polyline class="cls-19" points="133.862 73.053 129.19 73.053 129.19 72.734 133.862 72.734 133.862 73.053"/>
    <polyline class="cls-19" points="133.862 77.739 129.19 77.739 129.19 77.42 133.862 77.42 133.862 77.739"/>
    <polyline class="cls-19" points="133.862 78.477 129.19 78.477 129.19 78.158 133.862 78.158 133.862 78.477"/>
    <polyline class="cls-19" points="133.862 83.163 129.19 83.163 129.19 82.844 133.862 82.844 133.862 83.163"/>
    <polyline class="cls-19" points="133.862 83.901 129.19 83.901 129.19 83.582 133.862 83.582 133.862 83.901"/>
    <polygon class="cls-20" points="167.511 134.38 168.33 134.38 168.33 131.385 167.511 131.385 167.511 134.38 167.511 134.38"/>
    <path class="cls-20" d="M168.97752,134.81377a1.05741,1.05741,0,1,0-1.0574,1.05741,1.05758,1.05758,0,0,0,1.0574-1.05741Z"/>
    <path class="cls-21" d="M168.6134,134.81377a.69329.69329,0,1,0-.69328.69328.69318.69318,0,0,0,.69328-.69328Z"/>
    <polygon class="cls-20" points="147.18 134.38 147.999 134.38 147.999 131.385 147.18 131.385 147.18 134.38 147.18 134.38"/>
    <path class="cls-20" d="M148.64717,134.81377a1.05742,1.05742,0,1,0-1.05741,1.05741,1.05758,1.05758,0,0,0,1.05741-1.05741Z"/>
    <path class="cls-21" d="M148.283,134.81377a.69328.69328,0,1,0-.69327.69328.69317.69317,0,0,0,.69327-.69328Z"/>
    <polygon class="cls-20" points="133.79 134.38 134.609 134.38 134.609 131.385 133.79 131.385 133.79 134.38 133.79 134.38"/>
    <path class="cls-20" d="M135.25772,134.81377a1.05742,1.05742,0,1,0-1.05741,1.05741,1.05759,1.05759,0,0,0,1.05741-1.05741Z"/>
    <path class="cls-21" d="M134.8936,134.81377a.6933.6933,0,1,0-.69329.69328.6932.6932,0,0,0,.69329-.69328Z"/>
    <path class="cls-22" d="M131.78143,133.41733h13.94014a1.60263,1.60263,0,0,0,1.60271-1.60271V99.4186a1.60263,1.60263,0,0,0-1.60271-1.60272H133.70074a3.52165,3.52165,0,0,0-3.522,3.52114v30.4776a1.60264,1.60264,0,0,0,1.60272,1.60271Z"/>
    <path class="cls-23" d="M144.55024,133.41733h24.98605a1.55651,1.55651,0,0,0,1.557-1.55608V97.81588h-26.543v35.60145"/>
    <polygon class="cls-20" points="135.171 97.816 162.394 97.816 162.394 96.154 135.171 96.154 135.171 97.816 135.171 97.816"/>
    <polyline class="cls-24" points="167.92 119.6 149.189 119.6 149.189 106.733 167.92 106.733 167.92 119.6"/>
    <polygon class="cls-25" points="133.397 100.867 142.931 100.867 142.931 100.189 133.397 100.189 133.397 100.867 133.397 100.867"/>
    <polygon class="cls-25" points="133.397 102.525 142.931 102.525 142.931 101.847 133.397 101.847 133.397 102.525 133.397 102.525"/>
    <path class="cls-23" d="M138.86226,96.154h29.77446a3.23744,3.23744,0,0,0-3.23772-3.23772H138.86226V96.154Z"/>
    <path class="cls-22" d="M131.84511,96.154h15.47917a3.23744,3.23744,0,0,0-3.23772-3.23772h-9.00373a3.23744,3.23744,0,0,0-3.23772,3.23772Z"/>
    <path class="cls-26" d="M170.46992,97.81588l2.44758,4.64492c.37222.70674.10136,1.27894-.60539,1.27894h-20.394a2.48881,2.48881,0,0,1-1.9525-1.27894L147.518,97.81588Z"/>
    <path class="cls-21" d="M152.98177,103.73974h20.394c.70674,0,.9776-.5722.60539-1.27894l-2.44757-4.64492H148.5817l2.44756,4.64492a2.48882,2.48882,0,0,0,1.95251,1.27894Z"/>
    <polygon class="cls-27" points="153.613 101.99 159.7 101.99 158.091 98.937 152.004 98.937 153.613 101.99 153.613 101.99"/>
    <path class="cls-28" d="M166.32547,99.65089a.83658.83658,0,0,0,.6583.4314c.23768,0,.32916-.19283.20359-.4314a.83893.83893,0,0,0-.6583-.4305c-.23857,0-.32916.19282-.20359.4305Z"/>
    <path class="cls-28" d="M163.96758,99.65089a.83791.83791,0,0,0,.65832.4314c.23856,0,.32914-.19283.20359-.4314a.839.839,0,0,0-.65832-.4305c-.23766,0-.32913.19282-.20359.4305Z"/>
    <path class="cls-28" d="M161.5236,99.65089a.83791.83791,0,0,0,.65831.4314c.23856,0,.32915-.19283.20358-.4314a.83892.83892,0,0,0-.6583-.4305c-.23857,0-.32915.19282-.20359.4305Z"/>
    <path class="cls-28" d="M167.24925,101.40517a.83922.83922,0,0,0,.65831.4314c.23857,0,.33-.19282.20449-.4314a.84146.84146,0,0,0-.65832-.4314c-.23856,0-.33.19374-.20448.4314Z"/>
    <path class="cls-28" d="M164.89137,101.40517a.83922.83922,0,0,0,.65831.4314c.23856,0,.33-.19282.20448-.4314a.84145.84145,0,0,0-.6583-.4314c-.23858,0-.33006.19374-.20449.4314Z"/>
    <path class="cls-28" d="M162.44738,101.40517a.83925.83925,0,0,0,.65831.4314c.23857,0,.33-.19282.20449-.4314a.84143.84143,0,0,0-.65831-.4314c-.23857,0-.33.19374-.20449.4314Z"/>
    <path class="cls-28" d="M170.57845,99.00783a.39748.39748,0,0,0,.313.20538c.113,0,.157-.09148.09686-.20538a.39851.39851,0,0,0-.313-.20449c-.113,0-.15695.09148-.09686.20449Z"/>
    <path class="cls-28" d="M169.45826,99.00783a.39612.39612,0,0,0,.313.20538c.113,0,.15605-.09148.09685-.20538a.3999.3999,0,0,0-.313-.20449c-.113,0-.157.09148-.09686.20449Z"/>
    <path class="cls-28" d="M168.2959,99.00783a.39884.39884,0,0,0,.313.20538c.1139,0,.15695-.09148.09777-.20538a.39993.39993,0,0,0-.313-.20449c-.11391,0-.157.09148-.09777.20449Z"/>
    <path class="cls-28" d="M171.01792,99.84192a.39719.39719,0,0,0,.313.20449c.113,0,.15606-.09148.09687-.20449a.401.401,0,0,0-.313-.20538c-.113,0-.15695.09237-.09686.20538Z"/>
    <path class="cls-28" d="M169.89682,99.84192a.39991.39991,0,0,0,.313.20449c.1139,0,.15695-.09148.09686-.20449a.39826.39826,0,0,0-.313-.20538c-.113,0-.156.09237-.09688.20538Z"/>
    <path class="cls-28" d="M168.73538,99.84192a.39988.39988,0,0,0,.313.20449c.113,0,.15695-.09148.09686-.20449a.39824.39824,0,0,0-.313-.20538c-.113,0-.15606.09237-.09685.20538Z"/>
    <path class="cls-22" d="M166.35955,110.32728H151.80237a.50359.50359,0,1,1,0-1.00718h14.55718a.50359.50359,0,0,1,0,1.00718Z"/>
    <path class="cls-22" d="M166.35955,112.65109H151.80237a.50359.50359,0,1,1,0-1.00718h14.55718a.50359.50359,0,0,1,0,1.00718Z"/>
    <polygon class="cls-20" points="251.557 134.273 252.425 134.273 252.425 131.1 251.557 131.1 251.557 134.273 251.557 134.273"/>
    <path class="cls-20" d="M253.11247,134.73305a1.12065,1.12065,0,1,0-1.12107,1.1202,1.12148,1.12148,0,0,0,1.12107-1.1202Z"/>
    <path class="cls-21" d="M252.72593,134.73305a.73455.73455,0,1,0-.73453.73453.73492.73492,0,0,0,.73453-.73453Z"/>
    <polygon class="cls-20" points="215.826 134.273 216.694 134.273 216.694 131.1 215.826 131.1 215.826 134.273 215.826 134.273"/>
    <path class="cls-20" d="M217.381,134.73305a1.12066,1.12066,0,1,0-1.12112,1.1202,1.12152,1.12152,0,0,0,1.12112-1.1202Z"/>
    <path class="cls-21" d="M216.99442,134.73305a.73453.73453,0,1,0-.73454.73453.73491.73491,0,0,0,.73454-.73453Z"/>
    <polygon class="cls-20" points="199.703 134.273 200.57 134.273 200.57 131.1 199.703 131.1 199.703 134.273 199.703 134.273"/>
    <path class="cls-20" d="M201.257,134.73305a1.12065,1.12065,0,1,0-1.12109,1.1202,1.12149,1.12149,0,0,0,1.12109-1.1202Z"/>
    <path class="cls-21" d="M200.8704,134.73305a.73454.73454,0,1,0-.73454.73453.73491.73491,0,0,0,.73454-.73453Z"/>
    <path class="cls-29" d="M254.5412,133.1976l7.16244.05561V101.72266a6.19486,6.19486,0,0,0-6.19473-6.1947h-2.39644l1.42873,37.66964Z"/>
    <path class="cls-23" d="M251.55732,133.23617h8.05747V102.46528a4.13153,4.13153,0,0,0-4.13187-4.131h-.16411l-3.76149,34.9019Z"/>
    <path class="cls-23" d="M196.96093,133.25321H252.977a2.37659,2.37659,0,0,0,2.37672-2.37582V95.528H196.96093v37.72525Z"/>
    <polygon class="cls-29" points="196.961 98.334 256.626 98.334 255.354 95.528 196.961 95.528 196.961 98.334 196.961 98.334"/>
    <path class="cls-22" d="M196.96093,133.25321h8.59117V101.72266a6.19411,6.19411,0,0,0-6.19382-6.1947h-2.39735v37.72525Z"/>
    <path class="cls-26" d="M230.03946,93.18352l2.59378,4.922c.39372.74889.10672,1.35517-.64128,1.35517h-21.6111a2.6377,2.6377,0,0,1-2.06909-1.35517l-2.09868-3.98213a.64129.64129,0,0,1,.56775-.93992Z"/>
    <path class="cls-20" d="M211.50824,99.46074h21.6102c.7489,0,1.03592-.60628.64126-1.35517l-2.19463-4.166a1.41686,1.41686,0,0,0-1.253-.75607h-22.168a.784.784,0,0,0-.69328,1.1498l1.98836,3.77225a2.635,2.635,0,0,0,2.0691,1.35517Z"/>
    <polygon class="cls-27" points="212.177 97.607 218.628 97.607 216.923 94.371 210.472 94.371 212.177 97.607 212.177 97.607"/>
    <path class="cls-26" d="M225.64747,95.12885a.88865.88865,0,0,0,.69777.4565c.252,0,.34889-.20448.21616-.4565a.89035.89035,0,0,0-.69777-.45741c-.25293,0-.3498.20448-.21616.45741Z"/>
    <path class="cls-26" d="M223.14878,95.12885a.89.89,0,0,0,.69778.4565c.2529,0,.34887-.20448.21613-.4565a.88889.88889,0,0,0-.69777-.45741c-.252,0-.34885.20448-.21614.45741Z"/>
    <path class="cls-26" d="M220.5586,95.12885a.89141.89141,0,0,0,.69777.4565c.25292,0,.34979-.20448.21614-.4565a.88756.88756,0,0,0-.69775-.45741c-.252,0-.3489.20448-.21616.45741Z"/>
    <path class="cls-26" d="M226.62687,96.98717a.88972.88972,0,0,0,.69775.4574c.252,0,.34889-.20539.21616-.4574a.89239.89239,0,0,0-.69777-.45741c-.25293,0-.34978.20538-.21614.45741Z"/>
    <path class="cls-26" d="M224.12816,96.98717a.89112.89112,0,0,0,.69778.4574c.252,0,.34889-.20539.21614-.4574a.89108.89108,0,0,0-.69778-.45741c-.252,0-.34887.20538-.21614.45741Z"/>
    <path class="cls-26" d="M221.538,96.98717a.89246.89246,0,0,0,.69775.4574c.25292,0,.34979-.20539.21616-.4574a.88962.88962,0,0,0-.69777-.45741c-.252,0-.3489.20538-.21614.45741Z"/>
    <path class="cls-27" d="M230.15426,94.44722a.42141.42141,0,0,0,.33184.217c.12019,0,.16593-.09686.10226-.217a.42126.42126,0,0,0-.33094-.217c-.12017,0-.16683.09685-.10316.217Z"/>
    <path class="cls-27" d="M228.9668,94.44722a.42277.42277,0,0,0,.33184.217c.12019,0,.16595-.09686.10226-.217a.4213.4213,0,0,0-.33092-.217c-.12021,0-.166.09685-.10318.217Z"/>
    <path class="cls-27" d="M227.73629,94.44722a.42141.42141,0,0,0,.33184.217c.11929,0,.16593-.09686.10226-.217a.4214.4214,0,0,0-.33184-.217c-.11929,0-.16591.09685-.10226.217Z"/>
    <path class="cls-27" d="M230.61976,95.33065a.42351.42351,0,0,0,.33184.217c.12016,0,.16591-.09775.10223-.217a.42125.42125,0,0,0-.33094-.21705c-.12019,0-.16593.09685-.10313.21705Z"/>
    <path class="cls-27" d="M229.43227,95.33065a.425.425,0,0,0,.33187.217c.12016,0,.1659-.09775.10223-.217a.42125.42125,0,0,0-.33094-.21705c-.12019,0-.16591.09685-.10316.21705Z"/>
    <path class="cls-27" d="M228.20179,95.33065a.42351.42351,0,0,0,.33184.217c.11926,0,.1659-.09775.10223-.217a.42137.42137,0,0,0-.33184-.21705c-.11929,0-.16593.09685-.10223.21705Z"/>
    <path class="cls-26" d="M210.4598,108.61066h40.26789a1.26369,1.26369,0,1,0,0-2.52738H210.4598a1.26369,1.26369,0,1,0,0,2.52738Z"/>
    <path class="cls-22" d="M232.731,129.90158h18.41554V118.983H232.731v10.91855Zm18.63707.22153H232.50856v-11.3625h18.85949v11.3625Z"/>
    <path class="cls-22" d="M209.30731,129.90158h18.41554V118.983H209.30731v10.91855Zm18.63706.22153H209.08488v-11.3625h18.85949v11.3625Z"/>
    <path class="cls-27" d="M262.74043,131.14285H214.154a10.93557,10.93557,0,0,1-2.1848-5.19828c-.92915-7.07276,1.87985-15.22535-2.77313-18.5976H251.9914s6.39382.89328,5.77407,11.52484c-.29687,5.105,2.24847,9.29432,4.975,12.271Z"/>
    <path class="cls-30" d="M215.27422,68.3199h-9.60375a.80389.80389,0,0,1-.8018-.80162V58.24863a.8039.8039,0,0,1,.8018-.80163h9.60375a.8039.8039,0,0,1,.8018.80163v9.26965a.80389.80389,0,0,1-.8018.80162Z"/>
    <path class="cls-31" d="M214.85806,67.84887h-8.77142a.73481.73481,0,0,1-.73277-.73222v-8.4664a.73486.73486,0,0,1,.73277-.73221h8.77142a.73484.73484,0,0,1,.73276.73221v8.4664a.7348.7348,0,0,1-.73276.73222Z"/>
    <path class="cls-32" d="M210.24005,58.91043a.2323.2323,0,1,1,.2323.23212.23227.23227,0,0,1-.2323-.23212Z"/>
    <path class="cls-32" d="M212.11363,59.23851a.232.232,0,1,1,.08969.3157.232.232,0,0,1-.08969-.3157Z"/>
    <path class="cls-32" d="M213.71813,60.5136a.23222.23222,0,1,1-.06906.32089.23214.23214,0,0,1,.06906-.32089Z"/>
    <path class="cls-32" d="M214.51367,62.48707a.23212.23212,0,1,1-.2323.23211.23219.23219,0,0,1,.2323-.23211Z"/>
    <path class="cls-32" d="M214.10738,64.77725a.23214.23214,0,1,1-.32825,0,.23231.23231,0,0,1,.32825,0Z"/>
    <path class="cls-32" d="M212.65,66.23888a.23214.23214,0,1,1-.32825,0,.23233.23233,0,0,1,.32825,0Z"/>
    <path class="cls-32" d="M210.24005,66.99235a.2323.2323,0,1,1,.2323.23211.23227.23227,0,0,1-.2323-.23211Z"/>
    <path class="cls-32" d="M208.8239,59.23851a.23235.23235,0,1,0-.09059.3157.232.232,0,0,0,.09059-.3157Z"/>
    <path class="cls-32" d="M207.21938,60.5136a.23222.23222,0,1,0,.06906.32089.232.232,0,0,0-.06906-.32089Z"/>
    <path class="cls-32" d="M206.42386,62.48707a.23212.23212,0,1,0,.23228.23211.23219.23219,0,0,0-.23228-.23211Z"/>
    <path class="cls-32" d="M206.83015,64.77725a.23214.23214,0,1,0,.32825,0,.23231.23231,0,0,0-.32825,0Z"/>
    <path class="cls-32" d="M208.28757,66.23888a.23214.23214,0,1,0,.32825,0,.23233.23233,0,0,0-.32825,0Z"/>
    <path class="cls-32" d="M210.40957,62.71918a.23229.23229,0,1,1,.2323.23212.23219.23219,0,0,1-.2323-.23212Z"/>
    <polygon class="cls-32" points="210.673 62.719 210.61 62.719 210.61 59.819 210.673 59.819 210.673 62.719 210.673 62.719"/>
    <polygon class="cls-32" points="210.671 62.79 210.554 62.64 212.091 61.433 212.209 61.583 210.671 62.79 210.671 62.79"/>
    <path class="cls-23" d="M54.85726,136.08285h-.02851c-.16834,0-.30378-.22332-.29991-.496l.4548-31.87315,1.33957-.25293-1.14235,32.12877c-.00987.27713-.15184.49328-.3236.49328Z"/>
    <path class="cls-23" d="M108.025,136.08285h.02871c.16861,0,.304-.22332.30046-.496l-.45472-31.87315-1.33993-.25293,1.14261,32.12877c.00986.27713.15158.49328.32287.49328Z"/>
    <path class="cls-23" d="M52.16754,104.30029h56.55075a.73645.73645,0,0,0,.73634-.73723v-.44934a.73645.73645,0,0,0-.73634-.73723H52.16754a.73689.73689,0,0,0-.7366.73723v.44934a.7369.7369,0,0,0,.7366.73723Z"/>
    <path class="cls-33" d="M65.93269,88.21537l-1.12244,13.34586s-.11767.809.48413.81078c.98943.00179,4.92466,0,4.92466,0s-.74459-.16861-.73562-.548c.01067-.44664,1.31186-13.73492,1.31186-13.73492l-4.86259.12628"/>
    <path class="cls-34" d="M70.53832,102.12985c-.19453,0-3.95324.01255-4.91675,0-.41992-.00537-.49356-.374-.49705-.61167a1.19971,1.19971,0,0,1,.01273-.19911l.02924-.34709.07436-.88342.06573-.78118.08449-1.0036.07112-.84755.79751-9.48311,4.86267-.12618s-.54808,5.56079-.93572,9.60929c-.04331.45113-.08448.88342-.1225,1.287-.01238.12916-.02413.25473-.03579.3776-.036.38295-.06879.73543-.0974,1.04574-.01507.16325-.029.31571-.04153.45473-.0495.5462-.07847.89508-.07883.96144a.54291.54291,0,0,0,.0095.10763c.07973.42512.64522.43947.71822.43947"/>
    <polyline class="cls-35" points="54.123 80.953 56.857 91.935 57.232 93.439 58.505 98.554 82.163 98.554 77.469 80.953 54.123 80.953"/>
    <polyline class="cls-34" points="54.123 80.953 53.745 81.079 58.002 98.936 58.505 98.554 54.123 80.953"/>
    <polyline class="cls-33" points="58.002 98.936 81.513 98.936 82.162 98.554 58.505 98.554 58.002 98.936"/>
    <polyline class="cls-35" points="66.258 102.376 71.349 102.376 71.349 102.135 66.258 102.135 66.258 102.376"/>
    <polygon class="cls-35" points="81.016 95.311 77.178 81.186 54.086 81.186 54.086 80.953 77.469 80.953 81.295 95.28 81.016 95.311 81.016 95.311"/>
    <polygon class="cls-33" points="70.055 98.936 70.028 99.121 65.241 100.089 65.307 99.307 65.338 98.936 70.055 98.936 70.055 98.936"/>
    <g class="cls-36">
      <rect class="cls-37" x="65.12452" y="100.62131" width="5.4138" height="1.51393"/>
    </g>
    <polyline class="cls-38" points="58.505 98.554 58.505 98.554 57.232 93.439 68.898 94.991 58.505 98.554"/>
    <polygon class="cls-23" points="54.123 80.953 77.469 80.953 81.257 95.098 57.525 95.098 54.123 80.953 54.123 80.953"/>
    <polygon class="cls-22" points="80.156 94.486 58.297 94.486 55.822 84.624 55.632 83.868 55.47 83.223 55.091 81.711 76.634 81.711 77.051 83.223 77.229 83.868 77.437 84.624 80.156 94.486 80.156 94.486"/>
    <polygon class="cls-27" points="58.343 82.981 56.886 83.002 56.853 82.875 58.31 82.855 58.343 82.981 58.343 82.981"/>
    <polygon class="cls-27" points="58.021 83.33 56.974 83.345 56.941 83.218 57.989 83.204 58.021 83.33 58.021 83.33"/>
    <polygon class="cls-27" points="59.225 83.313 58.177 83.328 58.145 83.202 59.192 83.187 59.225 83.313 59.225 83.313"/>
    <polygon class="cls-27" points="60.095 83.301 59.446 83.31 59.413 83.184 60.063 83.174 60.095 83.301 60.095 83.301"/>
    <polygon class="cls-27" points="59.512 82.965 58.613 82.978 58.58 82.851 59.479 82.838 59.512 82.965 59.512 82.965"/>
    <polygon class="cls-27" points="60.74 82.948 59.841 82.96 59.808 82.834 60.707 82.821 60.74 82.948 60.74 82.948"/>
    <polygon class="cls-27" points="74.531 82.4 73.548 82.414 73.527 82.329 74.509 82.315 74.531 82.4 74.531 82.4"/>
    <polygon class="cls-27" points="74.314 82.636 73.608 82.646 73.586 82.56 74.292 82.55 74.314 82.636 74.314 82.636"/>
    <polygon class="cls-27" points="75.126 82.624 74.42 82.634 74.398 82.549 75.104 82.539 75.126 82.624 75.126 82.624"/>
    <polygon class="cls-27" points="75.714 82.616 75.276 82.622 75.254 82.537 75.692 82.531 75.714 82.616 75.714 82.616"/>
    <polygon class="cls-27" points="75.32 82.389 74.714 82.398 74.692 82.312 75.298 82.304 75.32 82.389 75.32 82.389"/>
    <polygon class="cls-27" points="76.148 82.378 75.542 82.386 75.52 82.301 76.126 82.292 76.148 82.378 76.148 82.378"/>
    <polygon class="cls-27" points="77.153 93.609 76.17 93.622 76.148 93.537 77.131 93.523 77.153 93.609 77.153 93.609"/>
    <polygon class="cls-27" points="76.936 93.845 76.229 93.854 76.208 93.768 76.914 93.758 76.936 93.845 76.936 93.845"/>
    <polygon class="cls-27" points="77.748 93.833 77.041 93.843 77.019 93.758 77.726 93.748 77.748 93.833 77.748 93.833"/>
    <polygon class="cls-27" points="78.335 93.825 77.897 93.83 77.875 93.745 78.313 93.739 78.335 93.825 78.335 93.825"/>
    <polygon class="cls-27" points="77.942 93.598 77.335 93.606 77.313 93.521 77.92 93.512 77.942 93.598 77.942 93.598"/>
    <polygon class="cls-27" points="78.77 93.586 78.164 93.594 78.142 93.509 78.748 93.5 78.77 93.586 78.77 93.586"/>
    <polygon class="cls-27" points="58.402 84.1 57.171 84.117 57.139 83.991 58.37 83.973 58.402 84.1 58.402 84.1"/>
    <polygon class="cls-27" points="59.313 84.087 58.626 84.097 58.593 83.97 59.28 83.961 59.313 84.087 59.313 84.087"/>
    <polygon class="cls-27" points="60.679 84.068 59.625 84.083 59.592 83.956 60.646 83.941 60.679 84.068 60.679 84.068"/>
    <polygon class="cls-27" points="58.714 84.43 57.257 84.45 57.224 84.324 58.681 84.303 58.714 84.43 58.714 84.43"/>
    <polygon class="cls-27" points="58.392 84.779 57.345 84.794 57.312 84.667 58.36 84.652 58.392 84.779 58.392 84.779"/>
    <polygon class="cls-27" points="59.596 84.762 58.548 84.777 58.516 84.65 59.563 84.635 59.596 84.762 59.596 84.762"/>
    <polygon class="cls-27" points="60.466 84.75 59.817 84.759 59.785 84.632 60.434 84.623 60.466 84.75 60.466 84.75"/>
    <polygon class="cls-27" points="59.883 84.413 58.984 84.426 58.951 84.299 59.85 84.287 59.883 84.413 59.883 84.413"/>
    <polygon class="cls-27" points="61.111 84.396 60.212 84.409 60.179 84.282 61.078 84.269 61.111 84.396 61.111 84.396"/>
    <polygon class="cls-27" points="58.808 85.686 57.578 85.703 57.545 85.577 58.776 85.559 58.808 85.686 58.808 85.686"/>
    <polygon class="cls-27" points="59.719 85.673 59.032 85.683 58.999 85.556 59.687 85.546 59.719 85.673 59.719 85.673"/>
    <polygon class="cls-27" points="61.085 85.654 60.031 85.669 59.999 85.542 61.052 85.527 61.085 85.654 61.085 85.654"/>
    <polygon class="cls-27" points="59.12 86.016 57.663 86.036 57.63 85.909 59.087 85.889 59.12 86.016 59.12 86.016"/>
    <polygon class="cls-27" points="58.798 86.365 57.751 86.379 57.718 86.253 58.766 86.238 58.798 86.365 58.798 86.365"/>
    <polygon class="cls-27" points="60.002 86.348 58.954 86.362 58.922 86.236 59.969 86.221 60.002 86.348 60.002 86.348"/>
    <polygon class="cls-27" points="60.873 86.335 60.223 86.344 60.191 86.218 60.84 86.209 60.873 86.335 60.873 86.335"/>
    <polygon class="cls-27" points="60.289 85.999 59.39 86.012 59.358 85.885 60.257 85.872 60.289 85.999 60.289 85.999"/>
    <polygon class="cls-27" points="61.517 85.982 60.618 85.994 60.586 85.868 61.484 85.855 61.517 85.982 61.517 85.982"/>
    <polygon class="cls-27" points="59.197 87.203 57.966 87.22 57.934 87.093 59.165 87.076 59.197 87.203 59.197 87.203"/>
    <polygon class="cls-27" points="60.108 87.19 59.42 87.2 59.388 87.073 60.075 87.063 60.108 87.19 60.108 87.19"/>
    <polygon class="cls-27" points="61.474 87.171 60.42 87.186 60.387 87.059 61.441 87.044 61.474 87.171 61.474 87.171"/>
    <polygon class="cls-27" points="59.508 87.532 58.052 87.553 58.019 87.426 59.476 87.406 59.508 87.532 59.508 87.532"/>
    <polygon class="cls-27" points="59.187 87.882 58.139 87.896 58.107 87.77 59.155 87.755 59.187 87.882 59.187 87.882"/>
    <polygon class="cls-27" points="60.39 87.865 59.343 87.879 59.311 87.753 60.358 87.738 60.39 87.865 60.39 87.865"/>
    <polygon class="cls-27" points="61.261 87.852 60.612 87.861 60.579 87.735 61.229 87.726 61.261 87.852 61.261 87.852"/>
    <polygon class="cls-27" points="60.678 87.516 59.779 87.529 59.746 87.402 60.645 87.389 60.678 87.516 60.678 87.516"/>
    <polygon class="cls-27" points="61.905 87.499 61.007 87.511 60.974 87.385 61.873 87.372 61.905 87.499 61.905 87.499"/>
    <polygon class="cls-27" points="59.596 88.761 58.365 88.778 58.333 88.651 59.564 88.634 59.596 88.761 59.596 88.761"/>
    <polygon class="cls-27" points="60.507 88.748 59.82 88.758 59.787 88.631 60.474 88.621 60.507 88.748 60.507 88.748"/>
    <polygon class="cls-27" points="61.873 88.729 60.819 88.744 60.786 88.617 61.84 88.602 61.873 88.729 61.873 88.729"/>
    <polygon class="cls-27" points="59.908 89.09 58.451 89.111 58.418 88.984 59.875 88.964 59.908 89.09 59.908 89.09"/>
    <polygon class="cls-27" points="59.586 89.439 58.539 89.454 58.506 89.328 59.554 89.313 59.586 89.439 59.586 89.439"/>
    <polygon class="cls-27" points="60.79 89.422 59.742 89.437 59.71 89.311 60.757 89.296 60.79 89.422 60.79 89.422"/>
    <polygon class="cls-27" points="61.66 89.41 61.011 89.419 60.979 89.293 61.628 89.284 61.66 89.41 61.66 89.41"/>
    <polygon class="cls-27" points="61.077 89.074 60.178 89.087 60.145 88.96 61.044 88.947 61.077 89.074 61.077 89.074"/>
    <polygon class="cls-27" points="62.305 89.057 61.406 89.069 61.373 88.943 62.272 88.93 62.305 89.057 62.305 89.057"/>
    <polygon class="cls-27" points="60.067 90.682 58.836 90.699 58.804 90.573 60.034 90.555 60.067 90.682 60.067 90.682"/>
    <polygon class="cls-27" points="60.978 90.669 60.29 90.679 60.258 90.552 60.945 90.542 60.978 90.669 60.978 90.669"/>
    <polygon class="cls-27" points="62.343 90.65 61.29 90.664 61.257 90.538 62.311 90.523 62.343 90.65 62.343 90.65"/>
    <polygon class="cls-27" points="60.378 91.011 58.921 91.032 58.889 90.905 60.346 90.885 60.378 91.011 60.378 91.011"/>
    <polygon class="cls-27" points="60.057 91.36 59.009 91.375 58.977 91.249 60.024 91.234 60.057 91.36 60.057 91.36"/>
    <polygon class="cls-27" points="61.26 91.343 60.213 91.358 60.18 91.232 61.228 91.217 61.26 91.343 61.26 91.343"/>
    <polygon class="cls-27" points="62.131 91.331 61.482 91.34 61.449 91.214 62.099 91.205 62.131 91.331 62.131 91.331"/>
    <polygon class="cls-27" points="61.548 90.995 60.649 91.008 60.616 90.881 61.515 90.869 61.548 90.995 61.548 90.995"/>
    <polygon class="cls-27" points="62.775 90.978 61.876 90.991 61.844 90.864 62.743 90.851 62.775 90.978 62.775 90.978"/>
    <polygon class="cls-27" points="60.538 92.48 59.308 92.497 59.275 92.371 60.506 92.353 60.538 92.48 60.538 92.48"/>
    <polygon class="cls-27" points="61.449 92.467 60.762 92.477 60.73 92.35 61.417 92.34 61.449 92.467 61.449 92.467"/>
    <polygon class="cls-27" points="62.815 92.448 61.761 92.462 61.729 92.336 62.783 92.322 62.815 92.448 62.815 92.448"/>
    <polygon class="cls-27" points="60.85 92.81 59.393 92.83 59.361 92.704 60.818 92.683 60.85 92.81 60.85 92.81"/>
    <polygon class="cls-27" points="60.529 93.158 59.481 93.174 59.449 93.047 60.496 93.032 60.529 93.158 60.529 93.158"/>
    <polygon class="cls-27" points="61.732 93.142 60.684 93.157 60.652 93.03 61.7 93.015 61.732 93.142 61.732 93.142"/>
    <polygon class="cls-27" points="62.603 93.13 61.953 93.139 61.921 93.012 62.57 93.003 62.603 93.13 62.603 93.13"/>
    <polygon class="cls-27" points="62.019 92.793 61.12 92.806 61.088 92.679 61.987 92.667 62.019 92.793 62.019 92.793"/>
    <polygon class="cls-27" points="63.247 92.776 62.348 92.789 62.316 92.662 63.215 92.649 63.247 92.776 63.247 92.776"/>
    <polygon class="cls-27" points="64.092 82.981 62.635 83.002 62.603 82.875 64.06 82.855 64.092 82.981 64.092 82.981"/>
    <polygon class="cls-27" points="63.771 83.33 62.723 83.345 62.691 83.218 63.738 83.204 63.771 83.33 63.771 83.33"/>
    <polygon class="cls-27" points="64.974 83.313 63.927 83.328 63.894 83.202 64.942 83.187 64.974 83.313 64.974 83.313"/>
    <polygon class="cls-27" points="65.845 83.301 65.196 83.31 65.163 83.184 65.812 83.174 65.845 83.301 65.845 83.301"/>
    <polygon class="cls-27" points="65.261 82.965 64.362 82.978 64.33 82.851 65.229 82.838 65.261 82.965 65.261 82.965"/>
    <polygon class="cls-27" points="66.489 82.948 65.59 82.96 65.558 82.834 66.457 82.821 66.489 82.948 66.489 82.948"/>
    <polygon class="cls-27" points="64.152 84.1 62.921 84.117 62.889 83.991 64.119 83.973 64.152 84.1 64.152 84.1"/>
    <polygon class="cls-27" points="65.062 84.087 64.375 84.097 64.343 83.97 65.03 83.961 65.062 84.087 65.062 84.087"/>
    <polygon class="cls-27" points="66.428 84.068 65.374 84.083 65.342 83.956 66.396 83.941 66.428 84.068 66.428 84.068"/>
    <polygon class="cls-27" points="64.463 84.43 63.006 84.45 62.974 84.324 64.431 84.303 64.463 84.43 64.463 84.43"/>
    <polygon class="cls-27" points="64.142 84.779 63.094 84.794 63.062 84.667 64.109 84.652 64.142 84.779 64.142 84.779"/>
    <polygon class="cls-27" points="65.345 84.762 64.298 84.777 64.265 84.65 65.313 84.635 65.345 84.762 65.345 84.762"/>
    <polygon class="cls-27" points="66.216 84.75 65.567 84.759 65.534 84.632 66.183 84.623 66.216 84.75 66.216 84.75"/>
    <polygon class="cls-27" points="65.632 84.413 64.733 84.426 64.701 84.299 65.6 84.287 65.632 84.413 65.632 84.413"/>
    <polygon class="cls-27" points="66.86 84.396 65.961 84.409 65.929 84.282 66.828 84.269 66.86 84.396 66.86 84.396"/>
    <polygon class="cls-27" points="64.558 85.686 63.327 85.703 63.295 85.577 64.525 85.559 64.558 85.686 64.558 85.686"/>
    <polygon class="cls-27" points="65.469 85.673 64.781 85.683 64.749 85.556 65.436 85.546 65.469 85.673 65.469 85.673"/>
    <polygon class="cls-27" points="66.834 85.654 65.781 85.669 65.748 85.542 66.802 85.527 66.834 85.654 66.834 85.654"/>
    <polygon class="cls-27" points="64.869 86.016 63.412 86.036 63.38 85.909 64.837 85.889 64.869 86.016 64.869 86.016"/>
    <polygon class="cls-27" points="64.548 86.365 63.5 86.379 63.468 86.253 64.515 86.238 64.548 86.365 64.548 86.365"/>
    <polygon class="cls-27" points="65.751 86.348 64.704 86.362 64.671 86.236 65.719 86.221 65.751 86.348 65.751 86.348"/>
    <polygon class="cls-27" points="66.622 86.335 65.973 86.344 65.94 86.218 66.59 86.209 66.622 86.335 66.622 86.335"/>
    <polygon class="cls-27" points="66.039 85.999 65.14 86.012 65.107 85.885 66.006 85.872 66.039 85.999 66.039 85.999"/>
    <polygon class="cls-27" points="67.266 85.982 66.367 85.994 66.335 85.868 67.234 85.855 67.266 85.982 67.266 85.982"/>
    <polygon class="cls-27" points="64.946 87.203 63.716 87.22 63.683 87.093 64.914 87.076 64.946 87.203 64.946 87.203"/>
    <polygon class="cls-27" points="65.857 87.19 65.17 87.2 65.138 87.073 65.825 87.063 65.857 87.19 65.857 87.19"/>
    <polygon class="cls-27" points="67.223 87.171 66.169 87.186 66.137 87.059 67.191 87.044 67.223 87.171 67.223 87.171"/>
    <polygon class="cls-27" points="65.258 87.532 63.801 87.553 63.769 87.426 65.226 87.406 65.258 87.532 65.258 87.532"/>
    <polygon class="cls-27" points="64.937 87.882 63.889 87.896 63.857 87.77 64.904 87.755 64.937 87.882 64.937 87.882"/>
    <polygon class="cls-27" points="66.14 87.865 65.093 87.879 65.06 87.753 66.108 87.738 66.14 87.865 66.14 87.865"/>
    <polygon class="cls-27" points="67.011 87.852 66.361 87.861 66.329 87.735 66.978 87.726 67.011 87.852 67.011 87.852"/>
    <polygon class="cls-27" points="66.427 87.516 65.528 87.529 65.496 87.402 66.395 87.389 66.427 87.516 66.427 87.516"/>
    <polygon class="cls-27" points="67.655 87.499 66.756 87.511 66.724 87.385 67.623 87.372 67.655 87.499 67.655 87.499"/>
    <polygon class="cls-27" points="65.346 88.761 64.115 88.778 64.083 88.651 65.313 88.634 65.346 88.761 65.346 88.761"/>
    <polygon class="cls-27" points="66.256 88.748 65.569 88.758 65.537 88.631 66.224 88.621 66.256 88.748 66.256 88.748"/>
    <polygon class="cls-27" points="67.622 88.729 66.568 88.744 66.536 88.617 67.59 88.602 67.622 88.729 67.622 88.729"/>
    <polygon class="cls-27" points="65.657 89.09 64.2 89.111 64.168 88.984 65.625 88.964 65.657 89.09 65.657 89.09"/>
    <polygon class="cls-27" points="65.336 89.439 64.288 89.454 64.256 89.328 65.303 89.313 65.336 89.439 65.336 89.439"/>
    <polygon class="cls-27" points="66.539 89.422 65.492 89.437 65.459 89.311 66.507 89.296 66.539 89.422 66.539 89.422"/>
    <polygon class="cls-27" points="67.41 89.41 66.761 89.419 66.728 89.293 67.377 89.284 67.41 89.41 67.41 89.41"/>
    <polygon class="cls-27" points="66.826 89.074 65.927 89.087 65.895 88.96 66.794 88.947 66.826 89.074 66.826 89.074"/>
    <polygon class="cls-27" points="68.054 89.057 67.155 89.069 67.123 88.943 68.022 88.93 68.054 89.057 68.054 89.057"/>
    <polygon class="cls-27" points="65.816 90.682 64.586 90.699 64.553 90.573 65.784 90.555 65.816 90.682 65.816 90.682"/>
    <polygon class="cls-27" points="66.727 90.669 66.04 90.679 66.007 90.552 66.695 90.542 66.727 90.669 66.727 90.669"/>
    <polygon class="cls-27" points="68.093 90.65 67.039 90.664 67.007 90.538 68.061 90.523 68.093 90.65 68.093 90.65"/>
    <polygon class="cls-27" points="66.128 91.011 64.671 91.032 64.639 90.905 66.096 90.885 66.128 91.011 66.128 91.011"/>
    <polygon class="cls-27" points="65.807 91.36 64.759 91.375 64.726 91.249 65.774 91.234 65.807 91.36 65.807 91.36"/>
    <polygon class="cls-27" points="67.01 91.343 65.962 91.358 65.93 91.232 66.977 91.217 67.01 91.343 67.01 91.343"/>
    <polygon class="cls-27" points="67.881 91.331 67.231 91.34 67.199 91.214 67.848 91.205 67.881 91.331 67.881 91.331"/>
    <polygon class="cls-27" points="67.297 90.995 66.398 91.008 66.366 90.881 67.265 90.869 67.297 90.995 67.297 90.995"/>
    <polygon class="cls-27" points="68.525 90.978 67.626 90.991 67.594 90.864 68.492 90.851 68.525 90.978 68.525 90.978"/>
    <polygon class="cls-27" points="66.288 92.48 65.057 92.497 65.025 92.371 66.256 92.353 66.288 92.48 66.288 92.48"/>
    <polygon class="cls-27" points="67.199 92.467 66.512 92.477 66.479 92.35 67.166 92.34 67.199 92.467 67.199 92.467"/>
    <polygon class="cls-27" points="68.565 92.448 67.511 92.462 67.478 92.336 68.532 92.322 68.565 92.448 68.565 92.448"/>
    <polygon class="cls-27" points="66.6 92.81 65.143 92.83 65.11 92.704 66.567 92.683 66.6 92.81 66.6 92.81"/>
    <polygon class="cls-27" points="66.278 93.158 65.231 93.174 65.198 93.047 66.246 93.032 66.278 93.158 66.278 93.158"/>
    <polygon class="cls-27" points="67.482 93.142 66.434 93.157 66.402 93.03 67.449 93.015 67.482 93.142 67.482 93.142"/>
    <polygon class="cls-27" points="68.352 93.13 67.703 93.139 67.671 93.012 68.32 93.003 68.352 93.13 68.352 93.13"/>
    <polygon class="cls-27" points="67.769 92.793 66.87 92.806 66.837 92.679 67.736 92.667 67.769 92.793 67.769 92.793"/>
    <polygon class="cls-27" points="68.997 92.776 68.098 92.789 68.065 92.662 68.964 92.649 68.997 92.776 68.997 92.776"/>
    <path class="cls-39" d="M81.64235,132.55454s-.21068,3.28257-.84592,3.3283c-.08449.00628-3.22149-.00089-3.22149-.00089l-4.00446-.03139a1.29987,1.29987,0,0,1,1.1993-1.16684,5.42729,5.42729,0,0,0,3.84446-2.56506c.74942-1.626,3.02811.43588,3.02811.43588Z"/>
    <path class="cls-28" d="M93.1046,105.55412c.15336.12915,4.23145,4.54805,3.89872,7.94182a1.95819,1.95819,0,0,1-1.95789,1.74711H90.07675s-5.06906.90585-5.19,2.00094c-.1209,1.096-1.15823,7.001-3.21387,15.39216a4.37354,4.37354,0,0,1-2.43366.14978c-1.215-.49328-1.39142-1.01526-1.39142-1.01526s1.22522-18.79133,2.19259-20.11332c.96738-1.32289,10.93318-5.25389,14.16014-5.64583,3.227-.391-1.096-.4574-1.096-.4574Z"/>
    <path class="cls-40" d="M64.29284,100.86705s-2.88246-.67-3.61978,0a3.63491,3.63491,0,0,0-.972,1.64217h4.59181v-1.64217Z"/>
    <path class="cls-28" d="M74.62377,132.55454s-.21068,3.28257-.84594,3.3283c-.08448.00628-3.22148-.00089-3.22148-.00089l-4.00446-.03139a1.3,1.3,0,0,1,1.19939-1.16684,5.42713,5.42713,0,0,0,3.84437-2.56506c.74952-1.626,3.02812.43588,3.02812.43588Z"/>
    <path class="cls-41" d="M96.87236,105.55412a27.22032,27.22032,0,0,1,1.58837,5.17049,3.72186,3.72186,0,0,1-3.63413,4.51844H83.26911s-5.06932.90585-5.19022,2.00094c-.12089,1.096-1.15823,7.001-3.21395,15.39216a4.84076,4.84076,0,0,1-2.70686-.10761,3.35372,3.35372,0,0,1-1.12917-.91751s1.23626-18.63169,2.20363-19.95368c.96737-1.32289,10.93309-5.25389,14.15986-5.64583,3.227-.391,9.48-.4574,9.48-.4574Z"/>
    <path class="cls-40" d="M90.46689,88.75511l-1.78738,1.71537-3.04534.00089c-.00341-.24485.00682-1.26567.01739-2.19107.001-.05444.002-.10879.00234-.16233.00233-.20538.00519-.40368.00735-.58432.0061-.50986.01121-.87929.01121-.87929l.78279-.53534,1.73941-1.19079.94055-.643c.00053.01579.07785.85706.0896.9793a7.13187,7.13187,0,0,0,1.24208,3.49055Z"/>
    <path class="cls-42" d="M86.0392,88.44551c.05811-.0244,3.35305-1.50253,3.738-1.37527.38566.12727.86638,1.30415.86638,1.30415l-5.80224,1.31168a2.88186,2.88186,0,0,1,1.19787-1.24056Z"/>
    <path class="cls-27" d="M100.29125,98.31992a14.85733,14.85733,0,0,0-4.41262-7.85483c-.76145-1.14539-5.23506-2.0907-5.23506-2.0907s-3.70624.83786-5.80224,1.31168A7.39346,7.39346,0,0,0,79.727,93.09114c-1.14038,1.88613-4.40679,6.201-6.55194,6.33462-2.14506.13454-8.88221,1.44129-8.88221,1.44129v1.65742l10.271.28163a1.74191,1.74191,0,0,0,.37381-.02961A30.40929,30.40929,0,0,0,81.4941,100.876c.30082,4.85209.65624,12.26028,2.35071,13.437,1.79241,1.24486,14.39619,1.4108,15.73074-.4861.68342-.97042-.15426-6.71759-1.20091-12.25939a2.89963,2.89963,0,0,0,1.91661-3.24758Z"/>
    <path class="cls-43" d="M88.648,85.94242l-.15523.09632a12.464,12.464,0,0,1-2.83153,1.49491c.0061-.50986.01121-.87929.01121-.87929l.78279-.53534,2.19276-.1766Z"/>
    <path class="cls-40" d="M84.60527,86.68091s4.68564.55436,4.98591-2.369c.29992-2.92327,1.10711-4.82052-1.8716-5.298-2.979-.47751-3.67575.5782-4.01325,1.52952-.33767.95131-.31211,5.918.89894,6.1375Z"/>
    <path class="cls-28" d="M83.83028,80.244s.8845,3.17125,1.52513,2.90686c.64056-.26449,1.22594-.48118,1.30981.50888s-.63113,2.28506,1.4558,2.07323c2.08667-.21185,4.05082-6.0628,3.29924-6.96075-2.16927-2.59081-10.60357-1.6203-7.59,1.47178Z"/>
    <path class="cls-44" d="M80.51184,115.87176h23.17767a1.5944,1.5944,0,0,0,1.59375-1.59463v-1.0359H80.51184v2.63053Z"/>
    <path class="cls-45" d="M77.7344,115.87176H95.26875a1.17969,1.17969,0,0,0,1.17941-1.17938v-.27265a1.17893,1.17893,0,0,0-1.17941-1.1785H77.7344a1.17833,1.17833,0,0,0-1.17858,1.1785v.27265a1.17909,1.17909,0,0,0,1.17858,1.17938Z"/>
    <polygon class="cls-41" points="92.332 134.895 93.827 134.895 94.247 115.872 91.963 115.872 92.332 134.895 92.332 134.895"/>
    <polygon class="cls-41" points="85.835 134.895 100.375 134.895 100.375 133.582 92.965 132.914 85.835 133.582 85.835 134.895 85.835 134.895"/>
    <path class="cls-41" d="M101.78724,134.6891a1.196,1.196,0,1,0-1.19554,1.19643,1.19576,1.19576,0,0,0,1.19554-1.19643Z"/>
    <path class="cls-41" d="M87.24755,134.6891a1.196,1.196,0,1,0-1.19607,1.19643,1.19587,1.19587,0,0,0,1.19607-1.19643Z"/>
    <path class="cls-41" d="M86.35615,117.11932H99.85358a1.248,1.248,0,0,0,1.24845-1.24756h-15.994a1.248,1.248,0,0,0,1.24809,1.24756Z"/>
    <path class="cls-45" d="M102.99354,115.87176a1.13854,1.13854,0,0,0,1.13814-1.13812V97.215c0-3.28257-2.14622-5.94361-4.79381-5.94361H88.49753c-2.64748,0-4.7937,2.661-4.7937,5.94361v18.65678Z"/>
    <path class="cls-46" d="M103.20789,115.87176a2.07611,2.07611,0,0,0,2.07537-2.07626V97.215c0-3.28257-2.14623-5.94361-4.7938-5.94361H89.6492c-2.64748,0-4.7937,2.661-4.7937,5.94361v18.65678Z"/>
    <polygon class="cls-47" points="63.787 136.167 55.378 136.167 55.378 110.298 63.787 110.298 63.787 136.167 63.787 136.167"/>
    <polygon class="cls-41" points="56.07 136.167 43.702 136.167 43.702 110.298 56.07 110.298 56.07 136.167 56.07 136.167"/>
    <polygon class="cls-41" points="63.787 115.251 56.07 115.251 56.07 114.995 63.787 114.995 63.787 115.251 63.787 115.251"/>
    <polygon class="cls-41" points="63.787 120.782 56.07 120.782 56.07 120.526 63.787 120.526 63.787 120.782 63.787 120.782"/>
    <polygon class="cls-41" points="63.787 126.313 56.07 126.313 56.07 126.057 63.787 126.057 63.787 126.313 63.787 126.313"/>
    <polygon class="cls-41" points="63.787 131.844 56.07 131.844 56.07 131.588 63.787 131.588 63.787 131.844 63.787 131.844"/>
    <path class="cls-41" d="M56.587,111.00443a.20377.20377,0,1,1,.20377.20448.20388.20388,0,0,1-.20377-.20448Z"/>
    <path class="cls-27" d="M57.69956,111.00443a.20377.20377,0,1,1,.20377.20448.20388.20388,0,0,1-.20377-.20448Z"/>
    <path class="cls-35" d="M58.81213,111.00443a.20377.20377,0,1,1,.20377.20448.20388.20388,0,0,1-.20377-.20448Z"/>
    <path class="cls-27" d="M59.92471,111.00443a.20377.20377,0,1,1,.20376.20448.20388.20388,0,0,1-.20376-.20448Z"/>
    <path class="cls-41" d="M56.587,121.79653a.20377.20377,0,1,1,.20377.20359.20332.20332,0,0,1-.20377-.20359Z"/>
    <path class="cls-27" d="M57.69956,121.79653a.20377.20377,0,1,1,.20377.20359.20331.20331,0,0,1-.20377-.20359Z"/>
    <path class="cls-35" d="M58.81213,121.79653a.20377.20377,0,1,1,.20377.20359.20331.20331,0,0,1-.20377-.20359Z"/>
    <path class="cls-27" d="M59.92471,121.79653a.20377.20377,0,1,1,.20376.20359.20331.20331,0,0,1-.20376-.20359Z"/>
    <path class="cls-41" d="M56.587,128.019a.20377.20377,0,1,1,.20377.20359.20389.20389,0,0,1-.20377-.20359Z"/>
    <path class="cls-27" d="M57.69956,128.019a.20377.20377,0,1,1,.20377.20359.20388.20388,0,0,1-.20377-.20359Z"/>
    <path class="cls-35" d="M58.81213,128.019a.20377.20377,0,1,1,.20377.20359.20388.20388,0,0,1-.20377-.20359Z"/>
    <path class="cls-27" d="M59.92471,128.019a.20377.20377,0,1,1,.20376.20359.20388.20388,0,0,1-.20376-.20359Z"/>
    <polygon class="cls-28" points="54.889 112.239 44.75 112.239 44.75 111.977 54.889 111.977 54.889 112.239 54.889 112.239"/>
    <polygon class="cls-28" points="54.889 113.022 44.75 113.022 44.75 112.761 54.889 112.761 54.889 113.022 54.889 113.022"/>
    <polygon class="cls-28" points="54.889 113.898 44.75 113.898 44.75 113.636 54.889 113.636 54.889 113.898 54.889 113.898"/>
    <path class="cls-23" d="M37.08865,123.97593s-1.88191-2.19556-.11605-3.59019a5.01743,5.01743,0,0,1,2.34165-.7175s-1.49034,2.4996-1.00817,2.748,1.45993-2.90409,1.45993-2.90409,2.93528-.28521,3.87961.16862c0,0-2.50936,2.05383-1.98085,2.17582.52845.122,3.2389-1.89332,3.2389-1.89332s2.732.46549,2.58631,2.13188-1.087,2.18122-1.50083,2.13636c-.41372-.04394-2.83394-.96773-2.88668-.62871-.05265.339,1.40415,1.44666,2.42434,1.49868,0,0-1.926,2.12381-3.20614,1.51123-1.28012-.61345-1.38945-1.58477-2.1874-1.9498-.79794-.36413-1.47912-.36324-1.14971.00807.32944.3722,1.77367.73364,2.23,1.54083s.86577,1.35159-.45865,1.15248c-1.32441-.2-3.47719-1.16862-3.57172-2.27806l-.09453-1.11033Z"/>
    <path class="cls-23" d="M46.14762,122.14s-7.42028-.2861-9.059,1.83591a5.36746,5.36746,0,0,1-1.47751,2.07358l-.1739.47444s1.28584-1.35608,1.74594-1.43769c0,0-.71956-2.62964,8.96444-2.94624Z"/>
    <path class="cls-23" d="M35.61114,126.04951a4.66143,4.66143,0,0,0-1.70344,3.28256l.28916.026a7.53216,7.53216,0,0,1,1.428-3.02695c.91948-.85114-.01373-.28161-.01373-.28161Z"/>
    <path class="cls-23" d="M30.50873,121.21535s2.99368-1.67716,1.59663-3.95253a5.94787,5.94787,0,0,0-2.31512-1.75608s.63867,3.39288,0,3.4727-.4391-3.83145-.4391-3.83145-3.15334-1.51752-4.39075-1.39732c0,0,1.95591,3.313,1.31725,3.23322s-2.83405-3.43234-2.83405-3.43234-3.23323-.59911-3.75207,1.31662c-.51893,1.91661.31929,2.87448.79831,2.99376.47893.12019,3.55253.07983,3.47269.47893s-2.15545,1.03769-3.31305.67894c0,0,1.27733,3.15341,2.95377,2.99378,1.67653-.15966,2.19537-1.19735,3.23324-1.27717,1.03776-.08071,1.79625.19911,1.27723.47894-.51884.27893-2.27519.09148-3.11341.8036-.83821.713-1.51679,1.15158.03992,1.47087s4.35091.12018,4.90967-1.07714l.55884-1.19733Z"/>
    <path class="cls-23" d="M21.1684,115.46728s8.38228,2.71393,9.34033,5.74807a6.3642,6.3642,0,0,0,.79832,2.913v.5991a8.71082,8.71082,0,0,0-1.35716-2.31482s1.87609-2.635-8.78149-6.9454Z"/>
    <path class="cls-23" d="M31.30705,124.1284a5.52892,5.52892,0,0,1,.55569,4.35253l-.33256-.08878s.32287-2.63234-.35346-3.95613c-.67632-1.32289.13033-.30762.13033-.30762Z"/>
    <path class="cls-48" d="M35.27149,118.9032s-3.94625-2.2099-2.1047-5.209a7.83377,7.83377,0,0,1,3.0518-2.31574s-.8419,4.47272,0,4.57765c.84181.10583.57876-5.0512.57876-5.0512s4.15674-1.99913,5.7878-1.84127c0,0-2.57816,4.36687-1.73626,4.262.84181-.105,3.73576-4.52475,3.73576-4.52475s4.26195-.78924,4.94591,1.73636c.684,2.5256-.42092,3.7884-1.05232,3.94624s-4.68284.10494-4.57764.6314c.10521.52558,2.8413,1.36774,4.36716.89419,0,0-1.68372,4.157-3.89361,3.94625s-2.89387-1.5785-4.26195-1.68344c-1.368-.10583-2.36775.26279-1.6837.6314.684.36773,2.99914.12019,4.104,1.0601,1.105.939,1.99949,1.51752-.05255,1.939-2.052.42064-5.73525.15785-6.47185-1.42064l-.73661-1.57851Z"/>
    <path class="cls-48" d="M47.5838,111.3264s-11.0495,3.57764-12.31231,7.5768a8.393,8.393,0,0,1-1.05239,3.84042v.78925s1.15759-2.68345,1.789-3.05116c0,0-2.473-3.47271,11.5757-9.15531Z"/>
    <path class="cls-48" d="M34.2191,122.74362a7.28742,7.28742,0,0,0-.73257,5.73731l.4384-.11749s-.42548-3.46911.466-5.21443c.8915-1.74442-.17184-.40539-.17184-.40539Z"/>
    <path class="cls-49" d="M35.13849,135.31243a7.7302,7.7302,0,0,0,7.73008-7.73017H27.40841a7.7302,7.7302,0,0,0,7.73008,7.73017Z"/>
    <path class="cls-23" d="M42.9753,135.70526H27.30168a.95353.95353,0,0,1,.95365-.95338H42.02164a.95353.95353,0,0,1,.95366.95338Z"/>
    <polygon class="cls-50" points="43.044 127.819 27.154 127.819 27.154 127.582 43.044 127.582 43.044 127.819 43.044 127.819"/>
    <polygon class="cls-51" points="113.233 106.407 117.042 124.119 120.71 123.33 116.901 105.619 113.233 106.407 113.233 106.407"/>
    <path class="cls-23" d="M116.90317,105.61869c.05113.23678-.72826.60629-1.74083.82423-1.01347.217-1.87537.2018-1.92648-.03587s.72826-.60629,1.74172-.82424c1.01257-.21793,1.87447-.20179,1.92559.03588Z"/>
    <polygon class="cls-52" points="119.07 106.896 124.566 124.158 128.141 123.02 122.645 105.758 119.07 106.896 119.07 106.896"/>
    <path class="cls-52" d="M122.64855,105.76039c.08521.27-.64485.74352-1.6323,1.05743-.98657.3148-1.85654.35067-1.94263.08072s.64484-.74352,1.63141-1.05832c.98746-.31391,1.85743-.34979,1.94352-.07983Z"/>
    <polygon class="cls-23" points="138.172 112.457 133.111 129.853 135.466 130.538 140.527 113.143 138.172 112.457 138.172 112.457"/>
    <path class="cls-50" d="M140.52687,113.14705c-.07894.27177-.67.339-1.32021.1498-.65113-.18925-1.11392-.56325-1.035-.835.07894-.27266.67086-.339,1.3211-.14978s1.11392.56233,1.03411.835Z"/>
    <polygon class="cls-45" points="119.411 109.279 119.066 128.119 121.543 128.164 121.886 109.325 119.411 109.279 119.411 109.279"/>
    <path class="cls-21" d="M121.89518,109.34431c-.00448.24575-.56235.435-1.24576.42243-.68431-.01256-1.235-.22152-1.23051-.46727s.56234-.435,1.24665-.42243c.68342.01255,1.23411.22242,1.22962.46727Z"/>
    <polygon class="cls-45" points="133.489 115.059 131.844 129.972 134.21 130.233 135.856 115.32 133.489 115.059 133.489 115.059"/>
    <path class="cls-21" d="M135.86221,115.33723c-.02152.19463-.56862.29328-1.22154.22152-.65381-.07174-1.16593-.28789-1.14441-.48251s.56863-.29328,1.22154-.22153c.65382.07265,1.16593.28789,1.14441.48252Z"/>
    <polygon class="cls-53" points="141.342 135.891 122.597 135.891 122.597 120.435 141.342 120.435 141.342 135.891 141.342 135.891"/>
    <polygon class="cls-21" points="131.97 135.891 113.224 135.891 113.224 120.435 131.97 120.435 131.97 135.891 131.97 135.891"/>
    <polygon class="cls-54" points="141.331 131.972 138.361 131.972 138.623 131.136 138.361 130.538 141.331 130.538 141.331 131.972 141.331 131.972"/>
    <polygon class="cls-40" points="131.97 125.218 128.999 125.218 129.261 124.382 128.999 123.785 131.97 123.785 131.97 125.218 131.97 125.218"/>
    <polygon class="cls-54" points="131.97 123.785 134.94 123.785 134.678 124.621 134.94 125.218 131.97 125.218 131.97 123.785 131.97 123.785"/>
    <polygon class="cls-40" points="113.224 132.137 116.195 132.137 115.933 132.973 116.195 133.571 113.224 133.571 113.224 132.137 113.224 132.137"/>
    <polygon class="cls-55" points="114.452 123.581 119.846 123.581 119.846 121.483 114.452 121.483 114.452 123.581 114.452 123.581"/>
    <path class="cls-28" d="M185.211,74.56153a2.64762,2.64762,0,0,0-2.10229.10807c-3.57672.14691-3.948,4.40465-3.67627,5.80593a5.92551,5.92551,0,0,1-.6027,4.96876c-3.687,6.00826,5.836,4.73021,5.836,4.73021-.59287-4.23648,4.71575-3.50184,4.56239-3.03852,6.73911.52378-1.19195-11.63641-4.01711-12.57445Z"/>
    <path class="cls-27" d="M181.5015,92.85258a9.42027,9.42027,0,0,1-.95607,1.44666c-.74352.93005-4.64313-1.27895-4.3068-1.44666s2.29511-5.813,2.76147-6.52235c.46728-.70933,2.05745-1.07777,2.05745-1.07777l.444,7.60012Z"/>
    <path class="cls-41" d="M194.66046,130.92671s1.07625.98208.86637,1.67986-1.1812,1.16324-1.31214,2.01617c-.13182.85293-.65652,1.31839-1.12915,1.31839h-2.253s-.3471-.6.4924-.78117c.84036-.18116,1.15694-1.183,1.10406-2.11394a16.48652,16.48652,0,0,1,.07892-2.17133l1.78477-.41346.36773.46548Z"/>
    <path class="cls-41" d="M185.55089,131.34376s.38744,4.1606-.08522,4.39378L179.419,135.725s0-.69778.97129-.85293,2.6772-.72378,2.966-1.99017c.2888-1.26729,2.19467-1.53814,2.19467-1.53814Z"/>
    <path class="cls-40" d="M189.86038,101.49217c-1.24487-2.79108-2.00632-3.592-1.86014-4.45836.10764-.64486-.33-12.01956-.33-12.01956-.14708-.04574-.443-.08673-.60539-.1227a1.518,1.518,0,0,1-1.10855-.96423,7.74881,7.74881,0,0,1-.37668-2.56649l-.15873.03139-2.68077.53068s.061.84351.06277,1.63805v.01982a1.54114,1.54114,0,0,1-1.11212,1.4906c-.33812.09776-.63318.18126-.63318.18126a24.59752,24.59752,0,0,0-1.17223,5.69588c-.18745,2.887,1.79017,4.14086-.01435,9.90957-1.84307,5.89068,10.67641,2.17583,9.98941.63409Z"/>
    <path class="cls-56" d="M182.74008,81.9229s.061.84351.06277,1.63814a3.17941,3.17941,0,0,0,2.618-2.16882l-2.68077.53068Z"/>
    <path class="cls-40" d="M182.57863,83.04354s3.51395-.50045,3.16777-2.68363c-.3453-2.18326-.12375-3.71826-2.3821-3.49109-2.25742.22718-2.56057,1.12909-2.62246,1.88587s.91393,4.36275,1.83679,4.28885Z"/>
    <path class="cls-28" d="M181.7598,77.06963s1.36772,2.40811,2.90048,2.55216a2.93581,2.93581,0,0,0,2.10855-.35221,4.22016,4.22016,0,0,1-1.75606-2.24622s-2.72292-1.28792-3.253.04627Z"/>
    <path class="cls-28" d="M182.03065,77.23959a2.2,2.2,0,0,0-.87894.94495,3.57074,3.57074,0,0,0-.15426,2.07941s-1.00091-1.6255-.3453-2.73959c.69508-1.18137,1.3785-.28477,1.3785-.28477Z"/>
    <path class="cls-27" d="M190.203,90.04625a24.19026,24.19026,0,0,1,0,2.79467,8.08677,8.08677,0,0,1-1.22782,2.69869c-.36324.84037-.774.9767-.774.9767l-3.17493.77848-1.1166.27355-3.52024-1.052s-1.60361-4.47541-.95965-6.99482a19.36325,19.36325,0,0,1,1.62783-4.269s2.87268,2.81277,6.61265-.23849l2.53277,5.03228Z"/>
    <path class="cls-57" d="M190.50523,92.8768c-.06011,1.00986-1.38477,2.32828-1.53008,2.66281-.36324.84037-.774.9767-.774.9767l-3.17493.77848-.84662-1.19463s5.13995-1.42962,4.166-5.96063l2.15968,2.73727Z"/>
    <path class="cls-58" d="M180.61359,97.19613a52.2535,52.2535,0,0,0-1.85565,7.27365c-.1121,1.84758,3.3328,26.24616,3.47091,27.09819.131.80181,1.12737,1.31393,1.12737,1.31393a1.50829,1.50829,0,0,0,1.11214.08521,2.75508,2.75508,0,0,0,1.19464-.56324s1.357-17.40117.51748-23.61652a98.37988,98.37988,0,0,1-.85024-11.59122Z"/>
    <path class="cls-45" d="M188.00024,97.03381s2.65925,3.56865,2.90679,5.98036c.24843,2.41259.38923,10.88447.9175,13.23609s2.4682,6.87722,2.4682,14.211a1.46094,1.46094,0,0,1-.82422.644,6.70732,6.70732,0,0,1-.72558.20089,1.14006,1.14006,0,0,1-1.27444-.60539c-1.31216-2.6413-5.49158-11.16162-5.706-12.93025-.15157-1.25113-1.47087-9.53467-4.34894-14.39484-.69149-1.16683.42332-5.80727.42332-5.80727l6.16332-.53453Z"/>
    <path class="cls-55" d="M183.05668,81.63868s-.01973.26691-.66549.32924c0,0-.54262.05237-.57131-.233a1.7498,1.7498,0,0,1,1.2368-.09624Z"/>
    <path class="cls-59" d="M180.33465,96.35846a3.65764,3.65764,0,0,0,2.09062.58117c1.661.03318,5.77587-.42332,5.77587-.42332a3.40966,3.40966,0,0,1,.1758,1.05023s-5.0261,1.26819-7.93824.18567a1.84139,1.84139,0,0,1-.10405-1.39375Z"/>
    <path class="cls-55" d="M182.02705,96.90645a.6168.6168,0,1,0,.50584.60628.564.564,0,0,0-.50584-.60628Zm0,1.46459a.86445.86445,0,1,1,.75788-.85831.81351.81351,0,0,1-.75788.85831Z"/>
    <polygon class="cls-23" points="185.658 99.931 178.103 100.002 174.387 91.266 181.94 91.195 185.658 99.931 185.658 99.931"/>
    <path class="cls-40" d="M184.67015,95.98356l-.55426-.68072a1.94377,1.94377,0,0,0-.64666-.391c-.27176-.0565-.84574-.38745-.90136-.29418s.44127.75877.44127.75877l.02511.00357c-.57041.42871-2.0108.05024-2.18838.22512-.21525.21256.29687.67086.57132.92826a2.01786,2.01786,0,0,0,1.67268.496c.44753-.139,1.15157-.28162,1.15157-.28162l.42871-.76414Z"/>
    <path class="cls-40" d="M174.9543,92.80234s.47535-.539.77759-.27981c.30135.2583-.07982,1.53184-.36681,1.40181-.28791-.12915-.57579-.96324-.41078-1.122Z"/>
    <path class="cls-27" d="M187.6702,85.014a4.29716,4.29716,0,0,1,3.48526,2.52381,63.77621,63.77621,0,0,1,2.7561,8.01528c0,.6628-1.97672,3.10139-9.71227,1.21617,0,0-.26367-.74261.25383-1.11751,0,0,5.392-1.731,5.383-2.07537-.01706-.652-.72917-1.21437-3.74088-4.22777-.81884-.81921,1.57492-4.33461,1.57492-4.33461Z"/>
    <path class="cls-40" d="M223.9452,94.72166a4.32579,4.32579,0,0,0-1.80809-.68521c-.75429.06726-1.37223.09507-1.37312.296-.0009.74082.79194.46727,1.08969.87624.38925.53544,1.27448.40091,1.44308.41974a2.93849,2.93849,0,0,1,.55606.19373l.09238-1.10047Z"/>
    <path class="cls-60" d="M238.81808,83.38516s5.42069,8.96695,4.57676,10.66921a4.5061,4.5061,0,0,1-2.9032,2.11844l-1.67356-12.78765Z"/>
    <path class="cls-28" d="M236.03418,133.30881a7.80361,7.80361,0,0,1-.50493,2.51932h-5.82791a1.03714,1.03714,0,0,1,.931-.83319,4.26379,4.26379,0,0,0,3.01885-2.02335c.58656-1.28075,2.383.33722,2.383.33722Z"/>
    <path class="cls-61" d="M246.37515,133.0245s.50222,2.6996.00359,2.74534c-.06636.00627-2.44306.02959-3.07808.12466a13.34362,13.34362,0,0,1-2.92023-.12466c-.217.009-.278-.26907-.1677-.45562a1.105,1.105,0,0,1,.791-.50852,4.26759,4.26759,0,0,0,2.9839-2.07716c.56414-1.28971,2.38749.296,2.38749.296Z"/>
    <path class="cls-28" d="M233.29422,106.16848a104.02614,104.02614,0,0,0,5.66468,14.0316c4.19915,8.90328,4.11216,13.51681,4.11216,13.51681h3.52831s-.49595-11.28986-2.47989-15.78321c-1.98386-4.49334-2.38745-16.7886-2.38745-16.7886l-8.43781,5.0234Z"/>
    <path class="cls-41" d="M230.94172,101.75765a127.92582,127.92582,0,0,0,1.25652,17.68727c1.374,9.74813.67,14.272.67,14.272h3.5346s1.95965-10.02886,1.39641-14.90786c-.56413-4.879,2.69242-16.742,2.69242-16.742l-9.54992-.30942Z"/>
    <path class="cls-40" d="M237.7239,82.81206l-1.026,1.6358-2.26014.37777c-.04574-.20171-.217-1.04495-.3713-1.809-.009-.04511-.01793-.09031-.02691-.13426-.13-.65041-.24215-1.20934-.24215-1.20934l1.57043-1.73554.58476-.64711c.00359.01355.20806.69715.23859.79679a6.70651,6.70651,0,0,0,1.53274,2.72489Z"/>
    <path class="cls-45" d="M241.87821,102.737c.03768-2.09063-1.20719-13.59509-1.59287-15.24114-.68247-2.91286-1.29506-4.57558-2.59371-4.95784a11.99918,11.99918,0,0,0-3.52475.68944,2.26174,2.26174,0,0,0-.26276.09175,2.658,2.658,0,0,0-.84576.539,2.69573,2.69573,0,0,0-.74172,1.19957c-.19731.66262-.42422,1.51241-.60719,2.44892a17.713,17.713,0,0,0-.36142,3.22382c-.01167,1.13455-.16505,2.80991-.33815,4.57136q-.02958.29465-.05918.59016c-.01347.13631-.2305,4.63056-.29416,5.836l-.00271.04753v.00448c-.0009.01795-.0018.035-.00359.05114-.00539.10761-.00894.17308-.01075.18833-.14082,1.41617,11.19567,3.09242,11.23872.7175Z"/>
    <path class="cls-62" d="M236.05662,80.1748c-.10764.98719-1.426,2.32075-1.99018,2.84183-.009-.04511-.01793-.09031-.02691-.13426-.13-.65041-.24215-1.20934-.24215-1.20934l1.57043-1.73554c.42781-.17544.73364-.16925.68881.23731Z"/>
    <path class="cls-40" d="M232.80543,81.92989s3.94807-.27973,3.73637-2.73592c-.21257-2.45626.15429-4.14661-2.37582-4.07181-2.52918.07471-2.93816,1.05419-3.06641,1.89124-.12914.83706.67266,4.92591,1.70586,4.91649Z"/>
    <path class="cls-28" d="M231.15429,76.74712s1.22782,2.47448,1.71392,2.15582.93458-.58924,1.15967.21354c.22422.8027.30493,1.95089,1.99106,1.44827,1.687-.50252,1.9202-5.6017,1.15965-6.2234-2.19554-1.79411-8.99386.33139-6.0243,2.40577Z"/>
    <path class="cls-60" d="M230.65024,101.8312c8.41538-.43858,6.69428-9.77415,6.69428-9.77415l-6.33464,3.24488q-.02958.29465-.05918.59016c-.01347.13631-.2305,4.63056-.29416,5.836a.16627.16627,0,0,1-.00271.04753v.00448c-.0009.01795-.0018.035-.00359.05114Z"/>
    <path class="cls-20" d="M216.833,90.29378a.06413.06413,0,1,1-.0009.12826.06414.06414,0,0,1,.0009-.12826Z"/>
    <path class="cls-45" d="M223.98466,94.51986s7.993-.66638,8.55709-.94082c.90049-.43767.28969-7.32433.28969-7.32433s-.69238-1.03266,1.01707-1.37778a4.11285,4.11285,0,0,1,2.91751.81267,3.35225,3.35225,0,0,1,1.13636,2.45941c-.36863,2.86677-.94262,8.69734-2.86015,9.59153-2.47356,1.15249-11.48895-1.79734-11.48895-1.79734a2.30631,2.30631,0,0,1,.12106-.92467,2.25007,2.25007,0,0,1,.31032-.49867Z"/>
    <path class="cls-60" d="M233.79558,82.59842a21.2727,21.2727,0,0,1,3.37675-.79867c.32645.10763.5193.73849.5193.73849l-4.63417,1.31993s.11121-.99561.73812-1.25975Z"/>
    <path class="cls-40" d="M223.443,94.4508s-.51837-.5444-.6529-.7148c-.13366-.17041-.14982.01256-.12919.1139.01975.10135.174.357.10944.41346-.06547.05651.55875.40269.67265.18744Z"/>
    <path class="cls-63" d="M278.50929,136.58957H13.71949a.33017.33017,0,0,1-.32942-.32915v-.18655a.33018.33018,0,0,1,.32942-.32914h264.7898a.32994.32994,0,0,1,.32915.32914v.18655a.32993.32993,0,0,1-.32915.32915Z"/>
  </g>
</svg>
