<svg id="Layer_1" data-name="Layer 1" xmlns="http://www.w3.org/2000/svg" width="287" height="180" viewBox="0 0 287 180">
  <defs>
    <style>
      .cls-1 {
        fill: #ecf0ff;
      }

      .cls-2 {
        fill: #fbe0b2;
      }

      .cls-3 {
        fill: #5727cf;
      }

      .cls-4 {
        fill: #fff;
      }

      .cls-5 {
        fill: #c4bcfb;
      }

      .cls-6 {
        fill: #4e1fca;
      }

      .cls-7 {
        fill: #9d85f8;
      }

      .cls-8 {
        fill: #fdc10f;
      }

      .cls-9 {
        fill: #f07805;
      }

      .cls-10 {
        fill: #c94a04;
      }

      .cls-11 {
        fill: #9c2902;
      }

      .cls-12 {
        fill: #5f49e1;
      }

      .cls-13 {
        fill: #f89809;
      }
    </style>
  </defs>
  <g>
    <path class="cls-1" d="M89.03659,101.87409a8.11665,8.11665,0,1,1,8.12268-8.11694,8.11757,8.11757,0,0,1-8.12268,8.11694ZM102.781,91.61039l.43681-.59638a2.37092,2.37092,0,0,0,.13949-2.58587c-1.04412-1.80925-1.49813-2.59448-2.54225-4.40373a2.371,2.371,0,0,0-2.30978-1.17211l-.73414.07979a3.6341,3.6341,0,0,1-3.71894-2.14734l-.29791-.675a2.36984,2.36984,0,0,0-2.16915-1.41433H86.49893a2.36983,2.36983,0,0,0-2.16914,1.41433l-.29791.675a3.63411,3.63411,0,0,1-3.71894,2.14734l-.73415-.07979A2.371,2.371,0,0,0,77.269,84.02441c-1.0441,1.80925-1.49813,2.59448-2.54224,4.40373a2.37092,2.37092,0,0,0,.13949,2.58587l.43681.59638a3.63559,3.63559,0,0,1,0,4.29411l-.43624.59637a2.36988,2.36988,0,0,0-.14006,2.58587c1.04411,1.80868,1.49814,2.59448,2.54224,4.40373a2.37093,2.37093,0,0,0,2.30978,1.17211l.73415-.07978a3.63369,3.63369,0,0,1,3.71894,2.14676l.29791.67559a2.37076,2.37076,0,0,0,2.16914,1.41435h5.08622a2.37077,2.37077,0,0,0,2.16915-1.41435l.29791-.67559a3.63368,3.63368,0,0,1,3.71894-2.14676l.73414.07978a2.37092,2.37092,0,0,0,2.30978-1.17211c1.04412-1.80925,1.49813-2.59505,2.54225-4.40373a2.37093,2.37093,0,0,0-.13949-2.58587l-.43681-.59637a3.63559,3.63559,0,0,1,0-4.29411Z"/>
    <path class="cls-1" d="M52.93365,36.26349a5.81827,5.81827,0,1,1,5.82272-5.81837,5.81861,5.81861,0,0,1-5.82272,5.81837Zm9.8522-7.35743.31283-.42734a1.69936,1.69936,0,0,0,.10045-1.85379c-.7485-1.29668-1.074-1.85976-1.82245-3.15665a1.69964,1.69964,0,0,0-1.656-.84018l-.52579.05723a2.60572,2.60572,0,0,1-2.666-1.53912l-.21342-.48412a1.69948,1.69948,0,0,0-1.555-1.01384H51.11454a1.69958,1.69958,0,0,0-1.55509,1.01384l-.21341.48412A2.60552,2.60552,0,0,1,46.68,22.68533l-.526-.05723a1.69993,1.69993,0,0,0-1.65582.84018c-.74861,1.29689-1.07384,1.86-1.8225,3.15665a1.69989,1.69989,0,0,0,.10033,1.85379l.31282.42734a2.60615,2.60615,0,0,1,0,3.0783l-.31282.4273a1.7,1.7,0,0,0-.10028,1.85384c.74861,1.29666,1.07384,1.85976,1.82251,3.15665a1.69984,1.69984,0,0,0,1.65576.84016l.526-.05721A2.60553,2.60553,0,0,1,49.346,39.74422l.21341.484a1.69956,1.69956,0,0,0,1.55509,1.01386h3.64587a1.69946,1.69946,0,0,0,1.555-1.01386l.21342-.484a2.60573,2.60573,0,0,1,2.666-1.53912l.52635.05721a1.69934,1.69934,0,0,0,1.65543-.84016c.74849-1.29689,1.07395-1.86,1.82245-3.1567a1.69937,1.69937,0,0,0-.10045-1.85379l-.31283-.4273a2.6071,2.6071,0,0,1,0-3.0783Z"/>
    <path class="cls-1" d="M228.4055,36.06229a5.61708,5.61708,0,1,1,5.62119-5.61717,5.61757,5.61757,0,0,1-5.62119,5.61717Zm9.51178-7.103.30191-.41255a1.6414,1.6414,0,0,0,.097-1.78967c-.72269-1.25184-1.03665-1.79553-1.75931-3.04752a1.6416,1.6416,0,0,0-1.59859-.81114l-.508.05529a2.51541,2.51541,0,0,1-2.57382-1.486l-.20608-.4673a1.64075,1.64075,0,0,0-1.501-.97878h-3.52034a1.64084,1.64084,0,0,0-1.501.97878l-.20605.4673a2.51541,2.51541,0,0,1-2.57381,1.486l-.508-.05529a1.6416,1.6416,0,0,0-1.59858.81114c-.72266,1.252-1.03665,1.79568-1.75932,3.04746a1.64149,1.64149,0,0,0,.097,1.78973l.30193.41255a2.51622,2.51622,0,0,1,0,2.97182l-.30193.41259a1.64141,1.64141,0,0,0-.097,1.78968c.72267,1.25182,1.03666,1.79547,1.75932,3.04754a1.64151,1.64151,0,0,0,1.59858.81105l.508-.05521a2.51537,2.51537,0,0,1,2.57381,1.48591l.20605.46736a1.64082,1.64082,0,0,0,1.501.97878h3.52034a1.64073,1.64073,0,0,0,1.501-.97878l.20608-.46736a2.51537,2.51537,0,0,1,2.57382-1.48591l.508.05521a1.64151,1.64151,0,0,0,1.59859-.81105c.72266-1.25207,1.03662-1.79572,1.75931-3.04754a1.64141,1.64141,0,0,0-.097-1.78968l-.30191-.41259a2.51613,2.51613,0,0,1,0-2.97182Z"/>
    <polygon class="cls-2" points="121.419 60.331 121.419 63.403 112.203 59.307 112.203 56.645 121.419 52.549 121.419 55.621 115.582 57.976 121.419 60.331 121.419 60.331"/>
    <polygon class="cls-2" points="122.238 63.403 128.383 49.067 131.864 49.067 125.925 63.403 122.238 63.403 122.238 63.403"/>
    <polygon class="cls-2" points="138.52 57.976 132.683 55.621 132.683 52.549 141.899 56.645 141.899 59.307 132.683 63.403 132.683 60.331 138.52 57.976 138.52 57.976"/>
    <path class="cls-1" d="M105.76467,19.44907h3.68623v10.445a4.27967,4.27967,0,0,1-.97293,3.12327,4.27909,4.27909,0,0,1-3.12314.9728h-4.71024a4.28061,4.28061,0,0,1-3.1237-.9728,4.27963,4.27963,0,0,1-.97237-3.12327v-10.445h3.68624v10.445a1.08629,1.08629,0,0,0,1.22893,1.22883h3.07205a1.08629,1.08629,0,0,0,1.22893-1.22883v-10.445Z"/>
    <polygon class="cls-1" points="120.203 19.449 124.299 19.449 119.691 26.617 124.402 33.785 120.306 33.785 117.438 29.28 114.571 33.785 110.475 33.785 115.185 26.617 110.577 19.449 114.653 19.449 117.438 23.955 120.203 19.449 120.203 19.449"/>
    <path class="cls-1" d="M174.07069,34.94707h3.68622v10.445a4.27966,4.27966,0,0,1-.97293,3.12324,4.27907,4.27907,0,0,1-3.12314.97283h-4.71026a4.28054,4.28054,0,0,1-3.1237-.97283,4.27958,4.27958,0,0,1-.97236-3.12324v-10.445h3.68624v10.445a1.08627,1.08627,0,0,0,1.22892,1.22882h3.07206a1.08629,1.08629,0,0,0,1.229-1.22882v-10.445Z"/>
    <polygon class="cls-1" points="186.973 49.283 179.6 49.283 179.6 46.416 181.444 46.416 181.444 37.814 179.6 37.814 179.6 34.947 186.973 34.947 186.973 37.814 185.13 37.814 185.13 46.416 186.973 46.416 186.973 49.283 186.973 49.283"/>
    <path class="cls-3" d="M78.98126,170.41427H30.3498a11.76217,11.76217,0,0,1-11.76242-11.7624V41.691A11.76239,11.76239,0,0,1,30.3498,29.92858H78.98126A11.76221,11.76221,0,0,1,90.74367,41.691V158.65187a11.762,11.762,0,0,1-11.76241,11.7624Z"/>
    <path class="cls-4" d="M77.94462,168.32607H31.38632a10.62115,10.62115,0,0,1-10.6213-10.6213V42.63821a10.62132,10.62132,0,0,1,10.6213-10.62129h46.5583A10.62108,10.62108,0,0,1,88.5659,42.63821V157.70477a10.62091,10.62091,0,0,1-10.62128,10.6213Z"/>
    <polygon class="cls-5" points="24.872 45.759 45.335 45.759 45.335 40.786 24.872 40.786 24.872 45.759 24.872 45.759"/>
    <polygon class="cls-5" points="50.645 45.759 81.095 45.759 81.095 40.786 50.645 40.786 50.645 45.759 50.645 45.759"/>
    <path class="cls-2" d="M38.30687,149.13151h-2.87a.574.574,0,1,1,0-1.148h2.87a.574.574,0,1,1,0,1.148Zm5.74,0h-2.87a.574.574,0,1,1,0-1.148h2.87a.574.574,0,1,1,0,1.148Zm5.74,0h-2.87a.574.574,0,1,1,0-1.148h2.87a.574.574,0,1,1,0,1.148Zm5.74,0h-2.87a.574.574,0,0,1,0-1.148h2.87a.574.574,0,0,1,0,1.148Zm5.74016,0h-2.87a.574.574,0,1,1,0-1.148h2.87a.574.574,0,1,1,0,1.148Zm5.74,0h-2.87a.574.574,0,1,1,0-1.148h2.87a.574.574,0,1,1,0,1.148Zm5.74,0h-2.87a.574.574,0,1,1,0-1.148h2.87a.574.574,0,1,1,0,1.148Zm-43.04907.039a.574.574,0,0,1-.06694-1.144,6.19765,6.19765,0,0,1,.73042-.043h2.20543a.574.574,0,0,1,0,1.148H30.36145a5.01484,5.01484,0,0,0-.59513.035.54862.54862,0,0,1-.06835.004Zm48.77874.09643a.59917.59917,0,0,1-.12628-.01378,5.009,5.009,0,0,0-1.10036-.12168H75.617a.574.574,0,1,1,0-1.148h1.633a6.19931,6.19931,0,0,1,1.35235.14923.57412.57412,0,0,1-.12571,1.13422Zm-53.19717,3.15815a.56679.56679,0,0,1-.23419-.05051.57384.57384,0,0,1-.28936-.75826,6.16584,6.16584,0,0,1,1.96394-2.43662.57393.57393,0,0,1,.68163.92357,5.01716,5.01716,0,0,0-1.59778,1.982.57462.57462,0,0,1-.52424.3398Zm57.25822.53325a.5736.5736,0,0,1-.54473-.39492,5.00327,5.00327,0,0,0-1.3862-2.13471.574.574,0,0,1,.772-.84951,6.15442,6.15442,0,0,1,1.70477,2.626.57408.57408,0,0,1-.54587.75309ZM25.80269,157.8873a.57258.57258,0,0,1-.47046-.24452,6.12915,6.12915,0,0,1-1.08216-2.93831.574.574,0,0,1,1.143-.10733,4.97651,4.97651,0,0,0,.87913,2.38669.57382.57382,0,0,1-.46947.90347Zm55.65423.45117a.574.574,0,0,1-.43337-.95,4.9773,4.9773,0,0,0,1.12045-2.28337.57416.57416,0,0,1,1.12618.22444,6.13416,6.13416,0,0,1-1.37931,2.81087.573.573,0,0,1-.434.198ZM33.23145,160.2608h-2.87a6.081,6.081,0,0,1-2.64091-.59581.574.574,0,0,1,.49444-1.03607,4.93882,4.93882,0,0,0,2.14647.48388h2.87a.574.574,0,1,1,0,1.148Zm5.74,0h-2.87a.574.574,0,1,1,0-1.148h2.87a.574.574,0,1,1,0,1.148Zm5.74,0h-2.87a.574.574,0,1,1,0-1.148h2.87a.574.574,0,1,1,0,1.148Zm5.74,0h-2.87a.574.574,0,1,1,0-1.148h2.87a.574.574,0,1,1,0,1.148Zm5.74,0h-2.87a.574.574,0,1,1,0-1.148h2.87a.574.574,0,1,1,0,1.148Zm5.74028,0h-2.87a.574.574,0,0,1,0-1.148h2.87a.574.574,0,1,1,0,1.148Zm5.74,0h-2.87a.574.574,0,1,1,0-1.148h2.87a.574.574,0,1,1,0,1.148Zm5.74,0h-2.87a.574.574,0,1,1,0-1.148h2.87a.574.574,0,1,1,0,1.148Zm3.83834,0h-.96834a.574.574,0,1,1,0-1.148h.96834a4.97392,4.97392,0,0,0,1.67264-.287.57389.57389,0,0,1,.38458,1.08143,6.11558,6.11558,0,0,1-2.05722.35358Z"/>
    <path class="cls-5" d="M26.284,144.167H24.849a.57409.57409,0,0,1-.574-.574v-1.435a.574.574,0,1,1,1.148,0v.861h.861a.574.574,0,1,1,0,1.148Z"/>
    <path class="cls-5" d="M32.089,144.167H29.18653a.574.574,0,1,1,0-1.148H32.089a.574.574,0,1,1,0,1.148Zm5.80509,0H34.99156a.574.574,0,0,1,0-1.148h2.90255a.574.574,0,1,1,0,1.148Zm5.80509,0H40.79665a.574.574,0,1,1,0-1.148H43.6992a.574.574,0,1,1,0,1.148Zm5.805,0H46.60169a.574.574,0,1,1,0-1.148h2.90255a.574.574,0,0,1,0,1.148Zm5.805,0h-2.9025a.574.574,0,0,1,0-1.148h2.9025a.574.574,0,1,1,0,1.148Zm5.80509,0H58.21164a.574.574,0,1,1,0-1.148h2.90272a.574.574,0,1,1,0,1.148Zm5.80486,0H64.01708a.574.574,0,1,1,0-1.148h2.90214a.574.574,0,1,1,0,1.148Zm5.80544,0H69.82194a.574.574,0,1,1,0-1.148h2.90272a.574.574,0,0,1,0,1.148Zm5.80486,0H75.62681a.574.574,0,1,1,0-1.148h2.90271a.574.574,0,0,1,0,1.148Z"/>
    <path class="cls-5" d="M82.86724,144.167h-1.435a.574.574,0,1,1,0-1.148h.861v-.861a.574.574,0,1,1,1.148,0v1.435a.57421.57421,0,0,1-.574.574Z"/>
    <path class="cls-5" d="M82.86724,139.9785a.57348.57348,0,0,1-.574-.574v-2.7529a.574.574,0,0,1,1.148,0v2.7529a.57385.57385,0,0,1-.574.574Z"/>
    <path class="cls-5" d="M82.86724,134.4727a.57384.57384,0,0,1-.574-.574v-.861h-.861a.574.574,0,1,1,0-1.148h1.435a.57384.57384,0,0,1,.574.574v1.435a.57421.57421,0,0,1-.574.574Z"/>
    <path class="cls-5" d="M32.089,133.0377H29.18653a.574.574,0,1,1,0-1.148H32.089a.574.574,0,1,1,0,1.148Zm5.80509,0H34.99156a.574.574,0,0,1,0-1.148h2.90255a.574.574,0,1,1,0,1.148Zm5.80509,0H40.79665a.574.574,0,1,1,0-1.148H43.6992a.574.574,0,1,1,0,1.148Zm5.805,0H46.60169a.574.574,0,1,1,0-1.148h2.90255a.574.574,0,0,1,0,1.148Zm5.805,0h-2.9025a.574.574,0,0,1,0-1.148h2.9025a.574.574,0,1,1,0,1.148Zm5.80509,0H58.21164a.574.574,0,1,1,0-1.148h2.90272a.574.574,0,1,1,0,1.148Zm5.80486,0H64.01708a.574.574,0,1,1,0-1.148h2.90214a.574.574,0,1,1,0,1.148Zm5.80544,0H69.82194a.574.574,0,1,1,0-1.148h2.90272a.574.574,0,0,1,0,1.148Zm5.80486,0H75.62681a.574.574,0,1,1,0-1.148h2.90271a.574.574,0,0,1,0,1.148Z"/>
    <path class="cls-5" d="M24.849,134.4727a.57409.57409,0,0,1-.574-.574v-1.435a.57372.57372,0,0,1,.574-.574h1.435a.574.574,0,1,1,0,1.148h-.861v.861a.57411.57411,0,0,1-.574.574Z"/>
    <path class="cls-5" d="M24.849,139.9785a.57373.57373,0,0,1-.574-.574v-2.7529a.574.574,0,1,1,1.148,0v2.7529a.57374.57374,0,0,1-.574.574Z"/>
    <path class="cls-2" d="M38.332,107.02517H29.32136a2.69849,2.69849,0,0,1-2.69838-2.69838V95.31615a2.69848,2.69848,0,0,1,2.69838-2.69838H38.332a2.69852,2.69852,0,0,1,2.69843,2.69838v9.01064a2.69853,2.69853,0,0,1-2.69843,2.69838Z"/>
    <path class="cls-2" d="M58.36432,107.02517H49.354a2.69849,2.69849,0,0,1-2.69838-2.69838V95.31615A2.69848,2.69848,0,0,1,49.354,92.61777h9.01036a2.69822,2.69822,0,0,1,2.69838,2.69838v9.01064a2.69823,2.69823,0,0,1-2.69838,2.69838Z"/>
    <path class="cls-2" d="M78.39693,107.02517H69.38685a2.69872,2.69872,0,0,1-2.69895-2.69838V95.31615a2.69871,2.69871,0,0,1,2.69895-2.69838h9.01008a2.69822,2.69822,0,0,1,2.69837,2.69838v9.01064a2.69822,2.69822,0,0,1-2.69837,2.69838Z"/>
    <path class="cls-2" d="M38.332,124.30257H29.32136A2.69849,2.69849,0,0,1,26.623,121.6042v-9.01066a2.69847,2.69847,0,0,1,2.69838-2.69837H38.332a2.69852,2.69852,0,0,1,2.69843,2.69837v9.01066a2.69853,2.69853,0,0,1-2.69843,2.69837Z"/>
    <path class="cls-2" d="M58.36432,124.30257H49.354a2.69849,2.69849,0,0,1-2.69838-2.69837v-9.01066a2.69847,2.69847,0,0,1,2.69838-2.69837h9.01036a2.69821,2.69821,0,0,1,2.69838,2.69837v9.01066a2.69822,2.69822,0,0,1-2.69838,2.69837Z"/>
    <path class="cls-2" d="M78.39693,124.30257H69.38685a2.69872,2.69872,0,0,1-2.69895-2.69837v-9.01066a2.6987,2.6987,0,0,1,2.69895-2.69837h9.01008a2.69821,2.69821,0,0,1,2.69837,2.69837v9.01066a2.69822,2.69822,0,0,1-2.69837,2.69837Z"/>
    <path class="cls-5" d="M69.06368,54.62413v31.624L66.87962,84.2167,56.72326,74.77038a2.74453,2.74453,0,0,1-2.16857,1.12045c-.02238-.00057-.04535-.00115-.06773-.0023-.01723-.00057-.03387-.00172-.05109-.00286l-.04362-.00288c-.02009-.00115-.04018-.00287-.0597-.00515l-.00632-.00059-.03386-.00344c-.06716-.00688-.13374-.01664-.19976-.02813-.0195-.00343-.039-.00689-.05854-.01089-.02353-.00461-.04764-.00919-.07118-.01436s-.04764-.01033-.07117-.01607c-.02469-.00574-.0488-.01148-.07347-.0178l-.03215-.008-.03214-.00861-.074-.02067c-.0465-.01377-.09357-.02811-.14006-.04361-.03846-.01264-.07635-.02584-.1148-.039l-.03846-.01377-.02009-.00746-.035-.0132-.06945-.0264q-.04305-.01636-.0861-.03445l-.03961-.01607-.04649-.01952-.01262-.00574-.02125-.0086c-.0683-.02928-.13718-.0597-.20549-.09184l-.01894-.00862c-.31226-.14464-.62049-.30709-.92816-.46493l-.06773-.03444q-.16359-.08352-.32661-.163l-.07748-.03732-.06716-.03157c-.02582-.01206-.05167-.0241-.07749-.03559-.04822-.02181-.09644-.04363-.14465-.06428L51.074,74.5603c-.02181-.00918-.04361-.01836-.06544-.027-.01664-.00746-.03386-.01435-.0505-.02066l-.00574-.0023c-.06257-.02468-.12456-.04764-.18713-.07-.03271-.01206-.066-.023-.09872-.03387l-.02986-.00976c-.01894-.00631-.03789-.01206-.05682-.01779-.02813-.00862-.05568-.01722-.08323-.02526l-.00345-.00115-.0086-.00229-.0046-.00115c-.023-.00632-.04592-.01262-.06888-.01837-.023-.00632-.04535-.012-.0683-.01722-.02583-.00631-.05109-.01206-.07692-.0178l-.02009-.004-.00517-.00115-.03731-.00746-.01435-.00288-.05108-.00975c-.02755-.0046-.0551-.00918-.08209-.01319l-.04649-.00633-.03616-.00458L49.9558,74.244l-.04593-.00459c-.01893-.0023-.0373-.004-.05624-.00516-.02411-.00172-.04765-.00344-.0706-.00459l-.03847-.00172-.03213-.00115a2.56863,2.56863,0,0,0-.45289.02755c-.01722.00229-.03386.00516-.05052.00861-.04247.00746-.08495.01607-.12685.02526s-.08323.01952-.124.03157c-.02066.00573-.04133.01148-.06142.01779-.0264.008-.05281.01665-.07921.02526l-.02354.008c-.0264.00917-.05223.01893-.07806.02869l-.03789.01436c-.027.01032-.05338.02123-.07978.03328l-.00747.00288c-.01894.008-.03788.01664-.05682.02525l-.01492.00689q-.01808.00774-.03616.01721c-.01378.00574-.027.01263-.04076.01952l-.01492.00747c-.01951.00918-.039.01951-.05855.02984-.01894.00977-.03788.01952-.05625.02986-.0373.02008-.0752.04132-.11193.06313q-.02756.01549-.0551.03272c-.062.0373-.12342.07576-.18426.11652l-.00632.004-.05453.03673-.027.01837-.027.01952-.0264.0178-.02813.02008-.02525.01779-.05339.039-.01435.01034-.01435.0109-.054.0396-.023.01722-.08552.06544-.05052.0396-.0528.04134-.02066.01606c-.03215.02526-.06372.05052-.09529.07577s-.06371.05051-.09528.07635c-.04076.03272-.08151.06543-.12169.09816-.02928.02409-.05911.04763-.089.07174L46.971,75.555c-.031.02584-.06257.05109-.09414.07577-.03042.02469-.06084.04936-.09183.07348l-.03732.02927c-.02295.01837-.04592.03616-.06945.05452l-.0442.03445c-.02066.01606-.0419.03214-.06256.04764l-.04937.03674c-.05567.04247-.11136.08323-.16818.1234-.03616.02584-.0729.05167-.11021.07692q-.11021.07577-.22443.14522-.02755.01724-.0551.03272l-.0178.01091-.02066.01206-.02354.01376q-.11365.06545-.23132.12342c-.0287.01377-.0574.02755-.08668.04075-.02066.00977-.0419.01894-.06313.02755l-.004.00173-.03445.01492c-.02524.0109-.05108.02124-.0769.031-.02871.01091-.05741.02124-.0861.03158-.0442.01606-.08841.031-.13374.04477-.06085.01893-.12284.03616-.18484.05223-.02124.00516-.04191.01034-.06257.01492-.04305.00976-.08552.019-.12857.02756-.02009.004-.04076.008-.06084.01147l-.06142.01035c-.02124.00343-.04248.00688-.06371.00975-.06085.00861-.1217.01607-.18311.0218l-.062.00517q-.05166.00431-.10331.00689l-.08266.00345-4.15633-4.19595L38.83,71.38666l-.94825-.95744-2.70584-2.73167a2.1933,2.1933,0,0,1-1.319,1.33455c-1.47978.50569-3.05943-.70774-4.60349-.46952-1.95849.3025-3.18053,2.8057-5.16026,2.74314-1.76161-.0551-2.92911-2.15364-4.68613-2.28968a10.21371,10.21371,0,0,0-2.47911.48847,3.9212,3.9212,0,0,1-1.00048.0419l-1.33743,1.5188V54.62413a3.57091,3.57091,0,0,1,.892-2.3689,3.51686,3.51686,0,0,1,1.11471-.84893,3.46955,3.46955,0,0,1,1.516-.34614H65.54105A3.47233,3.47233,0,0,1,67.04436,51.4a3.527,3.527,0,0,1,1.11987.84607,3.57122,3.57122,0,0,1,.89945,2.37808Z"/>
    <path class="cls-5" d="M69.06368,86.24808v.29849H53.8458l-9.64722-9.73963-.00574-.00574a3.667,3.667,0,0,0,1.28977-.27093c.01321-.00517.02584-.01034.03847-.01665.02123-.00861.04247-.01778.06313-.02755.02928-.0132.058-.027.08668-.04075,1.25476-.61419,2.17144-1.94643,3.53813-2.18235.01666-.00345.0333-.00573.05052-.00861,1.67723-.25429,3.12543,1.26567,4.77453,1.58023a3.03,3.03,0,0,0,.52062.05624,2.74453,2.74453,0,0,0,2.16857-1.12045L66.87962,84.2167l2.18406,2.03138Z"/>
    <path class="cls-5" d="M55.40414,61.05063a4.07255,4.07255,0,1,0,4.0726-4.11982,4.09663,4.09663,0,0,0-4.0726,4.11982Z"/>
    <path class="cls-5" d="M54.55457,75.89083c-1.87152-.03616-3.4436-1.91716-5.29475-1.63647-1.39516.2118-2.31867,1.56932-3.58865,2.191a3.68264,3.68264,0,0,1-3.24843-.02928,23.51421,23.51421,0,0,0-2.333-1.45968,3.65636,3.65636,0,0,0-1.99178-.08783l4.91579-5.74a4.98509,4.98509,0,0,1,7.19922-.41385l6.51048,6.05569a2.74563,2.74563,0,0,1-2.16886,1.12045Z"/>
    <path class="cls-5" d="M33.85693,69.0321c-1.48.50569-3.05953-.70774-4.60382-.46952-1.95813.3025-3.18007,2.8057-5.15985,2.74314-1.76155-.0551-2.92924-2.15364-4.68637-2.28968a10.21129,10.21129,0,0,0-2.47893.48847,3.92155,3.92155,0,0,1-1.00048.0419l5.70952-6.4862a5.93261,5.93261,0,0,1,8.6895-.2583l4.84932,4.89564a2.19289,2.19289,0,0,1-1.31889,1.33455Z"/>
    <path class="cls-5" d="M53.8458,86.54657H18.34161a3.69893,3.69893,0,0,1-1.92291-.53612,3.7994,3.7994,0,0,1-1.82877-3.25917V71.06521l1.33743-1.5188a3.9212,3.9212,0,0,0,1.00048-.0419,10.21371,10.21371,0,0,1,2.47911-.48847c1.757.136,2.92452,2.23458,4.68613,2.28968,1.97973.06256,3.20177-2.44064,5.16026-2.74314,1.54406-.23822,3.12371.97521,4.60349.46952a2.1933,2.1933,0,0,0,1.319-1.33455l2.70584,2.73167.94825.95744,1.20655,1.21859,4.15633,4.19595.00574.00574,9.64722,9.73963Z"/>
    <path class="cls-6" d="M68.16423,52.246l-7.46831,4.87326L55.43406,60.5524l-12.41046,8.098-1.20769.78811L38.83,71.38666,16.4187,86.01045a3.783,3.783,0,0,1-1.02287-.90864L37.88171,70.42922l2.7265-1.77883,1.2077-.78809L56.411,58.33906l.00058-.00058,1.889-1.23237.00116-.00058L67.04436,51.4a3.527,3.527,0,0,1,1.11987.84607Z"/>
    <path class="cls-6" d="M69.06368,85.642v.90462H68.03451L49.209,74.263l-6.795-4.43415-.5981-.39032-1.2077-.78811L15.48193,52.25523a3.51686,3.51686,0,0,1,1.11471-.84893l25.21927,16.456,1.20769.78809.27093.1768,10.73954,7.0074.00057.00056,12.845,8.38155L69.06368,85.642Z"/>
    <path class="cls-3" d="M259.38945,170.41427H210.75789a11.76234,11.76234,0,0,1-11.7624-11.7624V41.691a11.76257,11.76257,0,0,1,11.7624-11.76242h48.63156A11.76222,11.76222,0,0,1,271.15188,41.691V158.65187a11.762,11.762,0,0,1-11.76243,11.7624Z"/>
    <path class="cls-4" d="M258.3528,168.32607H211.79452a10.6213,10.6213,0,0,1-10.6213-10.6213V42.63821a10.62147,10.62147,0,0,1,10.6213-10.62129H258.3528a10.62108,10.62108,0,0,1,10.6213,10.62129V157.70477a10.62091,10.62091,0,0,1-10.6213,10.6213Z"/>
    <path class="cls-5" d="M207.89191,134.68164h54.19363a.118.118,0,0,0,.11766-.11825V132.408a.11782.11782,0,0,0-.11766-.11767H207.89191a.11783.11783,0,0,0-.11767.11767v2.15537a.118.118,0,0,0,.11767.11825Z"/>
    <path class="cls-5" d="M207.89191,139.24494h54.19363a.11782.11782,0,0,0,.11766-.11767v-2.156a.11782.11782,0,0,0-.11766-.11767H207.89191a.11783.11783,0,0,0-.11767.11767v2.156a.11783.11783,0,0,0,.11767.11767Z"/>
    <polygon class="cls-5" points="206.037 46.761 226.5 46.761 226.5 41.787 206.037 41.787 206.037 46.761 206.037 46.761"/>
    <polygon class="cls-5" points="231.809 46.761 262.261 46.761 262.261 41.787 231.809 41.787 231.809 46.761 231.809 46.761"/>
    <path class="cls-2" d="M211.52646,160.68842h46.8889a5.56474,5.56474,0,0,0,5.56438-5.56493h0a5.56425,5.56425,0,0,0-5.56438-5.56434h-46.8889a5.56473,5.56473,0,0,0-5.56492,5.56434h0a5.56522,5.56522,0,0,0,5.56492,5.56493Z"/>
    <path class="cls-5" d="M207.89191,143.66474h54.19363a.11783.11783,0,0,0,.11766-.11768V141.3917a.11794.11794,0,0,0-.11766-.11825H207.89191a.118.118,0,0,0-.11767.11825v2.15536a.11784.11784,0,0,0,.11767.11768Z"/>
    <path class="cls-5" d="M247.77341,79.24586c-1.87125-.03616-3.44342-1.91716-5.29457-1.63647-1.39536.2118-2.31836,1.56932-3.58864,2.191a3.62658,3.62658,0,0,1-1.478.35588l-9.01755-9.10364a2.1924,2.1924,0,0,1-1.31849,1.33455c-1.48033.5057-3.05941-.70774-4.604-.46953-1.95794.3025-3.18,2.80515-5.15971,2.74314-1.76159-.05509-2.92913-2.15364-4.68669-2.28968a10.21052,10.21052,0,0,0-2.47854.48847,3.922,3.922,0,0,1-1.0005.04191l-1.33741,1.51881V57.97917a3.54319,3.54319,0,0,1,3.52265-3.56391h47.42846a3.54357,3.54357,0,0,1,3.52267,3.56391v31.624L249.94255,78.12541a2.74634,2.74634,0,0,1-2.16914,1.12045Z"/>
    <path class="cls-7" d="M247.06451,89.90159l-9.65236-9.74537a3.62658,3.62658,0,0,0,1.478-.35588c1.27028-.62163,2.19328-1.97915,3.58864-2.191,1.85115-.28069,3.42332,1.60031,5.29457,1.63647a2.74634,2.74634,0,0,0,2.16914-1.12045L262.283,89.60312v.29847Z"/>
    <path class="cls-4" d="M248.62294,64.40567a4.07281,4.07281,0,1,0,4.07254-4.12017,4.09684,4.09684,0,0,0-4.07254,4.12017Z"/>
    <path class="cls-4" d="M247.77341,79.24586c-1.87125-.03616-3.44342-1.91716-5.29457-1.63647-1.39536.2118-2.31836,1.56932-3.58864,2.191a3.68414,3.68414,0,0,1-3.24829-.02927,23.401,23.401,0,0,0-2.33328-1.45968,3.65088,3.65088,0,0,0-1.99179-.08782l4.91572-5.74058a4.98616,4.98616,0,0,1,7.19972-.41328l6.51027,6.0557a2.74634,2.74634,0,0,1-2.16914,1.12045Z"/>
    <path class="cls-4" d="M227.07611,72.38713c-1.48033.5057-3.05941-.70774-4.604-.46953-1.95794.3025-3.18,2.80515-5.15971,2.74314-1.76159-.05509-2.92913-2.15364-4.68669-2.28968a10.21052,10.21052,0,0,0-2.47854.48847,3.922,3.922,0,0,1-1.0005.04191l5.70959-6.48619a5.93225,5.93225,0,0,1,8.68921-.2583l4.84915,4.89563a2.1924,2.1924,0,0,1-1.31849,1.33455Z"/>
    <path class="cls-6" d="M209.14665,72.90144a3.922,3.922,0,0,0,1.0005-.04191,10.21052,10.21052,0,0,1,2.47854-.48847c1.75756.136,2.9251,2.23459,4.68669,2.28968,1.97972.062,3.20177-2.44064,5.15971-2.74314,1.54461-.23821,3.12369.97523,4.604.46953a2.1924,2.1924,0,0,0,1.31849-1.33455l9.01755,9.10364,9.65236,9.74537H211.56034a3.77371,3.77371,0,0,1-3.7511-3.79528V74.42025l1.33741-1.51881Z"/>
    <path class="cls-2" d="M219.497,108.0268h-9.01065a2.69859,2.69859,0,0,1-2.69839-2.69837V96.31777a2.6986,2.6986,0,0,1,2.69839-2.69838H219.497a2.69859,2.69859,0,0,1,2.69836,2.69838v9.01066a2.69858,2.69858,0,0,1-2.69836,2.69837Z"/>
    <path class="cls-2" d="M239.52964,108.0268H230.519a2.69858,2.69858,0,0,1-2.69838-2.69837V96.31777a2.69858,2.69858,0,0,1,2.69838-2.69838h9.01065a2.69859,2.69859,0,0,1,2.69836,2.69838v9.01066a2.69858,2.69858,0,0,1-2.69836,2.69837Z"/>
    <path class="cls-2" d="M259.56224,108.0268h-9.01068a2.69858,2.69858,0,0,1-2.69836-2.69837V96.31777a2.69859,2.69859,0,0,1,2.69836-2.69838h9.01068a2.69859,2.69859,0,0,1,2.69836,2.69838v9.01066a2.69858,2.69858,0,0,1-2.69836,2.69837Z"/>
    <path class="cls-2" d="M219.497,125.3042h-9.01065a2.6986,2.6986,0,0,1-2.69839-2.69837v-9.01066a2.6986,2.6986,0,0,1,2.69839-2.69838H219.497a2.69859,2.69859,0,0,1,2.69836,2.69838v9.01066a2.6986,2.6986,0,0,1-2.69836,2.69837Z"/>
    <path class="cls-2" d="M239.52964,125.3042H230.519a2.69859,2.69859,0,0,1-2.69838-2.69837v-9.01066a2.69858,2.69858,0,0,1,2.69838-2.69838h9.01065a2.69859,2.69859,0,0,1,2.69836,2.69838v9.01066a2.69859,2.69859,0,0,1-2.69836,2.69837Z"/>
    <path class="cls-2" d="M259.56224,125.3042h-9.01068a2.69859,2.69859,0,0,1-2.69836-2.69837v-9.01066a2.69859,2.69859,0,0,1,2.69836-2.69838h9.01068a2.69859,2.69859,0,0,1,2.69836,2.69838v9.01066a2.69859,2.69859,0,0,1-2.69836,2.69837Z"/>
    <path class="cls-4" d="M256.06544,101.10894l-.67849.39148-.67846.392a.33976.33976,0,0,1-.5097-.29447v-1.56645a.33977.33977,0,0,1,.5097-.29446l.67846.39147.67849.392a.33993.33993,0,0,1,0,.58834Zm2.12665-2.86827h-6.2962a.86729.86729,0,0,0-.8673.86731v3.41358a.86767.86767,0,0,0,.8673.86732h6.2962a.86731.86731,0,0,0,.86734-.86732V99.108a.86694.86694,0,0,0-.86734-.86731Z"/>
    <path class="cls-4" d="M254.8606,115.48649h0a.673.673,0,0,0-.67328-.67271h-2.49807a.67256.67256,0,0,0-.67272.67271v5.24177a.67256.67256,0,0,0,.67272.67274h7.01311a.67306.67306,0,0,0,.67333-.67274v-3.89572a.67306.67306,0,0,0-.67333-.67274h-3.169a.67306.67306,0,0,1-.67274-.67331Z"/>
    <path class="cls-4" d="M235.03464,119.27777a1.179,1.179,0,1,1,1.18015-1.179,1.1788,1.1788,0,0,1-1.18015,1.179Zm3.5123-1.72774.11192-.15211a.60676.60676,0,0,0,.03559-.66125c-.2669-.46207-.38285-.663-.64976-1.12561a.607.607,0,0,0-.59064-.29963l-.1877.02066a.93.93,0,0,1-.95055-.54874l-.07576-.17277a.60624.60624,0,0,0-.55449-.36163h-1.30011a.60627.60627,0,0,0-.55449.36163l-.07576.17277a.93026.93026,0,0,1-.9511.54874l-.18714-.02066a.607.607,0,0,0-.59065.29963c-.26691.46264-.38285.66354-.64976,1.12561a.60686.60686,0,0,0,.03557.66125l.11194.15211a.93023.93023,0,0,1,0,1.09749l-.11194.15268a.60582.60582,0,0,0-.03557.66067c.26691.46265.38285.66355.64976,1.12563a.607.607,0,0,0,.59065.29962l.18714-.02067a.93.93,0,0,1,.9511.54933l.07576.1722a.60628.60628,0,0,0,.55449.36162h1.30011a.60625.60625,0,0,0,.55449-.36162l.07576-.1722a.92967.92967,0,0,1,.95055-.54933l.1877.02067a.607.607,0,0,0,.59064-.29962c.26691-.46208.38286-.663.64976-1.12563a.60573.60573,0,0,0-.03559-.66067l-.11192-.15268a.93023.93023,0,0,1,0-1.09749Z"/>
    <path class="cls-4" d="M216.93125,116.18965a1.95361,1.95361,0,1,1-1.9539-1.95331,1.95388,1.95388,0,0,1,1.9539,1.95331Z"/>
    <path class="cls-4" d="M218.39611,121.948a.5941.5941,0,0,0,.53153-.86158,4.366,4.366,0,0,0-7.90056,0,.59429.59429,0,0,0,.53152.86158Z"/>
    <path class="cls-4" d="M234.74646,98.87437q-1.36119,1.36123-2.72245,2.72248a.40649.40649,0,0,0-.12.28872v2.23286a.55191.55191,0,0,0,.55161.55219h5.15969a.55229.55229,0,0,0,.55161-.55219v-2.23286a.40887.40887,0,0,0-.12-.2893c-1.05214-1.05157-1.71109-1.71052-2.72249-2.7219a.40778.40778,0,0,0-.578,0Z"/>
    <path class="cls-4" d="M239.07846,101.00218h0a.41142.41142,0,0,1-.70254.29046c-.47646-.47643-.89777-.89775-1.31908-1.3185-.53784-.53841-1.07625-1.07681-1.73-1.73059a.41159.41159,0,0,0-.58207,0l-3.04965,3.04965a.41176.41176,0,0,1-.582-.58261c1.40686-1.40629,2.2673-2.26729,3.63114-3.63112a.41151.41151,0,0,1,.582,0l3.6317,3.6317a.40891.40891,0,0,1,.12055.291Z"/>
    <path class="cls-4" d="M211.255,99.75719a10.672,10.672,0,0,0,2.66625,2.65014,10.28643,10.28643,0,0,0,3.281,1.74152,1.26266,1.26266,0,0,0,1.5808-.85066l.14521-.4925a.52061.52061,0,0,0-.33291-.64058l-1.19279-.4018a.52051.52051,0,0,0-.66641.35014h0a.5209.5209,0,0,1-.69855.33808,8.54616,8.54616,0,0,1-1.55725-.87075,8.73336,8.73336,0,0,1-1.33859-1.28347.52087.52087,0,0,1,.0861-.74447l.0373-.02871a.52061.52061,0,0,0,.10391-.72093l-.7749-1.06077a.52058.52058,0,0,0-.73987-.10389l-.35875.279a1.368,1.368,0,0,0-.24054,1.83968Z"/>
    <path class="cls-8" d="M149.38005,131.82427a2.7425,2.7425,0,0,0-1.67837-1.33628c-.20662-.07576-.41558-.14006-.61878-.19745a10.33764,10.33764,0,0,0-3.70514-.27323l-.01093.00115h-.00114c-.19976.01721-.40122.03788-.60156.06026-.12513.01436-.25139.02928-.37652.04593-2.46994.31513-4.95134.95169-7.35927.46953l.12687-.22156c.06888-.12284-.12056-.25716-.20722-.14293-.07579.09872-.14984.19746-.22444.29619a7.7483,7.7483,0,0,1-.93907-.291c-.42993-.1653-.75883.47643-.32488.644a8.15757,8.15757,0,0,0,.80475.26116c-.97408,1.31447-1.91258,2.6559-2.84533,4.0025-.91266,1.31848-1.81957,2.64155-2.74774,3.94682q-3.03328,4.26282-6.19288,8.43437c-.5143.679-1.03895,1.36495-1.58824,2.03311a16.63119,16.63119,0,0,1-4.66836,4.15575c-1.20138.66413-2.72937.92587-3.67933,1.98088a3.41077,3.41077,0,0,0-.636,3.14667c.72726,2.87689,3.55938,3.74937,6.19749,4.13337a.358.358,0,0,0,.07806.36793c.02065.023.04247.0465.06487.06889a2.97962,2.97962,0,0,0,2.067.89026,4.276,4.276,0,0,0,.76915-.03155,5.28736,5.28736,0,0,0,1.70479-.53268l.00171-.00115c.03389-.0178.06889-.03617.10276-.05453.155-.08438.30594-.17507.45459-.27035.24339-.15614.47874-.326.7089-.50283.44715-.34211.87592-.71,1.31389-1.05788a8.675,8.675,0,0,1,3.02613-1.598q.08781-.02585.17563-.04995c.50571-.14177,1.01657-.2606,1.52455-.39261h.00059a13.47717,13.47717,0,0,0,1.49355-.46035c2.97961-1.14628,4.5696-3.09214,6.50914-5.53336q.88168-1.10811,1.74268-2.23573l.0063-.00747c.13433-.175.26691-.35013.39951-.52693,1.04985-1.39138,2.06584-2.80628,3.02957-4.25907q.47871-.72151.93906-1.45509c.02642-.04249.0528-.08438.07979-.12743a49.03231,49.03231,0,0,0,3.50714-6.64175c.71694-1.679,2.40677-4.89221,1.57677-6.73761Z"/>
    <path class="cls-9" d="M211.05924,106.29963c-1.01885-3.03819-3.45664-5.14132-6.0735-6.82085-1.29839-.83287-2.649-1.58079-3.964-2.38553a34.98446,34.98446,0,0,1-4.31362-3.14611,38.18388,38.18388,0,0,1-3.46695-3.18q-.30913-.33234-.59985-.68077c-.1831-.221-.365-.45288-.54014-.69338l-.008-.01148v-.00919c.00919-.44084.02469-.88223.04422-1.32249.023-.5367.04935-1.07453.07289-1.61123.00056-.02927.00227-.05911.00344-.08782.01779-.42591.03385-.85181.043-1.27715a34.50873,34.50873,0,0,0-.3335-5.63439q-.12573-.87991-.30248-1.75241a29.54881,29.54881,0,0,0-3.74307-9.626,25.83546,25.83546,0,0,0-2.82122-3.77692,23.88241,23.88241,0,0,0-4.084-3.61275,20.55105,20.55105,0,0,0-5.19873-2.64958,16.17235,16.17235,0,0,0-4.50933-.84068c-.09931-.00415-.198-.00667-.2979-.00834-.44889-.00746-.89831.00333-1.34662.03571a14.3409,14.3409,0,0,0-4.48465,1.02969,12.31,12.31,0,0,0-3.27812,1.9803,9.20542,9.20542,0,0,0-1.04409,1.03952,3.85142,3.85142,0,0,0-1.15432-.76973,5.86192,5.86192,0,0,0-2.86026-.39721,8.28509,8.28509,0,0,0-5.174,2.8964c-.008.008-.0155.01722-.023.02584-.12915.1389-.25541.28183-.37826.42533-1.1635,1.36152-2.0882,2.90329-3.11452,4.36814-.093.13374-.18711.26576-.28241.39777q-.07061.09816-.14236.19517a11.86029,11.86029,0,0,1-4.63847,3.97036c-2.01819.91437-4.21718,1.4-6.14124,2.52674q-.37368.21784-.73185.4615a12.3589,12.3589,0,0,0-3.55364,3.63973q-.26086.41846-.48216.85641a10.10915,10.10915,0,0,0,.582,10.30444c1.47406,2.10945,3.88025,3.32634,6.16592,4.3584q.72754.32887,1.47116.6182a22.33517,22.33517,0,0,0-6.20264,4.883,22.10041,22.10041,0,0,0-3.37683,4.96453c-.96606,1.94757-1.67266,4.19422-.87364,6.32548a6.06975,6.06975,0,0,0,1.28748,2.0354c.0505.054.10276.10619.15612.15785.04652.04649.09357.0901.14121.13432.13606.12512.27782.24452.42476.35588.03617.02928.07348.05625.1108.0838l.00115.00114c-.004.02067-.0092.04191-.01264.06258a8.8611,8.8611,0,0,0-.155,1.09059,6.68826,6.68826,0,0,0,2.02448,5.686,6.1733,6.1733,0,0,0,2.17261,1.17555l.0333.0109a4.54447,4.54447,0,0,0,.0838.82943,5.57241,5.57241,0,0,0,1.04811,2.27477,8.86887,8.86887,0,0,0,4.7665,2.86367q.52435.15069,1.05444.283c.11136.02812.22156.05453.33291.08092.1768.04249.3536.08382.53154.12284l.01032.00287c1.431.31915,2.88664.55735,4.3291.7749l.15039.0224q2.286.3418,4.588.55045,1.09258.10161,2.18635.1745c9.10938.61475,18.24232-.062,27.32871-.72783.21641-.0155.43222-.03157.64862-.04707.05742-.004.11539-.0086.17279-.01262q.32975-.025.66125-.04937c.06886-.00515.13775-.0109.20663-.01665h.00059c2.009-.15727,4.01743-.34726,6.00287-.68363a2.40119,2.40119,0,0,0,1.3357-.54932,2.61173,2.61173,0,0,0,.58493-1.33627c.11191-.46264.21752-.92643.322-1.39023a12.12814,12.12814,0,0,0,4.22.56079,10.13767,10.13767,0,0,0,2.76039-.52117,9.164,9.164,0,0,0,4.07195-2.6892,7.6765,7.6765,0,0,0,.76685-1.08658c.06026-.10218.11825-.20664.17391-.31225a9.68829,9.68829,0,0,0,.99935-3.15012l.00229-.01551c.06775-.02179.1395-.04419.21067-.06657.04131-.01321.08323-.02755.12454-.04076l.03733-.01262c.035-.01149.06888-.02412.10216-.03559.0287-.00975.05683-.01952.08439-.03042.229-.08726.45461-.18541.67616-.2916a8.72533,8.72533,0,0,0,2.26786-1.57677,8.20525,8.20525,0,0,0,.67045-.72726,8.41209,8.41209,0,0,0,1.0177-1.58138,9.78921,9.78921,0,0,0,.44084-7.39254Z"/>
    <path class="cls-10" d="M157.621,87.44488a5.45972,5.45972,0,0,0-.46552-.92586v-.00173a12.526,12.526,0,0,0-2.26272-2.51871c-.09469-.08667-.18883-.17105-.283-.256a9.48058,9.48058,0,0,1-2.098-2.39013,4.49641,4.49641,0,0,1-.36622-.87364.42635.42635,0,0,0-.08552-.16187c.14122-.11767.28068-.237.41728-.3599a.20316.20316,0,0,0,.06143-.10274.23924.23924,0,0,0-.01721-.16646.15366.15366,0,0,0-.21412-.06946c-.17333.07578-.3467.15327-.51946.23592-.51487.2428-1.02688.516-1.52742.81624-.01894.0109-.03731.02123-.05566.03329-.05971.03558-.11826.07174-.17738.10848a12.13864,12.13864,0,0,0-5.29113,6.15385,6.8115,6.8115,0,0,0,.1257,4.83653,7.99007,7.99007,0,0,0,3.037,3.54846,9.48865,9.48865,0,0,0,3.53527,1.35292,10.58592,10.58592,0,0,0,1.493.15268.26023.26023,0,0,0,.427.14064c.04477-.04478.08782-.09127.13317-.13719.0838-.00058.16762-.0023.25142-.00459a.40718.40718,0,0,0,.38113-.36392.51926.51926,0,0,0-.0241-.27954,22.03765,22.03765,0,0,0,2.01876-2.59734,13.13179,13.13179,0,0,0,1.34373-2.525q.11019-.28846.19975-.58147c.05969-.19919.11194-.40066.155-.60328a4.236,4.236,0,0,0-.19229-2.46016Z"/>
    <path class="cls-10" d="M132.02289,114.075a6.06535,6.06535,0,0,1-.83347-.7307,8.936,8.936,0,0,1,3.1042-4.379c.26-.18713.4305-.02928.21985.21123a10.822,10.822,0,0,0-2.49058,4.89851Z"/>
    <path class="cls-10" d="M192.348,102.15364a37.05365,37.05365,0,0,0-4.231-5.66195c-2.46015-2.87574-5.18379-5.68834-6.82257-9.11971a15.99246,15.99246,0,0,1-.83057-2.0974,5.49633,5.49633,0,0,1-.18309-.93332v-.00172a16.43321,16.43321,0,0,0-.33754-2.3425,2.11552,2.11552,0,0,0-.80245-1.24614,2.918,2.918,0,0,0-.46665-.2497c-.02525-.01148-.0511-.02239-.07692-.03329a8.42648,8.42648,0,0,0-1.83336-.45806c-.66468-.10446-1.32363-.17161-1.84712-.25715q-.37628-.062-.75481-.11421a30.70582,30.70582,0,0,0-7.75359-.13376c-.15211.01723-.30365.0356-.45577.05626H165.952q-.89112.11625-1.76961.29331-1.02636.20491-2.032.49651h-.00113a22.69367,22.69367,0,0,0-4.84227,2.02163c-.04189.023-.0838.04707-.12513.07118-.20377.11594-.40753.23706-.60787.361a11.58655,11.58655,0,0,0-1.68125,1.19392,4.98742,4.98742,0,0,0-.75421.838,5.97548,5.97548,0,0,0-.94884,2.7351c-.12628,1.02976-.09241,2.071-.11538,3.10592a12.89048,12.89048,0,0,1-.58089,3.52378,13.86248,13.86248,0,0,1-1.059,2.50264,14.67978,14.67978,0,0,1-1.01194,1.61409c-1.4838,2.05837-3.5169,3.77578-4.45656,6.13376a7.75417,7.75417,0,0,0,.20206,6.04251,7.25712,7.25712,0,0,0,.94136,1.52339,10.08739,10.08739,0,0,0,1.85862,1.73692c.66123.49364,1.36726.93677,2.06525,1.37474a3.22848,3.22848,0,0,0,2.874.32085,6.4667,6.4667,0,0,1,2.94231.167q.60786.13689,1.21918.2606c1.9493.39492,3.91871.68593,5.89671.88913h.00173c2.269.23419,4.55124.35185,6.83.37826q1.375.01637,2.75061-.01033,2.236-.04392,4.468-.186c2.32125-.14637,4.67121-.29446,6.97238-.644a14.95084,14.95084,0,0,0,3.4153-.91669,8.33246,8.33246,0,0,0,5.36288-5.9541c.04019-.18081.07462-.36506.10506-.55391.0132-.08552.02525-.1722.03556-.25715a10.49222,10.49222,0,0,0-1.559-6.46954Z"/>
    <path class="cls-6" d="M141.50765,170.02H194.8443q-.05337-.62769-.13775-1.25133c-.38171-2.851-1.18531-5.643-1.57965-8.49232a21.6539,21.6539,0,0,1-.18426-3.07951c.00344-.63485.02985-1.27944.07461-1.92922V155.267a40.49748,40.49748,0,0,1,.50857-4.11214l.01494-.08954c.229-1.30356.508-2.56062.8082-3.71207a31.63814,31.63814,0,0,1,3.78494-8.81491,43.52756,43.52756,0,0,0,2.47164-3.5984,20.73565,20.73565,0,0,0,1.24387-3.82916c.12283-.47126.24739-.93505.38343-1.377a74.94016,74.94016,0,0,0,2.1812-7.32136c-.0201-.11537-.04075-.23247-.062-.349-.03272-.1768-.06658-.35358-.10045-.53037-.8564-4.41463-2.28452-8.96817-6.33639-11.26647-.06715-.039-.13547-.07577-.2032-.11194-.06426-.03386-.128-.06715-.19171-.09988-.07978-.04017-.16013-.08035-.24166-.11938h-.00056c-.128-.0597-.26059-.1194-.39435-.17565a.07982.07982,0,0,0-.02238-.00861c-.91669-.39663-1.90567-.772-2.95439-1.12791a71.594,71.594,0,0,0-10.0295-2.50321q-.396-.07233-.79382-.14064-.46325-.08091-.93048-.15669c-.26058-.04305-.52174-.08553-.78235-.12514-.22615-.035-.45231-.07-.67846-.10274h-.00116q-.65091-.09729-1.30584-.186a104.48783,104.48783,0,0,0-15.13869-.97753c-.0597.00115-.11824.00173-.17791.00344-.29333.004-.58262.01091-.86964.01895-.18425.00516-.36849.0109-.55044.01893q-.57692.02154-1.13882.05167c-.2606.01319-.51776.02928-.772.04649-.45518.02871-.90175.06487-1.33626.10447a22.79783,22.79783,0,0,0-7.35525,1.62844,6.0709,6.0709,0,0,0-3.475,4.65,6.19127,6.19127,0,0,0,.39663,2.80112c.60155,1.73636,1.69156,3.49222,2.354,4.984a5.185,5.185,0,0,1,.63312,2.4682,5.23834,5.23834,0,0,1-.65722,1.86091q-1.56529,3.1151-3.05427,6.26692-.27205.576-.54185,1.15317-1.01,2.16369-1.98374,4.34518c-.90175,2.02105-3.72871,4.239-3.84292,6.4489-.00573.1148-.0092.22845-.0092.34038v.0528a7.93978,7.93978,0,0,0,.31168,2.11l.00173.00576c.01264.04361.02525.08724.0373.13029.28414.96948.69455,1.8919,1.06076,2.86483.13777.36621.26865.7393.384,1.125a36.2759,36.2759,0,0,1,.90748,4.2166c.07634.44486.14925.88569.22328,1.31389a19.18243,19.18243,0,0,1,.21354,4.0157,11.48479,11.48479,0,0,1-.69914,3.63687q-.12312.353-.24682.70487-.28241.805-.56653,1.61122-.94108,2.67942-1.88386,5.35828c-.04479.12685-.0884.25257-.13317.38a1.12825,1.12825,0,0,0-.09413.60613.70618.70618,0,0,0,.12569.2652Z"/>
    <path class="cls-8" d="M175.96716,84.52551a2.91219,2.91219,0,0,1,.574,1.51479c.43683,2.91076.0287,5.88637.34612,8.7931a21.05156,21.05156,0,0,0,2.77242,8.54515,5.90322,5.90322,0,0,1,1.13538,3.4107c-.75883,6.92761-10.52946,9.35507-15.93826,6.80076-2.26787-1.07109-3.87622-3.8745-2.63639-6.2767,1.03895-2.01244,2.19612-2.26385,2.14448-4.76764a17.67653,17.67653,0,0,0-1.37817-5.96271c-.58377-1.501-1.11989-3.67475-.28816-5.17174A11.91787,11.91787,0,0,1,166.24015,87.5a13.43,13.43,0,0,1,3.3516-1.38564,17.16627,17.16627,0,0,0,2.53709-.95227c1.56471-.78007,3.02439-1.55669,3.83832-.63657Z"/>
    <path class="cls-10" d="M164.01705,99.84558l-.00745.00172a12.37927,12.37927,0,0,1-1.40286.19056,1.07689,1.07689,0,0,0-.47125.64231,2.13819,2.13819,0,0,0,.535,1.89821c.0201.18426-.41958,1.68929.27956,1.02919a9.8667,9.8667,0,0,0,1.39252-.33866l.01779-.00574a14.89817,14.89817,0,0,0,7.71054-6.0999,10.11043,10.11043,0,0,0,.6159-1.18243,21.53113,21.53113,0,0,1-8.66971,3.86474Z"/>
    <path class="cls-8" d="M178.7987,83.62892a30.50268,30.50268,0,0,0-.20147-3.161c-.03043-.25773-.06542-.516-.10561-.7726q-.08783-.57171-.20779-1.13882-.14982-.71979-.35358-1.42525c-.00688-.02411-.0132-.04935-.02238-.07519-.02813-.0993-.05913-.1963-.08956-.29618a14.60429,14.60429,0,0,0-1.61638-3.42907,20.00967,20.00967,0,0,0-2.29658-2.91765c-.18655-.19688-.37655-.38516-.57745-.56424a10.74553,10.74553,0,0,0-.92871-.7353c-.29447-.20146-.59466-.388-.90521-.55908a10.8278,10.8278,0,0,0-1.87411-.80646q-.1343-.04392-.26863-.08381a14.51258,14.51258,0,0,0-4.216-.57686,17.90346,17.90346,0,0,0-11.1224,4.0266,9.55824,9.55824,0,0,0-2.75234,4.24416,21.04355,21.04355,0,0,0-.96661,4.49614c-.02756.23133-.05165.46093-.074.68824-.00458.054-.00977.10733-.01491.16129-.00172.01721-.00345.03443-.00461.05281l-.00113.00917q-.06458.71032-.09874,1.43214a22.4,22.4,0,0,0,2.393,12.00348,13.70085,13.70085,0,0,0,1.62672,2.29026,12.93005,12.93005,0,0,0,5.47539,3.65524,9.92234,9.92234,0,0,0,2.54.53324,11.42269,11.42269,0,0,0,2.03484-.0264l.00687-.00115h.00058a14.46083,14.46083,0,0,0,4.84054-1.4218,12.85842,12.85842,0,0,0,3.05254-2.06755,24.56063,24.56063,0,0,0,2.80743-3.15987c.31971-.40811.644-.82885.9827-1.25935.09355-.11939.18424-.248.27263-.3708.085-.12.1745-.24051.25658-.36392q.192-.27639.36335-.5522l.00115-.00057c.03615-.05912.07175-.11709.10791-.17506a12.81517,12.81517,0,0,0,1.38393-3.10133,13.34652,13.34652,0,0,0,.42647-2.05836,16.80428,16.80428,0,0,0,.12858-2.06353c0-.1412,0-.28413-.00289-.42936Z"/>
    <path class="cls-8" d="M183.94117,81.9408c-.202-1.89363-1.84368-3.97209-3.89286-3.87336a4.32626,4.32626,0,0,0-1.27944.27552,4.85974,4.85974,0,0,0-.485.21353,3.82626,3.82626,0,0,0-1.05158.76743,2.47794,2.47794,0,0,0-.46838.68593,1.97771,1.97771,0,0,0-.09413,1.3868.1118.1118,0,0,0,.04076.062,5.319,5.319,0,0,1-.13546.54415c-.11595.465-.26634.91955-.40411,1.37818a10.14009,10.14009,0,0,0-.26174,1.08314v.00057a7.73365,7.73365,0,0,0-.132,1.621,1.92271,1.92271,0,0,0,.86445,1.64566c.02354.0155.04822.03042.07232.04477l.0115.00747a3.25113,3.25113,0,0,0,1.5211.39663,5.33757,5.33757,0,0,0,.93045-.04764,5.76673,5.76673,0,0,0,.88855-.19286l.00916-.00288a4.65334,4.65334,0,0,0,.91955-.38228c.10218-.0574.20264-.11882.3002-.18253a5.98074,5.98074,0,0,0,2.64672-5.43118Z"/>
    <path class="cls-10" d="M181.30135,80.66078a2.64228,2.64228,0,0,0-1.272,3.70057.14428.14428,0,0,0,.264-.08381,5.3642,5.3642,0,0,1,.21065-1.95159,4.591,4.591,0,0,1,.97007-1.42065.156.156,0,0,0-.17277-.24452Z"/>
    <path class="cls-11" d="M166.92439,80.09079a2.68569,2.68569,0,0,0-.516-.58606c-.03158-.02754-.0643-.05394-.097-.08036a4.73463,4.73463,0,0,0-2.199-.92872,5.43155,5.43155,0,0,0-1.57907.00172,2.1975,2.1975,0,0,0-1.30817.49708.66153.66153,0,0,0-.02638.85985.98879.98879,0,0,0,.18481.1923,1.57155,1.57155,0,0,0,.76572.30421h.00113a4.42512,4.42512,0,0,0,.5.04076c.61649.02238,1.23124.039,1.846.09988.66125.06371,1.33455.23648,1.99868.24395.65894.008.644-.30652.42936-.64461Z"/>
    <path class="cls-11" d="M153.42445,79.8543a.625.625,0,0,0-.07346-.109.8019.8019,0,0,0-.481-.27438,2.27282,2.27282,0,0,0-.43166-.03846,2.3513,2.3513,0,0,0-1.01541.21238,2.26007,2.26007,0,0,0-.36849.20951,3.06423,3.06423,0,0,0-.79386.81624c-.01894.02811-.03615.05624-.05452.08437l-.00688.0109a2.96759,2.96759,0,0,0-.35243.83575c-.0798.3266-.05914.613.25369.59639a.66212.66212,0,0,0,.11537-.01723,11.06924,11.06924,0,0,0,1.24961-.51315c.3444-.12743.6951-.22157,1.0464-.31512.04133-.01092.08379-.02182.12513-.0333a1.11391,1.11391,0,0,0,.764-.51258.99877.99877,0,0,0,.02351-.95227Z"/>
    <path class="cls-11" d="M163.12334,82.82419c-1.30813-.37311-1.66516,1.90337-.7548,2.494a.98731.98731,0,0,0,1.57105-.67043c.08148-.60442-.13662-1.629-.81625-1.82359Z"/>
    <path class="cls-11" d="M152.93256,83.32241c-1.30872-.37368-1.66576,1.90281-.75539,2.494a.98844.98844,0,0,0,1.57162-.67158c.08091-.60443-.1372-1.62844-.81623-1.82245Z"/>
    <path class="cls-11" d="M163.268,92.44728a13.58,13.58,0,0,0-.99473,1.059,4.46454,4.46454,0,0,1-1.06592.69454,4.38,4.38,0,0,1-2.47911.39033c-.26748-.03789-.3444.40465-.08265.469a4.41533,4.41533,0,0,0,2.94346-.28241,4.67894,4.67894,0,0,0,1.16637-.78007,2.38437,2.38437,0,0,0,.86561-1.32881c.01148-.16645-.20206-.32833-.353-.22157Z"/>
    <path class="cls-11" d="M156.97293,91.13455a2.27715,2.27715,0,0,1-1.4482-.632,1.67883,1.67883,0,0,1-.23878-2.1284,2.215,2.215,0,0,1,.764-.675,5.84975,5.84975,0,0,0,.86273-.43739.60087.60087,0,0,0,.229-.50914,7.87153,7.87153,0,0,0,.01894-.78925c-.01148-.407-.01033-.81221-.00575-1.21917q.01206-1.14428.02586-2.28911a.09558.09558,0,0,1,.027-.07061.08658.08658,0,0,1,.14465.05855,29.59181,29.59181,0,0,1,.37195,3.06574c.03961.67961.25544,1.9361-.47641,2.34537-.11252.06313-.24339.1234-.38229.18769-.5855.27093-1.31332.60729-1.16579,1.40859a1.288,1.288,0,0,0,.93619.962,2.022,2.022,0,0,0,.47985.07233c.06717.00343.1349.00516.20264.00688.066.00115.1326.00287.19859.00631a1.93889,1.93889,0,0,1,.37828.0488.13085.13085,0,0,1,.09758.10562.2075.2075,0,0,1-.05625.19745,1.3687,1.3687,0,0,1-.96376.2847Z"/>
    <path class="cls-9" d="M186.99486,100.06944a14.70687,14.70687,0,0,0-1.69445-2.90387c-.61877-.9316-1.23237-1.86779-1.82476-2.81433a36.77124,36.77124,0,0,1-3.25111-5.99256q-.08265-.21093-.159-.419a21.70061,21.70061,0,0,1-1.39139-7.43847,21.03338,21.03338,0,0,1,.09472-2.15824,25.3964,25.3964,0,0,1,.62048-3.5565c.05395-.027-.60787.058-.56482,0a4.7416,4.7416,0,0,0,.43913-4.2499,6.64863,6.64863,0,0,0-1.50218-2.47566,8.06658,8.06658,0,0,0-1.249-1.08027q-.35906-.25314-.73875-.47814a16.59421,16.59421,0,0,0-6.15385-2.02794c-.675-.09529-1.35-.1567-2.01359-.19a20.5227,20.5227,0,0,0-2.47106.02526,18.52825,18.52825,0,0,0-6.49769,1.62442,15.1396,15.1396,0,0,0-3.91639,2.63237,44.18291,44.18291,0,0,0-3.56627,3.93361c-.79787.93964-1.58712,1.88846-2.34594,2.858-.44658.5717-.88394,1.14972-1.30642,1.73807-.54818.764-1.0682,1.54808-1.54636,2.35627q-.118.19888-.23477.4018-.13945.24021-.27438.485a8.27665,8.27665,0,0,1-1.92861-.485c-.09587-.03731-.19173-.07634-.28528-.11824a.27644.27644,0,0,0-.34039.11824.20153.20153,0,0,0,.05911.29848,7.36585,7.36585,0,0,0,2.12841.89659,8.2727,8.2727,0,0,0-.48792,1.24042c-.07232.24682.30538.39434.43567.17047.24281-.419.4552-.85238.67331-1.28288a9.424,9.424,0,0,0,4.32623-.36507c.0574-.01722.11537-.03674.17277-.05567l.00575-.00173a11.60222,11.60222,0,0,0,2.02908-.90061c.09242-.05281.18425-.10562.275-.15957l.01148-.00689c.11767-.07.23418-.14234.34842-.217a17.99387,17.99387,0,0,0,4.39223-4.11271,27.23968,27.23968,0,0,0,2.06125-3.05426,20.9647,20.9647,0,0,0,1.53543-3.23334,4.54681,4.54681,0,0,1,1.19565.24051,4.70825,4.70825,0,0,1,1.95505,1.54406,14.56735,14.56735,0,0,1,1.12562,1.67034c.48732.81737.9402,1.65484,1.493,2.43319a11.8326,11.8326,0,0,0,2.16284,2.3488,7.36618,7.36618,0,0,0,4.9668,1.78342,4.44743,4.44743,0,0,0,.52581-.04936c-.043.19861-.0838.39663-.1217.597a27.90783,27.90783,0,0,0-.48389,4.79117v.00115a33.73748,33.73748,0,0,0,.49135,6.27553c.18484,1.082.41213,2.19383.70889,3.29706a17.19222,17.19222,0,0,0,3.50255,7.04011c.06773.07749.13776.15384.20836.229l.00057.00116a11.31435,11.31435,0,0,0,.8897.85583,10.24361,10.24361,0,0,0,2.482,1.59744,5.58828,5.58828,0,0,0,3.08009.6182c2.04745-.34784,2.55544-2.6536,1.95332-4.27572Z"/>
    <path class="cls-10" d="M208.93025,116.00023a8.723,8.723,0,0,1-2.26786,1.57735c-.22155.10619-.44714.20434-.67616.2916-.02756.01032-.05569.02067-.08439.03042-.03328.01147-.06715.0241-.10216.03559l-.03733.01262c-.0419.01321-.08323.02755-.12454.04076l-.21067.066a22.50541,22.50541,0,0,0,.02872-4.8859,20.13875,20.13875,0,0,0-4.36128-9.82917,35.03239,35.03239,0,0,0-3.42332-3.69483,16.54349,16.54349,0,0,1-3.31082-3.76029c-.01839-.03214.02236-.07863.05221-.04706.59237.6182,1.23065,1.18647,1.88044,1.74151.65035.55506,1.31217,1.09692,1.95273,1.66174,0,0,6.94138,5.45414,9.43772,11.38758a16.89019,16.89019,0,0,1,1.24671,5.37207Z"/>
    <path class="cls-12" d="M188.41379,152.85045c.295.11824,8.22025,5.04144,8.91651,2.7862.69684-2.25525-8.56236-7.79892-8.56236-7.79892l-.35415,5.01272Z"/>
    <path class="cls-12" d="M177.71386,143.83062s-1.29266.11251-.57113,1.33915c.72092,1.22721,4.5541,1.51536,4.367,1.26623-.18655-.24969-3.79584-2.60538-3.79584-2.60538Z"/>
    <path class="cls-10" d="M192.13675,88.04988c-.01894.44026-.03444.88165-.04363,1.32249a26.92266,26.92266,0,0,1-4.77224-8.16688c-.05394-.15211.17911-.27724.25772-.1303.79845,1.47461,1.65255,2.93487,2.59049,4.32453.61475.91093,1.27081,1.79719,1.96766,2.65016Z"/>
    <path class="cls-8" d="M202.711,135.35323a24.43461,24.43461,0,0,1-1.35234,3.95255c-.13318.32774-.27208.66757-.40123.99646-.67731,1.72316-1.39021,3.44917-2.11863,5.12984-1.2628,2.91592-2.75863,6.29507-4.53059,9.50946a19.53978,19.53978,0,0,1-6.21927,7.2697c-4.561,2.99571-9.21386,2.61918-14.41027,2.393-4.15349-.18138-8.30233-.4724-12.44376-.82483-3.11624-.26462-6.22848-.566-9.34013-.87938q-2.39531-.24279-4.79116-.49364c-1.16408-.12168-2.25065-.60843-3.413-.6291-1.3007-.02353-2.463.70086-3.71608.9316a17.89844,17.89844,0,0,1-5.25441.16245q-.91869-.10332-1.8259-.29045a4.78761,4.78761,0,0,0-1.49871-.26,4.7065,4.7065,0,0,0-1.55209.8237q-.63887.38486-1.28691.75023c-.0195.01032-.0373.02123-.05684.03214q-1.09778.61647-2.22251,1.16808a41.092,41.092,0,0,1-3.93019,1.68355c-.00916.01608-.019.03158-.02811.04649-.08208.136-.163.27208-.24224.40984a3.58366,3.58366,0,0,1-1.15775-1.40687c-.15327-.318-.28871-.64634-.41213-.981-.07577-.20148-.14638-.4058-.21525-.61073-.16818-.50685-.32143-1.01943-.481-1.52569-.0488-.15326-.09814-.30708-.14867-.45863-.01723-.05223-.03557-.10561-.054-.15843a4.04945,4.04945,0,0,1-.384-1.83277,2.4374,2.4374,0,0,1,.86617-1.3845c2.08018-1.96365,4.2-3.8877,6.30021-5.83068a23.51344,23.51344,0,0,1,2.96587-2.58817,4.58764,4.58764,0,0,1,2.94062-.73816,13.9524,13.9524,0,0,1,3.254.87763,33.6982,33.6982,0,0,0,6.39665,1.27946,53.16826,53.16826,0,0,0,15.91645-.74334c3.87048-.65435,7.76507-.981,11.69755-1.26107,1.17611-.0838,2.37578-.05568,3.54617-.17622a8.77968,8.77968,0,0,0,2.18291-.2227c.71119-1.536,1.629-3.79759,2.28682-5.325.83861-1.94529,1.70593-3.956,2.64843-5.9076.17107-.35417.34268-.7267.52406-1.121,1.40058-3.033,3.14322-6.80937,6.9563-7.54524a28.22977,28.22977,0,0,1,8.97164-.27036l.24738.03216c1.5165.19515,3.40325.43739,4.685,1.54806,1.14342.99189,1.52455,2.53651,1.10093,4.46919Z"/>
    <path class="cls-6" d="M160.88015,109.6581a7.5389,7.5389,0,0,0-.40179-1.435,6.53343,6.53343,0,0,1-.2606-1.412v-.00114c-.00633-.07864-.01091-.15614-.01377-.23478a5.79507,5.79507,0,0,1,.027-.65205.23887.23887,0,0,0,.00862-.09184,5.02993,5.02993,0,0,0,.02124-.55621,2.107,2.107,0,0,0-.02814-.30135.16453.16453,0,0,0-.30994-.0551c-.12056.19974-.49709.04018-.52119-.24338v-.00057c-3.84638.35129-6.47761.70775-9.41649,2.65073a25.15846,25.15846,0,0,0-3.81709,3.16906,49.89471,49.89471,0,0,0-4.22924,4.88358c-1.92922,2.49748-3.86647,5.01158-5.76811,7.55384-2.28567,3.05424-4.52141,6.14811-6.63259,9.30168a.80184.80184,0,0,0,.06315.97407c.54244.62164,1.19965,1.307,1.81785,1.93495.33866.34612.66642.67388.95513.96375a39.92441,39.92441,0,0,0,3.71839,3.33552c.80418.62795,1.60146,1.26625,2.41136,1.88615.32031.24568.64117.48791.96662.72612.46552.34153.93679.67446,1.41893.99359.08554.05741.17048.11366.256.17048.12627.08266.25255.16589.37713.24854l.01892.01263c.10791.07116.21641.14236.32431.213q.15759.10332.31629.20663l.02064.01321.01378.00919c.6911.44886,1.3776.87936,2.07961,1.28231a21.19579,21.19579,0,0,0,4.21718,1.89477,3.33017,3.33017,0,0,0,1.96308.18024c1.05214-.3272,1.544-1.50617,1.87756-2.55545a32.81159,32.81159,0,0,0,1.64794-7.90227,10.40423,10.40423,0,0,0-.221-3.82341c-.27782-.81222-.77089-1.49067-1.01139-2.28567a.14459.14459,0,0,0,.15039-.13029q.02756-.3375.062-.67388.04908-.48387.1102-.96489a22.54834,22.54834,0,0,0,1.47232-2.401c.0947-.186-.19-.32261-.31053-.17164-.35072.43624-.671.9-.985,1.36956a28.74136,28.74136,0,0,1,2.28912-7.49585,42.93491,42.93491,0,0,1,2.51068-4.36585c.53037-.85009,1.05329-1.70191,1.52454-2.57956q.22387-.415.42821-.83631c.23019-.4747.442-.95859.62854-1.45452a3.036,3.036,0,0,0,.23016-1.34948Z"/>
    <path class="cls-6" d="M203.95312,133.55085c-.10677.57745-.20722,1.16982-.33408,1.7731-1.61754,7.68987-6.2256,20.14682-6.29908,20.34485.41788-2.31208-8.552-7.7909-8.552-7.7909s-8.36718-4.66605-11.30551-4.00365q-.07835.01721-.15152.0396a3.07273,3.07273,0,0,1-.04076-.82943,4.18,4.18,0,0,1,.21065-.87247c.0815-.1062.16015-.21469.23592-.32834a17.42172,17.42172,0,0,0,1.299-3.34125c.182-.47526.36507-.95.55276-1.42294q2.075-4.21116,4.05071-8.4711,1.32683-2.85852,2.65592-5.71589a8.10606,8.10606,0,0,0,.58089-1.43673q.28324-.51916.57226-1.03377.61218-1.09949,1.24789-2.18463a.2864.2864,0,0,1-.00975-.06718.29119.29119,0,0,1,.0861-.20261.287.287,0,0,1,.20489-.08208.50824.50824,0,0,0,.05111.0023c.012-.00346.02353-.00575.035-.008l.02184-.01265.0132-.00688c-.61419-2.28394-2.22944-8.29315-2.257-8.38959.0706.04248,3.60933.07291,3.83777.093,2.579.22386,3.93994-.76,6.20149.14752a.08.08,0,0,1,.0224.00861c.10562.04191.21581.09012.326.14179.02238.01032.04535.02238.06888.03386q.12228.05854.24165.11938c.06372.03215.128.06544.19171.09988,7.947,4.231,7.63076,15.90439,6.24169,23.39624Z"/>
    <path class="cls-12" d="M149.306,116.04328a19.35165,19.35165,0,0,1-2.41364,6.17221q-.17048.32029-.33983.63888a43.66783,43.66783,0,0,0-4.0754,10.19366,25.165,25.165,0,0,0-.48388,9.599c.058.3932.12685.79156.20494,1.1836l.01834.0907-.01435-.00919-.02066-.01321c-.10562-.06887-.21064-.13775-.31626-.20663-.10792-.0706-.21641-.1418-.32432-.213l-.01894-.01263c-.12454-.08322-.25085-.16588-.37654-.2491a21.11116,21.11116,0,0,1-.357-4.79118,31.26443,31.26443,0,0,1,2.86426-11.54545c.83863-1.9097,1.82706-3.76084,2.68287-5.31982.05282-.09415.1039-.1877.15558-.28241l.00574-.0178.01147-.01262a21.986,21.986,0,0,0,2.28853-5.3118.24428.24428,0,0,1,.2428-.18828.27851.27851,0,0,1,.2101.09529.24267.24267,0,0,1,.05623.19975Z"/>
    <path class="cls-12" d="M187.62223,121.27472A14.38577,14.38577,0,0,1,187,123.07192c-1.97629,4.38247-3.65867,8.009-5.29687,11.4134-.94768,1.9694-1.90225,3.88313-2.71156,5.4949-.3599.71578-.7376,1.48495-1.0642,2.2587a3.246,3.246,0,0,0-.22847,1.49068l.00517.03329.00114.008a.45738.45738,0,0,1,.00632.066q-.06714.155-.13431.3111l-.004.00918a.54516.54516,0,0,1-.31628.10678c-.02182.07462-.0442.14749-.06543.21926l-.233.2692a3.56764,3.56764,0,0,1-.15557-.81452,5.22839,5.22839,0,0,1,.44428-2.41881c.31-.70316.65207-1.3954.9448-1.97916.434-.86388.87134-1.74324,1.29954-2.614,1.338-2.71618,2.70068-5.56437,4.04959-8.46766l.02985-.06486q1.3113-2.82579,2.626-5.651c.07116-.15328.14866-.32431.22729-.50112.14006-.3111.28529-.63367.41959-.90347.37081-.74448.5677-.74276.63255-.74276a.20168.20168,0,0,1,.15153.06716c.07292.08381.1039.21124-.00574.61247Z"/>
    <path class="cls-13" d="M140.24772,151.04522c-.13317.1768-.26577.35188-.40006.52693a8.72727,8.72727,0,0,1-1.458-.36851c-1.01138-.3289-1.99294-.7416-3.0049-1.06762a10.31988,10.31988,0,0,0-2.72593-.6383,4.56289,4.56289,0,0,0-2.47565.71349,25.97792,25.97792,0,0,0-4.10411,3.37109c-2.8459,2.61-5.52418,5.39445-8.20016,8.17607a.29531.29531,0,0,1-.42591-.4087c1.5188-1.5785,3.037-3.15815,4.58683-4.70679,1.36382-1.36326,2.75291-2.7024,4.185-3.9939a18.59875,18.59875,0,0,1,4.28778-3.29591,4.5606,4.5606,0,0,1,2.35225-.43853,12.55544,12.55544,0,0,1,2.75808.69855c.89486.29619,1.76735.65551,2.657.96548a10.63012,10.63012,0,0,0,1.96766.46665Z"/>
    <path class="cls-13" d="M132.00049,158.39185a.32158.32158,0,0,1-.04764.07,2.70121,2.70121,0,0,1-.57114.42708c-.21525.13775-.40982.3042-.61819.45114q-.66986.471-1.34087.94195c-.89313.62738-1.78227,1.26051-2.68,1.88156-.57228.39607-2.35915,1.36842-1.171,2.13644.85068.55045,2.16972-.03445,2.98481-.40524-.0195.01032-.0373.02123-.05684.03214q-1.09778.61647-2.22251,1.16808a1.96369,1.96369,0,0,1-1.15317-.3972,1.31,1.31,0,0,1-.50568-1.31447,2.19329,2.19329,0,0,1,.9999-1.15718c1.25131-.8828,2.52674-1.73175,3.79185-2.59448.61991-.42247,1.23122-.9075,1.89018-1.26854a1.40021,1.40021,0,0,1,.5166-.18138c.186-.01837.24336.09012.18367.21008Z"/>
    <path class="cls-13" d="M130.47766,155.47708c-2.12954,1.95561-4.29351,3.87507-6.38861,5.86857q-1.55067,1.47577-3.06861,2.9848-.2583.25743-.51372.5166c-.07577-.20148-.14638-.4058-.21525-.61073.10618-.1062.2118-.21123.318-.31685,1.03609-1.02975,2.0865-2.04688,3.15874-3.041a83.8069,83.8069,0,0,1,6.54762-5.5942c.11423-.08552.26633.097.16185.19286Z"/>
    <path class="cls-13" d="M128.89055,153.34985c-2.0176,2.10254-4.06565,4.1787-6.10046,6.26348q-1.47491,1.51191-2.9297,3.04507l-.04994.05223c-.0488-.15326-.09814-.30708-.14867-.45863-.01723-.05223-.03557-.10561-.054-.15843q1.43269-1.48608,2.8878-2.95207c2.02393-2.04057,4.10983-4.03753,6.26-5.94492.09931-.08783.22444.05969.13489.15327Z"/>
    <path class="cls-12" d="M183.87688,106.11939a13.095,13.095,0,0,1-1.24845,4.09549c-2.99053,6.06834-10.19481,8.28511-16.51915,7.09005a11.20867,11.20867,0,0,1-4.75614-1.85976,6.55076,6.55076,0,0,1-2.39991-4.07539,8.82088,8.82088,0,0,1,1.78457-6.799q.38055-.0267.77146-.04649c-1.57794,2.25008-2.55947,4.90484-1.59285,7.66232a5.73536,5.73536,0,0,0,3.00144,3.3028,14.46656,14.46656,0,0,0,4.596,1.21975,16.02374,16.02374,0,0,0,8.97448-1.46543,12.08344,12.08344,0,0,0,5.82151-6.23191,11.42676,11.42676,0,0,0,.77319-3.03245c.26575.04593.53039.09186.79383.14006Z"/>
    <path class="cls-5" d="M147.03067,165.0755v.1418a3.72855,3.72855,0,0,1-3.88253,3.55074H113.36846v-5.35827h31.84093a1.74838,1.74838,0,0,1,1.82128,1.66573Z"/>
    <path class="cls-5" d="M121.92449,168.768H76.80924a4.73278,4.73278,0,0,1-4.35436-3.51862l-6.47816-27.32354-.00173-.00573-.00172-.00518a2.69281,2.69281,0,0,1,2.68632-3.51861h45.11583a4.73392,4.73392,0,0,1,4.35435,3.51861l6.0448,25.4948.43623,1.83965a2.69257,2.69257,0,0,1-2.68631,3.51862Z"/>
    <path class="cls-4" d="M95.92688,154.26019a3.60181,3.60181,0,0,1-3.31369-2.67769,2.04906,2.04906,0,0,1,2.044-2.67831,2.75788,2.75788,0,0,1,.3157.01838,3.63756,3.63756,0,0,0,2.99742,2.657l.00115.00288a2.0491,2.0491,0,0,1-2.04459,2.67769Z"/>
    <path class="cls-7" d="M126.44818,168.14755a2.66682,2.66682,0,0,0,1.71512.62049h-6.35017l-.13488-1.14741-.2451-2.08248,1.59974-2.12838h5.13041a2.67927,2.67927,0,0,0-1.71512,4.73778Z"/>
    <path class="cls-7" d="M121.92449,168.768H76.80924a4.73278,4.73278,0,0,1-4.35436-3.51862l-6.47816-27.32354c.17047.58147,7.56819,25.48389,21.36944,25.48389h36.82841l.43623,1.83965a2.69257,2.69257,0,0,1-2.68631,3.51862Z"/>
    <path class="cls-3" d="M273.70615,171.56859H13.2939a.43616.43616,0,0,1-.4363-.43624v-2.05491a.43618.43618,0,0,1,.4363-.43625H273.70615a.436.436,0,0,1,.43625.43625v2.05491a.436.436,0,0,1-.43625.43624Z"/>
  </g>
</svg>
