<svg id="Layer_1" data-name="Layer 1" xmlns="http://www.w3.org/2000/svg" width="100" height="100" viewBox="0 0 100 100">
  <defs>
    <style>
      .cls-1 {
        fill: #1e0e12;
      }

      .cls-2 {
        fill: #f8a383;
      }

      .cls-3 {
        fill: #d37a64;
      }

      .cls-4 {
        fill: #040427;
      }

      .cls-5 {
        fill: #8bd7f8;
      }

      .cls-6 {
        fill: #202346;
      }
    </style>
  </defs>
  <g>
    <path class="cls-1" d="M52.50142,34.58434s4.57284,1.581,5.48753-1.95226A9.02127,9.02127,0,0,1,61.72876,30.214c1.95294-.46577,3.53392-1.48849,2.47476-3.49275-.87758-1.65725-1.452-2.45921-.70746-2.83118.74391-.372,3.45494-.14986,2.79744-1.79564-.65885-1.64648-2.8413-1.68022-1.98265-2.82512.85935-1.14491,3.01278-3.28483,1.98265-3.93557-1.03082-.65143-2.68539-.74527-2.09-1.67481.594-.92956,2.17572-3.44077.78037-3.44077s-2.97632-.55827-2.79-2.13858c.18564-1.581-.16876-3.97135-1.56343-3.4124C59.2351,5.2248,58.95428,5.84652,57.989,3.6148c-1.19349-2.75964-3.38878-2.603-3.88764-1.76662-.4982.83706-1.77068,2.13857-3.1343.7439C49.60273,1.19673,46.80665-1.2213,45.45991.733c-1.34741,1.95226-2.547,4.16846-3.756,4.16846s-3.7398.46445-4.14821,2.23242c-.40908,1.76594.55016,3.82891-.56569,4.20021-1.11588.37261-3.162,2.79068-2.32491,4.18535s.61567,3.31317-.50021,3.74992c-1.11654.43474-2.603,2.92434-1.5155,4.319,1.08684,1.39737,1.57828,2.19663,1.423,3.85121-.2869,3.05326,1.28193,4.16914,3.38407,3.79719,2.10279-.372,2.85683.09382,3.68918,1.48849.83165,1.394,3.70335,2.1217,6.17339.64131l5.18239,1.21779Z"/>
    <path class="cls-2" d="M56.40122,36.89978c-2.40252-4.76657-2.23916-15.30485-2.23916-15.30485s-7.90221,4.81245-7.965,5.91012a37.6256,37.6256,0,0,1-1.95631,10.39316c-.29566.63522-3.89441,1.35889-6.35633,1.78618v8.59482l23.4393-3.55958V38.39571c-2.491-.87081-4.92251-1.49593-4.92251-1.49593Z"/>
    <path class="cls-3" d="M44.558,37.05233a41.51376,41.51376,0,0,0,1.59718-8.9654l6.61083-4.47359h1.40681c.03713,1.25695.11341,2.96956.28825,4.80436-1.444,3.17613-5.42272,10.70234-9.90307,8.63463Z"/>
    <path class="cls-4" d="M65.183,90.799A65.96771,65.96771,0,0,0,62.06427,74.9743a15.324,15.324,0,0,1,1.43381-13.51395c3.943-6.1403,1.89624-20.86462,1.89624-20.86462-1.66807-1.64377-7.02464-3.60751-8.7872-3.68715-.01081.00539-5.91687,7.68415-12.62018.97612l-10.09344,2.711S31.5551,55.01559,36.427,60.437c4.41015,4.92859,1.60867,12.00857.89782,13.93382A68.83364,68.83364,0,0,0,33.585,90.799s.99841,3.621,7.59978,8.13105l8.445-8.13105L57.76888,98.93S64.62611,93.21364,65.183,90.799Z"/>
    <path class="cls-5" d="M56.60712,36.90858c-.01081.00539-5.91687,7.68415-12.62018.97612,0,0,3.66556,15.50468,6.4029,20.228,0,0,5.51116-15.30488,6.21728-21.20417Z"/>
    <path class="cls-2" d="M41.98405,14.26785a45.47454,45.47454,0,0,0,.405,10.726c.54613,2.844,3.941,6.00867,5.74473,6.79444,0,0,.49482.28217,2.25671-.0081,2.17369-.35913,5.48685-3.61425,6.55682-7.89142a2.13863,2.13863,0,0,0,2.27224-1.73622c.671-2.00426-.20319-4.8125-2.30059-2.93988,0,0,.563-8.81827-3.30778-9.35627C49.73166,9.32509,42.32361,8,41.98405,14.26785Z"/>
    <path class="cls-2" d="M42.23719,23.81179a2.301,2.301,0,0,1-2.43221-1.747c-.66966-2.00424.19779-4.81182,2.29653-2.94056"/>
    <path class="cls-6" d="M44.558,37.05233l5.8318,21.06042-6.4029-3.97136.82087-5.26-4.02535-.376,1.56072-10.18052s1.96036-2.26212,2.21486-1.27251Z"/>
    <path class="cls-6" d="M56.27971,36.34489,50.38984,58.16541l6.40292-3.97136-.82155-5.26072,4.02468-.37466-1.502-10.942s-1.9597-2.26208-2.2142-1.27179Z"/>
    <polygon class="cls-2" points="24.219 96.913 26.797 55.305 33.912 52.94 28.404 97.493 24.219 96.913 24.219 96.913"/>
    <path class="cls-4" d="M33.91172,61.4941l1.29341-7.06243S37.80072,41.64543,38.548,39.61082c0,0-7.622.40841-10.22642,3.756-.88905,1.14286-1.84087,8.12767-2.709,16.8278,0,0,4.07193,2.69483,8.29913,1.29948Z"/>
    <polygon class="cls-2" points="75.781 99.419 72.932 54.182 65.818 51.819 71.596 100 75.781 99.419 75.781 99.419"/>
    <path class="cls-4" d="M74.49205,60.60641c-.86474-9.0255-1.83278-16.4059-2.75624-17.59263-2.60437-3.349-10.41208-4.664-10.41208-4.664.748,2.03326,3.34288,14.8195,3.34288,14.8195l1.01124,10.22643s5.7805.55355,8.8142-2.78933Z"/>
    <path class="cls-1" d="M41.386,18.6375a.93242.93242,0,0,0,.85124.76552c.73851.05467,1.08617-4.78143,1.74975-5.99047.6629-1.21037,1.03418,1.39467,10.47417-.55827,0,0,1.2421,8.15941,2.45788,6.35836A1.45147,1.45147,0,0,1,58.86586,18.89S61.32373,6.25223,49.62838,5.69263c0,0-10.595-1.04028-9.83287,13.709,0,0,.73919-1.529,1.59044-.76416Z"/>
  </g>
</svg>
