<svg id="Layer_1" data-name="Layer 1" xmlns="http://www.w3.org/2000/svg" width="100" height="100" viewBox="0 0 100 100">
  <defs>
    <style>
      .cls-1 {
        fill: #f8a383;
      }

      .cls-2 {
        fill: #d37a64;
      }

      .cls-3 {
        fill: #3a6591;
      }

      .cls-4 {
        fill: #140505;
      }

      .cls-5 {
        fill: #8bd7f8;
      }

      .cls-6 {
        fill: #b72c33;
      }

      .cls-7 {
        fill: #3c5873;
      }
    </style>
  </defs>
  <g>
    <path class="cls-1" d="M63.78951,41.90242S54.8436,39.6221,54.363,38.57879c-.74717-1.60007-1.81346-6.403-2.09644-11.114C52.19627,26.29152,43.74866,21.14,43.74866,21.14s.17269,11.27287-2.3998,16.3719c0,0-2.60137.6697-5.26578,1.59941v6.76411L61.47834,49.7348c2.72878-1.83975,2.64144-7.3708,2.31117-7.83238Z"/>
    <path class="cls-2" d="M54.0163,37.674a45.13172,45.13172,0,0,1-1.71039-9.58873l-7.06352-4.78058H43.725c-.03479,1.33878-.11622,3.17131-.30071,5.13646,1.54165,3.39913,5.7996,11.44621,10.592,9.23285Z"/>
    <path class="cls-3" d="M65.02457,97.73882a3.7301,3.7301,0,0,0,.62638-2.05838l-.22063-54.21662L54.63481,38.56437c-7.17842,7.181-13.49408-1.03808-13.5-1.04333-1.88834.08669-12.81058.98161-12.481,8.27032,0,0,1.00194,50.00463,1.9356,51.21734,0,0,3.80292,4.298,7.5415,5.73657l9.98663-3.84692,9.92816,3.84692s5.881-3.694,6.97883-5.00645Z"/>
    <path class="cls-1" d="M56.774,13.303a48.732,48.732,0,0,1-.43466,11.47049c-.58567,3.04523-4.21789,6.43189-6.14759,7.27229,0,0-.52722.30008-2.41752-.01246-2.323-.38213-5.86853-3.86463-7.01033-8.43971a2.2923,2.2923,0,0,1-2.4333-1.85615c-.71174-2.14309.21471-5.14827,2.46284-3.14634,0,0-.60274-9.43574,3.54555-10.00633,4.14369-.57056,12.06995-1.98489,12.435,4.71821Z"/>
    <path class="cls-1" d="M56.50082,23.51287a2.45554,2.45554,0,0,0,2.60136-1.86864c.719-2.14635-.2147-5.15022-2.46282-3.14962"/>
    <path class="cls-4" d="M44.84384,5.07066s-6.25263-.33085-4.85016,12.98668c0,0,1.30922,1.96185,1.761,1.50947.45238-.45172.04663-1.58235,0-2.80164-.046-1.216,1.038-5.95847,1.49044-6.14165.45108-.17992,4.60461,3.45886,11.94061,2.37354,0,0,1.019,3.70968.56794,5.81731-.45173,2.105.499.843.7472.48061.2495-.35915,1.10764-1.45695,1.10764-1.45695s1.80168-5.91187-.67824-9.83691a3.65875,3.65875,0,0,0,.00132-1.46851c-.12806-1.12466-1.91394-.72073-4.93883-1.05158,0,0,1.48389-.33342,1.75044-1.19006.26068-.86044-8.1009.66682-8.89931.77969Z"/>
    <path class="cls-3" d="M34.77188,38.699s-8.04839,1.35452-10.73248,4.80486c-2.68412,3.451-5.72868,57.56321-5.72868,57.56321s3.97953,3.47,7.23881.97765L31.32548,53.973S34.0004,40.79476,34.77188,38.699Z"/>
    <path class="cls-5" d="M54.363,38.57879S48.81879,56.8285,47.51285,59.944c0,0-5.70766-19.35472-6.378-22.42294,0,0,4.02615,5.187,13.22814,1.05775Z"/>
    <path class="cls-6" d="M48.68945,44.295l1.31382,11.21507L48.304,59.789l-.79118.155s-.97043-.04792-.97043-.155c0-.10834-1.36634-4.6381-1.36634-4.6381l1.973-11.57554,1.54034.71962Z"/>
    <path class="cls-7" d="M53.81473,37.01943,47.51285,59.944l.935,1.72615,6.12264-6.77-1.39-4.34983L57.921,49.591l-.98946-10.41076s-2.302-2.49632-3.11681-2.1608Z"/>
    <path class="cls-7" d="M41.69358,36.75219,47.51285,59.944l-.93366,1.72615-6.12262-6.77,1.38932-4.34983L37.106,49.591l.9888-11.72456s2.78325-1.44976,3.59874-1.11424Z"/>
    <path class="cls-6" d="M46.34348,40.19071c.27839-.4189,1.40575-.40774,1.40575-.40774s1.1267-.01116,1.40574.40774a10.91865,10.91865,0,0,1,.84633,2.66573L48.68945,44.295h-1.694l-1.49963-1.43857a10.9104,10.9104,0,0,1,.84764-2.66573Z"/>
    <path class="cls-3" d="M56.93154,39.18023s11.52038,1.956,14.2045,5.40761,5.72933,57.56321,5.72933,57.56321-3.98085,3.46938-7.23884.97765L63.84994,55.05705s-6.1476-13.78036-6.9184-15.87682Z"/>
  </g>
</svg>
