<svg id="Layer_1" data-name="Layer 1" xmlns="http://www.w3.org/2000/svg" xmlns:xlink="http://www.w3.org/1999/xlink" width="100" height="100" viewBox="0 0 100 100">
  <defs>
    <style>
      .cls-1 {
        fill: none;
      }

      .cls-2 {
        clip-path: url(#clip-path);
      }

      .cls-3 {
        fill: #49464d;
      }

      .cls-4 {
        fill: #48464d;
      }

      .cls-5 {
        fill: #3c3a3f;
      }

      .cls-6 {
        fill: #e2825c;
      }

      .cls-7 {
        fill: #3e3432;
      }

      .cls-8 {
        fill: #d2673d;
      }

      .cls-9 {
        fill: #4c372f;
      }

      .cls-10 {
        fill: #37383c;
      }

      .cls-11 {
        fill: #a14c2d;
      }

      .cls-12 {
        fill: #463a39;
      }

      .cls-13 {
        fill: #d56632;
      }

      .cls-14 {
        fill: #b9613f;
      }

      .cls-15 {
        fill: #d16632;
      }

      .cls-16 {
        fill: #3c3a3e;
      }

      .cls-17 {
        fill: #b25629;
      }

      .cls-18 {
        fill: #734432;
      }

      .cls-19 {
        fill: #744432;
      }

      .cls-20 {
        fill: #6e4131;
      }

      .cls-21 {
        fill: #975135;
      }

      .cls-22 {
        fill: #453b39;
      }

      .cls-23 {
        fill: #3e3a3c;
      }

      .cls-24 {
        clip-path: url(#clip-path-2);
      }

      .cls-25 {
        fill: #3b546c;
      }

      .cls-26 {
        fill: #c29b86;
      }

      .cls-27 {
        fill: #c39c8a;
      }

      .cls-28 {
        fill: #3e536a;
      }

      .cls-29 {
        fill: #2f4158;
      }

      .cls-30 {
        fill: #31435b;
      }

      .cls-31 {
        fill: #fac0c1;
      }

      .cls-32 {
        fill: #f9bfc1;
      }

      .cls-33 {
        fill: #b07e6d;
      }

      .cls-34 {
        fill: #304259;
      }

      .cls-35 {
        fill: #fcfdf8;
      }

      .cls-36 {
        fill: #fac0c0;
      }

      .cls-37 {
        fill: #2e4258;
      }

      .cls-38 {
        fill: #a17c6c;
      }

      .cls-39 {
        fill: #9c7768;
      }

      .cls-40 {
        fill: #9f7769;
      }

      .cls-41 {
        fill: #d3dadc;
      }

      .cls-42 {
        fill: #fac2c3;
      }

      .cls-43 {
        fill: #dfa5b0;
      }

      .cls-44 {
        fill: #2a2b41;
      }

      .cls-45 {
        fill: #dc8682;
      }

      .cls-46 {
        fill: #3c484f;
      }

      .cls-47 {
        fill: #332c41;
      }

      .cls-48 {
        fill: #1d233b;
      }

      .cls-49 {
        fill: #473b4f;
      }

      .cls-50 {
        fill: #c58083;
      }
    </style>
    <clipPath id="clip-path">
      <rect class="cls-1" x="-13.69934" y="-132.71491" width="119.09111" height="112.66363"/>
    </clipPath>
    <clipPath id="clip-path-2">
      <rect class="cls-1" x="17.59593" width="64.80815" height="100"/>
    </clipPath>
  </defs>
  <g class="cls-2">
    <g>
      <path class="cls-3" d="M24.59086-69.73015a11.982,11.982,0,0,0-.03339,2.57328c.27118,2.7086.41463,5.42687.61507,8.14294.41461,3.69129.5915,7.40266.93145,11.10139a2.94421,2.94421,0,0,1-.6583,2.18829c.76049-.095,1.52686-.15765,2.29915-.1926a2.6994,2.6994,0,0,1-1.16334,1.438,58.34145,58.34145,0,0,0-5.47474,3.55631c1.66051.05,3.321-.01243,4.9815.02753-.00588.10244-.01768.30749-.02162.41009a37.06585,37.06585,0,0,0-6.866.22013c2.2736.2651,4.5649.055,6.8503.12009a41.3893,41.3893,0,0,0-1.50133,8.728c-.336,5.18689-.72511,10.37119-1.30482,15.538a7.32714,7.32714,0,0,0,.07465,2.04064c1.01795-6.91745,2.15769-13.82227,2.96534-20.76725,2.49568.33257,4.77518,1.558,7.30425,1.70063a19.21766,19.21766,0,0,0-3.80837-1.22305c-1.12206-.32756-2.24412-.64006-3.378-.92282q.13263-.91881.29477-1.83562c1.9808.25769,3.81815,1.12548,5.82645,1.22308A34.79926,34.79926,0,0,0,26.721-37.26381c.41069-2.81846.76442-5.642,1.17118-8.46044a20.639,20.639,0,0,0-.10022-5.46949c-.676-4.84424-1.56617-9.65839-2.44456-14.475a31.58765,31.58765,0,0,0-.75658-4.06144ZM41.304-86.01843c.055.42014.10219.84028.1297,1.26542-.38126,2.881.11788,5.76711.04126,8.65308-.14738-.72782-.34585-1.4456-.52075-2.1682-.28692.76276-.3596,1.778-1.22425,2.17823-1.13583.57015-2.35223.97786-3.50178,1.51791.71721,3.814,2.00438,7.50027,3.06357,11.234.74869,2.33085,1.15744,4.7792,2.34437,6.96506.14541-1.94066.01568-3.88631.15915-5.82715.13952.52519.28491,1.05537.395,1.59059-.03538,2.98115-.12774,5.9647,0,8.94567.07271,4.194-.10612,8.388-.1808,12.582-.15328,1.88059-.34976,3.76136-.34585,5.652-.08449,2.52828-.18078,5.05676-.31441,7.58261-.03932.68284-.04323,1.36789-.02752,2.05071.0118.52777.01967,1.05537-.01571,1.58315a37.53311,37.53311,0,0,0-.37141,5.07666,11.237,11.237,0,0,1-.75262,3.50874,2.62081,2.62081,0,0,0,.42836,2.00571c1.743,3.34552,3.14417,6.83678,4.87739,10.18674a19.39191,19.39191,0,0,1,1.3657,4.61786c-.47944,10.695-1.04736,21.38816-1.5642,32.07946-.46964,8.28014-.678,16.57143-.86265,24.86086-.19061,6.52335-.395,13.043-.55417,19.56632-.46376-.02231-.92752-.039-1.38735-.05576-3.62951-.2231-7.2669-.19335-10.89448-.4313.26531-3.28677,1.01793-6.51217,1.466-9.7748.57772-3.53216,1.126-7.068,1.7273-10.59462a64.83364,64.83364,0,0,0,1.13976-9.45876c-.01571-1.84046.21222-3.6716.19061-5.50833-.24367-5.8894-.70743-11.764-1.124-17.64409-.44608-7.30971-1.13779-14.60269-1.56224-21.91242-.13757.805-.27118,1.61177-.40875,2.42046-2.36989-4.3241-4.7398-8.65381-6.71667-13.15451C25.98413-7.59271,25.99-8.816,25.77581-10.002c1.71749-.94011,3.72974-1.05257,5.6418-1.39018,1.95526-.34764,3.94786-.49264,5.8815-.96038-2.05351-.04-4.09524.23256-6.14681.22252-1.77839-.00242-3.55091.11508-5.31949.25768-.02555.19259-.07664.58019-.10219.77522-.07861-.32515-.14738-.65012-.20634-.97285-.48734.01748-.97075.03756-1.45415.05261-.07861.79271-.12577,1.58782-.16118,2.38534-3.44478.03531-6.88369.25282-10.32654.35879.7841-13.64048,1.56421-27.28522,3.04983-40.87513C17.717-59.89418,19.08666-69.6227,21.0144-79.256c5.66732-1.72314,11.40147-3.24625,17.12185-4.80671,1.238-.34505,2.11247-1.308,3.16772-1.9557Z"/>
      <path class="cls-3" d="M17.81523,5.55624c.08254.75477.167,1.51325.281,2.268l.03339.18217a29.7407,29.7407,0,0,1,5.88743,2.10071c1.22621.67853,2.79632,1.30319,3.17754,2.73836.49717,1.74563.61116,3.56375.97076,5.33728.61114,3.09344,1.03364,6.21289,1.50918,9.32676a75.78968,75.78968,0,0,1,1.23408,13.05228c-6.133.75665-12.25234,1.61552-18.39131,2.30706a42.95939,42.95939,0,0,0-.75456-5.67377C10.56012,29.69766,9.24547,22.21505,7.9996,14.72127c-.40677-1.8051-.42837-3.77382-1.58583-5.33541q4.1886-.49638,8.3654-1.134c.31045-.0725.62489-.1506.93932-.22311.49518.026.99236.05392,1.4915.06508a5.67858,5.67858,0,0,0,.60524-2.53759Z"/>
      <path class="cls-4" d="M45.43066-22.34359c.4677.00243.94129.01509,1.41683.02512.99432,1.91813,3.38781,2.84839,4.09723,4.93908.47748,1.69823.23187,3.48122.30851,5.21943,2.54872.06747,5.10334.02248,7.64815.205,1.50133.085,3.01051-.045,4.51381.085a10.14253,10.14253,0,0,1,4.90287,2.17282c.46575,6.24263.91379,12.48714,1.238,18.73721a13.49835,13.49835,0,0,0-4.02647.5893c-.98845.65439-.94328,1.9557-.94328,2.97445.285,4.58812.68975,9.17063,1.08867,13.74943.34,3.74965.49326,7.51606.92164,11.25643a7.2598,7.2598,0,0,0,1.10241,2.91311c1.54458-.12268,3.09109-.25653,4.64351-.30673-.3773.04647-.76049.0502-1.128.08179.9629,13.13221-.33209,26.27186-1.27141,39.37247-.62882.02974-1.25569.05019-1.87861.07436-.77033.02418-1.54065.04089-2.30507.08738C64.1069,67.17018,62.66844,54.48042,61.12,41.80554c-.34193-3.74223-.74084-7.48261-1.07687-11.223-.34586-4.9785-.96486-9.94027-1.181-14.92992l-.22793.00744c-.02361,1.00017-.05306,2.00219-.09631,3.00235-1.32447-2.03566-2.32273-4.23861-3.58236-6.30585-1.56814-3.06927-3.37014-6.0177-4.94612-9.08137C48.57678.47178,46.47414-2.15689,46.15971-5.347c-.17881-1.48166-.5227-2.941-.62686-4.42637a25.29213,25.29213,0,0,0,.0393-5.52021c-.23187-2.34331-.14149-4.69926-.14149-7.05Z"/>
      <path class="cls-5" d="M41.30594-22.21344c.93932-.03513,1.87665-.07771,2.816-.11-.21222,2.896-.57576,5.77693-.83517,8.66792a3.18669,3.18669,0,0,0,.2928,2.01817,10.818,10.818,0,0,0,1.95331,1.864c.10416,1.48538.448,2.94471.62686,4.42637.31443,3.19009,2.41707,5.81876,3.84963,8.6222,1.576,3.06367,3.378,6.0121,4.94612,9.08137,1.25963,2.06724,2.25789,4.27019,3.58236,6.30585.04325-1.00016.0727-2.00218.09631-3.00235l.22793-.00744c.21616,4.98965.83516,9.95142,1.181,14.92992.336,3.74036.73494,7.48074,1.07687,11.223,1.54849,12.67488,2.98695,25.36464,4.63958,38.02653-.87842.052-1.74695.158-2.61749.27325-.1199.01676-.35766.0465-.4736.0651-.31638.02971-.63081.05762-.94323.08178-1.03954.0632-2.06925.19707-3.095.35323-1.2105-12.16553-2.20485-24.36451-4.223-36.44079-2.25-14.66218-4.86163-29.27233-7.34947-43.90106-.06875-.329-.14738-.6544-.226-.97787-.00591,1.29947.07664,2.5971.02158,3.89656a19.39191,19.39191,0,0,0-1.3657-4.61786c-1.73322-3.35-3.13434-6.84122-4.87739-10.18674a2.62081,2.62081,0,0,1-.42836-2.00571,11.237,11.237,0,0,0,.75262-3.50874,37.53311,37.53311,0,0,1,.37141-5.07666Z"/>
      <path class="cls-5" d="M23.33322,7.06207c1.45024-.06506,2.87493-.36067,4.31728-.52613.0177-.30489.04325-.60788.07273-.90719-.96487,1.45749-3.22669.38854-4.39,1.43332ZM26.30247-6.42522c1.97687,4.5007,4.34678,8.83041,6.71667,13.15451.13757-.80869.27118-1.61549.40875-2.42046.42445,7.30973,1.11616,14.60271,1.56224,21.91242.4166,5.88012.88036,11.75469,1.124,17.64409.02161,1.83673-.20632,3.66787-.19061,5.50833a64.83364,64.83364,0,0,1-1.13976,9.45876c-.60133,3.52658-1.14958,7.06246-1.7273,10.59462-.448,3.26263-1.20067,6.488-1.466,9.7748-.51288.00743-1.01987.05577-1.52685.1134a17.17025,17.17025,0,0,1-.02164-3.66416c.4284-11.69145,1.13976-23.38662.86661-35.08925a75.78968,75.78968,0,0,0-1.23408-13.05228c-.47554-3.11387-.898-6.23332-1.50918-9.32676-.3596-1.77353-.47359-3.59165-.97076-5.33728-.38122-1.43517-1.95133-2.05983-3.17754-2.73836a29.7407,29.7407,0,0,0-5.88743-2.10071l-.03339-.18217c1.49346-.20263,2.99283-.37739,4.48627-.59676-.11985-1.21954-.26723-2.43163-.48338-3.63627a1.33761,1.33761,0,0,1,.46769-1.61363,17.26076,17.26076,0,0,1,.92162,3.72363c1.354-.18962,2.71577-.342,4.08147-.42756-.40477-3.90212-.896-7.79494-1.26745-11.69891Z"/>
      <path class="cls-6" d="M78.82348-9.02975c2.38953.00745,4.77909-.026,7.17258-.03716.393,2.89824.87446,5.78717,1.17905,8.69657.10217.46658-.27315.82166-.505,1.19163a2.215,2.215,0,0,0-.5345,1.54673,7.8162,7.8162,0,0,1-1.80593.9072,5.98691,5.98691,0,0,1-2.43473-.16174A16.176,16.176,0,0,1,79.69006.812c-.06484-.07438-.19454-.225-.26134-.29749a9.68149,9.68149,0,0,0-.94132.87005,2.84371,2.84371,0,0,1-.788-1.54856,31.6755,31.6755,0,0,1-.65436-3.98765c.34782-1.331,1.60352-2.23454,2.0987-3.50427a7.85668,7.85668,0,0,0-.32028-1.37384Z"/>
      <path class="cls-6" d="M15.6674-8.79549c2.138-.01672,4.27995-.02046,6.41993-.07064C21.55284-6.95877,23.681-5.82477,24.133-4.15164A29.10992,29.10992,0,0,1,23.59654.46623a2.43288,2.43288,0,0,1-1.02971,1.51139,1.33761,1.33761,0,0,0-.46769,1.61363c-.32622.48707-.64852.97412-.97862,1.45933a22.86162,22.86162,0,0,1-3.53716-2.02819c-.2987-.26027-.58953-.5354-.87841-.79939-.5345-.49637-1.10438-.95369-1.66837-1.41659.1808-3.20311.4166-6.40251.63082-9.6019Z"/>
      <path class="cls-7" d="M78.4874,1.38457a9.68149,9.68149,0,0,1,.94132-.87005c.0668.07253.1965.22311.26134.29749a19.39054,19.39054,0,0,0,.07662,4.37427,17.83822,17.83822,0,0,0,.4972,2.90755c-.38515.03346-.77229.07063-1.15154.11524-.25351-1.29946-.279-2.63237-.63276-3.91325a4.19121,4.19121,0,0,1,.00782-2.91125Z"/>
      <path class="cls-8" d="M79.69006.812a16.176,16.176,0,0,0,2.20485,2.30147,5.98691,5.98691,0,0,0,2.43473.16174,17.04518,17.04518,0,0,0-4.563,1.91106A19.39054,19.39054,0,0,1,79.69006.812Z"/>
      <path class="cls-9" d="M86.13557,2.368a2.215,2.215,0,0,1,.5345-1.54673,14.92654,14.92654,0,0,1,.70352,5.235c-.0236.29-.05109.5856-.07273.87746-.00981.12269-.03142.36809-.03929.49079-.25547.02416-.507.05392-.75656.0818A23.85013,23.85013,0,0,0,86.13557,2.368Z"/>
      <path class="cls-10" d="M16.705,2.223c.28888.264.57971.53912.87841.79939.02159.84772.15132,1.688.23187,2.53385A5.67858,5.67858,0,0,1,17.21,8.09383c-.0452-.1822-.12971-.54469-.171-.72688-.44214.21936-.88429.44059-1.32051.6618-.31443.07251-.62887.15061-.93932.22311-.22009-.40715-.40285-.82915-.57972-1.2493.89413-.18589,1.78236-.38108,2.67842-.5484.01574-1.41286-.32031-2.81831-.17292-4.23116Z"/>
      <path class="cls-11" d="M87.37359,6.05633c1.3736-.22493,2.759-.37554,4.15222-.46477-.002.36251.01377.72689.04325,1.095-1.42273.09294-2.84351.251-4.2682.24724.02164-.29186.04913-.58745.07273-.87746Z"/>
      <path class="cls-12" d="M97.201,6.562a11.95857,11.95857,0,0,1,4.056-.57256,8.29665,8.29665,0,0,0-1.67032,1.09311A3.29035,3.29035,0,0,0,99.06,8.85045a21.56971,21.56971,0,0,0,.336,5.41352c.21615,3.40387.67991,6.79474,1.2105,10.16889.34583,3.26075.76639,6.51779,1.31857,9.75622a8.48922,8.48922,0,0,0,.85088,2.96144,3.84606,3.84606,0,0,0,1.90615.47035,2.46721,2.46721,0,0,1-1.60746.3848c-.91965.02419-1.83539.06135-2.75309.03533-.7644-5.29825-2.07316-10.50726-2.983-15.78134a58.59525,58.59525,0,0,1-1.27337-10.14847A10.96586,10.96586,0,0,1,97.201,6.562Z"/>
      <path class="cls-13" d="M101.25694,5.98941c.46964.40526,1.15745.68225,1.295,1.33477.27509.96856.72707,1.89622.93341,2.88337a9.125,9.125,0,0,0,.30851,2.19365,43.05219,43.05219,0,0,1,1.22226,4.54906c.29872,1.86275.8018,3.692,1.06511,5.56223.5797,3.45407,1.42273,6.8617,2.1498,10.29162a4.40321,4.40321,0,0,1-.51286,4.24229c-1.00222.2454-2.04963.26771-3.03608.57447a3.84606,3.84606,0,0,1-1.90615-.47035,8.48922,8.48922,0,0,1-.85088-2.96144c-.55218-3.23843-.97274-6.49547-1.31857-9.75622a38.60031,38.60031,0,0,0-.03735-4.49885,17.33877,17.33877,0,0,0-1.17315-5.67,21.56971,21.56971,0,0,1-.336-5.41352,3.29035,3.29035,0,0,1,.52664-1.76793,8.29665,8.29665,0,0,1,1.67032-1.09311Z"/>
      <path class="cls-14" d="M74.8972,6.99143a23.45018,23.45018,0,0,1,3.659-.46477c-.03142.37924-.04716.76034-.053,1.14331-1.10438.21377-2.34436.0725-3.28761.75291l-.19651.039c-.04126-.49262-.08055-.98339-.12184-1.47046Z"/>
      <path class="cls-15" d="M87.26157,7.42458C90.57471,7.142,93.88392,6.8148,97.201,6.562a10.96586,10.96586,0,0,0-1.13578,5.54922,58.59525,58.59525,0,0,0,1.27337,10.14847c.90984,5.27408,2.2186,10.48309,2.983,15.78134-6.5968.28629-13.17.97227-19.75505,1.44262-2.73148.3346-5.48654.46659-8.22393.73245-1.55242.0502-3.09893.184-4.64351.30673a7.2598,7.2598,0,0,1-1.10241-2.91311c-.42838-3.74037-.58166-7.50678-.92164-11.25643-.39892-4.5788-.80369-9.16131-1.08867-13.74943,0-1.01875-.04517-2.32006.94328-2.97445a13.49835,13.49835,0,0,1,4.02647-.5893c1.81965-.17289,3.657-.2677,5.46294-.57819l.19651-.039a22.59025,22.59025,0,0,0,3.89679-.21381c.37925-.04461.76639-.08178,1.15154-.11524,2.083-.16732,4.16207-.39227,6.24113-.58745.24957-.02788.50109-.05764.75656-.0818Z"/>
      <path class="cls-16" d="M4.80632,9.96774c.38908-.4499,1.05723-.44431,1.60745-.58188,1.15746,1.56159,1.17906,3.53031,1.58583,5.33541,1.24587,7.49378,2.56052,14.97639,3.76316,22.47386a42.95939,42.95939,0,0,1,.75456,5.67377c-2.69022.13757-5.37449.35509-8.06469.46849a6.58343,6.58343,0,0,1-.38912-1.96316c-.02358-9.509-.00981-19.01788-.055-28.525a3.89179,3.89179,0,0,1,.79783-2.8815Z"/>
      <path class="cls-17" d="M99.396,14.264a17.33877,17.33877,0,0,1,1.17315,5.67,38.60031,38.60031,0,0,1,.03735,4.49885c-.53059-3.37415-.99435-6.765-1.2105-10.16889Z"/>
      <path class="cls-18" d="M30.06366,79.31525c.507-.05763,1.014-.106,1.52685-.1134,3.62758.238,7.265.2082,10.89448.4313.31048,2.0096.73888,4.00065,1.069,6.00838a16.79887,16.79887,0,0,0,.76051,3.39645c-5.3981,1.32365-11.201.96857-16.40655,3.0414a21.6044,21.6044,0,0,1-8.13546,1.37009,8.51394,8.51394,0,0,1-5.20358-1.8776c-.85286-.67857-.94325-1.79584-1.15744-2.75694.4284-.23424.8273-.51683,1.28124-.71018,2.73739-.68968,5.58087-1.08565,8.25339-1.97986a65.62221,65.62221,0,0,0,5.5396-5.00636,11.70437,11.70437,0,0,0,1.578-1.80328Z"/>
      <path class="cls-19" d="M65.75953,79.83207c.76442-.04649,1.53474-.0632,2.30507-.08738,2.78255,3.28861,5.72234,6.45643,8.501,9.74877a2.34423,2.34423,0,0,1,.21419.86444,10.276,10.276,0,0,1-4.447,1.68617,17.33226,17.33226,0,0,1-7.42412-1.07268c-.91574-.396-2.04173-.97972-2.03389-2.07284-.12378-2.93167.21225-5.86338.26728-8.79323.87054-.11524,1.73907-.22121,2.61749-.27325Z"/>
      <path class="cls-20" d="M61.72521,80.2522c.31242-.02416.62685-.05207.94323-.08178-.21025,2.23454-.14544,4.48771-.37728,6.72411-.03538,1.07825-.31247,2.27918.29083,3.26633a7.19522,7.19522,0,0,0,3.35243,1.846,21.57481,21.57481,0,0,0,8.92349.46476,7.04629,7.04629,0,0,1-4.30552,1.11354,14.45676,14.45676,0,0,1-7.316-1.28829c-.674-.383-1.464-.87374-1.519-1.68985-.1297-1.34411-.09235-2.69745-.25743-4.0397.03341-2.10627.13363-4.21254.2653-6.31513Z"/>
      <path class="cls-21" d="M62.66844,80.17042c.11594-.0186.3537-.04834.4736-.0651-.055,2.92985-.39106,5.86156-.26728,8.79323-.00784,1.09312,1.11815,1.67687,2.03389,2.07284a17.33226,17.33226,0,0,0,7.42412,1.07268,10.276,10.276,0,0,0,4.447-1.68617c.09825.14873.19648.29562.29673.448-.74284.55211-1.47186,1.11727-2.2186,1.66568a21.57481,21.57481,0,0,1-8.92349-.46476,7.19522,7.19522,0,0,1-3.35243-1.846c-.6033-.98715-.32621-2.18808-.29083-3.26633.23184-2.2364.167-4.48957.37728-6.72411Z"/>
      <path class="cls-22" d="M60.96863,90.87658a14.16048,14.16048,0,0,0,.49128-4.30925c.16508,1.34225.12773,2.69559.25743,4.0397.055.81611.845,1.30689,1.519,1.68985a14.45676,14.45676,0,0,0,7.316,1.28829,7.04629,7.04629,0,0,0,4.30552-1.11354c.74674-.54841,1.47576-1.11357,2.2186-1.66568q.504.46847,1.01006.94809c-1.2616,1.91481-3.66886,2.69-5.94052,2.83873-3.24825.23054-6.699.264-9.71734-1.041a2.46077,2.46077,0,0,1-1.46008-2.67515Z"/>
      <path class="cls-23" d="M11.90422,88.9376c.49914-.05762,1.00221-.09664,1.50723-.12267.21419.9611.30458,2.07837,1.15744,2.75694a8.51394,8.51394,0,0,0,5.20358,1.8776,21.6044,21.6044,0,0,0,8.13546-1.37009c5.20551-2.07283,11.00845-1.71775,16.40655-3.0414a6.06443,6.06443,0,0,1,.52666,2.10259c.03735.60045.04519,1.20651.06287,1.81071-3.23257-.00933-6.46317.0725-9.69576.05017-.13754-.6897.03735-1.5244-.39695-2.11187a12.52707,12.52707,0,0,0-3.22472.90907c-1.629.66-2.90242,2.01335-4.7162,2.26618a30.72694,30.72694,0,0,1-7.60295.61718,10.47089,10.47089,0,0,1-7.33568-3.78871c-.452-.57443-.11593-1.32177-.02753-1.9557Z"/>
    </g>
  </g>
  <g class="cls-24">
    <g>
      <path class="cls-25" d="M62.76939,93.81718c2.50429,7.777,2.73049,15.82334,2.97048,23.89168q.45809,15.38815,1.27857,30.7652a21.22293,21.22293,0,0,0,1.73028,7.57077c1.77613,4.05374,2.2998,8.42131,2.69379,12.79661.4186,4.64908.89278,9.29308,1.3225,13.94119.246,2.66023.48406,5.32216.66054,7.9877.07821,1.1791.54634,2.32684.28488,3.53079a25.95252,25.95252,0,0,1-8.25592,1.14944c-.70594-.2832-.7378-.94613-.84209-1.549-2.3196-13.39389-5.76566-26.54683-8.52875-39.84607-2.60784-12.55277-5.58289-25.02419-8.51592-37.50453a3.66025,3.66025,0,0,1-.25256-1.82588c.20618-.70881-.45385.02486-.42535-.30321-.40053-2.12887-.56857-4.29394-1.04006-5.88927.56541,6.02711.38652,12.59187.75034,19.13032-.06687-1.118-.05-2.24088-.04757-3.36036.00074-.30394.21343-.53764.57244-.25759a1.86436,1.86436,0,0,1,.29137,1.09653c-.0432,3.49025.07026,6.97663-.14194,10.47243-.29237,4.8229-.19146,9.66295-.02536,14.49381a13.15068,13.15068,0,0,0,.71268,3.36325,41.28409,41.28409,0,0,1,1.79135,11.878c.05481,7.60939-.387,15.19779-.843,22.78668a10.20628,10.20628,0,0,0,.338,3.405c.51424,1.84157.02825,2.73-1.64506,3.36371a15.296,15.296,0,0,1-5.18865.40053,1.62717,1.62717,0,0,1-1.1598-.44347c-1.51685-.30057-1.58131-1.58906-1.393-2.60473.486-2.62137-.28536-5.1155-.5176-7.6543-.43409-4.74733-1.03474-9.4797-1.583-14.21641-.52028-4.49554-1.076-8.987-1.59122-13.483-.58521-5.10682-1.34377-10.18827-2.12863-15.26732-1.05308-6.81488-2.1489-13.6259-3.03468-20.46323-.85-6.56282-2.08034-13.07786-2.48737-19.70033-.12338-2.004-.22018-4.00131-.19774-6.00706a7.925,7.925,0,0,1,.95121-3.40865c.50626-1.77326,1.99488-2.83672,3.046-4.21644a4.36087,4.36087,0,0,1,1.31478-1.47487A3.14865,3.14865,0,0,0,34.585,85.132a1.90242,1.90242,0,0,1,2.66747-.89785c1.21315.4307,2.46612.14439,3.69762.20279,1.88044.08934,1.88141.17069,1.75756,2.075-.20183,3.10083.05818,6.20626.15645,9.30781.06735,2.12766.04706,4.28042.59751,5.69348-.88987-4.28913-.683-9.30493-.781-14.3-.02945-1.50381.5-2.18437,1.68489-2.44994.85922-.1929,1.28-.03815,1.35052,1.01783.169,2.53227.09053,5.06142.10574,7.59152.01039,1.7192.02341,3.43667.19893,5.15029-.44639-4.16358.062-8.34986-.33533-12.51319-.09851-1.03086.29936-1.52386,1.33482-1.54486a47.19468,47.19468,0,0,0,6.44358-.15354c.68152-.10718,1.14265.38071,1.48184.94951a49.91338,49.91338,0,0,0,3.1933,4.91635c-.04947,1.46566.87033,2.51585,1.57191,3.666.45243.74118.9244.84063,1.59048.24045.40319-.36335.865-.81818,1.46809-.26654Z"/>
      <path class="cls-26" d="M70.22959,46.0481C73.75244,55.83346,76.806,65.76992,79.852,75.71025a4.13719,4.13719,0,0,1-1.06685,4.62663c-1.11512,1.1086-2.07816,2.36835-3.1252,3.54649a2.601,2.601,0,0,1-1.37539.97874A2.51,2.51,0,0,1,72.10931,83.556a9.31545,9.31545,0,0,0-4.35041-3.31182,1.11987,1.11987,0,0,1-.40972-1.49923,2.056,2.056,0,0,1,.23587-.51809C69.551,75.766,69,73.31848,67.581,70.85669a19.68879,19.68879,0,0,1-1.05936-2.3372c-1.1219-2.7742-2.14167-5.58966-3.40262-8.69147-.8836,4.6754-2.20273,8.89812-3.18241,13.20655a2.21,2.21,0,0,0,.05986.843,13.4101,13.4101,0,0,0-1.00963,4.06775,2.766,2.766,0,0,1-.55527,1.7042,12.07864,12.07864,0,0,1-7.79457.407,7.53287,7.53287,0,0,1,.03717-5.17415c.79381.01472.69456.64869.6743,1.10547a13.177,13.177,0,0,1-.13786,1.69309A196.96049,196.96049,0,0,1,59.122,49.52822c-2.23292,6.2613-4.24156,12.58994-5.89046,19.03061-.44809,1.75008-.75952,3.53154-1.2566,5.26591-.13907.4855-.1777,1.42343-1.16753.78414a3.979,3.979,0,0,1-.24794-1.96926,222.71267,222.71267,0,0,1,2.68776-28.74356,39.37341,39.37341,0,0,0,.48115-4.45014A4.13034,4.13034,0,0,1,53.94974,37.93a1.50558,1.50558,0,0,1,2.17353-.15668,9.35776,9.35776,0,0,0,3.4229,1.30514c2.54.60186,4.99285,1.50189,7.49376,2.23386.9833.3578.85341,1.695,1.82321,2.068a11.43023,11.43023,0,0,1,1.36645,2.66771Z"/>
      <path class="cls-27" d="M23.93127,82.34817c-1.82976-3.70632-1.66052-7.416-.5111-11.33817,2.2643-7.727,4.21234-15.54616,6.35641-23.30911.52872-1.91448,1.05044-3.9009,2.78264-5.19831.43528-.32592.20183-.93093.58061-1.267a1.85064,1.85064,0,0,0,1.38916-.08473c2.7894-1.23947,5.826-1.8394,8.53189-3.30965.59943-.32568,1.31863-.66247,1.98184-.01256-.40561,1.96686-.973,3.89922-1.23273,5.89723-.53185,2.723-1.26746,5.40086-1.65157,8.15573a66.89833,66.89833,0,0,0-.77062,9.71364c.03791,5.35524-.04974,10.711.27208,16.06306.06857,1.1429.40994,1.6885,1.5975,1.61294a2.3513,2.3513,0,0,1,1.65326.345c.11372.84208-.57289.70688-1.007.75034-.94131.09439-1.89686-.01785-2.837.1463-.98066-.04924-1.96155-.12168-2.94584-.11057a6.87864,6.87864,0,0,1-.74672.0029,3.09744,3.09744,0,0,1-1.97024-.346,60.64448,60.64448,0,0,1-1.05141-7.51065c.48333-1.957.063-3.88206-.21366-5.81079q-.9741-6.79329-1.56586-13.63c-.23514-2.74835-.37468-5.496-.39884-7.7883.12506.87613.01764,2.22906.10093,3.57355A169.38191,169.38191,0,0,0,34.5879,69.468a1.22388,1.22388,0,0,1-.06182.56467c-.74043-.1854-.49973.42637-.67163.76532a13.43939,13.43939,0,0,0-1.00166,8.92418.79531.79531,0,0,1-.16007.54006,1.23031,1.23031,0,0,1-.96086.15718,11.97186,11.97186,0,0,0-7.12245,1.72447,1.37712,1.37712,0,0,1-.67814.20425Z"/>
      <path class="cls-28" d="M35.54248,18.83689c.56759-4.38109,1.49828-8.63328,4.39678-12.172a11.86161,11.86161,0,0,1,18.89229.64363,22.75854,22.75854,0,0,1,3.6286,9.80321,4.26836,4.26836,0,0,0,.16657,2.47989,1.44633,1.44633,0,0,1-.55456,1.61342c-.63348.55938-1.00938-.03644-1.47051-.27714-.50577-.22645-.66221-.79791-1.08784-1.10161a.62185.62185,0,0,0-.78969-.02415c-.20568.155-.34547.36383-.14148.59824.297.34139.89448.71268-.01037.96062-.69192.18929-1.45288.24674-1.78677-.65327a5.58949,5.58949,0,0,1-.148-1.26747,1.15026,1.15026,0,0,0-.60886-.90655,2.28453,2.28453,0,0,0-1.11537-.19941,10.89563,10.89563,0,0,1-8.56616-4.97766,5.26361,5.26361,0,0,0-1.29162-1.30537c-.29139-.1-.618-.89108-.85439.03839a13.6932,13.6932,0,0,1-2.97722,5.58917,2.92918,2.92918,0,0,0-.4954,1.88793c-.02511.58884.15017,1.26239-.513,1.66413a.79885.79885,0,0,1-.8853-.53283c-.49612-1.10789-1.19818-1.09486-2.06006-.45629-1.32855.45653-1.59387-.39376-1.72762-1.40483Z"/>
      <path class="cls-29" d="M60.74241,20.8728c.42611-.41114.597.88892,1.078.15767.32182-.48986.85489-.84669.57315-1.611a2.597,2.597,0,0,1,.06664-2.30775c.87659,6.0877,2.87147,11.86737,4.83133,17.66128,1.24622,3.68483,2.63223,7.34238,2.93811,11.2754a6.44369,6.44369,0,0,1-1.45143-2.56561,1.06629,1.06629,0,0,1-.56856-.78125c-.76819-4.39726-2.689-8.45194-3.80359-12.74711-.21343-.82277-.29671-1.66483-.50458-2.175.8008,3.87095,1.91834,7.971,3.1286,12.04867.15861.53451.45242,1.07361.17285,1.66122-.2238.47706-.52921.212-.83243.10262a73.0438,73.0438,0,0,0-8.76387-2.55281,1.67266,1.67266,0,0,1-1.13976-.51689,2.16042,2.16042,0,0,0-2.31909-.68829c-1.41452-.7513-.81819-2.11052-.98454-3.23941-.00965-1.3259-.04757-2.65251.035-3.97648A2.31871,2.31871,0,0,1,53.887,29.086a11.64264,11.64264,0,0,0,2.372-3.55182,1.512,1.512,0,0,1,1.10884-1.019,3.68808,3.68808,0,0,0,3.08876-3.15806.91771.91771,0,0,1,.28584-.48429Z"/>
      <path class="cls-30" d="M35.54248,18.83689c.34837.68009.52222,1.61631,1.66436,1.134.289.89737-.11539,1.93186.55117,2.75294a2.754,2.754,0,0,0,2.27759,1.52748,1.372,1.372,0,0,1,1.21653.88288,13.50013,13.50013,0,0,0,4.1259,5.59329,1.08288,1.08288,0,0,1,.395.74672c-.09029,1.79954-.12288,3.59888-.12191,5.40014-.07944.42272-.10527.88311-.67165.9669a2.50134,2.50134,0,0,0-1.67282.28487c-2.93979,1.77156-6.41169,2.17668-9.43357,3.71478-.8672.44155-.67575-.182-.733-.60574C33.641,35.78837,34.149,30.3438,34.84332,24.915c.25832-2.01853.48889-4.0494.69916-6.07806Z"/>
      <path class="cls-31" d="M67.91919,80.0595a7.61244,7.61244,0,0,1,4.38736,3.15562,3.903,3.903,0,0,0,1.97821,1.647,1.84142,1.84142,0,0,0-1.33215.37275c-2.3715,2.181-4.93806,4.12616-7.45755,6.12875a9.26622,9.26622,0,0,0-2.72567,2.45357c-.81383-.21-1.21749.43674-1.68464.86479-.5403.49516-.9104.53474-1.32059-.12964-.549-.89038-1.10982-1.779-1.74211-2.61027a.89463.89463,0,0,1,.09127-1.33578c-.05889-.56807.36336-.8177.72862-1.10646.5456-.35488.97872-.85149,1.51614-1.2182a32.941,32.941,0,0,0,4.7688-5.23646,15.15473,15.15473,0,0,1,2.79231-2.98566Z"/>
      <path class="cls-32" d="M32.52856,88.00011q-1.62851,2.02831-3.25679,4.05639c-.24384.00048-.50216-.01906-.61611-.26483a67.35563,67.35563,0,0,1-3.52188-8.98.81767.81767,0,0,1,.54176-.76191,12.35607,12.35607,0,0,1,5.11477-1.5625c.50361-.03137,1.06854-.03983,1.32687.57242-.43528,1.60087.183,3.12208.38362,4.67154a6.05946,6.05946,0,0,1,.02776,2.26887Z"/>
      <path class="cls-33" d="M32.03027,81.12126c-1.60281-.70978-3.027.14123-4.49577.53354a6.584,6.584,0,0,0-2.40072,1.15714c-.5007.10358-1.20686.73971-1.20228-.464a9.38882,9.38882,0,0,1,8.6229-2.05236c.34162.6026.127.85246-.52413.82567Z"/>
      <path class="cls-34" d="M59.02952,89.69779q-.4581.45413-.9162.90849A25.54942,25.54942,0,0,1,54.598,85.434c-.25325-.41983-.48091-.9635-1.04149-.79982-2.25029.65666-4.52934.1755-6.79217.24-.79622.0227-1.02944.39255-.91693,1.07362.58012,3.51437.13543,7.0534.26918,10.5784a11.45307,11.45307,0,0,1-.23031,3.049c-.1142-1.72014-.29069-3.43885-.32786-5.16068-.05673-2.62811.01352-5.25888-.0449-7.88677-.01111-.49444.506-1.43576-.486-1.45627-.93529-.01954-2.00407.233-2.04752,1.52338a24.03074,24.03074,0,0,0,.03983,4.58051,30.0045,30.0045,0,0,1,.2028,5.13577,22.88388,22.88388,0,0,0,.72643,6.07275,3.75757,3.75757,0,0,1,.08233.83484c.0012.04637-.134.09681-.34547.239-.34812-1.65493-.80032-3.23289-.99345-4.84173a92.87755,92.87755,0,0,1-.31361-11.00524c-.00025-.28682-.01474-.57507.00844-.8602.15065-1.85533.15354-1.85629-1.68271-1.86329-.81336-.00313-1.627-.00506-2.44054,0-.53693.00339-1.07143.01449-1.344-.58376.043-.06107.08572-.12216.12724-.184.67308-.28923.57241-.89131.62-1.457.07364-.8795-.2535-1.82613.40413-2.61606a5.37437,5.37437,0,0,1,2.871.23057c.633.68395.407,1.53737.40993,2.32273.00266.73439.259,1.0666,1.00094,1.01469.28464-.02.57289.00314.85946.00072,1.63179-.013,1.74067-.11323,1.89807-1.76287.07049-.73875-.12868-1.56127.65594-2.07671a15.46335,15.46335,0,0,1,4.926.18591,28.1026,28.1026,0,0,0,7.7149-.48335c1.19479.86116,1.16268,2.15809.93695,3.33744a5.4061,5.4061,0,0,0,.16441,3.03081c-.50578,1.0345-.89737.21824-1.11345-.14942-.48017-.81723-1.15929-.83341-1.964-.76871-.89061.0717-.92683.45991-.54393,1.11176a9.86987,9.86987,0,0,0,3.14188,3.65778Z"/>
      <path class="cls-34" d="M33.72337,86.548a5.51428,5.51428,0,0,0,.86574-4.28453,2.01326,2.01326,0,0,1,.87056-2.32972q1.01179.04964,2.02288.09947c.12627,1.46592.58087,2.975-.56517,4.27293l.00265-.00265c-1.21918-.27523-1.73848.53982-2.29688,1.39278-.21246.32445-.08016,1.13516-.89978.85172Z"/>
      <path class="cls-35" d="M50.69272,79.96148a16.13166,16.13166,0,0,1-4.86323.01978c-.29357-.14292-.676.05528-.92947-.24116-.33437-.01475-.66826-.03743-1.00287-.04251-2.6513-.041-2.55135-.0449-2.69017-2.77009-.26991-5.29607-.27016-10.59313-.25905-15.89141a60.35431,60.35431,0,0,1,2.19526-15.90562c.14992-.54611-.06495-1.16487.36019-1.64023a1.08559,1.08559,0,0,1,.81868-.16417,16.47707,16.47707,0,0,0,7.903-.22235c.578-.16972,1.28171-.26073,1.37828.688-.41958,3.39876-.85295,6.79581-1.25419,10.197-.26193,2.22181-.597,4.4441-.68926,6.67484-.19483,4.71692-.87733,9.41091-.67816,14.14568l-.00072-.00748a20.44448,20.44448,0,0,0-.28825,5.15969Z"/>
      <path class="cls-36" d="M53.6033,43.79177c-.40945-.89325-1.10981-.36647-1.5941-.21944a14.55127,14.55127,0,0,1-8.50582-.08185c.30952-1.9309.36746-3.92722,1.47606-5.64954.32472-.25083.23515-.64435.33558-.97243.26436-.72211-.29647-1.76747.28681-2.1593.66175-.44471,1.29983.55408,2.02361.747a6.47533,6.47533,0,0,0,4.33354-.39906c.508-.21728.96858-.66392,1.60159-.41453.22163,1.05888-.22983,2.24162.58691,3.19137a21.20926,21.20926,0,0,1-.54418,5.95782Z"/>
      <path class="cls-37" d="M66.85306,68.57115a15.77013,15.77013,0,0,1-6.918,5.144c-.8474-.36768-.28415-1.03666-.18734-1.44757,1.02218-4.342,2.29351-8.62385,3.25655-13.06651a69.1921,69.1921,0,0,1,3.84876,9.3701Z"/>
      <path class="cls-38" d="M50.98169,74.80927c.90245-.41091.89255-1.32373,1.03885-2.07625A144.02476,144.02476,0,0,1,57.946,52.06967c.42757-1.20374.79863-2.42774,1.24477-3.79274a3.82506,3.82506,0,0,1-.32977,2.77346C56.8473,56.797,55.14841,62.63963,53.58447,68.518a48.29855,48.29855,0,0,0-2.01708,9.45338,1.09792,1.09792,0,0,1-.58618.98741c0-1.46976,0-2.81328-.00024-4.1568l.00072.00724Z"/>
      <path class="cls-39" d="M34.66611,72.50031q-.18179-1.11395-.36357-2.22762c-.32255-1.9169-.69386-3.82726-.95411-5.75262q-.44869-3.31821-.73369-6.65819a94.62123,94.62123,0,0,1-.591-12.14186,2.51014,2.51014,0,0,1,.29913-1.62913c.11394,1.81648.12965,3.38959.21173,4.93468.30105,5.66064,1.27856,11.23991,1.82564,16.86868a42.42545,42.42545,0,0,1,.54416,5.38446c-.01256.41694.13036.87128-.23829,1.2216Z"/>
      <path class="cls-40" d="M36.53231,50.73992c1.15521,9.28657,2.72108,18.52267,4.39921,27.74114-1.06831-2.15758-4.7966-24.8011-4.39921-27.74114Z"/>
      <path class="cls-41" d="M44.9,79.7401c.33605-.02078.69-.10962.92947.24116-.69432.96763-.27281,2.10281-.44807,3.15057-.10648.63639-.27885.977-.95241.91306-1.13783-.10816-2.66483.58474-3.30919-.407-.52944-.81527-.15257-2.21819-.17744-3.36083.724-.58208,1.5608-.0973,2.33334-.24288.54032-.10188,1.1528.19724,1.6243-.294Z"/>
      <path class="cls-25" d="M36.91738,84.3061c.62795-1.36645-.07532-2.9084.56517-4.27315q.29442.00687.58909.01326c-.00146,1.04776-.051,2.0982.01012,3.14187.05287.89712-.31626,1.223-1.16438,1.118Z"/>
      <path class="cls-42" d="M45.46519,31.21486a12.3193,12.3193,0,0,1-4.45183-5.74971c-.189-.49468-.3363-1.019-1.0415-.92175-1.35245.18612-2.01418-.68081-2.584-1.689.86453-.63085,1.52024-1.58664,2.69717-1.732.03211-.03523.09634-.07531.09174-.10477-.37009-2.40409,1.07264-4.03223,2.3575-5.78714.98066-1.33966,1.25684-3.0342,1.77373-4.68119.59655.339.47247,1.06371.91837,1.39879,1.00191.94011,1.61149,2.2112,2.68776,3.10254a12.63133,12.63133,0,0,0,1.93089,1.42464c3.10907,1.71844,3.09843,1.7375,6.35451,1.79521.928.07387.83676.80176.80175,1.38141-.077,1.27979.41163,1.7858,1.83433,1.33677-.4249-.12771-.75444-.2267-1.16847-.35127.39254-.60042.444-1.50721,1.35414-1.48039,1.02578.03041,1.244,1.041,1.72133,1.716-.02149,2.39756-.92031,3.45885-3.3396,3.90041-.29381.05361-.54852.058-.65233.40463a15.1267,15.1267,0,0,1-3.23966,5.11284,6.85029,6.85029,0,0,1-6.23642,1.93091,2.73893,2.73893,0,0,1-1.80946-1.007Z"/>
      <path class="cls-43" d="M40.08508,21.12243c-.93526.521-1.42849,1.72859-2.69692,1.732a2.51465,2.51465,0,0,1-.18132-2.88355c1.42464-1.1347,1.42175-1.13275,2.32854.36405.16536.27331.3655.5256.5497.78753Z"/>
      <path class="cls-44" d="M56.19958,18.27051c-1.79041.74792-3.56994-.25735-5.35889-.03886-.13832.01689-.29718-.15065-.17212-.28054.9867-1.02508-.38506-.91982-.62456-1.0613a11.1473,11.1473,0,0,1-4.81759-4.94142c.77786-.2523,1.00458.563,1.20931.87418a10.52818,10.52818,0,0,0,9.14,5.1633c.20908.00266.416.18566.62386.28464Z"/>
      <path class="cls-45" d="M45.46519,31.21486a6.73832,6.73832,0,0,0,6.8815-.41426,8.39491,8.39491,0,0,1,1.16463-.5099,26.83323,26.83323,0,0,1,.04925,4.35165,13.36553,13.36553,0,0,1-2.70127,1.2298,5.1929,5.1929,0,0,1-5.15244-1.12841c-.41332.73442.05746,1.51129-.39207,2.12549a35.15794,35.15794,0,0,1,.1504-5.65437Z"/>
      <path class="cls-25" d="M59.34674,86.02624a7.92207,7.92207,0,0,1,1.10089,2.55257q-.709.55914-1.41811,1.119a1.91068,1.91068,0,0,1-1.852-1.06344,30.72528,30.72528,0,0,1-1.95986-3.111c-.27353-.58474-.135-.88579.54585-.92538,1.28293-.07482,2.68487-.47343,3.14454,1.3621.0461.184.25663.27257.43865.06615Z"/>
      <path class="cls-46" d="M41.82647,81.88924c-.34426-1.5502.7134-1.26869,1.60716-1.36237,1.39083-.14582,1.18417.74312,1.25394,1.60764.13422,1.66751-1.12286,1.13373-1.91713,1.24791-1.37274.19773-.82206-.89881-.944-1.49318Z"/>
      <path class="cls-47" d="M51.63765,20.51429c.12579-.54369.09753-1.41352,1.06418-1.4297.82808-.014.87878.71413.90968,1.34521.034.69795-.01255,1.44152-.91426,1.46567-.72451.01932-1.069-.51881-1.0596-1.38118Z"/>
      <path class="cls-48" d="M42.99689,20.51526c.1603-.61973.21775-1.35558.94879-1.31045.90582.05578,1.04511.8462,1.05164,1.59679.0053.647-.27353,1.19865-.97558,1.16-.90366-.04972-.816-.90171-1.02485-1.44636Z"/>
      <path class="cls-49" d="M41.26685,18.28137c1.32806-1.21823,3.28141-1.46566,4.23552-.77664.14292.10309.32084.27835.3264.42635.01183.30781-.27763.34475-.51375.34619-1.23052.00844-2.4613.0041-4.04817.0041Z"/>
      <path class="cls-50" d="M47.82171,21.83221c.54925.53525.02,1.34063.85537,1.41739a4.33276,4.33276,0,0,1-.10164.82641.35048.35048,0,0,1-.4732.1801c-.3602-.12844-.26819-.45435-.27594-.71873-.01521-.51543-.00459-1.03159-.00459-1.70517Z"/>
    </g>
  </g>
</svg>
