<svg id="Layer_1" data-name="Layer 1" xmlns="http://www.w3.org/2000/svg" xmlns:xlink="http://www.w3.org/1999/xlink" width="100" height="100" viewBox="0 0 100 100">
  <defs>
    <style>
      .cls-1 {
        fill: none;
      }

      .cls-2 {
        clip-path: url(#clip-path);
      }

      .cls-3 {
        fill: #54372f;
      }

      .cls-4 {
        fill: #e17e58;
      }

      .cls-5 {
        fill: #50231a;
      }

      .cls-6 {
        fill: #5b3a32;
      }

      .cls-7 {
        fill: #5e3428;
      }

      .cls-8 {
        fill: #ef7c4d;
      }

      .cls-9 {
        fill: #d55c39;
      }

      .cls-10 {
        fill: #42332f;
      }

      .cls-11 {
        fill: #3e3535;
      }

      .cls-12 {
        fill: #f08e64;
      }

      .cls-13 {
        fill: #b14b30;
      }

      .cls-14 {
        fill: #3e251e;
      }

      .cls-15 {
        fill: #fafefe;
      }

      .cls-16 {
        fill: #ca643d;
      }

      .cls-17 {
        fill: #e2805a;
      }

      .cls-18 {
        fill: #fefbeb;
      }

      .cls-19 {
        fill: #504d52;
      }

      .cls-20 {
        fill: #fdfbed;
      }

      .cls-21 {
        fill: #3a383a;
      }

      .cls-22 {
        fill: #49464d;
      }

      .cls-23 {
        fill: #ca6031;
      }

      .cls-24 {
        fill: #f6dec0;
      }

      .cls-25 {
        fill: #f5dcbc;
      }

      .cls-26 {
        fill: #48464d;
      }

      .cls-27 {
        fill: #514e54;
      }

      .cls-28 {
        fill: #3d3a40;
      }

      .cls-29 {
        fill: #3d3a3f;
      }

      .cls-30 {
        fill: #8b4330;
      }

      .cls-31 {
        fill: #844b3a;
      }

      .cls-32 {
        fill: #3d383d;
      }

      .cls-33 {
        fill: #403a3f;
      }

      .cls-34 {
        fill: #3c3a3f;
      }

      .cls-35 {
        fill: #504c53;
      }

      .cls-36 {
        fill: #3d393f;
      }
    </style>
    <clipPath id="clip-path">
      <rect class="cls-1" x="-13.69934" y="-12.71491" width="119.09111" height="112.66363"/>
    </clipPath>
  </defs>
  <g class="cls-2">
    <g>
      <path class="cls-3" d="M40.45506,3.17068c2.71182-.81517,5.29788-2.08061,8.14136-2.44332,2.27166-.255,4.36252.85032,6.20578,1.96817.70743.47015,1.57992.88043,1.914,1.6906a14.59264,14.59264,0,0,1,.01568,10.03356c-.25348.58263-.52073,1.16285-.73885,1.75809-.22992.65271-.44608,1.308-.68385,1.95571-.505-1.98823-.505-4.049-.89412-6.0547-.23777-1.38293-.54436-3.00845-1.90023-3.81379a12.08989,12.08989,0,0,0-3.23062.70272,23.74117,23.74117,0,0,1-9.86475.81294,8.98916,8.98916,0,0,1-.955-.22773,6.59189,6.59189,0,0,1-2.63519-1.66309A8.95681,8.95681,0,0,1,34.0783,4.03348a17.81273,17.81273,0,0,0,6.37676-.8628Z"/>
      <path class="cls-4" d="M43.72692,23.69293c1.74109,1.80308,4.8695,1.30541,6.52805-.34262-2.18127-.03254-4.35465.20263-6.528.34262Zm.9747-3.44368c-.23976.30266.171.91037.564.75272.21222-.3-.18082-.90034-.564-.75272Zm-2.62929-3.59368a6.015,6.015,0,0,0,.16506,1.23792c.397-.07008.85088.02491,1.2105-.19762a3.18075,3.18075,0,0,0,.0059-1.57309c-.49324.04756-1.21443-.04743-1.38146.53279Zm6.8955-.74289c-.02161.5977-.26922,1.6906.69172,1.69823.88035.15245.96875-.89791.733-1.458-.19651-.6302-.94328-.22272-1.42469-.24019Zm-8.40667-.73524a13.14266,13.14266,0,0,1,3.96753-.40768c-.22992-.245-.391-.60269-.788-.59507a2.906,2.906,0,0,0-3.17953,1.00275Zm7.12149-.64769a25.999,25.999,0,0,1,4.43324.00742,2.5107,2.5107,0,0,0-1.6546-.77277c-.95109.005-2.20679-.125-2.77864.76535Zm1.60156-5.562A12.08989,12.08989,0,0,1,52.51483,8.265c1.35587.80534,1.66246,2.43086,1.90023,3.81379.38908,2.00572.38908,4.06647.89412,6.0547.23777-.64769.45393-1.303.68385-1.95571a6.66894,6.66894,0,0,1,1.47576.19762,4.41589,4.41589,0,0,1,.67406,1.99828,2.58218,2.58218,0,0,1-2.41117,2.04307,8.52084,8.52084,0,0,1-1.5701,3.81138,9.57086,9.57086,0,0,1-4.34484,3.7389c-2.12425.90034-4.93633,1.13791-6.756-.47274A14.91333,14.91333,0,0,1,40.65942,23.603a20.49874,20.49874,0,0,1-.75656-3.22617c-.09825-.45511-.20044-.90535-.28886-1.36044a90.49736,90.49736,0,0,1-.19454-9.23569,23.74117,23.74117,0,0,0,9.86475-.81294Z"/>
      <path class="cls-5" d="M38.46442,9.55293a8.98916,8.98916,0,0,0,.955.22773,90.49736,90.49736,0,0,0,.19454,9.23569c-.002.15243-.00787.45509-.00984.60512-.07467-.06992-.22205-.21008-.29279-.28258-.07271-.80032-.08646-1.60546-.14935-2.40578a9.69769,9.69769,0,0,0-.452-2.15834,22.88106,22.88106,0,0,1-.24564-5.22184Z"/>
      <path class="cls-6" d="M47.68265,14.52975c.57185-.8903,1.82755-.76034,2.77864-.76535a2.5107,2.5107,0,0,1,1.6546.77277,25.999,25.999,0,0,0-4.43324-.00742Z"/>
      <path class="cls-7" d="M40.56116,15.17744a2.906,2.906,0,0,1,3.17953-1.00275c.39695-.00762.55808.35.788.59507a13.14266,13.14266,0,0,0-3.96753.40768Z"/>
      <path class="cls-8" d="M55.993,16.17778c.21812-.59524.48537-1.17546.73885-1.75809,1.71555.55269,1.79416,2.551,1.411,3.954a4.41589,4.41589,0,0,0-.67406-1.99828,6.66894,6.66894,0,0,0-1.47576-.19762Z"/>
      <path class="cls-9" d="M38.71006,14.77477a9.69769,9.69769,0,0,1,.452,2.15834c-.279.35265-.76443.66275-.70549,1.15781-.01569.54786.51291.87541.85484,1.248.07074.0725.21812.21266.29279.28258.002-.15.00787-.45269.00984-.60512.08842.45509.19061.90533.28886,1.36044-1.41289.0976-1.86094-1.50806-1.98279-2.55581a4.72385,4.72385,0,0,1,.79-3.04621Z"/>
      <path class="cls-10" d="M48.96783,15.91268c.48141.01747,1.22818-.39,1.42469.24019.23578.56013.14738,1.61049-.733,1.458-.96094-.00763-.71333-1.10053-.69172-1.69823Z"/>
      <path class="cls-11" d="M42.07233,16.65557c.167-.58022.88822-.48523,1.38146-.53279a3.18075,3.18075,0,0,1-.0059,1.57309c-.35962.22253-.81355.12754-1.2105.19762a6.015,6.015,0,0,1-.16506-1.23792Z"/>
      <path class="cls-12" d="M38.45653,18.09092c-.05894-.49506.42646-.80516.70549-1.15781.06289.80032.07664,1.60546.14935,2.40578-.34193-.37256-.87053-.70011-.85484-1.248Z"/>
      <path class="cls-13" d="M44.70162,20.24925c.38316-.14762.7762.45269.564.75272-.393.15765-.80374-.45006-.564-.75272Z"/>
      <path class="cls-14" d="M41.47493,43.90007c.07662-2.886-.42252-5.77212-.04126-8.65308.10807,1.34558.12968,2.69841.27707,4.04138a150.06388,150.06388,0,0,1,.53056,15.61309,29.64487,29.64487,0,0,1-.15719-3.56879c.03931-2.49093-.52663-4.94428-.60918-7.4326Z"/>
      <path class="cls-15" d="M43.72692,23.69293c2.1734-.14,4.34678-.37516,6.52805-.34262-1.65855,1.648-4.787,2.1457-6.528.34262Z"/>
      <path class="cls-16" d="M49.81674,27.967a9.57086,9.57086,0,0,0,4.34484-3.7389,4.49244,4.49244,0,0,1,.00784,1.87317c-1.16725,1.87075-2.34631,4.1964-4.84786,4.64407a7.80378,7.80378,0,0,1-6.37281-2.71586c.02752-.13255.08451-.40009.112-.53522,1.81963,1.61065,4.63171,1.37308,6.756.47274Z"/>
      <path class="cls-17" d="M49.32156,30.74537c2.50155-.44767,3.68061-2.77332,4.84786-4.64407a12.44034,12.44034,0,0,1,.39695,3.48124,1.94411,1.94411,0,0,1-.45392,1.26785c-1.56226,2.29591-3.32691,4.46409-4.82824,6.795-.63866.085-1.27731.17252-1.914.25262-1.58385-2.03822-3.42908-3.87887-5.10727-5.847.19257-1.34558.46769-2.67849.68581-4.02145a7.80378,7.80378,0,0,0,6.37281,2.71586Z"/>
      <path class="cls-18" d="M49.28421,37.64535c1.50133-2.33087,3.266-4.49905,4.82824-6.795a3.8311,3.8311,0,0,1,2.12029,1.76813c-.67008,4.144-1.16133,8.308-1.70959,12.46705a7.91464,7.91464,0,0,0-2.13409.01486,6.60861,6.60861,0,0,0-1.55833,1.03548c-.14738-1.28551-.52663-2.54092-.59934-3.83385a8.76734,8.76734,0,0,1,.89605-2.47588,17.44727,17.44727,0,0,0-1.84323-2.18083Z"/>
      <path class="cls-19" d="M56.35067,31.56074a20.88662,20.88662,0,0,1,2.54284,1.91071c.27512.38018.5404.77018.78013,1.17285a15.69185,15.69185,0,0,1,.32622,4.70409c-.06093.44524-.00591,1.04051-.49718,1.28294a17.406,17.406,0,0,0-3.602,2.37844,40.26567,40.26567,0,0,0,4.563,2.62831c-.52859,2.28345-1.38146,4.47913-2.0673,6.72246-.96875,3.17855-2.11245,6.30714-3.23257,9.44072A25.27488,25.27488,0,0,1,52.896,66.53807c-.2122-.24259-.42247-.48523-.62879-.72541.49127-6.93232,1.29105-13.84233,2.25592-20.72709.54826-4.159,1.03951-8.32308,1.70959-12.467.03541-.35247.07667-.70513.11793-1.05778Z"/>
      <path class="cls-20" d="M42.26294,32.051c1.67819,1.96814,3.52342,3.80879,5.10727,5.847-.32425.4577-.63866.92285-.9511,1.38538C45.3167,41.00909,43.611,42.532,43.47735,44.66041c1.3854-1.01541,2.39743-2.39089,3.67078-3.51637a2.823,2.823,0,0,1,.12973,2.44332c-1.94742,5.48192-2.59588,11.2691-3.1697,16.996-.46572,5.1919-1.16531,10.36375-1.56029,15.56049-.16113,1.593-.27706,3.191-.53844,4.77419.07468-4.194.25351-8.388.1808-12.582-.12774-2.981-.03538-5.96452,0-8.94567.01768-.95777.07074-1.91313.08451-2.86848.30851,3.02352.06091,6.0621.15717,9.09066a5.42662,5.42662,0,0,0,.51881,2.07078,29.94609,29.94609,0,0,0,.18667-5.34195c-.01964-4.4189.10613-8.84062-.1847-13.2521a43.96021,43.96021,0,0,1,.14541-4.77158c.057-1.77314-.83123-3.38121-1.38736-5.02942-.14739-1.343-.169-2.6958-.27707-4.04138-.02751-.42514-.07467-.84528-.1297-1.26542a4.389,4.389,0,0,0,.959-1.93061Z"/>
      <path class="cls-21" d="M58.89351,33.47145c1.81375.5551,3.64916,1.0654,5.42758,1.71309a19.92649,19.92649,0,0,1-4.64745-.54024c-.23973-.40267-.505-.79267-.78013-1.17285Z"/>
      <path class="cls-22" d="M24.59086,50.26985a11.982,11.982,0,0,0-.03339,2.57328c.27118,2.7086.41463,5.42687.61507,8.14294.41461,3.69129.5915,7.40266.93145,11.10139a2.94421,2.94421,0,0,1-.6583,2.18829c.76049-.095,1.52686-.15765,2.29915-.1926a2.6994,2.6994,0,0,1-1.16334,1.438,58.34145,58.34145,0,0,0-5.47474,3.55631c1.66051.05,3.321-.01243,4.9815.02753-.00588.10244-.01768.30749-.02162.41009a37.06585,37.06585,0,0,0-6.866.22013c2.2736.2651,4.5649.055,6.8503.12009a41.3893,41.3893,0,0,0-1.50133,8.728c-.336,5.18689-.72511,10.37119-1.30482,15.538a7.32714,7.32714,0,0,0,.07465,2.04064c1.01795-6.91745,2.15769-13.82227,2.96534-20.76725,2.49568.33257,4.77518,1.558,7.30425,1.70063a19.21766,19.21766,0,0,0-3.80837-1.223c-1.12206-.32756-2.24412-.64006-3.378-.92282q.13263-.91881.29477-1.83562c1.9808.25769,3.81815,1.12548,5.82645,1.22308A34.79926,34.79926,0,0,0,26.721,82.73619c.41069-2.81846.76442-5.642,1.17118-8.46044a20.639,20.639,0,0,0-.10022-5.46949c-.676-4.84424-1.56617-9.65839-2.44456-14.475a31.58765,31.58765,0,0,0-.75658-4.06144ZM41.304,33.98157c.055.42014.10219.84028.1297,1.26542-.38126,2.881.11788,5.76711.04126,8.65308-.14738-.72782-.34585-1.4456-.52075-2.1682-.28692.76276-.3596,1.778-1.22425,2.17823-1.13583.57015-2.35223.97786-3.50178,1.51791.71721,3.814,2.00438,7.50027,3.06357,11.234.74869,2.33085,1.15744,4.7792,2.34437,6.96506.14541-1.94066.01568-3.88631.15915-5.82715.13952.52519.28491,1.05537.395,1.59059-.03538,2.98115-.12774,5.9647,0,8.94567.07271,4.194-.10612,8.388-.1808,12.582-.15328,1.88059-.34976,3.76136-.34585,5.652-.08449,2.52828-.18078,5.05676-.31441,7.58261-.03932.68284-.04323,1.36789-.02752,2.05071.0118.52777.01967,1.05537-.01571,1.58315a37.53311,37.53311,0,0,0-.37141,5.07666,11.237,11.237,0,0,1-.75262,3.50874,2.62081,2.62081,0,0,0,.42836,2.00571c1.743,3.34552,3.14417,6.83678,4.87739,10.18674a19.39191,19.39191,0,0,1,1.3657,4.61786c-.47944,10.695-1.04736,21.38816-1.5642,32.07946-.46964,8.28014-.678,16.57143-.86265,24.86086-.19061,6.52335-.395,13.043-.55417,19.56632-.46376-.02231-.92752-.039-1.38735-.05576-3.62951-.2231-7.2669-.19335-10.89448-.4313.26531-3.28677,1.01793-6.51217,1.466-9.7748.57772-3.53216,1.126-7.068,1.7273-10.59462a64.83364,64.83364,0,0,0,1.13976-9.45876c-.01571-1.84046.21222-3.6716.19061-5.50833-.24367-5.8894-.70743-11.764-1.124-17.64409-.44608-7.30971-1.13779-14.60269-1.56224-21.91242-.13757.805-.27118,1.61177-.40875,2.42046-2.36989-4.3241-4.7398-8.65381-6.71667-13.15451-.31834-1.16749-.31247-2.39073-.52666-3.57679,1.71749-.94011,3.72974-1.05257,5.6418-1.39018,1.95526-.34764,3.94786-.49264,5.8815-.96038-2.05351-.04-4.09524.23256-6.14681.22252-1.77839-.00242-3.55091.11508-5.31949.25768-.02555.19259-.07664.58019-.10219.77522-.07861-.32515-.14738-.65012-.20634-.97285-.48734.01748-.97075.03756-1.45415.05261-.07861.79271-.12577,1.58782-.16118,2.38534-3.44478.03531-6.88369.25282-10.32654.35879.7841-13.64048,1.56421-27.28522,3.04983-40.87513C17.717,60.10582,19.08666,50.3773,21.0144,40.744c5.66732-1.72314,11.40147-3.24625,17.12185-4.80671,1.238-.34505,2.11247-1.308,3.16772-1.9557Z"/>
      <path class="cls-22" d="M59.67364,34.6443a19.92649,19.92649,0,0,0,4.64745.54024,6.22838,6.22838,0,0,1,1.28714.30749c4.502,1.43556,9.04139,2.76345,13.5434,4.20159,3.53913,18.0263,5.17017,36.32012,6.63022,54.58421q.61017,8.19273,1.16334,16.38571c-3.38782-.35508-6.79921-.37739-10.20276-.46848a58.27,58.27,0,0,0-.64653-6.34155,6.131,6.131,0,0,1-.16506-1.543c.45-1.63056-.07858-3.28864-.1847-4.92422a107.18922,107.18922,0,0,0-1.76859-15.02024c1.76659-1.41548,3.65113-2.701,5.30968-4.234-2.08495-.14258-4.20726.16507-6.2549-.31269,2.51336-.43017,5.11121.02251,7.60295-.61272-2.01225-.145-4.0304-.23258-6.04659-.225a3.77091,3.77091,0,0,1-1.81967-.45527c1.9985-.285,4.02647-.02993,6.03088-.27254-.97274-.12752-1.95135-.2-2.93-.25-1.37557-1.90326-2.43084-3.99154-3.69242-5.96211-.72314-1.223-1.79413-2.49091-1.43256-3.98651.63472-3.69873,1.18693-7.40749,1.79413-11.11124a28.79963,28.79963,0,0,0,.61508-4.66674c-.82533,2.8235-1.18889,5.747-1.78826,8.61551-.62879,3.7939-1.60743,7.5776-1.5465,11.439.15329,2.57085.169,5.15437.57382,7.70532-.07074,3.031.30066,6.05711.48338,9.08065.51094,6.9524.95505,13.90984,1.521,20.85983-1.41287-.06-2.82381-.1225-4.23085-.23517-4.35069-.22252-8.70138-.43519-13.04229-.78766a4.07254,4.07254,0,0,1-2.52319-.88789,4.1961,4.1961,0,0,1-1.0061-2.74841c-.13755-1.8908-.10023-3.78887-.114-5.68453-.0059-.52777-.0059-1.058-.0059-1.58317-.00984-.66514-.02752-1.3303-.04323-1.99306-.08057-9.42084.21616-18.84409.83517-28.24505.20632.24018.41659.48282.62879.72541a25.27488,25.27488,0,0,0,2.26772-4.73681c1.12012-3.13358,2.26382-6.26217,3.23257-9.44072.68584-2.24333,1.53871-4.439,2.0673-6.72246a40.26567,40.26567,0,0,1-4.563-2.62831,17.406,17.406,0,0,1,3.602-2.37844c.49127-.24243.43625-.8377.49718-1.28294a15.69185,15.69185,0,0,0-.32622-4.70409Z"/>
      <path class="cls-23" d="M47.37021,37.898c.63669-.0801,1.27534-.16765,1.914-.25262a17.44727,17.44727,0,0,1,1.84323,2.18083,8.76734,8.76734,0,0,0-.89605,2.47588c.07271,1.29293.452,2.54834.59934,3.83385a93.132,93.132,0,0,1,.30657,16.218c-.33212,7.91542-1.05526,15.81313-1.35592,23.73336-.07076.64026.06678,1.42811-.52075,1.89325A33.78936,33.78936,0,0,1,45.2479,90.954c-1.24586-1.42548-2.37385-2.93857-3.58432-4.384-.00391-1.89065.19257-3.77142.34585-5.652.26138-1.58316.37731-3.18119.53844-4.77419.395-5.19674,1.09457-10.36859,1.56029-15.56049.57382-5.72694,1.22228-11.51412,3.1697-16.996a2.823,2.823,0,0,0-.12973-2.44332c-.24365-.62016-.48338-1.24293-.729-1.86069.31244-.46253.62685-.92768.9511-1.38538Z"/>
      <path class="cls-24" d="M41.71074,39.28837c.55613,1.64821,1.44436,3.25628,1.38736,5.02942a43.96021,43.96021,0,0,0-.14541,4.77158c.29083,4.41148.16506,8.8332.1847,13.2521a29.94609,29.94609,0,0,1-.18667,5.34195,5.42662,5.42662,0,0,1-.51881-2.07078c-.09626-3.02856.15134-6.06714-.15717-9.09066-.0177-.54023-.02164-1.08029-.03344-1.62052a150.06388,150.06388,0,0,0-.53056-15.61309Z"/>
      <path class="cls-25" d="M43.47735,44.66041c.13361-2.1284,1.83935-3.65132,2.94176-5.37706.24564.61776.48537,1.24053.729,1.86069-1.27335,1.12548-2.28538,2.501-3.67078,3.51637Z"/>
      <path class="cls-26" d="M45.43066,97.65641c.4677.00243.94129.01509,1.41683.02512.99432,1.91813,3.38781,2.84839,4.09723,4.93908.47748,1.69823.23187,3.48122.30851,5.21943,2.54872.06747,5.10334.02248,7.64815.205,1.50133.085,3.01051-.045,4.51381.085a10.14253,10.14253,0,0,1,4.90287,2.17282c.46575,6.24263.91379,12.48714,1.238,18.73721a13.49835,13.49835,0,0,0-4.02647.5893c-.98845.65439-.94328,1.9557-.94328,2.97445.285,4.58812.68975,9.17063,1.08867,13.74943.34,3.74965.49326,7.51606.92164,11.25643a7.2598,7.2598,0,0,0,1.10241,2.91311c1.54458-.12268,3.09109-.25653,4.64351-.30673-.3773.04647-.76049.0502-1.128.08179.9629,13.13221-.33209,26.27186-1.27141,39.37247-.62882.02974-1.25569.05019-1.87861.07436-.77033.02418-1.54065.04089-2.30507.08738-1.65263-12.66189-3.09109-25.35165-4.63958-38.02653-.34193-3.74223-.74084-7.48261-1.07687-11.223-.34586-4.9785-.96486-9.94027-1.181-14.92992l-.22793.00744c-.02361,1.00017-.05306,2.00219-.09631,3.00235-1.32447-2.03566-2.32273-4.23861-3.58236-6.30585-1.56814-3.06927-3.37014-6.0177-4.94612-9.08137-1.43256-2.80344-3.5352-5.43211-3.84963-8.6222-.17881-1.48166-.5227-2.941-.62686-4.42637a25.29213,25.29213,0,0,0,.0393-5.52021c-.23187-2.34331-.14149-4.69926-.14149-7.05Z"/>
      <path class="cls-27" d="M39.72993,43.9101c.86465-.40024.93733-1.41547,1.22425-2.17823.1749.7226.37337,1.44038.52075,2.1682.08255,2.48832.64849,4.94167.60918,7.4326a29.64487,29.64487,0,0,0,.15719,3.56879c.0118.54023.01574,1.08029.03344,1.62052-.01377.95535-.06683,1.91071-.08451,2.86848-.11008-.53522-.25547-1.0654-.395-1.59059-.14347,1.94084-.01374,3.88649-.15915,5.82715-1.18693-2.18586-1.59568-4.63421-2.34437-6.96506-1.05919-3.73368-2.34636-7.42-3.06357-11.23395,1.14955-.54005,2.36595-.94776,3.50178-1.51791Z"/>
      <path class="cls-28" d="M24.59086,50.26985a31.58765,31.58765,0,0,1,.75658,4.06144c.87839,4.81658,1.76858,9.63073,2.44456,14.475a20.639,20.639,0,0,1,.10022,5.46949c-.40676,2.81846-.76049,5.642-1.17118,8.46044a34.79926,34.79926,0,0,1,5.80287,1.60065c-2.0083-.0976-3.84565-.96539-5.82645-1.22308q-.16213.91551-.29477,1.83562c1.13384.28276,2.2559.59526,3.378.92282a19.21766,19.21766,0,0,1,3.80837,1.223c-2.52907-.14258-4.80857-1.36806-7.30425-1.70063-.80765,6.945-1.94739,13.8498-2.96534,20.76725a7.32714,7.32714,0,0,1-.07465-2.04064c.57971-5.16681.9688-10.35111,1.30482-15.538a41.3893,41.3893,0,0,1,1.50133-8.728c-2.2854-.06506-4.5767.145-6.8503-.12009a37.06585,37.06585,0,0,1,6.866-.22013c.00394-.1026.01574-.30765.02162-.41009-1.6605-.04-3.321.02249-4.9815-.02753a58.34145,58.34145,0,0,1,5.47474-3.55631,2.6994,2.6994,0,0,0,1.16334-1.438c-.77229.03495-1.53866.09759-2.29915.1926a2.94421,2.94421,0,0,0,.6583-2.18829c-.33995-3.69873-.51684-7.4101-.93145-11.10139-.20044-2.71607-.34389-5.43434-.61507-8.14294a11.982,11.982,0,0,1,.03339-2.57328Z"/>
      <path class="cls-29" d="M71.36591,58.8928c.59937-2.86848.96293-5.792,1.78826-8.61551a28.79963,28.79963,0,0,1-.61508,4.66674c-.6072,3.70375-1.15941,7.41251-1.79413,11.11124-.36157,1.4956.70942,2.76348,1.43256,3.98651,1.26158,1.97057,2.31685,4.05885,3.69242,5.96211.97861.05,1.95722.12252,2.93.25-2.00441.24261-4.03238-.01244-6.03088.27254a3.77091,3.77091,0,0,0,1.81967.45527c2.01619-.00762,4.03434.07993,6.04659.225-2.49174.63523-5.08959.18255-7.60295.61272,2.04764.47776,4.17.17011,6.2549.31269-1.65855,1.533-3.54309,2.81848-5.30968,4.234a107.18922,107.18922,0,0,1,1.76859,15.02024c.10612,1.63558.63472,3.29366.1847,4.92422a37.03966,37.03966,0,0,1-.87445-3.99136c-1.36182-6.8-2.9889-13.54732-4.66316-20.282-.40482-2.551-.42053-5.13447-.57382-7.70532-.06093-3.8614.91771-7.6451,1.5465-11.439Z"/>
      <path class="cls-30" d="M44.24765,94.00772c.112-.02251.33411-.0701.44414-.0952-.00981.71034-.00981,1.42069-.00787,2.13083,1.02186.02249,2.0437.04,3.06947.02008,1.238-.03011,2.48-.045,3.7219-.01266,0,.52519,0,1.0554.0059,1.58317q-2.31979.06747-4.6337.04759c-.47554-.01-.94913-.02269-1.41683-.02512-.44017,0-.87445.00747-1.30875.02011-.93932.03233-1.87665.07491-2.816.11.03538-.52778.02751-1.05538.01571-1.58315.98845-.01748,1.98083-.05243,2.97122-.1-.02358-.69771-.04913-1.398-.04522-2.09568Z"/>
      <path class="cls-31" d="M44.69179,93.91252a11.34027,11.34027,0,0,1,3.19917.07511c-.05306.69026-.10022,1.38293-.13757,2.0758-1.02577.01988-2.04761.00241-3.06947-.02008-.00194-.71014-.00194-1.42049.00787-2.13083Z"/>
      <path class="cls-32" d="M41.34917,94.1527a11.72364,11.72364,0,0,0,2.89848-.145c-.00391.69768.02164,1.398.04522,2.09568-.99039.04758-1.98277.08253-2.97122.1-.01571-.68282-.0118-1.36787.02752-2.05071Z"/>
      <path class="cls-33" d="M47.891,93.98763a23.56031,23.56031,0,0,0,3.5411.07008c.01571.66276.03339,1.32792.04323,1.99306-1.24193-.03234-2.48388-.01745-3.7219.01266.03735-.69287.08451-1.38554.13757-2.0758Z"/>
      <path class="cls-34" d="M41.30594,97.78656c.93932-.03513,1.87665-.07771,2.816-.11-.21222,2.896-.57576,5.77693-.83517,8.66792a3.18669,3.18669,0,0,0,.2928,2.01817,10.818,10.818,0,0,0,1.95331,1.864c.10416,1.48538.448,2.94471.62686,4.42637.31443,3.19009,2.41707,5.81876,3.84963,8.6222,1.576,3.06367,3.378,6.0121,4.94612,9.08137,1.25963,2.06724,2.25789,4.27019,3.58236,6.30585.04325-1.00016.0727-2.00218.09631-3.00235l.22793-.00744c.21616,4.98965.83516,9.95142,1.181,14.92992.336,3.74036.73494,7.48074,1.07687,11.223,1.54849,12.67488,2.98695,25.36464,4.63958,38.02653-.87842.052-1.74695.158-2.61749.27325-.1199.01676-.35766.0465-.4736.0651-.31638.02971-.63081.05762-.94323.08178-1.03954.0632-2.06925.19707-3.095.35323-1.2105-12.16553-2.20485-24.36451-4.223-36.44079-2.25-14.66218-4.86163-29.27233-7.34947-43.90106-.06875-.32905-.14738-.6544-.226-.97787-.00591,1.29947.07664,2.5971.02158,3.89656a19.39191,19.39191,0,0,0-1.3657-4.61786c-1.73322-3.35-3.13434-6.84122-4.87739-10.18674a2.62081,2.62081,0,0,1-.42836-2.00571,11.237,11.237,0,0,0,.75262-3.50874,37.53311,37.53311,0,0,1,.37141-5.07666Z"/>
      <path class="cls-35" d="M44.12191,97.67652c.4343-.01264.86858-.02011,1.30875-.02011,0,2.35077-.09038,4.70672.14149,7.05a25.29213,25.29213,0,0,1-.0393,5.52021,10.818,10.818,0,0,1-1.95331-1.864,3.18669,3.18669,0,0,1-.2928-2.01817c.25941-2.891.62295-5.77192.83517-8.66792Z"/>
      <path class="cls-36" d="M46.84749,97.68153q2.31391.02231,4.6337-.04759c.01374,1.89566-.02358,3.79373.114,5.68453a4.1961,4.1961,0,0,0,1.0061,2.74841,4.07254,4.07254,0,0,0,2.52319.88789c4.34091.35247,8.6916.56514,13.04229.78766q.05016,1.283.15132,2.56044a10.14253,10.14253,0,0,0-4.90287-2.17282c-1.5033-.13-3.01248,0-4.51381-.085-2.54481-.18257-5.09943-.13758-7.64815-.205-.07664-1.73821.169-3.5212-.30851-5.21943-.70942-2.09069-3.10291-3.02095-4.09723-4.93908Z"/>
    </g>
  </g>
</svg>
