<svg id="Layer_1" data-name="Layer 1" xmlns="http://www.w3.org/2000/svg" width="100" height="100" viewBox="0 0 100 100">
  <defs>
    <style>
      .cls-1 {
        fill: #6f4331;
      }

      .cls-2 {
        fill: #53372e;
      }

      .cls-3 {
        fill: #e17f58;
      }

      .cls-4 {
        fill: #522f29;
      }

      .cls-5 {
        fill: #3e251e;
      }

      .cls-6 {
        fill: #4b2b27;
      }

      .cls-7 {
        fill: #a2472b;
      }

      .cls-8 {
        fill: #8a4830;
      }

      .cls-9 {
        fill: #52372e;
      }

      .cls-10 {
        fill: #ae6046;
      }

      .cls-11 {
        fill: #df7053;
      }

      .cls-12 {
        fill: #c96235;
      }

      .cls-13 {
        fill: #e1815b;
      }

      .cls-14 {
        fill: #49464d;
      }

      .cls-15 {
        fill: #fefbea;
      }

      .cls-16 {
        fill: #f7e3c6;
      }

      .cls-17 {
        fill: #433838;
      }

      .cls-18 {
        fill: #48464d;
      }

      .cls-19 {
        fill: #3e393d;
      }

      .cls-20 {
        fill: #34363d;
      }

      .cls-21 {
        fill: #3d3e43;
      }

      .cls-22 {
        fill: #6e6b73;
      }

      .cls-23 {
        fill: #565659;
      }

      .cls-24 {
        fill: #726d71;
      }

      .cls-25 {
        fill: #3d3b3f;
      }

      .cls-26 {
        fill: #484140;
      }

      .cls-27 {
        fill: #424044;
      }

      .cls-28 {
        fill: #363239;
      }

      .cls-29 {
        fill: #353238;
      }

      .cls-30 {
        fill: #3a3439;
      }

      .cls-31 {
        fill: #3e393f;
      }

      .cls-32 {
        fill: #3e3a3f;
      }

      .cls-33 {
        fill: #ef9269;
      }
    </style>
  </defs>
  <g>
    <path class="cls-1" d="M43.4813,11.45328a26.3766,26.3766,0,0,1,7.75214-.547c2.40637.262,4.28406,2.03945,5.59448,3.95136,2.11009,2.98518,3.80773,6.23,5.67168,9.36782.25749.506.74516,1.00718.54917,1.62259-.27339,1.47658-.67907,3.1378.15263,4.51409.47633.9435,1.479,1.41966,2.11247,2.21951.40332,1.153.06385,2.49512.73379,3.57753.80428,1.31261,2.06216,2.36774,2.486,3.899.63131,2.12838-.47853,4.38873-2.06,5.79706a27.20179,27.20179,0,0,0-3.57753-1.9597,12.297,12.297,0,0,0-.87726-4.1609c-.417-.90928-1.06648-1.6863-1.4903-2.58879-.506-1.09835-.46956-2.34471-.89338-3.4681-.499-1.30347-2.1101-1.86636-2.35163-3.31108a5.54707,5.54707,0,0,0-1.38326-3.23349c.09572-1.28974.4262-2.66623-.25052-3.86482-.70195-.80208-1.82077-.43059-2.73684-.392-1.80706-1.98476-3.49334-4.17923-5.86091-5.535-1.82078-1.03446-3.76-1.86177-5.47809-3.07174a30.52986,30.52986,0,0,1,1.90734-2.81644Z"/>
    <path class="cls-2" d="M38.11027,14.13065a7.62053,7.62053,0,0,1,5.371-2.67737A30.52986,30.52986,0,0,0,41.574,14.26972c1.71812,1.21,3.65731,2.03728,5.47809,3.07174,2.36757,1.35578,4.05385,3.55025,5.86091,5.535.91607-.03863,2.03489-.41012,2.73684.392a5.7785,5.7785,0,0,0-1.47217.34641,7.876,7.876,0,0,0-1.24419,1.44691,16.45338,16.45338,0,0,0-5.50535-6.51035c-1.98712-1.39459-4.3-2.23764-6.2688-3.66865a8.1161,8.1161,0,0,0-1.59752,2.29238,12.68892,12.68892,0,0,0-.71551,5.04968c1.12577-.33725,2.50445-.74735,3.46828.18463-1.04362.04558-2.08723-.00914-3.12865.05015-.073,1.30328-.22562,2.60454-.18006,3.9102.06386,1.7388,1.02312,3.24961,1.72965,4.78766a14.8058,14.8058,0,0,0,2.16921,3.76675,3.18565,3.18565,0,0,0,2.21952.64944c.0388.96618.07521,1.93459.02051,2.90317a1.94708,1.94708,0,0,1-.87728,1.28739c-.68587.52864-1.37411,1.05513-2.0349,1.61561l-.14127.11859c-1.03225.33946-2.05317.71094-3.0558,1.13474-1.24417.52412-2.5705.80666-3.83518,1.26925A5.40446,5.40446,0,0,1,33.44118,40.024c.10486-1.93,1.84128-3.30413,1.94833-5.22977a5.27246,5.27246,0,0,0-.77259-2.71856A13.51833,13.51833,0,0,0,36.63131,27.687c.3647-1.74555-.319-3.46148-.42381-5.19554-.23461-2.87116.07758-6.01353,1.90277-8.36078Z"/>
    <path class="cls-3" d="M41.41218,30.50123a2.71618,2.71618,0,0,0,.629.622c.237.41027.48986.90252,1.02312.9662a2.64374,2.64374,0,0,0,2.755-1.32615c.25289-.12078.499-.26205.74294-.40332-.82952-.02744-1.65664-.11856-2.47938-.21885a7.34514,7.34514,0,0,0-2.67061.36012Zm12.688-4.31371c-.19142.34641.38045.76567.67213.515.20513-.34861-.385-.75192-.67213-.515Zm.42838-1.85939c-.64724.43975.53088.57186.65165.10707-.01593-.31-.47852-.21192-.65165-.10707Zm-8.12142-1.22367c-.06844.49446-.303,1.04142-.02288,1.513a4.12993,4.12993,0,0,0,.97773-.02727c.01591-.47852.02728-.95706.03862-1.43558-.33267-.00457-.66536-.02287-.99347-.05014Zm-6.0159.0842c-.01372.506-.00915,1.01413.01829,1.51992.36233-.041.72686-.082,1.08917-.13432-.02726-.37385-.03878-.74752-.10027-1.11663-.25748-.29406-.66756-.20055-1.00719-.269Zm4.53237-1.11885c-.01812.1367-.05911.41248-.07978.54918a7.03443,7.03443,0,0,1,3.98339-.2119c-.97315-1.15983-2.65943-.73823-3.90361-.33728Zm-5.36188-4.89468a8.1161,8.1161,0,0,1,1.59752-2.29238c1.96883,1.431,4.28168,2.27406,6.2688,3.66865a16.45338,16.45338,0,0,1,5.50535,6.51035,7.876,7.876,0,0,1,1.24419-1.44691,5.7785,5.7785,0,0,1,1.47217-.34641c.67672,1.19859.34624,2.57508.25052,3.86482a3.47392,3.47392,0,0,1-1.28735.95706,5.662,5.662,0,0,1-1.3399-.56053,10.33612,10.33612,0,0,1-2.10332,3.835,14.58145,14.58145,0,0,1-6.04554,4.20885,3.18565,3.18565,0,0,1-2.21952-.64944,14.8058,14.8058,0,0,1-2.16921-3.76675c-.70653-1.53805-1.66579-3.04886-1.72965-4.78766-.04556-1.30566.10706-2.60692.18006-3.9102,1.04142-.05929,2.085-.00457,3.12865-.05015-.96383-.932-2.34251-.52188-3.46828-.18463a12.68892,12.68892,0,0,1,.71551-5.04968Z"/>
    <path class="cls-4" d="M44.92365,22.06981c1.24418-.401,2.93046-.82255,3.90361.33728a7.03443,7.03443,0,0,0-3.98339.2119c.02067-.1367.06166-.41248.07978-.54918Z"/>
    <path class="cls-5" d="M40.39128,23.18866c.33963.06842.74971-.02509,1.00719.269.06149.36911.073.74278.10027,1.11663-.36231.05233-.72684.09334-1.08917.13432-.02744-.50579-.032-1.014-.01829-1.51992Z"/>
    <path class="cls-6" d="M46.40718,23.10446c.32811.02727.6608.04557.99347.05014-.01134.47852-.02271.95706-.03862,1.43558a4.12993,4.12993,0,0,1-.97773.02727c-.28016-.47157-.04556-1.01853.02288-1.513Z"/>
    <path class="cls-7" d="M54.5286,24.32813c.17313-.10485.63572-.20293.65165.10707-.12077.46479-1.29889.33268-.65165-.10707Z"/>
    <path class="cls-8" d="M54.10022,26.18752c.28711-.237.87726.16635.67213.515-.29168.25071-.86355-.16855-.67213-.515Z"/>
    <path class="cls-9" d="M54.613,28.09031a3.47392,3.47392,0,0,0,1.28735-.95706,5.54707,5.54707,0,0,1,1.38326,3.23349c.24153,1.44472,1.85261,2.00761,2.35163,3.31108.42382,1.12339.38741,2.36975.89338,3.4681.42382.90249,1.07326,1.67951,1.4903,2.58879a12.297,12.297,0,0,1,.87726,4.1609c-.4831-.07742-.97076-.11619-1.45387-.17768-1.2169-.60846-2.31743-1.4288-3.5821-1.94156a3.12626,3.12626,0,0,1-1.577-.16854c-.59235-.31912-1.13475-.72465-1.75455-.98907-.9479-.3874-1.87548-.82715-2.85525-1.12561-.1504-2.3562-.28253-4.717-.47174-7.071-.01593-.35319-.02508-.70417-.03186-1.05734a10.33612,10.33612,0,0,0,2.10332-3.835,5.662,5.662,0,0,0,1.3399.56053Z"/>
    <path class="cls-10" d="M41.41218,30.50123a7.34514,7.34514,0,0,1,2.67061-.36012c.82274.10029,1.64986.19141,2.47938.21885-.24393.14127-.49005.28254-.74294.40332-1.25333.18446-2.518.26883-3.77809.35995a2.71618,2.71618,0,0,1-.629-.622Z"/>
    <path class="cls-11" d="M42.04114,31.12323c1.2601-.09112,2.52476-.17549,3.77809-.35995a2.64374,2.64374,0,0,1-2.755,1.32615c-.53326-.06368-.78614-.55593-1.02312-.9662Z"/>
    <path class="cls-12" d="M45.12421,35.57364a14.58145,14.58145,0,0,0,6.04554-4.20885c.00678.35317.01593.70415.03186,1.05734-1.32617,1.19182-2.43821,2.616-3.883,3.6756-.843.66537-1.96424,1.21471-2.17394,2.37908.0547-.96858.01829-1.937-.02051-2.90317Z"/>
    <path class="cls-13" d="M47.31866,36.09773c1.44474-1.05955,2.55678-2.48378,3.883-3.6756.18921,2.354.32134,4.71482.47174,7.071A28.54293,28.54293,0,0,1,49.92322,43.285c-.973,1.88211-1.83213,3.826-2.869,5.67409-.84982-2.73227-1.89818-5.40288-2.63418-8.167-.06149-.34182-.10469-.686-.15262-1.02783a1.94708,1.94708,0,0,0,.87728-1.28739c.2097-1.16437,1.3309-1.71371,2.17394-2.37908Z"/>
    <path class="cls-14" d="M45.54221,75.00692l.05514-.07588a20.4746,20.4746,0,0,1,.51881,2.96889c.16648,1.33893.36107,2.674.54711,4.00924.67065.0514,1.34375.0685,2.01685.05877,1.0218-.01474,2.04252.06977,3.0644.09425a2.55549,2.55549,0,0,1,1.47221.3647,3.48984,3.48984,0,0,1,.65846,1c.46132,2.348.7649,4.72783,1.143,7.09038.51772,3.52609,1.0611,7.04855,1.55917,10.57554-.53237.02638-1.06474.04639-1.59583.06914-1.98011.01638-3.95412.17558-5.93186.23743-1.60193.04549-3.20395.08462-4.80224.19015-1.74267.06731-3.48543.131-5.22691.21742-.56412.0382-1.12951.05549-1.69491.07-.34878-2.98207-.63153-5.97142-1.00351-8.94986-.26565-2.47444-.51036-4.95162-.66947-7.43607-.06486-.94066.0061-1.88676-.1138-2.82433.02083-.1481.21541-.14437.323-.19459a14.43429,14.43429,0,0,1,2.04379-.19086c1.37558-.10162,2.75236-.1824,4.13041-.26682-.08078-2.28241-.2277-4.56363-.3195-6.846.13464.01719.26928.03312.40392.05022.58131.73424,1.15644,1.47221,1.74149,2.2028q.81874-1.22253,1.68025-2.41449Z"/>
    <path class="cls-15" d="M45.80551,70.256c-.01136.20514-.03642.61521-.05.82036.22547.05014.45347.09571.68131.13907.37366-.17329.28932-.613.35995-.94351-.33268-.009-.66079-.01812-.99127-.01592Zm-.01812-7.5084c-.007.20056-.02052.60168-.02746.802.29626.06624.59491.12537.89794.17787.041-.32809.07979-.654.11384-.97991q-.49218.01371-.98432,0Zm-.09114-5.44624.10027.69279c.10705.36014.57424.23241.85221.3144.03642-.33947.06843-.67891.09334-1.01856-.35082.00238-.69942.00695-1.04582.01137Zm.37824-6.48987c-.09571.383.2507.64946.42619.94808.22089-.237.663-.36233.58778-.76564.01373-.51053-.76106-.52189-1.014-.18244Zm5.59886-11.31834c.97977.29846,1.90735.73821,2.85525,1.12561a57.61585,57.61585,0,0,0-2.52492,8.0098,143.59393,143.59393,0,0,0-2.46787,14.57707,119.8784,119.8784,0,0,0-.45346,24.27315c-.20952.25527-.41465.51731-.61284.78393l-.10266.14129c-1.53586-1.7-3.18114-3.29737-4.80814-4.90844-.74736-.75208-1.816-1.47894-1.77284-2.6662.0957-4.252.23477-8.511.17328-12.76781-.02507-1.51757.06607-3.03513.16855-4.5483.13212-1.9209.00677-3.84873.16412-5.76742.16856-2.02353.1047-4.05843.2734-6.08195.18685-2.16941-.07063-4.373.37827-6.51951A13.953,13.953,0,0,1,44.42006,40.792c.736,2.76414,1.78436,5.43475,2.63418,8.167,1.03685-1.84806,1.896-3.792,2.869-5.67409a28.54293,28.54293,0,0,0,1.75013-3.79181Z"/>
    <path class="cls-16" d="M42.23254,41.37981c.66079-.56048,1.349-1.087,2.0349-1.61561.04793.34184.09113.686.15262,1.02783a13.953,13.953,0,0,0-1.47657,4.35234c-.4489,2.1465-.19142,4.3501-.37827,6.51951-.1687,2.02352-.10484,4.05842-.2734,6.08195-.15735,1.91869-.032,3.84652-.16412,5.76742-.10248,1.51317-.19362,3.03073-.16855,4.5483.06149,4.25676-.07758,8.51576-.17328,12.76781-.0432,1.18726,1.02548,1.91412,1.77284,2.6662,1.627,1.61107,3.27228,3.20841,4.80814,4.90844q-1.60657,2.21817-3.12863,4.49578c-1.08937-1.36036-2.16025-2.73447-3.24264-4.10162-.2917-.36469-.60168-.7133-.92284-1.04819a42.48959,42.48959,0,0,1-.09131-5.33225c.12772-6.13209.34419-12.262.45347-18.3963.25763-6.32352.3784-12.65381.6928-18.975.06386-1.22146.11162-2.44514.10484-3.66663Z"/>
    <path class="cls-17" d="M54.5286,40.61876c.6198.26442,1.1622.67,1.75455.98907a3.12626,3.12626,0,0,0,1.577.16854c-2.5295,1.709-4.12686,4.407-5.8565,6.85219a57.61585,57.61585,0,0,1,2.52492-8.0098Z"/>
    <path class="cls-18" d="M34.01085,79.62147a4.51989,4.51989,0,0,0,1.72727.40685,13.47827,13.47827,0,0,0,3.95356-.12338,32.12239,32.12239,0,0,0-5.68083-.28347Zm-.69738-18.57582c-.19582,3.44774-.77921,6.85416-1.03448,10.29493a124.18,124.18,0,0,0-.89778,13.0362,4.33256,4.33256,0,0,0,.29171,2.35481c-.228,2.04616-.67909,4.06039-.891,6.10655C31.805,88.19943,32.90117,83.5743,33.91276,78.931a15.07676,15.07676,0,0,1,.58119-1.71936l.00915.2036a8.792,8.792,0,0,0,2.1648.13713,24.95039,24.95039,0,0,0,3.47962.11439c-1.71814-.46651-3.51621-.24694-5.24568-.622.10028-2.97884,1.47894-5.73149,1.85482-8.6624a16.79119,16.79119,0,0,0-1.40594-2.58578,17.03758,17.03758,0,0,1-2.03725-4.75089Zm5.722-18.40877c1.00263-.4252,2.02355-.7979,3.0558-1.13848a4.691,4.691,0,0,1-1.93917,1.78786,3.85789,3.85789,0,0,0-2.43143,2.37535c-.59712,1.52716.189,3.06128.7543,4.46047a5.56145,5.56145,0,0,1-2.9762-1.30538c-.0227,1.28243-.12756,2.56283-.1594,3.84763a21.97357,21.97357,0,0,0,.50817-3.00179A27.296,27.296,0,0,0,39.04919,50.897a2.77593,2.77593,0,0,1,1.06869.535A5.52017,5.52017,0,0,1,40.66247,53.38c.20734,1.5615.44211,3.12534.55373,4.69821.16178,2.00506-.20055,4.03286.2187,6.01737-.10928,6.15449-.32575,12.30457-.45347,18.45684a42.76919,42.76919,0,0,0,.09131,5.34979c-.2873,2.91953.13432,5.85267-.14365,8.77a3.66754,3.66754,0,0,1-1.10528,2.53766c-.84982.78195-2.085.71564-3.16048.743-2.7299-.0457-5.46675.07545-8.19445-.10979-.80882,2.32286-1.21909,5.03456-3.172,6.72214-1.37173-.12915-2.74581-.20563-4.11754-.31783-.62895-.05946-1.25789-.11214-1.88463-.14954,1.27617-5.61678,2.02811-11.33008,2.95789-17.01145,1.57686-10.128,3.393-20.21939,4.995-30.34523a74.77052,74.77052,0,0,1,2.50664-11.46773c.28256-.6516.43059-1.53176,1.18488-1.79927,1.39-.599,2.84848-1.01969,4.26119-1.56384,1.26468-.46413,2.591-.74759,3.83518-1.27343Z"/>
    <path class="cls-18" d="M52.357,64.29023a14.38136,14.38136,0,0,0,1.20537-4.0674,13.589,13.589,0,0,0-1.20537,4.0674Zm5.33681,12.05909c-.4079,1.08476.43737,2.05775.6015,3.10831a49.39016,49.39016,0,0,0-6.44191.06147c2.17159.53326,4.55287-.32352,6.61047.71332.65181,2.38569,1.28075,4.78071,2.019,7.14151,3.23368-5.35731,6.3486-10.78748,9.27228-16.32028A128.28583,128.28583,0,0,1,62.10086,58.794q-2.2184,8.7708-4.407,17.55531Zm-3.05122-19.3532a6.82821,6.82821,0,0,0,.94791-2.70483,6.61707,6.61707,0,0,0-.94791,2.70483Zm-2.63893-8.36756c1.72964-2.44514,3.327-5.14321,5.8565-6.85219,1.26467.51276,2.3652,1.3331,3.5821,1.94156,1.2191.86134,2.50885,1.61107,3.78046,2.38807,1.22825.73143,1.93,2.02812,2.98974,2.94874a4.6921,4.6921,0,0,1,.60827.98434c3.41136,6.64026,6.68365,13.35575,9.66423,20.201.09335.31219.34185.64944.19143.98672-.99127,2.96228-2.812,5.53955-4.48683,8.14428-3.01479,4.5483-6.221,8.9667-9.50008,13.33053-.35319-.17092-.70416-.34641-1.05971-.50579-.59015-.27359-1.17354-.55375-1.78419-.77717C60.74269,89.57753,60.20487,87.276,58.29533,86.05c.88879,1.864,2.20581,3.482,3.08766,5.34817a4.39738,4.39738,0,0,0,1.16,1.586c.10027.22563.205.45127.30525.67909.8317,2.37672,1.39915,4.83321,2.09417,7.25093q-.78945-.05133-1.57686-.10249c-3.04208-.23019-6.08875-.38283-9.124-.66773a3.71512,3.71512,0,0,1-2.60456-1.02076,8.91725,8.91725,0,0,1-1.3148-3.46827,81.81726,81.81726,0,0,1-1.23979-8.17613,119.8784,119.8784,0,0,1,.45346-24.27315,143.59393,143.59393,0,0,1,2.46787-14.57707Z"/>
    <path class="cls-19" d="M42.09127,41.4984l.14127-.11859c.00678,1.22149-.041,2.44517-.10484,3.66663-.3144,6.32117-.43517,12.65146-.6928,18.975-.41925-1.978-.05692-3.99914-.2187-5.99762-.11162-1.56771-.34639-3.12643-.55373-4.68281a5.4883,5.4883,0,0,0-.54459-1.94154,2.77952,2.77952,0,0,0-1.06869-.53325,27.35042,27.35042,0,0,1-3.20165-1.23044,21.83565,21.83565,0,0,1-.50817,2.99194c.03184-1.28058.1367-2.55678.1594-3.835a5.57039,5.57039,0,0,0,2.9762,1.30109c-.56527-1.3946-1.35142-2.92368-.7543-4.44584a3.852,3.852,0,0,1,2.43143-2.36756,4.6851,4.6851,0,0,0,1.93917-1.782Z"/>
    <path class="cls-20" d="M61.44228,43.71793c.48311.06149.97077.10026,1.45387.17768a27.20179,27.20179,0,0,1,3.57753,1.9597,17.59334,17.59334,0,0,1,1.7388,3.19943c-1.0597-.92062-1.76149-2.21731-2.98974-2.94874-1.27161-.777-2.56136-1.52673-3.78046-2.38807Z"/>
    <path class="cls-21" d="M46.07449,50.81149c.25291-.33945,1.0277-.32809,1.014.18244.07522.40331-.36689.52866-.58778.76564-.17549-.29862-.5219-.56507-.42619-.94808Z"/>
    <path class="cls-22" d="M54.64261,56.99612a6.61707,6.61707,0,0,1,.94791-2.70483,6.82821,6.82821,0,0,1-.94791,2.70483Z"/>
    <path class="cls-23" d="M45.69625,57.30136c.3464-.00442.695-.009,1.04582-.01137-.02491.33965-.05692.67909-.09334,1.01856-.278-.082-.74516.04574-.85221-.3144l-.10027-.69279Z"/>
    <path class="cls-24" d="M52.357,64.29023a13.589,13.589,0,0,1,1.20537-4.0674,14.38136,14.38136,0,0,1-1.20537,4.0674Z"/>
    <path class="cls-25" d="M33.31347,60.98153a16.95243,16.95243,0,0,0,2.03725,4.73531,16.719,16.719,0,0,1,1.40594,2.57729c-.37588,2.9213-1.75454,5.66493-1.85482,8.634,1.72947.37385,3.52754.155,5.24568.62a25.03176,25.03176,0,0,1-3.47962-.114,8.8201,8.8201,0,0,1-2.1648-.13668l-.00915-.20292c-.10486-3.02619-.30084-6.05-.5446-9.067-.59252,4.97907-1.26467,9.949-1.7979,14.937-.1367,1.20776-.30084,2.41332-.47853,3.6187a4.30539,4.30539,0,0,1-.29171-2.34709A123.373,123.373,0,0,1,32.279,71.24269c.25527-3.42948.83866-6.82473,1.03448-10.26116Z"/>
    <path class="cls-26" d="M45.78739,62.7476q.49213.01371.98432,0c-.03405.3259-.07284.65182-.11384.97991-.303-.0525-.60168-.11163-.89794-.17787.00694-.20036.02051-.60148.02746-.802Z"/>
    <path class="cls-27" d="M45.80551,70.256c.33048-.0022.65859.00694.99127.01592-.07063.33049.01371.77022-.35995.94351-.22784-.04336-.45584-.08893-.68131-.13907.01357-.20515.03863-.61522.05-.82036Z"/>
    <path class="cls-28" d="M34.01085,79.49642a32.22564,32.22564,0,0,1,5.68083.28254,13.52221,13.52221,0,0,1-3.95356.123,4.53217,4.53217,0,0,1-1.72727-.40551Z"/>
    <path class="cls-29" d="M51.85342,79.5191a49.39016,49.39016,0,0,1,6.44191-.06147c.05472.25746.11164.51495.16856.77479-2.0576-1.03684-4.43888-.18006-6.61047-.71332Z"/>
    <path class="cls-30" d="M58.29533,86.05c1.90954,1.22606,2.44736,3.52757,3.55027,5.36868.24833.51512.46937,1.04141.69738,1.5655a4.39738,4.39738,0,0,1-1.16-1.586c-.88185-1.86617-2.19887-3.48419-3.08766-5.34817Z"/>
    <path class="cls-31" d="M48.46951,88.26271c.19819-.26662.40332-.52866.61284-.78393a81.81726,81.81726,0,0,0,1.23979,8.17613,8.91725,8.91725,0,0,0,1.3148,3.46827,3.71512,3.71512,0,0,0,2.60456,1.02076c3.03529.2849,6.082.43754,9.124.66773.16177,1.09157.3896,2.174.51732,3.27025A6.49829,6.49829,0,0,0,62.65681,102.22a4.75821,4.75821,0,0,0-2.74126-.67909c-1.90275-.04557-3.80333-.20293-5.70591-.1755-1.25332.01813-2.50663-.01371-3.75538-.10941-.3464-2.48615-.70874-4.97213-1.01871-7.46522a38.12241,38.12241,0,0,0-.966-5.52806Z"/>
    <path class="cls-32" d="M40.92909,96.4912c.278-2.90776-.14365-5.83128.14365-8.74123.32116.33489.63114.6835.92284,1.04819-.25071-.03185-.5014-.0615-.75211-.09351.17092,4.24984.44449,8.49748.59491,12.74733-2.56593.15719-5.12949.3076-7.69083.49681a26.88028,26.88028,0,0,0-3.80553.35538c-.20041.09352-.56272.08657-.60151.36234-.36012,1.28754-.57205,2.613-.95706,3.89869-.53561-.022-1.07106-.05251-1.60429-.08132-.62659-.044-1.25554-.08639-1.88228-.13212,1.95291-1.682,2.36318-4.38485,3.172-6.70008,2.7277.18463,5.46455.06387,8.19445.10942,1.07546-.02727,2.31066.03882,3.16048-.74056a3.64992,3.64992,0,0,0,1.10528-2.52934Z"/>
    <path class="cls-33" d="M61.8456,91.41864c.61065.22342,1.194.50358,1.78419.77717a2.744,2.744,0,0,1-.78156,1.46742c-.10029-.22782-.205-.45346-.30525-.67909-.228-.52409-.449-1.05038-.69738-1.5655Z"/>
  </g>
</svg>
