<svg id="Layer_1" data-name="Layer 1" xmlns="http://www.w3.org/2000/svg" xmlns:xlink="http://www.w3.org/1999/xlink" width="100" height="100" viewBox="0 0 100 100">
  <defs>
    <style>
      .cls-1 {
        fill: none;
      }

      .cls-2 {
        clip-path: url(#clip-path);
      }

      .cls-3 {
        fill: #fbfbf5;
      }

      .cls-4 {
        fill: #3c546c;
      }

      .cls-5 {
        fill: #2f4159;
      }

      .cls-6 {
        fill: #3b556d;
      }

      .cls-7 {
        fill: #3d5369;
      }

      .cls-8 {
        fill: #fac1c3;
      }

      .cls-9 {
        fill: #33445b;
      }

      .cls-10 {
        fill: #fafcf9;
      }

      .cls-11 {
        fill: #dd8783;
      }

      .cls-12 {
        fill: #fac0be;
      }

      .cls-13 {
        fill: #334852;
      }

      .cls-14 {
        fill: #f5bdbe;
      }

      .cls-15 {
        fill: #f9fcf9;
      }

      .cls-16 {
        fill: #2a3d54;
      }

      .cls-17 {
        fill: #41546b;
      }

      .cls-18 {
        fill: #d4e2ea;
      }

      .cls-19 {
        fill: #60798e;
      }

      .cls-20 {
        fill: #30394a;
      }

      .cls-21 {
        fill: #3a3642;
      }

      .cls-22 {
        fill: #323446;
      }

      .cls-23 {
        fill: #383445;
      }

      .cls-24 {
        fill: #c67e83;
      }

      .cls-25 {
        fill: #cb7571;
      }

      .cls-26 {
        fill: #c38283;
      }
    </style>
    <clipPath id="clip-path">
      <rect class="cls-1" x="23.09902" width="53.80196" height="100"/>
    </clipPath>
  </defs>
  <g class="cls-2">
    <g>
      <rect class="cls-3" x="45.79246" y="31.18335" width="7.85193" height="7.85193" rx="2.12622"/>
      <rect class="cls-3" x="50.54605" y="31.86743" width="7.85193" height="7.85193" rx="2.36975"/>
      <path class="cls-4" d="M59.84445,34.37826a73.64977,73.64977,0,0,1,6.94337,3.56591,1.27162,1.27162,0,0,1,.31985,1.19287c-.33276,2.27727-.54792,4.5698-.79381,6.85614-.24188,2.248-.40235,4.50853-.55427,6.76763-.20245,3.01091-.32785,6.02618-.56972,9.03526a17.9579,17.9579,0,0,0,.24315,4.60032,88.59611,88.59611,0,0,0,3.34984,12.2677,1.32883,1.32883,0,0,1-.074,1.14418,11.4676,11.4676,0,0,1-3.35983,4.02331,3.61115,3.61115,0,0,1-5.1824-.73509,32.541,32.541,0,0,1-4.08093-7.33827c-.0707-.15791-.07924-.3491-.31695-.50157A37.72266,37.72266,0,0,1,53.69,80.07559a13.54807,13.54807,0,0,1-3.42415,4.255,2.66944,2.66944,0,0,1-2.83081.27513,16.21336,16.21336,0,0,1-5.94694-4.00023c-.44215-.48868-.71293-.26115-1.07295.03106-1.17433.95337-2.178,2.08936-3.31875,3.0787-.32529.282-.6048.65732-1.112.36273a14.18512,14.18512,0,0,1-2.16278-2.9324c-2.64381-4.02932-5.23891-8.09044-7.87854-12.12249a3.07651,3.07651,0,0,1-.40563-2.55948c1.48528-6.18228,3.41708-12.23917,5.15678-18.34985.77635-2.72632,1.69446-5.41229,2.53023-8.12207a3.16592,3.16592,0,0,1,1.87-2.07263c2.62564-1.17235,5.22111-2.41247,7.82876-3.625A9.55256,9.55256,0,0,0,46.5776,31.934c-.1303,1.058.5819,1.42077.75854,2.06209a12.19121,12.19121,0,0,0,.8714,3.29022c1.13091,3.49449,2.38066,6.95082,3.33911,10.5002.09413.34873.16992.6991.23043,1.0544a24.14758,24.14758,0,0,0,1.60214,5.69977c.22189.60935.45305,1.21415.62787,1.83784.08251.295.29641.69185-.10631.853-.27841.1116-.50393-.20644-.66695-.452-.59735-.8992-1.26338-1.75479-1.81439-2.68143-2.039-3.42979-4.315-6.71184-5.485-8.71087,1.77223,2.87025,4.39733,7.18107,7.26085,11.34051.52956.76908,1.23831,1.3986,1.78422,2.15732.20154.28022.52011.56409.28605.9639-.90447,1.54488-.29513,3.17282-.22626,4.75278.11849,2.7196.30513,5.43792.59081,8.14788-.36455-3.515-.46541-7.04859-.79434-10.56525a3.80774,3.80774,0,0,1,.3451-2.08517q2.58039-5.338,4.8671-10.80823c.746-1.7724,1.35716-3.59861,1.98631-5.41483-1.20488,3.382-2.4977,6.728-4.02132,9.983-.73,1.55961-1.33845,3.17356-2.09372,4.72153-.11557.23679-.19009.66859-.531.57246-.40035-.11286-.25678-.53557-.20535-.83833.1632-.96025.515-1.87454.71293-2.82772a39.31968,39.31968,0,0,0,.9748-7.267,49.14608,49.14608,0,0,0,.7022-6.923,1.92543,1.92543,0,0,1,.30422-1.32318c.69948.0587.1114.63078.34456.79671a53.05073,53.05073,0,0,0-.24479-6.32531c-.03962-.2506-.09977-.54682.13975-.69675.34057-.213.48086.17919.70457.31839.83105.5174,1.0942,1.49309,1.71389,2.08662-.191-.553-1.172-.87848-.69057-1.77531Z"/>
      <path class="cls-5" d="M35.98437,84.078c1.199-.31548,1.67173-1.512,2.60583-2.15278.19972-.13719.30531-.40507.49449-.56517a7.40754,7.40754,0,0,1,1.77-1.38279c1.02387-.414.96354.85831,1.51509,1.2614a23.254,23.254,0,0,0,5.73341,3.3242c1.21759.44071,2.00012-.37363,2.71232-1.0822A19.35839,19.35839,0,0,0,55.34573,75.395c.10158-.3153.0616-.86813.47213-.887.5014-.02307.30785.55121.43469.85087a31.46385,31.46385,0,0,0,4.325,7.78659,3.20638,3.20638,0,0,0,3.91338.86159c1.98068-.97244,3.02381-2.79956,4.13109-4.56379.12831-.20427.024-.396-.0547-.60734A57.22168,57.22168,0,0,1,65.841,69.91541c-.47232-2.42336-1.281-4.82239-1.04041-7.38714.37073-3.95536.62551-7.9229.85577-11.8897.1432-2.46827.36291-4.92489.676-7.37607.17665-1.38314.29567-2.77356.47849-4.15563a2.65687,2.65687,0,0,0-.02307-1.1627c1.82966.39635,1.53471,2.01521,1.68372,3.21082.72783,5.83952,1.28484,11.698,1.82549,17.5593a107.28638,107.28638,0,0,1,.54537,15.07453c-.12722,2.61527-.09032,5.24218-.38781,7.84964-.02726.24009.0685.54447-.23062.66241-.34474.13576-.37727-.22844-.53846-.39017a2.50492,2.50492,0,0,0-.88539-.73545.3205.3205,0,0,0-.008.113,7.63006,7.63006,0,0,1-.22135,5.40538c-.94372,2.49188-.98225,5.19532-1.34788,7.81641-.49559,3.55228-.92156,7.11419-1.38044,10.67174-.4038,3.12994-.82668,6.25751-1.21432,9.38945-.39671,3.205-.78889,6.4109-1.13072,9.6219-.31222,2.92984-.55973,5.86661-.826,8.80137-.35383,3.901-.71891,7.80113-1.03931,11.70506-.19991,2.43482-.30168,4.87746-.49323,7.31319a43.57481,43.57481,0,0,0-.21062,5.38321c.02744.6088-.28986.83776-.83869.865a1.38446,1.38446,0,0,1-.7996.28169,48.72788,48.72788,0,0,1-5.47645-.06905,1.29263,1.29263,0,0,1-1.00187-1.35935c-.00527-.10721-.01817-.21627-.014-.32348.14012-3.70874-.23425-7.40587-.23734-11.1128-.00309-3.95663-.26751-7.90507-.58208-11.84936a32.7814,32.7814,0,0,1,1.0633-10.80494,26.83317,26.83317,0,0,0,.49776-8.68761c-.01817-.25079-.07633-.49958-.07742-.75147-.02653-5.578-.04289-11.15622-.01853-16.73262a32.02975,32.02975,0,0,0,.02326-3.77545,11.27492,11.27492,0,0,1,.16682-2.1455,2.4677,2.4677,0,0,1,1.50364-2.085,1.11891,1.11891,0,0,0,.73419-1.18088c-.01253-2.196.00364-4.39242-.01345-6.58844-.00254-.3006.10014-.73674-.31439-.81761-.384-.07506-.52029.32711-.65695.60988a21.36147,21.36147,0,0,1-1.94634,3.36074c-1.4164,1.93652-2.71286,2.37467-4.94142,1.556A20.26505,20.26505,0,0,1,41.662,81.75533c-.74745-.89249-.80852-.901-1.65756-.08814a16.10971,16.10971,0,0,1-2.65217,2.17748c-.47268-.01961-.69058,1.4513-1.36788.23334Z"/>
      <path class="cls-6" d="M41.67125,81.46492a22.88508,22.88508,0,0,0,6.62315,4.11273A3.26128,3.26128,0,0,0,52.64811,84.154a19.02117,19.02117,0,0,0,2.01067-3.5492c.19572-.4654.39854-.97915,1.066-.849.72873.14211.42524.74383.43,1.14435.02835,2.37577.01018,4.75189.016,7.12784.00145.50828.03871.85213-.70275,1.00042a1.984,1.984,0,0,0-1.51054,1.73733c-.40725,1.97033.04652,3.93991-.20935,5.895-.65187-.30366-.44-.91029-.48286-1.41677-.03653-.43124.14757-.84868.119-1.07021-.33875,2.18585-1.02333,4.512-1.58288,6.86414-2.101,8.829-4.3617,17.622-6.0249,26.549-1.68227,9.02818-3.41016,18.04817-4.95759,27.10142-.129.75419.00981,1.50837-.09215,2.26254-.16955,1.25032-.34056,1.43749-1.60413,1.57924-1.42222.07633-2.84389.02907-4.26521.02907a1.66981,1.66981,0,0,1-1.19941-.34528c-.98534-.17265-.93592-.90864-.85341-1.62467.374-3.2475.54265-6.50993.72783-9.77272.20736-3.6566.45033-7.31247.76382-10.96142.36219-4.21632.47194-8.47317,1.75442-12.56356.23607-.75272.4565-1.51035.684-2.26562a.37378.37378,0,0,1,.42361-.03508c.31693-.02435.27969-.28113.29022-.47632.20409-3.75763.67405-7.49292.93065-11.248.19589-2.86444.24152-5.73559.46105-8.59093a82.38244,82.38244,0,0,0,.33092-8.9166,1.82323,1.82323,0,0,0-.28385-.77707L38.883,88.58383c.22934-.70529-.05706-1.44928.16229-2.15532l.00727-.01435c1.11818-1.03767,1.33481-2.51624,1.874-3.83633.17355-.42506.21153-.93174.74473-1.11291Z"/>
      <path class="cls-7" d="M44.049,17.72468a10.94734,10.94734,0,0,1-1.60978-5.60928,2.87979,2.87979,0,0,1,2.15806-2.78066.944.944,0,0,0,.77944-.83795c.66949-3.62007,4.23759-4.68592,6.91174-4.35953a15.66068,15.66068,0,0,1,4.19761,1.34843,7.88272,7.88272,0,0,0,4.40386.7302,4.1481,4.1481,0,0,0,1.033-.28078c1.10874-.49756,1.56378-.37926,1.97523.77344.53483,1.49892.23388,3.10414.39181,4.65666A2.85393,2.85393,0,0,1,62.70507,13.804a2.91535,2.91535,0,0,0-1.351,2.04992,13.22172,13.22172,0,0,1-.66785,1.8,1.28625,1.28625,0,0,1-.43125.60643c-.23316.15866-.46414.40525-.77053.27133-.28078-.12285-.19083-.42926-.2099-.67041-.22626-2.86916-.22589-2.88-3.10668-2.89678a12.30633,12.30633,0,0,1-5.62473-1.69372c-2.2362-1.16072-2.16514-1.14217-2.81682,1.20741-.37855,1.36444-1.24286,2.594-1.041,4.114a.49969.49969,0,0,1-.34855.59843.6279.6279,0,0,1-.679-.43033A1.66566,1.66566,0,0,0,44.049,17.72468Z"/>
      <path class="cls-8" d="M44.049,17.72468c.48231-.01943,1.01223-.631,1.43367.088.24588.41961.2855.96426.73146,1.26357.09287-.0538.20408-.09741.1999-.11885-.42943-2.23183,1.14127-3.991,1.435-6.054.13229-.93063.68675-1.04075,1.47328-.60606a17.74407,17.74407,0,0,0,5.34433,2.23146,16.101,16.101,0,0,0,3.54409.18847c.67458-.02654.92847.1441,1.05531.82323a10.20154,10.20154,0,0,1,.24625,2.93149c.43342-.302.80379-.56009,1.174-.81816.14447.36347.29785.72366.43215,1.09057A2.422,2.422,0,0,1,59.5893,22.252c-.67131.274-.82214.84413-1.03949,1.39933a7.28331,7.28331,0,0,1-2.83227,3.76926c-1.12437,1.17707-2.52387,1.08037-3.907.74036a7.997,7.997,0,0,1-3.62789-2.24636,12.78661,12.78661,0,0,1-1.55434-3.15847c-.11485-.38891-.312-.69913-.8345-.649a1.90136,1.90136,0,0,1-1.99467-1.32045,2.32227,2.32227,0,0,1,.19627-2.44881c.19481-.24551.38945-.372.05361-.61316Z"/>
      <path class="cls-9" d="M57.07633,48.30043a33.43632,33.43632,0,0,1-1.418,9.30041,5.67255,5.67255,0,0,0-.23606,1.37751c2.34451-5.324,4.84347-10.57834,6.6933-16.17018.31112.58191.30041.87939-.07487,1.89436q-.92628,2.50407-1.87327,5.00068a93.12973,93.12973,0,0,1-4.12564,8.98691,9.13661,9.13661,0,0,0-.79035,6.09106c.19627,1.0613.02672,2.1395.17447,3.221.23588,1.72789.2317,3.48867.34583,5.53588-.67205-1.61214-.46923-3.03382-.633-4.39843-.29841-2.48553-.34166-5.00176-.4865-7.50546-.01436-.251-.0965-.58008.0258-.74382,1.00825-1.35043-.1541-2.13351-.81142-2.96565a105.75174,105.75174,0,0,1-6.78435-10.1729q-1.212-1.9635-2.39539-3.94463c-.12158-.20318-.34547-.51957-.07-.669.38655-.20971.39708.22626.54011.45214,1.85782,2.93385,3.75291,5.84426,5.58366,8.79465a30.60852,30.60852,0,0,0,3.1521,4.707c-.764-2.37484-1.65646-4.6988-2.29143-7.10711a2.05619,2.05619,0,0,1-.01707-1.24866c-.51576-2.22455.10012-4.40568.25895-6.60389.09033-1.24813.32094-2.48534.324-3.74019.00145-.5472.07252-1.16816-.85777-.67314-.58862.31313-.89938-.167-1.0842-.68257.01436-.19972.06833-.36073.32076-.32729.24479.18227.40979.65459.68893-.06724a5.78289,5.78289,0,0,1,1.89763-2.564.492.492,0,0,1,.64659.02362,11.41611,11.41611,0,0,1,2.48463,2.90789,23.28674,23.28674,0,0,0,1.33952-4.24342c.89921.4407,1.2543,1.49073,2.2411,1.61232.06016,1.0882,1.11637,1.62121,1.4851,2.71668-1.39823-.84286-1.8053-2.44845-3.20845-3.37563a23.8227,23.8227,0,0,1,.076,7.82421c-.05833-.75146-.09358-1.206-.12884-1.66047-.43852-.6337-.22371-1.35534-.27859-2.04047a9.426,9.426,0,0,0-.07615-2.32124,1.74848,1.74848,0,0,1,.00364-.58009,7.21035,7.21035,0,0,1-.94119,2.30253.5494.5494,0,0,1-.60788.36237c-1.12837-.30312-.78853.43869-.67622.957.48813,2.252,1.01224,4.496,1.47638,6.75364a7.22526,7.22526,0,0,1,.10812,2.98365Z"/>
      <path class="cls-10" d="M50.31706,36.93883c.22426.27078.44833.54138.63606.76836.28622.0338.27968-.15883.34111-.26115.20117-.33493.46777-.57445.87176-.473.47449.11886.4018.55319.37963.88829-.09014,1.35517-.16737,2.714-.33475,4.06077a58.36828,58.36828,0,0,0-.62659,6.81415q-2.29773-7.19868-4.598-14.397c-.06087-.19009-.21624-.38582-.006-.54647.042-.03217.23316.13031.35583.20336a1.62325,1.62325,0,0,0,.82.65187c.57554.89993,1.67846,1.30337,2.16095,2.29088Z"/>
      <path class="cls-11" d="M48.18264,25.91454a1.84348,1.84348,0,0,1,1.10547.5839,5.54442,5.54442,0,0,0,6.42943.92192q-.00844,1.40357-.01691,2.80681a2.57281,2.57281,0,0,1-2.86587,1.27176,6.32,6.32,0,0,1-4.41587-3.2339,8.68635,8.68635,0,0,1-.23625-2.35049Z"/>
      <path class="cls-12" d="M48.41889,28.265a18.725,18.725,0,0,0,2.9533,2.48153,3.49268,3.49268,0,0,0,4.32863-.51957A2.82164,2.82164,0,0,1,54.655,32.9544c-.36146.30349-.82324.585-.87557,1.14726q-.32357-.012-.64678-.02361a15.25611,15.25611,0,0,1-3.47886-1.98886C48.283,31.07786,48.247,29.72633,48.41889,28.265Z"/>
      <path class="cls-13" d="M37.11055,121.02342q-.18782.00106-.37582.00235c.13739-1.71118.28786-3.42126.40962-5.13353.301-4.22286.587-8.44663.88213-12.66985q.42741-6.12033.86085-12.24062a.37983.37983,0,0,1,.39871.42252A28.01754,28.01754,0,0,1,39.2148,97.186c-.12212,2.24764-.3233,4.49528-.46269,6.74438-.20825,3.3591-.40834,6.71838-.6942,10.0724-.16374,1.92-.28313,3.84358-.4974,5.75956-.05178.46251-.00236.94592-.45,1.261Z"/>
      <path class="cls-14" d="M41.67125,81.46492c-.565,1.45476-1.16035,2.899-1.67864,4.37006a.73188.73188,0,0,1-.94009.57918,9.48391,9.48391,0,0,0-1.70045-2.56931c.81324-1.01458,1.90035-1.7437,2.79373-2.67107.70875-.73582,1.17071-.61132,1.52545.29114Z"/>
      <path class="cls-4" d="M50.31706,36.93883c-.70893-.77435-1.804-1.18506-2.16095-2.29088a17.11207,17.11207,0,0,1,2.38994,2.06118l-.229.2297Z"/>
      <path class="cls-14" d="M39.04525,86.42851a6.19235,6.19235,0,0,1-.16229,2.15586,4.95848,4.95848,0,0,1,.16229-2.15586Z"/>
      <path class="cls-15" d="M57.07633,48.30043a87.37812,87.37812,0,0,0-1.86-9.66623c-.05543-.27987-.10977-.55992-.16556-.83978-.05507-.27623-.20353-.59262.08323-.79635.31167-.22188.569.064.748.24789.4187.43015.5519.2019.72419-.2079.35837-.85322.75419-1.69063,1.2145-2.712.05034.49594.08069.79452.11086,1.0931.20535.82089-.06142,1.67156.15682,2.49171q-.01033.986-.02016,1.97214c-.2984,2.67507-.30894,5.37993-.83669,8.03084a2.20831,2.20831,0,0,1-.1552.38654Z"/>
      <path class="cls-16" d="M39.96462,61.13621q-.78426-2.88951-1.56851-5.7792c.105-1.5787,1.06366-2.885,1.30864-4.42331a42.38684,42.38684,0,0,1,.43343,8.42755c-.00455.58971.20771,1.21668-.17356,1.775Z"/>
      <path class="cls-17" d="M56.32633,88.81137a61.77107,61.77107,0,0,0,.2766-8.45356c.00473-.25278-.00036-.51738.33329-.58753.29877-.06306.46578.10522.61007.33239.477.75091.97862,1.48709,1.43531,2.25a7.16729,7.16729,0,0,0,3.14665,3.25462c.61443.26913.19973.56844-.13775.71891-1.79658.80216-3.60261,1.58341-5.66417,2.48517Z"/>
      <path class="cls-18" d="M56.07991,76.23127c.28114.81742.48831,1.42.7191,2.091-.4018.16174-.96989.30494-1.092.03962-.29422-.6386.09014-1.29337.37291-2.1306Z"/>
      <path class="cls-19" d="M37.11055,121.02342a76.06565,76.06565,0,0,0,.84759-8.772c.32856-3.824.41052-7.66319.82487-11.487.336-3.10176.34747-6.2388.503-9.36019.36455.31239.20445.73637.223,1.11418.21117,4.27666-.408,8.52243-.50266,12.79254-.0965,4.35335-.6177,8.70106-1.06221,13.04024a10.16025,10.16025,0,0,1-.35637,2.8626c-.07252.18046.151.60407-.31985.49285-.45106-.10649-.255-.41942-.15738-.68328Z"/>
      <path class="cls-20" d="M50.77375,18.78963c-.095.50975-.02581,1.118-.76781,1.10073-.70347-.01635-.71-.58989-.76853-1.09093-.06979-.59789.18718-1.02568.78907-1.06294.76508-.04743.59589.64169.74727,1.05314Z"/>
      <path class="cls-21" d="M57.27151,18.84632c-.12248.4565-.1383,1.06731-.80306,1.06766-.66641.00018-.78017-.533-.73147-1.07838.04525-.50648.13031-1.09765.76636-1.10564.65369-.00819.71384.57862.76817,1.11636Z"/>
      <path class="cls-22" d="M49.86274,17.01393a1.88053,1.88053,0,0,1-.32185-.00273c-.392-.069-1.09074.22481-1.10691-.26986-.0209-.63206.7151-.53628,1.19287-.56482a2.97842,2.97842,0,0,1,1.37806.12739c.19918.0845.43524.14085.41563.41163-.02127.29258-.271.28586-.48341.29-.358.00691-.7162.00183-1.07439.00183v.00653Z"/>
      <path class="cls-23" d="M56.83573,16.18a1.19252,1.19252,0,0,1,.42578.05125c.28188.09977.71238.12866.63752.57373-.0696.41271-.45123.23624-.70729.24733a6.18921,6.18921,0,0,1-1.0704-.02508c-.31731-.04143-.85067.2497-.90283-.23333-.04871-.45089.49976-.51775.87212-.607a4.16128,4.16128,0,0,1,.7451-.00691Z"/>
      <path class="cls-24" d="M60.40218,19.09511a1.62,1.62,0,0,1-.25987,1.61122c-.15084.18536-.33166.47595-.60243.30949-.23154-.14212-.181-.48178-.09232-.69821a2.35971,2.35971,0,0,1,.95462-1.2225Z"/>
      <path class="cls-25" d="M45.84287,20.65217c-.597.2179-.90775-.25152-1.277-.55772-.30131-.24988-.5312-.66932-.19518-.91138.40035-.2884.57517.32093.60462.499.09031.5503.90556.36.86758.97008Z"/>
      <path class="cls-26" d="M53.198,20.284a2.84573,2.84573,0,0,1,.31948.61369c.07051.41491.268.97445-.10486,1.20652-.473.2944-.48812-.13212-.39835-.49158a5.1984,5.1984,0,0,0,.11522-.51994c.02944-.20571.03671-.41452.06851-.80869Z"/>
      <path class="cls-4" d="M58.08838,37.91091a8.74241,8.74241,0,0,1-.15682-2.49171,5.89143,5.89143,0,0,1,.15682,2.49171Z"/>
    </g>
  </g>
</svg>
