<svg id="Layer_1" data-name="Layer 1" xmlns="http://www.w3.org/2000/svg" width="298" height="227" viewBox="0 0 298 227">
  <defs>
    <style>
      .cls-1, .cls-5 {
        fill: #5c3cf4;
      }

      .cls-2, .cls-7 {
        fill: #fff;
      }

      .cls-2 {
        opacity: 0.7;
      }

      .cls-3, .cls-6, .cls-8, .cls-9 {
        fill: none;
      }

      .cls-3, .cls-4, .cls-5, .cls-6, .cls-7, .cls-8, .cls-9 {
        stroke: #321f39;
      }

      .cls-3 {
        stroke-miterlimit: 10;
      }

      .cls-10, .cls-4 {
        fill: #321f39;
      }

      .cls-4, .cls-5, .cls-6, .cls-7, .cls-8, .cls-9 {
        stroke-linecap: round;
        stroke-linejoin: round;
      }

      .cls-8 {
        stroke-width: 4px;
      }

      .cls-9 {
        stroke-width: 2px;
      }
    </style>
  </defs>
  <g>
    <g>
      <path class="cls-1" d="M236.48336,49.08078A137.08226,137.08226,0,0,0,177.1161,4.07453C171.33083,1.80747,165.18127.08125,158.92859.00209,126.44344-.40914,42.969,60.03794,36.80092,78.95327,30.6329,97.86866,71.34209,193.268,100.12637,208.07141s143.51025-50.9893,156.66888-71.1385c9.14191-13.99884,3.89246-34.83574-.62747-49.48479A125.71219,125.71219,0,0,0,236.48336,49.08078Z"/>
      <path class="cls-2" d="M236.48336,49.08078A137.08226,137.08226,0,0,0,177.1161,4.07453C171.33083,1.80747,165.18127.08125,158.92859.00209,126.44344-.40914,42.969,60.03794,36.80092,78.95327,30.6329,97.86866,71.34209,193.268,100.12637,208.07141s143.51025-50.9893,156.66888-71.1385c9.14191-13.99884,3.89246-34.83574-.62747-49.48479A125.71219,125.71219,0,0,0,236.48336,49.08078Z"/>
    </g>
    <path class="cls-3" d="M156.58088,12.51431c-6.14928,2.1864-7.7891,8.58946-9.66316,10.77591-2.49878,2.9152-5.83042-5.83047-13.74317-3.74814s-7.07978,6.66334-10.41148,8.74563c-3.33164,2.08229-4.99749-2.91521-8.74562-1.24941s-5.83042,3.74813-6.66335,5.414-5.414.41649-7.07982,1.24941S96.52615,35.784,96.52615,35.784h104.9477s-1.24936-9.16212-6.66334-11.2444-10.41147,3.74813-13.74316.83292A21.42412,21.42412,0,0,0,164.409,12.04582a21.135,21.135,0,0,0-2.45931-.25661"/>
    <path class="cls-3" d="M169.06329,121.68739a10.33071,10.33071,0,0,0-8.10255-6.30413c-8.50889-1.3724-11.68625,6.92954-13.33312,8.85091s-3.84275-3.84275-9.05786-2.47034c-5.21517,1.3724-4.6662,4.39167-6.862,5.76408s-3.29378-1.92133-5.76408-.82344a8.71048,8.71048,0,0,0-4.39171,3.56825c-.54892,1.09794-3.56824.2745-4.66614.82343s-2.47035,1.3724-2.47035,1.3724h69.16912s-.82344-6.03854-4.39173-7.41094c-3.56824-1.37241-6.862,2.4703-9.05781.549"/>
    <g>
      <line class="cls-3" x1="144.69" y1="97.9302" x2="149.89294" y2="95.24031"/>
      <line class="cls-3" x1="139.95142" y1="100.38002" x2="143.10647" y2="98.74889"/>
      <line class="cls-3" x1="144.23491" y1="65.63072" x2="134.76041" y2="63.50789"/>
      <line class="cls-3" x1="147.97226" y1="66.46811" x2="145.5758" y2="65.93117"/>
      <line class="cls-3" x1="158.64064" y1="41.42844" x2="163.23959" y2="49.25226"/>
      <line class="cls-3" x1="156.63582" y1="38.01782" x2="157.79028" y2="39.98181"/>
      <line class="cls-3" x1="149.82133" y1="52.21139" x2="155.27225" y2="56.83459"/>
      <line class="cls-3" x1="140.12684" y1="83.62834" x2="147.58724" y2="82.01774"/>
    </g>
    <g>
      <path class="cls-4" d="M88.81889,152.517a6.088,6.088,0,0,1,1.54914-5.008c2.11616-2.36032,7.65065-5.53453,7.65065-5.53453l-1.95337,11.39459S90.93228,154.188,88.81889,152.517Z"/>
      <g>
        <path class="cls-5" d="M154.47134,141.48883s-11.37289,8.27117-11.54521,10.85591a17.95568,17.95568,0,0,1-.86154,4.48019s-15.33615,9.99433-18.09322,11.02824-4.30791.17233-6.37568-.34465-5.16949.86158-5.16949.86158.51693-9.305-.86158-15.16377-1.72316-8.27122-1.72316-8.27122a25.81347,25.81347,0,0,1-9.4774,6.548A20.60542,20.60542,0,0,1,88.81889,152.517l1.37851,11.02824s-3.10168,6.72033-1.89544,16.887c1.20618,10.16665,2.58474,16.54233,6.89261,18.95475,4.30791,2.41247,12.92372,2.41247,12.92372,2.41247s21.88416-3.10172,29.81067-5.85875c7.92656-2.75707,7.92656-15.85312,13.09605-28.7768s11.02825-22.57341,9.47741-23.952A7.19663,7.19663,0,0,0,154.47134,141.48883Z"/>
        <path class="cls-6" d="M89.81084,153.71076s2.65024,11.37392,2.53979,12.1469a28.55725,28.55725,0,0,0-1.87726,10.04883c.11045,5.52133,1.43554,6.29431,1.76685,2.9815s.33126-5.8526.33126-5.8526"/>
        <path class="cls-6" d="M104.355,166.00184a17.56537,17.56537,0,0,0,6.76811-4.34037"/>
        <path class="cls-6" d="M93.45491,166.29937a17.89464,17.89464,0,0,0,6.7543.60117"/>
        <path class="cls-6" d="M107.72751,194.71175a11.33433,11.33433,0,0,1-2.457,1.51321"/>
        <path class="cls-6" d="M112.55869,169.39132a31.34844,31.34844,0,0,1,1.87726,13.472,16.82976,16.82976,0,0,1-4.55089,9.858"/>
        <path class="cls-6" d="M115.09847,176.45861s2.42938,8.06111.33131,15.12844"/>
        <path class="cls-6" d="M142.92613,152.34474s1.21454,6.33518,2.53964,8.54371"/>
      </g>
      <path class="cls-7" d="M116.66533,97.05406l-2.02558,3.183,8.75329,20.68957,4.84687-6.36605a15.48209,15.48209,0,0,0,3.32765-1.37447c.50641-.50636,3.25535-10.77882,3.25535-10.77882Z"/>
      <path class="cls-7" d="M93.58853,119.26275a66.70681,66.70681,0,0,0,1.44682,7.66817c.94041,3.54471,2.31489,8.17458,2.45959,8.97029.14465.79576-1.15747,2.60429-.94047,3.76176.21706,1.15746.21706,1.51917.28941,2.02553.0723.50641-2.31494,10.77882-2.31494,10.99587a5.60812,5.60812,0,0,0,3.4,1.15747c1.59148,0,10.27241-5.715,10.92347-6.4384.65111-.72341,1.01282-2.67659,1.51918-4.19577s1.80852-19.82145,1.80852-23.07681-8.89794-5.28088-8.89794-5.28088-4.99152,1.08512-7.08945,2.38724A9.69426,9.69426,0,0,0,93.58853,119.26275Z"/>
      <g>
        <path class="cls-7" d="M130.12079,114.99464s-.86811-.86807-1.66387-1.51918c-.79577-.65106-1.95319-1.66382-3.25536-.3617-1.06439,1.06444-.86806,2.09793-.50635,3.54475l-.36171,1.80853.86806,5.42558s3.183-3.97876,3.47241-4.41282c.28935-.434,2.02553-1.08511,2.38723-2.24258S130.12079,114.99464,130.12079,114.99464Z"/>
        <path class="cls-7" d="M124.69521,116.65851s.86806,2.60424,3.25535,2.45959"/>
      </g>
      <path class="cls-7" d="M125.589,141.67426s-2.20853-4.96921-2.09812-6.07345,2.87109-12.03649,1.98766-15.12844c-.88338-3.09195-5.30047-9.38626-5.30047-10.15924a31.42776,31.42776,0,0,0-3.31276-7.39859,3.81751,3.81751,0,0,0-5.30047-.55212,11.66417,11.66417,0,0,0-2.20853,3.42322c-.3313.44171-1.43554,3.97538-3.64411,6.07345s-4.19619,3.20235-4.41705,4.74835l-.22086,1.546a3.85545,3.85545,0,0,0-2.42938,3.09195c-.1104,2.20853.773,2.76069.99384,3.53367s1.32514,9.49666,4.41709,14.13457,5.52128,5.30047,5.52128,5.30047l1.98772,6.1839Z"/>
      <path class="cls-7" d="M102.1786,118.4847s1.87726-.22085,2.53978.88338a5.73217,5.73217,0,0,1,.773,1.76686"/>
      <path class="cls-7" d="M105.74181,106.3137s.1447-4.62982,1.22982-5.71494,7.01706-.65106,7.66812-.3617,2.966,1.15746,2.749,2.31493a2.47448,2.47448,0,0,1-2.38728,1.80853c-1.01277.07235-3.54471-.21705-3.76171-.21705a12.6097,12.6097,0,0,0-1.66388.72341Z"/>
      <path class="cls-7" d="M100.09923,110.58182a4.67544,4.67544,0,0,1,.94041-2.09788c.65106-.57872,5.49794-3.0383,6.366-3.47236a3.12906,3.12906,0,0,1,2.966.217c1.01276.57876,4.41281,3.25536,6.149,4.34047s2.45959,1.95323,2.09789,2.89365a2.40709,2.40709,0,0,1-2.24254,1.37447,12.14318,12.14318,0,0,1-2.60429-.28936s-7.88518-3.97876-8.53628-3.97876a2.99555,2.99555,0,0,0-1.66383.28936A22.81893,22.81893,0,0,1,100.09923,110.58182Z"/>
      <path class="cls-7" d="M96.40982,115.7904a4.73761,4.73761,0,0,1,.07235-3.25535c.72341-1.37447,4.05107-2.24259,6.00429-3.76176s2.02554-1.08507,4.99153-.217,7.59582,3.6894,7.81287,4.70217c.217,1.01276-.1447,1.88088-1.59152,2.17023s-4.99153-1.01276-5.64259-1.15747a51.71451,51.71451,0,0,0-7.23411-.94041C99.73752,113.47546,96.40982,115.7904,96.40982,115.7904Z"/>
      <path class="cls-7" d="M96.43641,120.25151a9.17309,9.17309,0,0,0,3.53366-1.21469c1.10424-.88343,2.09808-1.6564,2.09808-1.6564a36.60393,36.60393,0,0,0,5.85264,1.21469c1.546,0,2.20852-2.42938,1.43554-3.42322s-3.53366-1.98766-6.40476-2.42938-4.52749,0-5.41087.99384a9.26662,9.26662,0,0,1-1.65641,1.546c-.55216.44171-2.42938,1.32514-2.42938,2.87109a3.6073,3.6073,0,0,0,.88338,2.42938"/>
      <path class="cls-7" d="M152.20212,87.1854S100.00174,72.204,91.315,67.18325C80.43811,60.8966,76.52987,54.85162,75.37743,52.61881c-.32389,5.199-1.987,13.73016-4.67159,23.18754-2.82,9.93472-6.062,18.40734-8.57433,22.85173A82.91124,82.91124,0,0,1,70.6839,95.614c6.16413-1.887,16.35394-1.63536,30.56932,1.6354,14.21542,3.27081,42.89774,12.70579,42.89774,12.70579a2.88348,2.88348,0,0,0,1.50959,0c.50321-.25159,2.64178-2.3902,5.032-9.93819S152.20212,87.1854,152.20212,87.1854Z"/>
      <path class="cls-5" d="M181.99935,136.19771s-12.36419,2.70638-16.84442,3.051-8.96042-.86158-10.68359,2.24014-7.40958,17.23159-11.37289,29.29374S137.2397,226.096,137.2397,226.096h79.43777s8.96042-22.05648,16.54233-35.66946,7.75424-23.60732,5.5141-34.11858-7.92651-15.50847-12.57908-19.12708a34.4661,34.4661,0,0,0-9.21835-5.13284Z"/>
      <path class="cls-5" d="M179.1883,131.24494s-11.91341,15.126-11.91341,15.52759,4.81892-1.874,4.81892-1.874l9.90554-8.7008Z"/>
      <path class="cls-4" d="M181.81387,131.9994c-.5688-1.25138-1.59265.68254-1.59265.68254s-6.02938,8.30457-6.712,10.92112-1.47891,4.778-1.47891,4.778-6.3706,5.34679-10.92107,16.38166c-1.28272,3.11055-2.19457,5.6874-2.8431,7.78487a189.59639,189.59639,0,0,0-8.94351,29.354C145.67939,218.7013,144.26255,227,144.26255,227h13.35886s7.42687-44.7417,10.28472-56.76626c1.60336-3.92,3.36528-8.14324,4.8068-11.38666,3.64036-8.19078,3.98167-10.35228,3.98167-10.35228l8.64589-5.34679S182.38267,133.25074,181.81387,131.9994Z"/>
      <g>
        <path class="cls-7" d="M180.15827,75.56718c-2.00252,3.83434-4.78265,7.77509-3.91483,10.16581,1.10311,3.03891-.937,4.14958-3.34649,6.29134s-4.01574,1.60633-3.61419,4.14963c.4016,2.54331,3.07875,2.811,3.34649,3.61419s-.53544,5.75591-1.20472,11.378.40159,9.77169,1.874,10.97642,6.4252,1.33858,6.4252,1.33858-1.47243,11.9134.80318,11.77955,32.52767-13.252,32.52767-13.252-.80319-.1339.66929-2.9449c1.47242-2.811,5.35431-4.14963,11.77955-8.567s12.04726-15.2599,10.17324-22.35438c-1.874-7.09454-4.14959-8.83471-4.55118-9.63784s.2677-4.01579-2.81105-7.76383-3.748-1.60627-3.748-1.60627-7.49608-6.69294-15.92919-9.1024-17.40161-1.60632-15.126-.40159,6.1575,2.6772,6.1575,2.6772-10.97642-2.9449-16.063,0-7.76382,6.559-6.02365,9.3701c0,0,.80314,1.47243,3.2126.40154,2.40946-1.07083,6.02365-2.27556,6.02365-2.27556S182.2187,71.622,180.15827,75.56718Z"/>
        <path class="cls-7" d="M172.87562,98.36243s1.92631.88906,2.6672,1.3336a2.25025,2.25025,0,0,0,2.9635-1.48178,2.96823,2.96823,0,0,0-.74088-2.519"/>
        <path class="cls-4" d="M231.12549,78.50461c-.40159-.80314.2677-4.01579-2.811-7.76383-3.07879-3.748-3.748-1.60632-3.748-1.60632s-7.49613-6.69289-15.92919-9.10235c-8.43316-2.40946-17.40166-1.60632-15.126-.40159s6.1575,2.6772,6.1575,2.6772-10.97642-2.945-16.063,0c-5.08666,2.94486-7.76382,6.559-6.02365,9.3701,0,0,.80314,1.47243,3.2126.40159,2.40946-1.07093,6.02365-2.27561,6.02365-2.27561a66.80283,66.80283,0,0,1,8.29926-.40159,34.71514,34.71514,0,0,1,8.03152,1.60627s-7.89767,4.68507-7.49612,8.16542c.40159,3.48029,3.34649,1.74017,3.34649,1.74017s-1.20473,6.82678-.53544,9.50394a14.92293,14.92293,0,0,0,2.67715,5.08667s-2.40945,6.0236-.80313,6.82674,3.88188-3.21255,3.88188-3.21255,3.07876-2.945,6.69294-3.0788,5.8898,2.27561,5.62206,7.22838-3.88189,10.441-3.34645,13.11818a2.32331,2.32331,0,0,0,1.17382,1.71927c1.80707-2.21905,5.4891-3.72328,11.14118-7.60907,6.4252-4.41738,12.0473-15.2599,10.17328-22.35443S231.52708,79.30774,231.12549,78.50461Z"/>
        <path class="cls-6" d="M203.41675,108.62281a2.7098,2.7098,0,0,0,3.34644,2.9449,10.73707,10.73707,0,0,0,9.77169-8.29926"/>
        <path class="cls-6" d="M204.086,110.63068s-2.54331,4.81892-6.4252,6.69294"/>
        <path class="cls-4" d="M179.72374,123.48112a23.57828,23.57828,0,0,0,6.02365-.66929,34.13416,34.13416,0,0,0,6.69294-2.54331s-4.14963,4.685-6.29135,5.75591-6.96068,5.22051-6.96068,5.22051Z"/>
        <path class="cls-4" d="M183.07023,89.34718s0-2.27562,1.47243-2.14177,3.34649,3.2126,3.34649,3.2126S184.94425,88.14245,183.07023,89.34718Z"/>
        <path class="cls-6" d="M183.07023,89.34718a4.46172,4.46172,0,0,0,3.34645,1.874"/>
        <path class="cls-4" d="M180.66077,85.33139s1.47243-1.874,5.48821-2.14171c4.01574-.26775,6.4252,3.88188,6.29135,4.55117s-2.811-2.811-4.28348-2.9449-5.75591,1.33858-6.69294,1.60633c-.937.26769-2.811-2.54331-2.00787-2.54331S180.66077,85.33139,180.66077,85.33139Z"/>
        <path class="cls-4" d="M179.05445,108.22122c0,3.40071-1.1087,6.1575-2.47636,6.1575s-2.47641-2.75679-2.47641-6.1575c0-3.40066,1.10875-6.1575,2.47641-6.1575S179.05445,104.82056,179.05445,108.22122Z"/>
      </g>
      <polygon class="cls-5" points="214.125 120.001 180.259 134.056 184.81 149.717 216.936 132.048 214.125 120.001"/>
      <path class="cls-6" d="M212.02491,194.21756a19.61984,19.61984,0,0,0,14.12991,2.757"/>
      <path class="cls-6" d="M219.26217,187.15258s6.72033,3.44632,11.71749,3.10167"/>
      <path class="cls-6" d="M194.13333,218.66677a23.96,23.96,0,0,0,4.62325,5.87839"/>
      <path class="cls-6" d="M187.556,206.452s2.11061,4.47864,4.69992,9.04654"/>
      <g>
        <path class="cls-5" d="M135.51654,154.92944s-9.13275-14.81917-10.16666-15.3361c-1.03386-.517-7.23726,2.58475-11.20051,5.5141s-6.89266,7.40958-6.548,9.4774c.34461,2.06777,10.33894,15.68075,10.33894,15.68075l19.2994-13.613Z"/>
        <path class="cls-5" d="M223.3978,146.8306s-6.548-3.61865-12.75141-2.75707-21.88415,14.99154-22.5734,16.71471c-.68931,1.72311-3.274.17228-3.96331,1.03386a13.542,13.542,0,0,0-1.89544,3.9633c0,.51693-21.71182,12.23443-21.71182,12.23443a3.01387,3.01387,0,0,0-2.06782-2.58475c-2.06782-.86158-5.85875-1.89549-5.85875-1.89549l-3.274-3.44632s.86158-2.2401-.17233-3.79094-11.37284-10.51131-13.613-11.37289c-2.24009-.86153-16.19768,8.78815-17.92085,12.57908s-.68925,8.09889,3.61861,13.613c4.30791,5.51415,18.61015,20.678,21.1949,25.15816s7.92656,6.548,11.20056,6.2034,32.91234-6.2034,48.07616-14.6469,17.57625-10.68358,17.57625-10.68358,10.339-1.03391,15.6808-6.03108"/>
        <path class="cls-6" d="M143.55327,178.52144c-.3758.99886-.75874,2.09276-1.14407,3.28932"/>
        <path class="cls-6" d="M148.78487,168.88708s-1.71019,1.52021-3.93126,6.4655"/>
        <path class="cls-6" d="M197.93046,165.63149c8.11477,2.15065,20.9622,5.43094,26.5012,3.94484"/>
        <path class="cls-6" d="M184.45433,165.61308s2.2401-2.75707,8.09885-1.37856c.54225.1276,1.19665.29353,1.94341.48818"/>
        <path class="cls-6" d="M217.81563,175.2457c1.07215.21456,2.13391.39591,3.1697.534"/>
        <path class="cls-6" d="M197.72267,168.71475a122.20791,122.20791,0,0,0,16.60134,5.732"/>
        <path class="cls-6" d="M160.12661,189.32333a75.98387,75.98387,0,0,1-2.20894,9.02981c-2.75707,8.61577-.86158,6.548,0,3.96326"/>
        <path class="cls-6" d="M161.53628,179.22606s-.20658,2.52052-.74122,6.10479"/>
      </g>
      <path class="cls-6" d="M99.80926,139.2073s2.79588,1.04039,4.2466-.29372"/>
      <g>
        <path class="cls-7" d="M119.12492,105.30094s8.46393,7.37881,9.76605,7.59581a6.2022,6.2022,0,0,0,2.02553.07235"/>
        <g>
          <rect class="cls-7" x="123.34008" y="102.28751" width="2.50656" height="1.29246" transform="translate(33.23044 -30.37671) rotate(16.01355)"/>
          <polygon class="cls-7" points="125.62 103.901 124.346 103.522 124.703 102.28 125.976 102.658 125.62 103.901"/>
        </g>
        <g>
          <path class="cls-8" d="M89.5119,89.74078c6.42651,1.17415,16.56888,3.73113,27.33365,6.64826"/>
          <path class="cls-8" d="M62.92736,94.61664a34.42761,34.42761,0,0,1,19.54925-5.662"/>
        </g>
        <path class="cls-5" d="M152.20212,87.1854S134.35555,82.06773,117.79607,76.811c-.16138,3.36472-.73023,10.64253-2.70488,15.53215a65.97564,65.97564,0,0,1-3.6273,7.56514c14.57248,4.08823,32.68707,10.04686,32.68707,10.04686a2.88348,2.88348,0,0,0,1.50959,0c.50321-.25159,2.64178-2.3902,5.032-9.93819S152.20212,87.1854,152.20212,87.1854Z"/>
        <ellipse class="cls-5" cx="66.72523" cy="74.67647" rx="28.36785" ry="4.13788" transform="translate(-23.33372 118.47392) rotate(-74.15302)"/>
        <path class="cls-4" d="M68.25931,75.11193c-3.59614,12.66886-7.54319,22.64613-8.816,22.28485-1.27281-.36133.61066-10.92436,4.20681-23.59322s7.5432-22.64613,8.816-22.28485C73.73888,51.88,71.85542,62.443,68.25931,75.11193Z"/>
        <path class="cls-9" d="M144.70534,84.88263a38.89339,38.89339,0,0,1-1.13755,10.45193,35.912,35.912,0,0,1-5.81,12.581"/>
        <path class="cls-5" d="M159.24779,92.49748c-.28353-.49617-1.84282-.85054-1.84282-.85054s-.28353-.42527-.638-1.06318c-.2504-.45088-2.90689-1.53829-4.4442-2.13772a32.80641,32.80641,0,0,1-1.63023,11.571c-1.67069,5.27581-3.21763,7.90683-4.16988,9.09991.98594.14071,3.9765.604,4.36142.604.42527,0,.42527-.14174.92143-.49612s1.91372.28349,2.40989-.07089a18.6958,18.6958,0,0,0,3.6148-6.30817C159.03516,99.51444,159.53132,92.9936,159.24779,92.49748Z"/>
        <g>
          <path class="cls-10" d="M154.96694,104.74741a.25844.25844,0,0,1-.18153.00324l.27775-.83293a.76552.76552,0,0,0-.71416.191.53679.53679,0,0,1-.26854.14127c-.30552-.01724-2.68618-.61855-4.48127-1.09146q-.16363.42735-.324.82245c1.49583.39563,4.38971,1.14666,4.79839,1.14666a1.31316,1.31316,0,0,0,.7975-.31312A.80565.80565,0,0,1,154.96694,104.74741Z"/>
          <path class="cls-10" d="M153.86975,106.8241l.12431-.86891a1.10958,1.10958,0,0,0-.73684.12154.70148.70148,0,0,1-.3884.08659c-.38092,0-2.56858-.4373-4.19445-.78233q-.19668.43206-.38552.81554c1.11594.23819,4.01216.84467,4.58.84467a1.55421,1.55421,0,0,0,.781-.17919A.26922.26922,0,0,1,153.86975,106.8241Z"/>
          <path class="cls-10" d="M152.81437,107.69813a3.57418,3.57418,0,0,1-1.43409.23726c-.512,0-2.51451-.32257-3.72948-.52952q-.25518.4491-.48663.80727c.87958.15269,3.51662.60018,4.21611.60018a4.41859,4.41859,0,0,0,1.82657-.32985l.28353-.14189-.39266-.78533Z"/>
          <path class="cls-10" d="M156.54893,100.23034l.15259-.86459c-.89508-.1579-3.98355-1.196-5.358-1.66575q-.10408.42-.22236.852C152.54367,99.038,155.59945,100.0628,156.54893,100.23034Z"/>
          <path class="cls-10" d="M156.61367,94.3497c-.521-.65134-3.01143-1.23344-4.41338-1.51654-.02894.284-.06136.57448-.10031.876a12.60285,12.60285,0,0,1,3.82824,1.1888c.5757.71994.96729,1.15719,1.54769,1.15719v-.87793C157.30852,95.17722,157.03288,94.87372,156.61367,94.3497Z"/>
          <path class="cls-10" d="M158.4314,93.72556l-.97626-.42715a3.43733,3.43733,0,0,0-.66125-.8987c-.45995-.46-3.07034-1.29653-4.4489-1.71555-.00907.28808-.02152.587-.04135.90569a22.48059,22.48059,0,0,1,3.86954,1.43057,2.33746,2.33746,0,0,1,.53177.74972l.06173.1852,1.31279.57439Z"/>
          <path class="cls-10" d="M157.067,98.06429l.39994-.78144a2.49526,2.49526,0,0,1-.57913-.53478c-.39666-.46257-3.03444-1.17837-4.99684-1.6588q-.07236.42431-.15912.86609a26.95437,26.95437,0,0,1,4.48935,1.36414A3.03931,3.03931,0,0,0,157.067,98.06429Z"/>
          <path class="cls-10" d="M155.683,102.85892l.04158-.877a29.64136,29.64136,0,0,1-5.19862-1.4526q-.13966.42861-.27784.83334A29.58834,29.58834,0,0,0,155.683,102.85892Z"/>
        </g>
      </g>
    </g>
  </g>
</svg>
