<svg id="Layer_1" data-name="Layer 1" xmlns="http://www.w3.org/2000/svg" xmlns:xlink="http://www.w3.org/1999/xlink" width="298" height="227" viewBox="0 0 298 227">
  <defs>
    <style>
      .cls-1, .cls-11, .cls-8, .cls-9 {
        fill: none;
      }

      .cls-2 {
        clip-path: url(#clip-path);
      }

      .cls-3 {
        fill: #8775e5;
      }

      .cls-4 {
        opacity: 0.75;
      }

      .cls-5 {
        clip-path: url(#clip-path-4);
      }

      .cls-6 {
        fill: #fff;
      }

      .cls-7 {
        fill: #332339;
      }

      .cls-11, .cls-8, .cls-9 {
        stroke: #332339;
        stroke-miterlimit: 10;
      }

      .cls-11, .cls-9 {
        stroke-width: 4px;
      }

      .cls-10 {
        fill: #989898;
      }

      .cls-11 {
        stroke-linecap: round;
      }
    </style>
    <clipPath id="clip-path">
      <rect class="cls-1" x="35.5" width="227" height="227"/>
    </clipPath>
    <clipPath id="clip-path-4">
      <rect class="cls-1" x="38.20584" y="6.24432" width="217.72356" height="217.83957"/>
    </clipPath>
  </defs>
  <g class="cls-2">
    <g class="cls-2">
      <g class="cls-2">
        <path class="cls-3" d="M60.61373,55.67492s45.30012-49.002,76.692-49.42833C168.698,5.82028,249.36332,68.45821,255.3239,88.05921c5.96056,19.60053-33.379,118.45767-61.19467,133.79742S55.44812,169.0192,42.732,148.14019c-12.71562-20.87946,3.97387-68.603,17.88169-92.46527"/>
        <g class="cls-4">
          <g class="cls-5">
            <path class="cls-6" d="M60.61373,55.67492s45.30012-49.002,76.692-49.42833C168.698,5.82028,249.36332,68.45821,255.3239,88.05921c5.96056,19.60053-33.379,118.45767-61.19467,133.79742S55.44812,169.0192,42.732,148.14019c-12.71562-20.87946,3.97387-68.603,17.88169-92.46527"/>
          </g>
        </g>
      </g>
      <g class="cls-2">
        <path class="cls-7" d="M211.46377,194.17249a10.11733,10.11733,0,0,0,2.96644.00182c.02134-.00318-.597-1.31206-.64513-1.39015-.5616-.90392-2.17739-2.3204-3.33418-2.03256a1.4102,1.4102,0,0,0-.93115,1.88047,2.94755,2.94755,0,0,0,1.944,1.54042"/>
        <path class="cls-7" d="M230.79605,193.59127c.01952.00954.22564-1.42328.22836-1.515.03042-1.06372-.53572-3.13669-1.65891-3.53439a1.40978,1.40978,0,0,0-1.81419,1.05419,2.94886,2.94886,0,0,0,.77135,2.35762,10.09435,10.09435,0,0,0,2.47339,1.63757"/>
        <path class="cls-7" d="M230.43434,208.90955a8.12406,8.12406,0,0,1-2.4575-.41858c-.0631.59247-.13892,1.179-.24107,1.75244-.04949.24652-.084.50121-.14483.735q-.08443.35548-.16707.7037c-.13121.4767-.25152.9198-.385,1.36018-.06583.22292-.133.43221-.19976.64786.16571-.34231.43675-.87985.46671-.92616.51166-.78315,1.95992-1.99578,2.97007-1.71975a1.23971,1.23971,0,0,1,.78088,1.67117,2.59341,2.59341,0,0,1-1.73882,1.31479,8.51129,8.51129,0,0,1-2.56737-.05221c-.16617.52755-.33279,1.03966-.49759,1.5159-.1076.31281-.21247.60746-.316.89393h-.68736c.1362-.34913.27513-.71142.419-1.10231.158-.42676.3187-.88212.479-1.35156a9.09243,9.09243,0,0,1-2.161-1.22444,13.41516,13.41516,0,0,1-1.39152.7541c.15255.53163.29647,1.05055.42177,1.53906.12712.49077.2379.9484.3405,1.38515h-.66647c-.084-.39226-.17343-.799-.27694-1.2367-.10351-.44355-.22065-.91163-.346-1.392a8.48762,8.48762,0,0,1-2.56238.15481,2.58834,2.58834,0,0,1-1.79012-1.2435,1.23949,1.23949,0,0,1,.71324-1.70114c.99834-.31644,2.49382.83718,3.03635,1.599.0345.049.38.67146.54934.99335-.07673-.29011-.15164-.57794-.237-.87849-.11849-.43312-.25832-.88712-.39135-1.3275q-.11577-.33913-.23381-.68463c-.07491-.23426-.17433-.4481-.2615-.67691-.13484-.33142-.291-.66647-.44538-1.00152a7.913,7.913,0,0,1-2.38758.49939,2.591,2.591,0,0,1-1.9581-.95794,1.23963,1.23963,0,0,1,.44719-1.78966c.93887-.464,2.59188.44991,3.24337,1.12092.02134.02179.14392.17752.28829.36411-.16117-.32234-.321-.64468-.49486-.96566-.494-.91163-1.02513-1.82462-1.55359-2.7417-.11032-.19114-.21746-.38363-.32688-.57477a8.22755,8.22755,0,0,1-2.45341.52165,2.59221,2.59221,0,0,1-1.9581-.9584,1.23983,1.23983,0,0,1,.44764-1.78966c.93887-.46354,2.59189.44991,3.24338,1.12092.02315.02361.16979.21066.33187.42086-.28012-.50212-.55343-1.00652-.80857-1.51545a21.9223,21.9223,0,0,1-1.15089-2.69131,8.628,8.628,0,0,1-2.52333.54616,2.59152,2.59152,0,0,1-1.95811-.9584,1.23914,1.23914,0,0,1,.44719-1.78921c.93887-.464,2.59234.44946,3.24383,1.12047.04586.04767.57068.72686.75.97565l-.01271-.03178a16.18557,16.18557,0,0,1-.637-2.80209,21.9467,21.9467,0,0,1-.20838-2.56011c-.02724-.79495-.00272-1.52362.02406-2.1683.01725-.34867.0395-.66783.06356-.96475l-.01771.01317c-.01543.0118-.43629-1.189-.454-1.26757-.207-.91209-.06991-2.79573.83128-3.32964a1.24,1.24,0,0,1,1.74381.602,2.59254,2.59254,0,0,1-.266,2.16376,8.28236,8.28236,0,0,1-1.78785,1.77968c-.01862.30963-.035.64014-.0454,1.00606-.01271.64378-.02088,1.37063.02315,2.161.0109.21065.03178.4372.04767.65648.04994-.37546.12531-.89029.13847-.93933.237-.90482,1.22626-2.51334,2.27227-2.57145a1.23946,1.23946,0,0,1,1.26984,1.33748,2.59089,2.59089,0,0,1-1.23306,1.79784,8.33091,8.33091,0,0,1-2.41982.75818c.04313.48578.09851.98382.18659,1.49956a15.943,15.943,0,0,0,.69235,2.76168l.059-.00953c.00363-.3523.02815-1.09232.03723-1.15316.1362-.92525.943-2.63274,1.97626-2.80572a1.23919,1.23919,0,0,1,1.40876,1.19039,2.58873,2.58873,0,0,1-1.02785,1.92223,8.734,8.734,0,0,1-2.37942,1.036,21.793,21.793,0,0,0,1.17223,2.57691c.32688.61834.68372,1.23125,1.04693,1.84278-.00364-.24743.02769-1.21853.03813-1.28845.1362-.92525.943-2.63274,1.97626-2.80572a1.2398,1.2398,0,0,1,1.40922,1.19039,2.59072,2.59072,0,0,1-1.02831,1.92223,8.61569,8.61569,0,0,1-2.36489,1.03195c.16526.27739.32915.55524.49713.83218.54753.90437,1.1005,1.80828,1.619,2.71719.17933.31507.34458.632.51211.9484.00545-.37091.0286-1.04556.03677-1.10322.1362-.9257.94342-2.6332,1.97627-2.80572a1.23926,1.23926,0,0,1,1.40921,1.18994,2.59071,2.59071,0,0,1-1.02831,1.92223,8.14069,8.14069,0,0,1-2.28044,1.007c.27422.52891.53436,1.05963.76544,1.59445.09489.2329.20657.46444.28466.6928q.126.34322.24879.67918c.15391.46989.29828.90619.42949,1.34657.0681.22291.12757.434.19068.65058-.0504-.37637-.12122-.97474-.12122-1.02967-.0059-.93524.53345-2.74579,1.52816-3.07268a1.23951,1.23951,0,0,1,1.57311.96294,1.48954,1.48954,0,0,1,.03315.2724,4.80888,4.80888,0,0,1,.77815,2.30042c.00227.05992-.05312.76953-.089,1.13136.09579-.2842.19158-.56568.28647-.86305.13983-.42676.27376-.88257.40633-1.32341q.0899-.34662.18206-.70007c.06719-.23653.10169-.46989.15526-.70869.07037-.35094.12531-.71641.18115-1.081a7.91562,7.91562,0,0,1-2.26728-.90073,2.5901,2.5901,0,0,1-1.10413-1.87911,1.23893,1.23893,0,0,1,1.36019-1.24577c1.03921.13075,1.91361,1.80465,2.087,2.724.00545.02951.02179.22745.039.46262.04358-.35775.08853-.71459.12031-1.0787.0908-1.0324.15118-2.087.21656-3.1435.01362-.22019.03042-.43992.04449-.66011a8.21921,8.21921,0,0,1-2.334-.918,2.59094,2.59094,0,0,1-1.10413-1.87956,1.23942,1.23942,0,0,1,1.36018-1.24578c1.03921.13121,1.91361,1.80511,2.087,2.724.00636.03314.02542.26922.04449.53391.04359-.57341.094-1.14454.16163-1.70977a21.929,21.929,0,0,1,.52482-2.87972,8.61852,8.61852,0,0,1-2.4062-.9366,2.59014,2.59014,0,0,1-1.10413-1.87956,1.23908,1.23908,0,0,1,1.36019-1.24532c1.0392.13075,1.91406,1.80465,2.087,2.724.01226.06492.07492.92116.08717,1.22761.00318-.01089.00454-.0227.00772-.03359a16.12493,16.12493,0,0,1,1.01424-2.68859,22.00259,22.00259,0,0,1,1.238-2.25048c.41632-.67782.83854-1.27211,1.21627-1.79512.207-.28148.40134-.53526.58566-.76953l-.02224.00137c-.01953.00136.29192-1.23216.32052-1.308.331-.87486,1.48412-2.37033,2.53014-2.31812a1.23939,1.23939,0,0,1,1.12229,1.46369,2.59017,2.59017,0,0,1-1.41557,1.658,8.285,8.285,0,0,1-2.47294.49849c-.18614.24744-.38227.51439-.59247.814-.36592.52981-.77362,1.13137-1.17314,1.81509-.10714.1816-.21474.38181-.32234.57385.24879-.286.59565-.67328.63379-.70733.69643-.62379,2.40937-1.41966,3.31329-.8912a1.23966,1.23966,0,0,1,.32143,1.81646,2.592,2.592,0,0,1-2.0203.819,8.33669,8.33669,0,0,1-2.43616-.70234c-.232.42858-.46036.87441-.67192,1.35338a15.959,15.959,0,0,0-.94568,2.685l.05447.02452c.19749-.29192.62607-.89483.66739-.94069.62379-.69644,2.23867-1.67571,3.1957-1.24986a1.24007,1.24007,0,0,1,.51892,1.77014,2.59287,2.59287,0,0,1-1.91815,1.036,8.75539,8.75539,0,0,1-2.556-.4481,21.83567,21.83567,0,0,0-.44446,2.79574c-.0681.696-.10851,1.40376-.14256,2.11428.133-.20839.69508-1.00108.74229-1.05328.6238-.69689,2.23913-1.67572,3.19571-1.24987a1.23917,1.23917,0,0,1,.51892,1.7697,2.59118,2.59118,0,0,1-1.91815,1.03648,8.61366,8.61366,0,0,1-2.54149-.444c-.01544.3228-.03224.64468-.04449.96839-.04223,1.05646-.07991,2.11518-.14892,3.15938-.0236.36139-.06083.71732-.09625,1.07371.2093-.30645.6011-.85669.63969-.90028.62425-.69644,2.23913-1.67571,3.19616-1.24986a1.23975,1.23975,0,0,1,.51892,1.77015,2.59208,2.59208,0,0,1-1.91815,1.036"/>
        <path class="cls-7" d="M48.1578,181.48582a15.85819,15.85819,0,0,0,4.66032.00272c.03359-.00454-.93752-2.0607-1.01333-2.18374-.88258-1.42011-3.42089-3.64607-5.23781-3.19343a2.215,2.215,0,0,0-1.46323,2.95418,4.62951,4.62951,0,0,0,3.05405,2.42027"/>
        <path class="cls-7" d="M78.53026,180.57269c.03088.015.355-2.236.35912-2.38032.04767-1.67118-.84218-4.92817-2.60687-5.55288a2.21518,2.21518,0,0,0-2.85021,1.65665,4.63228,4.63228,0,0,0,1.21218,3.70373,15.85336,15.85336,0,0,0,3.88578,2.57282"/>
        <path class="cls-7" d="M77.962,204.63887a12.793,12.793,0,0,1-3.86126-.6574c-.099.9307-.21792,1.85187-.37864,2.75306-.07763.38726-.13166.78724-.22746,1.155q-.1321.55773-.26241,1.10549c-.20611.74864-.395,1.44508-.60427,2.13652-.104.35049-.20929.67873-.31416,1.01787.26014-.53754.686-1.38243.7332-1.45507.80358-1.23034,3.07858-3.13533,4.66576-2.7013a1.94686,1.94686,0,0,1,1.22717,2.625,4.07136,4.07136,0,0,1-2.73218,2.06524,13.376,13.376,0,0,1-4.03333-.08126c-.26106.82855-.52256,1.63349-.78178,2.38168-.16844.49123-.33324.95385-.49623,1.40422H69.81632c.2143-.54888.43266-1.11775.65831-1.73155.24878-.671.50076-1.38607.75272-2.12427a14.2472,14.2472,0,0,1-3.39546-1.9236,21.20864,21.20864,0,0,1-2.18556,1.1854c.23971.83536.46535,1.65029.66194,2.41754.19976.77135.3741,1.49.53571,2.17648H65.7966c-.1321-.61653-.2724-1.25576-.43493-1.94266-.16254-.69735-.34685-1.43283-.54389-2.18692a13.36229,13.36229,0,0,1-4.02562.24289,4.06912,4.06912,0,0,1-2.81252-1.954A1.947,1.947,0,0,1,59.1001,207.875c1.56858-.49713,3.91848,1.31524,4.77019,2.512.05492.07673.59745,1.0551.864,1.5604-.12076-.45536-.2388-.908-.37274-1.38016-.18658-.68009-.40586-1.39333-.6147-2.08522q-.18183-.53254-.36774-1.07553c-.11714-.36819-.27377-.70415-.41088-1.06327-.212-.52074-.45672-1.04738-.70007-1.57356a12.4077,12.4077,0,0,1-3.75094.78451,4.07078,4.07078,0,0,1-3.07631-1.50546,1.94727,1.94727,0,0,1,.7028-2.81117c1.475-.72913,4.07238.70642,5.09569,1.76061.03314.03405.22655.27921.45265.57249-.25289-.50621-.50349-1.01332-.77726-1.51772-.77543-1.43146-1.61033-2.8661-2.4407-4.30664-.17343-.30055-.3414-.60291-.51348-.90392a12.91772,12.91772,0,0,1-3.85446.81993,4.07047,4.07047,0,0,1-3.0763-1.50592,1.94727,1.94727,0,0,1,.70279-2.81117c1.475-.72867,4.07238.70643,5.09615,1.76062.03632.03767.26651.331.52074.66147-.43992-.78905-.86895-1.58173-1.26983-2.38077a34.51506,34.51506,0,0,1-1.80829-4.22856,13.53738,13.53738,0,0,1-3.96433.85806,4.07152,4.07152,0,0,1-3.07631-1.50547,1.94741,1.94741,0,0,1,.70279-2.81161c1.47506-.72868,4.07239.70687,5.0957,1.76061.07264.07491.89711,1.14226,1.17859,1.53361-.00545-.01725-.01362-.0336-.01952-.05085a25.3828,25.3828,0,0,1-1.00107-4.402,34.54181,34.54181,0,0,1-.32734-4.022c-.04267-1.249-.00408-2.39394.03769-3.40636.02724-.54843.0622-1.0492.09988-1.51636l-.0277.02134c-.02452.01816-.68554-1.86822-.71368-1.9917-.32462-1.43328-.10943-4.39245,1.30661-5.231a1.9472,1.9472,0,0,1,2.739.94568,4.06938,4.06938,0,0,1-.41768,3.39955,13.0223,13.0223,0,0,1-2.80844,2.79619c-.02951.48578-.05539,1.00561-.07129,1.58037-.02,1.01106-.03314,2.15287.03587,3.39547.01771.331.04994.68645.07492,1.031.07853-.58974.19749-1.39877.21745-1.4755.37229-1.42147,1.92724-3.94889,3.56981-4.04014a1.94725,1.94725,0,0,1,1.99534,2.10156,4.073,4.073,0,0,1-1.93722,2.82434,13.102,13.102,0,0,1-3.80135,1.19084c.0672.76317.15436,1.54587.29282,2.35626a25.0982,25.0982,0,0,0,1.0878,4.33888c.05085-.00817.0413-.00681.09261-.01544.00544-.553.04449-1.71612.05856-1.81146.21384-1.45371,1.48186-4.13639,3.10492-4.40788a1.94751,1.94751,0,0,1,2.21369,1.87,4.07052,4.07052,0,0,1-1.61532,3.02,13.75654,13.75654,0,0,1-3.73779,1.628,34.3106,34.3106,0,0,0,1.841,4.04832c.51394.97156,1.07416,1.934,1.64529,2.89471-.00634-.38863.04359-1.91452.05948-2.02393.2143-1.45371,1.48186-4.1364,3.1049-4.40789a1.94745,1.94745,0,0,1,2.21371,1.86957,4.069,4.069,0,0,1-1.61532,3.02,13.53011,13.53011,0,0,1-3.71509,1.62169c.25968.43629.51711.87259.78088,1.30752.86032,1.42056,1.72928,2.84067,2.5433,4.269.28239.49486.54208.99244.80495,1.49.00817-.58294.04449-1.643.05811-1.73383.21338-1.45371,1.4814-4.13639,3.10445-4.40743a1.94665,1.94665,0,0,1,2.21371,1.86911,4.06922,4.06922,0,0,1-1.61534,3.02047,12.78871,12.78871,0,0,1-3.583,1.58173c.43084.83082.83944,1.66482,1.20309,2.50518.14892.36592.32417.72912.4472,1.08869q.19682.53866.39089,1.0669c.24108.7382.46808,1.42329.67464,2.11564.10716.34958.19976.681.29964,1.022-.07944-.59156-.19023-1.53134-.19067-1.61806-.00909-1.46914.83763-4.31345,2.40075-4.82692a1.947,1.947,0,0,1,2.47158,1.51227,2.30859,2.30859,0,0,1,.05174.42858,7.55834,7.55834,0,0,1,1.22308,3.61384c.00319.094-.084,1.209-.14028,1.77741.15027-.44629.30146-.88893.45083-1.3561.21928-.67056.42947-1.38652.63741-2.07887q.14232-.54411.28648-1.09958c.10532-.37183.1598-.73866.24425-1.11367.11031-.55161.19657-1.12546.28419-1.69886a12.40569,12.40569,0,0,1-3.56163-1.41467,4.06891,4.06891,0,0,1-1.73518-2.95236,1.94662,1.94662,0,0,1,2.137-1.95719c1.63259.20566,3.00685,2.83523,3.2788,4.2794.00862.04722.0345.35775.06174.72731.06855-.5616.13892-1.1232.18887-1.69478.143-1.62215.23743-3.27925.34-4.93907.02134-.34549.04766-.691.07037-1.03694a12.91149,12.91149,0,0,1-3.667-1.44235A4.07132,4.07132,0,0,1,68.61,191.496a1.947,1.947,0,0,1,2.137-1.95674c1.63259.20566,3.00685,2.83568,3.2788,4.2794.01.05176.04.42313.06991.839.06856-.90073.148-1.79829.25424-2.68631a34.46707,34.46707,0,0,1,.82447-4.52457,13.53679,13.53679,0,0,1-3.78-1.47141,4.07047,4.07047,0,0,1-1.7352-2.95282,1.947,1.947,0,0,1,2.137-1.95674c1.63259.20566,3.00685,2.83569,3.27925,4.27941.01907.1026.11758,1.44735.1371,1.929.00454-.01725.00681-.03586.01136-.05266a25.3915,25.3915,0,0,1,1.59353-4.224,34.6019,34.6019,0,0,1,1.94585-3.53575c.6533-1.06463,1.317-1.99851,1.91043-2.81979.32551-.4422.63061-.84126.91981-1.20991l-.035.00272c-.03.00182.459-1.93585.50394-2.05526.51982-1.37425,2.33219-3.72371,3.97523-3.64153a1.94684,1.94684,0,0,1,1.76288,2.29951,4.07071,4.07071,0,0,1-2.2237,2.60505,13.01552,13.01552,0,0,1-3.88533.7827c-.29238.38908-.60064.80812-.93116,1.27892-.5743.83218-1.21535,1.77741-1.84278,2.85157-.168.286-.33687.60019-.50621.90164.39089-.449.9357-1.05781.99516-1.11139,1.0946-.97973,3.78546-2.23005,5.206-1.39968a1.94673,1.94673,0,0,1,.50484,2.85339,4.06968,4.06968,0,0,1-3.17391,1.28664,13.09308,13.09308,0,0,1-3.82722-1.10368c-.365.67419-.72368,1.37472-1.05555,2.127a25.06722,25.06722,0,0,0-1.48639,4.21812l.0858.03859c.31008-.45855.98382-1.406,1.04828-1.47777.98019-1.0946,3.5176-2.63275,5.02079-1.96355a1.9465,1.9465,0,0,1,.81493,2.78029,4.06867,4.06867,0,0,1-3.01319,1.628,13.74929,13.74929,0,0,1-4.01563-.70415,34.27194,34.27194,0,0,0-.69781,4.39245c-.10714,1.09369-.17115,2.20553-.22473,3.32192.2093-.32779,1.09233-1.57266,1.16633-1.65528.98018-1.09414,3.5176-2.63275,5.02078-1.96355a1.94724,1.94724,0,0,1,.81539,2.78075,4.07244,4.07244,0,0,1-3.01319,1.628,13.53781,13.53781,0,0,1-3.99339-.69734c-.02406.50711-.0504,1.01287-.06992,1.52135-.06628,1.65937-.1253,3.32328-.23381,4.96358-.03723.56841-.09534,1.12683-.15073,1.68661.32871-.48124.94387-1.34565,1.00471-1.41375.98064-1.0946,3.518-2.63275,5.02123-1.964a1.94759,1.94759,0,0,1,.81494,2.78121,4.06894,4.06894,0,0,1-3.01321,1.62759"/>
        <path class="cls-7" d="M150.61615,181.48582a15.85813,15.85813,0,0,1-4.66031.00272c-.03359-.00454.93751-2.0607,1.01333-2.18374.88258-1.42011,3.42089-3.64607,5.2378-3.19343a2.21472,2.21472,0,0,1,1.46324,2.95418,4.62946,4.62946,0,0,1-3.05406,2.42027"/>
        <path class="cls-7" d="M120.24368,180.57269c-.03087.015-.355-2.236-.3591-2.38032-.04768-1.67118.84217-4.92817,2.60687-5.55288a2.21517,2.21517,0,0,1,2.8502,1.65665,4.63231,4.63231,0,0,1-1.21217,3.70373,15.853,15.853,0,0,1-3.8858,2.57282"/>
        <path class="cls-7" d="M120.812,204.63887a12.79031,12.79031,0,0,0,3.86127-.6574c.099.9307.21838,1.85187.37864,2.75306.07763.38726.13167.78724.22746,1.155q.13278.55773.26241,1.10549c.20611.74864.395,1.44508.60428,2.13652.104.35049.20929.67873.31416,1.01787-.26014-.53754-.686-1.38243-.73321-1.45507-.80359-1.23034-3.07857-3.13533-4.66576-2.7013a1.94685,1.94685,0,0,0-1.22716,2.625,4.07132,4.07132,0,0,0,2.73217,2.06524,13.37609,13.37609,0,0,0,4.03334-.08126c.261.82855.52255,1.63349.78178,2.38168.16843.49123.33324.95385.49623,1.40422h1.08006c-.21429-.54888-.43266-1.11775-.6583-1.73155-.24879-.671-.50076-1.38607-.75273-2.12427a14.24722,14.24722,0,0,0,3.39547-1.9236,21.20779,21.20779,0,0,0,2.18555,1.1854c-.2397.83536-.46489,1.65029-.66193,2.41754-.19976.77135-.3741,1.49-.53572,2.17648h1.04738c.13211-.61653.27285-1.25576.43494-1.94266.16252-.69735.34684-1.43283.54389-2.18692a13.36222,13.36222,0,0,0,4.02561.24289,4.06912,4.06912,0,0,0,2.81253-1.954,1.947,1.947,0,0,0-1.12047-2.67224c-1.56858-.49713-3.91848,1.31524-4.77018,2.512-.05494.07673-.597,1.0551-.8635,1.5604.1203-.45536.2388-.908.37227-1.38016.1866-.68009.40634-1.39333.61472-2.08522q.18182-.53254.36773-1.07553c.11715-.36819.27376-.70415.41087-1.06327.212-.52074.45673-1.04738.70008-1.57356a12.40777,12.40777,0,0,0,3.75095.78451,4.07,4.07,0,0,0,3.0763-1.50546,1.94726,1.94726,0,0,0-.70279-2.81117c-1.47505-.72913-4.07238.70642-5.0957,1.76061-.03314.03405-.22654.27921-.45264.57249.25288-.50621.50349-1.01332.77725-1.51772.77589-1.43146,1.61034-2.8661,2.44116-4.30664.173-.30055.341-.60291.513-.90392a12.92112,12.92112,0,0,0,3.85447.81993,4.07044,4.07044,0,0,0,3.0763-1.50592,1.94727,1.94727,0,0,0-.70279-2.81117c-1.475-.72867-4.07238.70643-5.09615,1.76062-.03631.03767-.2665.331-.52074.66147.43992-.78905.869-1.58173,1.26984-2.38077a34.51653,34.51653,0,0,0,1.80828-4.22856,13.53738,13.53738,0,0,0,3.96433.85806,4.07149,4.07149,0,0,0,3.0763-1.50547,1.94741,1.94741,0,0,0-.70279-2.81161c-1.47505-.72868-4.07238.70687-5.0957,1.76061-.07263.07491-.89664,1.14226-1.17857,1.53361.00544-.01725.01362-.0336.01952-.05085a25.38275,25.38275,0,0,0,1.00106-4.402,34.53743,34.53743,0,0,0,.32734-4.022c.04267-1.249.00409-2.39394-.03769-3.40636-.02723-.54843-.06173-1.0492-.09988-1.51636l.0277.02134c.02452.01816.68554-1.86822.71368-1.9917.32461-1.43328.10942-4.39245-1.3066-5.231a1.9472,1.9472,0,0,0-2.739.94568,4.06938,4.06938,0,0,0,.41767,3.39955,13.03215,13.03215,0,0,0,2.80845,2.79619c.02951.48578.05539,1.00561.07128,1.58037.02,1.01106.03314,2.15287-.03587,3.39547-.01771.331-.04993.68645-.07491,1.031-.07855-.58974-.19749-1.39877-.21747-1.4755-.37227-1.42147-1.92723-3.94889-3.56979-4.04014a1.94723,1.94723,0,0,0-1.99534,2.10156,4.073,4.073,0,0,0,1.93722,2.82434,13.10185,13.10185,0,0,0,3.80135,1.19084c-.0672.76317-.15436,1.54587-.29284,2.35626a25.05628,25.05628,0,0,1-1.08779,4.33888c-.05084-.00817-.04131-.00681-.09216-.01544-.0059-.553-.04494-1.71612-.059-1.81146-.21383-1.45371-1.48186-4.13639-3.10491-4.40788a1.94753,1.94753,0,0,0-2.21371,1.87,4.07057,4.07057,0,0,0,1.61534,3.02,13.75638,13.75638,0,0,0,3.73778,1.628,34.30889,34.30889,0,0,1-1.841,4.04832c-.51394.97156-1.07417,1.934-1.64531,2.89471.00636-.38863-.04358-1.91452-.05947-2.02393-.21429-1.45371-1.48186-4.1364-3.1049-4.40789a1.94746,1.94746,0,0,0-2.21371,1.86957,4.069,4.069,0,0,0,1.61533,3.02,13.53,13.53,0,0,0,3.71509,1.62169c-.25969.43629-.51711.87259-.78088,1.30752-.86033,1.42056-1.72928,2.84067-2.54331,4.269-.28239.49486-.54207.99244-.80494,1.49-.00818-.58294-.04449-1.643-.05811-1.73383-.21338-1.45371-1.4814-4.13639-3.10446-4.40743a1.94665,1.94665,0,0,0-2.21371,1.86911,4.06922,4.06922,0,0,0,1.61534,3.02047,12.78876,12.78876,0,0,0,3.583,1.58173c-.43085.83082-.83945,1.66482-1.2031,2.50518-.14845.36592-.32416.72912-.44719,1.08869q-.19682.53866-.3909,1.0669c-.24107.7382-.46807,1.42329-.67464,2.11564-.10715.34958-.19976.681-.29964,1.022.07945-.59156.19067-1.53134.19067-1.61806.00909-1.46914-.83763-4.31345-2.40074-4.82692a1.947,1.947,0,0,0-2.47158,1.51227,2.30861,2.30861,0,0,0-.05175.42858,7.55257,7.55257,0,0,0-1.22263,3.61384c-.00363.094.08354,1.209.13984,1.77741-.15027-.44629-.30146-.88893-.45037-1.3561-.21974-.67056-.42994-1.38652-.63787-2.07887q-.14166-.54411-.28648-1.09958c-.10533-.37183-.15981-.73866-.24425-1.11367-.11032-.55161-.19658-1.12546-.2842-1.69886a12.40553,12.40553,0,0,0,3.56162-1.41467,4.0689,4.0689,0,0,0,1.7352-2.95236,1.94663,1.94663,0,0,0-2.137-1.95719c-1.63259.20566-3.00685,2.83523-3.27879,4.2794-.00862.04722-.0345.35775-.06174.72731-.0681-.5616-.13847-1.1232-.18887-1.69478-.143-1.62215-.23744-3.27925-.34-4.93907-.02133-.34549-.04767-.691-.07037-1.03694a12.91126,12.91126,0,0,0,3.667-1.44235,4.0713,4.0713,0,0,0,1.7352-2.95282,1.94679,1.94679,0,0,0-2.137-1.95674c-1.63259.20566-3.00685,2.83568-3.27879,4.2794-.01.05176-.04.42313-.06992.839-.06855-.90073-.148-1.79829-.25424-2.68631a34.46707,34.46707,0,0,0-.82446-4.52457,13.53676,13.53676,0,0,0,3.78-1.47141,4.07047,4.07047,0,0,0,1.7352-2.95282,1.947,1.947,0,0,0-2.137-1.95674c-1.63258.20566-3.00685,2.83569-3.27925,4.27941-.01906.1026-.11757,1.44735-.13709,1.929-.00455-.01725-.00682-.03586-.01136-.05266a25.39238,25.39238,0,0,0-1.59353-4.224,34.5154,34.5154,0,0,0-1.94585-3.53575c-.65331-1.06463-1.31706-1.99851-1.91044-2.81979-.32551-.4422-.63061-.84126-.9198-1.20991l.03495.00272c.03.00182-.459-1.93585-.50393-2.05526-.51983-1.37425-2.3322-3.72371-3.97523-3.64153a1.94684,1.94684,0,0,0-1.76288,2.29951,4.07068,4.07068,0,0,0,2.2237,2.60505,13.01547,13.01547,0,0,0,3.88532.7827c.29238.38908.60064.80812.93117,1.27892.5743.83218,1.21534,1.77741,1.84278,2.85157.168.286.33731.60019.5062.90164-.39043-.449-.93569-1.05781-.99516-1.11139-1.0946-.97973-3.78546-2.23005-5.206-1.39968a1.94673,1.94673,0,0,0-.50485,2.85339,4.06968,4.06968,0,0,0,3.17391,1.28664,13.09289,13.09289,0,0,0,3.82722-1.10368c.365.67419.72413,1.37472,1.05556,2.127a25.0681,25.0681,0,0,1,1.48639,4.21812l-.08581.03859c-.31007-.45855-.98381-1.406-1.04828-1.47777-.98018-1.0946-3.5176-2.63275-5.02078-1.96355a1.94683,1.94683,0,0,0-.81494,2.78029,4.06948,4.06948,0,0,0,3.0132,1.628,13.74936,13.74936,0,0,0,4.01563-.70415,34.27195,34.27195,0,0,1,.6978,4.39245c.10715,1.09369.17116,2.20553.22473,3.32192-.20929-.32779-1.09232-1.57266-1.16632-1.65528-.98019-1.09414-3.5176-2.63275-5.02079-1.96355a1.94724,1.94724,0,0,0-.81539,2.78075,4.07244,4.07244,0,0,0,3.0132,1.628,13.53781,13.53781,0,0,0,3.99339-.69734c.024.50711.05039,1.01287.06991,1.52135.06628,1.65937.12531,3.32328.23382,4.96358.03721.56841.09533,1.12683.15071,1.68661-.32869-.48124-.9434-1.34565-1.00469-1.41375-.98064-1.0946-3.518-2.63275-5.02124-1.964a1.9476,1.9476,0,0,0-.81494,2.78121,4.06975,4.06975,0,0,0,3.0132,1.62759"/>
      </g>
      <g class="cls-2">
        <path class="cls-8" d="M122.5402,23.45482c3.03455,1.07916,3.844,4.239,4.76883,5.31816,1.233,1.43873,2.87744-2.87745,6.7823-1.85,3.90531,1.02786,3.494,3.28878,5.13837,4.31619,1.64394,1.02784,2.46613-1.43873,4.31572-.61654a6.523,6.523,0,0,1,3.28878,2.67178c.41087.8222,2.67179.20567,3.494.61654.8222.41132,1.8496,1.02786,1.8496,1.02786H100.385s.61653-4.52184,3.28832-5.54924c2.67224-1.02786,5.13837,1.8496,6.78277.41087a10.57216,10.57216,0,0,1,8.221-6.57664,10.43861,10.43861,0,0,1,1.21353-.12668"/>
        <path class="cls-8" d="M66.93065,73.21077c3.03454,1.07916,3.844,4.239,4.76883,5.31816,1.23305,1.43873,2.87744-2.87745,6.7823-1.85,3.9053,1.02786,3.494,3.28878,5.13837,4.31619,1.64393,1.02784,2.46613-1.43873,4.31617-.61654a6.52361,6.52361,0,0,1,3.28833,2.67178c.41087.8222,2.67179.20567,3.494.61654.82219.41132,1.84959,1.02786,1.84959,1.02786H44.77545s.61653-4.52184,3.28833-5.54924c2.67224-1.02786,5.13837,1.8496,6.78276.41087a10.57219,10.57219,0,0,1,8.221-6.57664A10.43861,10.43861,0,0,1,64.2811,72.853"/>
        <path class="cls-8" d="M178.52616,144.16943a13.89932,13.89932,0,0,1,10.90145-8.48163c11.44807-1.84642,15.72293,9.32289,17.9389,11.908,2.21552,2.58508,5.17015-5.17015,12.18672-3.32328,7.01657,1.84642,6.27792,5.90836,9.2321,7.75477,2.95463,1.84687,4.43149-2.58462,7.75522-1.10776,3.32374,1.47732,5.17016,3.32374,5.90881,4.80105.73866,1.47686,4.80059.36911,6.27792,1.10776s3.32373,1.84642,3.32373,1.84642H158.98873s1.10822-8.12433,5.90881-9.97075c4.80105-1.84642,9.23254,3.32328,12.18672.73866"/>
      </g>
      <g class="cls-2">
        <path class="cls-7" d="M76.16183,96.25458a18.62678,18.62678,0,0,1-2.068,2.87746c-.71959.62925-6.74417-.80948-12.13906,6.9235-5.39532,7.733-2.22641,13.00119-4.24217,18.13275-2.01576,5.13111-8.61328,3.29877-8.2469,15.57765.36636,12.27844,6.04772,17.41,13.19505,18.87641,7.14731,1.466,5.68135,4.03153,9.16353,7.33029,3.48173,3.29876,7.88008,2.19918,10.629,0,2.74943-2.19918,3.6656-4.58131,2.3826-9.52946-1.283-4.9486-6.9639-20.70921-4.94815-26.94036s4.032-10.44609,1.64939-16.12745-4.32843-9.13583-3.22884-10.6018,2.19917-2.93238,2.19917-2.93238Z"/>
        <path class="cls-8" d="M76.16183,96.25458a18.62678,18.62678,0,0,1-2.068,2.87746c-.71959.62925-6.74417-.80948-12.13906,6.9235-5.39532,7.733-2.22641,13.00119-4.24217,18.13275-2.01576,5.13111-8.61328,3.29877-8.2469,15.57765.36636,12.27844,6.04772,17.41,13.19505,18.87641,7.14731,1.466,5.68135,4.03153,9.16353,7.33029,3.48173,3.29876,7.88008,2.19918,10.629,0,2.74943-2.19918,3.6656-4.58131,2.3826-9.52946-1.283-4.9486-6.9639-20.70921-4.94815-26.94036s4.032-10.44609,1.64939-16.12745-4.32843-9.13583-3.22884-10.6018,2.19917-2.93238,2.19917-2.93238Z"/>
        <path class="cls-3" d="M102.82743,116.17238s10.34985,3.66016,15.777,8.20424c5.42758,4.54363,14.38862,20.69922,14.38862,29.53451,0,8.83485-2.1456,26.25255-1.767,38.36936s1.38834,24.1074,1.38834,24.1074H77.83655a102.65878,102.65878,0,0,0,10.22363-21.33028c4.79606-13.37893,3.1553-17.923-1.00969-26.12679-4.165-8.20423-13.75757-19.43756-14.01-32.31164s6.28517-20.56075,8.38038-21.45059c2.09567-.88939,15.6008-.76317,21.40655,1.00379"/>
        <path class="cls-8" d="M102.82743,116.17238s10.34985,3.66016,15.777,8.20424c5.42758,4.54363,14.38862,20.69922,14.38862,29.53451,0,8.83485-2.1456,26.25255-1.767,38.36936s1.38834,24.1074,1.38834,24.1074H77.83655a102.65878,102.65878,0,0,0,10.22363-21.33028c4.79606-13.37893,3.1553-17.923-1.00969-26.12679-4.165-8.20423-13.75757-19.43756-14.01-32.31164s6.28517-20.56075,8.38038-21.45059C83.51655,114.2792,97.02168,114.40542,102.82743,116.17238Z"/>
        <path class="cls-7" d="M131.38116,196.4769c-1.18539-8.58468-2.49381-19.40078-2.49381-19.40078l-9.85362,10.72938s4.9545-7.18591,3.06541-11.167c-1.88864-3.98112-31.53122-25.83805-31.53122-25.83805s-4.16-2.62775-4.59811-8.97784S132.17159,160.654,132.17159,160.654s.07944,2.19282.19567,5.616c-.6002,8.43033-1.38243,18.29393-1.14136,26.01057.044,1.40694.0967,2.81162.15526,4.19632"/>
        <path class="cls-8" d="M131.38116,196.4769c-1.18539-8.58468-2.49381-19.40078-2.49381-19.40078l-9.85362,10.72938s4.9545-7.18591,3.06541-11.167c-1.88864-3.98112-31.53122-25.83805-31.53122-25.83805s-4.16-2.62775-4.59811-8.97784S132.17159,160.654,132.17159,160.654s.07944,2.19282.19567,5.616c-.6002,8.43033-1.38243,18.29393-1.14136,26.01057C131.26993,193.68752,131.3226,195.0922,131.38116,196.4769Z"/>
        <path class="cls-6" d="M105.89006,63.16979s6.70513,5.83073,7.21543,8.16292-1.239,3.134,1.31206,6.41367c2.55057,3.27969,5.32043,4.37292,4.95586,6.19528-.36455,1.8219-2.84249,2.18645-3.134,2.98823-.29147.8013-.20884,2.65862-1.01061,6.30288-.80131,3.6438-4.23718,10.4025-5.18468,11.42308-.9475,1.02015-5.32042-.07308-6.77823-.72912,0,0-.59065.25742-.73638,4.70345s2.38668,9.20121,2.38668,9.20121,5.63823,3.99157,5.18877,4.7107c-.44991.71959-12.94855-3.50669-18.6131-5.305a46.2986,46.2986,0,0,0-10.07107-2.06842s1.66481-8.84347,2.92374-12.88951c1.25849-4.0465-3.14757-7.4633-4.22628-14.92661-1.07915-7.4633-4.85553-12.49862,3.32692-19.33223,8.18244-6.83406,16.635-7.28352,18.79288-6.83406a7.91466,7.91466,0,0,1,3.652,1.98352"/>
        <path class="cls-8" d="M105.89006,63.16979s6.70513,5.83073,7.21543,8.16292-1.239,3.134,1.31206,6.41367c2.55057,3.27969,5.32043,4.37292,4.95586,6.19528-.36455,1.8219-2.84249,2.18645-3.134,2.98823-.29147.8013-.20884,2.65862-1.01061,6.30288-.80131,3.6438-4.23718,10.4025-5.18468,11.42308-.9475,1.02015-5.32042-.07308-6.77823-.72912,0,0-.59065.25742-.73638,4.70345s2.38668,9.20121,2.38668,9.20121,5.63823,3.99157,5.18877,4.7107c-.44991.71959-12.94855-3.50669-18.6131-5.305a46.2986,46.2986,0,0,0-10.07107-2.06842s1.66481-8.84347,2.92374-12.88951c1.25849-4.0465-3.14757-7.4633-4.22628-14.92661-1.07915-7.4633-4.85553-12.49862,3.32692-19.33223,8.18244-6.83406,16.635-7.28352,18.79288-6.83406A7.91466,7.91466,0,0,1,105.89006,63.16979Z"/>
        <path class="cls-7" d="M109.45155,92.21062c-.89573,2.40439-.6474,4.71661.5548,5.1647,1.2022.44766,2.90288-1.13817,3.79908-3.54255.89573-2.40485.6474-4.71706-.55526-5.16471-1.20218-.44809-2.90286,1.13818-3.79862,3.54256"/>
        <path class="cls-8" d="M109.45155,92.21062c-.89573,2.40439-.6474,4.71661.5548,5.1647,1.2022.44766,2.90288-1.13817,3.79908-3.54255.89573-2.40485.6474-4.71706-.55526-5.16471C112.048,88.22,110.34731,89.80624,109.45155,92.21062Z"/>
        <path class="cls-8" d="M111.08474,79.28138a3.97361,3.97361,0,0,0-3.163.79087"/>
        <path class="cls-7" d="M111.579,78.78711a3.07459,3.07459,0,0,0-2.47112-1.18629,2.09807,2.09807,0,0,0-1.68071,1.58172s2.96554-1.08732,4.15183-.39543"/>
        <path class="cls-7" d="M106.85473,73.95351c3.2225-1.63439,4.57768.119,5.10343,1.33432a.55924.55924,0,0,1-.93933.587l-.02-.02543c-.66239-.86578-.62108-2.57464-3.30558-1.8278-1.14862.31961-1.52862.28193-.83854-.06811"/>
        <path class="cls-8" d="M106.85473,73.95351c3.2225-1.63439,4.57768.119,5.10343,1.33432a.55924.55924,0,0,1-.93933.587l-.02-.02543c-.66239-.86578-.62108-2.57464-3.30558-1.8278C106.54465,74.34123,106.16465,74.30355,106.85473,73.95351Z"/>
        <path class="cls-7" d="M104.21635,63.07472a26.62072,26.62072,0,0,0-2.15786,2.87745c-1.25893,1.88819.89893,2.87746.44947,7.64309s-4.85553,7.19317-4.94542,9.08181c-.08989,1.88819-1.43873,3.6865-3.597,3.05724-2.15788-.62969-5.305-3.68693-6.65383,1.61852-1.34884,5.305,4.22628,5.39488,3.86672,6.8336-.36,1.43873-6.11447,11.77948-7.91276,10.79022A27.65282,27.65282,0,0,1,70.82057,84.71327c-1.61851-13.038,4.802-20.37961,12.80462-24.15643,8.00265-3.77637,14.11713-1.43873,15.37606-1.97808,1.25849-.53935.53937-3.4168,4.67576-3.05724,4.13594.35958,5.66455,1.43873,6.11448,3.14713.44945,1.7084-1.43873,3.59659-.8095,4.31617.6297.71915,3.32692-.26967,3.86672,2.15788a2.67457,2.67457,0,0,1-1.88864,3.14713s-5.2151-6.11448-6.74372-5.21511"/>
        <path class="cls-8" d="M104.21635,63.07472a26.62072,26.62072,0,0,0-2.15786,2.87745c-1.25893,1.88819.89893,2.87746.44947,7.64309s-4.85553,7.19317-4.94542,9.08181c-.08989,1.88819-1.43873,3.6865-3.597,3.05724-2.15788-.62969-5.305-3.68693-6.65383,1.61852-1.34884,5.305,4.22628,5.39488,3.86672,6.8336-.36,1.43873-6.11447,11.77948-7.91276,10.79022A27.65282,27.65282,0,0,1,70.82057,84.71327c-1.61851-13.038,4.802-20.37961,12.80462-24.15643,8.00265-3.77637,14.11713-1.43873,15.37606-1.97808,1.25849-.53935.53937-3.4168,4.67576-3.05724,4.13594.35958,5.66455,1.43873,6.11448,3.14713.44945,1.7084-1.43873,3.59659-.8095,4.31617.6297.71915,3.32692-.26967,3.86672,2.15788a2.67457,2.67457,0,0,1-1.88864,3.14713S105.745,62.17535,104.21635,63.07472Z"/>
        <path class="cls-6" d="M182.51868,100.75663s-1.49365,3.34781-2.06025,4.68666c-.56613,1.33883-.87531,3.296-1.90543,7.57089-1.03013,4.27441-4.32572,22.52748-7.04518,30.191-2.71946,7.664-6.67516,15.32795-7.99358,15.73972-1.31841.41224-3.62564.24743-8.488-.824-4.86189-1.071-17.14031-3.79044-17.14031-3.79044l-6.34557-1.40105s.49442-3.13169-5.02668-13.43249-14.4213-19.36537-14.4213-19.36537,4.6149-.74184,11.94927,4.20267c7.33392,4.94452,26.1227,16.06934,28.59519,16.976,2.472.90619,2.63683-.4944,3.37866-2.06025.74139-1.56585,7.82833-12.69066,10.30082-21.42562,2.472-8.7354,3.54346-13.5973,3.54346-13.5973a21.94825,21.94825,0,0,0-1.401-3.04906c-1.31842-2.63683-2.80164-5.19149-1.73065-6.92214,1.07144-1.73064,3.4613-1.97762,5.68635-.41223,2.2246,1.56585,10.10422,6.913,10.10422,6.913"/>
        <path class="cls-8" d="M182.51868,100.75663s-1.49365,3.34781-2.06025,4.68666c-.56613,1.33883-.87531,3.296-1.90543,7.57089-1.03013,4.27441-4.32572,22.52748-7.04518,30.191-2.71946,7.664-6.67516,15.32795-7.99358,15.73972-1.31841.41224-3.62564.24743-8.488-.824-4.86189-1.071-17.14031-3.79044-17.14031-3.79044l-6.34557-1.40105s.49442-3.13169-5.02668-13.43249-14.4213-19.36537-14.4213-19.36537,4.6149-.74184,11.94927,4.20267c7.33392,4.94452,26.1227,16.06934,28.59519,16.976,2.472.90619,2.63683-.4944,3.37866-2.06025.74139-1.56585,7.82833-12.69066,10.30082-21.42562,2.472-8.7354,3.54346-13.5973,3.54346-13.5973a21.94825,21.94825,0,0,0-1.401-3.04906c-1.31842-2.63683-2.80164-5.19149-1.73065-6.92214,1.07144-1.73064,3.4613-1.97762,5.68635-.41223C174.63906,95.40943,182.51868,100.75663,182.51868,100.75663Z"/>
        <path class="cls-6" d="M140.94467,75.78322l10.47606,18.67984L190.0425,72.37551a39.0434,39.0434,0,0,1,12.243-3.28151,47.23919,47.23919,0,0,1,15.27211,1.1359,81.48971,81.48971,0,0,0-8.33-20.9521A85.41586,85.41586,0,0,0,195.84871,31.229a54.69859,54.69859,0,0,1-14.38862,20.69923c-10.34984,9.08772-40.51542,23.855-40.51542,23.855"/>
        <path class="cls-8" d="M140.94467,75.78322l10.47606,18.67984L190.0425,72.37551a39.0434,39.0434,0,0,1,12.243-3.28151,47.23919,47.23919,0,0,1,15.27211,1.1359,81.48971,81.48971,0,0,0-8.33-20.9521A85.41586,85.41586,0,0,0,195.84871,31.229a54.69859,54.69859,0,0,1-14.38862,20.69923C171.11025,61.016,140.94467,75.78322,140.94467,75.78322Z"/>
        <path class="cls-9" d="M174.08486,78.52892l14.72186-8.41942a39.04341,39.04341,0,0,1,12.243-3.28151,47.25582,47.25582,0,0,1,15.2721,1.1359"/>
        <path class="cls-3" d="M217.55659,71.3649a1.13633,1.13633,0,0,0,1.1123-1.36607,81.86481,81.86481,0,0,0-8.45167-21.27718,85.76349,85.76349,0,0,0-13.58095-18.30982,1.135,1.135,0,0,0-1.57583,1.634A85.16954,85.16954,0,0,1,208.23824,49.834a80.991,80.991,0,0,1,8.20832,20.62659,1.13486,1.13486,0,0,0,1.11.90436"/>
        <path class="cls-8" d="M217.55659,71.3649a1.13633,1.13633,0,0,0,1.1123-1.36607,81.86481,81.86481,0,0,0-8.45167-21.27718,85.76349,85.76349,0,0,0-13.58095-18.30982,1.135,1.135,0,0,0-1.57583,1.634A85.16954,85.16954,0,0,1,208.23824,49.834a80.991,80.991,0,0,1,8.20832,20.62659A1.13486,1.13486,0,0,0,217.55659,71.3649Z"/>
        <path class="cls-3" d="M176.85522,79.91726,151.42078,94.463,140.94473,75.78314s13.57868-6.647,25.641-13.76664Z"/>
        <path class="cls-8" d="M176.85522,79.91726,151.42078,94.463,140.94473,75.78314s13.57868-6.647,25.641-13.76664Z"/>
        <line class="cls-8" x1="150.17259" y1="81.51302" x2="155.89799" y2="91.61135"/>
        <line class="cls-8" x1="145.90082" y1="73.97857" x2="148.44504" y2="78.46591"/>
        <path class="cls-6" d="M171.32636,78.859l1.73156,3.54211L171.95606,83.661a18.20091,18.20091,0,0,0,4.17226,6.45451l3.14849,3.22749s3.54211,1.57446,4.959,1.57446,2.44025.15709,2.51925,1.574c.07854,1.41693.23608,3.85718-1.10232,5.58919-1.33793,1.73156-1.49547,1.02332-2.12517.6297s-5.5102-1.653-9.83954-5.038a34.846,34.846,0,0,1-5.98281-5.58874s-2.44025,2.75487-2.91241,2.2827-5.35267-8.73768-5.35267-8.73768Z"/>
        <path class="cls-8" d="M171.32636,78.859l1.73156,3.54211L171.95606,83.661a18.20091,18.20091,0,0,0,4.17226,6.45451l3.14849,3.22749s3.54211,1.57446,4.959,1.57446,2.44025.15709,2.51925,1.574c.07854,1.41693.23608,3.85718-1.10232,5.58919-1.33793,1.73156-1.49547,1.02332-2.12517.6297s-5.5102-1.653-9.83954-5.038a34.846,34.846,0,0,1-5.98281-5.58874s-2.44025,2.75487-2.91241,2.2827-5.35267-8.73768-5.35267-8.73768Z"/>
        <line class="cls-6" x1="172.34967" y1="82.71617" x2="165.18646" y2="93.4215"/>
        <line class="cls-8" x1="172.34967" y1="82.71617" x2="165.18646" y2="93.4215"/>
        <path class="cls-6" d="M172.34845,84.383s1.61306-1.29934,2.5987-.89619a3.28651,3.28651,0,0,1,1.61306,3.04681c-.17933.98563-.76181,3.36049-1.61306,3.27106-.85125-.08989-1.43373-3.00231-1.43373-3.00231s-1.03059-2.01621-1.165-2.41937"/>
        <path class="cls-8" d="M172.34845,84.383s1.61306-1.29934,2.5987-.89619a3.28651,3.28651,0,0,1,1.61306,3.04681c-.17933.98563-.76181,3.36049-1.61306,3.27106-.85125-.08989-1.43373-3.00231-1.43373-3.00231S172.48283,84.78618,172.34845,84.383Z"/>
        <path class="cls-6" d="M176.47059,85.41352a1.69974,1.69974,0,0,1,2.64365-.17933c1.56811,1.34429.85125,3.13669.3582,4.65986-.49259,1.52362-1.47868,2.41981-2.24,2.10611a2.82964,2.82964,0,0,1-1.43373-1.92678,14.048,14.048,0,0,1,0-1.43373,6.10043,6.10043,0,0,0,.67192-3.22613"/>
        <path class="cls-8" d="M176.47059,85.41352a1.69974,1.69974,0,0,1,2.64365-.17933c1.56811,1.34429.85125,3.13669.3582,4.65986-.49259,1.52362-1.47868,2.41981-2.24,2.10611a2.82964,2.82964,0,0,1-1.43373-1.92678,14.048,14.048,0,0,1,0-1.43373A6.10043,6.10043,0,0,0,176.47059,85.41352Z"/>
        <path class="cls-6" d="M180.14467,87.42978a2.14271,2.14271,0,0,1,1.97128,1.3443c.80675,1.47868-.4926,3.98748-.89575,5.19739-.4036,1.2099-1.07553,1.52317-2.01621,1.29935a1.57619,1.57619,0,0,1-1.20991-1.7025,7.11186,7.11186,0,0,1,.40315-1.83733,13.30356,13.30356,0,0,0,1.3443-2.50881,10.3475,10.3475,0,0,0,.40314-1.7924"/>
        <path class="cls-8" d="M180.14467,87.42978a2.14271,2.14271,0,0,1,1.97128,1.3443c.80675,1.47868-.4926,3.98748-.89575,5.19739-.4036,1.2099-1.07553,1.52317-2.01621,1.29935a1.57619,1.57619,0,0,1-1.20991-1.7025,7.11186,7.11186,0,0,1,.40315-1.83733,13.30356,13.30356,0,0,0,1.3443-2.50881A10.3475,10.3475,0,0,0,180.14467,87.42978Z"/>
        <path class="cls-6" d="M182.16093,91.59673s1.3443-1.7025,2.41937-.7618c1.07553.94114.67238,2.4643-.13438,3.40546a3.14641,3.14641,0,0,1-2.5987,1.29934c-.627-.17934-.85125-.98564-.85125-.98564Z"/>
        <path class="cls-8" d="M182.16093,91.59673s1.3443-1.7025,2.41937-.7618c1.07553.94114.67238,2.4643-.13438,3.40546a3.14641,3.14641,0,0,1-2.5987,1.29934c-.627-.17934-.85125-.98564-.85125-.98564Z"/>
        <path class="cls-6" d="M169.92895,103.64947s-3.0468-5.018-4.03243-6.40729a5.57883,5.57883,0,0,1-1.10367-2.8761c-.15073-.75319,2.85112-4.15819,3.523-5.23371.67237-1.07507,1.12-.94068,2.68858-1.56812,1.56812-.62742,2.285-2.32992,3.27062-1.658.98563.67238.26877,3.22613-.44809,4.03289a8.51087,8.51087,0,0,1-2.285,1.52317l-1.38924,3.31556s5.1529,3.00231,5.86977,4.92862a5.58637,5.58637,0,0,1-.4481,4.3012"/>
        <path class="cls-8" d="M169.92895,103.64947s-3.0468-5.018-4.03243-6.40729a5.57883,5.57883,0,0,1-1.10367-2.8761c-.15073-.75319,2.85112-4.15819,3.523-5.23371.67237-1.07507,1.12-.94068,2.68858-1.56812,1.56812-.62742,2.285-2.32992,3.27062-1.658.98563.67238.26877,3.22613-.44809,4.03289a8.51087,8.51087,0,0,1-2.285,1.52317l-1.38924,3.31556s5.1529,3.00231,5.86977,4.92862a5.58637,5.58637,0,0,1-.4481,4.3012"/>
        <path class="cls-10" d="M177.90723,101.52757c.51529.29828,1.23306.68781,1.76424.967a.64366.64366,0,0,0,.84626-.17979h0a.46369.46369,0,0,0-.15709-.735c-.51483-.30009-1.23306-.69144-1.76515-.96838a.6419.6419,0,0,0-.84217.18523h0a.46005.46005,0,0,0,.15391.73094"/>
        <path class="cls-8" d="M177.90723,101.52757c.51529.29828,1.23306.68781,1.76424.967a.64366.64366,0,0,0,.84626-.17979h0a.46369.46369,0,0,0-.15709-.735c-.51483-.30009-1.23306-.69144-1.76515-.96838a.6419.6419,0,0,0-.84217.18523h0A.46005.46005,0,0,0,177.90723,101.52757Z"/>
        <path class="cls-10" d="M177.89079,103.81228c.54116.335,1.32976.834,1.88592,1.15816a.53916.53916,0,0,0,.81174-.19477h0a.62388.62388,0,0,0-.24833-.85761c-.538-.3414-1.29844-.80176-1.8564-1.0905a.56437.56437,0,0,0-.80313.21157h0a.52273.52273,0,0,0,.2102.77315"/>
        <path class="cls-8" d="M177.89079,103.81228c.54116.335,1.32976.834,1.88592,1.15816a.53916.53916,0,0,0,.81174-.19477h0a.62388.62388,0,0,0-.24833-.85761c-.538-.3414-1.29844-.80176-1.8564-1.0905a.56437.56437,0,0,0-.80313.21157h0A.52273.52273,0,0,0,177.89079,103.81228Z"/>
        <path class="cls-10" d="M178.13368,106.39608c.533.37547,1.30661.94523,1.85368,1.30934a.50293.50293,0,0,0,.80177-.1757h0a.71293.71293,0,0,0-.24925-.9207,20.43044,20.43044,0,0,0-1.87547-1.22854.5284.5284,0,0,0-.80585.1807h0a.62036.62036,0,0,0,.27512.8349"/>
        <path class="cls-8" d="M178.13368,106.39608c.533.37547,1.30661.94523,1.85368,1.30934a.50293.50293,0,0,0,.80177-.1757h0a.71293.71293,0,0,0-.24925-.9207,20.43044,20.43044,0,0,0-1.87547-1.22854.5284.5284,0,0,0-.80585.1807h0A.62036.62036,0,0,0,178.13368,106.39608Z"/>
        <path class="cls-10" d="M178.33221,108.97212c.53573.37047,1.268,1.02878,1.78195,1.43873a.48041.48041,0,0,0,.79541-.12439h0a.75842.75842,0,0,0-.21065-.95613,17.88669,17.88669,0,0,0-1.82236-1.33293c-.33232-.21384-.63515-.16662-.80222.1312h0a.617.617,0,0,0,.25787.84352"/>
        <path class="cls-8" d="M178.33221,108.97212c.53573.37047,1.268,1.02878,1.78195,1.43873a.48041.48041,0,0,0,.79541-.12439h0a.75842.75842,0,0,0-.21065-.95613,17.88669,17.88669,0,0,0-1.82236-1.33293c-.33232-.21384-.63515-.16662-.80222.1312h0A.617.617,0,0,0,178.33221,108.97212Z"/>
        <path class="cls-10" d="M178.401,111.61381c.46036.45219,1.1577,1.12956,1.63894,1.56994a.47538.47538,0,0,0,.79359-.06447h0a.747.747,0,0,0-.13756-.95794,16.06071,16.06071,0,0,0-1.693-1.47687c-.31689-.23063-.61335-.21972-.80221.07083h0c-.18887.29056-.08036.58294.20021.85851"/>
        <path class="cls-8" d="M178.401,111.61381c.46036.45219,1.1577,1.12956,1.63894,1.56994a.47538.47538,0,0,0,.79359-.06447h0a.747.747,0,0,0-.13756-.95794,16.06071,16.06071,0,0,0-1.693-1.47687c-.31689-.23063-.61335-.21972-.80221.07083h0C178.012,111.04586,178.12047,111.33824,178.401,111.61381Z"/>
        <path class="cls-10" d="M178.24278,114.11735c.44992.43993,1.04784,1.18449,1.47868,1.65483a.48215.48215,0,0,0,.79359.01271h0a.713.713,0,0,0-.03813-.93886,15.30994,15.30994,0,0,0-1.55722-1.55586c-.29193-.25152-.59111-.26378-.80313-.00727h0a.58391.58391,0,0,0,.12621.83445"/>
        <path class="cls-8" d="M178.24278,114.11735c.44992.43993,1.04784,1.18449,1.47868,1.65483a.48215.48215,0,0,0,.79359.01271h0a.713.713,0,0,0-.03813-.93886,15.30994,15.30994,0,0,0-1.55722-1.55586c-.29193-.25152-.59111-.26378-.80313-.00727h0A.58391.58391,0,0,0,178.24278,114.11735Z"/>
        <path class="cls-10" d="M177.80694,116.5798c.4195.45991.94659,1.24079,1.32885,1.74428a.492.492,0,0,0,.7945.09034h0a.68862.68862,0,0,0,.05494-.92071,15.07359,15.07359,0,0,0-1.40377-1.6403.535.535,0,0,0-.80267-.0849h0a.53917.53917,0,0,0,.02815.81129"/>
        <path class="cls-8" d="M177.80694,116.5798c.4195.45991.94659,1.24079,1.32885,1.74428a.492.492,0,0,0,.7945.09034h0a.68862.68862,0,0,0,.05494-.92071,15.07359,15.07359,0,0,0-1.40377-1.6403.535.535,0,0,0-.80267-.0849h0A.53917.53917,0,0,0,177.80694,116.5798Z"/>
        <path class="cls-10" d="M177.12457,118.87372c.32961.5212.80177,1.29709,1.15135,1.81692a.51511.51511,0,0,0,.79586.1539h0a.63836.63836,0,0,0,.14437-.87713,15.86437,15.86437,0,0,0-1.22126-1.73791.548.548,0,0,0-.80131-.153h0c-.266.197-.26967.47988-.069.79722"/>
        <path class="cls-8" d="M177.12457,118.87372c.32961.5212.80177,1.29709,1.15135,1.81692a.51511.51511,0,0,0,.79586.1539h0a.63836.63836,0,0,0,.14437-.87713,15.86437,15.86437,0,0,0-1.22126-1.73791.548.548,0,0,0-.80131-.153h0C176.92754,118.27354,176.92391,118.55638,177.12457,118.87372Z"/>
        <path class="cls-10" d="M176.15011,121.07449c.316.52619.72,1.32341,1.03058,1.86322a.54332.54332,0,0,0,.79632.22746h0a.59715.59715,0,0,0,.21837-.834,18.59682,18.59682,0,0,0-1.095-1.801.57533.57533,0,0,0-.80085-.22655h0a.50591.50591,0,0,0-.14937.77089"/>
        <path class="cls-8" d="M176.15011,121.07449c.316.52619.72,1.32341,1.03058,1.86322a.54332.54332,0,0,0,.79632.22746h0a.59715.59715,0,0,0,.21837-.834,18.59682,18.59682,0,0,0-1.095-1.801.57533.57533,0,0,0-.80085-.22655h0A.50591.50591,0,0,0,176.15011,121.07449Z"/>
        <path class="cls-10" d="M175.00121,123.08794c.25879.5557.64014,1.34929.92435,1.90226a.57042.57042,0,0,0,.79359.2833h0a.56506.56506,0,0,0,.2724-.7945c-.25833-.563-.65149-1.32932-.96792-1.8555a.60015.60015,0,0,0-.79768-.28284c-.01726-.02543.00045,0,.00045,0a.50226.50226,0,0,0-.22519.74728"/>
        <path class="cls-8" d="M175.00121,123.08794c.25879.5557.64014,1.34929.92435,1.90226a.57042.57042,0,0,0,.79359.2833h0a.56506.56506,0,0,0,.2724-.7945c-.25833-.563-.65149-1.32932-.96792-1.8555a.60015.60015,0,0,0-.79768-.28284c-.01726-.02543.00045,0,.00045,0A.50226.50226,0,0,0,175.00121,123.08794Z"/>
        <path class="cls-10" d="M173.68225,125.03514c.25425.55162.61063,1.3434.88258,1.89228a.61522.61522,0,0,0,.78905.34141h0a.51325.51325,0,0,0,.291-.74547c-.24471-.55887-.622-1.332-.90709-1.87275a.622.622,0,0,0-.79-.33414h0a.47917.47917,0,0,0-.2656.71867"/>
        <path class="cls-8" d="M173.68225,125.03514c.25425.55162.61063,1.3434.88258,1.89228a.61522.61522,0,0,0,.78905.34141h0a.51325.51325,0,0,0,.291-.74547c-.24471-.55887-.622-1.332-.90709-1.87275a.622.622,0,0,0-.79-.33414h0A.47917.47917,0,0,0,173.68225,125.03514Z"/>
        <path class="cls-10" d="M172.35821,126.92836c.25742.57749.57295,1.43374.8172,2.02939a.55553.55553,0,0,0,.7777.33687h0a.61778.61778,0,0,0,.32643-.82855,19.37045,19.37045,0,0,0-.86668-1.94494.59223.59223,0,0,0-.77862-.3355h0a.50345.50345,0,0,0-.276.74273"/>
        <path class="cls-8" d="M172.35821,126.92836c.25742.57749.57295,1.43374.8172,2.02939a.55553.55553,0,0,0,.7777.33687h0a.61778.61778,0,0,0,.32643-.82855,19.37045,19.37045,0,0,0-.86668-1.94494.59223.59223,0,0,0-.77862-.3355h0A.50345.50345,0,0,0,172.35821,126.92836Z"/>
        <path class="cls-10" d="M170.97523,129.03819c.16708.61744.36684,1.51546.55025,2.14062a.5131.5131,0,0,0,.74774.35775h0a.71989.71989,0,0,0,.439-.85307,12.60351,12.60351,0,0,0-.68963-2.087.54788.54788,0,0,0-.7559-.36h0c-.32189.13439-.39317.4254-.29148.80176"/>
        <path class="cls-8" d="M170.97523,129.03819c.16708.61744.36684,1.51546.55025,2.14062a.5131.5131,0,0,0,.74774.35775h0a.71989.71989,0,0,0,.439-.85307,12.60351,12.60351,0,0,0-.68963-2.087.54788.54788,0,0,0-.7559-.36h0C170.94482,128.37082,170.87354,128.66183,170.97523,129.03819Z"/>
        <path class="cls-10" d="M169.4167,131.03479a16.89327,16.89327,0,0,1,.26151,2.1379.485.485,0,0,0,.68463.41631h0a.76257.76257,0,0,0,.56432-.79132,10.278,10.278,0,0,0-.4599-2.10384.52948.52948,0,0,0-.69462-.42267h0a.57515.57515,0,0,0-.35594.76362"/>
        <path class="cls-8" d="M169.4167,131.03479a16.89327,16.89327,0,0,1,.26151,2.1379.485.485,0,0,0,.68463.41631h0a.76257.76257,0,0,0,.56432-.79132,10.278,10.278,0,0,0-.4599-2.10384.52948.52948,0,0,0-.69462-.42267h0A.57515.57515,0,0,0,169.4167,131.03479Z"/>
        <path class="cls-10" d="M167.57981,132.77734c-.01089.5843.01136,1.38425-.044,1.98081a.47129.47129,0,0,0,.54525.56114h0a.77982.77982,0,0,0,.691-.68418,6.93845,6.93845,0,0,0-.1076-2.01894.52442.52442,0,0,0-.62016-.49485h0c-.32416.04994-.45763.30009-.46445.656"/>
        <path class="cls-8" d="M167.57981,132.77734c-.01089.5843.01136,1.38425-.044,1.98081a.47129.47129,0,0,0,.54525.56114h0a.77982.77982,0,0,0,.691-.68418,6.93845,6.93845,0,0,0-.1076-2.01894.52442.52442,0,0,0-.62016-.49485h0C167.7201,132.17126,167.58663,132.42141,167.57981,132.77734Z"/>
        <path class="cls-10" d="M165.48529,134.08436c-.08626.57068-.28057,1.31887-.37727,1.90362-.059.3564.0858.61381.44083.63833h0a.8051.8051,0,0,0,.839-.5557,8.08578,8.08578,0,0,0,.24153-1.99851c-.00545-.37182-.272-.49758-.58521-.51846h0c-.31326-.02089-.5062.183-.55887.53072"/>
        <path class="cls-8" d="M165.48529,134.08436c-.08626.57068-.28057,1.31887-.37727,1.90362-.059.3564.0858.61381.44083.63833h0a.8051.8051,0,0,0,.839-.5557,8.08578,8.08578,0,0,0,.24153-1.99851c-.00545-.37182-.272-.49758-.58521-.51846h0C165.7309,133.53275,165.538,133.7366,165.48529,134.08436Z"/>
        <path class="cls-10" d="M163.1732,134.888c-.19612.56568-.538,1.31842-.74047,1.89454a.49511.49511,0,0,0,.39225.68327h0a.6814.6814,0,0,0,.8331-.37545,10.782,10.782,0,0,0,.60245-1.89227.56041.56041,0,0,0-.42812-.68509h0a.49735.49735,0,0,0-.65921.375"/>
        <path class="cls-8" d="M163.1732,134.888c-.19612.56568-.538,1.31842-.74047,1.89454a.49511.49511,0,0,0,.39225.68327h0a.6814.6814,0,0,0,.8331-.37545,10.782,10.782,0,0,0,.60245-1.89227.56041.56041,0,0,0-.42812-.68509h0A.49735.49735,0,0,0,163.1732,134.888Z"/>
        <path class="cls-10" d="M160.77608,135.24156c-.28193.54844-.71187,1.263-.99334,1.82826a.52025.52025,0,0,0,.33732.75046h0a.71571.71571,0,0,0,.89846-.27376,10.63358,10.63358,0,0,0,.8349-1.79375.585.585,0,0,0-.34731-.75183h0a.4996.4996,0,0,0-.73.24062"/>
        <path class="cls-8" d="M160.77608,135.24156c-.28193.54844-.71187,1.263-.99334,1.82826a.52025.52025,0,0,0,.33732.75046h0a.71571.71571,0,0,0,.89846-.27376,10.63358,10.63358,0,0,0,.8349-1.79375.585.585,0,0,0-.34731-.75183h0A.4996.4996,0,0,0,160.77608,135.24156Z"/>
        <path class="cls-10" d="M158.21729,135.26226c-.30645.54889-.82083,1.23262-1.16632,1.77514a.55625.55625,0,0,0,.25151.82129h0a.69224.69224,0,0,0,.92253-.1757,12.87086,12.87086,0,0,0,1.01787-1.74835.62443.62443,0,0,0-.26014-.82265h0a.49105.49105,0,0,0-.76545.15027"/>
        <path class="cls-8" d="M158.21729,135.26226c-.30645.54889-.82083,1.23262-1.16632,1.77514a.55625.55625,0,0,0,.25151.82129h0a.69224.69224,0,0,0,.92253-.1757,12.87086,12.87086,0,0,0,1.01787-1.74835.62443.62443,0,0,0-.26014-.82265h0A.49105.49105,0,0,0,158.21729,135.26226Z"/>
        <path class="cls-10" d="M155.73305,135.0546c-.36093.51348-.8458,1.19084-1.19492,1.72566a.637.637,0,0,0,.14755.90119h0a.60269.60269,0,0,0,.88121-.14619c.37409-.50894.8172-1.1804,1.13455-1.71657a.64506.64506,0,0,0-.1807-.86079h0a.506.506,0,0,0-.78769.0967"/>
        <path class="cls-8" d="M155.73305,135.0546c-.36093.51348-.8458,1.19084-1.19492,1.72566a.637.637,0,0,0,.14755.90119h0a.60269.60269,0,0,0,.88121-.14619c.37409-.50894.8172-1.1804,1.13455-1.71657a.64506.64506,0,0,0-.1807-.86079h0A.506.506,0,0,0,155.73305,135.0546Z"/>
        <path class="cls-10" d="M153.231,134.89075c-.34231.54435-.87667,1.3729-1.243,1.90862-.22382.32643-.22973.64513.06083.84944h0a.58461.58461,0,0,0,.85625-.22383c.355-.54525.88167-1.3393,1.23442-1.87093a.57659.57659,0,0,0-.12485-.83218h0a.51139.51139,0,0,0-.78361.16888"/>
        <path class="cls-8" d="M153.231,134.89075c-.34231.54435-.87667,1.3729-1.243,1.90862-.22382.32643-.22973.64513.06083.84944h0a.58461.58461,0,0,0,.85625-.22383c.355-.54525.88167-1.3393,1.23442-1.87093a.57659.57659,0,0,0-.12485-.83218h0A.51139.51139,0,0,0,153.231,134.89075Z"/>
        <path class="cls-10" d="M150.98448,135.07163c-.36593.51847-1.04647,1.2367-1.4696,1.722a.52113.52113,0,0,0,.03905.82582h0a.64413.64413,0,0,0,.8971-.12894,15.75371,15.75371,0,0,0,1.38743-1.84551c.21837-.32733.23925-.6474-.04359-.83944h0c-.28284-.19159-.58747-.04994-.81039.266"/>
        <path class="cls-8" d="M150.98448,135.07163c-.36593.51847-1.04647,1.2367-1.4696,1.722a.52113.52113,0,0,0,.03905.82582h0a.64413.64413,0,0,0,.8971-.12894,15.75371,15.75371,0,0,0,1.38743-1.84551c.21837-.32733.23925-.6474-.04359-.83944h0C151.512,134.614,151.2074,134.75565,150.98448,135.07163Z"/>
        <path class="cls-10" d="M148.62423,134.91509a13.3449,13.3449,0,0,1-1.57311,1.42329.49513.49513,0,0,0-.04994.79314h0a.64949.64949,0,0,0,.89075.039,9.26531,9.26531,0,0,0,1.47368-1.54314.58141.58141,0,0,0,.0227-.83309h0c-.23381-.22428-.52437-.16571-.76408.12076"/>
        <path class="cls-8" d="M148.62423,134.91509a13.3449,13.3449,0,0,1-1.57311,1.42329.49513.49513,0,0,0-.04994.79314h0a.64949.64949,0,0,0,.89075.039,9.26531,9.26531,0,0,0,1.47368-1.54314.58141.58141,0,0,0,.0227-.83309h0C149.1545,134.57005,148.86394,134.62862,148.62423,134.91509Z"/>
        <path class="cls-10" d="M146.55925,134.36225a19.21782,19.21782,0,0,1-1.68206,1.05965.51041.51041,0,0,0-.20884.77452h0a.61655.61655,0,0,0,.83763.21429,11.48874,11.48874,0,0,0,1.65483-1.21673.54911.54911,0,0,0,.17706-.78405h0a.511.511,0,0,0-.77862-.04768"/>
        <path class="cls-8" d="M146.55925,134.36225a19.21782,19.21782,0,0,1-1.68206,1.05965.51041.51041,0,0,0-.20884.77452h0a.61655.61655,0,0,0,.83763.21429,11.48874,11.48874,0,0,0,1.65483-1.21673.54911.54911,0,0,0,.17706-.78405h0A.511.511,0,0,0,146.55925,134.36225Z"/>
        <path class="cls-10" d="M144.65131,133.27329c-.55705.178-1.31614.43856-1.8782.65194a.52019.52019,0,0,0-.26377.76091h0a.64925.64925,0,0,0,.79315.39407,9.13163,9.13163,0,0,0,1.8346-.80539.56065.56065,0,0,0,.26605-.7718h0c-.14483-.29283-.41269-.33824-.75183-.22973"/>
        <path class="cls-8" d="M144.65131,133.27329c-.55705.178-1.31614.43856-1.8782.65194a.52019.52019,0,0,0-.26377.76091h0a.64925.64925,0,0,0,.79315.39407,9.13163,9.13163,0,0,0,1.8346-.80539.56065.56065,0,0,0,.26605-.7718h0C145.25831,133.21019,144.99045,133.16478,144.65131,133.27329Z"/>
        <path class="cls-10" d="M143.02014,131.7226c-.57022.15528-1.37562.2261-1.974.34732a.54122.54122,0,0,0-.39044.73048h0a.67244.67244,0,0,0,.72186.54935,7.68176,7.68176,0,0,0,1.856-.52392.6277.6277,0,0,0,.39271-.74h0a.43107.43107,0,0,0-.60609-.36321"/>
        <path class="cls-8" d="M143.02014,131.7226c-.57022.15528-1.37562.2261-1.974.34732a.54122.54122,0,0,0-.39044.73048h0a.67244.67244,0,0,0,.72186.54935,7.68176,7.68176,0,0,0,1.856-.52392.6277.6277,0,0,0,.39271-.74h0A.43107.43107,0,0,0,143.02014,131.7226Z"/>
        <path class="cls-10" d="M141.56071,129.75633c-.60154.10034-1.41875.10352-2.04073.15437a.5704.5704,0,0,0-.50439.6928h0a.652.652,0,0,0,.65194.62561,11.50642,11.50642,0,0,0,1.9463-.27739.64371.64371,0,0,0,.50394-.6978h0c-.01407-.31008-.19068-.55842-.55706-.49759"/>
        <path class="cls-8" d="M141.56071,129.75633c-.60154.10034-1.41875.10352-2.04073.15437a.5704.5704,0,0,0-.50439.6928h0a.652.652,0,0,0,.65194.62561,11.50642,11.50642,0,0,0,1.9463-.27739.64371.64371,0,0,0,.50394-.6978h0C142.1037,129.94384,141.92709,129.6955,141.56071,129.75633Z"/>
        <path class="cls-10" d="M140.32288,127.6638c-.62743.00455-1.46687-.01135-2.1052.0109a.5962.5962,0,0,0-.582.65648h0a.61415.61415,0,0,0,.59973.65331,16.18946,16.18946,0,0,0,2.033-.0908.64839.64839,0,0,0,.58157-.65966h0a.48789.48789,0,0,0-.52709-.57023"/>
        <path class="cls-8" d="M140.32288,127.6638c-.62743.00455-1.46687-.01135-2.1052.0109a.5962.5962,0,0,0-.582.65648h0a.61415.61415,0,0,0,.59973.65331,16.18946,16.18946,0,0,0,2.033-.0908.64839.64839,0,0,0,.58157-.65966h0A.48789.48789,0,0,0,140.32288,127.6638Z"/>
        <path class="cls-10" d="M139.094,125.42349c-.64285-.00136-1.48593-.0345-2.14469-.0522a.61334.61334,0,0,0-.63423.66647h0a.60907.60907,0,0,0,.62017.64422c.63968.00545,1.44644-.0109,2.07341-.03495a.63281.63281,0,0,0,.62606-.622h0a.51183.51183,0,0,0-.54072-.60156"/>
        <path class="cls-8" d="M139.094,125.42349c-.64285-.00136-1.48593-.0345-2.14469-.0522a.61334.61334,0,0,0-.63423.66647h0a.60907.60907,0,0,0,.62017.64422c.63968.00545,1.44644-.0109,2.07341-.03495a.63281.63281,0,0,0,.62606-.622h0A.51183.51183,0,0,0,139.094,125.42349Z"/>
        <path class="cls-10" d="M137.75237,123.05125c-.68871-.07037-1.55177-.19749-2.24729-.33551-.42359-.084-.64014.22065-.65013.61063h0a.83783.83783,0,0,0,.63606.8844,14.72056,14.72056,0,0,0,2.275.168.56977.56977,0,0,0,.60744-.6465h0a.645.645,0,0,0-.62108-.681"/>
        <path class="cls-8" d="M137.75237,123.05125c-.68871-.07037-1.55177-.19749-2.24729-.33551-.42359-.084-.64014.22065-.65013.61063h0a.83783.83783,0,0,0,.63606.8844,14.72056,14.72056,0,0,0,2.275.168.56977.56977,0,0,0,.60744-.6465h0A.645.645,0,0,0,137.75237,123.05125Z"/>
        <path class="cls-10" d="M136.48168,120.19986a14.98169,14.98169,0,0,1-2.18147-.9543c-.40359-.2093-.64967.1253-.69689.52482h0a1.09243,1.09243,0,0,0,.53755,1.13273,15.22936,15.22936,0,0,0,2.22595.80857c.43358.09625.642-.2043.67011-.57748h0a.86457.86457,0,0,0-.55525-.93434"/>
        <path class="cls-8" d="M136.48168,120.19986a14.98169,14.98169,0,0,1-2.18147-.9543c-.40359-.2093-.64967.1253-.69689.52482h0a1.09243,1.09243,0,0,0,.53755,1.13273,15.22936,15.22936,0,0,0,2.22595.80857c.43358.09625.642-.2043.67011-.57748h0A.86457.86457,0,0,0,136.48168,120.19986Z"/>
        <path class="cls-10" d="M135.63,116.90963c-.65875-.35729-1.40421-.8903-2.03209-1.30979-.38228-.2556-.66376.01135-.76.41359h0a1.17347,1.17347,0,0,0,.38636,1.21491,16.0531,16.0531,0,0,0,2.08386,1.22035c.41133.19341.666-.09761.73548-.47216h0a.9734.9734,0,0,0-.4136-1.0669"/>
        <path class="cls-8" d="M135.63,116.90963c-.65875-.35729-1.40421-.8903-2.03209-1.30979-.38228-.2556-.66376.01135-.76.41359h0a1.17347,1.17347,0,0,0,.38636,1.21491,16.0531,16.0531,0,0,0,2.08386,1.22035c.41133.19341.666-.09761.73548-.47216h0A.9734.9734,0,0,0,135.63,116.90963Z"/>
        <path class="cls-10" d="M135.16012,113.53341c-.5625-.4481-1.28754-1.05963-1.89453-1.45506-.36957-.24108-.6751.015-.7995.37318h0a.92429.92429,0,0,0,.28694,1.07507c.59336.41632,1.31887.97974,1.91632,1.36019.36411.23154.65059.03995.77907-.31144h0a.90909.90909,0,0,0-.2883-1.04194"/>
        <path class="cls-8" d="M135.16012,113.53341c-.5625-.4481-1.28754-1.05963-1.89453-1.45506-.36957-.24108-.6751.015-.7995.37318h0a.92429.92429,0,0,0,.28694,1.07507c.59336.41632,1.31887.97974,1.91632,1.36019.36411.23154.65059.03995.77907-.31144h0A.90909.90909,0,0,0,135.16012,113.53341Z"/>
        <path class="cls-10" d="M134.89314,110.70445c-.5557-.281-1.38107-.64467-1.93722-.893a.577.577,0,0,0-.80358.19386h0c-.15435.28057-.03405.54254.30509.7028a14.89453,14.89453,0,0,1,1.91588.9947.50245.50245,0,0,0,.79133-.14119h0a.62569.62569,0,0,0-.2715-.85716"/>
        <path class="cls-8" d="M134.89314,110.70445c-.5557-.281-1.38107-.64467-1.93722-.893a.577.577,0,0,0-.80358.19386h0c-.15435.28057-.03405.54254.30509.7028a14.89453,14.89453,0,0,1,1.91588.9947.50245.50245,0,0,0,.79133-.14119h0A.62569.62569,0,0,0,134.89314,110.70445Z"/>
        <path class="cls-10" d="M180.31638,102.50185c-.52664.311-1.2939.78452-1.80011,1.13545a.55827.55827,0,0,1-.8172-.1253h0a.53377.53377,0,0,1,.16662-.79087c.50621-.35139,1.31478-.79631,1.851-1.09777a.59016.59016,0,0,1,.8331.13121h0c.18432.27058.08762.55751-.23336.74728"/>
        <path class="cls-8" d="M180.31638,102.50185c-.52664.311-1.2939.78452-1.80011,1.13545a.55827.55827,0,0,1-.8172-.1253h0a.53377.53377,0,0,1,.16662-.79087c.50621-.35139,1.31478-.79631,1.851-1.09777a.59016.59016,0,0,1,.8331.13121h0C180.73406,102.02515,180.63736,102.31208,180.31638,102.50185Z"/>
        <path class="cls-10" d="M180.42247,104.98387c-.49531.37819-1.16314.83854-1.67752,1.1863a.58672.58672,0,0,1-.83718-.16979h0a.557.557,0,0,1,.10351-.829c.50439-.37182,1.17359-.85806,1.693-1.21446a.58331.58331,0,0,1,.849.16435h0a.60234.60234,0,0,1-.13076.8626"/>
        <path class="cls-8" d="M180.42247,104.98387c-.49531.37819-1.16314.83854-1.67752,1.1863a.58672.58672,0,0,1-.83718-.16979h0a.557.557,0,0,1,.10351-.829c.50439-.37182,1.17359-.85806,1.693-1.21446a.58331.58331,0,0,1,.849.16435h0A.60234.60234,0,0,1,180.42247,104.98387Z"/>
        <path class="cls-10" d="M180.62764,107.74355a18.26764,18.26764,0,0,1-1.68525,1.10957.59132.59132,0,0,1-.824-.21882h0a.55146.55146,0,0,1,.12031-.82083c.52119-.34867,1.16814-.82945,1.68888-1.19175a.5556.5556,0,0,1,.82311.21338h0a.66741.66741,0,0,1-.123.90845"/>
        <path class="cls-8" d="M180.62764,107.74355a18.26764,18.26764,0,0,1-1.68525,1.10957.59132.59132,0,0,1-.824-.21882h0a.55146.55146,0,0,1,.12031-.82083c.52119-.34867,1.16814-.82945,1.68888-1.19175a.5556.5556,0,0,1,.82311.21338h0A.66741.66741,0,0,1,180.62764,107.74355Z"/>
        <path class="cls-10" d="M180.74368,110.49275a16.34166,16.34166,0,0,1-1.73155.97928.59011.59011,0,0,1-.79723-.2833h0a.53411.53411,0,0,1,.16526-.79449c.54071-.30463,1.184-.75546,1.717-1.09324a.55088.55088,0,0,1,.80131.27422h0a.69334.69334,0,0,1-.15481.91753"/>
        <path class="cls-8" d="M180.74368,110.49275a16.34166,16.34166,0,0,1-1.73155.97928.59011.59011,0,0,1-.79723-.2833h0a.53411.53411,0,0,1,.16526-.79449c.54071-.30463,1.184-.75546,1.717-1.09324a.55088.55088,0,0,1,.80131.27422h0A.69334.69334,0,0,1,180.74368,110.49275Z"/>
        <path class="cls-10" d="M180.65519,113.31082a11.23864,11.23864,0,0,1-1.79647.79087.602.602,0,0,1-.77316-.33823h0a.50618.50618,0,0,1,.23835-.7491c.563-.242,1.23125-.63015,1.78149-.9248a.54326.54326,0,0,1,.76953.32824h0a.68668.68668,0,0,1-.21974.893"/>
        <path class="cls-8" d="M180.65519,113.31082a11.23864,11.23864,0,0,1-1.79647.79087.602.602,0,0,1-.77316-.33823h0a.50618.50618,0,0,1,.23835-.7491c.563-.242,1.23125-.63015,1.78149-.9248a.54326.54326,0,0,1,.76953.32824h0A.68668.68668,0,0,1,180.65519,113.31082Z"/>
        <path class="cls-10" d="M180.31651,115.95346a11.17166,11.17166,0,0,1-1.87956.61518.60069.60069,0,0,1-.735-.39771h0a.49457.49457,0,0,1,.32824-.69916c.58021-.16616,1.29617-.5221,1.86685-.75046a.54041.54041,0,0,1,.73049.38953h0a.6585.6585,0,0,1-.311.84262"/>
        <path class="cls-8" d="M180.31651,115.95346a11.17166,11.17166,0,0,1-1.87956.61518.60069.60069,0,0,1-.735-.39771h0a.49457.49457,0,0,1,.32824-.69916c.58021-.16616,1.29617-.5221,1.86685-.75046a.54041.54041,0,0,1,.73049.38953h0A.6585.6585,0,0,1,180.31651,115.95346Z"/>
        <path class="cls-10" d="M179.71283,118.56042a13.84615,13.84615,0,0,1-1.96627.4136.58518.58518,0,0,1-.69235-.46081h0a.48806.48806,0,0,1,.41178-.64786c.592-.11259,1.357-.38363,1.94856-.55206a.544.544,0,0,1,.69462.45309h0a.64021.64021,0,0,1-.39634.794"/>
        <path class="cls-8" d="M179.71283,118.56042a13.84615,13.84615,0,0,1-1.96627.4136.58518.58518,0,0,1-.69235-.46081h0a.48806.48806,0,0,1,.41178-.64786c.592-.11259,1.357-.38363,1.94856-.55206a.544.544,0,0,1,.69462.45309h0A.64021.64021,0,0,1,179.71283,118.56042Z"/>
        <path class="cls-10" d="M178.83574,120.96612a12.5239,12.5239,0,0,1-2.03482.21429.59551.59551,0,0,1-.66511-.513h0a.4878.4878,0,0,1,.48941-.597c.607-.05312,1.41875-.21293,2.028-.32461a.53983.53983,0,0,1,.66148.49349h0a.61485.61485,0,0,1-.479.72685"/>
        <path class="cls-8" d="M178.83574,120.96612a12.5239,12.5239,0,0,1-2.03482.21429.59551.59551,0,0,1-.66511-.513h0a.4878.4878,0,0,1,.48941-.597c.607-.05312,1.41875-.21293,2.028-.32461a.53983.53983,0,0,1,.66148.49349h0A.61485.61485,0,0,1,178.83574,120.96612Z"/>
        <path class="cls-10" d="M177.7249,123.25937a18.318,18.318,0,0,1-2.09975.03359.58724.58724,0,0,1-.627-.56023h0a.49017.49017,0,0,1,.55206-.54435c.612-.005,1.46915-.0799,2.08886-.12712a.5534.5534,0,0,1,.63378.54208h0a.58759.58759,0,0,1-.548.656"/>
        <path class="cls-8" d="M177.7249,123.25937a18.318,18.318,0,0,1-2.09975.03359.58724.58724,0,0,1-.627-.56023h0a.49017.49017,0,0,1,.55206-.54435c.612-.005,1.46915-.0799,2.08886-.12712a.5534.5534,0,0,1,.63378.54208h0A.58759.58759,0,0,1,177.7249,123.25937Z"/>
        <path class="cls-10" d="M176.457,125.34545a17.701,17.701,0,0,1-2.11791-.11032.605.605,0,0,1-.612-.59156h0c-.00546-.32688.21655-.52483.59065-.50258.61426.03632,1.5.03,2.12426.03178a.56341.56341,0,0,1,.61108.577h0a.56825.56825,0,0,1-.5961.59565"/>
        <path class="cls-8" d="M176.457,125.34545a17.701,17.701,0,0,1-2.11791-.11032.605.605,0,0,1-.612-.59156h0c-.00546-.32688.21655-.52483.59065-.50258.61426.03632,1.5.03,2.12426.03178a.56341.56341,0,0,1,.61108.577h0A.56825.56825,0,0,1,176.457,125.34545Z"/>
        <path class="cls-10" d="M175.08784,127.31817c-.617-.05766-1.505-.08218-2.12063-.14482a.59.59,0,0,1-.59292-.6011h0a.50817.50817,0,0,1,.59564-.52346c.61744.02361,1.51137.09307,2.13063.13665a.59984.59984,0,0,1,.60018.59565h0a.53325.53325,0,0,1-.6129.53708"/>
        <path class="cls-8" d="M175.08784,127.31817c-.617-.05766-1.505-.08218-2.12063-.14482a.59.59,0,0,1-.59292-.6011h0a.50817.50817,0,0,1,.59564-.52346c.61744.02361,1.51137.09307,2.13063.13665a.59984.59984,0,0,1,.60018.59565h0A.53325.53325,0,0,1,175.08784,127.31817Z"/>
        <path class="cls-10" d="M173.68766,129.35627c-.63061.005-1.45643-.05584-2.078-.11214a.6.6,0,0,1-.56886-.64513h0a.5282.5282,0,0,1,.58884-.56386c.63106.03132,1.48185.03541,2.12245.06128a.58825.58825,0,0,1,.57113.66784h0a.5957.5957,0,0,1-.6356.592"/>
        <path class="cls-8" d="M173.68766,129.35627c-.63061.005-1.45643-.05584-2.078-.11214a.6.6,0,0,1-.56886-.64513h0a.5282.5282,0,0,1,.58884-.56386c.63106.03132,1.48185.03541,2.12245.06128a.58825.58825,0,0,1,.57113.66784h0A.5957.5957,0,0,1,173.68766,129.35627Z"/>
        <path class="cls-10" d="M171.99792,131.5993a13.21551,13.21551,0,0,1-2.03574-.25287.58133.58133,0,0,1-.48577-.68645h0a.52536.52536,0,0,1,.6306-.5053c.62561.08944,1.47459.11668,2.11609.15935a.52371.52371,0,0,1,.49759.66965h0a.71609.71609,0,0,1-.72277.61562"/>
        <path class="cls-8" d="M171.99792,131.5993a13.21551,13.21551,0,0,1-2.03574-.25287.58133.58133,0,0,1-.48577-.68645h0a.52536.52536,0,0,1,.6306-.5053c.62561.08944,1.47459.11668,2.11609.15935a.52371.52371,0,0,1,.49759.66965h0A.71609.71609,0,0,1,171.99792,131.5993Z"/>
        <path class="cls-10" d="M170.08049,133.62455a10.08659,10.08659,0,0,1-1.95583-.51211.5459.5459,0,0,1-.37273-.71051h0a.50208.50208,0,0,1,.67964-.38,18.17937,18.17937,0,0,0,2.06706.36956.48635.48635,0,0,1,.39044.69961h0a.76869.76869,0,0,1-.80858.53345"/>
        <path class="cls-8" d="M170.08049,133.62455a10.08659,10.08659,0,0,1-1.95583-.51211.5459.5459,0,0,1-.37273-.71051h0a.50208.50208,0,0,1,.67964-.38,18.17937,18.17937,0,0,0,2.06706.36956.48635.48635,0,0,1,.39044.69961h0A.76869.76869,0,0,1,170.08049,133.62455Z"/>
        <path class="cls-10" d="M167.81394,135.29472a18.90263,18.90263,0,0,1-1.90906-.75272.5269.5269,0,0,1-.24062-.75864h0c.14437-.28148.39816-.3514.75681-.24471.5893.1748,1.40468.42449,2.013.6288a.47259.47259,0,0,1,.24289.75227h0a.71538.71538,0,0,1-.86306.375"/>
        <path class="cls-8" d="M167.81394,135.29472a18.90263,18.90263,0,0,1-1.90906-.75272.5269.5269,0,0,1-.24062-.75864h0c.14437-.28148.39816-.3514.75681-.24471.5893.1748,1.40468.42449,2.013.6288a.47259.47259,0,0,1,.24289.75227h0A.71538.71538,0,0,1,167.81394,135.29472Z"/>
        <path class="cls-10" d="M165.28848,136.55652a12.94474,12.94474,0,0,1-1.71249-1.15406.51774.51774,0,0,1-.11758-.77407h0a.52065.52065,0,0,1,.78269-.03723,11.94939,11.94939,0,0,0,1.85641,1.00107.43424.43424,0,0,1,.14437.74275h0a.77374.77374,0,0,1-.9534.22154"/>
        <path class="cls-8" d="M165.28848,136.55652a12.94474,12.94474,0,0,1-1.71249-1.15406.51774.51774,0,0,1-.11758-.77407h0a.52065.52065,0,0,1,.78269-.03723,11.94939,11.94939,0,0,0,1.85641,1.00107.43424.43424,0,0,1,.14437.74275h0A.77374.77374,0,0,1,165.28848,136.55652Z"/>
        <path class="cls-10" d="M162.56915,137.35352a13.35613,13.35613,0,0,1-1.50546-1.52361.50391.50391,0,0,1-.01952-.78316h0a.56283.56283,0,0,1,.8113.11532,18.30121,18.30121,0,0,0,1.60035,1.3679.48.48,0,0,1,.04812.78225h0a.7225.7225,0,0,1-.93479.0413"/>
        <path class="cls-8" d="M162.56915,137.35352a13.35613,13.35613,0,0,1-1.50546-1.52361.50391.50391,0,0,1-.01952-.78316h0a.56283.56283,0,0,1,.8113.11532,18.30121,18.30121,0,0,0,1.60035,1.3679.48.48,0,0,1,.04812.78225h0A.7225.7225,0,0,1,162.56915,137.35352Z"/>
        <path class="cls-10" d="M159.863,137.66946a10.78214,10.78214,0,0,1-1.36517-1.7597c-.21747-.31871-.21066-.627.06855-.81084h0a.57137.57137,0,0,1,.81175.232,15.85087,15.85087,0,0,0,1.50955,1.62259.47659.47659,0,0,1-.059.79541h0a.75455.75455,0,0,1-.96566-.07945"/>
        <path class="cls-8" d="M159.863,137.66946a10.78214,10.78214,0,0,1-1.36517-1.7597c-.21747-.31871-.21066-.627.06855-.81084h0a.57137.57137,0,0,1,.81175.232,15.85087,15.85087,0,0,0,1.50955,1.62259.47659.47659,0,0,1-.059.79541h0A.75455.75455,0,0,1,159.863,137.66946Z"/>
        <path class="cls-10" d="M157.06458,137.67105a15.06939,15.06939,0,0,1-1.1754-1.93766.55459.55459,0,0,1,.15527-.82674h0c.29374-.16435.58929-.04676.7895.296a21.858,21.858,0,0,0,1.32659,1.84687.51026.51026,0,0,1-.14664.82083h0a.73063.73063,0,0,1-.94932-.19931"/>
        <path class="cls-8" d="M157.06458,137.67105a15.06939,15.06939,0,0,1-1.1754-1.93766.55459.55459,0,0,1,.15527-.82674h0c.29374-.16435.58929-.04676.7895.296a21.858,21.858,0,0,0,1.32659,1.84687.51026.51026,0,0,1-.14664.82083h0A.73063.73063,0,0,1,157.06458,137.67105Z"/>
        <path class="cls-10" d="M154.48491,137.46757c-.331-.567-.80176-1.37425-1.09187-1.9472a.56715.56715,0,0,1,.21338-.80721h0a.51171.51171,0,0,1,.7659.21792c.33777.55388.8458,1.37607,1.1745,1.95174a.568.568,0,0,1-.19794.84626h0a.60752.60752,0,0,1-.864-.26151"/>
        <path class="cls-8" d="M154.48491,137.46757c-.331-.567-.80176-1.37425-1.09187-1.9472a.56715.56715,0,0,1,.21338-.80721h0a.51171.51171,0,0,1,.7659.21792c.33777.55388.8458,1.37607,1.1745,1.95174a.568.568,0,0,1-.19794.84626h0A.60752.60752,0,0,1,154.48491,137.46757Z"/>
        <path class="cls-10" d="M151.874,137.46866c-.281-.538-.58838-1.21036-.83717-1.76288a.70118.70118,0,0,1,.2833-.85806h0a.46933.46933,0,0,1,.74909.12758c.28648.53118.5725,1.21308.84672,1.76424a.69935.69935,0,0,1-.222.90573h0a.53774.53774,0,0,1-.81993-.17661"/>
        <path class="cls-8" d="M151.874,137.46866c-.281-.538-.58838-1.21036-.83717-1.76288a.70118.70118,0,0,1,.2833-.85806h0a.46933.46933,0,0,1,.74909.12758c.28648.53118.5725,1.21308.84672,1.76424a.69935.69935,0,0,1-.222.90573h0A.53774.53774,0,0,1,151.874,137.46866Z"/>
        <path class="cls-10" d="M149.37855,137.42916a12.28261,12.28261,0,0,1-.6978-1.87.65042.65042,0,0,1,.32461-.79859h0a.4403.4403,0,0,1,.68145.2606c.20294.56841.58657,1.29526.84263,1.85776a.58628.58628,0,0,1-.32415.795h0a.59482.59482,0,0,1-.82674-.24471"/>
        <path class="cls-8" d="M149.37855,137.42916a12.28261,12.28261,0,0,1-.6978-1.87.65042.65042,0,0,1,.32461-.79859h0a.4403.4403,0,0,1,.68145.2606c.20294.56841.58657,1.29526.84263,1.85776a.58628.58628,0,0,1-.32415.795h0A.59482.59482,0,0,1,149.37855,137.42916Z"/>
        <path class="cls-10" d="M146.84972,136.91705a8.9027,8.9027,0,0,1-.41313-1.9472.61267.61267,0,0,1,.47215-.68827h0a.45605.45605,0,0,1,.62743.39,13.70837,13.70837,0,0,0,.49986,1.92677.522.522,0,0,1-.40316.70053h0a.62965.62965,0,0,1-.78315-.38182"/>
        <path class="cls-8" d="M146.84972,136.91705a8.9027,8.9027,0,0,1-.41313-1.9472.61267.61267,0,0,1,.47215-.68827h0a.45605.45605,0,0,1,.62743.39,13.70837,13.70837,0,0,0,.49986,1.92677.522.522,0,0,1-.40316.70053h0A.62965.62965,0,0,1,146.84972,136.91705Z"/>
        <path class="cls-10" d="M144.562,135.94866c-.06491-.602-.03222-1.436-.049-2.03618a.55337.55337,0,0,1,.5448-.59565h0a.48908.48908,0,0,1,.55615.523,14.09837,14.09837,0,0,0,.09942,2.023.48891.48891,0,0,1-.46217.62471h0a.62214.62214,0,0,1-.68918-.53891"/>
        <path class="cls-8" d="M144.562,135.94866c-.06491-.602-.03222-1.436-.049-2.03618a.55337.55337,0,0,1,.5448-.59565h0a.48908.48908,0,0,1,.55615.523,14.09837,14.09837,0,0,0,.09942,2.023.48891.48891,0,0,1-.46217.62471h0A.62214.62214,0,0,1,144.562,135.94866Z"/>
        <path class="cls-10" d="M142.43339,134.40884a8.8,8.8,0,0,1,.29374-2.09158c.07583-.35639.28829-.57385.59883-.53027h0c.31008.04359.44083.29056.37274.6583a11.883,11.883,0,0,0-.10034,2.122.46806.46806,0,0,1-.56206.5339h0a.70223.70223,0,0,1-.60291-.69235"/>
        <path class="cls-8" d="M142.43339,134.40884a8.8,8.8,0,0,1,.29374-2.09158c.07583-.35639.28829-.57385.59883-.53027h0c.31008.04359.44083.29056.37274.6583a11.883,11.883,0,0,0-.10034,2.122.46806.46806,0,0,1-.56206.5339h0A.70223.70223,0,0,1,142.43339,134.40884Z"/>
        <path class="cls-10" d="M140.62752,132.50026a10.31061,10.31061,0,0,1,.577-2.13561c.12984-.36139.37365-.54389.68463-.43857h0c.311.10579.40088.40043.28012.76636a14.9413,14.9413,0,0,0-.40542,2.186.47029.47029,0,0,1-.65149.4431h0a.736.736,0,0,1-.48488-.82129"/>
        <path class="cls-8" d="M140.62752,132.50026a10.31061,10.31061,0,0,1,.577-2.13561c.12984-.36139.37365-.54389.68463-.43857h0c.311.10579.40088.40043.28012.76636a14.9413,14.9413,0,0,0-.40542,2.186.47029.47029,0,0,1-.65149.4431h0A.736.736,0,0,1,140.62752,132.50026Z"/>
        <path class="cls-10" d="M139.03124,130.29954a14.52957,14.52957,0,0,1,.84128-2.102c.16116-.35593.43811-.513.74409-.3741h0c.306.13938.37365.44991.21793.80994-.25605.59156-.51574,1.53407-.70415,2.1624a.50048.50048,0,0,1-.7264.37818h0a.71046.71046,0,0,1-.37275-.87441"/>
        <path class="cls-8" d="M139.03124,130.29954a14.52957,14.52957,0,0,1,.84128-2.102c.16116-.35593.43811-.513.74409-.3741h0c.306.13938.37365.44991.21793.80994-.25605.59156-.51574,1.53407-.70415,2.1624a.50048.50048,0,0,1-.7264.37818h0A.71046.71046,0,0,1,139.03124,130.29954Z"/>
        <path class="cls-10" d="M137.68137,128.03245a19.35283,19.35283,0,0,1,.95749-2.05616.56965.56965,0,0,1,.79041-.32416h0a.56321.56321,0,0,1,.21067.824c-.28194.58838-.63879,1.4982-.89348,2.10611a.53106.53106,0,0,1-.77453.33369h0a.66822.66822,0,0,1-.29056-.88349"/>
        <path class="cls-8" d="M137.68137,128.03245a19.35283,19.35283,0,0,1,.95749-2.05616.56965.56965,0,0,1,.79041-.32416h0a.56321.56321,0,0,1,.21067.824c-.28194.58838-.63879,1.4982-.89348,2.10611a.53106.53106,0,0,1-.77453.33369h0A.66822.66822,0,0,1,137.68137,128.03245Z"/>
        <path class="cls-10" d="M136.36445,125.727c.25651-.6365.63743-1.55676.91073-2.19463a.53272.53272,0,0,1,.81993-.27013h0a.69313.69313,0,0,1,.29465.90618,20.803,20.803,0,0,1-.91936,2.12563.579.579,0,0,1-.80812.326h0a.65443.65443,0,0,1-.29783-.893"/>
        <path class="cls-8" d="M136.36445,125.727c.25651-.6365.63743-1.55676.91073-2.19463a.53272.53272,0,0,1,.81993-.27013h0a.69313.69313,0,0,1,.29465.90618,20.803,20.803,0,0,1-.91936,2.12563.579.579,0,0,1-.80812.326h0A.65443.65443,0,0,1,136.36445,125.727Z"/>
        <path class="cls-10" d="M134.91661,122.98633c.29511-.69053.72141-1.609,1.06373-2.26773a.49022.49022,0,0,1,.84353-.13347h0a.91252.91252,0,0,1,.22608,1.07008c-.29509.661-.68553,1.56312-.99244,2.21461a.52474.52474,0,0,1-.85488.21293h0a.89782.89782,0,0,1-.286-1.09642"/>
        <path class="cls-8" d="M134.91661,122.98633c.29511-.69053.72141-1.609,1.06373-2.26773a.49022.49022,0,0,1,.84353-.13347h0a.91252.91252,0,0,1,.22608,1.07008c-.29509.661-.68553,1.56312-.99244,2.21461a.52474.52474,0,0,1-.85488.21293h0A.89782.89782,0,0,1,134.91661,122.98633Z"/>
        <path class="cls-10" d="M133.70011,119.41407a16.09054,16.09054,0,0,1,1.338-2.13833.48413.48413,0,0,1,.85534.01952h0a1.04432,1.04432,0,0,1,.05856,1.17722c-.40088.637-.84263,1.51954-1.2208,2.15878a.48154.48154,0,0,1-.85761.07309h0a1.19246,1.19246,0,0,1-.17344-1.29028"/>
        <path class="cls-8" d="M133.70011,119.41407a16.09054,16.09054,0,0,1,1.338-2.13833.48413.48413,0,0,1,.85534.01952h0a1.04432,1.04432,0,0,1,.05856,1.17722c-.40088.637-.84263,1.51954-1.2208,2.15878a.48154.48154,0,0,1-.85761.07309h0A1.19246,1.19246,0,0,1,133.70011,119.41407Z"/>
        <path class="cls-10" d="M132.97453,115.68034a13.23143,13.23143,0,0,1,1.59127-1.83279c.32869-.31145.63651-.12712.82265.1934h0a.87933.87933,0,0,1-.07354,1.06054c-.47988.56387-1.06056,1.33476-1.49412,1.9572-.26423.37954-.61153.27194-.83672-.08989h0a1.20412,1.20412,0,0,1-.00954-1.28846"/>
        <path class="cls-8" d="M132.97453,115.68034a13.23143,13.23143,0,0,1,1.59127-1.83279c.32869-.31145.63651-.12712.82265.1934h0a.87933.87933,0,0,1-.07354,1.06054c-.47988.56387-1.06056,1.33476-1.49412,1.9572-.26423.37954-.61153.27194-.83672-.08989h0A1.20412,1.20412,0,0,1,132.97453,115.68034Z"/>
        <path class="cls-10" d="M132.62045,112.15775a7.20116,7.20116,0,0,1,1.65165-1.29208.566.566,0,0,1,.83719.16207h0a.58341.58341,0,0,1-.109.86352,13.14708,13.14708,0,0,0-1.62849,1.52679.492.492,0,0,1-.83627-.12575h0a.99732.99732,0,0,1,.08489-1.13455"/>
        <path class="cls-8" d="M132.62045,112.15775a7.20116,7.20116,0,0,1,1.65165-1.29208.566.566,0,0,1,.83719.16207h0a.58341.58341,0,0,1-.109.86352,13.14708,13.14708,0,0,0-1.62849,1.52679.492.492,0,0,1-.83627-.12575h0A.99732.99732,0,0,1,132.62045,112.15775Z"/>
        <path class="cls-10" d="M132.30769,109.82224c.47806-.33414,1.14408-.775,1.6403-1.09a.64358.64358,0,0,1,.84535.10486h0a.44253.44253,0,0,1-.0808.721c-.47807.33414-1.14409.775-1.64031,1.09a.64364.64364,0,0,1-.84535-.10487h0a.44252.44252,0,0,1,.08081-.721"/>
        <path class="cls-8" d="M132.30769,109.82224c.47806-.33414,1.14408-.775,1.6403-1.09a.64358.64358,0,0,1,.84535.10486h0a.44253.44253,0,0,1-.0808.721c-.47807.33414-1.14409.775-1.64031,1.09a.64364.64364,0,0,1-.84535-.10487h0A.44252.44252,0,0,1,132.30769,109.82224Z"/>
        <path class="cls-3" d="M123.48156,99.96654h6.252a1.43671,1.43671,0,0,0,1.43646-1.43644V88.5666a1.43643,1.43643,0,0,0-1.43646-1.43645h-6.252a1.43642,1.43642,0,0,0-1.43644,1.43645v9.9635a1.4367,1.4367,0,0,0,1.43644,1.43644"/>
        <path class="cls-8" d="M123.48156,87.13015h6.252a1.43646,1.43646,0,0,1,1.43646,1.43646v9.96348a1.43646,1.43646,0,0,1-1.43646,1.43646h-6.252a1.43646,1.43646,0,0,1-1.43646-1.43646V88.56659A1.43644,1.43644,0,0,1,123.48156,87.13015Z"/>
        <path class="cls-6" d="M75.06891,130.59791s3.50262-7.85419,10.50784-8.49115,11.56882,1.69841,15.60216,6.05S124.317,148.323,126.2279,149.2782c1.91043.95521.95522-17.72507-.53072-23.35058-1.48594-5.62506-5.94377-18.14956-5.51928-21.65217s3.9271-12.63028,5.09434-14.43494c1.16768-1.80419.42494-4.35158,2.1229-4.24534,1.69841.10624,2.1229,2.54739,2.01666,3.82086-.10623,1.27392-1.06144,5.73175-1.06144,5.73175a27.58432,27.58432,0,0,0,2.22914-3.82132c.74274-1.69795.849-1.59173,2.33492-1.486,1.48594.10624,1.69842,2.22915,1.69842,2.22915s2.33491,2.01667,2.44115,4.03333a35.64056,35.64056,0,0,1-.10624,3.9271c0,.849.74275,4.24536.10624,5.73131-.637,1.48593-4.98856,5.73174-5.30726,7.00521-.31825,1.27347.95521,13.47972,5.51928,22.92609s5.3068,18.362,5.94376,26.53448-1.16723,9.44638-2.86564,9.76464c-1.69841.3187-18.14955-.849-28.12666-5.94377-9.97711-5.09433-22.39538-12.73652-22.39538-12.73652s-3.44585,4.7552-12.09955-6.15578c-4.88276-6.15624-2.65363-16.55784-2.65363-16.55784"/>
        <path class="cls-8" d="M75.06891,130.59791s3.50262-7.85419,10.50784-8.49115,11.56882,1.69841,15.60216,6.05S124.317,148.323,126.2279,149.2782c1.91043.95521.95522-17.72507-.53072-23.35058-1.48594-5.62506-5.94377-18.14956-5.51928-21.65217s3.9271-12.63028,5.09434-14.43494c1.16768-1.80419.42494-4.35158,2.1229-4.24534,1.69841.10624,2.1229,2.54739,2.01666,3.82086-.10623,1.27392-1.06144,5.73175-1.06144,5.73175a27.58432,27.58432,0,0,0,2.22914-3.82132c.74274-1.69795.849-1.59173,2.33492-1.486,1.48594.10624,1.69842,2.22915,1.69842,2.22915s2.33491,2.01667,2.44115,4.03333a35.64056,35.64056,0,0,1-.10624,3.9271c0,.849.74275,4.24536.10624,5.73131-.637,1.48593-4.98856,5.73174-5.30726,7.00521-.31825,1.27347.95521,13.47972,5.51928,22.92609s5.3068,18.362,5.94376,26.53448-1.16723,9.44638-2.86564,9.76464c-1.69841.3187-18.14955-.849-28.12666-5.94377-9.97711-5.09433-22.39538-12.73652-22.39538-12.73652s-3.44585,4.7552-12.09955-6.15578C72.83978,140.99951,75.06891,130.59791,75.06891,130.59791Z"/>
        <line class="cls-6" x1="89.82219" y1="153.31153" x2="81.968" y2="149.70269"/>
        <line class="cls-8" x1="89.82219" y1="153.31153" x2="81.968" y2="149.70269"/>
        <path class="cls-6" d="M126.97069,149.809a66.79384,66.79384,0,0,1,4.3516,7.11146"/>
        <path class="cls-8" d="M126.97069,149.809a66.79384,66.79384,0,0,1,4.3516,7.11146"/>
        <path class="cls-8" d="M134.61266,92.06961s-.68055,3.30014-1.42057,4.18816"/>
        <path class="cls-8" d="M136.74413,98.69978a11.6581,11.6581,0,0,1-1.406,2.66407"/>
        <path class="cls-8" d="M128.3505,95.1476a25.74753,25.74753,0,0,0-2.04073,3.2561"/>
        <path class="cls-8" d="M91.48214,93.23a4.40838,4.40838,0,0,0,1.959,1.56722,2.73525,2.73525,0,0,0,2.08978-.13076,11.514,11.514,0,0,0,4.96312,7.18364"/>
        <path class="cls-8" d="M108.119,200.90344a19.50213,19.50213,0,0,1-2.12834,1.40514"/>
        <path class="cls-8" d="M123.98814,180.61954s-6.62067,12.22259-14.183,18.90365"/>
        <path class="cls-8" d="M116.13154,197.18042c-3.25472,3.15121-7.90959,7.53413-9.9099,8.81986"/>
        <path class="cls-8" d="M119.60418,193.77142s-.888.888-2.22278,2.19282"/>
        <path class="cls-8" d="M92.14667,155.93084s-.46126,7.84513-3.46084,11.5366"/>
        <line class="cls-8" x1="94.45404" y1="158.6997" x2="92.83871" y2="163.54524"/>
        <line class="cls-8" x1="90.3008" y1="186.84937" x2="94.91571" y2="178.08127"/>
      </g>
      <line class="cls-11" x1="222.93976" y1="14.10429" x2="211.34641" y2="28.30042"/>
      <line class="cls-11" x1="227.28127" y1="8.78808" x2="225.35631" y2="11.14525"/>
      <line class="cls-11" x1="244.51701" y1="31.55222" x2="226.95629" y2="40.00753"/>
      <line class="cls-11" x1="228.25691" y1="54.96678" x2="240.61479" y2="54.96678"/>
      <line class="cls-11" x1="235.85015" y1="69.8889" x2="248.4196" y2="73.82872"/>
      <line class="cls-11" x1="226.63087" y1="66.99928" x2="229.75984" y2="67.97992"/>
      <line class="cls-11" x1="201.91552" y1="22.77178" x2="205.49258" y2="9.76378"/>
      <line class="cls-8" x1="53.78835" y1="216.38793" x2="246.19809" y2="216.38793"/>
      <line class="cls-8" x1="43.6473" y1="216.38793" x2="49.95699" y2="216.38793"/>
    </g>
  </g>
</svg>
