<svg xmlns="http://www.w3.org/2000/svg" width="584" height="510" viewBox="0 0 584 510">
  <defs>
    <style>
      .cls-1 {
        fill: #e0e0e0;
      }

      .cls-2, .cls-8 {
        fill: #e6e6e6;
      }

      .cls-3 {
        fill: #f0f0f0;
      }

      .cls-13, .cls-18, .cls-19, .cls-4, .cls-6, .cls-7 {
        fill: #fff;
      }

      .cls-5 {
        fill: #ebebeb;
      }

      .cls-25, .cls-6, .cls-7, .cls-8 {
        isolation: isolate;
      }

      .cls-12, .cls-16, .cls-17, .cls-18, .cls-7 {
        opacity: 0.3;
      }

      .cls-14, .cls-16, .cls-23, .cls-9 {
        fill: none;
      }

      .cls-9 {
        stroke: #e0e0e0;
        stroke-miterlimit: 10;
      }

      .cls-10 {
        fill: #f5f5f5;
      }

      .cls-11 {
        fill: #684df4;
      }

      .cls-13, .cls-28 {
        opacity: 0.7;
      }

      .cls-14 {
        stroke: #684df4;
      }

      .cls-14, .cls-16, .cls-23 {
        stroke-linecap: round;
        stroke-linejoin: round;
        stroke-width: 0.5px;
      }

      .cls-15 {
        fill: #262738;
      }

      .cls-16, .cls-23 {
        stroke: #000;
      }

      .cls-19 {
        opacity: 0.4;
      }

      .cls-20 {
        fill: #ebb273;
      }

      .cls-21, .cls-23, .cls-25, .cls-26 {
        opacity: 0.2;
      }

      .cls-22 {
        fill: #c17a54;
      }

      .cls-24 {
        fill: #ebbc76;
      }

      .cls-27 {
        fill: #a26c3f;
      }
    </style>
  </defs>
  <g id="Character_2" data-name="Character 2">
    <g>
      <g>
        <g>
          <g>
            <path class="cls-1" d="M516.04031,324.64582H305.41124a6.83931,6.83931,0,0,1-6.83152-6.83152V11.01357a6.83888,6.83888,0,0,1,6.83152-6.83094H516.04031a6.83889,6.83889,0,0,1,6.83153,6.83094V317.8143A6.83931,6.83931,0,0,1,516.04031,324.64582ZM305.41124,4.474a6.54737,6.54737,0,0,0-6.54019,6.5396V317.8143a6.54742,6.54742,0,0,0,6.54019,6.54019H516.04031a6.54742,6.54742,0,0,0,6.54019-6.54019V11.01357a6.54737,6.54737,0,0,0-6.54019-6.5396Z"/>
            <path class="cls-1" d="M273.153,324.64582H62.52334a6.83882,6.83882,0,0,1-6.83094-6.83152V11.01357a6.83839,6.83839,0,0,1,6.83094-6.83094H273.153a6.83889,6.83889,0,0,1,6.83153,6.83094V317.8143A6.83931,6.83931,0,0,1,273.153,324.64582ZM62.52334,4.474a6.54723,6.54723,0,0,0-6.5396,6.5396V317.8143a6.54729,6.54729,0,0,0,6.5396,6.54019H273.153a6.54743,6.54743,0,0,0,6.5402-6.54019V11.01357A6.54738,6.54738,0,0,0,273.153,4.474Z"/>
          </g>
          <rect class="cls-1" x="-1.274" y="395.8119" width="582.66564" height="0.29133"/>
        </g>
        <rect class="cls-1" x="58.94146" y="412.43477" width="18.71522" height="0.29133"/>
        <rect class="cls-1" x="197.24297" y="409.27672" width="62.38018" height="0.29133"/>
        <rect class="cls-1" x="78.82202" y="423.2607" width="42.24326" height="0.29133"/>
        <rect class="cls-1" x="439.63187" y="409.12523" width="50.33066" height="0.29133"/>
        <rect class="cls-1" x="500.34563" y="409.12523" width="7.37655" height="0.29133"/>
        <rect class="cls-1" x="367.21819" y="416.38524" width="62.7997" height="0.29133"/>
      </g>
      <g>
        <g>
          <rect class="cls-2" x="88.81986" y="20.05911" width="75.48619" height="142.30827"/>
          <rect class="cls-3" x="71.93118" y="20.05911" width="88.67064" height="142.30827"/>
          <rect class="cls-4" x="85.40847" y="32.69922" width="61.67399" height="117.02758"/>
        </g>
        <path class="cls-3" d="M113.61067,59.97382a44.21351,44.21351,0,0,0-7.0961,12.91257c-1.58361,4.58552-2.64781,9.74194-1.99705,14.59527.59885,4.46619,3.06725,8.86247,7.39825,10.62542,4.33526,1.76468,8.89494-.01269,12.35027-2.78222,3.29109-2.63788,7.85361-7.51351,6.19247-12.13483-1.64874-4.58686-7.25351-4.89974-11.05414-3.13-8.765,4.08134-12.7767,14.34627-13.3215,23.415-.56694,9.43743,1.00083,24.88948,12.66376,26.94881,1.888.33336,2.69845-2.55719.79752-2.89284-8.45613-1.4931-10.09249-11.65759-10.46658-18.72284-.42026-7.93728,1.04974-16.44475,6.72986-22.39147,2.30705-2.41535,6.39076-5.6458,9.93712-4.0773,4.42921,1.959.50062,6.9048-1.60831,9.05932-2.52172,2.57622-6.19479,5.126-9.99805,4.2783-3.60872-.80434-5.803-4.2396-6.51038-7.65716-.94321-4.55672.19513-9.59817,1.64282-13.9332A39.97479,39.97479,0,0,1,115.732,62.09514c1.18-1.50137-.9287-3.63874-2.12132-2.12132Z"/>
      </g>
      <g>
        <rect class="cls-2" x="439.79712" y="32.74618" width="64.411" height="82.64028"/>
        <rect class="cls-3" x="425.38641" y="32.74618" width="75.66099" height="82.64028"/>
        <rect class="cls-4" x="432.36231" y="40.08649" width="61.38079" height="67.95944"/>
        <rect class="cls-3" x="452.52464" y="61.80046" width="22.1569" height="24.53174"/>
      </g>
      <g>
        <rect class="cls-2" x="439.79712" y="148.00036" width="64.411" height="82.64028"/>
        <rect class="cls-3" x="425.38641" y="148.00036" width="75.66099" height="82.64028"/>
        <rect class="cls-4" x="432.36231" y="155.34067" width="61.38079" height="67.95956"/>
        <rect class="cls-3" x="452.52464" y="177.05475" width="22.1569" height="24.53174"/>
      </g>
      <g>
        <rect class="cls-5" x="55.6924" y="308.59129" width="154.20024" height="72.42196"/>
        <polygon class="cls-5" points="68.299 377.588 55.692 493.462 63.805 493.462 88.073 377.772 68.299 377.588"/>
        <polygon class="cls-5" points="200.826 377.588 213.433 493.462 205.32 493.462 181.053 377.772 200.826 377.588"/>
        <g>
          <polygon class="cls-1" points="94.632 288.488 101.4 308.591 88.89 308.591 94.632 288.488"/>
          <polygon class="cls-2" points="71.028 308.591 94.632 308.591 101.4 275.761 77.812 275.761 71.028 308.591"/>
          <polygon class="cls-6" points="92.158 305.448 97.635 278.904 80.27 278.904 74.793 305.448 92.158 305.448"/>
        </g>
        <g>
          <path class="cls-1" d="M137.55541,287.05363a22.78364,22.78364,0,0,1,.61424-18.73037c4.94357-9.21147,6.3866-11.48387,3.07042-13.38744-3.31607-1.90368-4.57509,7.43062-4.57509,7.43062a20.78946,20.78946,0,0,1-.46066-13.14191c2.1801-6.72443,3.56195-17.686.55284-18.85284s-.55284,13.66362-3.07054,18.73a44.0927,44.0927,0,0,1-2.54846-11.05375c-.33783-5.40423.21477-14.00158-2.14957-16.21244-2.36422-2.21064-3.86867-.70619-1.56573,11.20745a123.47626,123.47626,0,0,1,2.3028,21.49361s-5.1278-15.62884-8.56693-16.08938c-3.43889-.46066-3.43889,4.60574-.49119,8.99647s8.62812,12.28213,9.58,16.30439c0,0-5.64964-11.75994-10.68539-8.1367-5.03563,3.62313,4.391,10.68551,8.59746,13.2645,4.20662,2.57935,7.15432,18.669,7.15432,18.669Z"/>
          <path class="cls-5" d="M134.14728,290.76894a22.81491,22.81491,0,0,0-.829-18.69949c-5.0664-9.21159-6.50966-11.39169-3.37784-13.32614,3.13218-1.93445,4.66727,7.36932,4.66727,7.36932a21.03323,21.03323,0,0,0,.30718-13.17256c-2.27228-6.69378-3.77672-17.62482-.79848-18.82231,2.97859-1.19761.73707,13.63321,3.37759,18.66872a44.11525,44.11525,0,0,0,2.42564-11.08463c.27642-5.404-.36836-14.00145,1.96533-16.243,2.33346-2.24151,3.86867-.7676,1.68868,11.20746a125.16075,125.16075,0,0,0-2.057,21.4936s4.94334-15.69048,8.38246-16.21244c3.43889-.52183,3.50031,4.57521.58348,8.99671-2.91717,4.42162-8.47475,12.28213-9.21159,16.45809,0,0,5.4654-11.85223,10.56256-8.32116,5.097,3.531-4.26814,10.77745-8.4441,13.38756-4.17573,2.60987-6.9392,18.79143-6.9392,18.79143Z"/>
          <polygon class="cls-1" points="153.553 284.014 118.795 284.014 121.619 308.885 150.759 308.885 153.553 284.014"/>
        </g>
        <path class="cls-1" d="M198.532,303.28355v4.82354H199.31v.778h-36.0515a3.18975,3.18975,0,1,1,0-6.37949H199.31v.778Z"/>
        <path class="cls-7" d="M198.532,303.28355v4.82354H199.31v.778H181.10523a3.18975,3.18975,0,0,1,0-6.37949h18.20469v.778Z"/>
        <path class="cls-6" d="M198.532,303.28355v4.82354H181.10523a2.42741,2.42741,0,0,1-2.47353-2.38019l-.00035-.03158a2.3962,2.3962,0,0,1,2.38043-2.41177H198.532Z"/>
        <path class="cls-1" d="M202.40632,296.90418v4.82342h.778v.778H167.1328a3.18969,3.18969,0,1,1,0-6.37938h36.0515v.778Z"/>
        <path class="cls-8" d="M202.40632,296.90418v4.82342h.778v.778H184.97961a3.18969,3.18969,0,1,1,0-6.37938H203.1843v.778Z"/>
        <path class="cls-6" d="M202.40632,296.90418v4.82342H184.97961a2.4273,2.4273,0,0,1-2.41177-2.41165,2.39622,2.39622,0,0,1,2.38054-2.41177c.01038-.00012.02086-.00012.03123,0Z"/>
        <path class="cls-1" d="M197.53618,290.5248v4.82343h.778v.778H162.26264a3.18969,3.18969,0,0,1,0-6.37937h36.05151v.778Z"/>
        <path class="cls-8" d="M197.53618,290.5248v4.82343h.778v.778H180.1873a3.18969,3.18969,0,1,1,0-6.37937H198.392v.778Z"/>
        <path class="cls-6" d="M197.53618,290.5248v4.82343H180.1873a2.4273,2.4273,0,0,1-2.48891-2.36411l-.00058-.03205a2.39606,2.39606,0,0,1,2.36294-2.4289c.04218-.00058.08437-.00011.12655.00163Z"/>
        <rect class="cls-9" x="64.69389" y="318.11262" width="136.8121" height="37.06208"/>
        <path class="cls-1" d="M140.14559,336.64372a3.97186,3.97186,0,1,1-3.97192-3.97191A3.9719,3.9719,0,0,1,140.14559,336.64372Z"/>
      </g>
      <path class="cls-10" d="M531.6285,493.46189c0,3.91679-108.1544,7.092-241.56968,7.092s-241.56968-3.17518-241.56968-7.092c0-3.91692,108.1544-7.09221,241.56968-7.09221S531.6285,489.545,531.6285,493.46189Z"/>
      <g>
        <g>
          <path class="cls-11" d="M160.75552,442.14932a31.79782,31.79782,0,0,1-22.04527-8.52906q-9.41838-8.529-9.41844-23.85957a31.41448,31.41448,0,0,1,9.10788-22.88793,30.11161,30.11161,0,0,1,22.35583-9.28477,29.20492,29.20492,0,0,1,21.94167,9.28477q8.901,9.28467,8.90092,22.88793,0,15.11475-9.31484,23.75166A30.72564,30.72564,0,0,1,160.75552,442.14932Z"/>
          <path class="cls-11" d="M63.80544,213.83832q0-19.97751,12.29739-40.4807,12.29733-20.50312,35.88405-33.96172,23.58677-13.45415,55.03568-13.45852,29.2314,0,51.60856,11.25045T253.20486,167.785a77.37764,77.37764,0,0,1,12.19648,42.05785q0,17.87449-6.95505,31.33308a95.72619,95.72619,0,0,1-16.5308,23.23694q-9.57589,9.77847-34.37215,32.91035a143.63357,143.63357,0,0,0-10.987,11.4608,46.61292,46.61292,0,0,0-6.14864,9.04239,45.5281,45.5281,0,0,0-3.12483,8.20125q-1.10876,4.10062-3.32632,14.40489-3.83022,21.87444-23.98986,21.87a23.98157,23.98157,0,0,1-17.63962-7.14977q-7.15665-7.14548-7.15665-21.23922,0-17.66438,5.24143-30.59717A78.15521,78.15521,0,0,1,154.322,280.60516a325.4825,325.4825,0,0,1,23.38517-23.23694q12.90214-11.77626,18.64763-17.76944a60.08272,60.08272,0,0,0,9.67656-13.35342,33.38687,33.38687,0,0,0,3.93113-15.98193,37.90223,37.90223,0,0,0-11.99487-28.3891q-11.99509-11.56143-30.945-11.56592-22.17562,0-32.65853,11.67115-10.48308,11.671-17.74042,34.38228-6.85442,23.767-26.00588,23.76262A25.04948,25.04948,0,0,1,71.5669,231.8181Q63.80544,223.51161,63.80544,213.83832Z"/>
        </g>
        <g class="cls-12">
          <path d="M160.75552,442.14932a31.79782,31.79782,0,0,1-22.04527-8.52906q-9.41838-8.529-9.41844-23.85957a31.41448,31.41448,0,0,1,9.10788-22.88793,30.11161,30.11161,0,0,1,22.35583-9.28477,29.20492,29.20492,0,0,1,21.94167,9.28477q8.901,9.28467,8.90092,22.88793,0,15.11475-9.31484,23.75166A30.72564,30.72564,0,0,1,160.75552,442.14932Z"/>
          <path d="M63.80544,213.83832q0-19.97751,12.29739-40.4807,12.29733-20.50312,35.88405-33.96172,23.58677-13.45415,55.03568-13.45852,29.2314,0,51.60856,11.25045T253.20486,167.785a77.37764,77.37764,0,0,1,12.19648,42.05785q0,17.87449-6.95505,31.33308a95.72619,95.72619,0,0,1-16.5308,23.23694q-9.57589,9.77847-34.37215,32.91035a143.63357,143.63357,0,0,0-10.987,11.4608,46.61292,46.61292,0,0,0-6.14864,9.04239,45.5281,45.5281,0,0,0-3.12483,8.20125q-1.10876,4.10062-3.32632,14.40489-3.83022,21.87444-23.98986,21.87a23.98157,23.98157,0,0,1-17.63962-7.14977q-7.15665-7.14548-7.15665-21.23922,0-17.66438,5.24143-30.59717A78.15521,78.15521,0,0,1,154.322,280.60516a325.4825,325.4825,0,0,1,23.38517-23.23694q12.90214-11.77626,18.64763-17.76944a60.08272,60.08272,0,0,0,9.67656-13.35342,33.38687,33.38687,0,0,0,3.93113-15.98193,37.90223,37.90223,0,0,0-11.99487-28.3891q-11.99509-11.56143-30.945-11.56592-22.17562,0-32.65853,11.67115-10.48308,11.671-17.74042,34.38228-6.85442,23.767-26.00588,23.76262A25.04948,25.04948,0,0,1,71.5669,231.8181Q63.80544,223.51161,63.80544,213.83832Z"/>
        </g>
        <g>
          <path class="cls-11" d="M160.75552,433.66769a31.79782,31.79782,0,0,1-22.04527-8.52906q-9.41838-8.529-9.41844-23.85958a31.41447,31.41447,0,0,1,9.10788-22.88792,30.11161,30.11161,0,0,1,22.35583-9.28477,29.20492,29.20492,0,0,1,21.94167,9.28477q8.901,9.28467,8.90092,22.88792,0,15.11459-9.31484,23.75167A30.72564,30.72564,0,0,1,160.75552,433.66769Z"/>
          <path class="cls-11" d="M63.80544,205.35668q0-19.9775,12.29739-40.48069,12.29733-20.50331,35.88405-33.96172,23.58677-13.45414,55.03568-13.45852,29.2314,0,51.60856,11.25045t34.57374,30.59706a77.37775,77.37775,0,0,1,12.19648,42.058q0,17.87449-6.95505,31.33308a95.72619,95.72619,0,0,1-16.5308,23.23694q-9.57589,9.77847-34.37215,32.91035a143.63459,143.63459,0,0,0-10.987,11.46068,46.61335,46.61335,0,0,0-6.14864,9.04251,45.5281,45.5281,0,0,0-3.12483,8.20125q-1.10876,4.10062-3.32632,14.40478-3.83022,21.8746-23.98986,21.87012a23.98154,23.98154,0,0,1-17.63962-7.14978q-7.15665-7.14546-7.15665-21.23932,0-17.66421,5.24143-30.59706A78.15527,78.15527,0,0,1,154.322,272.12352a325.48265,325.48265,0,0,1,23.38517-23.23693q12.90214-11.77626,18.64763-17.76944a60.08525,60.08525,0,0,0,9.67656-13.35342,33.38687,33.38687,0,0,0,3.93113-15.98193,37.90223,37.90223,0,0,0-11.99487-28.3891q-11.99509-11.56161-30.945-11.56592-22.17562,0-32.65853,11.671-10.48308,11.671-17.74042,34.38228-6.85442,23.76717-26.00588,23.76274a25.04984,25.04984,0,0,1-19.05083-8.30637Q63.80544,215.03,63.80544,205.35668Z"/>
        </g>
      </g>
      <g>
        <g>
          <path class="cls-11" d="M445.1087,52.56812a28.50089,28.50089,0,0,0-40.92131,38.317l-2.304,8.249,8.99682-.97492c.1262.09649.23761.2051.366.29972A28.51594,28.51594,0,0,0,445.1087,52.56812Z"/>
          <path class="cls-13" d="M445.1087,52.56812a28.50089,28.50089,0,0,0-40.92131,38.317l-2.304,8.249,8.99682-.97492c.1262.09649.23761.2051.366.29972A28.51594,28.51594,0,0,0,445.1087,52.56812Z"/>
          <path class="cls-14" d="M448.17259,50.72363a28.26633,28.26633,0,0,1,12.117,23.75179"/>
          <path class="cls-14" d="M460.0134,78.72107a10.31856,10.31856,0,0,1-.67775,4.15732"/>
        </g>
        <path class="cls-11" d="M426.32683,76.91352a15.95748,15.95748,0,0,1,2.09922-2.69984,13.65719,13.65719,0,0,0,1.48556-1.818,3.01834,3.01834,0,0,0,.47558-1.67482,2.62858,2.62858,0,0,0-.90407-2.10552,3.571,3.571,0,0,0-2.40489-.77378,4.70621,4.70621,0,0,0-2.55872.70223,5.84348,5.84348,0,0,0-1.88422,1.96126l-3.70774-2.55546a9.18146,9.18146,0,0,1,3.47782-3.56451,10.239,10.239,0,0,1,5.19341-1.26008,8.57992,8.57992,0,0,1,5.65279,1.76443,6.01007,6.01007,0,0,1,2.12906,4.89637,7.43812,7.43812,0,0,1-.41358,2.5917,7.09771,7.09771,0,0,1-1.011,1.88958q-.59641.77438-1.54651,1.783a14.378,14.378,0,0,0-1.65465,1.9975,3.55078,3.55078,0,0,0-.52149,1.9623h-4.62578A6.03571,6.03571,0,0,1,426.32683,76.91352Zm-.48944,10.91193a2.84718,2.84718,0,0,1-.84324-2.079,2.76883,2.76883,0,0,1,.82715-2.04632,3.13018,3.13018,0,0,1,4.22817,0,2.76893,2.76893,0,0,1,.82727,2.04632,2.96,2.96,0,0,1-5.03935,2.079Z"/>
      </g>
      <g>
        <g>
          <path class="cls-11" d="M177.0366,47.62618a28.501,28.501,0,0,0,41.40981,37.78867l8.40437,1.64952-1.67784-8.89264c.08623-.13331.18575-.25288.27012-.38829A28.516,28.516,0,0,0,177.0366,47.62618Z"/>
          <path class="cls-13" d="M177.0366,47.62618a28.501,28.501,0,0,0,41.40981,37.78867l8.40437,1.64952-1.67784-8.89264c.08623-.13331.18575-.25288.27012-.38829A28.516,28.516,0,0,0,177.0366,47.62618Z"/>
          <path class="cls-14" d="M174.95741,44.71647a28.26594,28.26594,0,0,1,22.72781-13.94331"/>
          <path class="cls-14" d="M201.93949,30.71525a10.3175,10.3175,0,0,1,4.19764.34959"/>
        </g>
        <path class="cls-11" d="M200.41256,63.71078a15.95318,15.95318,0,0,1,2.09911-2.69984,13.63877,13.63877,0,0,0,1.48556-1.818,3.01744,3.01744,0,0,0,.47569-1.67481,2.62811,2.62811,0,0,0-.90418-2.10552,3.57,3.57,0,0,0-2.40477-.77378,4.7059,4.7059,0,0,0-2.55872.70223,5.84347,5.84347,0,0,0-1.88423,1.96125l-3.70785-2.55546a9.18172,9.18172,0,0,1,3.47793-3.56451,10.2371,10.2371,0,0,1,5.1933-1.26007,8.5801,8.5801,0,0,1,5.65291,1.76442,6.00984,6.00984,0,0,1,2.12906,4.89626,7.43856,7.43856,0,0,1-.41358,2.59181,7.10477,7.10477,0,0,1-1.011,1.88959q-.5966.77436-1.54663,1.78284a14.384,14.384,0,0,0-1.65453,1.99749,3.55056,3.55056,0,0,0-.52149,1.96242h-4.62589A6.03442,6.03442,0,0,1,200.41256,63.71078Zm-.48944,10.91182a2.84629,2.84629,0,0,1-.84323-2.07884,2.76884,2.76884,0,0,1,.82715-2.04632,3.12984,3.12984,0,0,1,4.22817,0,2.76937,2.76937,0,0,1,.82727,2.04632,2.96006,2.96006,0,0,1-5.03936,2.07884Z"/>
      </g>
      <g>
        <g>
          <g>
            <path class="cls-15" d="M466.18092,446.39264c-.02063-.64862-2.2034-65.06988-12.68219-75.25942-10.19163-9.90753-21.889-.36836-22.38088.0416l-1.05055-1.25891c.13238-.112,13.33349-10.88781,24.575.0416,10.94934,10.64752,13.09157,73.70441,13.1771,76.38374Z"/>
            <path class="cls-15" d="M467.08044,459.05315c-.07552-.77005-7.16155-77.33826,20.80081-109.42927L489.11778,350.7c-27.49913,31.55973-20.47893,107.43119-20.40552,108.19308Z"/>
            <path class="cls-15" d="M466.04667,450.954l-1.63694-.109c.05757-.86794,5.47275-87.04733-15.03825-105.91241l1.10975-1.20775C471.56719,363.12052,466.28184,447.3763,466.04667,450.954Z"/>
            <path class="cls-15" d="M468.71645,450.906l-1.64021-.01294c.02016-2.37354.67683-58.21027,16.53745-67.29928,3.526-2.02278,6.97835-2.359,10.26249-1.00125,9.59033,3.96737,14.34314,21.03575,14.54077,21.75988l-1.58217.43234c-.04661-.17025-4.73917-17.01885-13.58741-20.67694-2.78886-1.15146-5.75511-.84719-8.81829.90814C469.37859,393.64054,468.72134,450.33437,468.71645,450.906Z"/>
            <path class="cls-15" d="M462.53961,450.94594l-1.63648-.09264c.02472-.44085,2.39278-44.12446-9.39665-59.51592-2.85656-3.72848-5.9574-5.50619-9.23338-5.27685-7.72452.53943-14.20213,11.84338-14.26645,11.95746l-1.42847-.80722c.28121-.49678,6.97346-12.18354,15.57792-12.7859,3.84968-.27374,7.43808,1.72,10.65241,5.9165C464.96792,406.21482,462.64472,449.12814,462.53961,450.94594Z"/>
            <path class="cls-15" d="M465.12489,456.88808c-.321-4.23808-7.70691-103.98274,5.28851-121.55862l1.318.97352c-12.63592,17.09086-5.049,119.42863-4.97142,120.45994Z"/>
          </g>
          <path class="cls-11" d="M499.7632,388.10032s-8.29355,3.06471-5.47811,9.65932c7.93311,18.58144,26.84213,20.56157,26.84213,20.56157s8.87283-14.04621,1.60011-24.95569C512.70024,378.32506,499.97389,383.24439,499.7632,388.10032Z"/>
          <path class="cls-11" d="M463.51883,379.78534s8.30171-.34774,8.77367,6.80716c.47172,7.15444-17.9849,26.9484-17.9849,26.9484s-13.17093-4.76154-10.342-22.6157C446.79471,373.0714,461.45585,375.38446,463.51883,379.78534Z"/>
          <path class="cls-11" d="M467.54377,338.09025a6.36047,6.36047,0,0,1-4.7979-3.56661c-3.91132-9.3596,9.53-19.45206,27.50135-14.11951,0,0,.47582,15.81436-9.19493,22.05192C471.38109,348.6936,467.54377,338.09025,467.54377,338.09025Z"/>
          <path class="cls-11" d="M436.74616,387.13415s2.89294-3.96679-1.47857-4.35566c-4.37149-.38876-23.29462,8.091-18.31877,27.5017,0,0,24.33946-7.93894,25.18362-16.06572C442.97673,386.0878,436.74616,387.13415,436.74616,387.13415Z"/>
          <path class="cls-11" d="M488.639,345.03434a8.63411,8.63411,0,0,1,5.21555-5.10718c4.12236-1.50538,19.4368-.56041,19.64761,19.47641,0,0-23.55868,3.91552-26.47458-3.71694C484.11164,348.05441,488.639,345.03434,488.639,345.03434Z"/>
          <path class="cls-11" d="M475.92274,361.68448a3.44222,3.44222,0,0,1,4.61051-1.27662c3.02683,1.46925,11.95048,10.65159,3.44111,21.73564,0,0-15.81191-9.507-14.51978-16.17946C470.64577,359.81424,475.92274,361.68448,475.92274,361.68448Z"/>
          <path class="cls-11" d="M437.18375,366.51781s2.28336-2.99223-1.06057-3.36338c-3.34427-.3707-18.33136,3.62977-14.841,18.59064,0,0,18.25818-1.37206,19.0407-7.587C441.10532,367.94289,437.18375,366.51781,437.18375,366.51781Z"/>
          <polygon class="cls-15" points="489.389 490.925 444.763 490.925 439.949 444.748 494.204 444.748 489.389 490.925"/>
          <rect class="cls-15" x="432.44446" y="438.42143" width="69.26403" height="12.65258"/>
        </g>
        <path class="cls-16" d="M452.67683,406.94606c-1.3681-9.73168,3.55706-20.565,10.842-27.16072"/>
        <path class="cls-16" d="M475.92274,362.233a27.16526,27.16526,0,0,1,7.44123,13.85928"/>
        <path class="cls-16" d="M499.7632,388.10032a39.4061,39.4061,0,0,1,18.22135,17.82479"/>
        <path class="cls-16" d="M488.639,345.03434c3.89968-1.11779,7.42118.07668,11.21142,1.52251A19.06655,19.06655,0,0,1,509.104,354.136"/>
        <path class="cls-11" d="M455.59575,348.41031s5.52751.65981,5.84775-2.72548c.32058-3.38541-18.27228-16.55959-33.52949-5.66794,0,0,4.69686,15.10817,15.87145,17.85847C454.95994,360.626,455.59575,348.41031,455.59575,348.41031Z"/>
        <path class="cls-16" d="M455.42468,348.68637c-5.81326-7.81284-20.08168-10.3514-24.94089-8.591"/>
        <path class="cls-16" d="M437.351,366.78816c-4.74336,1.76245-9.80917,4.80431-12.44259,9.12548"/>
        <path class="cls-16" d="M419.54984,402.91238a35.28992,35.28992,0,0,1,17.3216-16.01013"/>
        <path class="cls-16" d="M468.2756,337.71315a25.6884,25.6884,0,0,1,15.29451-13.41355"/>
        <polygon class="cls-17" points="440.609 451.074 441.473 459.364 492.68 459.364 493.545 451.064 440.609 451.074"/>
      </g>
      <g>
        <g>
          <polygon class="cls-15" points="291.647 447.218 296.19 480.55 307.053 481.098 310.57 448.966 291.647 447.218"/>
          <path class="cls-15" d="M316.30149,496.02445H292.00422s-.53011-1.02048.07563-3.73733c.09241-.42337.213-.88857.37-1.3956.0084-.02553.01375-.0507.02238-.07575.22712-.75152.48792-1.67668.76538-2.6749,1.11278-4.06759,2.42214-9.38267,2.42214-9.38267s4.04242-8.65456,8.77192-6.49311c4.14928,1.89518,3.16492,7.31968,3.16492,7.31968a10.66856,10.66856,0,0,0,3.55228,5.994c1.9454,1.73529,3.87985,3.07822,4.81061,5.237a6.78529,6.78529,0,0,1,.40926,1.29783c.01119.056.02272.1149.031.17352A10.0847,10.0847,0,0,1,316.30149,496.02445Z"/>
          <path class="cls-18" d="M292.07985,492.28712c-.60574,2.71685-.07563,3.73733-.07563,3.73733h24.29727a10.0847,10.0847,0,0,0,.09824-3.73733Z"/>
          <path class="cls-11" d="M306.6184,480.94728a3.26733,3.26733,0,0,0-4.38886.27222c-.3305.32233-.838-.18424-.50692-.507a4.00049,4.00049,0,0,1,5.40282-.27233c.3637.2834-.14707.78776-.507.50715Z"/>
          <path class="cls-11" d="M307.30443,483.21641a3.26745,3.26745,0,0,0-4.38887.27222c-.33049.32257-.8381-.18412-.50715-.50692a4.0012,4.0012,0,0,1,5.40317-.27234c.36359.28318-.14729.7873-.50715.507Z"/>
          <path class="cls-11" d="M307.99327,485.30282a3.26739,3.26739,0,0,0-4.389.2721c-.33025.32257-.838-.18412-.5068-.507a4.00075,4.00075,0,0,1,5.40272-.27234c.36392.28353-.14683.78765-.50692.50727Z"/>
        </g>
        <g>
          <polygon class="cls-15" points="246.043 445.132 241.5 478.463 230.637 479.012 227.12 446.88 246.043 445.132"/>
          <path class="cls-15" d="M221.38818,493.93816h24.29727s.53011-1.02048-.07563-3.73722c-.09242-.42337-.21291-.88857-.36988-1.39572-.00851-.0254-.01387-.05069-.02238-.07574-.227-.75153-.48792-1.67668-.76538-2.67491C243.33928,481.987,242.03,476.672,242.03,476.672s-4.04253-8.65457-8.77191-6.49311c-4.1494,1.89506-3.165,7.31968-3.165,7.31968a10.66874,10.66874,0,0,1-3.55228,5.99388c-1.9454,1.73529-3.87985,3.07834-4.8106,5.237a6.80994,6.80994,0,0,0-.40927,1.29771c-.011.05617-.02272.115-.03088.17375A10.086,10.086,0,0,0,221.38818,493.93816Z"/>
          <path class="cls-18" d="M245.60982,490.20094c.60574,2.71674.07563,3.73722.07563,3.73722H221.38818a10.086,10.086,0,0,1-.09813-3.73722Z"/>
          <path class="cls-11" d="M231.07138,478.8611a3.267,3.267,0,0,1,4.38875.27222c.33049.32233.83811-.18424.50715-.50715a4.00081,4.00081,0,0,0-5.40306-.27222c-.3637.28329.14718.78753.50716.50715Z"/>
          <path class="cls-11" d="M230.38523,481.13023a3.26736,3.26736,0,0,1,4.389.27223c.3306.32256.838-.18413.507-.507a4.001,4.001,0,0,0-5.40307-.27222c-.36358.28306.14718.7873.507.507Z"/>
          <path class="cls-11" d="M229.69652,483.21653a3.26726,3.26726,0,0,1,4.389.27222c.33013.32245.83787-.18412.50691-.507a4.0009,4.0009,0,0,0-5.40282-.27234c-.36405.28341.14683.78754.50692.50716Z"/>
        </g>
        <g>
          <path class="cls-15" d="M315.44066,228.40764,264.9112,231.4192,233.999,226.08059s-2.09865,35.302-4.73952,119.18507c-.57614,18.29255-5.41005,127.03276-5.41005,127.03276l27.173,2.76883s13.49663-112.78239,15.55939-122.631c1.24072-5.92408,5.87268-50.40116,9.55466-71.66286,1.78354,17.73133,3.25617,60.52661,4.604,72.039,0,0,6.74517,92.554,7.70087,118.8089l25.32882-1.25774c3.125-36.04463,4.18575-167.33959,4.18575-167.33959l-.0042-.002C319.70461,275.52384,315.44066,228.40764,315.44066,228.40764Z"/>
          <path class="cls-19" d="M315.44066,228.40764,264.9112,231.4192,233.999,226.08059s-2.09865,35.302-4.73952,119.18507c-.57614,18.29255-5.41005,127.03276-5.41005,127.03276l27.173,2.76883s13.49663-112.78239,15.55939-122.631c1.24072-5.92408,5.87268-50.40116,9.55466-71.66286,1.78354,17.73133,3.25617,60.52661,4.604,72.039,0,0,6.74517,92.554,7.70087,118.8089l25.32882-1.25774c3.125-36.04463,4.18575-167.33959,4.18575-167.33959l-.0042-.002C319.70461,275.52384,315.44066,228.40764,315.44066,228.40764Z"/>
        </g>
        <g>
          <g>
            <path class="cls-11" d="M254.21858,109.61307c4.69361-.29169,16.75479-2.76091,34.09317-.9149,9.024.96081,16.394.75,25.65232,5.00206l4.57754,111.12716c.06933,9.18328-1.405,10.46864-1.405,10.46864s.265,5.21439.28469,5.37579c-30.471,11.77625-65.56469,11.0076-84.97409-1.08737.45762.07621,0-3.7667,0-3.7667s-2.92592-2.96542-1.92408-12.40321c3.34252-31.48876,10.66779-82.24267,15.86435-110.5615C246.52542,112.154,253.5075,109.65735,254.21858,109.61307Z"/>
            <path class="cls-17" d="M254.21858,109.61307c4.69361-.29169,16.75479-2.76091,34.09317-.9149,9.024.96081,16.394.75,25.65232,5.00206l4.57754,111.12716c.06933,9.18328-1.405,10.46864-1.405,10.46864s.265,5.21439.28469,5.37579c-30.471,11.77625-65.56469,11.0076-84.97409-1.08737.45762.07621,0-3.7667,0-3.7667s-2.92592-2.96542-1.92408-12.40321c3.34252-31.48876,10.66779-82.24267,15.86435-110.5615C246.52542,112.154,253.5075,109.65735,254.21858,109.61307Z"/>
          </g>
          <path class="cls-17" d="M310.633,119.7821c-1.20216,0-6.09433,11.34776-9.21964,25.10881-3.1253,13.76116-11.172,39.65937-11.172,39.65937l-48.00931,7.574-2.75694,22.88664s64.07131,5.86826,71.524-2.159c7.45276-8.02727,5.41995-9.5718,8.124-23.84058,2.4113-12.72437,3.69025-44.67973,3.31117-53.16206C321.89321,123.74725,312.29182,119.81461,310.633,119.7821Z"/>
        </g>
        <g>
          <path class="cls-20" d="M220.6983,192.12423s-6.15936,9.318-2.0532,11.687c4.10628,2.36889,19.4996,6.47517,19.4996,6.47517v-17.448Z"/>
          <g>
            <path class="cls-11" d="M313.558,113.51774c-1.20216,0-7.858,12.35007-10.98325,26.11111s-9.61643,46.55825-9.61643,46.55825l-54.81357,6.65125v19.72416s66.11286,4.58709,73.56562-3.44029c7.45276-8.02727,7.63362-12.10651,10.33765-26.37529,2.4113-12.72449,3.69026-44.67974,3.31117-53.16207C324.8182,117.4829,315.2168,113.55026,313.558,113.51774Z"/>
            <path class="cls-17" d="M313.558,113.51774c-1.20216,0-7.858,12.35007-10.98325,26.11111s-9.61643,46.55825-9.61643,46.55825l-54.81357,6.65125v19.72416s66.11286,4.58709,73.56562-3.44029c7.45276-8.02727,7.63362-12.10651,10.33765-26.37529,2.4113-12.72449,3.69026-44.67974,3.31117-53.16207C324.8182,117.4829,315.2168,113.55026,313.558,113.51774Z"/>
          </g>
          <g class="cls-12">
            <path d="M302.76582,128.83107a16.963,16.963,0,0,1,14.63329-12.03992c.47772-.03894.48189-.78928,0-.75a17.73434,17.73434,0,0,0-15.3565,12.59054.37532.37532,0,0,0,.72321.19938Z"/>
          </g>
        </g>
        <g>
          <path class="cls-20" d="M257.92655,106.32066s.8733,2.666.24519,3.52769a2.79707,2.79707,0,0,1-1.396,1.06138s1.344,1.9975.81153,3.26258c0,0,2.016,2.26377.81166,3.79513a1.70444,1.70444,0,0,1-2.94922,0c-.41882-.66575-2.23336,4.03706-4.53664,3.01728-2.30316-1.01978-.0698-3.74969.62823-4.74838l-2.23347.33294s-3.28029,7.32411-5.72306,7.657-9.131-.35752-9.73028-3.2416c0,0,10.4409-19.091,11.166-19.506.53349-.30544,6.72046-1.65944,9.95181-2.35351A2.87021,2.87021,0,0,1,258.026,100.399c1.02969,1.68169,2.27123,4.11233,1.35062,4.81491l-1.45,1.10672"/>
          <path class="cls-17" d="M233.07015,122.57376c-.56588.80979-17.57669,53.46261-14.74726,63.17984,2.82942,9.71735,7.07356,13.22639,14.147,11.87671,7.07356-1.34957,10.75181-3.50905,11.60064-12.41649.84883-8.90756,6.85331-58.33614,2.70613-60.9107C244.78546,123.06693,233.07015,122.57376,233.07015,122.57376Z"/>
          <g>
            <path class="cls-11" d="M230.31414,120.5067c-.56588.80979-17.5768,53.4626-14.74738,63.17983,2.82942,9.71735,7.07356,13.2264,14.14712,11.87671,7.07345-1.34957,10.7517-3.509,11.60052-12.41649.84883-8.90756,8.05769-58.44684,5.8882-59.33342C245.033,122.92663,230.31414,120.5067,230.31414,120.5067Z"/>
            <path class="cls-17" d="M230.31414,120.5067c-.56588.80979-17.5768,53.4626-14.74738,63.17983,2.82942,9.71735,7.07356,13.2264,14.14712,11.87671,7.07345-1.34957,10.7517-3.509,11.60052-12.41649.84883-8.90756,8.05769-58.44684,5.8882-59.33342C245.033,122.92663,230.31414,120.5067,230.31414,120.5067Z"/>
          </g>
        </g>
        <g>
          <path class="cls-20" d="M288.84023,112.51626s-7.91505,6.7179-9.98037,7.22948c-2.77675.68778-11.38155-8.59385-11.38155-8.59385,3.41547-4.43514,1.76-7.84152.99495-12.9452l21.768-21.02328s-2.268-.0529-2.28008,0c-.55552,1.82771-.68685,12.90267-.28667,26.91076Z"/>
          <g>
            <g class="cls-21">
              <path d="M279.52736,97.17234c-1.82747,3.56673-5.86313,6.32577-9.91906,7.43-.03147-.3778-.17853-.92027-.226-1.29189-.07261-.58535-.295-1.45247-.41195-2.05774-.1501-.74139-.3362-1.541-.56379-2.29034-.11035-.29239-.22025-.21862-.3306-.51089l-.2269-.60107,11.30383-7.274C280.33692,91.05738,280.99638,94.27917,279.52736,97.17234Z"/>
            </g>
            <path class="cls-20" d="M288.68057,62.69578A19.09683,19.09683,0,0,0,260.811,45.98493c-13.14913,6.72012-13.26111,27.55216-9.18828,39.80271,4.52451,13.61083,22.26249,18.49975,31.91,6.83466,6.41352-7.75481,5.49757-15.92938,5.14785-29.92652Z"/>
          </g>
          <path class="cls-15" d="M269.15557,71.24838c.223,1.41273-.34739,2.66873-1.27371,2.80577-.92621.13692-1.858-.89766-2.08082-2.3105-.22292-1.41274.34739-2.669,1.27359-2.80566C268.00084,68.80107,268.93253,69.83542,269.15557,71.24838Z"/>
          <path class="cls-15" d="M254.78866,72.69561c.22328,1.41284-.34692,2.66895-1.273,2.80576-.92644.13681-1.858-.89742-2.08117-2.31038-.223-1.41273.34715-2.66884,1.27347-2.80577C253.6344,70.24864,254.56609,71.28276,254.78866,72.69561Z"/>
          <path class="cls-22" d="M260.167,70.20226s-3.365,7.7251-4.34774,10.80973c2.24664,1.46611,5.50491.11281,5.50491.11281Z"/>
          <path class="cls-15" d="M270.6409,63.82778a.67539.67539,0,0,1-.6717.09579,5.27423,5.27423,0,0,0-4.84824.2763.67782.67782,0,0,1-.93635-.16559.66362.66362,0,0,1,.16478-.92725,6.71189,6.71189,0,0,1,6.12149-.41719.66542.66542,0,0,1,.37348.86712A.65608.65608,0,0,1,270.6409,63.82778Z"/>
          <path class="cls-15" d="M250.538,69.39224a.676.676,0,0,1-.03612-1.18456,6.59606,6.59606,0,0,1,6.06765-.3954.67784.67784,0,0,1,.29237.905.66153.66153,0,0,1-.89112.29355,5.14281,5.14281,0,0,0-4.80233.36486A.66166.66166,0,0,1,250.538,69.39224Z"/>
          <path class="cls-15" d="M284.54843,71.15807s-2.10657-23.70471-9.51318-24.60224-8.539,6.00064-13.38954,6.18476c-4.85058.184-4.77984-3.40382-4.77984-3.40382-2.82418,2.01754-4.72659,7.79537-6.6974,12.25661,0,0,1.00312-13.02,6.14911-16.99135,10.01439-7.72917,24.07935-6.31062,30.445-.42733,6.25281,5.77923,6.324,18.30969,6.324,18.30969-.63056,9.62016-1.34153,15.02042-5.07211,21.19225Z"/>
          <g>
            <path class="cls-20" d="M294.78679,71.41153a13.62314,13.62314,0,0,1-5.48509,8.95324c-3.93614,2.79516-6.26517-1.62354-6.57165-6.19654-.27549-4.11583.12923-9.24643,4.7535-10.22578C292.03941,62.97791,295.43041,66.99247,294.78679,71.41153Z"/>
            <path class="cls-23" d="M290.89389,67.97007a2.638,2.638,0,0,0-2.89911-.488,4.548,4.548,0,0,0-2.15994,2.17742,7.25043,7.25043,0,0,0-.79965,3.62826"/>
          </g>
          <path class="cls-15" d="M281.04952,51.705c-1.06022-3.22424-3.18939-6.25643-6.30082-7.61194a14.7468,14.7468,0,0,0-4.68161-1.01408c-4.25288-.35682-1.43487-1.78272-5.68833-1.43848l-3.97134.991a60.80981,60.80981,0,0,0-11.16026,6.3711,41.577,41.577,0,0,1-13.70441,7.00993c-.83845.24612-1.83551.62252-1.98631,1.483-.15265.87085.68662,1.57448,1.46133,2.00087a16.17071,16.17071,0,0,0,16.21861-.56518c-1.08049,3.16853-7.267,4.71236-4.98517,4.94881a20.09608,20.09608,0,0,0,19.28845-6.62724,6.75328,6.75328,0,0,0,.3602,2.732,2.30187,2.30187,0,0,0,2.12488,1.4999,2.83334,2.83334,0,0,0,1.8397-1.17325c1.67819-2.02826,2.28976-4.70783,2.85051-7.27994,2.98721,3.15385,7.45171,14.97462,10.88816,17.63181C289.49363,62.80253,282.11,54.92908,281.04952,51.705Z"/>
          <path class="cls-15" d="M263.83713,85.80659a5.50424,5.50424,0,0,1,4.92325-.2389c.43627.19767.818-.44849.37854-.6476a6.29515,6.29515,0,0,0-5.68033.23889.37528.37528,0,0,0,.37854.64761Z"/>
          <path class="cls-15" d="M280.95222,40.88726a13.545,13.545,0,0,0-1.68649-4.08741,1.12518,1.12518,0,1,0-1.94281,1.13561c.17943.289.34833.58429.50412.88673q.12459.24189.2385.48908.04271.09266.08388.186.02745.06223.05422.12477-.10343-.24668-.03465-.08049a13.42184,13.42184,0,0,1,.6136,1.94382,1.13444,1.13444,0,0,0,1.38389.78574,1.14975,1.14975,0,0,0,.78574-1.38388Z"/>
          <path class="cls-15" d="M282.27812,43.85179a3.59887,3.59887,0,0,1,.0495-.809c-.02145.08523-.026.16645-.00282.03152.01017-.05917.01962-.11844.03056-.17749q.03688-.19926.08512-.39618a7.34513,7.34513,0,0,1,.23545-.77555q.03089-.08469.06382-.16859c.04312-.10986.07244-.16084.00793-.02249.05721-.12269.11277-.24565.17418-.36637a7.5011,7.5011,0,0,1,.38171-.66409q.10991-.17043.22927-.33448c.01456-.02.13327-.17621.04748-.06612-.09579.12294.06172-.07414.08093-.09712a7.2,7.2,0,0,1,.52094-.56038q.14571-.14084.29927-.27319c.05689-.049.11634-.095.1732-.144.12738-.10965-.21051.15648.02248-.01634a1.15337,1.15337,0,0,0,.40359-1.53921,1.13714,1.13714,0,0,0-1.53921-.4036,8.5616,8.5616,0,0,0-3.5134,6.78268,1.125,1.125,0,0,0,2.25,0Z"/>
        </g>
      </g>
      <g>
        <g>
          <path class="cls-15" d="M384.67136,137.26428s7.19161.63336,11.9676,8.8747c4.77588,8.24122,9.45853,14.98418,9.45853,14.98418L390.64927,171.4248Z"/>
          <path class="cls-13" d="M384.67136,137.26428s7.19161.63336,11.9676,8.8747c4.77588,8.24122,9.45853,14.98418,9.45853,14.98418L390.64927,171.4248Z"/>
        </g>
        <path class="cls-15" d="M393.6493,208.39657c-1.72224-1.1531-3.92227-1.2405-5.99493-1.26136a227.40846,227.40846,0,0,0-46.23673,4.28061l-2.66977,1.316c-2.10681-1.22429-4.92318-.39831-6.6953,1.27394-1.772,1.67237-2.73876,4.00373-3.65063,6.26308-7.88475,19.534-15.3903,39.27562-20.72145,59.65517-1.234,4.717-2.2929,9.97757.0268,14.2661,2.70754,5.00452,8.92737,6.76568,14.52935,7.76169,18.29967,3.25349,36.98913,3.45474,55.57534,3.49308,4.51741.00921,9.3469-.0825,13.06954-2.642,5.212-3.58386,6.44825-10.64006,7.05551-16.93622a324.28366,324.28366,0,0,0-.70667-69.199C396.86527,213.58369,396.23,210.12417,393.6493,208.39657Z"/>
        <g>
          <polygon class="cls-24" points="376.103 481.76 388.961 483.019 398.463 450.467 378.903 448.338 376.103 481.76"/>
          <g>
            <path class="cls-15" d="M390.82279,477.342h-4.59035a3.2587,3.2587,0,0,0-2.61326,1.36343c-2.64717,3.61509-4.6365,2.24863-7.51579-1.15006-1.83028-.21337-2.32322,1.88725-2.4725,2.45185l-3.43155,12.48233a1.96308,1.96308,0,0,0,1.91814,2.50267H408.486c5.78437,0,6.983-5.82922,4.60049-6.36854-10.71428-2.36772-18.30106-5.52064-21.61281-8.63743C390.85962,479.44062,391.49029,479.03217,390.82279,477.342Z"/>
            <path class="cls-11" d="M400.78369,480.89134a1.87284,1.87284,0,0,0,.77914-1.49861.83923.83923,0,0,0-.37442-.80921c-1.43872-1.019-7.17786,1.66339-7.82228,1.978a.25475.25475,0,0,0,0,.47954,20.83866,20.83866,0,0,0,4.30077.55446A5.1254,5.1254,0,0,0,400.78369,480.89134Zm.045-1.87327a.32984.32984,0,0,1,.15.34471,1.49844,1.49844,0,0,1-.56949,1.09389c-1.30366.9741-4.45064.55435-6.14386.23971C396.64793,479.64747,400.0345,478.46372,400.82867,479.01807Z"/>
            <path class="cls-11" d="M393.561,481.1011c1.72329-.71924,5.33465-3.55146,5.13981-5.05-.02983-.31464-.25474-.68941-1.03388-.79418-3.14675-.35962-4.4955,5.28968-4.4955,5.5295a.25465.25465,0,0,0,.07493.26966.31691.31691,0,0,0,.17981,0Zm4.00105-5.37963c.5843.05989.5843.26965.5843.3447.16489.914-2.45746,3.26654-4.33073,4.25579.38969-1.31869,1.54373-4.61553,3.53655-4.61553Z"/>
            <path class="cls-14" d="M394.00939,480.88435a5.56378,5.56378,0,0,0-3.89815,2.51106"/>
            <path class="cls-14" d="M396.86235,483.03171a5.56319,5.56319,0,0,0-3.89826,2.51105"/>
            <path class="cls-14" d="M400.41172,484.83739a5.56342,5.56342,0,0,0-3.89827,2.51094"/>
          </g>
          <polygon class="cls-17" points="393.441 467.672 392.275 471.664 377.144 469.339 377.418 466.067 393.441 467.672"/>
        </g>
        <g>
          <polygon class="cls-24" points="331.55 482.792 344.407 484.051 353.909 451.499 334.35 449.37 331.55 482.792"/>
          <g>
            <path class="cls-15" d="M346.269,478.374h-4.59024a3.25825,3.25825,0,0,0-2.61337,1.36344c-2.64717,3.61521-4.63639,2.24874-7.5158-1.15007-1.83027-.21337-2.323,1.88726-2.47249,2.45175l-3.43155,12.48256a1.96337,1.96337,0,0,0,1.918,2.50255h36.36871c5.78412,0,6.98289-5.82911,4.60026-6.36866-10.71406-2.3676-18.30095-5.52052-21.61258-8.63731C346.30574,480.47252,346.93653,480.06431,346.269,478.374Z"/>
            <path class="cls-11" d="M356.23005,481.92336a1.874,1.874,0,0,0,.77926-1.49873.83975.83975,0,0,0-.37477-.80909c-1.43849-1.019-7.17775,1.66339-7.82229,1.978a.25483.25483,0,0,0,0,.47953,20.84107,20.84107,0,0,0,4.30077.55447A5.12608,5.12608,0,0,0,356.23005,481.92336Zm.04486-1.87315a.32973.32973,0,0,1,.15.34458,1.49887,1.49887,0,0,1-.56949,1.0939c-1.30378.9741-4.45052.55446-6.144.23971C352.09417,480.67948,355.48074,479.49574,356.27491,480.05021Z"/>
            <path class="cls-11" d="M349.00733,482.13312c1.72317-.71924,5.33466-3.55147,5.13981-5.05-.03006-.31464-.25486-.6893-1.034-.79418-3.14686-.35962-4.4955,5.28967-4.4955,5.5295a.25485.25485,0,0,0,.07493.26966.3165.3165,0,0,0,.17969,0Zm4.00093-5.37975c.58442.06.58442.26977.58442.3447.16477.914-2.45758,3.26689-4.33073,4.25579.38958-1.31869,1.54348-4.61541,3.53643-4.61541Z"/>
            <path class="cls-14" d="M349.45575,481.91637a5.56292,5.56292,0,0,0-3.89815,2.51094"/>
            <path class="cls-14" d="M352.30859,484.06372a5.56389,5.56389,0,0,0-3.89838,2.51094"/>
            <path class="cls-14" d="M355.858,485.86929a5.56406,5.56406,0,0,0-3.89815,2.51105"/>
          </g>
          <polyline class="cls-17" points="332.59 470.372 332.864 467.099 348.887 468.704 347.722 472.696"/>
        </g>
        <path class="cls-25" d="M400.59328,234.67s-9.44163,9.96883-27.94616,10.14025c-18.5044.1713-39.26316-10.608-39.26316-10.608l2.32356-3.97891,53.286,5.80545,10.1977-5.80545Z"/>
        <g>
          <g>
            <path class="cls-11" d="M402.21274,240.38841s11.24568,46.06682,16.32431,87.05607c1.548,12.49293,1.843,29.19924-.89171,41.49861L397.10579,471.0535l-25.84646-2.589c4.06188-44.0381,9.72213-98.35314,11.34356-121.46248l-29.71035-92.46169Z"/>
            <path class="cls-25" d="M368.82693,304.24017c-.08542.42826,12.80093-52.239,12.80093-52.239s3.46092,42.98744-9.48789,63.50507Z"/>
            <path class="cls-11" d="M331.13452,359.86691c.24309-2.6016.48606-7.85282.72124-14.76719-.03509-.00338-.07448-.0063-.1092-.00956-.35834-9.05474-4.34249-50.74528-5.03668-77.58251-.06981-17.14436,2.71942-29.12361,6.31283-35.28612q.2781-.47457.51065-.86164c.60084-.99543.97247-1.54873.97247-1.54873q1.2783.14473,2.53657.24927.47109.03985.93635.07458c31.477,2.325,54.56582-10.08886,54.56582-10.08886,3.74572,6.58657,5.56166,5.22127,9.66817,20.34226-2.73527,3.94173-11.12985,27.0809-26.85494,32.25089l-1.82922,21.4118c-.70258,13.218-2.12568,26.28008-3.24825,38.021l-1.09716,12.84195c-.05873.84-.11467,1.673-.16408,2.48985-.44457,7.3572-18.35722,127.33062-18.35722,127.33062l-23.95327-.3496S327.84072,395.09639,331.13452,359.86691Z"/>
          </g>
          <polygon class="cls-25" points="398.442 464.411 397.106 471.053 371.259 468.464 371.93 461.251 398.442 464.411"/>
          <polygon class="cls-25" points="350.662 474.735 351.672 467.957 326.709 467.658 326.709 474.385 350.662 474.735"/>
        </g>
        <g>
          <path class="cls-15" d="M328.21082,171.52444l-8.03775-27.4072c5.08469-7.5884,30.243-13.41948,30.243-13.41948l16.575.90627s6.3704,1.42136,11.82461,3.2c7.28134,2.37437,11.21876,4.28446,12.95476,8.32455,0,0,3.03813,8.95161,1.21148,27.3981-.50238,5.07245-1.65058,31.8421-.2347,40.55376l10.297,20.146c-30.28532,23.58537-69.05729.01013-69.05729.01013,1.36134-4.16466,4.35309-13.38872,4.9685-17.45876-.44445-5.19225-1.90182-8.60224-4.10115-17.69415C334.42985,194.32857,328.9479,173.22955,328.21082,171.52444Z"/>
          <path class="cls-13" d="M328.21082,171.52444l-8.03775-27.4072c5.08469-7.5884,30.243-13.41948,30.243-13.41948l16.575.90627s6.3704,1.42136,11.82461,3.2c7.28134,2.37437,11.21876,4.28446,12.95476,8.32455,0,0,3.03813,8.95161,1.21148,27.3981-.50238,5.07245-1.65058,31.8421-.2347,40.55376l10.297,20.146c-30.28532,23.58537-69.05729.01013-69.05729.01013,1.36134-4.16466,4.35309-13.38872,4.9685-17.45876-.44445-5.19225-1.90182-8.60224-4.10115-17.69415C334.42985,194.32857,328.9479,173.22955,328.21082,171.52444Z"/>
          <polygon class="cls-25" points="331.357 181.345 332.834 181.345 337.284 168.203 335.319 197.967 331.217 182.387 331.357 181.345"/>
        </g>
        <g>
          <path class="cls-15" d="M363.15772,218.79459a39.615,39.615,0,0,0-25.88982-6.71592l-4.43386,11.6434c12.40123,11.18089,27.567,12.6809,44.25614,12.16058C379.4396,227.2465,370.65825,223.9436,363.15772,218.79459Z"/>
          <path class="cls-15" d="M398.0524,211.298c-1.22431-2.28976-3.72068-4.11117-6.28639-3.714-1.91091.29588-3.43761,1.7071-4.75735,3.12029A54.77144,54.77144,0,0,0,375.24861,230.314l.97713,5.56865q2.58843-1.0626,5.17675-2.12544c4.89147-2.00857,9.93608-4.11933,13.591-7.94057C398.64846,221.99517,400.54562,215.9612,398.0524,211.298Z"/>
          <path class="cls-15" d="M384.48619,231.25652a7.008,7.008,0,1,1-7.008-7.00795A7.00791,7.00791,0,0,1,384.48619,231.25652Z"/>
          <path class="cls-15" d="M380.51917,258.784q-.87016-12.48087-1.74054-24.9621l-3.25839,2.11648A74.857,74.857,0,0,0,363.21318,287.489a62.15645,62.15645,0,0,0,13.19353.84964q-1.86475-3.93981-3.72964-7.87973c3.84664-1.50153,6.387-5.34654,7.39834-9.35C381.08691,267.10526,380.80642,262.90331,380.51917,258.784Z"/>
          <path class="cls-15" d="M394.67864,267.56743c1.861-2.53809,2.20714-5.88691,2.00916-9.02794a31.65845,31.65845,0,0,0-14.9744-24.6788l-1.393-1.094c4.97585,15.01075,4.008,31.255,2.98523,47.03581q5.01641-1.01559,10.03315-2.03118c-1.0312-2.06986-2.08431-4.44655-1.26846-6.61022C392.595,269.76932,393.79916,268.76679,394.67864,267.56743Z"/>
        </g>
        <g>
          <g>
            <path class="cls-15" d="M368.39075,82.75882s2.74808,30.45582,4.26581,39.20559c4.78019,5.71992,23.68722,1.58835,16.28667-18.54566-3.90433-10.62211-4.24006-24.05407-11.61532-29.525C366.968,66.20867,368.39075,82.75882,368.39075,82.75882Z"/>
            <g>
              <g>
                <path class="cls-24" d="M365.837,133.10183a6.66605,6.66605,0,0,1-2.18826-6.05121,25.48836,25.48836,0,0,1,1.59838-5.912l-2.5867-2.8116L349.206,105.69884c.64174,8.73509,2.2005,22.74365-4.46392,27.73954L365.837,150.48776Z"/>
                <path class="cls-26" d="M363.57758,127.6341c-3.64655-1.98969-7.69631-5.52286-7.37922-9.73961a19.66152,19.66152,0,0,1,.85033-4.55434l7.63176,9.38138A23.47648,23.47648,0,0,0,363.57758,127.6341Z"/>
                <path class="cls-24" d="M345.67751,91.77942c1.70534,13.29154,2.146,18.93826,9.2814,25.68122,10.73281,10.14269,26.52981,6.027,28.79184-7.29113,2.0363-11.98694-1.09483-31.709-14.3901-36.839C356.26186,68.2769,343.97216,78.48777,345.67751,91.77942Z"/>
                <path class="cls-26" d="M374.83107,121.8311c-10.52294-4.79266-14.64833-3.49168-13.87688-.83624.35193,1.21124,5.09576,1.963,5.09576,1.963s1.06546.09975,1.56807.13634a1.00221,1.00221,0,0,1,.72157.308C367.97764,123.77883,374.477,122.29723,374.83107,121.8311Z"/>
                <path class="cls-17" d="M381.40179,116.31873a1.22288,1.22288,0,0,0-1.36251-.3468,5.11093,5.11093,0,0,0-2.88384,4.61157,16.97935,16.97935,0,0,0,2.29232-1.82468A20.70428,20.70428,0,0,0,381.40179,116.31873Z"/>
                <path class="cls-15" d="M363.764,96.46452c.01061,1.25121.72916,2.31365,1.60513,2.37319.87552.05967,1.57681-.906,1.56621-2.15714s-.72927-2.31377-1.605-2.37331C364.455,94.24736,363.75366,95.21342,363.764,96.46452Z"/>
                <path class="cls-15" d="M377.33152,95.299a2.1594,2.1594,0,0,0,1.46482,2.39464c.86805.11129,1.61981-.78019,1.67878-1.99167a2.15946,2.15946,0,0,0-1.46483-2.39463C378.14224,93.196,377.39095,94.08759,377.33152,95.299Z"/>
                <path class="cls-15" d="M361.76642,94.409a.5963.5963,0,0,0,.46695-.174,4.81452,4.81452,0,0,1,4.33608-1.42882.60165.60165,0,0,0,.74768-.4793.7134.7134,0,0,0-.52522-.79872,6.00756,6.00756,0,0,0-5.50269,1.74136.66924.66924,0,0,0,.03123.93052A.68971.68971,0,0,0,361.76642,94.409Z"/>
                <path class="cls-15" d="M382.76488,87.93791a.60591.60591,0,0,0,.35973-.3073.64858.64858,0,0,0-.33212-.8571A6.87934,6.87934,0,0,0,376.693,86.62a.59772.59772,0,0,0-.20464.86444.71077.71077,0,0,0,.9212.24321,5.49853,5.49853,0,0,1,4.82971.17247A.70348.70348,0,0,0,382.76488,87.93791Z"/>
                <path class="cls-15" d="M356.18088,70.04937c-4.57918.753-7.46174,1.40959-11.06984,3.667-3.60821,2.25748-7.46651,7.75353-9.57075,11.945-2.99851,5.97291-3.21853,13.31333-3.355,20.292-.08984,4.58943-.07539,9.58264,2.25807,13.2116a10.98073,10.98073,0,0,0,6.50068,4.56448,26.32133,26.32133,0,0,0,7.64376.552c2.11111-.062,4.681-.50843,5.4633-2.87184,1.23014-3.71659-3.41011-7.16574-2.78747-11.096"/>
                <path class="cls-24" d="M342.0369,102.79448a10.73918,10.73918,0,0,0,6.66464,4.80594c3.56172.75724,5.17874-4.98424,3.84571-8.47732a7.10069,7.10069,0,0,0-8.15557-4.30683C341.032,95.623,340.12237,99.73269,342.0369,102.79448Z"/>
                <path class="cls-27" d="M372.65656,94.457a45.282,45.282,0,0,0,4.734,7.94267,1.03009,1.03009,0,0,1-.42581,1.59067,6.60236,6.60236,0,0,1-3.57186.18727Z"/>
              </g>
              <path class="cls-15" d="M365.06443,94.26437l3.0936-.57893S366.37764,95.88838,365.06443,94.26437Z"/>
              <path class="cls-15" d="M378.69367,93.30519l3.12239-.39377S379.90772,95.00436,378.69367,93.30519Z"/>
            </g>
            <path class="cls-15" d="M342.07652,84.4961c-1.80906,2.61337,1.79274,10.20632,1.79274,10.20632s6.39627-1.90229,6.74552,7.73326c2.35957.39073,5.00767-8.60621,4.62182-17.64953C354.764,79.67641,345.27058,79.88209,342.07652,84.4961Z"/>
            <path class="cls-23" d="M346.94061,98.1363a2.1527,2.1527,0,0,0-2.67524,1.24737c-.44936,1.13026.17281,3.75552,3.63559,4.5794"/>
          </g>
          <path class="cls-15" d="M379.784,77.07877c-2.82127-5.865-14.31481-11.31432-27.53049-5.65116C340.314,76.52617,335.23964,94.048,343.86926,94.70242c8.62963.65433,22.52912-9.794,22.52912-9.794Z"/>
        </g>
        <g>
          <path class="cls-24" d="M397.09577,181.39549l13.44361.31021,2.99956,6.83607-6.91228,8.75467s-1.6529-.09964-1.10962-2.407a10.44846,10.44846,0,0,1,1.39-3.1852l-9.18164,2.7616a2.78086,2.78086,0,0,1-3.57967-2.55219l-.4215-10.569Z"/>
          <path class="cls-24" d="M318.44034,156.84767a42.92366,42.92366,0,0,0,2.22124,14.94829c2.71557,8.33736,9.44582,30.57864,17.42846,36.70292,7.98276,6.12429,28.21511-3.02951,40.35588-8.3306,12.02063-5.24865,18.43053-7.76239,18.64985-7.79828l-3.37154-11.02532-44.10266,6.42774-18.92-40.27735S317.11641,147.3818,318.44034,156.84767Z"/>
          <path class="cls-26" d="M389.302,180.51077s3.14513,8.2079,7.09279,9.567c3.9478,1.35913,13.985,1.74462,14.86415-7.70237Z"/>
        </g>
        <g>
          <path class="cls-15" d="M320.17307,144.11724c-8.2784,8.00222.98,38.9674.98,38.9674l26.43368-6.96355s-6.28067-23.3276-12.59735-29.208C329.63813,141.95754,324.7181,139.58271,320.17307,144.11724Z"/>
          <g class="cls-28">
            <path class="cls-4" d="M320.17307,144.11724c-8.2784,8.00222.98,38.9674.98,38.9674l26.43368-6.96355s-6.28067-23.3276-12.59735-29.208C329.63813,141.95754,324.7181,139.58271,320.17307,144.11724Z"/>
          </g>
        </g>
        <path class="cls-15" d="M371.197,108.55331a22.57526,22.57526,0,0,1,3.07254.1139q.76159.08132,1.51535.21886c.31868.05771.91868.06345,1.11179.37322.25479.40873.90392.03264.6476-.37854a1.45329,1.45329,0,0,0-1.04321-.61814c-.58551-.12113-1.17616-.21531-1.76915-.29115a22.54072,22.54072,0,0,0-3.53492-.16815c-.48153.01441-.48358.76447,0,.75Z"/>
        <g>
          <path class="cls-26" d="M363.57886,128.33435a1.64668,1.64668,0,0,0-1.0566,1.95309c.33364,1.50095.85768,1.69148.85768,1.69148a2.44894,2.44894,0,0,0,.19892,3.45439,3.38642,3.38642,0,0,0,2.85052.73847s4.04987,6.78969,7.33752,7.05177l1.00054.19053,9.43,19.75843-9.98876-35.53841Z"/>
          <path class="cls-24" d="M383.89933,134.38218s-.23342-9.64078-.97759-11.23531c-.74408-1.59452-1.64767-2.07289-1.64767-3.82694,0-1.75394.319-3.13591-.69093-2.92335-1.00987.21267-1.96661,2.07289-2.23242,3.45485a23.30538,23.30538,0,0,0,.31895,5.0495s-7.60076-4.57113-10.63038-5.26205c-2.5247-.57579-5.52927-1.00405-6.49137.16116a1.083,1.083,0,0,0,.37419,1.586,9.83362,9.83362,0,0,0,2.44976.85722,24.52994,24.52994,0,0,1,5.5809,1.80719s-4.03952-.21267-5.10253.53151c-1.063.74406-1.00988,1.26928-.74418,2.12288a3.46874,3.46874,0,0,0,.95673,1.43826s-1.32871-.42523-1.80707,1.27568a1.8126,1.8126,0,0,0,.85034,2.28545,2.48392,2.48392,0,0,0-.53151,2.76393c.74418,1.54139,2.92335,1.00988,2.92335,1.00988s5.68728,6.90972,7.86645,7.06913a9.14179,9.14179,0,0,0,4.78369-1.382c-.21268,0,5.04938-6.1124,5.04938-6.1124Z"/>
          <path class="cls-24" d="M375.07427,142.10518s10.64554,32.2453,14.67851,39.2395c4.033,6.99432,10.82418,9.26066,17.39444,6.31074,1.57051-.70514,2.82173-2.45978,3.80387-4.57078,2.96752-6.37844.87738-10.53483-2.44964-16.73334l-2.71336-5.05521-5.517,3.61649L383.5552,133.76467Z"/>
        </g>
      </g>
    </g>
  </g>
</svg>
