<?xml version="1.0" encoding="UTF-8"?>
<svg id="Layer_1" data-name="Layer 1" xmlns="http://www.w3.org/2000/svg" width="287" height="180" xmlns:xlink="http://www.w3.org/1999/xlink" viewBox="0 0 287 180">
  <defs>
    <style>
      .cls-1, .cls-2 {
        fill: #fff;
      }

      .cls-3 {
        fill: url(#Degradado_sin_nombre_4-2);
      }

      .cls-4 {
        fill: url(#Degradado_sin_nombre_4-3);
      }

      .cls-5 {
        fill: url(#Degradado_sin_nombre_4-4);
      }

      .cls-6 {
        fill: url(#Degradado_sin_nombre_4-5);
      }

      .cls-7 {
        fill: url(#Degradado_sin_nombre_6-2);
      }

      .cls-8 {
        fill: url(#Degradado_sin_nombre_2-2);
      }

      .cls-9 {
        fill: url(#Degradado_sin_nombre_2-3);
      }

      .cls-10 {
        fill: url(#Degradado_sin_nombre_3-3);
      }

      .cls-11 {
        fill: url(#Degradado_sin_nombre_3-4);
      }

      .cls-12 {
        fill: url(#Degradado_sin_nombre_3-2);
      }

      .cls-13 {
        fill: url(#Degradado_sin_nombre_7-3);
      }

      .cls-14 {
        fill: url(#Degradado_sin_nombre_7-2);
      }

      .cls-15 {
        fill: url(#Degradado_sin_nombre_7-4);
      }

      .cls-16 {
        filter: url(#drop-shadow-2);
      }

      .cls-17 {
        filter: url(#drop-shadow-1);
      }

      .cls-18 {
        stroke: url(#Degradado_sin_nombre_76-3);
      }

      .cls-18, .cls-19, .cls-20, .cls-21, .cls-22, .cls-23, .cls-24, .cls-25, .cls-26, .cls-27, .cls-28, .cls-29, .cls-30 {
        fill: none;
        stroke-miterlimit: 10;
        stroke-width: 1.6917293898px;
      }

      .cls-19 {
        stroke: url(#Degradado_sin_nombre_76-9);
      }

      .cls-20 {
        stroke: url(#Degradado_sin_nombre_76-8);
      }

      .cls-21 {
        stroke: url(#Degradado_sin_nombre_76-6);
      }

      .cls-22 {
        stroke: url(#Degradado_sin_nombre_76-4);
      }

      .cls-23 {
        stroke: url(#Degradado_sin_nombre_76-7);
      }

      .cls-24 {
        stroke: url(#Degradado_sin_nombre_76-5);
      }

      .cls-25 {
        stroke: url(#Degradado_sin_nombre_76-2);
      }

      .cls-26 {
        stroke: url(#Degradado_sin_nombre_76);
      }

      .cls-31 {
        fill: url(#Degradado_sin_nombre_76-17);
      }

      .cls-32 {
        fill: url(#Degradado_sin_nombre_76-18);
      }

      .cls-33 {
        fill: url(#Degradado_sin_nombre_76-16);
      }

      .cls-34 {
        fill: url(#Degradado_sin_nombre_76-15);
      }

      .cls-35 {
        fill: url(#Degradado_sin_nombre_76-19);
      }

      .cls-36 {
        fill: url(#Degradado_sin_nombre_76-14);
      }

      .cls-37 {
        fill: url(#Degradado_sin_nombre_76-22);
      }

      .cls-38 {
        fill: url(#Degradado_sin_nombre_76-21);
      }

      .cls-39 {
        fill: url(#Degradado_sin_nombre_76-20);
      }

      .cls-27 {
        stroke: url(#Degradado_sin_nombre_76-10);
      }

      .cls-28 {
        stroke: url(#Degradado_sin_nombre_76-13);
      }

      .cls-29 {
        stroke: url(#Degradado_sin_nombre_76-11);
      }

      .cls-30 {
        stroke: url(#Degradado_sin_nombre_76-12);
      }

      .cls-2 {
        fill-rule: evenodd;
      }

      .cls-40 {
        fill: url(#Degradado_sin_nombre_6);
      }

      .cls-41 {
        fill: url(#Degradado_sin_nombre_7);
      }

      .cls-42 {
        fill: url(#Degradado_sin_nombre_2);
      }

      .cls-43 {
        fill: url(#Degradado_sin_nombre_3);
      }

      .cls-44 {
        fill: url(#Degradado_sin_nombre_4);
      }
    </style>
    <filter id="drop-shadow-1" filterUnits="userSpaceOnUse">
      <feOffset dx="2.8496617661" dy="2.8496617661"/>
      <feGaussianBlur result="blur" stdDeviation="2.8496617661"/>
      <feFlood flood-color="#000" flood-opacity=".65"/>
      <feComposite in2="blur" operator="in"/>
      <feComposite in="SourceGraphic"/>
    </filter>
    <linearGradient id="Degradado_sin_nombre_76" data-name="Degradado sin nombre 76" x1="147.9874810896" y1="41.1278007519" x2="173.2530110802" y2="41.1278007519" gradientUnits="userSpaceOnUse">
      <stop offset="0" stop-color="#788199"/>
      <stop offset="1" stop-color="#3a404b"/>
    </linearGradient>
    <linearGradient id="Degradado_sin_nombre_76-2" data-name="Degradado sin nombre 76" x1="169.2735519805" x2="203.0846225549" xlink:href="#Degradado_sin_nombre_76"/>
    <linearGradient id="Degradado_sin_nombre_76-3" data-name="Degradado sin nombre 76" x1="169.1359057838" y1="55.4932048872" x2="170.8276351736" y2="55.4932048872" xlink:href="#Degradado_sin_nombre_76"/>
    <linearGradient id="Degradado_sin_nombre_76-4" data-name="Degradado sin nombre 76" x1="175.3065065723" y1="52.281343985" x2="192.9828334794" y2="52.281343985" xlink:href="#Degradado_sin_nombre_76"/>
    <linearGradient id="Degradado_sin_nombre_76-5" data-name="Degradado sin nombre 76" x1="172.5533308269" y1="30.3477349624" x2="192.9828326026" y2="30.3477349624" xlink:href="#Degradado_sin_nombre_76"/>
    <linearGradient id="Degradado_sin_nombre_76-6" data-name="Degradado sin nombre 76" x1="169.1401278783" y1="24.1618421053" x2="173.9930892197" y2="24.1618421053" xlink:href="#Degradado_sin_nombre_76"/>
    <linearGradient id="Degradado_sin_nombre_76-7" data-name="Degradado sin nombre 76" x1="147.4524196114" y1="30.359943609" x2="172.1016397166" y2="30.359943609" xlink:href="#Degradado_sin_nombre_76"/>
    <linearGradient id="Degradado_sin_nombre_76-8" data-name="Degradado sin nombre 76" x1="116.3624476935" y1="54.3034398496" x2="132.2736998922" y2="54.3034398496" xlink:href="#Degradado_sin_nombre_76"/>
    <linearGradient id="Degradado_sin_nombre_76-9" data-name="Degradado sin nombre 76" x1="90.0617900323" y1="48.3168327068" x2="116.1046810295" y2="48.3168327068" xlink:href="#Degradado_sin_nombre_76"/>
    <linearGradient id="Degradado_sin_nombre_76-10" data-name="Degradado sin nombre 76" x1="82.7694635883" y1="63.4327725564" x2="113.7367229083" y2="63.4327725564" xlink:href="#Degradado_sin_nombre_76"/>
    <linearGradient id="Degradado_sin_nombre_76-11" data-name="Degradado sin nombre 76" x1="98.7909797207" y1="73.7220112782" x2="114.332950717" y2="73.7220112782" xlink:href="#Degradado_sin_nombre_76"/>
    <linearGradient id="Degradado_sin_nombre_76-12" data-name="Degradado sin nombre 76" x1="116.0946241484" y1="75.2612030075" x2="118.3307719166" y2="75.2612030075" xlink:href="#Degradado_sin_nombre_76"/>
    <linearGradient id="Degradado_sin_nombre_76-13" data-name="Degradado sin nombre 76" x1="116.0942111641" y1="48.6562781955" x2="117.7859405538" y2="48.6562781955" xlink:href="#Degradado_sin_nombre_76"/>
    <linearGradient id="Degradado_sin_nombre_76-14" data-name="Degradado sin nombre 76" x1="159.5866667471" y1="48.7211934652" x2="159.5866667471" y2="169.1707504684" xlink:href="#Degradado_sin_nombre_76"/>
    <linearGradient id="Degradado_sin_nombre_76-15" data-name="Degradado sin nombre 76" x1="129.8690886902" y1="48.7211240219" x2="129.8690886902" y2="169.1708403076" xlink:href="#Degradado_sin_nombre_76"/>
    <linearGradient id="Degradado_sin_nombre_76-16" data-name="Degradado sin nombre 76" x1="131.0877311958" y1="48.7210702976" x2="131.0877311958" y2="169.1699007217" xlink:href="#Degradado_sin_nombre_76"/>
    <linearGradient id="Degradado_sin_nombre_76-17" data-name="Degradado sin nombre 76" x1="160.2860710045" y1="48.7212031349" x2="160.2860710045" y2="169.1709003176" xlink:href="#Degradado_sin_nombre_76"/>
    <linearGradient id="Degradado_sin_nombre_76-18" data-name="Degradado sin nombre 76" x1="141.6888064367" y1="48.721117071" x2="141.6888064367" y2="169.1705521631" xlink:href="#Degradado_sin_nombre_76"/>
    <linearGradient id="Degradado_sin_nombre_2" data-name="Degradado sin nombre 2" x1="103.1072566595" y1="38.1184680451" x2="81.0387045854" y2="38.1184680451" gradientTransform="translate(108.2106714935 -60.2178169517) rotate(76.8299029702)" gradientUnits="userSpaceOnUse">
      <stop offset="0" stop-color="#0fffff"/>
      <stop offset=".1812795453" stop-color="#15edff"/>
      <stop offset=".54389722" stop-color="#25bfff"/>
      <stop offset="1" stop-color="#3c7dff"/>
    </linearGradient>
    <linearGradient id="Degradado_sin_nombre_3" data-name="Degradado sin nombre 3" x1="89.7323885763" y1="64.1995206767" x2="75.8904340388" y2="64.1995206767" gradientTransform="translate(31.1558453877 -26.9652289125) rotate(22.6787202812)" gradientUnits="userSpaceOnUse">
      <stop offset="0" stop-color="#f8f"/>
      <stop offset="1" stop-color="#ff1ea8"/>
    </linearGradient>
    <linearGradient id="Degradado_sin_nombre_7" data-name="Degradado sin nombre 7" x1="105.2806776572" y1="81.9212030075" x2="93.5776351403" y2="81.9212030075" gradientUnits="userSpaceOnUse">
      <stop offset="0" stop-color="#59c3e8"/>
      <stop offset=".2991996289" stop-color="#89d0b4"/>
      <stop offset=".617952194" stop-color="#b7dc84"/>
      <stop offset=".8619475015" stop-color="#d3e467"/>
      <stop offset="1" stop-color="#dee75c"/>
    </linearGradient>
    <linearGradient id="Degradado_sin_nombre_4" data-name="Degradado sin nombre 4" x1="121.8153012997" y1="83.9822368421" x2="113.1552827215" y2="83.9822368421" gradientUnits="userSpaceOnUse">
      <stop offset="0" stop-color="#6960f1"/>
      <stop offset="1" stop-color="#ff79ff"/>
    </linearGradient>
    <linearGradient id="Degradado_sin_nombre_4-2" data-name="Degradado sin nombre 4" x1="126.5133494261" y1="36.1122462406" x2="108.4572377274" y2="36.1122462406" gradientTransform="translate(126.1141119327 -86.494576362) rotate(76.9395009077)" xlink:href="#Degradado_sin_nombre_4"/>
    <linearGradient id="Degradado_sin_nombre_7-2" data-name="Degradado sin nombre 7" x1="156.2669733617" y1="20.7310996241" x2="139.7079888176" y2="20.7310996241" gradientTransform="translate(144.6345793143 -128.6637713482) rotate(80.7398182401)" xlink:href="#Degradado_sin_nombre_7"/>
    <linearGradient id="Degradado_sin_nombre_2-2" data-name="Degradado sin nombre 2" x1="178.3410517514" y1="8.3593139098" x2="161.6224243542" y2="8.3593139098" gradientTransform="translate(141.2099509695 -159.3781409226) rotate(77.4514320039)" xlink:href="#Degradado_sin_nombre_2"/>
    <linearGradient id="Degradado_sin_nombre_6" data-name="Degradado sin nombre 6" x1="198.40338702" y1="20.7310996241" x2="186.3659951577" y2="20.7310996241" gradientTransform="translate(169.7942947607 -171.4441365124) rotate(77.1452045491)" gradientUnits="userSpaceOnUse">
      <stop offset="0" stop-color="#ff63b3"/>
      <stop offset="1" stop-color="#ffe578"/>
    </linearGradient>
    <linearGradient id="Degradado_sin_nombre_2-3" data-name="Degradado sin nombre 2" x1="211.1095659612" y1="41.1278007519" x2="195.0596791486" y2="41.1278007519" gradientTransform="matrix(1, 0, 0, 1, 0, 0)" xlink:href="#Degradado_sin_nombre_2"/>
    <linearGradient id="Degradado_sin_nombre_4-3" data-name="Degradado sin nombre 4" x1="198.40338702" y1="60.5214191729" x2="186.3659951577" y2="60.5214191729" gradientTransform="translate(92.3452858601 -114.5980673268) rotate(42.7994249063)" xlink:href="#Degradado_sin_nombre_4"/>
    <linearGradient id="Degradado_sin_nombre_3-2" data-name="Degradado sin nombre 3" x1="178.3410517514" y1="66.540112782" x2="161.6224243542" y2="66.540112782" gradientTransform="matrix(1, 0, 0, 1, 0, 0)" xlink:href="#Degradado_sin_nombre_3"/>
    <linearGradient id="Degradado_sin_nombre_4-4" data-name="Degradado sin nombre 4" x1="152.2599997787" y1="41.8203101504" x2="143.7149060096" y2="41.8203101504" gradientTransform="translate(154.5703107679 -111.8217795995) rotate(76.6733979315)" xlink:href="#Degradado_sin_nombre_4"/>
    <linearGradient id="Degradado_sin_nombre_7-3" data-name="Degradado sin nombre 7" x1="136.7860340042" y1="47.4065695489" x2="126.6062222313" y2="47.4065695489" xlink:href="#Degradado_sin_nombre_7"/>
    <linearGradient id="Degradado_sin_nombre_7-4" data-name="Degradado sin nombre 7" x1="168.4875181658" y1="85.933731203" x2="161.4745108241" y2="85.933731203" xlink:href="#Degradado_sin_nombre_7"/>
    <linearGradient id="Degradado_sin_nombre_6-2" data-name="Degradado sin nombre 6" x1="184.6217094875" y1="41.1278007519" x2="161.8843604378" y2="41.1278007519" gradientTransform="matrix(1, 0, 0, 1, 0, 0)" xlink:href="#Degradado_sin_nombre_6"/>
    <linearGradient id="Degradado_sin_nombre_4-5" data-name="Degradado sin nombre 4" x1="127.9743800915" y1="62.6660244361" x2="105.9057716264" y2="62.6660244361" gradientTransform="translate(32.381412178 -39.5682322559) rotate(22.2195773639)" xlink:href="#Degradado_sin_nombre_4"/>
    <linearGradient id="Degradado_sin_nombre_3-3" data-name="Degradado sin nombre 3" x1="141.0028384089" y1="62.5276409774" x2="132.7549250835" y2="62.5276409774" gradientTransform="translate(84.3046210485 -78.4740493555) rotate(45)" xlink:href="#Degradado_sin_nombre_3"/>
    <linearGradient id="Degradado_sin_nombre_3-4" data-name="Degradado sin nombre 3" x1="129.1130830702" y1="100.9804511278" x2="119.5518832606" y2="100.9804511278" gradientTransform="matrix(1, 0, 0, 1, 0, 0)" xlink:href="#Degradado_sin_nombre_3"/>
    <filter id="drop-shadow-2" filterUnits="userSpaceOnUse">
      <feOffset dx=".5639097966" dy=".5639097966"/>
      <feGaussianBlur result="blur-2" stdDeviation=".5639097966"/>
      <feFlood flood-color="#000" flood-opacity=".2"/>
      <feComposite in2="blur-2" operator="in"/>
      <feComposite in="SourceGraphic"/>
    </filter>
    <linearGradient id="Degradado_sin_nombre_76-19" data-name="Degradado sin nombre 76" x1="145.4509585973" y1="149.1661737077" x2="145.4509585973" y2="179.9409476129" xlink:href="#Degradado_sin_nombre_76"/>
    <linearGradient id="Degradado_sin_nombre_76-20" data-name="Degradado sin nombre 76" x1="145.4509585973" y1="149.166168406" x2="145.4509585973" y2="179.9409423113" xlink:href="#Degradado_sin_nombre_76"/>
    <linearGradient id="Degradado_sin_nombre_76-21" data-name="Degradado sin nombre 76" x1="145.4509585973" y1="149.166203718" x2="145.4509585973" y2="179.941032812" xlink:href="#Degradado_sin_nombre_76"/>
    <linearGradient id="Degradado_sin_nombre_76-22" data-name="Degradado sin nombre 76" x1="145.4509585973" y1="149.1661976583" x2="145.4509585973" y2="179.9410280555" xlink:href="#Degradado_sin_nombre_76"/>
  </defs>
  <g class="cls-17">
    <g>
      <g>
        <line class="cls-26" x1="147.9874810896" y1="41.1278007519" x2="173.2530110802" y2="41.1278007519"/>
        <line class="cls-25" x1="203.0846225549" y1="41.1278007519" x2="169.2735519805" y2="41.1278007519"/>
        <line class="cls-18" x1="169.9817704787" y1="66.540112782" x2="169.9817704787" y2="44.4462969925"/>
        <line class="cls-22" x1="192.3847168102" y1="60.5213909774" x2="175.9046232415" y2="44.0412969925"/>
        <line class="cls-24" x1="192.3847168102" y1="20.7311278195" x2="173.1514466194" y2="39.9643421053"/>
        <line class="cls-21" x1="169.9817704787" y1="8.3593421053" x2="173.1514466194" y2="39.9643421053"/>
        <line class="cls-23" x1="147.9874810896" y1="20.7311278195" x2="171.5665782383" y2="39.9887593985"/>
        <line class="cls-20" x1="131.6960717268" y1="47.4065977444" x2="116.9400758589" y2="61.2002819549"/>
        <line class="cls-19" x1="90.6544374252" y1="36.1122744361" x2="115.5120336366" y2="60.5213909774"/>
        <line class="cls-27" x1="82.8114113076" y1="64.1994924812" x2="113.694775189" y2="62.6660526316"/>
        <line class="cls-29" x1="99.4291552487" y1="81.9212030075" x2="113.694775189" y2="65.5228195489"/>
        <line class="cls-30" x1="117.4853202061" y1="83.9822932331" x2="116.9400758589" y2="66.540112782"/>
        <line class="cls-28" x1="116.9400758589" y1="36.1122744361" x2="116.9400758589" y2="61.2002819549"/>
      </g>
      <g>
        <path class="cls-36" d="M153.014116301,151.3368609023c-.3121240523-21.4033646617-.7787029878-64.407518797,.2001879649-81.0388533835,1.2597744043-21.4160526316,15.4554695344-25.6807894737,16.0592477146-25.8517669173l-.3660296221-1.3076503759-.3644590812-1.3182518797c-.6804657308,.1879511278-16.6715409322,4.8760150376-18.0505258598,28.3179135338-.9827255391,16.7005827068-.5170488591,59.7490601504-.2048120249,81.1986090226h2.7263909086Z"/>
        <path class="cls-34" d="M133.3349659674,115.3587406015v35.9781203008h2.7260492581v-35.9781203008c0-9.3931578947-10.6210147693-15.3255451128-11.0730417393-15.5736654135l-1.3108113313,2.3906390977c.096372178,.0527255639,9.6578038125,5.3860714286,9.6578038125,13.1830263158Z"/>
        <path class="cls-33" d="M138.6518422277,93.382612782c.7468984774,10.9543421053,.3680639005,42.8377443609,.1346616507,57.9542481203h2.7264472995c.2334586407-15.1690601504,.6109398342-47.1042857143-.1414849588-58.1395488722-.4333646507-6.359887218-3.9879134331-12.9114473684-10.2780416052-18.9470864662-4.6833301973-4.4931766917-9.1828789558-7.1096052632-9.3723526353-7.2187781955l-1.3625751535,2.3608646617c.1730639054,.100093985,17.3519544489,10.1854511278,18.2933454025,23.9903007519Z"/>
        <path class="cls-31" d="M157.9849244461,151.3368609023v-47.8487030075c0-14.1387406015,7.0291915518-16.1534210526,7.3283456795-16.2321992481l-.6500187806-2.6472744361c-.3844172835,.0921428571-9.4043794617,2.4459586466-9.4043794617,18.8794736842v47.8487030075h2.7260525627Z"/>
        <path class="cls-32" d="M144.087932316,73.8962030075v77.4406578947h2.7260525627V73.8962030075c0-10.3238909774-9.5283832179-12.6729699248-9.6248117869-12.6958646617l-.625545097,2.6535902256c.3072180374,.0740413534,7.5243043212,1.9119924812,7.5243043212,10.0422744361Z"/>
      </g>
      <circle class="cls-42" cx="92.0729665247" cy="38.1184539474" r="11.0342920629" transform="translate(33.9789507298 119.0847001541) rotate(-76.8299029702)"/>
      <circle class="cls-43" cx="82.8114113076" cy="64.1995065789" r="6.9209802144" transform="translate(-18.3501126281 36.8928670431) rotate(-22.6787202812)"/>
      <circle class="cls-41" cx="99.4291558237" cy="81.9212030075" r="5.8515216199"/>
      <path class="cls-44" d="M121.8153012997,83.9822932331c0,2.3913721805-1.938606009,4.329981203-4.3299810936,4.329981203-2.391428511,0-4.3300374846-1.9386090226-4.3300374846-4.329981203,0-2.3914285714,1.9386089736-4.330093985,4.3300374846-4.330093985,2.3913750847,0,4.3299810936,1.9386654135,4.3299810936,4.330093985Z"/>
      <circle class="cls-3" cx="117.4853068914" cy="36.1122603383" r="9.0280387783" transform="translate(55.757895594 142.3978161615) rotate(-76.9395009077)"/>
      <circle class="cls-14" cx="147.9874810896" cy="20.7311137218" r="8.2794490387" transform="translate(103.7126964842 163.4539818388) rotate(-80.7398182401)"/>
      <circle class="cls-8" cx="169.9817542658" cy="8.3593280075" r="8.3592982431" transform="translate(124.8906670879 172.4643827899) rotate(-77.4514320039)"/>
      <circle class="cls-40" cx="192.3847039495" cy="20.7311137218" r="6.0186779027" transform="translate(129.3712339609 203.6818065051) rotate(-77.1452045491)"/>
      <circle class="cls-9" cx="203.0846225549" cy="41.1278007519" r="8.0249435077"/>
      <circle class="cls-4" cx="192.3847039495" cy="60.5214050752" r="6.0187153191" transform="translate(10.1046925024 146.8273273102) rotate(-42.7994249063)"/>
      <circle class="cls-12" cx="169.9817542658" cy="66.540112782" r="8.3593078129"/>
      <circle class="cls-5" cx="147.9874669919" cy="41.8203242481" r="4.272531225" transform="translate(73.1819412302 176.1831287084) rotate(-76.6733979315)"/>
      <path class="cls-13" d="M136.7860340042,47.4065977444c0,2.8110338346-2.2788157319,5.0898496241-5.0899622774,5.0898496241-2.8110337636,0-5.0898494955-2.2788157895-5.0898494955-5.0898496241,0-2.8110902256,2.2788157319-5.089906015,5.0898494955-5.089906015,2.8111465455,0,5.0899622774,2.2788157895,5.0899622774,5.089906015Z"/>
      <path class="cls-15" d="M168.4875181658,85.9337030075c0,1.9365789474-1.5699247724,3.5065037594-3.5064472798,3.5065037594-1.9365788984,0-3.5065600618-1.569924812-3.5065600618-3.5065037594,0-1.9365225564,1.5699811633-3.5064473684,3.5065600618-3.5064473684,1.9365225075,0,3.5064472798,1.569924812,3.5064472798,3.5064473684Z"/>
      <circle class="cls-7" cx="173.2530230214" cy="41.1278007519" r="11.3686546001"/>
      <circle class="cls-6" cx="116.9400758589" cy="62.6660385338" r="11.0343013532" transform="translate(-15.0138057531 48.8752135065) rotate(-22.2195773639)"/>
      <circle class="cls-10" cx="136.8788676485" cy="62.5276550752" r="4.1239355683" transform="translate(-4.1228367823 115.1019016752) rotate(-45)"/>
      <circle class="cls-11" cx="124.3324824263" cy="100.9804511278" r="4.7806003347"/>
      <g class="cls-16">
        <path class="cls-1" d="M96.4549260005,35.8770112782c-.2229675519,.0615789474-.3985714185,.0519360902-.3985714185,.0519360902l.007161654-.0422932331c.2074624008-.1661278195,.7309398312-.6756203008,.80002116-.9139849624,.029997616-.1030263158-.0054723079-.1386090226-.0058670448-.1419924812l-.6681766748,.2837593985-.5592857002,.252406015h0c-.3859962309-.4086090226-.9704886973-.6690789474-1.6237781545-.6690789474-1.1625563616,0-2.1050751348,.8236466165-2.1050751348,1.8398684211,0,.1857518797,.0276879692,.524943609,.0858270655,.6940601504,0,.0531766917,.00231203-.0534586466,0,0-.7484774247-.0205827068-1.7080826636-.3276879699-2.5626315142-.7606578947-1.6856369024-.8539849624-1.7910880302-1.4451879699-1.7910880302-1.4451879699-.2647577825,.2811654135-.4013931174,1.2120676692-.1330827068,1.9417669173,.1719924812,.4671992481,.762406015,.8866353383,.762406015,.8866353383h0s-.2639097744,.004906015-.5406224531-.0885902256c-.2767669103-.0935526316-.3811466069-.1862593985-.3811466069-.1862593985-.164605259,.4012218045,.1655075146,1.117556391,.735958628,1.6313345865,.3321992397,.2997744361,.9395864424,.4876691729,.9395864424,.4876691729l-.9486653896,.0266729323c-.0532894723,.9221616541,1.9336465677,1.4698308271,1.9336465677,1.4698308271h0c-.5825187823,.4478007519-1.258139066,.7206766917-1.98231198,.7206766917-.3754511183,0-.738270658-.0560526316-1.0826503486-.1588533835,.957067645,.7884022556,2.18684205,1.3326879699,3.5241540463,1.262424812,3.5478382562-.1863721805,5.5507353042-3.2361090226,5.645864519-6.2312030075l.00462406,.0061466165s.1662969883-.0829511278,.5217857011-.4383834586c.355037585-.3553759398,.5763157749-.7713157895,.5763157749-.7713157895,0,0-.531428558,.2310338346-.7543984772,.292612782Z"/>
        <g>
          <path class="cls-1" d="M87.8635916311,60.3503007519c.00231203,.0566729323,0,.0055263158,0,0h0Z"/>
          <path class="cls-1" d="M84.6785165235,68.184924812h-3.1998495432c-1.4200939491,0-2.5756014387-1.1552819549-2.5756014387-2.5754323308v-2.8197744361c0-1.4202067669,1.1555074896-2.5755451128,2.5756014387-2.5755451128h3.1998495432c1.4199832784,0,2.5754344063,1.1553383459,2.5754344063,2.5755451128v2.8197744361c0,1.4201503759-1.1554511278,2.5754323308-2.5754344063,2.5754323308Zm-3.1998495432-7.3983834586c-1.1045864383,0-2.0031766411,.8986466165-2.0031766411,2.0031766917v2.8197744361c0,1.1044736842,.8985902029,2.0030639098,2.0031766411,2.0030639098h3.1998495432c1.1044736563,0,2.0030074682-.8985902256,2.0030074682-2.0030639098v-2.8197744361c0-1.1045300752-.8985338119-2.0031766917-2.0030074682-2.0031766917h-3.1998495432Z"/>
          <path class="cls-1" d="M83.0785917519,66.4921804511c-1.2642292914,0-2.292631521-1.0284022556-2.292631521-2.292575188s1.0284022297-2.2926315789,2.292631521-2.2926315789c1.2641165094,0,2.2925187391,1.0284586466,2.2925187391,2.2926315789s-1.0284022297,2.292575188-2.2925187391,2.292575188Zm0-4.0127819549c-.9486089986,0-1.7203175139,.7715413534-1.7203175139,1.7202067669,0,.9485526316,.7717085153,1.7203195489,1.7203175139,1.7203195489,.9484962166,0,1.7202067235-.7717669173,1.7202067235-1.7203195489,0-.9486654135-.7717105068-1.7202067669-1.7202067235-1.7202067669Z"/>
          <path class="cls-1" d="M85.8116931867,61.977518797c0,.2627255639-.2128174448,.4755451128-.4755451008,.4755451128-.2627819482,0-.4758270556-.2128195489-.4758270556-.4755451128,0-.2627819549,.2130451074-.4757142857,.4758270556-.4757142857,.262727656,0,.4755451008,.2129323308,.4755451008,.4757142857Z"/>
        </g>
        <path class="cls-1" d="M117.9266952907,40.7234210526v-4.2067669173h1.4120300752l.2114661654-1.6394548872h-1.6234962406v-1.0468421053c0-.4745864662,.1317264046-.7980451128,.8124782671-.7980451128l.8680826848-.0003947368v-1.4663345865c-.1502255601-.019962406-.665413517-.0645676692-1.265131547-.0645676692-1.2514849308,0-2.1085149843,.7641541353-2.1085149843,2.1671052632v1.2090789474h-1.41552628v1.6394548872h1.41552628v4.2067669173h1.6930855793Z"/>
        <g>
          <path class="cls-1" d="M153.0995486297,16.6715977444c.00231203,.0566729323,0,.0055827068,0,0h0Z"/>
          <path class="cls-1" d="M147.9926727343,24.7595300752c-.7762818508,0-1.5378983729-.2054887218-2.2121652731-.5954323308l-1.7281014601,.5954323308,.355093976-1.830112782c-.556744536-.7630263158-.8502067454-1.6604323308-.8502067454-2.6054323308,0-2.4456203008,1.9896428069-4.4352631579,4.4353795027-4.4352631579,2.445842128,0,4.4354849349,1.9896428571,4.4354849349,4.4352631579,0,2.4457894737-1.9896428069,4.4355451128-4.4354849349,4.4355451128Zm-2.132541215-1.3209586466l.1336466132,.0837406015c.6024811878,.377593985,1.2936089899,.5773308271,1.9988946018,.5773308271,2.0818947688,0,3.7754849515-1.6937030075,3.7754849515-3.7756578947,0-2.0816729323-1.6935901828-3.7752631579-3.7754849515-3.7752631579-2.0817893366,0-3.7754923013,1.6935902256-3.7754923013,3.7752631579,0,.8469924812,.277443602,1.6496052632,.8020488519,2.3208270677l.0926503736,.1185338346-.1940977395,.9998684211,.9423496003-.3246428571Z"/>
          <path class="cls-1" d="M145.7535525746,18.620018797s.2601879634-.454906015,.4722744242-.4809586466c.2121992428-.0260526316,.4853571306-.0260526316,.5590037453,.112612782,.0735902237,.1386654135,.4029699146,.9446052632,.4029699146,.9446052632,0,0,.0561654121,.1386654135-.030451127,.2728759398-.0865601482,.1343796992-.2813909703,.3293233083-.2813909703,.3293233083,0,0-.1084398469,.1387218045,0,.2859586466,.108214283,.1472932331,.2762030005,.4180827068,.6239097587,.7654511278,.3470300664,.3473684211,1.0136841849,.5951503759,1.0136841849,.5951503759,0,0,.0954135314,.0129135338,.1559774397-.0478195489,.0606766902-.0606203008,.3899999901-.4722180451,.3899999901-.4722180451,0,0,.1059586439-.1364097744,.2816729252-.0562218045,.1753759354,.0801315789,.9355826831,.4591917293,.9355826831,.4591917293,0,0,.0889849602,.032481203,.0889849602,.1666917293,0,.1343796992-.0543609009,.4630263158-.1654511236,.5740601504-.1110902228,.1112593985-.4361278085,.4536654135-.9241879987,.4536654135-.4883458647,0-1.6508495303-.3973308271-2.2704171838-1.0166729323-.6195112625-.6197932331-1.1698307975-1.2479887218-1.2996955982-1.8198496241-.1300412078-.5719172932-.1127819549-.8303007519,.0475339757-1.0658458647Z"/>
        </g>
        <path class="cls-1" d="M138.2853008836,62.0996052632c.2540977379-1.2787218045-.4157706662-1.5898308271-.4157706662-1.5898308271-.9539097503-.4647180451-1.6362405602,.0493421053-1.6362405602,.0493421053-1.2884774111,1.0268233083-.418477433,1.8339473684-.4183646511,1.8340601504h0l-.122312027,.5136090226h0c-.000112782,0-1.0630826799-.1853007519-.6665413365-1.6510150376,.4040977342-1.4934586466,2.4863379338-1.762556391,3.1853006714-1.2406578947,.0327631571,.0244172932,.0667669156,.0468045113,.1009962381,.0690225564,.2932894663,.1904323308,1.4632330457,1.0732894737,.6455638935,2.5902631579,0,0-.9172556159,1.7121428571-2.2258082144,.5870864662h0l-.244624054,.9905075188h0l-.489135326,.7215789474h0l-.2079135286-.904962406h0l.4647180334-1.809981203h0s-.2934586392-.7460526316,.2568642806-1.2352443609l.0201281936-.0179887218c.0995864637-.0892105263,.2399999939-.1244548872,.3665977351-.0813721805,.1345488688,.0459022556,.2674623993,.1789285714,.2614285648,.527481203,0,0-.061184209,.4279511278-.2813345794,1.0761654135h0s.1467857106,.8683082707,.9783834339,.3546428571h0s.3314097661-.2961654135,.428063899-.7827067669Z"/>
        <g>
          <path class="cls-1" d="M95.6608846672,79.0405263158c-.0019736842,.0477631579,0,.0046804511,0,0h0Z"/>
          <path class="cls-1" d="M99.4544747969,80.3513909774c.1454887181,.2023308271,.2183458591,.4443045113,.2183458591,.7260902256,0,.2904699248-.0734774418,.5239285714-.2202631523,.7003195489-.0821052611,.0989097744-.2030639046,.1893609023-.3628759307,.2710714286,.2427631518,.0882518797,.4259234921,.2280451128,.5494736703,.4194924812,.1235526285,.1915037594,.1853571382,.4238909774,.1853571382,.6970488722,0,.2818421053-.070601502,.5346428571-.2118045059,.7583458647-.0898308248,.1484774436-.202161649,.2732706767-.3368796907,.3743796992-.1518608984,.1161090226-.3309586383,.1958458647-.5374623924,.2388157895-.2063909722,.0430263158-.43043232,.0645112782-.6721240432,.0645112782h-2.1432518256v-4.7566917293h2.2987217464c.5799836206,.0086278195,.9909586216,.177462406,1.2327631268,.5066165414Zm-2.5827067017,.3195676692v1.0487593985h1.1560150084c.2065601452,0,.3742669078-.0392481203,.5030075061-.1178007519,.1287994179-.0784962406,.1932518748-.2178383459,.1932518748-.4179135338,0-.2215601504-.0851503738-.3678947368-.2555075123-.4388345865-.1468421016-.0495112782-.3342857058-.0742105263-.562048858-.0742105263h-1.034718019Zm0,1.8361466165v1.2682894737h1.1548307979c.2061654083,0,.3668257209-.0279699248,.4816353262-.0839661654,.2084210474-.1032518797,.3126340037-.3011278195,.3126340037-.5937969925,0-.247387218-.1010550617-.4172932331-.3029911469-.5098308271-.112781952-.0517105263-.2712405947-.0785526316-.4753759278-.0806954887h-1.1707330531Z"/>
          <path class="cls-1" d="M102.4850386301,81.1587406015c.2368984903,.1061842105,.4326341042,.2736654135,.5869172784,.5025,.1391729288,.2017105263,.2293420995,.4357894737,.2706202939,.7020676692,.0239097738,.1560338346,.0336090217,.3806954887,.0293233075,.6740413534h-2.4735876779c.013700522,.3406578947,.1321779626,.5795300752,.3551478818,.7166165414,.1356202973,.0852067669,.2987593909,.1277819549,.4895889603,.1277819549,.2023283154,0,.3667080105-.0518796992,.4930801878-.1558082707,.0689097727-.0560526316,.1298684178-.1339849624,.1827631533-.2336842105h.9065413305c-.0238533829,.2015413534-.1335902222,.4061278195-.329154127,.6138157895-.3042293156,.3302819549-.7301503575,.4953947368-1.2777067346,.4953947368-.4520275693,0-.8507706552-.1392857143-1.1962781653-.4178571429s-.5182894606-.7318421053-.5182894606-1.3597556391c0-.5882706767,.1560338306-1.0393984962,.467932319-1.3532706767,.3118420974-.3139849624,.7167293052-.4710338346,1.2144924505-.4710338346,.2954887143,0,.5617669031,.0531766917,.7986090024,.1591917293Zm-1.3284022221,.7671992481c-.1255263126,.1293045113-.2042481151,.3045112782-.2365601444,.5256203008h1.5298871794c-.0161842101-.2357706767-.0950187946-.4145300752-.2365037534-.5366729323-.1415977408-.1220300752-.3171992401-.1830451128-.526748107-.1830451128-.2278734348,0-.4046616439,.0646804511-.5300751746,.1940977444Z"/>
          <rect class="cls-1" x="100.5392680026" y="79.9991729323" width="2.2983834006" height=".7163909774"/>
        </g>
        <g>
          <path class="cls-1" d="M198.6053745478,37.2508082707c-.00231203,.0567293233,0,.0055827068,0,0h0Z"/>
          <rect class="cls-1" x="199.6659196338" y="39.2133270677" width="1.6570488303" height="5.2540037594"/>
          <circle class="cls-1" cx="200.4944722444" cy="37.5216541353" r=".9691635216"/>
          <path class="cls-2" d="M205.8095472981,39.0197368421c-1.1228007235,0-1.6016165009,.5811090226-1.740112738,.7955639098v-.6019736842h-1.6569360484v5.2540037594h1.6569360484v-3.1021240602s.1437405979-.9231203008,.9230074955-.9231203008c.7793796796,0,.9156202776,.847443609,.9156202776,1.0858082707v2.9621052632h1.6567668754v-3.1247932331c0-.9987406015-.3782142762-2.3454699248-1.7552819105-2.3454699248Z"/>
        </g>
        <path class="cls-1" d="M125.6994553369,58.9031954887l-.4973120175,.0264473684-.2605827002-.265037594-.0632706751-.4403571429-.2497556328,.1488721805-.1184210496,.5431015038-.3829511181-.3807518797-.0286466158-.369981203-.3655263066-.2959962406-.1358458612-.1269360902-.413966155,.0152819549,.1448120264,.3637218045,.5058834459,.2605263158,.0897180428,.087406015-.1053947342,.0592105263,.0134210523,.2910338346-.2390413473,.109906015-.2076315737-.0394736842-.1358458612-.177575188,.3372180366,.0067105263,.0852067648-.1268796992-.761898477-.4776315789-.0637218029-.2120864662-.2932330753,.2842669173-.3107706688-.052443609-.446729312,.6242481203-.0834022535,.2408458647-.2977443534,.0371616541-.442161643,.017537594-.2672932263-.1139097744-.096428569-.5233646617,.0856608778-.2538157895,.4466699358-.1139097744,.4946616416,.0829511278,.0506390965-.2758082707-.2102819496-.0416729323,.0568984948-.4246804511,.4902067545-.0941729323,.3309586383-.4991165414,.3524436001-.0721804511,.3242481121,.0371616541,.1179699218-.0044548872-.0789473664-.4556390977-.3874623962,.1708646617-.1466729286-.3372180451-.2300187912-.0242481203-.0502443596-.2340789474,.1793796947-.2080827068,.4336466056-.1860902256,.1071992454-.2058834586c-1.7274811594-1.4233646617-3.9567292234-2.2507894737-6.3653005911-2.1744924812h-.0197932326c-2.0956014508,.0726315789-4.0113720791,.8170488722-5.5487028673,2.0189097744l.4816380798-.0197368421,.2170461131,.1116541353,.4072556288,.0744924812,.0372180442,.1578383459,.6439313417,.0021992481-.0941193255-.2035714286-.5718581181,.0022556391,.1313909774-.1313909774-.052443609-.1489285714-.5165413534,.017537594,.5493017387-.4404135338,.538590212-.017481203,.2672368354,.3417293233,.4206766811,.0089661654,.2448496179-.2565225564,.195112777,.0896616541-.3372744276,.3529511278s-.4838909652,.0260526316-.4618984846,.0237969925c.0259962399,0,.0524999987,.3327631579,.0524999987,.3327631579l.5870300604-.0372744361,.0568984948-.1596428571,.4049999898-.0372180451,.0394736832-.2407894737-.2385902195-.0305075188,.0699812012-.2170488722,.1815789428-.0614661654,.63727442,.0089661654-.3417293147,.3305075188,.065921051,.2431015038,.3677255546,.0439285714-.0394172922-.4444172932,.3416729237-.1928007519,.6175375784-.0942293233,.7246804328,.2933458647,.1860902209,.0744360902,.0108270674,.3417293233,.286973677,.0614097744-.1313909741,.2735526316-.3260526233,.0112218045-.0789473664,.0017481203-.1093984935,.3157330827-.9327631343-.1883458647,.7134586286-.4116541353-.2865789401-.2256203008-.6219360745,.1004887218-.0547556377,.0569548872h-.002255639l-.0084586464,.0134210526-.1753759354,.1946616541-.2954887143,.035018797,.028195488,.1488157895,.1053947342,.0394736842-.002255639,.0484398496-.2407894676,.0434774436-.0134774433,.1404135338-.2318233024,.0197368421-.0506954874-.2780639098-.4134586362,.1421616541-.8345864451,.5256203008,.1071992454,.3479323308,.2430451066,.1466729323,.4798872059,.0506954887,.0174248116,.5407894737,.2188533779-.0439285714,.1883458599-.4291353383,.5014285588-.1771240601-.0219924806-.6484962406,.2739473615-.2233082707,.6852631406,.1381015038-.0327631571,.4313909774,.1816917247-.0067105263,.4928571304-.2628383459,.0416729313,.5628383459,.1704135295,.0941729323,.2017669122,.1139661654-.0044548871,.334962406-.1798308225,.0677255639,.0089661652,.2322744361,.2803195418,.1183646617v.2296804511l-.1206766887,.0133646617-.0018045112-.0044548872-.1470676655-.0416729323-.3896616443-.105-.02830827-.1685526316h0l.1511278157-.1139661654-.0044548871-.1533270677-.1686654093-.0372180451-.0349624051,.1443609023-.2932894663,.0547556391-.0287030068-.0085714286v.0152819549l-.1008834561,.0197368421-.0874624038-.1640977444-.096428569-.0394736842-.2098872127,.0062593985-.0923120277,.0812030075,.0066541352,.1730639098,.1794360857,.052443609,.1775751835,.0197368421-.0394736832,.017537594-.1533834548,.1838345865-.0743796974-.0852067669-.155187966-.0372180451-.4094548769,.4139097744,.0546992467,.0434774436-.6112217891,.3659774436-.5668984819,.6305075188-.0309022549,.2735526316-.5758082561,.4076503759-.2825187899,.3018045113,.0524436077,.5870300752-.4116541249-.1753195489-.0085150374-.3435338346-1.1256766633,.0394736842-.5735526171,.3152255639-.2367857083,.474924812-.0874060128,.3722368421,.1753195444,.3546992481,.4618984846,.0394736842,.7139689097-.5121428571,.072234078,.2408458647-.2103383406,.4268796992,.5605263016,.0767481203,.0834050286,.8560714286,.76640698,.104943609,.4664097627-.5758646617,.5910902106,.0986842105,.2170488667,.2803195489,.5605263016-.0525,.0107706764-.1663533835,.3130826989,.139906015,.3681202915,.5345864662,.6040037441-.0112218045,.2367857083,.3812030075,.0457894725,.4748684211,.4359022446,.1488721805,.2407894676,.0812030075,.8409022344-.0197368421,.2605263092,.3964285714,.3766917198,.104943609-.0614661639,.3372180451-.3919172833,.5345864662-.0788909755,1.1515601504-.3592669082,.3045112782-.5471052493,.0022556391-.1708646573,.3237969925v.0022556391l.1533834548,.5892293233-.1291353351,.1771240602-.4404135227,.6045676692-.1793796947,.3569548872-.5560714145,.2910902256-.3726315695,.0676691729-.0085714284,.160093985,.2627819482,.0654699248-.0263909768,.1731203008-.2278195431,.2323308271,.1493233045,.1748684211,.2842669101-.0022556391-.0085150374,.2193045113-.068120299,.2165413534-.0197368416,.1754323308,.4291917185,.3372180451-.0479887206,.1838345865-.56909773,.0085714286-.5825187823-.4727255639-.4664097627-.7601503759,.0372180442-.7488721805-.3484398408-.4332518797,.1093984935-.760093985-.2013157844-.0479887218-.0546992467-1.6337030075s-.56909773-.4026879699-.5999999848-.4026879699c-.0327631571,.0021992481-.2978571353-.0592105263-.2978571353-.0592105263l-.0654135322-.3085714286-.7533834396-.8802631579,.0613561618-.3287030075,.0040573704-.5318796992,.4883458523-.3659210526-.0896616519-.5910902256-.733646598-.0304511278-.5932894587-.6332706767-.4072556288-.0959774436-.2627819482-.0394736842,.0219924806-.2389849624-.3350187885-.0372180451,.0063185212,.1359022556-.8409049662-.1771804511-.3524436001-.5035714286,.1273308239-.2543233083-.5542669033-.7511278195-.1093984935-.5605827068-.2143984908,.0089661654,.0897180428,.5430451128,.3830075091,.5516165414-.030563909,.2233646617-.3112217966-.0372180451-.4027443507-.635018797-.0263909768-.7551879699-.4026879598-.1776315789-.0175375935-.5430451128c-.4511841991,1.165093985-.6812029903,2.4373308271-.6350187809,3.7620676692,.1772368376,5.2661842105,4.6069735678,9.404943609,9.8713531341,9.2273684211,.0062593983-.0022556391,.0129699245-.0022556391,.0215413528-.0022556391,2.9759209775-.1071428571,5.5903757986-1.5740413534,7.2658080871-3.7790977444l-.3152255559,.0107142857-.0219924806-.634962406-.3812029979-.4771804511-.0264473678-.7646052632-.2865789401-.2690413534-.0349624051-.3152819549,.3305075104-.687518797-.7094548693-1.1605827068,.0524436077-.8036278195-.6062593832-.0416729323-.2300751822-.2147932331-.4049435988,.0134210526-.1995676641,.1968609023-.7139097564,.0242481203-.0215413528,.0632142857-.3964285614,.0157330827-.94798574-1.0094548872-.0197961905-.8103947368,.1488721767-.0614097744,.0457894725-.3107706767-.2143984908,.0085150376-.0986248627-.3237969925,1.0291887489-.7973684211-.0175346136-.5385902256,.5058804659-.3040601504,.2103383406,.0130263158,.4246240494-.0130263158,.3260526233-.1905451128,1.0709210256-.1206766917,.0174812026,.547556391,.8520676476,.1861466165,.1704135295,.1139097744,.1556390938-.0044548872-.0107706764-.2978007519,.4860902133-.0655263158,.4771804391,.3305075188,.761898477-.0263909774,.0506954874-.0502443609c-.0834022535-.2538721805-.1798872135-.5036278195-.2825187899-.7489285714Zm-4.6006577785-2.5642669173l.0829511257-.1376503759,.3111654057-.0744924812,.0919736819,.3784962406,.1753759354,.265093985,.1134586438,.1228195489,.2057706715,.0722368421-.1815789428,.2318233083-.3677255546,.0484398496-.2780639027,.0085714286,.0197368416-.3305075188,.2296240543-.0547556391-.0259962399-.1533834586-.2193608967-.1291353383-.152875936-.0964285714-.0044548871-.1511278195Zm-.4969142977,.6130263158l.1816323508-.3129699248,.2537593921-.0677255639,.1861466118,.0744360902-.0107142854,.2057706767-.3812029979,.2910902256-.223364656,.0067105263-.0062564154-.1973120301Zm-4.9688938349,1.1103947368l.2740601435-.0090225564,.0501879687-.1488721805,.1094548845-.0040601504,.1251315758,.0220488722-.0484398484,.1116541353-.1359022522,.0152255639-.0237969919,.1336466165-.1008834561,.0676691729-.1686090183,.0197368421c-.0067105261-.0394172932-.0107142854-.0676691729-.0107142854-.0676691729l-.0659774419,.0018045113-.0045112781-.1421616541Zm-.376240592,.2627819549l.0040601503-.1381578947,.0856578926-.1139097744,.1224248089,.0901691729-.0152255635,.1377067669-.1969172883,.0241917293Z"/>
        <g>
          <g>
            <path class="cls-1" d="M174.0677435887,40.1985338346l1.3698539577-.5656578947-.3218840593-1.6043796992-1.432439249,.1155451128c-.179887218-.384924812-.4149291254-.7326879699-.693387765-1.0376503759l.5464849486-1.3172368421-1.3624059806-.9077819549-.9227255406,1.0847368421c-.3901691631-.1335338346-.804191709-.2106203008-1.2277400985-.222406015l-.5495906837-1.3272180451-1.6039807449,.3214849624,.1194883012,1.4690977444c-.3579699158,.1844548872-.6808082535,.4181954887-.9644548629,.6885902256l-1.3937552428-.5789097744-.9071093607,1.3628571429,1.192105233,1.0129511278c-.1064097717,.3445488722-.1693943686,.7052819549-.1819736796,1.0752067669l-1.4767064032,.6106578947,.3219319963,1.6042105263,1.6286841694-.1322932331c.1616729282,.3077819549,.3584774346,.5903571429,.5852255491,.8436654135l-.6347368261,1.5277443609,1.361560116,.9073308271,1.0661277926-1.2555451128c.3228383377,.1083834586,.6603947202,.1772368421,1.0061841851,.2030639098l.627744345,1.5182142857,1.6044360497-.3213157895-.12941729-1.5898308271c.3341165329-.1591917293,.6403759237-.3585902256,.9153383227-.5927819549l1.4528007152,.6023684211,.9079511049-1.3602631579-1.1508270386-.9788345865c.1351171093-.3677255639,.2199248065-.7565413534,.2472180389-1.1556203008Zm-3.5794172028,2.2882330827c-1.4206536516,.3234586466-2.833477372-.5658270677-3.1571051834-1.9884586466-.3214849543-1.4203759398,.5683082563-2.8334774436,1.989304461-3.1558082707,1.4215601145-.3230075188,2.833477372,.5680263158,3.1567104466,1.9867105263,.3228383377,1.4228007519-.5682518653,2.8356203008-1.9889097242,3.157556391Z"/>
            <path class="cls-1" d="M181.4755441534,41.0266353383l.9648495997-.2546052632-.0707706749-1.100075188-.9670488478-.0505827068c-.0865037572-.2728195489-.211635333-.5261278195-.3701503666-.7546240602l.4825939728-.8304135338-.8280450919-.7272744361-.7128383279,.6415037594c-.2490225501-.1240601504-.5178947238-.212537594-.7999059948-.2581015038l-.2475563847-.9351879699-1.100526288,.0712781955-.0503571416,.9911842105c-.2555075123,.0914097744-.4926879575,.2185150376-.7060150198,.3734210526l-.8784586244-.5105075188-.7276691545,.8286654135,.705507501,.782481203c-.1025187944,.2204887218-.1750375896,.4559774436-.2172180396,.7012218045l-1.0409210263,.2754135338,.0725751861,1.0998496241,1.0987217768,.0573496241c.0799103995,.2195864662,.1863721757,.4259774436,.3149436011,.6153383459l-.5599623919,.9632142857,.8275939641,.7269924812,.8236510157-.7428947368c.2059918154,.1010526316,.4249579753,.1772368421,.6534542101,.2255075188l.2833082635,1.0693984962,1.100413506-.0709962406,.0547556377-1.0731203008c.2380263098-.0760150376,.4600939733-.1818045113,.6642856975-.3139285714l.9162405784,.5319924812,.7268232899-.8262969925-.6804135166-.7565413534c.1234398465-.2332894737,.2142293179-.4853007519,.268139091-.7496616541Zm-2.5931954232,1.2082330827c-.9770820109,.0885902256-1.8407706302-.6310714286-1.9298683723-1.6092857143-.0873496219-.9768045113,.6321428412-1.8407142857,1.6096240195-1.9291353383,.9775375693-.0883646617,1.8407706302,.6323120301,1.9298164772,1.6083834586,.0886421184,.9783270677-.6321428571,1.8417293233-1.6095721244,1.930037594Z"/>
          </g>
          <path class="cls-1" d="M176.6440217191,46.727424812l.6699247951-.0573496241,.0808082686-.7383834586-.6365413373-.1461654135c-.0246428565-.1911654135-.0789473664-.3739849624-.1580075148-.5439473684l.4178571323-.4954511278-.4657330709-.5793045113-.547781941,.3429699248c-.1507850912-.1112030075-.3188909694-.2011466165-.5013721678-.2643609023l-.0552067655-.6497368421-.7384962219-.0805827068-.1494924774,.6523308271c-.1802776089,.0306203008-.352725555,.0878007519-.5121992352,.1657330827l-.5239285582-.4413721805-.5791353237,.4655075188,.3770907714,.6016917293c-.0929930342,.1344360902-.1694028067,.282406015-.2254554369,.4407518797l-.7233834404,.0614661654-.079962404,.7386090226,.7233834404,.1663533835c.0273496234,.1546804511,.0742669154,.3041165414,.1373120266,.445093985l-.4840037472,.5741165414,.4648308153,.5793609023,.6329887058-.397556391c.1255827036,.0907894737,.2624436024,.1670864662,.4083834483,.2256766917l.063496239,.7426691729,.7384962219,.0813157895,.1612218004-.7060714286c.1668045071-.0231203008,.3262781872-.0675,.4779135218-.1316165414l.545639084,.4601503759,.5799811884-.4644360902-.3641165322-.5812781955c.1086654108-.1405827068,.1986090175-.2973496241,.2654887151-.4661842105Zm-1.8628758928,.500018797c-.6590413367-.0544736842-1.1486841815-.6331578947-1.0943796716-1.2928759398,.0560526302-.6588721805,.6338345705-1.1484586466,1.2937781628-1.0934774436,.6590413367,.054924812,1.1486841815,.6338345865,1.0938721528,1.2922556391-.0546428558,.6596616541-.6342856983,1.1494736842-1.293270644,1.0940977444Z"/>
        </g>
        <path class="cls-1" d="M189.0118597525,23.3496428571h6.7077065975c.2147368367,0,.3894360804-.1747556391,.3894360804-.3894924812v-4.6059586466c0-.0008458647,.0002819549-.0015789474,.0002819549-.0023684211,0-.2143984962-.1748120257-.3888157895-.3895439818-.3888157895h-6.707880651c-.2147368367,0-.3894360804,.1747556391-.3894360804,.3895488722v4.607593985c0,.2147368421,.1746992437,.3894924812,.3894360804,.3894924812Zm2.3062217463-2.8995676692l-2.3304698659,2.3118045113v-4.0676503759l2.3304698659,1.7558458647Zm4.4256765799-1.7288345865v3.8609210526l-2.1990176752-2.1814285714,2.1990176752-1.6794924812Zm-2.490338283,1.9020676692c.0039473683,.004906015,.0074436088,.010037594,.0119548869,.0146052632l2.365545053,2.3465413534h-6.3492291629l2.3312029486-2.3123120301,.6830075015,.5146240602c.0325375932,.0245300752,.0711654117,.0367669173,.1098496213,.0367669173,.0390789464,0,.0781015018-.012462406,.1108082679-.0375l.7368608836-.5627255639Zm2.403327007-2.295112782l-3.2516680533,2.4835714286-3.2963393-2.4835714286h6.5480073534Z"/>
        <path class="cls-1" d="M115.6958089731,85.3112593985h.1749811986v.7437969925c0,.0446616541,.0248684204,.0856015038,.0646240585,.1061842105,.0172556387,.0089661654,.0361466156,.0133646617,.0549812016,.0133646617,.0241917287,0,.0483834574-.0073308271,.0689097727-.0218233083l1.1928947067-.8415225564h1.1047585374l.5557301424,.3797932331c.0202443604,.0138157895,.0438721793,.0208646617,.0675563893,.0208646617,.0190601499,0,.0382330817-.0046240602,.0558270663-.0138721805,.0391917283-.0206954887,.0637218029-.0613533835,.0637218029-.1057330827v-.6996992481h.199962401c.2757518727,0,.5175563779-.2643045113,.5175563779-.5656578947v-1.5689661654c0-.2829699248-.2224060094-.4964097744-.5175563779-.4964097744h-2.682459456c-.2672932331,0-.5545517404,.182537594-.5660554996,.4783646617h-.3554323218c-.3093045035,0-.5425939713,.2067293233-.5425939713,.4807894737v1.5690225564c0,.2826315789,.2484586403,.5215037594,.5425939713,.5215037594Zm.5935150226-2.5532706767c0-.1538345865,.1696240559-.2571992481,.3279727988-.2571992481h2.682459456c.1639285673,0,.2784022486,.1057894737,.2784022486,.2571992481v1.5689661654c0,.1541165414-.1190977414,.3265037594-.2784022486,.3265037594h-.3195112701c-.0660902239,0-.1196616511,.0535150376-.1196616511,.1196052632v.592612782l-1.0115977188-.6914097744c-.0199060145-.0135338346-.0434774425-.0208082707-.0674999983-.0208082707h-1.1641888176c-.1593637805,0-.3279727988-.1678195489-.3279727988-.3265037594v-1.5689661654Zm-.8968984736,.4627443609c0-.1585714286,.1526503721-.2415789474,.303383451-.2415789474h.3543608933v1.3478007519c0,.2907518797,.2756390908,.5656578947,.5671269281,.5656578947h1.1271963374l.2624999934,.1793796992h-.7927443409c-.0246992475,0-.0488316891,.0076691729-.0689661637,.0219360902l-1.0353383197,.7303195489v-.6326503759c0-.0660338346-.0535150362-.1196052632-.1195488692-.1196052632h-.2945864587c-.164492477,0-.303383451-.1291917293-.303383451-.2822368421v-1.5690225564Z"/>
        <path class="cls-1" d="M145.8840976841,44.1478759398h3.5466540457c.0821616521,0,.1487030038-.0665977444,.1487030038-.1487030075,0-.0756766917-.0037781954-.1498308271-.0095864659-.2231390977h.8420300539c.0821616521,0,.1487593947-.0665413534,.1487593947-.1487030075,0-1.1288345865-.8160902049-2.0772180451-1.074699221-2.3494172932,.2635714219-.2172180451,.4319022088-.5460338346,.4319022088-.9134774436,0-.652612782-.5309247627-1.1835902256-1.1834811372-1.1835902256-.2403910432,0-.4759962286,.0744924812-.6727443439,.2104511278-.1278383426-.0445488722-.2645300685-.0698684211-.4073684108-.0698684211-.6862181382,0-1.2445488407,.5582706767-1.2445488407,1.2445488722,0,.3836278195,.1747556347,.7271052632,.4485902142,.9556578947-.310488714,.3109398496-1.1229662786,1.242575188-1.1229662786,2.477537594,0,.0821052632,.0666505158,.1487030075,.1487557769,.1487030075Zm4.3736841-.6692481203h-.726597726c-.181127815-.9827255639-.8249435882-1.6988345865-1.0846240327-1.9537218045,.0037781954-.0031015038,.007105263-.0066541353,.0108270674-.0098684211,.0903947346,.0217105263,.1832179723,.0328759398,.2769924742,.0328759398,.1761090181,0,.3428007432-.0396992481,.4930826943-.1090601504,.1483646579,.1511278195,.9563345623,1.0182518797,1.0303195228,2.0397744361Zm-1.5234022172-4.0003195489c.4885714162,0,.8860150152,.397556391,.8860150152,.8861278195s-.397443599,.8860150376-.8860150152,.8860150376c-.0136466162,0-.0272331485-.0009586466-.0408834576-.0015789474,.12941729-.1961842105,.2052631527-.4307706767,.2052631527-.6828947368,0-.4172368421-.2070676639-.7863157895-.5230826936-1.0122180451,.1117105235-.0495676692,.2327856394-.0754511278,.3587029985-.0754511278Zm-2.0271991969,1.0876691729c0-.5222932331,.4249060043-.9471428571,.9470864422-.9471428571,.5222405084,0,.9470864422,.4248496241,.9470864422,.9471428571,0,.5222368421-.4248459338,.9470864662-.9470864422,.9470864662-.5221804379,0-.9470864422-.4248496241-.9470864422-.9470864662Zm.4087781852,1.1203195489c.1631390936,.0787781955,.3453383371,.1242293233,.5383082571,.1242293233,.1908834538,0,.3711654042-.0444924812,.5329547942-.1216353383,.1972519543,.1865977444,1.0220263696,1.0311090226,1.0903158415,2.1615225564h-3.2402254821c.0669360885-1.1094360902,.8612593767-1.9529323308,1.0786465893-2.1641165414Z"/>
        <g>
          <path class="cls-1" d="M166.1782513068,9.6437593985h7.3386088372c.0980075163,0,.1775187925-.0793984962,.1775187925-.177518797V5.3234774436c0-.0980639098-.0795112762-.177518797-.1775187925-.177518797h-7.3386088372c-.0981202983,0-.1775751835,.0794548872-.1775751835,.177518797v4.1427631579c0,.0981203008,.0794548852,.177518797,.1775751835,.177518797Zm.1775793223-4.1427067669h6.9834586466v3.787612782h-6.9834586466v-3.787612782Z"/>
          <path class="cls-1" d="M165.763946806,10.5906766917h3.1677066869c-.0379511269,.3314661654-.1775145931,.9869548872-.4799999879,1.1837030075h-1.2673307951c-.1307142824,0-.2367293173,.1059586466-.2367293173,.2367293233,0,.1307142857,.1060150349,.2367293233,.2367293173,.2367293233h5.4447742985c.1307142824,0,.2367293173-.1060150376,.2367293173-.2367293233,0-.1307706767-.1060150349-.2367293233-.2367293173-.2367293233h-1.1516729032c-.3024205439-.1967481203-.44199247-.8522368421-.4799435969-1.1837030075h2.9336277454c.3916396685,0,.710187952-.3185526316,.710187952-.7101879699V4.9092293233c0-.3916353383-.3185482835-.7101879699-.710187952-.7101879699h-8.1671614478c-.3915748235,0-.710131561,.3185526316-.710131561,.7101879699v4.9712593985c0,.3916353383,.3185567375,.7101879699,.710131561,.7101879699Zm5.0950938562,1.1837030075h-1.7888909323c.2487969862-.4340977444,.3206433051-1.0030827068,.3376691644-1.1837030075h1.1134962125c.0170864657,.1806203008,.0888721782,.7496052632,.3377255554,1.1837030075Zm-5.3318231736-6.8651503759c0-.1306015038,.1061842078-.2367293233,.2367293173-.2367293233h8.1671614478c.1306015005,0,.2367293173,.1061278195,.2367293173,.2367293233v4.9712593985c0,.1306015038-.1061278169,.2367293233-.2367293173,.2367293233h-8.1671614478c-.1305451095,0-.2367293173-.1061278195-.2367293173-.2367293233V4.9092293233Z"/>
        </g>
        <g>
          <path class="cls-1" d="M193.158739347,62.8370300752c0-.4087218045-.3314097661-.739906015-.7399059963-.739906015-.4086654032,0-.7399623873,.3311842105-.7399623873,.739906015,0,.4087781955,.3312969841,.740075188,.7399623873,.740075188,.4084962303,0,.7399059963-.3312969925,.7399059963-.740075188Z"/>
          <path class="cls-1" d="M192.3957130505,60.8780639098c-.6799059979,0-1.313566632,.3051315789-1.7384210087,.8370676692-.0685666759,.0858270677-.0545864648,.2109022556,.0312453542,.2794172932,.03659299,.0293233083,.0804087783,.0435338346,.1239426118,.0435338346,.0584210512,0,.1162829521-.0256578947,.1555263119-.0747744361,.3490037506-.4369172932,.8693232863-.687518797,1.4277067309-.687518797,.5566353243,0,1.0759962134,.2491353383,1.4247792327,.6835714286,.0687969925,.0857142857,.1939849624,.0993045113,.2795252355,.0305639098,.0856015016-.0687406015,.0993045088-.1939285714,.030563909-.2795300752-.4247368314-.5289473684-1.0570488455-.8323308271-1.7348683772-.8323308271Z"/>
          <path class="cls-1" d="M192.3571980139,59.284962406h-.0003947368c-1.0753195217,0-2.0774999475,.505093985-2.7493984268,1.3463345865-.0685150359,.0858270677-.05458174,.2329511278,.0312406007,.3014661654,.0366541344,.0293233083,.0805310427,.0435338346,.1240037563,.0435338346,.0583646602,0,.1162218016-.0477067669,.1554135299-.0968233083,.5961090075-.7462781955,1.4850563535-1.1967857143,2.4387969309-1.1967857143h.0003383459c.9508082467,0,1.8379510814,.4422180451,2.433721743,1.1844360902,.0688582406,.0857706767,.1939849575,.1159398496,.2795300681,.0470864662,.0856015016-.0687406015,.0993045088-.2048684211,.030563909-.2905263158-.6717293063-.8367293233-1.6717104841-1.3387218045-2.7438157202-1.3387218045Z"/>
          <path class="cls-1" d="M192.3882694417,57.8453007519c-1.4745676319,.0003947368-2.8492104543,.6623684211-3.7712593032,1.8161278195-.0686278178,.0858270677-.0545864648,.2109586466,.0311278188,.2795300752,.0367105254,.0293796992,.0805263138,.0435338346,.1240601472,.0435338346,.0583646602,0,.1161654106-.0256015038,.1554699209-.0747180451,.8462593771-1.0589097744,2.1076127287-1.6663533835,3.4606578073-1.6668045113,1.3490977103,0,2.6079698589,.6040601504,3.4536653263,1.6572180451,.0689661637,.0857142857,.1939285665,.0992481203,.2795864591,.0306203008,.0856015016-.0687969925,.0993045088-.1939285714,.030563909-.2795300752-.921710503-1.1477819549-2.2934773857-1.8059774436-3.7638720854-1.8059774436Z"/>
        </g>
        <g>
          <path class="cls-1" d="M171.5267098183,65.8218609023l-2.1956912193-1.0917857143c-.0337260176-.0167481203-.0708312798-.0254887218-.1084440608-.0254887218-.3145488642,0-.5802067523,.2544924812-.5802067523,.5555639098v2.3392105263c0,.3010714286,.265657888,.5555075188,.5802067523,.5555075188,.0374436081,0,.0743796974-.0086278195,.107880151-.0251503759l2.2087175348-1.0920676692c.2965601429-.147575188,.446898485-.3521052632,.446898485-.6078947368,0-.1752631579-.079962404-.4232142857-.4593608907-.6078947368Zm-.203961896,.7794360902l-2.1393651125,1.0577819549c-.0302819541-.0133646617-.0539661641-.0393609023-.0539661641-.0597180451v-2.3392105263c0-.019962406,.0240789468-.0460150376,.054078946-.0594360902l2.1282518259,1.0582894737c.1172368391,.0570676692,.1872744314,.1209586466,.1872744314,.1707518797,0,.0206954887,0,.0838533835-.1762739268,.1715413534Z"/>
          <path class="cls-1" d="M174.4870104954,68.9372368421v-4.9859210526c0-.6060902256-.4930219716-1.0990601504-1.0991165136-1.0990601504h-6.812311858c-.6060902103,0-1.0991165136,.4929699248-1.0991165136,1.0990601504v4.9859210526c0,.6060902256,.4930263033,1.0990601504,1.0991165136,1.0990601504h6.812311858c.606094542,0,1.0991165136-.4929699248,1.0991165136-1.0990601504Zm-8.5234960253,0v-4.9859210526c0-.3375,.2745676622-.6120676692,.6120676537-.6120676692h6.812311858c.3374999915,0,.6120676537,.2745676692,.6120676537,.6120676692v4.9859210526c0,.337443609-.2745676622,.6120112782-.6120676537,.6120112782h-6.812311858c-.3374999915,0-.6120676537-.2745676692-.6120676537-.6120112782Z"/>
        </g>
        <path class="cls-1" d="M125.3216921885,99.1877255639c-.3794548776,0-.7386653949,.162462406-.9892668923,.4413157895-.2506014974-.2787406015-.6102631425-.4413157895-.9890413284-.4413157895-.7328540907,0-1.3290225228,.5962781955-1.3290225228,1.3290789474,0,.2994924812,.0932142834,.5501503759,.3023714397,.812481203,.0908992271,.1141353383,.1930796756,.2187969925,.3011811767,.3294360902l.075169171,.077593985c.2184586411,.2257894737,.4452661937,.4512406015,.6643420885,.6683458647,.1091729296,.1081015038,.2182330772,.2180639098,.3267293151,.3265601504,.1096240574,.1097932331,.2194736787,.2230827068,.3294360819,.3327631579l.2353195429,.2422556391c.0230639092,.0230639098,.0543609009,.0505263158,.086954885,.0505263158h.0001691729c.0327067661,0,.0640037578-.027575188,.087067667-.0508082707,.0858270655-.0862781955,.171766913-.1870488722,.2578195424-.2729887218,.1569360863-.1567669173,.3134210447-.3141541353,.4697932212-.4714849624,.2054918197-.2067857143,.4110338242-.4135150376,.6177098648-.6190601504,.0444893666-.0440977444,.0899968843-.0881954887,.1357863568-.132462406,.3497932242-.3384022556,.7463909586-.7218609023,.7463909586-1.2932706767,0-.7328571429-.5961653985-1.3289661654-1.3289097409-1.3289661654Zm.411428561,2.4452819549c-.0465789462,.045112782-.0929323285,.09-.1382142822,.135-.2070676639,.2058270677-.4128383354,.4128947368-.6187217889,.619962406-.1562030036,.1571052632-.3124060071,.3143233083-.4691729205,.4709210526-.0571804497,.0570676692-.1142481174,.1143045113-.1713721761,.1715977444l-.1483082669-.1480263158c-.1097932303-.1094548872-.2195300696-.2190225564-.329097736-.3288157895-.1087781927-.1088909774-.2182330772-.2171616541-.3275751797-.3255451128-.2182894682-.2162593985-.4440225452-.439906015-.660676675-.6637781955l-.0760714266-.0781015038c-.1036466139-.1060150376-.2015413483-.2061654135-.2847744289-.3106015038-.1743578711-.2186278195-.2487405952-.4157706767-.2487405952-.6589285714,0-.5971240602,.4858646494-1.0829323308,1.0829886944-1.0829323308,.3506954799,0,.6813721632,.1770676692,.8833646393,.4621804511l.0042293232,.0120676692c.0228947363,.0332706767,.0605669844,.0654135338,.1009398471,.0654135338h.0005075188c.0402631569,0,.0778195469-.0315225564,.1008834561-.0645676692,.2027850346-.290018797,.5348684075-.475093985,.8883834362-.475093985,.5970676541,0,1.0828759125,.4858082707,1.0828759125,1.0829323308,0,.4670300752-.3261090143,.782424812-.6714473515,1.1163157895Z"/>
        <g>
          <path class="cls-1" d="M134.0789852004,48.9504699248v-2.4746616541c0-.0962030075-.0779887198-.1742481203-.1742481159-.1742481203h-3.9203570438c-.0962593961,0-.1742481159,.0780451128-.1742481159,.1742481203v.4356203008h-.1496020476c-.6634430446,0-1.2031610761,.5471052632-1.2031610761,1.2196240602,0,.672575188,.5397180315,1.2197368421,1.2031610761,1.2197368421h.1942637006c.1899248072,.8456390977,.9681766673,1.4809962406,1.8971052152,1.4809962406h.5044736715c1.0390601241,0,1.8226127359-.8088157895,1.8226127359-1.8813157895Zm-4.4184553232,.0518233083c-.4713189893,0-.8546648443-.3908458647-.8546648443-.8712406015,0-.4802819549,.383345855-.8711842105,.8546648443-.8711842105h.1496020476v1.6906015038c0,.0173684211,.0008458646,.0345676692,.0013533834,.0518233083h-.150955431Zm.4980982794-.0518233083v-2.3004135338h3.571860812v2.3004135338c0,.8738345865-.6337217885,1.5328759398-1.4741165041,1.5328759398h-.5044736715c-.8785714064,0-1.5932706364-.6876315789-1.5932706364-1.5328759398Z"/>
          <path class="cls-1" d="M131.2372747459,45.7046616541c-.0770864642,.0567293233-.094060148,.164887218-.0378947359,.242593985,.0340601495,.0470300752,.0872368399,.0720676692,.1412593949,.0720676692,.035357142,0,.0711090208-.0107706767,.1020112756-.0331015038,.0266165407-.0192293233,.2608646551-.1968609023,.2846616469-.4952819549,.016522556-.2072368421-.0721804493-.4093421053-.2636278129-.6007894737-.3365977359-.3366541353-.0596052617-.6481015038-.0013533834-.7064097744,.0687969907-.0672744361,.0700375922-.1776315789,.0027631578-.2464849624-.0672180434-.0686842105-.1775751835-.069981203-.2463721742-.0027631579-.0108238165,.0106015038-.2649248053,.2629511278-.2669548805,.6128007519-.0011842105,.2136090226,.0881954865,.4118796992,.2655451061,.5892857143,.115150373,.115093985,.1698496198,.2242669173,.1628007478,.3244172932-.0099248118,.1406954887-.1383802034,.2402819549-.1428383423,.2436654135Z"/>
          <path class="cls-1" d="M132.4636093014,45.7044924812c-.0772556371,.0566165414-.0944548848,.165-.0381766908,.2427067669,.0340601495,.0470864662,.0872932309,.0721240602,.1412593949,.0721240602,.035357142,0,.0711090208-.0107706767,.1020112756-.0331015038,.0127443606-.0091917293,.312857135-.2303007519,.3418984876-.5940225564,.0197368416-.2485150376-.0881390955-.492518797-.3208646535-.7252443609-.1467857106-.1466729323-.221109017-.302593985-.2209365613-.4630263158,.0002222812-.2777819549,.2179478396-.4977067669,.2195267869-.4992857143,.0688533817-.0673308271,.0700375922-.1776879699,.0028195488-.2464849624s-.1775751835-.070037594-.2463721742-.0028759398c-.0131390974,.0129699248-.322048864,.3197932331-.3244704021,.7441353383-.0014694393,.2579887218,.1071959715,.4982142857,.3230606277,.7139661654,.1563157855,.1562593985,.2303007461,.3073308271,.2199844851,.4487030075-.0146085504,.2008646617-.195112782,.3389097744-.1997401247,.342406015Z"/>
        </g>
      </g>
      <path class="cls-35" d="M132.4046807314,155.9137218045h26.0925032811c1.2557103137,0,2.2831538968-1.2071616541,2.2831538968-2.682575188,0-1.4754699248-1.0274435831-2.6826879699-2.2831538968-2.6826879699h-26.0925032811c-1.255714254,0-2.2831014461,1.2072180451-2.2831014461,2.6826879699,0,1.4754135338,1.0273871921,2.682575188,2.2831014461,2.682575188Z"/>
      <path class="cls-39" d="M158.4971840125,156.4731203008h-26.0925032811c-1.255714254,0-2.2831014461,1.2071616541-2.2831014461,2.6826315789,0,1.4755263158,1.0273871921,2.6826315789,2.2831014461,2.6826315789h26.0925032811c1.2557103137,0,2.2831538968-1.2071052632,2.2831538968-2.6826315789,0-1.4754699248-1.0274435831-2.6826315789-2.2831538968-2.6826315789Z"/>
      <path class="cls-38" d="M158.4971840125,162.3977255639h-26.0925032811c-1.255714254,0-2.2831014461,1.2072180451-2.2831014461,2.6826315789,0,1.4755263158,1.0273871921,2.6826879699,2.2831014461,2.6826879699h26.0925032811c1.2557103137,0,2.2831538968-1.2071616541,2.2831538968-2.6826879699,0-1.4754135338-1.0274435831-2.6826315789-2.2831538968-2.6826315789Z"/>
      <path class="cls-37" d="M158.4971840125,168.322387218h-26.0925032811c-1.255714254,0-2.2831014461,1.2071052632-2.2831014461,2.6826315789h0c0,1.4754699248,1.0273871921,2.6826315789,2.2831014461,2.6826315789h4.1719171878l3.3163532997,2.8193796992v.4842293233c0,1.6547932331,1.152236813,3.0087406015,2.5606014391,3.0087406015h5.9947591741c1.4083045487,0,2.5605977527-1.3539473684,2.5605977527-3.0087406015v-.9292105263c.9773721721-.8079699248,2.041014986-1.6854699248,2.8816352655-2.3743984962h4.6066391622c1.2557103137,0,2.2831538968-1.2071616541,2.2831538968-2.6826315789h0c0-1.4755263158-1.0274435831-2.6826315789-2.2831538968-2.6826315789Z"/>
    </g>
  </g>
</svg>