<?xml version="1.0" encoding="UTF-8"?>
<svg xmlns="http://www.w3.org/2000/svg" width="287" height="180" viewBox="0 0 287 180">
  <defs>
    <style>
      .cls-1 {
        font-size: 6.9230499268px;
      }

      .cls-1, .cls-2, .cls-3 {
        fill: #fff;
      }

      .cls-1, .cls-3 {
        font-family: Gilroy-ExtraBold, 'Gilroy ExtraBold';
        font-weight: 700;
      }

      .cls-4 {
        fill: #f3a513;
      }

      .cls-5 {
        fill: #f9fafb;
      }

      .cls-6 {
        fill: #f9ba0b;
      }

      .cls-7 {
        fill: #ebe5fa;
      }

      .cls-8, .cls-9 {
        fill: #f0eeff;
      }

      .cls-10 {
        fill: #eae4fa;
      }

      .cls-11 {
        fill: #f5dbcc;
      }

      .cls-12 {
        fill: #f5dece;
      }

      .cls-13 {
        fill: #e8e2fa;
      }

      .cls-14 {
        fill: #f1f1ff;
      }

      .cls-15 {
        fill: #684bf7;
      }

      .cls-16 {
        fill: #8489eb;
      }

      .cls-17 {
        fill: #8ba0e8;
      }

      .cls-18 {
        fill: #8fa3e8;
      }

      .cls-19 {
        fill: #bdbaf7;
      }

      .cls-20 {
        fill: #bdbbf7;
      }

      .cls-21 {
        fill: #221fa5;
      }

      .cls-22 {
        fill: #211fa5;
      }

      .cls-23 {
        fill: #425cb8;
      }

      .cls-24 {
        fill: #364cb8;
      }

      .cls-25 {
        fill: #889de8;
      }

      .cls-26, .cls-27 {
        stroke-width: 1.7505324864px;
      }

      .cls-26, .cls-27, .cls-28, .cls-29, .cls-30 {
        fill: none;
        stroke-linecap: round;
      }

      .cls-26, .cls-27, .cls-29, .cls-30 {
        stroke-miterlimit: 10;
      }

      .cls-26, .cls-28 {
        stroke: #684bf7;
      }

      .cls-27 {
        stroke: #7376eb;
      }

      .cls-9, .cls-31 {
        mix-blend-mode: multiply;
      }

      .cls-28 {
        stroke-linejoin: round;
        stroke-width: .5700494238px;
      }

      .cls-3 {
        font-size: 4.6038599014px;
      }

      .cls-29 {
        stroke: #f9fafb;
      }

      .cls-29, .cls-30 {
        stroke-width: 1.8974416421px;
      }

      .cls-30 {
        stroke: #f3a513;
      }

      .cls-32 {
        isolation: isolate;
      }
    </style>
  </defs>
  <g class="cls-32">
    <g id="Layer_1" data-name="Layer 1">
      <g>
        <polygon class="cls-9" points="90.0639878442 64.1445914471 72.5321093477 74.2665317948 84.4650239652 81.1560854111 83.8620531213 81.4166967042 83.5303441297 84.645350957 90.0641030398 84.3887129476 107.5959161281 74.2667123986 90.0639878442 64.1445914471"/>
        <g>
          <g>
            <polygon class="cls-20" points="83.524078156 84.645350957 67.8680161569 75.6063110344 67.8680161569 57.5284719942 83.524078156 66.5675119168 83.524078156 84.645350957"/>
            <polygon class="cls-10" points="77.9094671544 81.4037534314 73.4826271584 78.8478483587 73.4826271584 60.7700695198 77.9094671544 63.3259143912 77.9094671544 81.4037534314"/>
          </g>
          <g>
            <polygon class="cls-18" points="123.1713686302 61.7549622791 83.524078156 84.645350957 83.524078156 66.5675119168 123.1713686302 43.6771232389 123.1713686302 61.7549622791"/>
            <polygon class="cls-7" points="105.5611734917 71.9222341823 101.1342732944 74.4780790538 101.1342732944 56.4002400136 105.5611734917 53.8443951421 105.5611734917 71.9222341823"/>
          </g>
          <g>
            <polygon class="cls-10" points="123.1672147427 43.6753774021 83.5201650736 66.5656456775 67.8641679219 57.5266659561 107.5112129449 34.6363976807 123.1672147427 43.6753774021"/>
            <polygon class="cls-14" points="105.5570798055 53.842589104 101.1302398095 56.3984339755 85.474298213 47.3594542541 89.901138209 44.8036093827 105.5570798055 53.842589104"/>
            <polygon class="cls-14" points="77.9461899276 63.3006900595 73.5192897303 60.7448451881 113.0853686948 37.9013532986 117.512268892 40.4571981701 77.9461899276 63.3006900595"/>
          </g>
        </g>
        <path class="cls-8" d="M146.787663612,153.4368593273l-40.4134118029-23.3327476019c-.5164064716-.2981166836-1.223223964-.4292350473-1.9518454912-.403649508l-.012160656-.004695699h-3.9216911614l.4835967809,1.3367089748-22.1506951273,12.7886759565c-1.2098046694,.6985153231-1.3412240361,1.7551077937-.2934811785,2.3600101437l39.8260882383,22.9935736528-1.3341202866,.747519156h3.7409669567l.0008428177-.0065619383c.7903222383-.0069833472,1.6174876521-.1960755328,2.2672459707-.5712498407l23.4652505947-13.5476333537c1.2097980369-.6985153231,1.3411572024-1.7551077937,.2934143448-2.3599499424Z"/>
        <g>
          <path class="cls-21" d="M143.5792370666,153.3709991391h-.821325891l-40.2993906025-23.2668874137c-1.0477428576-.60490235-2.8778613861-.5290487512-4.0876058543,.169466572l-23.4652500019,13.5476333536c-.1249730103,.0721813214-.2355675593,.148877738-.3374281037,.2278016015h-.6633577653v1.1642925407c.0250437272,.3632544566,.2562767953,.7074853122,.7073046905,.9679160015l40.4134720042,23.3326874006c1.0477428576,.60490235,2.8777409836,.5290487512,4.0876058543-.169466572l23.4651898007-13.5476333537c.6269359986-.3619300287,.9615346427-.8199412825,.9952473524-1.26151759,.0055385166,0,.0055385166-1.1642925407,.0055385166-1.1642925407Z"/>
          <g>
            <path class="cls-15" d="M115.0256555426,168.4181256987l-40.4134720042-23.3327476019c-1.0476826563-.60490235-.9163186975-1.6614948206,.2934811785-2.3599499424l23.4652500019-13.5476935549c1.2098046694-.6984551219,3.0398629967-.7743087207,4.087545653-.1694063707l40.4134785452,23.3326874006c1.0476761154,.60490235,.9163169499,1.6614948206-.2934877195,2.3600101437l-23.4652500019,13.5476333537c-1.2098046694,.6984551219-3.0398571327,.774368922-4.087545653,.169466572Z"/>
            <path class="cls-2" d="M108.8380488781,139.1362887034c-.1585701383,0-.3191871197-.0403348502-.466499621-.1253992431l-8.8574726719-5.1136763848c-.4469342091-.2581430411-.6002066358-.8295734855-.3420034-1.2768689135,.2578420282-.4469342204,.8292724583-.600206651,1.2768688813-.3420034087l8.8574124706,5.1136763848c.4469944103,.2581430411,.6002066358,.8295734855,.3420636013,1.2768689135-.1731331477,.2999227217-.4872690582,.4674026518-.8103692603,.4674026518Z"/>
            <path class="cls-2" d="M91.4376551565,146.0345715037c-.1446636455,0-.2913741342-.0367829753-.4256229604-.1144426122l-6.2782095719-3.6248990047c-.4078635865-.2353267602-.547771332-.7572717616-.3120833701-1.1651353584,.2353267542-.4078033956,.7566697298-.5483131572,1.1650802215-.312083378l6.2782646794,3.6248990047c.4078033853,.2353267602,.5477111307,.7572717616,.3120833701,1.1651353584-.1579681256,.2735545659-.4445863596,.4265259902-.7395123686,.4265259902Z"/>
            <path class="cls-2" d="M101.3241480918,151.7424946139c-.1445979565,0-.2913139329-.036722774-.4256229604-.1143824109l-6.2782095719-3.6248990047c-.4078033853-.2353267602-.5477111307-.7572717616-.3120833701-1.1651353584,.2353320743-.4078635969,.7569707361-.5486141636,1.165135329-.312083378l6.2782095719,3.6248990047c.4078635865,.2353267602,.5477166467,.7572717616,.3120833701,1.1651353584-.1579681256,.2735545659-.4445863597,.4264657889-.7395123686,.4264657889Z"/>
            <path class="cls-2" d="M111.2107012283,157.4504779254c-.1446636455,0-.2913741342-.0367829753-.4256229604-.1144426122l-6.2782040002-3.6248990047c-.4078691583-.2353267602-.5477769037-.7572717616-.3121491432-1.1650751572,.2353869555-.4078635968,.756729931-.5480723521,1.165135329-.3121435793l6.2782095719,3.6248990047c.4078635865,.2353267602,.5477713319,.7573319629,.3121435714,1.1651353584-.1579681256,.2735545659-.4445863597,.4265259902-.7395123686,.4265259902Z"/>
            <path class="cls-2" d="M121.0968931573,163.1581602305c-.1446034443,0-.2913139329-.0367829753-.4256229604-.1144426122l-6.2782095719-3.6245979984c-.4078033853-.2353267602-.5477111307-.7569707552-.3120833701-1.1651353584,.2353267542-.4078033956,.7569707361-.5483131572,1.165135329-.312083378l6.2782095719,3.6245979984c.4078635865,.2353267602,.5477111307,.7569707552,.3120893797,1.1651353584-.1579741352,.2735545659-.4445923692,.4265259902-.7395183781,.4265259902Z"/>
            <path class="cls-2" d="M96.5619870364,153.696928809c-.1404495568,0-.283006158-.0355789499-.4134569438-.1111315424l-15.4211018131-8.9034064638c-.3962447419-.2288250231-.5322996062-.735659506-.3031735826-1.131904258,.2282230047-.3960039469,.7353634631-.5329016324,1.1319042294-.3032337915l15.4210964525,8.9034064638c.3963049432,.2288250231,.5322996062,.735659506,.3032337838,1.131904258-.1532724268,.2658488035-.4318838922,.4143653339-.7185021263,.4143653339Z"/>
            <path class="cls-2" d="M106.1311045029,159.2217196592c-.1405153709,0-.2830719721-.0355789499-.4134679172-.1111315424l-6.0894183974-3.5158143055c-.3963049432-.2288250231-.5323598075-.7356595061-.3032337838-1.1319644593,.2282230047-.3962447519,.7353584811-.5329016324,1.1319644307-.3031735902l6.0894183974,3.5158143055c.3962503752,.2288250231,.532305243,.7356595061,.3031735826,1.131904258-.1532122255,.2658488035-.431823691,.4143653339-.7184363122,.4143653339Z"/>
            <path class="cls-2" d="M116.9654607804,165.4771131088c-.1404495568,0-.283006158-.0355789499-.4134623044-.1111315424l-3.4796332549-2.0092775511c-.3963049432-.2288250231-.5323598075-.735659506-.3032337838-1.131904258,.2288250173-.3963049532,.7353584811-.5329016324,1.1319042294-.3032337915l3.4796934562,2.0092775511c.3963108502,.2288250231,.5322996062,.7356595061,.3032337838,1.131904258-.1535734331,.2658488035-.4318779985,.4143653339-.7185021263,.4143653339Z"/>
            <path class="cls-22" d="M98.1496750612,144.3790366088l-9.0262168243-5.2112626417c-.4338103328-.2504372787-.3793883871-.6879198998,.1214861576-.9771267956l4.2929523773-2.4785464422c.5009347459-.2892068958,1.2586880985-.3206319582,1.6924984313-.0701344783l9.0262168243,5.2112626417c.4338103328,.2504372787,.3793883871,.6879198998-.1215463589,.9771267956l-4.2929523773,2.4785464422c-.5008745447,.2892068958-1.2586278973,.3206319582-1.69243823,.0701344783Z"/>
            <path class="cls-22" d="M135.470427356,154.8781379062c1.6597489418-.9582235972,1.6596887406-2.5117775426,0-3.4700613411-1.6596887406-.9582235972-4.3506251915-.9582235972-6.0103139321,0s-1.6596887406,2.5118377439,0,3.4700613411c1.6597489418,.9582235972,4.3506251915,.9582235972,6.0103139321,0Z"/>
          </g>
        </g>
        <polygon class="cls-9" points="65.3602119614 117.8254609191 47.8283386718 127.9474614681 59.7612532894 134.8369548832 59.1582773952 135.0975661762 58.8265684119 138.326220429 65.3602721626 138.0695824197 82.8921454522 127.9475818707 65.3602119614 117.8254609191"/>
        <g>
          <g>
            <polygon class="cls-6" points="58.8570302532 121.9800106877 41.3250967624 111.8579499374 58.8569098507 101.7359493884 76.3889035428 111.8580101387 58.8570302532 121.9800106877"/>
            <polygon class="cls-5" points="52.3233867038 118.2077991779 47.8587403118 115.6301614471 65.3905534001 105.5081608981 69.8551997921 108.0857986289 52.3233867038 118.2077991779"/>
            <polygon class="cls-5" points="47.8586842513 108.0857986289 52.3233265025 105.5081006969 69.8552599933 115.6302216484 65.3906136014 118.2078593792 47.8586842513 108.0857986289"/>
          </g>
          <g>
            <polygon class="cls-6" points="58.8334915577 138.326220429 41.3015620419 128.2041596787 41.3015620419 111.8580101387 58.8334915577 121.9800708889 58.8334915577 138.326220429"/>
            <polygon class="cls-5" points="52.2998480082 134.5540691206 47.8352057564 131.9763711885 47.8352057564 115.6301614471 52.2998480082 118.2078593792 52.2998480082 134.5540691206"/>
          </g>
          <g>
            <polygon class="cls-4" points="76.3585669647 128.2041596787 58.8265684119 138.326220429 58.8265684119 121.9800708889 76.3585669647 111.8580101387 76.3585669647 128.2041596787"/>
            <polygon class="cls-11" points="69.8249232502 131.9763711885 65.3602119614 134.5540691206 65.3602119614 118.2078593792 69.8249232502 115.6301614471 69.8249232502 131.9763711885"/>
          </g>
        </g>
        <polygon class="cls-9" points="123.5052448591 66.5210365372 105.9733771783 76.6430370862 117.9062861871 83.5325305012 117.3033102929 83.7931417943 116.9716013096 87.0217960471 123.5053050604 86.7651580378 141.0371783499 76.6431574888 123.5052448591 66.5210365372"/>
        <g>
          <g>
            <polygon class="cls-6" points="117.0020631509 70.6755863058 99.4701296601 60.5535255555 117.0019427484 50.4314648052 134.5339364405 60.5535857568 117.0020631509 70.6755863058"/>
            <polygon class="cls-5" points="110.4684196015 66.903374796 106.0037732095 64.3257370652 123.5355862979 54.2036763149 128.000292891 56.781374247 110.4684196015 66.903374796"/>
            <polygon class="cls-5" points="106.0037130083 56.7813140458 110.4683594002 54.2036763149 128.000292891 64.3257370652 123.5356464991 66.9034349973 106.0037130083 56.7813140458"/>
          </g>
          <g>
            <polygon class="cls-6" points="116.9785244554 87.0217960471 99.4465909645 76.8997352968 99.4465909645 60.5535255555 116.9785244554 70.6755863058 116.9785244554 87.0217960471"/>
            <polygon class="cls-5" points="110.4448809059 83.2495845374 105.980234514 80.6719468066 105.980234514 64.3257370652 110.4448809059 66.9034349973 110.4448809059 83.2495845374"/>
          </g>
          <g>
            <polygon class="cls-4" points="134.5035950017 76.8997352968 116.9716013096 87.0217960471 116.9716013096 70.6755863058 134.5035950017 60.5535255555 134.5035950017 76.8997352968"/>
            <polygon class="cls-11" points="127.9699514523 80.6719468066 123.5052448591 83.2495845374 123.5052448591 66.9034349973 127.9699514523 64.3257370652 127.9699514523 80.6719468066"/>
          </g>
        </g>
        <g>
          <path class="cls-27" d="M166.4974381518,29.0966769159v-6.3236014873c0-5.4600142848,3.8332554996-12.0993714275,8.5618242477-14.8294387712h0c4.7285687481-2.7300071424,8.5617640465-.5169482961,8.5617640465,4.94312619v6.3236014873"/>
          <polygon class="cls-20" points="191.9514370219 56.7070256799 158.1670275759 76.2124174097 158.1670275759 28.9186015624 191.9514370219 9.4131496314 191.9514370219 56.7070256799"/>
          <polygon class="cls-17" points="199.515726269 61.0504870303 193.8425472629 60.7670594563 193.8425472629 13.4731834077 199.515726269 13.756671183 199.515726269 61.0504870303"/>
          <polygon class="cls-23" points="193.8425472629 60.7670594563 191.9514370219 56.6832461787 191.9514370219 9.3894303314 193.8425472629 13.4731834077 193.8425472629 60.7670594563"/>
          <polygon class="cls-25" points="199.515726269 61.1602941448 165.7313770243 80.6657460759 165.7313770243 33.3718700273 199.515726269 13.8664782975 199.515726269 61.1602941448"/>
          <polygon class="cls-23" points="165.7313770243 80.6657460759 163.8402746119 76.7395397203 163.8402746119 29.4456636717 165.7313770243 33.3718700273 165.7313770243 80.6657460759"/>
          <polygon class="cls-17" points="163.8402746119 76.7395397203 158.1670275759 76.2985052243 158.1670275759 29.0046291757 163.8402746119 29.4456636717 163.8402746119 76.7395397203"/>
          <path class="cls-26" d="M174.5502606838,33.2679626372c0,.3115415666-.2187112044,.6903279506-.4885332848,.8461288345-.2697618792,.1557406827-.4884730836,.0294986218-.4884730836-.2820429448s.2187112044-.6903881518,.4884730836-.8461288345c.2698220804-.1557406827,.4885332848-.0294986218,.4885332848,.2820429448Z"/>
          <path class="cls-26" d="M191.6738489779,23.3816500559c0,.3115415666-.2187112044,.6903279506-.4884730836,.8461288345-.2698143258,.1557406827-.4885332848,.0294986218-.4885332848-.2820429448s.2187189591-.6903881518,.4885332848-.8461288345c.2697618792-.1558008839,.4884730836-.0294986218,.4884730836,.2820429448Z"/>
          <path class="cls-27" d="M174.0617273989,33.550005582v-6.3236616886c0-5.4600142848,3.8332554996-12.0993714275,8.5618242477-14.82937857h0c4.7285687481-2.7300673437,8.5618242477-.5169482961,8.5618242477,4.9430659887v6.3236616886"/>
        </g>
        <g>
          <polygon class="cls-9" points="214.7903530379 66.2366457429 177.5194473925 87.9395041903 184.4893093255 91.7733617994 183.8863334313 92.0339128913 183.554624448 95.2626273453 190.0883281988 95.005989336 227.3591736429 73.3030706872 214.7903530379 66.2366457429"/>
          <g>
            <path class="cls-30" d="M184.413094521,62.5354717305v-6.854335874c0-5.9182663437,4.1549108712-13.1147862302,9.280326374-16.0739796033h0c5.1254155028-2.9591331719,9.280326374-.5602932097,9.280326374,5.357973134v6.854335874"/>
            <polygon class="cls-6" points="212.003275163 69.2931845679 175.3835666269 90.4355692018 175.3835666269 62.3424062611 212.003275163 41.2000216271 212.003275163 69.2931845679"/>
            <polygon class="cls-5" points="220.2023867747 74.0011646015 214.0530681162 73.6939575263 214.0530681162 45.6007945855 220.2023867747 45.908061862 220.2023867747 74.0011646015"/>
            <polygon class="cls-11" points="214.0530681162 73.6939575263 212.003275163 69.2674184248 212.003275163 41.1742554841 214.0530681162 45.6007945855 214.0530681162 73.6939575263"/>
            <polygon class="cls-6" points="220.2023867747 74.1201825101 183.5826782387 95.2626273453 183.5826782387 67.1694644046 220.2023867747 46.0270195694 220.2023867747 74.1201825101"/>
            <polygon class="cls-11" points="183.5826782387 95.2626273453 181.5328852854 91.0068792437 181.5328852854 62.913716303 183.5826782387 67.1694644046 183.5826782387 95.2626273453"/>
            <polygon class="cls-5" points="181.5328852854 91.0068792437 175.3835666269 90.5288209673 175.3835666269 62.4356580266 181.5328852854 62.913716303 181.5328852854 91.0068792437"/>
            <path class="cls-29" d="M193.1417364806,67.0567676292c0,.3376689173-.237072591,.7483017725-.5295303479,.9171663318-.292457757,.168804358-.5295303479,.0319668738-.5295303479-.3057020435,0-.3377291186,.237072591-.7483017725,.5295303479-.9171663318,.292457757-.168804358,.5295303479-.0319668738,.5295303479,.3057020435Z"/>
            <path class="cls-29" d="M211.7023892286,56.3407611599c0,.3376689173-.237072591,.7483017725-.5295303479,.9171663318-.2923975557,.168804358-.5294701467,.0319668738-.5294701467-.3057020435,0-.3377291186,.237072591-.7483017725,.5294701467-.9171663318,.292457757-.168804358,.5295303479-.0319668738,.5295303479,.3057020435Z"/>
            <path class="cls-30" d="M192.6122061327,67.3624696727v-6.854335874c0-5.9182663437,4.1549187737-13.1147862302,9.280326374-16.0739194021h0c5.1254155028-2.9591331719,9.280326374-.560353411,9.280326374,5.3579129328v6.854335874"/>
          </g>
        </g>
        <path class="cls-9" d="M146.9124608393,141.0966226229l17.5849106062,1.8503462011c.4203252489,.0442479326,.8439013662-.0457529644,1.2099250719-.256999217l47.8206961447-27.598248309c1.3278075129-.7663019519,1.336468136-2.6797390829,.0156523295-3.4580210873l-48.9137634661-28.8214176907-17.7174206863,58.2843401028Z"/>
        <g>
          <g>
            <polygon class="cls-22" points="180.2885852898 105.935951115 171.8595048367 101.069400939 171.8595048367 98.0336315518 180.2885852898 102.9001215265 180.2885852898 105.935951115"/>
            <path class="cls-16" d="M180.2885852898,102.9001215265l1.8761724981-1.0832014315v2.1385296754c0,.5551761019-.2962429107,1.0682715168-.7770779594,1.345919769l-1.0990945387,.6345815756v-3.0358295885Z"/>
            <polygon class="cls-15" points="180.2882842835 102.8999409227 171.8592038303 98.0333907468 173.7353763284 96.9502495166 182.1644567816 101.8167394913 180.2882842835 102.8999409227"/>
          </g>
          <g>
            <polygon class="cls-22" points="145.4020110405 86.2184703148 136.9729907887 81.3519201389 136.9729907887 78.3160905504 145.4020110405 83.1826407264 145.4020110405 86.2184703148"/>
            <path class="cls-16" d="M145.4020110405,83.1826407264l1.8761724981-1.0832014315v2.1385296754c0,.5552363031-.2962504368,1.0682715168-.7770779594,1.3458595677l-1.0990945387,.6346417768v-3.0358295885Z"/>
            <polygon class="cls-15" points="145.4017100342 83.1823999213 136.9726897823 78.3159099466 138.8488020792 77.2327085152 147.2778825323 82.0992586911 145.4017100342 83.1823999213"/>
          </g>
          <path class="cls-15" d="M191.0957362072,54.6361622308l-61.4463499987-35.4760057544c-.4158703551-.2401428617-.796516782-.2737351697-1.1077033199-.1481553228l-.0048161014-.0072843535-1.5831729297,.8582894908,.3814352302,.6582406742,.4590346638-.2199152353c-.0084883787,.0916263313-.0219734626,.1783763598-.0219734626,.2779492585v48.2121862045c0,1.3823415367,.8404096927,2.9881501835,1.8771959196,3.5867916015l60.9392824698,35.183307185-.087058779,.0485222227,.1797687331,1.2236509918,1.5273586061-.8329447566-.0001204025-.0010836228c.4613825133-.1896339971,.764375492-.7399337961,.764375492-1.5645707776V58.2230140335c0-1.3823415366-.840469894-2.988270586-1.8772561209-3.5868518028Z"/>
          <g>
            <path class="cls-16" d="M189.5625905307,108.6905203751l-61.4462897974-35.4760057544c-1.0367862269-.5985812167-1.8772561209-2.2045102661-1.8772561209-3.5868518028V21.4155368147c0-1.3823415367,.840469894-2.0177057287,1.8772561209-1.419124512l61.4462897974,35.4760057544c1.0367862269,.598641418,1.8773240901,2.2044500649,1.8773240901,3.5868518028v48.2121260032c0,1.3824017379-.8405378631,2.01776593-1.8773240901,1.419124512Z"/>
            <path class="cls-15" d="M129.135929599,67.9553317689V26.4329513705c0-1.3823415367,.8405300953-2.01776593,1.8772561209-1.4191847132l55.6523994216,32.1309824489c1.0367862269,.5985812167,1.8772561209,2.2043898636,1.8772561209,3.5868518028v41.5223201971c0,1.3823415366-.840469894,2.01776593-1.8772561209,1.4191847132l-55.6523994216-32.1309222476c-1.0367260257-.598641418-1.8772561209-2.2045102661-1.8772561209-3.5868518028Z"/>
          </g>
          <path class="cls-16" d="M191.4398466516,111.5786160497h-3.9986885824v.626394203l-58.1475613509-33.5714784113c-1.0367862269-.5985812167-2.8477005512-.5235704357-4.0448629544,.1676605339l-38.0481642086,21.9670818167h-4.6950968435v3.4843892431h.0134248826c.0100536117,.3707796152,.2273199857,.7247630764,.686475052,.9899496659l61.4462897974,35.4760057544c1.0368464282,.5985812167,2.8477607525,.5235102344,4.0449231557-.1676605339l41.7529502036-24.1060931022c.6135713172-.354164065,.9420896333-.8012186879,.981641866-1.2337046037h.0086689825v-3.6325445659Z"/>
          <g>
            <path class="cls-19" d="M144.6516624438,137.2805845894l-61.4462897974-35.4760057544c-1.0367812195-.5985812167-.9067464786-1.6441568551,.2904109139-2.3353276235l41.7529502036-24.106032901c1.197102202-.6912309696,3.0080767275-.7662417507,4.0448629544-.1677207352l61.4463499987,35.4760659557c1.0367862269,.5985812167,.9067514894,1.6441568551-.2904109139,2.3353276235l-41.7529502036,24.106032901c-1.1971624032,.6912309696-3.0080767275,.7662417507-4.0449231557,.1676605339Z"/>
            <path class="cls-15" d="M103.3799065138,91.3341935428l22.303119193-12.8767504129c.9573807552-.5527078498,2.4056426448-.6127285149,3.2347344992-.1340682259l56.4043734525,32.5651540002c.8291520557,.4786000878,.7251844669,1.3147957129-.2321962883,1.867563764l-22.3031247363,12.8766902117c-.9573807552,.5527680511-2.4056426448,.6127887162-3.2347344992,.1340682259l-56.4043734525-32.565093799c-.8291465392-.4786602891-.7251844669-1.3148559142,.2322018316-1.867563764Z"/>
            <path class="cls-15" d="M108.8011455012,111.1314410242l8.6240723582-4.9790663475c.985013137-.5686611861,2.4750547061-.630427688,3.3281066649-.1379813083l16.6066400111,9.5878948913c.8529981809,.4924463797,.7460141055,1.3527225123-.2389388303,1.9214438997l-8.6240723582,4.9790663475c-.985013137,.5687213874-2.4750547061,.6304878893-3.3281066649,.1379813083l-16.6066400111-9.58783469c-.8529917576-.4925065809-.7460141055-1.3527827136,.2389388303-1.921504101Z"/>
            <g>
              <path class="cls-19" d="M128.5778036491,83.4931588714l-3.8505271807-2.2230522569c-.4167192554-.2405642706-.4167192554-.6305480905-.0000662838-.8711123611l1.9614236248-1.1324460694c.4166468395-.2405642706,1.0921652608-.2405642706,1.5088182324,.0000602013l3.8505332633,2.2230522569c.4166529716,.2405642706,.4166529716,.6305480905,0,.8710521598l-1.9614174927,1.1324460694c-.4166529716,.2405642706-1.0921713929,.2405642706-1.5087641632,0Z"/>
              <path class="cls-19" d="M135.031620318,87.2193164104l-3.850473062-2.2231124582c-.4166529716-.2405642706-.4166529716-.6305480905,0-.8711123611l1.9613572915-1.1323858681c.4166529716-.2405642706,1.0921713929-.2405642706,1.5088243645,0l3.8505332633,2.2231124582c.4166594127,.2405642706,.4166594127,.6305480905,0,.8711123611l-1.9614174927,1.1323858681c-.4165927703,.2405642706-1.0921111917,.2405642706-1.5088243645,0Z"/>
              <path class="cls-19" d="M141.4855573894,90.9455341507l-3.8505268547-2.2231726595c-.4166593802-.2405040693-.4166593802-.6305480905,0-.8710521598l1.9614110841-1.1324460694c.4166529716-.2405642706,1.0921111917-.2405642706,1.5087641632,0l3.8505332633,2.2231124582c.4166529716,.2405642706,.4166529716,.6305480905,.0000602013,.8711123611l-1.961477694,1.1324460694c-.4166529716,.2405040693-1.0921111917,.2405040693-1.5087641632,0Z"/>
              <path class="cls-19" d="M147.9394944609,94.6716314884l-3.8505934646-2.2231124582c-.4166529716-.2405040693-.4166529716-.6304878893,0-.8710521598l1.9614174927-1.1324460694c.4165927703-.2405040693,1.0921111917-.2405040693,1.5087641632,0l3.8505332633,2.2231124582c.4166597387,.2405040693,.4166597387,.6305480905,0,.8710521598l-1.9614174927,1.1324460694c-.4165927703,.2405040693-1.0921111917,.2405040693-1.508703962,0Z"/>
              <path class="cls-19" d="M154.3933111298,98.3977890275l-3.8505265286-2.2231124582c-.4165927808-.2405642706-.4165927808-.6305480905,0-.8711123611l1.961410758-1.1324460694c.4166529716-.2405040693,1.0921713929-.2405040693,1.5087641632,.0000602013l3.8505934646,2.2231124582c.4165927703,.2405642706,.4165927703,.6305480905,0,.8710521598l-1.9614174927,1.1324460694c-.4167131729,.2405642706-1.0921713929,.2405642706-1.5088243645,0Z"/>
              <path class="cls-19" d="M160.8472482012,102.1239465665l-3.8505934646-2.2231124582c-.4166529716-.2405642706-.4166529716-.6305480905,0-.8711123611l1.9614174927-1.1323858681c.4166529716-.2405642706,1.0921713929-.2405642706,1.5088243645,0l3.850540346,2.2231124582c.4165927808,.2405642706,.4166458889,.6305480905,0,.8711123611l-1.9614245754,1.1323858681c-.4166529716,.2405642706-1.0921713929,.2405642706-1.5087641632,0Z"/>
              <path class="cls-19" d="M167.3010648702,105.8501041055l-3.8505262025-2.2231124582c-.4165927808-.2405040693-.4165927808-.6305480905,0-.8710521598l1.9614104319-1.1324460694c.4166529716-.2405642706,1.0921713929-.2405642706,1.5088243645,0l3.8505332633,2.2230522569c.4166529716,.2405642706,.4166529716,.6305480905,0,.8711123611l-1.9614174927,1.1324460694c-.4165927703,.2405642706-1.0921111917,.2405642706-1.5088243645,0Z"/>
              <path class="cls-19" d="M173.7550019416,109.5762616445l-3.8505332633-2.2231124582c-.4167131728-.2405642706-.4167131728-.6305480905,0-.8711123611l1.9614174927-1.1324460694c.4165927703-.2405040693,1.0921111917-.2405040693,1.5087641632,0l3.8505406721,2.2231726595c.4166455628,.2405040693,.4166455628,.6305480905,0,.8710521598l-1.9614249015,1.1324460694c-.4166529716,.2405040693-1.0921713929,.2405040693-1.5087641632,0Z"/>
              <path class="cls-19" d="M180.2088186105,113.3024191836l-3.850473062-2.2231124582c-.4166455952-.2405642706-.4166455952-.6305480905,0-.8711123611l1.9614174927-1.1324460694c.4165927703-.2405040693,1.0921111917-.2405040693,1.5087641632,.0000602013l3.8505332633,2.2231124582c.4166529716,.2405642706,.4166529716,.6305480905,0,.8710521598l-1.9614174927,1.1324460694c-.4165927703,.2405642706-1.0921111917,.2405642706-1.5088243645,0Z"/>
            </g>
            <g>
              <path class="cls-19" d="M127.0840898027,87.909644361l-6.928443461-4.0001335138c-.416647015-.2405642706-.416647015-.6305480905,0-.8711123611l1.9614174927-1.1323858681c.4165927703-.2405642706,1.0921111917-.2405642706,1.5087641632,0l6.9285036623,4.0001335138c.4165927703,.2405642706,.4165927703,.6305480905,0,.8711123611l-1.9614174927,1.1323858681c-.4166529716,.2405642706-1.0921652403,.2405642706-1.5088243645,0Z"/>
              <path class="cls-19" d="M133.5379666729,91.6358019l-3.850473062-2.2231124582c-.4167131728-.2405040693-.4167131728-.6305480905,0-.8710521598l1.9613572915-1.1324460694c.4166529716-.2405642706,1.0921713929-.2405642706,1.5087641632,0l3.8505332633,2.2230522569c.4167131728,.2405642706,.4167131728,.6305480905,.0000602013,.8711123611l-1.9614174927,1.1324460694c-.4166529716,.2405642706-1.0921713929,.2405642706-1.5088243645,0Z"/>
              <path class="cls-19" d="M139.9919102125,95.361959439l-3.8505999328-2.2231124582c-.4165927703-.2405642706-.4165927703-.6305480905,0-.8711123611l1.9614174927-1.1324460694c.4167131728-.2405040693,1.0921713929-.2405040693,1.5088243645,0l3.8505332633,2.2231726595c.4165927703,.2405040693,.4165927703,.6305480905,0,.8710521598l-1.9614174927,1.1324460694c-.4166529716,.2405642706-1.0921649142,.2405040693-1.508757695,0Z"/>
              <path class="cls-19" d="M146.4457806145,99.088116978l-3.8505332633-2.2231124582c-.4166529716-.2405642706-.4166529716-.6305480905,0-.8711123611l1.9614174927-1.1323858681c.4165927703-.2405642706,1.0921111917-.2405642706,1.508703962,0l3.8505934646,2.2231124582c.4166529716,.2405642706,.4166529716,.6305480905,0,.8710521598l-1.9614174927,1.1324460694c-.4166529716,.2405642706-1.0921713929,.2405642706-1.5087641632,0Z"/>
              <path class="cls-19" d="M152.8996642789,102.8142745171l-3.8505400576-2.2231124582c-.4166529716-.2405642706-.4166529716-.6305480905-.0000602013-.8711123611l1.9614174927-1.1323858681c.4167131728-.2405642706,1.0922315942-.2405642706,1.5088243645,0l3.8505332633,2.2230522569c.4167131728,.2405642706,.4167131728,.6305480905,0,.8711725624l-1.9614174927,1.1323858681c-.4166529716,.2405642706-1.0921111917,.2405642706-1.508757369,0Z"/>
              <path class="cls-19" d="M159.3535343548,106.5404320561l-3.8505332633-2.2231124582c-.4166529716-.2405642706-.4166529716-.6306082918,0-.8711123611l1.9614174927-1.1324460694c.4165927703-.2405642706,1.0921111917-.2405642706,1.5088243645,0l3.8505332633,2.2231124582c.4165927703,.2405642706,.4165927703,.6305480905,0,.8711123611l-1.9614174927,1.1324460694c-.4166529716,.2405040693-1.0921713929,.2405040693-1.5088243645,0Z"/>
              <path class="cls-19" d="M165.8074183454,110.2665895951l-3.8505403837-2.2231726595c-.4166529716-.2405040693-.4166529716-.6304878893,0-.8710521598l1.9614245653-1.1324460694c.416645899-.2405040693,1.0921643203-.2405040693,1.5087570906,0l3.8505332633,2.2231726595c.4167131728,.2405040693,.4167131728,.6305480905,0,.8710521598l-1.9614174927,1.1324460694c-.4165927703,.2405642706-1.0921111917,.2405040693-1.5087570429,0Z"/>
              <path class="cls-19" d="M175.6372547677,115.9418234163l-7.0699164393-4.0818266357c-.4166529716-.2405642706-.4166529716-.6305480905,0-.8711123611l1.9613572915-1.1323858681c.4167131728-.2405642706,1.0922315942-.2405642706,1.5088243645,0l7.0699164393,4.0818266357c.4167131728,.2405642706,.4167131728,.6305480905,0,.8710521598l-1.9614174927,1.1324460694c-.4165927703,.2405642706-1.0921111917,.2405642706-1.5087641632,0Z"/>
            </g>
            <g>
              <path class="cls-19" d="M117.9408417146,93.1884528264l-6.928443461-4.0001335138c-.4165927703-.2405642706-.4165927703-.6305480905,0-.8711123611l1.9614174927-1.1323858681c.4166529716-.2405642706,1.0921713929-.2405642706,1.5087641632,0l6.9285036623,4.0001335138c.4166529716,.2405642706,.4166529716,.6305480905,0,.8711123611l-1.9614174927,1.1324460694c-.4165927703,.2405040693-1.0921111917,.2405040693-1.5088243645-.0000602013Z"/>
              <path class="cls-19" d="M124.394778786,96.9146705667l-3.8505332633-2.2231726595c-.4166529716-.2405040693-.4166529716-.6305480905,0-.8710521598l1.9614174927-1.1324460694c.4166529716-.2405040693,1.0921111917-.2405040693,1.5087641632,0l3.8505394252,2.2231726595c.4166468097,.2405040693,.4166468097,.6304878893,0,.8710521598l-1.9614236546,1.1324460694c-.4166529716,.2405040693-1.0921713929,.2405040693-1.5087641632,0Z"/>
              <path class="cls-19" d="M130.8486556562,100.6408281057l-3.8505332633-2.2231124582c-.4166468422-.2405642706-.4166468422-.6305480905,0-.8711123611l1.9614174927-1.1324460694c.4165927703-.2405040693,1.0921111917-.2405040693,1.5087641632,0l3.8505332633,2.2231124582c.4166529716,.2405040693,.4166529716,.6306082918,0,.8711123611l-1.9614174927,1.1324460694c-.4165927703,.2405642706-1.0921111917,.2405642706-1.5087641632,0Z"/>
              <path class="cls-19" d="M137.3025325264,104.3669254434l-3.8505332633-2.2230522569c-.4165927703-.2405642706-.4166529716-.6305480905,0-.8711725624l1.9614174927-1.1323858681c.4166529716-.2405642706,1.0921713929-.2405642706,1.5087641632,0l3.8505934646,2.2231124582c.4166529716,.2405642706,.4166529716,.6305480905,0,.8711123611l-1.9614110543,1.1323858681c-.4167196112,.2405642706-1.0921778313,.2405642706-1.5088308029,0Z"/>
              <path class="cls-19" d="M143.7564695978,108.0930829825l-3.8505934646-2.2231124582c-.4166465161-.2405642706-.4166465161-.6305480905,0-.8710521598l1.9614174927-1.1324460694c.4166529716-.2405642706,1.0921713929-.2405642706,1.5088243645,0l3.850473062,2.2231124582c.4166529716,.2405642706,.4166529716,.6305480905,0,.8711123611l-1.9613572915,1.1323858681c-.4166529716,.2405642706-1.0921713929,.2405642706-1.5087641632,0Z"/>
              <path class="cls-19" d="M150.2102862667,111.8193007228l-3.8505332633-2.2231726595c-.4165927703-.2405040693-.4165927703-.6305480905,0-.8710521598l1.9614174927-1.1324460694c.4166529716-.2405642706,1.0921713929-.2405040693,1.5087641632,0l3.8505934646,2.2231124582c.4166529716,.2405642706,.4166529716,.6305480905,0,.8711123611l-1.9614107283,1.1324460694c-.416659736,.2405040693-1.0921781574,.2405040693-1.508831129,0Z"/>
              <path class="cls-19" d="M156.6642233382,115.5453980605l-3.8505332633-2.2230522569c-.4167063913-.2405642706-.4167063913-.6305480905-.0000602013-.8711725624l1.961477694-1.1323858681c.4165927703-.2405642706,1.0921111917-.2405642706,1.5087641632,0l3.8505332633,2.2231124582c.4166529716,.2405040693,.4166529716,.6305480905,0,.8710521598l-1.9614174927,1.1324460694c-.4166529716,.2405642706-1.0921713929,.2405642706-1.5087641632,0Z"/>
              <path class="cls-19" d="M166.4940668808,121.2206920829l-7.0699766406-4.0818266357c-.4165927703-.2405642706-.4165927703-.6306082918,0-.8711725624l1.9614174927-1.1323858681c.4166529716-.2405642706,1.0921111917-.2405642706,1.5088243645,0l7.0699164393,4.0818266357c.4166602075,.2405642706,.4166602075,.6305480905,0,.8711725624l-1.9614174927,1.1323858681c-.4166529716,.2405642706-1.0921713929,.2405642706-1.5087641632,0Z"/>
            </g>
            <g>
              <path class="cls-19" d="M119.434555561,88.7720275381l-3.8505332633-2.2231124582c-.4166529716-.2405642706-.4166529716-.6305480905,0-.8711123611l1.9613572915-1.1323858681c.4167131728-.2405642706,1.0922315942-.2405642706,1.5088243645,0l3.8505332633,2.2231124582c.4166529716,.2405642706,.4166529716,.6305480905,0,.8711123611l-1.9614174927,1.1323858681c-.4165927703,.2405642706-1.0921111917,.2405642706-1.5087641632,0Z"/>
              <path class="cls-19" d="M125.8884324311,92.4981248758l-3.8505332633-2.2230522569c-.4165927703-.2405642706-.4165927703-.6305480905,0-.8710521598l1.9614174927-1.1324460694c.4166529716-.2405642706,1.0921111917-.2405642706,1.5087702655,0l3.8505873623,2.2230522569c.4165927703,.2405642706,.4165927703,.6305480905,0,.8711123611l-1.9614174927,1.1323858681c-.4166468321,.2406244718-1.0921713929,.2406244718-1.5088243645,0Z"/>
              <path class="cls-19" d="M132.3423695026,96.2243426161l-3.8505332633-2.2231124582c-.4167131728-.2405642706-.4167131728-.6306082918-.0000602013-.8711123611l1.961477694-1.1324460694c.4165927703-.2405642706,1.0921111917-.2405642706,1.508703962,0l3.8505332633,2.2231124582c.4167131728,.2405642706,.4167131728,.6305480905,0,.8711123611l-1.9614174927,1.1324460694c-.4165927703,.2405040693-1.0921111917,.2405040693-1.508703962,0Z"/>
              <path class="cls-19" d="M138.7961861715,99.9505001551l-3.8505332633-2.2231124582c-.4165927703-.2405642706-.4165927703-.6305480905,0-.8711123611l1.9614174927-1.1324460694c.4166529716-.2405040693,1.0921778108-.2405040693,1.5088243645,0l3.8505332633,2.2231726595c.4165927703,.2405040693,.4165927703,.6305480905,0,.8710521598l-1.9614174927,1.1324460694c-.416646506,.2405642706-1.0921047431,.2405642706-1.5088243645,0Z"/>
              <path class="cls-19" d="M145.2501232429,103.6766576942l-3.8505332633-2.2231124582c-.4167131728-.2405642706-.4167131728-.6305480905,0-.8711123611l1.9614174927-1.1323858681c.4165927703-.2405642706,1.0921111917-.2405642706,1.5087641632,0l3.8505332633,2.2230522569c.4166529716,.2405642706,.4166529716,.6305480905,0,.8711725624l-1.9614174927,1.1323858681c-.4166529716,.2405642706-1.0921713929,.2405642706-1.5087641632,0Z"/>
              <path class="cls-19" d="M151.7040001131,107.4027550319l-3.8505934646-2.2230522569c-.4165927703-.2405642706-.4165927703-.6306082918,0-.8711725624l1.9614174927-1.1323858681c.4167198997-.2405642706,1.0922315942-.2405642706,1.5088243645,0l3.8505332633,2.2231124582c.4166529716,.2405642706,.4166529716,.6305480905,0,.8711123611l-1.9614174927,1.1323858681c-.4165927703,.2405642706-1.0921044171,.2405642706-1.5087641632,0Z"/>
              <path class="cls-19" d="M158.1578769833,111.1289727722l-3.8505332633-2.2231726595c-.4166529716-.2405040693-.4166529716-.6305480905,0-.8710521598l1.9614174927-1.1324460694c.4165927703-.2405642706,1.0921111917-.2405642706,1.5087641632,0l3.8505934646,2.2231124582c.4165927703,.2405642706,.4165927703,.6305480905,0,.8711123611l-1.9614174927,1.1324460694c-.4167131728,.2405040693-1.0922315942,.2405040693-1.5088243645,0Z"/>
              <path class="cls-19" d="M171.0656307236,118.581227649l-10.2611856235-5.9242864706c-.4167131729-.2405642706-.4167131729-.6305480905,0-.8711123611l1.9614174927-1.1323858682c.4165927703-.2405642706,1.0921111917-.2405642706,1.508703962,0l10.261306026,5.9242864706c.4165927703,.2405642706,.4165927703,.6305480905,0,.8711123611l-1.9614174927,1.1323858681c-.4166529716,.2405642706-1.0921111917,.2405642706-1.5088243645,0Z"/>
            </g>
            <g>
              <path class="cls-19" d="M110.2913676741,94.0508360035l-3.8505934646-2.2230522569c-.4165927703-.2405642706-.4165927703-.6306082918,0-.8711725624l1.9614174927-1.1323858681c.4166529716-.2405642706,1.0921111917-.2405642706,1.5088243645,0l3.8505332633,2.2231124582c.4165927703,.2405642706,.4165927703,.6305480905,0,.8711123611l-1.9614174927,1.1323858681c-.4166529716,.2405642706-1.0921713929,.2405642706-1.5087641632,0Z"/>
              <path class="cls-19" d="M116.7452445443,97.7770537438l-3.8505274796-2.2231726595c-.4166587552-.2405040693-.4166587552-.6305480905,0-.8710521598l1.9614117091-1.1324460694c.4165927703-.2405642706,1.0921111917-.2405642706,1.508703962,0l3.8505934646,2.2231124582c.4166529716,.2405642706,.4166529716,.6305480905,0,.8711123611l-1.9614174927,1.1324460694c-.4166529716,.2405040693-1.0921713929,.2405040693-1.5087641632,0Z"/>
              <path class="cls-19" d="M142.560752025,112.6816838999l-23.2122240751-13.4016452765c-.4165927703-.2405040693-.4165927703-.6305480905,0-.8710521598l1.9614174927-1.1324460694c.4167131728-.2405040693,1.0921713929-.2405040693,1.5088243645,0l23.2122240751,13.401524874c.4165927703,.2406244718,.4165927703,.6306082918,0,.8711725624l-1.9614174927,1.1324460694c-.4166529716,.2405040693-1.0921713929,.2405040693-1.5088243645,0Z"/>
              <path class="cls-19" d="M149.0146288951,116.4077812376l-3.850473062-2.2231124582c-.4166529716-.2405040693-.4167131728-.6305480905,0-.8710521598l1.9613572915-1.1324460694c.4166529716-.2405642706,1.0921713929-.2405642706,1.5087641632,0l3.8506002484,2.2231124582c.4166461878,.2405040693,.4166461878,.6305480905,0,.8710521598l-1.9614242765,1.1324460694c-.4166529716,.2405040693-1.0921713929,.2405040693-1.5088243645,0Z"/>
              <path class="cls-19" d="M155.4685659666,120.1339387766l-3.8505867027-2.2231124582c-.4165927808-.2405642706-.4165927808-.6305480905,0-.8711123611l1.9614107308-1.1324460694c.4167131728-.2405040693,1.0921713929-.2405040693,1.5088243645,0l3.8505332633,2.2231726595c.4165927703,.2405040693,.4165927703,.6305480905,0,.8710521598l-1.9614174927,1.1324460694c-.4166529716,.2405642706-1.0921111917,.2405642706-1.5087641632,0Z"/>
              <path class="cls-19" d="M161.9224428368,123.8600963157l-3.8505332633-2.2231124582c-.4166529716-.2405642706-.4166529716-.6305480905,0-.8711123611l1.9614174927-1.1323858681c.4165927703-.2405642706,1.0921111917-.2405642706,1.5087641632,0l3.8505403732,2.2231124582c.4166458617,.2405642706,.4166458617,.6305480905,0,.8711123611l-1.9614246026,1.1323858681c-.4166529716,.2405642706-1.0921713929,.2405642706-1.5087641632,0Z"/>
            </g>
          </g>
          <g>
            <path class="cls-21" d="M177.7356977667,122.4433798545v-.6834048046c0-.1577273245,.095832996-.3408595846,.2140682851-.4091278235l3.8567941951-2.2266643331c.1182352891-.0682682389,.2141359081,.0042140888,.2141359081,.1618812121v.6833446034c0,.1576671233-.0959006189,.3408595846-.2141359081,.4091278235l-3.8567941951,2.2266643331c-.1182352891,.0683284402-.2140682851-.0041538876-.2140682851-.1618210108Z"/>
            <path class="cls-21" d="M172.0324028766,125.7360882573v-.6833446034c0-.1576671233,.0959006189-.3408595846,.2141961094-.4091278235l3.8567339939-2.2267245343c.1182352891-.0682682389,.2140757068,.0042140888,.2140757068,.1619414134v.6833446034c0,.1576671233-.0958404177,.3408595846-.2140757068,.4091278235l-3.8567339939,2.2267245343c-.1182954904,.0682682389-.2141961094-.0042140888-.2141961094-.1619414134Z"/>
          </g>
        </g>
        <polygon class="cls-9" points="191.911162374 140.6274741343 174.3792890844 150.749414482 186.312203702 157.6389680983 185.7092880091 157.8995793914 185.3775188245 161.1282336442 191.9112905563 160.8715956348 209.4431040875 150.7495950858 191.911162374 140.6274741343"/>
        <g>
          <g>
            <polygon class="cls-6" points="185.4079806658 144.7820239028 167.876047175 134.6599029513 185.4078602633 124.5379024023 202.9398539554 134.6599631526 185.4079806658 144.7820239028"/>
            <polygon class="cls-5" points="178.8743371163 141.0098123931 174.4096907244 138.432114461 191.9415038127 128.310113912 196.4062104059 130.8878118441 178.8743371163 141.0098123931"/>
            <polygon class="cls-5" points="174.4096305232 130.8877516428 178.8742769151 128.310113912 196.4062104059 138.4321746623 191.9416242153 141.0098123931 174.4096305232 130.8877516428"/>
          </g>
          <g>
            <polygon class="cls-6" points="185.3845021715 161.1282336442 167.8525084794 151.0061126926 167.8525084794 134.6599631526 185.3845021715 144.7820239028 185.3845021715 161.1282336442"/>
            <polygon class="cls-5" points="178.8508586221 157.3560221345 174.3861520289 154.7783242024 174.3861520289 138.4321746623 178.8508586221 141.0098123931 178.8508586221 157.3560221345"/>
          </g>
          <g>
            <polygon class="cls-4" points="202.9095125166 151.0061126926 185.3775790258 161.1282336442 185.3775790258 144.7820239028 202.9095125166 134.6599631526 202.9095125166 151.0061126926"/>
            <polygon class="cls-11" points="196.3758689672 154.7783242024 191.9112225752 157.3560221345 191.9112225752 141.0098123931 196.3758689672 138.4321746623 196.3758689672 154.7783242024"/>
          </g>
        </g>
        <g>
          <path class="cls-12" d="M152.1323321306,89.6864246115l-19.0470789884-10.9968453888c-2.0571977091-1.1877108343-3.724833017,.0730241392-3.724833017,2.8159143531h0c0,2.7429504152,1.6676353079,5.9293433772,3.724833017,7.1170542115l19.0470789884,10.9968453888c2.0571977091,1.1877108343,3.7248932183-.0730241392,3.7248932183-2.8159745544h0c0-2.742890214-1.6676955091-5.929283176-3.7248932183-7.1169940102Z"/>
          <path class="cls-12" d="M129.1017352792,79.3734054362l1.4732454155-.8354732099,1.698277753,.7597400136s-.7311443924,1.4358002634-.8632259731,1.3740939628c-.1321417819-.0616460994-2.3082971954-1.2983607665-2.3082971954-1.2983607665Z"/>
          <polygon class="cls-12" points="153.1304089426 100.6300520786 154.5502558339 99.8266059437 154.5893264564 98.4515487606 153.2020484508 98.9404432654 153.1304089426 100.6300520786"/>
          <g>
            <path class="cls-6" d="M150.5996680642,90.5584399916l-19.0470789884-10.9968453888c-2.0571977091-1.1877108343-3.724833017,.0730241392-3.724833017,2.8159143531h0c0,2.7429504152,1.6676353079,5.9293433772,3.724833017,7.1170542115l19.0470789884,10.9968453888c2.0571977091,1.1877108343,3.7248932183-.0730241392,3.7248932183-2.8159143531v-.0000602013c0-2.742890214-1.6676955091-5.929283176-3.7248932183-7.1169940102Z"/>
            <text class="cls-3" transform="translate(132.9086256777 86.9024739265) rotate(29.9998689647) scale(1.0000139748 .8660265473) skewX(26.5646401177)"><tspan x="0" y="0">BUY NOW</tspan></text>
          </g>
        </g>
        <g>
          <path class="cls-6" d="M164.1169667145,69.9998270623l2.9620758816-6.2705039681c.1960826853-.4152081517,.1492389419-1.049067312-.1248574286-1.6872007624-.2740361691-.6381334504-.7386022189-1.1951155903-1.2364136296-1.4825164481l-16.2913659738-9.4058462541c-.2892670898-.1669983199-.5619186298-.2175673858-.7978473967-.1779549509l-.9929597043-3.1940385231c-.1178138803-.3792679941-.3839636834-.733853468-.6782876796-.9038016501l-1.480349165-.8546172134c-.2209386513-.1276266901-.4170141792-.1268440736-.5527078359-.0279333888l-.0004214089-.0003612076-.9493137854,.5665541417,1.1406334132,1.3114244419,.2089585991-.2634407527c.0509302722,.0421408882,.0986698772,.0925895516,.1528510179,.1238942114l.9960901702,.5750425206,4.5046200335,14.49110764c-.3469933683,.2906517263-.5639052716,.7835195148-.5639052716,1.4651784827,0,.7767769727,.2719893261,1.6375949168,.7100137476,2.4050406928-.4380244215,.2617551172-.7100137476,.8084428402-.7100137476,1.5852800141,0,1.5716143261,1.1073421123,3.4895665522,2.4683723654,4.275313514,.2581430346,.1490583418,.5069616793,.2462833911,.7410174003,.296190243l.1225095791,.4023250801,.7820144634-.4802255221c.0937402111-.0430439073,.182590444-.0949374011,.2625979283-.1612189981l.0016856355-.0010234216-.0001737617-.0003612076c.3488595024-.2902303174,.5587813218-.7970045991,.5587813218-1.4807706113,0-.4057565524-.0762750058-.8343895871-.2091994042-1.260855376l5.3551435391,3.0918167685c-.1329243984,.2729525532-.2091994042,.6135713327-.2091994042,1.0193278851,0,1.5715541248,1.1073491212,3.4895063509,2.4683723654,4.275313514,.2789726731,.1610383943,.546206099,.2591664626,.7964627675,.3047388232l.0579206841,.3997966268,.8717674882-.5231490268,.0000602013-.0012040254c.4573490283-.2536279459,.7422214256-.8091652554,.7422214256-1.6052668354,0-1.5716143261-1.1073421123-3.4895063509-2.4684325667-4.2753737153-.0220336639-.0127024677-.0425020948-.0176991731-.0644153561-.0296792256-.0001204025-.0025886546-.0003010063-.0051773091-.0004214089-.0077659637l-9.6890929795-5.5939621081c-.0068027432-.0086689827-.0158329333-.0155921286-.0223948715-.0242611114-.0323882819-.0148697134-.063933746-.0255855393-.0972250468-.0448499453-.54530308-.3147924351-.9873609864-1.0804923743-.9873609864-1.7101374459s.4420579064-.8848382504,.9873609864-.569985614c.0005418114,.0002408051,.0010234215,.0007224152,.001565233,.0010234216v-.0001806038l9.8719844299,5.6996153351c.0017458368,.0010234216,.0034314722,.001565233,.005177309,.0025886546l.1913196278,.5994240345,.8871860775-.5221256052-.0012040253-.0036722774c.1139007979-.0757331963,.2105238321-.1821088384,.2787991469-.3267122864Zm-1.3612781358,4.2408181869c.54530308,.3148526364,.9873609864,1.0804923743,.9873609864,1.7101374459s-.4420579064,.8848984517-.9873609864,.5700458153c-.5452428787-.3147924351-.9873609864-1.0804923743-.9873609864-1.7101374459s.4421181077-.8848984517,.9873609864-.5700458153Zm-9.8735496628-5.7004581528c.5453632813,.3147924351,.9873678052,1.0804321731,.9873678052,1.7101374459,0,.6296450715-.4420045239,.8848382504-.9873678052,.569985614-.54530308-.3147924351-.9873609864-1.0804321731-.9873609864-1.7100772446,0-.6297052728,.4420579064-.8848984517,.9873609864-.5700458153Zm-.4938911976-5.9856315637l-2.9618421542-9.6906584573,16.2913659738,9.4057860528-2.9620829592,6.2705039681-10.3674408604-5.9856315637Z"/>
          <path class="cls-2" d="M151.9201896338,65.1295444077c.0005350419,.0003010063,.001016652,.0007826165,.0015584634,.0010234216v-.0001204025l9.8719844299,5.6995551338c.5924477063,.3420636099,1.1279309458,.2435141327,1.3612710581-.2504974799l2.9620829592-6.2705039681c.1960755279-.4151479504,.1492389419-1.049067312-.1248503035-1.6872007624-.2740432942-.6380732491-.7386164746-1.1951155903-1.2364207546-1.4825164481l-16.2913659738-9.4058462541c-.2892670898-.1669983199-.5619788311-.2175673858-.7979075979-.1779549509l-.992892866-3.1940385232c-.1178807185-.3792077928-.3839703204-.733853468-.6782943166-.9037414488l-1.480349165-.8546774147c-.4090676119-.2361695779-.7404755889-.044548939-.7404755889,.4275494118,0,.4720381495,.331407977,1.0464184561,.7404755889,1.2825880341l.9960299689,.5750425206,4.5046802347,14.49110764c-.3470001052,.2906517263-.5639052716,.7835195148-.5639052716,1.4651784827,0,.776837174,.2719893261,1.6375949168,.7100137476,2.4051008941-.4380244215,.2617551172-.7100137476,.8083826389-.7100137476,1.5852198129,0,1.5716143261,1.107281911,3.4895665522,2.4683791349,4.2753737153,1.3610836848,.785807163,2.4683655959,.1465298885,2.4683655959-1.4251446388,0-.4056963512-.0762148045-.8343293858-.2091994042-1.260855376l5.3552037404,3.0918167685c-.1329243984,.2730127545-.2091994042,.6135713327-.2091994042,1.0193278851,0,1.5716143261,1.1072888956,3.4895063509,2.4683723654,4.275313514,1.3610904543,.7858673643,2.4683723654,.1465298885,2.4683723654-1.4250844376s-1.107281911-3.4895063509-2.4683723654-4.2753737153c-.0220336639-.0127024677-.0425020948-.0176389718-.0644153561-.0296792256-.0001204025-.0025284533-.0003010063-.0051773091-.0004214089-.0077057624l-9.6890929795-5.5940223094c-.0068027432-.0086087815-.0158329333-.0155319274-.0224550727-.0242611114-.0323882819-.0148697134-.0638735447-.0255855393-.097158076-.0447897441-.5453098495-.3148526364-.9873677559-1.0804923744-.9873677559-1.7101374459,0-.6297052728,.4420579064-.8848984517,.9873677559-.5700458153Zm12.8356258525-2.2801230599l-2.9620829592,6.2704437669-10.3674408604-5.9856315637-2.9618421542-9.6906584573,16.2913659738,9.4058462541Zm-11.8482716356,7.9805812127c0,.6296450715-.4420579064,.8848984517-.9873542169,.5700458153-.5453098495-.3148526364-.9873677559-1.0804923743-.9873677559-1.7101374459,0-.6297052728,.4420579064-.8848984517,.9873677559-.5700458153,.5452963105,.3148526364,.9873542169,1.0804321731,.9873542169,1.7101374459Zm9.8735567067,5.7004581528c0,.6296450715-.4420649503,.8848984517-.9873680303,.5700458153-.54530308-.3147924351-.9873609864-1.0804923743-.9873609864-1.7101374459s.4420579064-.8848382504,.9873609864-.5700458153c.54530308,.3148526364,.9873680303,1.0804923743,.9873680303,1.7101374459Z"/>
        </g>
        <g>
          <path class="cls-22" d="M215.4572108514,85.7523318897l-5.3825434904-7.0770203677c-.6273491846-.8248175853-1.4302617106-1.2883673559-2.0575589167-1.1879516394l-5.382595317,.8617811644c-.1142620055,.0183011857-.2166643613,.0588166397-.3111803511,.1119141589l.0002408051-.0052375104-1.4963627022,.8496807094v1.2441796245l.9247516683-.4782388802v27.7777082916c0,1.2188950916,.8557008146,2.7010503321,1.9113300383,3.3104677772l10.7258190052,6.1926035262v.9404040216l1.3813782815-.7793656273c.0054181141-.0030702647,.0108362281-.0059599256,.0161941409-.0091505929l.0074649572-.0041538876v-.0009632203c.3371270974-.2032996851,.5456124832-.6268758131,.5456124832-1.2275640743v-28.1495113284c0-.7532984778-.3327408018-1.6466853084-.8825506022-2.3695821455Z"/>
          <g>
            <path class="cls-24" d="M213.0041212333,118.1799861917l-10.7651906341-6.2152994045c-1.0556292236-.6094174452-1.9113300383-2.0915726856-1.9113300383-3.3104677772v-28.1495113284c0-.7532984778,.3327404057-1.2624808103,.8825505799-1.3504950654l5.382595317-.8617209631c.6273574074-.1004759178,1.4302096961,.3630738528,2.0575589167,1.1878914381l5.382595317,7.0770203677c.5497579738,.722896837,.8825505799,1.6162836676,.8825505799,2.3695821455v28.1495113284c0,1.2188950916-.8557610159,1.7129669055-1.9113300383,1.1034892591Z"/>
            <path class="cls-22" d="M208.5388126274,85.0316022983c0,.0906029097-.0084883787,.1727174405-.0282945957,.2435141327-.1019207457,.3991344129-.4614427145,.5322394184-.8889319142,.285895826-.5067742689-.294384205-.9172265099-1.0049999831-.9172265099-1.5909991347,0-.4982859027,.2943841975-.7445692938,.6935788016-.6285012474,.07362615,.0226356771,.1471920988,.0538199344,.2236477083,.0990912886,.5067742689,.2916149466,.9172265099,1.0049999831,.9172265099,1.5909991347Z"/>
            <path class="cls-2" d="M208.5388126274,85.0316022983c0,.0906029097-.0084883787,.1727174405-.0282945957,.2435141327-.0707364892-.0226356771-.1471920988-.0538199344-.2236477083-.0990912886-.5067742689-.2916149466-.9200559695-1.0049999831-.9200559695-1.5882298763,0-.0906029097,.0113178383-.1726572392,.0311240552-.2462833911,.07362615,.0226356771,.1471920988,.0538199344,.2236477083,.0990912886,.5067742689,.2916149466,.9172265099,1.0049999831,.9172265099,1.5909991347Z"/>
            <text class="cls-1" transform="translate(206.2217845209 91.9976887703) rotate(29.9998689647) scale(1.0000139748 .8660265473) skewX(26.5646401177)"><tspan x="0" y="0">S</tspan><tspan x="-.4121052484" y="6.0593261719">A</tspan><tspan x=".0722649014" y="12.1186523438">L</tspan><tspan x=".0029296582" y="18.1779785156">E</tspan></text>
          </g>
        </g>
        <g>
          <g>
            <path class="cls-16" d="M76.2117914141,43.0813714818c0-2.5018443333-1.7056825089-5.5091987215-3.9874309454-6.8265228878-1.1030076211-.6368692238-2.0658064904-.7261477056-2.7731111809-.3771609497l-.0004816101-.005598718-.0589370408,.0329300941c-.0222142677,.0119800525-.0443034492,.0240805076-.065975906,.0369635791l-.9880880846,.5530690575-.1238293521,1.0738100335,.0899360385-.021491853c-.0577330154,.2788522776-.0899360385,.5836513021-.0899360385,.9164439166,0,2.5016637294,1.7055574514,5.509078319,4.0104231746,6.8398273682,.6127284995,.3537426561,1.1816906775,.5325404248,1.6894329656,.5638450846l-.0760389996,.4354959793,1.2133565442-.667812676c.0121004547-.0067425421,.0243815133-.0130034741,.0363013642-.0199868213l.019144003-.0105352221,.0009632203-.0033712711c.6903881344-.4163519758,1.1042718477-1.2899325889,1.1042718477-2.5199047139Zm-4.0104278295-.8517877538c-.7145890439-.4125592958-1.2216643191-1.3440535296-1.2216643191-2.1689915175,0-.8251185916,.5070752752-1.1710952841,1.2216643191-.7585359882,.7374655255,.425803575,1.2445408007,1.3572376075,1.2445408007,2.1824164004,0,.7717200661-.5070752752,1.1709146802-1.2445408007,.7451111053Z"/>
            <path class="cls-16" d="M63.9959308399,30.2796920512c.6575182424,.3796292017,1.264648024,.5578249577,1.7994158822,.5676377645l.0329300933,.3262306762,.9819428723-.5564403285c.0214964725-.0116790462,.0428633024-.0235988974,.0638133434-.0361207613l.0419649055-.0237795012,.0015004095-.006260932c.6664882312-.4256831724,1.0658680882-1.2871633305,1.0658680882-2.4935365581,0-2.581490612-1.7055019481-5.5088977152-3.9874355945-6.8263422839-1.072605981-.6192904533-2.0121671611-.7200071761-2.71369253-.4045525271l-.0013846292-.0060201269-.070254879,.0390104223c-.0497262469,.0249835266-.0983086696,.0514720849-.145446262,.0807901029l-.9588255857,.5327210286,.0775392324,.6524613524c-.1274460831,.3758365218-.198363176,.8142823632-.198363176,1.3143743041,0,2.5018443333,1.7055019051,5.509078319,4.0104278295,6.8398273682Zm-.0229968841-6.0013440948c.7374655255,.4257433737,1.2447214045,1.3572978088,1.2447214045,2.1822959979,0,.7719006699-.507255879,1.1709748815-1.2447214045,.7451713065-.7144686413-.4124388933-1.2217245203-1.3439933284-1.2217245203-2.1691721213,0-.8249379878,.507255879-1.1707942777,1.2217245203-.7582951832Z"/>
            <polygon class="cls-16" points="72.3165286092 28.8026539185 71.3043647006 29.3727599351 71.3756430012 29.4612558004 61.8985788854 36.0950744263 63.0424029657 37.5359315964 62.4075806011 38.5813868322 63.4197445097 38.0112808157 73.8377544348 30.6923115482 72.3165286092 28.8026539185"/>
          </g>
          <path class="cls-21" d="M58.9733391018,24.0099104983c0-2.5016035282,1.7055019051-3.5395336054,4.0104278295-2.2087845562,2.2819290403,1.3174445688,3.9874309454,4.2449118732,3.9874309454,6.8263422839,0,2.5019045345-1.7055019051,3.5397744105-3.9874309454,2.2223298417-2.3049259244-1.3307490492-4.0104278295-4.3379830349-4.0104278295-6.8398875695Zm12.3310255988,5.3628494368l1.5212258256,1.8896576297-10.418009925,7.3189692674-1.5211656243-1.9162665906,10.4179497238-7.2923603066Zm-7.0989334502-2.3420701656c0-.8249379878-.5071911369-1.7564924229-1.2447214045-2.1822959979-.7144084401-.4124990946-1.2216643191-.0666428047-1.2216643191,.7583553844,0,.8251185916,.507255879,1.756733228,1.2216643191,2.1691721213,.7375302676,.425803575,1.2447214045,.0267293634,1.2447214045-.7452315078Zm2.9963374804,12.0032300011c0-2.5019045345,1.7055019051-3.5397744105,4.0104278295-2.2090253613,2.2817484365,1.3173843675,3.9874309453,4.3246785545,3.9874309453,6.826583089,0,2.5016035282-1.7056825089,3.5395938067-3.9874309453,2.2222696404-2.3049259244-1.3307490492-4.0104278295-4.33822384-4.0104278295-6.8398273682Zm5.231971746,3.0206588687c0-.8251787929-.5070752752-1.7566730267-1.2445408007-2.1824164004-.7146492451-.4125592958-1.2217245203-.0666428047-1.2217245203,.7585359882,0,.8249379878,.5070752752,1.7564322216,1.2217245203,2.1689915175,.7374655255,.4257433737,1.2445408007,.0266089609,1.2445408007-.7451111053Z"/>
        </g>
        <polyline class="cls-28" points="86.2038824818 161.4964848061 73.3254416493 168.9318231263 31.5101229327 144.7897898665 44.3885586559 137.3543913451"/>
        <path class="cls-15" d="M46.0615518765,138.3725754061c-.9739320331,.5622798516-2.5530113165,.5622798516-3.5269514511,0-.973996305-.5623400529-.973996305-1.4740280692-.0000602013-2.0363681221,.9740003359-.5622798516,2.5530796193-.5622798516,3.5270116524,.0000602013,.973996305,.5622798516,.973996305,1.4739678679,0,2.0363079208Z"/>
        <path class="cls-15" d="M103.4383017446,122.9981947487c-.9740018498,.5622798516-2.5530810934,.5622798516-3.5270171972,0-.973996305-.5623400529-.973996305-1.4740280692,0-2.0363079208,.9739361038-.5623400529,2.5530153473-.5623400529,3.5269514511,0,.973996305,.5622798516,.973996305,1.4739678679,.000065746,2.0363079208Z"/>
        <path class="cls-15" d="M71.8016873705,88.3944451795c-.973996305,.5623400529-2.5530755486,.5623400529-3.5270116524,0-.9739361038-.5622798516-.9739916732-1.4739678679,0-2.0363079208,.9739361038-.5622798516,2.5530153473-.5622798516,3.5270116524,0,.9739361038,.5623400529,.9739361038,1.4740280692,0,2.0363079208Z"/>
        <path class="cls-15" d="M99.7732484936,86.6000861584c-.973941556,.5622798516-2.5530207995,.5622798516-3.5269569033,0-.973996305-.5623400529-.973996305-1.4740280692-.0000602013-2.0363681221,.973996305-.5622798516,2.5530755486-.5622798516,3.5270171046,.0000602013,.9739908529,.5622798516,.9739908529,1.4739678679,0,2.0363079208Z"/>
        <path class="cls-15" d="M87.967353098,162.5283947564c-.9739361038,.5623400529-2.5530153473,.5623400529-3.5270116524,0-.9739361038-.5623400529-.9739361038-1.4740280692,0-2.0363079208,.9739361038-.5623400529,2.5530755486-.5623400529,3.5270116524,0s.9739361038,1.4740280692,0,2.0363079208Z"/>
        <path class="cls-15" d="M168.8744249933,160.6903898154c-.9739361038,.5623400529-2.5530153473,.5623400529-3.5270116524,0-.9739361038-.5623400529-.9739361038-1.4740280692,0-2.0363079208,.973996305-.5623400529,2.5530755486-.5623400529,3.5270116524,0s.973996305,1.4740280692,0,2.0363079208Z"/>
        <line class="cls-28" x1="101.5692876526" y1="122.0409343718" x2="46.8356197726" y2="153.6414232391"/>
        <line class="cls-28" x1="69.9176887076" y1="87.3981141791" x2="55.9186665933" y2="95.4804355362"/>
        <line class="cls-28" x1="98.0646708717" y1="85.6637156218" x2="68.6965661999" y2="102.6194030096"/>
        <line class="cls-28" x1="101.9217058719" y1="122.0352152513" x2="167.1109492677" y2="159.6722659557"/>
        <line class="cls-28" x1="55.9197502162" y1="95.4759806423" x2="121.1089334108" y2="133.1129711455"/>
        <g class="cls-31">
          <path class="cls-8" d="M221.8080749784,130.1466138213c0-1.9671968641-2.5993703232-3.4476664691-6.0771975401-3.4477266703-3.5129245558,0-6.1122346778,1.5413330878-6.1122346778,3.4477266703,0,1.906513985,2.5993703232,3.4477868716,6.112294879,3.4477868716,3.4777670157,0,6.0771373389-1.5412728866,6.0771373389-3.4477868716Zm-7.9741996768,0c0-.6286818512,.7730444745-1.1154091103,1.8619047977-1.1154091103,1.1240178634,0,1.8970623379,.4867272591,1.8970623379,1.1154091103,0,.5882265985-.7730444745,1.1155295129-1.8970021366,1.1155295129-1.0888603232,0-1.861964999-.4867874604-1.861964999-1.1155295129Z"/>
          <path class="cls-8" d="M228.2717646552,134.527520361c-3.5129245558,0-6.1122346778,1.5412728866-6.1122346778,3.4477868716,0,1.9063935825,2.5993789328,3.4478470729,6.112294879,3.4478470729,3.4775262106,0,6.0771461907-1.5414534904,6.0770771376-3.4477868716,0-1.9065741863-2.5996111283-3.4478470729-6.0771373389-3.4478470729Zm-.0350973389,4.5631959819c-1.0891011283,0-1.8619047977-.4867272591-1.8619047977-1.1154091103,0-.6288022537,.7727434682-1.1155295129,1.8619047977-1.1155295129,1.1239576621,0,1.8967613315,.4867272591,1.8967613315,1.1155897141,0,.5880459947-.7728036694,1.115348909-1.8967613315,1.115348909Z"/>
          <polygon class="cls-8" points="228.412214212 128.8080988084 212.5343707439 138.9487617508 213.0714345646 139.872068612 214.8528419535 139.739746223 230.7306252203 129.578795453 228.412214212 128.8080988084"/>
        </g>
        <g>
          <g>
            <path class="cls-13" d="M213.9495219363,133.726723082c3.4777670157,0,6.0770771376-1.5412728866,6.0771373389-3.4477868716h0v-1.4590379532h-.5347076569c-.9306513925-1.1949951878-2.9990465374-1.9886887171-5.5424296819-1.9886887171-2.5501858878,0-4.6129740948,.8141619607-5.5553729544,1.9886887171h-.5569219246v1.4590379532h0c.0001204025,1.9064537838,2.5994305245,3.4477868716,6.112294879,3.4477868716Zm-.0351575402-4.5631959819c1.1239576621,0,1.8970623379,.4867272591,1.8970623379,1.115348909,0,.5882867998-.7730444745,1.1155295129-1.8970021366,1.1155295129-1.0888603232,0-1.861964999-.4867272591-1.861964999-1.1155295129,0-.6286818512,.7730444745-1.115348909,1.8619047977-1.115348909Z"/>
            <polygon class="cls-13" points="228.9492697184 129.7110576408 228.9433699942 129.7091312002 228.9492697184 129.7091312002 228.9492697184 128.2500330457 225.5467542869 128.2500330457 225.5467542869 129.6326755886 213.0353656911 137.6233706145 210.7529550406 137.6233706145 210.7529550406 139.0824085678 210.7569885255 139.0824085678 213.0714345646 139.872068612 228.9492697184 129.7110576408"/>
            <path class="cls-13" d="M232.5675464921,136.6484712658h-.5563199119c-.9405244004-1.1745267564-2.9964578829-1.9886887171-5.5208776282-1.9886887171-2.5501256865,0-4.6129221135,.8141619607-5.5553127532,1.9886887171h-.5569219246v1.4590379532h0v.0001204025c0,1.9063333812,2.5993703232,3.4477868716,6.112294879,3.4477868716,3.4775262106,0,6.0771373389-1.5413932891,6.0771373389-3.4477868716v-.0001204025h0v-1.4590379532Zm-6.1122346778,2.5745072648c-1.0891613296,0-1.8619563936-.4867272591-1.8619563936-1.115348909,0-.6288022537,.772795064-1.1155295129,1.8618961923-1.1155295129,1.1239576621,0,1.8968215328,.4867272591,1.8968215328,1.1155295129,0,.588106196-.7728638707,1.115348909-1.8967613315,1.115348909Z"/>
          </g>
          <path class="cls-19" d="M207.8372270573,128.8197778546c0-1.9063935825,2.5993703232-3.4476664691,6.1122346778-3.4476664691,3.4778272169,.0000602013,6.0771975401,1.4805298062,6.0771975401,3.4477266703,0,1.906513985-2.5993703232,3.4477868716-6.0771373389,3.4477868716-3.5129245558,0-6.1122346778-1.5412728866-6.112294879-3.4478470729Zm18.7935714515-1.3385150129l2.3184110083,.7707568458-15.8777749525,10.16095077-2.3184795239-.7909844722,15.8778434681-10.1407231436Zm-10.8193717747,1.3385150129c0-.6286216499-.7731046758-1.1153489091-1.8970623379-1.1153489091-1.088800122,0-1.8619047977,.4867272591-1.8619047977,1.1153489091,0,.6288022537,.7731046758,1.1155295129,1.861964999,1.1155295129,1.1239576621,.0000602013,1.8970021366-.5272427131,1.8970021366-1.1155295129Zm4.5666875401,7.8287536125c0-1.906513985,2.5993703232-3.4478470729,6.1122346778-3.4477868716,3.4775262106,0,6.0771975401,1.5412728866,6.0771975401,3.4477868716,0,1.9063935825-2.5996111283,3.4478470729-6.0771373389,3.4478470729-3.5129245558,0-6.112294879-1.5414534904-6.112294879-3.4478470729Zm7.9739588717,0c0-.6288022537-.7728638707-1.1155295129-1.8968215328-1.1155295129-1.0891011283,0-1.8618961923,.4867272591-1.8618961923,1.1155295129,0,.6286216499,.772795064,1.1154091103,1.8618961923,1.1154091103,1.1240178634,0,1.8968215328-.5273029144,1.8968215328-1.1154091103Z"/>
        </g>
      </g>
    </g>
  </g>
</svg>