<?xml version="1.0" encoding="UTF-8"?>
<svg id="Layer_1" data-name="Layer 1" xmlns="http://www.w3.org/2000/svg" width="287" height="180" viewBox="0 0 287 180">
  <defs>
    <style>
      .cls-1 {
        fill: #f9b786;
      }

      .cls-2 {
        fill: #f47d43;
      }

      .cls-3 {
        fill: #eea35a;
      }

      .cls-4 {
        fill: #fff;
      }

      .cls-5 {
        fill: #e66665;
      }

      .cls-6 {
        fill: #fce2ca;
      }

      .cls-7 {
        fill: #9eceb4;
      }

      .cls-8 {
        fill: #9295ca;
      }

      .cls-9 {
        fill: #d35757;
      }

      .cls-10 {
        fill: #e0693b;
      }

      .cls-11 {
        fill: #d6734c;
      }

      .cls-12 {
        fill: #0a6299;
      }

      .cls-13 {
        fill: #94c4a8;
      }

      .cls-14 {
        fill: #8388ba;
      }
    </style>
  </defs>
  <g>
    <g>
      <path class="cls-4" d="M136.6525046019,33.0081264115h-.8597287223l-.2006655538,.6797215765h-.6223602547l.9253388376-2.8659530381h.6509088902l.9253410985,2.8659530381h-.6222304987l-.1966037967-.6797215765Zm-.7247085281-.4583293777h.5896860938l-.0860749612-.3071701244c-.0778239105-.282648001-.17597841-.6181687365-.2088505961-.8025302187-.0367314495,.2252866949-.1228086391,.5240737516-.2046590624,.8025302187l-.090101474,.3071701244Z"/>
      <path class="cls-4" d="M139.8633492481,33.6878479881h-.5527873949v-.6265518043l-.810583224-1.113561835c-.065577066-.0899364553-.1310266856-.2127450975-.1310266856-.2127450975,0,0,.0122445593,.1392447357,.0122445593,.2498088183v1.7030499185h-.5403448104v-2.8659530381h.5363182976l.831078834,1.1912537307c.0491432582,.0779889335,.0982865163,.1679253888,.1105310756,.1885530161,0-.0122445596-.0082180465-.1270001761-.0082180465-.221095161v-1.1587115858h.5527873949v2.8659530381Z"/>
      <path class="cls-4" d="M141.9154515738,33.0081264115h-.8597594864l-.2006325496,.6797215765h-.6223602547l.9253388376-2.8659530381h.6509088902l.9253388376,2.8659530381h-.6222258598l-.196608415-.6797215765Zm-.724706288-.4583293777h.5896530896l-.086041957-.3071701244c-.0778239105-.282648001-.17597841-.6181687365-.2088505961-.8025302187-.0367336779,.2252866949-.1228086391,.5240737516-.2046590624,.8025302187l-.090101474,.3071701244Z"/>
      <path class="cls-4" d="M143.0217854602,33.6878479881v-2.8659530381h.581435043v2.3338262608h1.0113807946v.5321267773h-1.5928158377Z"/>
      <path class="cls-4" d="M145.2824438024,33.6878479881v-1.20765682l-.8106186864-1.6582962182h.6510739112l.3561483538,.8637860209c.0531697709,.1147556165,.086041957,.2294782288,.0940949826,.2498088183,.0041915338-.0122445596,.0367666821-.1270001761,.0941304547-.2498088183l.3970710975-.8637860209h.655265445l-.8557329736,1.66215771v1.2037953281h-.5814325848Z"/>
      <path class="cls-4" d="M146.9252255451,33.1760518003l.4709039674-.3358507775c.1147226094,.2252866949,.2945955154,.3442008411,.5034461115,.3442008411,.1882254984,0,.3197117138-.1269671719,.3197117138-.3032756284,0-.4257542286-1.1055087814-.5894880834-1.1055087814-1.3633706533,0-.4338072543,.3680653848-.7367858448,.7735525083-.7367858448,.3235757377,0,.5608074162,.1472977614,.7122967077,.380637482l-.3929150359,.3480953371c-.0737973978-.1105310784-.17597841-.1966060418-.2948925532-.1966060418-.1186171053,0-.2088480768,.0860749634-.2088480768,.2088506014,0,.3603398967,1.1016447703,.5447013789,1.1016447703,1.3511260937,0,.4912015646-.3767759807,.8515414613-.9089002203,.8515414613-.4054921614,0-.7780766083-.1675953467-.9704911114-.5485628708Z"/>
      <path class="cls-4" d="M149.1327142136,33.6878479881v-.4831155347h.3564758404v-1.8958274727h-.3564758404v-.4870100308h1.297920729v.4870100308h-.3561483538v1.8958274727h.3561483538v.4831155347h-1.297920729Z"/>
      <path class="cls-4" d="M150.7587627281,33.1760518003l.4708709632-.3358507775c.1147556136,.2252866949,.2945955154,.3442008411,.5034461115,.3442008411,.1882229693,0,.319744718-.1269671719,.319744718-.3032756284,0-.4257542286-1.1055391843-.5894880834-1.1055391843-1.3633706533,0-.4338072543,.368093274-.7367858448,.773549907-.7367858448,.3236062097,0,.5608100512,.1472977614,.7122993465,.380637482l-.3928846705,.3480953371c-.073830402-.1105310784-.17597841-.1966060418-.2949229359-.1966060418-.1186197268,0-.2088532176,.0860749634-.2088532176,.2088506014,0,.3603398967,1.1016472896,.5447013789,1.1016472896,1.3511260937,0,.4912015646-.3767759807,.8515414613-.9089027445,.8515414613-.405456633,0-.7780410799-.1675953467-.970455583-.5485628708Z"/>
    </g>
    <g>
      <path class="cls-4" d="M175.8145634673,46.1295416939l.4712010052-.3356857565c.1147226094,.2251216739,.2945955154,.3439038032,.5034461115,.3439038032,.1882229693,0,.3190846339-.1270001761,.3190846339-.3029785906,0-.4257542286-1.1055087814-.5896531045-1.1055087814-1.3633376491,0-.4340052795,.3687229551-.7369508659,.7741795882-.7369508659,.3235732055,0,.5608106842,.1472977614,.7122999795,.380637482l-.3932153455,.3480953371c-.0735003599-.1105640826-.17597841-.1966060418-.2945922609-.1966060418-.1186203598,0-.2088538506,.0860419592-.2088538506,.2088506014,0,.3603398967,1.1016472896,.5445363579,1.1016472896,1.3510930895,0,.4913665857-.3771060227,.8517064824-.9089027445,.8517064824-.4054896372,0-.7780740841-.1679253888-.970785625-.5487278918Z"/>
      <path class="cls-4" d="M178.1042300457,46.6413708859v-2.8659530381h1.7443051291v.5198822177h-1.162866784v.573217011h.8147714557v.5158557048h-.8147714557v.7369508659h1.162866784v.5200472387h-1.7443051291Z"/>
      <path class="cls-4" d="M180.7252258172,46.6413708859v-2.3256082141h-.5485958611v-.540344824h1.6869768286v.540344824h-.5485628569v2.3256082141h-.5898181106Z"/>
      <path class="cls-4" d="M182.5765339726,46.6413708859v-2.3256082141h-.5485662572v-.540344824h1.6869768286v.540344824h-.5485958611v2.3256082141h-.5898147103Z"/>
      <path class="cls-4" d="M184.0430393253,46.6413708859v-.4831485389h.3558183118v-1.8956294474h-.3558183118v-.4871750518h1.2975967126v.4871750518h-.355821782v1.8956294474h.355821782v.4831485389h-1.2975967126Z"/>
      <path class="cls-4" d="M187.9371392207,46.6413708859h-.5524243487v-.6264197875l-.810913266-1.113726856c-.0657773764-.0900684721-.1308616646-.2128771143-.1308616646-.2128771143,0,0,.0122480576,.1392447357,.0122480576,.2497758141v1.7032479437h-.5408433717v-2.8659530381h.5363182976l.8315408928,1.1914187517c.0490112414,.0778239125,.0979894785,.1677603677,.1102340378,.1883879951,0-.0124095806-.0077229835-.1270001761-.0077229835-.2211281652v-1.1586785816h.5524243487v2.8659530381Z"/>
      <path class="cls-4" d="M189.9277217121,46.6782695857c-.8186656884,0-1.4574656014-.6551004405-1.4574656014-1.4698752189,0-.8065897358,.6471794153-1.4698752189,1.4574656014-1.4698752189,.458956446,0,.8192963336,.1841964612,1.0977527937,.5076376581l-.4344673274,.3767759902c-.1592122749-.1883879951-.4009350572-.3234411969-.667146958-.3234411969-.4873400605,0-.8637859991,.3970735755-.8637859991,.9089027675,0,.5198822177,.3932156478,.9129292803,.8637859991,.9129292803,.2088505961,0,.4383288191-.061387819,.5852965348-.2086855804v-.3563133838h-.5730519755v-.4953930985h1.1177533407v1.0808546691c-.2739678885,.3276327308-.6343077761,.5364833322-1.1261364082,.5364833322Z"/>
      <path class="cls-4" d="M191.4232081553,46.1295416939l.4712340095-.3356857565c.1147226094,.2251216739,.2945661543,.3439038032,.5034131073,.3439038032,.1882559735,0,.3190846339-.1270001761,.3190846339-.3029785906,0-.4257542286-1.1055051528-.5896531045-1.1055051528-1.3633376491,0-.4340052795,.3687193266-.7369508659,.7741759596-.7369508659,.3236062097,0,.5608440827,.1472977614,.7122967077,.380637482l-.3932120737,.3480953371c-.0734673557-.1105640826-.17597841-.1966060418-.2945588624-.1966060418-.1186207541,0-.2088872491,.0860419592-.2088872491,.2088506014,0,.3603398967,1.1016509609,.5445363579,1.1016509609,1.3510930895,0,.4913665857-.3770766898,.8517064824-.9089064158,.8517064824-.405456633,0-.7780410799-.1679253888-.970785625-.5487278918Z"/>
    </g>
    <g>
      <path class="cls-4" d="M189.1083959397,77.7001418598v-2.8659530381h.5814644819v2.3337932566h1.0113807946v.5321597815h-1.5928452765Z"/>
      <path class="cls-4" d="M191.0293690017,77.7001418598v-.4831485389h.3564453917v-1.8958274727h-.3564453917v-.4869770266h1.2982569732v.4869770266h-.3564820425v1.8958274727h.3564820425v.4831485389h-1.2982569732Z"/>
      <path class="cls-4" d="M194.924095977,77.7001418598h-.5530514285v-.6265848085l-.8109462702-1.113561835c-.0650842882-.0899364553-.1308616646-.2127120933-.1308616646-.2127120933,0,0,.0122812383,.1392117315,.0122812383,.2497758141v1.7030829227h-.5402164684v-2.8659530381h.5363182976l.830913813,1.1912207265c.0496383212,.0780219377,.0986165584,.1679253888,.1108941218,.1885530161,0-.0122445596-.0083830675-.1269671719-.0083830675-.221095161v-1.1586785816h.5530514285v2.8659530381Z"/>
      <path class="cls-4" d="M195.5796914641,77.7001418598v-2.8659530381h.581435043v.9211473271c0,.0860419592-.0077229835,.1759784145-.0077229835,.1882229741,.0038614917-.0122445596,.0444566613-.0941279891,.0895734068-.159542321l.655595487-.9498279801h.6587968947l-.7574464573,1.0932642497,.9089027445,1.7726887884h-.6877745849l-.5485958611-1.1506585601c-.0367336779-.0734673576-.0657443722-.1514892953-.0657443722-.1514892953-.0038614917,0-.0444566613,.0818834295-.089606411,.1434362696l-.1559778631,.2088506014v.9498609844h-.581435043Z"/>
      <path class="cls-4" d="M197.8119637335,77.1883126678l.4712340095-.3358507775c.1147226094,.2252866949,.2945955154,.3442338453,.5034461115,.3442338453,.1882229693,0,.3190846339-.1270001761,.3190846339-.3033086326,0-.4257542286-1.1055087814-.5894880834-1.1055087814-1.3633376491,0-.4338402585,.3686899509-.736818849,.7741795882-.736818849,.3235732055,0,.5608074162,.1472977614,.7122967077,.3806704862l-.3932082561,.3480623329c-.0735041775-.1105310784-.1759822276-.1966060418-.2945993329-.1966060418-.1186132982,0-.2088505961,.0860749634-.2088505961,.2088836056,0,.3603398967,1.1016472896,.5446683747,1.1016472896,1.3510930895,0,.4912015646-.3771060227,.8515414613-.9089357487,.8515414613-.4054528335,0-.7780410799-.1675953467-.970785625-.5485628708Z"/>
    </g>
    <g>
      <path class="cls-4" d="M167.8806501205,112.1821088483v-2.8659530381h.581435043v.9211473271c0,.0860749634-.008380024,.1759784145-.008380024,.1882229741,.0038584482-.0122445596,.0451137019-.0940949849,.0902634515-.159542321l.6549023988-.9498279801h.6594569788l-.7574103932,1.0932642497,.9088996846,1.7726887884h-.6878075891l-.5485628569-1.1506255559c-.0373937619-.0735003618-.0657773764-.1514892953-.0657773764-.1514892953-.0038614917,0-.0451167454,.0818504253-.0902334908,.1434362696l-.1553507832,.2088506014v.9498279801h-.581435043Z"/>
      <path class="cls-4" d="M170.3585396682,112.1821088483v-2.8659530381h1.7443381333v.5198822177h-1.1629030903v.573382032h.8148108889v.5156906838h-.8148108889v.7371158869h1.1629030903v.5198822177h-1.7443381333Z"/>
      <path class="cls-4" d="M173.2825140227,112.1821088483v-1.2076898242l-.8109462702-1.658263214h.6510739112l.3564783959,.8637860209c.0528397289,.1147226123,.085711915,.2294782288,.0940949826,.2497758141,.0038944959-.0122445596,.0367666821-.1269671719,.0941279868-.2497758141l.3970767508-.8637860209h.6549322177l-.8554029316,1.6621247058v1.2038283323h-.581435043Z"/>
      <path class="cls-4" d="M176.8575292842,111.236472402c-.016106051,.1021480107-.0405951696,.2046590675-.0902334908,.3316262394l-.2372342107,.6140102068h-.5447013652l-1.1009872056-2.8659530381h.5730519755l.7451688938,1.9406141772c.0534998129,.1472977614,.0696388682,.221095161,.0902697366,.3316592436,.0199643012-.1105640826,.0328689445-.1882229741,.0857086734-.3274677098l.1927445451-.4915316067-.5614675003-1.4532741044h.5408398734l.2249896514,.5975411092c.0412552537,.1231386842,.0741274398,.229511233,.0863719991,.319414684,.0122445593-.0899034511,.0405951696-.1962759998,.085711915-.319414684l.2249929152-.5975411092h.5408366096l-.5608404204,1.4532741044,.1921174653,.4915316067c.053499813,.1392447357,.0657443722,.2169036271,.085711915,.3274677098,.0206276268-.1105640826,.0328721861-.1843614822,.090266495-.3316592436l.7451688938-1.9406141772h.5730519755l-1.1009872056,2.8659530381h-.5447013652l-.2372342107-.6140102068c-.0496383212-.1269671719-.0741274398-.2294782288-.0902334908-.3316262394h-.0083830675Z"/>
      <path class="cls-4" d="M178.9551114014,110.7491323292c0-.8067217526,.6594239746-1.4700402399,1.4742317365-1.4700402399,.8063916902,0,1.4697101607,.6633184873,1.4697101607,1.4700402399,0,.8147747783-.6633184705,1.4739017317-1.4697101607,1.4739017317-.814807762,0-1.4742317365-.6591269534-1.4742317365-1.4739017317Zm2.3380177356,0c0-.5405098451-.3687229551-.9211473271-.8637859991-.9211473271-.4995846198,0-.8683075749,.3848290159-.8683075749,.9211473271,0,.5443713369,.3687229551,.925338861,.8683075749,.925338861,.495063044,0,.8637859991-.3848290159,.8637859991-.925338861Z"/>
      <path class="cls-4" d="M182.3915420148,112.1821088483v-2.8659530381h1.0442529807c.5647019122,0,.9250417998,.3642013885,.9250417998,.9417749544,0,.3683929224-.147624358,.6426908599-.3970735655,.7983716891l.491168548,1.1258063946h-.6387963477l-.4009646399-.9865946631h-.4421937324v.9865946631h-.581435043Zm1.4084873643-1.9241780837c0-.2620203737-.1682554265-.4096481771-.4544678744-.4096481771h-.3725844469v.8148077825h.3725844469c.2823509561,0,.4544678744-.1431062275,.4544678744-.4051596054Z"/>
      <path class="cls-4" d="M184.9061652403,112.1821088483v-2.8659530381h.900519677c.9089062494,0,1.4781262325,.413509669,1.4781262325,1.3962428403,0,.9375834206-.5647019121,1.4697101979-1.3633706189,1.4697101979h-1.0152752906Zm1.7894548787-1.4739017317c0-.6346378342-.3074671545-.8515414613-.8889352017-.8515414613h-.3107015664v1.7891248819h.4093546134c.5195486781,0,.7902821548-.3561483628,.7902821548-.9375834206Z"/>
      <path class="cls-4" d="M187.5316825877,111.6702796563l.4705739254-.3358507775c.1147226094,.2253196991,.2952261401,.3442338453,.5034461115,.3442338453,.1888500492,0,.3197117138-.1270001761,.3197117138-.3032756284,0-.4257872328-1.1055052511-.5895210876-1.1055052511-1.3633706533,0-.4338402585,.3687194249-.7367858448,.773548978-.7367858448,.3235732055,0,.5614344961,.1472977614,.7129237875,.380637482l-.3932120737,.3480953371c-.0741274398-.1105640826-.17597841-.1966060418-.2945955154-.1966060418-.1192441852,0-.2088505961,.0860419592-.2088505961,.2088506014,0,.3603398967,1.1010202098,.5447013789,1.1010202098,1.3510930895,0,.4912015646-.3764789428,.8515414613-.9089027445,.8515414613-.4054896372,0-.7780740841-.1675953467-.9701585452-.5485628708Z"/>
    </g>
    <g>
      <path class="cls-4" d="M95.8570302489,46.6413708859v-2.8659530381h1.0442859849c.56499895,0,.9250087956,.3642013885,.9250087956,.9417749544,0,.3683929224-.1472977577,.6426908599-.3970735655,.7983716891l.4914998518,1.1258063946h-.6387976095l-.4012650992-.9865946631h-.4422233151v.9865946631h-.581435043Zm1.4084873643-1.9241780837c0-.2620203737-.1679253845-.4096481771-.4544678744-.4096481771h-.3725844469v.8147747783h.3725844469c.2826809981,0,.4544678744-.1430732233,.4544678744-.4051266012Z"/>
      <path class="cls-4" d="M98.3716534744,46.6413708859v-2.8659530381h1.7443381333v.5198822177h-1.1628687983v.573382032h.8147734699v.5156906838h-.8147734699v.7371158869h1.1628687983v.5198822177h-1.7443381333Z"/>
      <path class="cls-4" d="M100.6897036673,46.6413708859v-2.8659530381h1.0442529807c.5650319542,0,.9250417998,.3642013885,.9250417998,.9417749544,0,.5772435238-.3600098456,.9375834206-.9250417998,.9375834206h-.4628179377v.9865946631h-.581435043Zm1.4084873643-1.9241780837c0-.2620203737-.1679253845-.4096481771-.4544678744-.4096481771h-.3725844469v.8147747783h.3725844469c.2826809981,0,.4544678744-.1430732233,.4544678744-.4051266012Z"/>
      <path class="cls-4" d="M103.0283484828,45.2083943668c0-.8067217526,.6591269367-1.4700402399,1.4739016945-1.4700402399,.8067547364,0,1.4700402028,.6633184873,1.4700402028,1.4700402399,0,.8147747783-.6632854663,1.4739017317-1.4700402028,1.4739017317-.8147747578,0-1.4739016945-.6591269534-1.4739016945-1.4739017317Zm2.3380177356,0c0-.5405098451-.3687229551-.9211473271-.8641160411-.9211473271-.4995516156,0-.8679445287,.3848290159-.8679445287,.9211473271,0,.5443713369,.3683929131,.925338861,.8679445287,.925338861,.495393086,0,.8641160411-.3848290159,.8641160411-.925338861Z"/>
      <path class="cls-4" d="M106.4644820584,46.6413708859v-2.8659530381h1.0442529807c.56499895,0,.9250087955,.3642013885,.9250087955,.9417749544,0,.3683929224-.1472647535,.6426908599-.3970735655,.7983716891l.4915315943,1.1258063946h-.6388293519l-.4012650992-.9865946631h-.4421903109v.9865946631h-.581435043Zm1.4084543601-1.9241780837c0-.2620203737-.1679253845-.4096481771-.4544348702-.4096481771h-.3725844469v.8147747783h.3725844469c.2826479939,0,.4544348702-.1430732233,.4544348702-.4051266012Z"/>
      <path class="cls-4" d="M109.2330726254,46.6413708859v-2.3254431931h-.5485628569v-.5405098451h1.6869438244v.5405098451h-.5485628569v2.3254431931h-.5898181106Z"/>
      <path class="cls-4" d="M110.6995813785,46.6413708859v-.4831485389h.3561483538v-1.8957944685h-.3561483538v-.4870100308h1.2979232845v.4870100308h-.3561483538v1.8957944685h.3561483538v.4831485389h-1.2979232845Z"/>
      <path class="cls-4" d="M114.594011316,46.6413708859h-.5527543907v-.6265848085l-.810913266-1.113561835c-.0654473344-.0899034511-.1308616646-.2127120933-.1308616646-.2127120933,0,0,.0122445593,.1392447357,.0122445593,.2497758141v1.7030829227h-.5405098314v-2.8659530381h.5363182976l.8312108508,1.1912537307c.0493082792,.0779889335,.0983195205,.1679253888,.1105640798,.1885530161,0-.0122775638-.0080530255-.1270001761-.0080530255-.2211281652v-1.1586785816h.5527543907v2.8659530381Z"/>
      <path class="cls-4" d="M116.5845608031,46.6781045647c-.8186362495,0-1.4574656014-.6549354195-1.4574656014-1.4697101979,0-.8067217526,.6468823775-1.4700402399,1.4574656014-1.4700402399,.4586594081,0,.8189992957,.1843614822,1.0974575168,.5079346959l-.4341390463,.3764789523c-.159542317-.1882229741-.4012650992-.3232761759-.6671799623-.3232761759-.4873070563,0-.8640813256,.3970735755-.8640813256,.9089027675,0,.5198822177,.3932103624,.9130943014,.8640813256,.9130943014,.2088505961,0,.4380317813-.06155284,.585329539-.2088506014v-.3561483628h-.5730849797v-.4953930985h1.1177533407v1.0806896481c-.2742649264,.3274677098-.634604814,.5363183112-1.1261364082,.5363183112Z"/>
    </g>
    <g>
      <path class="cls-4" d="M104.6995162982,110.9389725092v-2.8659530381h.8927966935c.4912015522,0,.7451703681,.290734031,.7451703681,.6671799791,0,.2620203737-.1231401555,.4299457624-.3113631248,.5366483532,.3645314214,.122775638,.5937126065,.3970735755,.5937126065,.7777110575,0,.4995846324-.3236047364,.8844136483-1.0810196628,.8844136483h-.8392968805Zm.810583224-1.8384331623c.3400423028,0,.409681171-.609818673,0-.609818673h-.229148181v.609818673h.229148181Zm.1025110543,1.3594761573c.5772435093,0,.5485628569-.8312108718,.0041915338-.8312108718h-.335850769v.8312108718h.3316592353Z"/>
      <path class="cls-4" d="M107.0710332998,110.9389725092v-2.8659530381h.5814680472v2.3338262608h1.0113807946v.5321267773h-1.5928488419Z"/>
      <path class="cls-4" d="M108.7135204629,109.5059959902c0-.8067217526,.6591269367-1.4700402399,1.4739032661-1.4700402399,.8067531648,0,1.4700386311,.6633184873,1.4700386311,1.4700402399,0,.8147747783-.6632854663,1.4739017317-1.4700386311,1.4739017317-.8147763294,0-1.4739032661-.6591269534-1.4739032661-1.4739017317Zm2.3380177356,0c0-.5405098451-.368721371-.9211473271-.8641144695-.9211473271-.4995531872,0-.8679791045,.3848290159-.8679791045,.9211473271,0,.5443713369,.3684259173,.925338861,.8679791045,.925338861,.4953930985,0,.8641144695-.3848290159,.8641144695-.925338861Z"/>
      <path class="cls-4" d="M113.4843110008,110.975706188c-.8186692537,0-1.4574656014-.6549354195-1.4574656014-1.4697101979,0-.8067217526,.6468493732-1.4700402399,1.4574656014-1.4700402399,.4586264039,0,.8189662915,.1843614822,1.0974557559,.5079677001l-.4341686179,.3764459481c-.1595439886-.1882229741-.4012667709-.3232761759-.6671486297-.3232761759-.487338418,0-.8641160411,.3970735755-.8641160411,.9089027675,0,.5198822177,.3932120737,.9130943014,.8641160411,.9130943014,.2088505961,0,.4379987771-.06155284,.5852982044-.2088506014v-.3561483628h-.5730536451v-.4953930985h1.1177533407v1.0806896481c-.2742979306,.3274677098-.6346378182,.5363183112-1.1261364082,.5363183112Z"/>
    </g>
    <g>
      <path class="cls-4" d="M83.6167945121,77.3697697801v-2.8659530381h.900684698c.9089027445,0,1.4780932283,.413509669,1.4780932283,1.3960778193,0,.9377484416-.565163971,1.4698752189-1.3635026357,1.4698752189h-1.0152752906Zm1.7891248367-1.4739017317c0-.6346378342-.3070050957-.8517064824-.8884401387-.8517064824h-.3111966294v1.7892899029h.4094840714c.5198812789,0,.7901526967-.3563133838,.7901526967-.9375834206Z"/>
      <path class="cls-4" d="M86.4878961335,77.3697697801v-2.8659530381h1.7441731123v.5198822177h-1.1629030903v.573217011h.814807762v.5158557048h-.814807762v.7371158869h1.1629030903v.5198822177h-1.7441731123Z"/>
      <path class="cls-4" d="M88.5603290481,76.8579405882l.4709039674-.3358507775c.1145575884,.2252866949,.2947275322,.3442338453,.5035781283,.3442338453,.1883879903,0,.319249655-.1270001761,.319249655-.3033086326,0-.4255892075-1.1053437604-.5894880834-1.1053437604-1.3631726281,0-.4340052795,.3683929131-.7369508659,.7738495461-.7369508659,.3234411887,0,.5608074162,.1472647572,.7122967077,.380637482l-.3930470527,.3480953371c-.0736323767-.1105640826-.17597841-.1966060418-.2947605364-.1966060418-.1187491221,0-.2088505961,.0860419592-.2088505961,.2088506014,0,.3603398967,1.1014833414,.5445363579,1.1014833414,1.3510930895,0,.4912015646-.3767770534,.8515414613-.9090688383,.8515414613-.405291612,0-.7778760589-.1679253888-.970290562-.5485628708Z"/>
      <path class="cls-4" d="M90.7678151612,77.3697697801v-.4831485389h.3563133748v-1.8956294474h-.3563133748v-.4871750518h1.2979232845v.4871750518h-.3561483538v1.8956294474h.3561483538v.4831485389h-1.2979232845Z"/>
      <path class="cls-4" d="M93.9742724885,77.4065034589c-.8188012705,0-1.4576294972-.6549354195-1.4576294972-1.4697101979,0-.8065897358,.6468823938-1.4698752189,1.4576294972-1.4698752189,.4584943871,0,.8188342747,.1841964612,1.0972907349,.5076376581l-.4339722643,.3767759902c-.159707338-.1883879951-.4012650992-.3234411969-.6673449833-.3234411969-.4873400605,0-.8639510201,.3970735755-.8639510201,.9089027675,0,.5198822177,.3930470527,.9130943014,.8639510201,.9130943014,.2086855751,0,.4380317813-.06155284,.5854615558-.2088506014v-.3563133838h-.5732169965v-.4953930985h1.1177533407v1.0808546691c-.2744299474,.3274677098-.634604814,.5363183112-1.1259713872,.5363183112Z"/>
      <path class="cls-4" d="M97.7380057824,77.3697697801h-.5527543907v-.6265848085l-.810583224-1.113561835c-.0656123554-.0900684721-.1310266856-.2128771143-.1310266856-.2128771143,0,0,.0122445593,.1392447357,.0122445593,.2497758141v1.7032479437h-.5403448104v-2.8659530381h.5363182976l.831078834,1.1913857475c.0491432582,.0778569167,.0982865163,.1677603677,.1105310756,.1883879951,0-.0124095806-.0082180465-.1269671719-.0082180465-.221095161v-1.1586785816h.5527543907v2.8659530381Z"/>
    </g>
  </g>
  <g>
    <g>
      <circle class="cls-5" cx="215.4972658741" cy="76.3789918342" r="12.3317911513" transform="translate(-12.7001680295 90.4769758262) rotate(-23.0511502914)"/>
      <path class="cls-9" d="M227.4732039539,79.3206812689l-6.3500702783-5.7344804041,.1814527336,1.6985613468-.8347753047-1.6985613468h-6.0944901048l-1.5409662349,1.9770178139-.7325901463,.2391814647,.0016130597-.001947248h-2.1053010077l-.3322904082,1.0513489109h.0276905263l-.5562858404,.5891910456,1.0133280426,2.3254431931-.6562225669-.2865424971,7.1503935692,9.1757627223c5.2819596329-.4876371106,9.5969951325-4.3050683391,10.8285139607-9.3349750013Z"/>
      <g>
        <path class="cls-4" d="M215.5072661476,80.2814666447h-4.5555041222c-1.2089439534,0-2.1923041797-1.1670616493-2.1923041797-2.6013253323s.9833602263-2.6016553744,2.1923041797-2.6016553744h4.5555041222c1.2092739954,0,2.1929642638,1.1673916914,2.1929642638,2.6016553744s-.9836902684,2.6013253323-2.1929642638,2.6013253323Zm-4.5555041222-4.3604823972c-.7448388518,0-1.3501359335,.7890314994-1.3501359335,1.7591570649,0,.9698285276,.6052970818,1.7588270228,1.3501359335,1.7588270228h4.5555041222c.7448388517,0,1.3501359335-.7889984952,1.3501359335-1.7588270228,0-.9701255655-.6052970818-1.7591570649-1.3501359335-1.7591570649h-4.5555041222Z"/>
        <path class="cls-4" d="M219.5567168263,78.1014069692h-4.555471118c-1.2096370416,0-2.1932943058-1.1667646115-2.1932943058-2.6019854164,0-1.434263683,.9836572642-2.6010282945,2.1932943058-2.6010282945h4.555471118c1.2089813226,0,2.1926672259,1.1667646115,2.1926672259,2.6010282945,0,1.4352208049-.9836859033,2.6019854164-2.1926672259,2.6019854164Zm-4.555471118-4.3611424813c-.7445418139,0-1.3507960176,.7896585793-1.3507960176,1.7591570649,0,.9701255655,.6062542036,1.7597841447,1.3507960176,1.7597841447h4.555471118c.7445418139,0,1.3501359335-.7896585793,1.3501359335-1.7597841447,0-.9694984856-.6055941196-1.7591570649-1.3501359335-1.7591570649h-4.555471118Z"/>
      </g>
    </g>
    <g>
      <circle class="cls-8" cx="184.947420494" cy="28.9012813203" r="11.0728442148"/>
      <path class="cls-14" d="M190.7805503158,26.1800517156l-.3442338366,1.7146673982c-.459286488,.1972661259-.9453393846,.4202755307-.9740200369,.4918286445-.0551170189,.1376275297-1.6502101466,4.0707384924-1.6502101466,4.0707384924l-4.1255253664,1.2653811723-.9172824069,1.5038695488,3.12120755,4.7050462845c4.8906913231-.4128825891,8.8753547514-4.0023867864,9.8819499366-8.6997100872l-4.9918856933-5.0518214535Z"/>
      <path class="cls-4" d="M190.2529121236,29.8475778506c.0229049168-.1508292112,.038354479-.3000742206,.0480211153-.4428504061,.0180568949-.2684891976,.0158090132-.538562597-.0061057775-.8051375508l.9630296373-1.0465302972-.4773067828-1.3730078808-1.4458811262-.2294782288c-.263967615-.3771060322-.5737120595-.7174453814-.9201901819-1.0139881523l-.0644572083-1.4497426546-1.3104978858-.6287960901-1.1915837426,.8698917986c-.1975631587-.0341593509-.3935091115-.0586484701-.5823921649-.0708930297-.2774993382-.0180532995-.5598502943-.0145218497-.8409140865,.0102973116l-1.0794024569-.9682113216-1.3669020686,.4950630565-.2133687921,1.4613601343c-.3529173218,.252680184-.6749063256,.5472757068-.9565971976,.8753704965l-1.4761426619,.1095739565-.5911415971,1.3279241385,.8551058937,1.1016473175c-.038053846,.2120520092-.0651172924,.4222227788-.0780219357,.6226903124-.0186803789,.283605123-.0144888451,.5756263179,.0125746013,.8663603488l-.8934237733,.9288703108,.4470452408,1.3833381966,1.3833348495,.2510959822c.2768722584,.4003079875,.6065842457,.760944922,.9794987346,1.0729666644l.0276905263,1.3697734689,1.2943952399,.6613712392,1.2292711372-.8521685412c.1875993304,.031585023,.3742016528,.0534998143,.5553287185,.0657443739,.3677658333,.0241920814,.7403502802,.0103303158,1.1071259873-.0405951706l1.1654809258,.8727961686,1.3178873196-.6136801648,.0754476079-1.3414228578c.3226160837-.2501058561,.617211599-.5376054751,.8760341234-.8541157892l1.4448874351-.0735003618,.6207760529-1.3149864906-.9086057067-1.2270302876Zm-5.3960551624,2.4018149206c-1.7849298901-.0518826083-3.1898562133-1.5409332696-3.1379736063-3.3258666176,.052212649-1.784933348,1.5406361928-3.189559256,3.3258665336-3.1373466057,1.7846362651,.0519156125,3.1892291334,1.5406362317,3.1373465264,3.3252395377-.051552565,1.78526339-1.5406361928,3.1898892981-3.3252394537,3.1379736856Z"/>
    </g>
    <g>
      <circle class="cls-7" cx="143.5197535474" cy="16.0728443547" r="11.0728445515"/>
      <path class="cls-13" d="M153.7578216443,20.2931248943l-5.7032252791-7.68992271-4.044632065,3.0509541418-1.4510273925-.7003723068-4.6365318298,3.1434721859,.3300420293,2.2838578963,3.4145158226,6.5718300579c.6301162424,.1186171083,1.2790778846,.1843614822,1.9420663131,.1904672599,4.5822375265-.0364036368,8.4998694187-2.8546656004,10.1487924013-6.850286525Z"/>
      <g>
        <polygon class="cls-4" points="149.6329233577 10.953634918 146.9710023745 11.3868150924 147.5560018715 12.0649491667 143.9068285895 15.2009954068 142.2353613128 14.1283587844 137.4065493861 17.2025122412 137.9224050779 18.0972562052 142.3178718201 15.4691545624 144.0305943536 16.4595876144 148.1954583033 12.8056106952 148.7871906576 13.4914799648 149.6329233577 10.953634918"/>
        <polygon class="cls-4" points="138.2524471072 20.3811141015 140.2955392855 20.3811141015 140.2955392855 17.7188630091 138.2524471072 18.9155624334 138.2524471072 20.3811141015"/>
        <polygon class="cls-4" points="141.2036499291 20.3811141015 143.2257844385 20.3811141015 143.2257844385 17.016863595 142.2147336859 16.4392900291 141.2036499291 17.2231398685 141.2036499291 20.3811141015"/>
        <polygon class="cls-4" points="144.0099643002 20.3811141015 146.1561946126 20.3811141015 146.1561946126 15.799840182 144.0099643002 17.5538419902 144.0099643002 20.3811141015"/>
        <polygon class="cls-4" points="146.9610021011 20.3811141015 149.1481906293 20.3811141015 149.1481906293 14.9537840193 148.0545963652 13.9633377656 146.9610021011 15.0153467606 146.9610021011 20.3811141015"/>
      </g>
    </g>
    <g>
      <circle class="cls-5" cx="100.0988954306" cy="28.0935694415" r="11.0728442148"/>
      <path class="cls-9" d="M109.6614341753,33.6739862225l-2.8018243119-5.6303521413-2.9558564892,2.9101126628,.2621839752-4.5770889865-5.9407565276-1.1325722564-1.5448277266,1.2740612779c-.105547441-.1350532018-.2736378465-.1859786882-.5459885291-.094425027-.9459664644,.3177974781-1.9339802834,1.1409553241-2.8143673965,1.6418271205l4.8531360242,8.5288803285-.0025743278,.0032014078,.0109573954,.0112874377,1.4484224498,2.5455812322c.1556808252,.0067658618,.3116916925,.0119145176,.4689567194,.0119145176,4.079782961,0,7.6417271383-2.2077832066,9.5625387446-5.4924275737Z"/>
      <g>
        <path class="cls-4" d="M100.0990604517,27.285560525c-.4452583962,0-.8081739172,.3625841826-.8081739172,.8080089166,0,.4451276962,.362915521,.8077118787,.8081739172,.8077118787,.4452927059,0,.8077118583-.3625841826,.8077118583-.8077118787,0-.445424734-.3624191524-.8080089166-.8077118583-.8080089166Z"/>
        <path class="cls-4" d="M100.5554425698,23.6099813643c-4.4258966173-.4215956989-7.2354454002,4.4835880773-7.2354454002,4.4835880773,0,0,2.8095487829,4.9045566963,7.2354454002,4.4832910394,0,0,3.7937341143,.0957451951,6.3225491471-4.4832910394-2.5288150328-4.5790032303-6.3225491471-4.4835880773-6.3225491471-4.4835880773Zm-.4563821181,6.6965529439c-1.2223436598,0-2.2130968275-.9907531928-2.2130968275-2.2129648666,0-1.2225087117,.9907531678-2.2129318624,2.2130968275-2.2129318624,1.2218816009,0,2.2124697477,.9904231508,2.2124697477,2.2129318624,0,1.2222116738-.9905881468,2.2129648666-2.2124697477,2.2129648666Z"/>
      </g>
    </g>
    <g>
      <circle class="cls-8" cx="70.2437888742" cy="74.2527207598" r="11.0728442494"/>
      <path class="cls-14" d="M81.047682183,76.6751963119l-5.4568160379-5.6023315723-.4675045463,6.2969050405-.5363183112,.3303720797h-1.8593908317l-2.4838633711,.157595073-5.6300220992-.2887867829,5.2957885277,7.7482649011c.1113891877,.0032014078,.2220852871,.0083500636,.3342335715,.0083500636,5.2829498924,0,9.6987143309-3.7006953597,10.8038930982-8.6503688026Z"/>
      <g>
        <path class="cls-4" d="M72.2034136833,71.0728647396c-.0459088474,.1804999904-.094260006,.3667757164-.1492120052,.5679033342-.0367336788,.1343931177-.0775268746,.2700733994-.1195742302,.4054566433h2.7080279231v5.290969914h-7.686712061v-5.290969914h3.2892979598c.0581864112-.2881597031,.1207293774-.573382032,.1956489199-.8470198854,.0124095806-.0448197087,.0238620393-.0825105094,.0359415779-.126340092h-4.9230720546c-.8584723441,0-1.5541679553,1.6202423712-1.5541679553,3.6188449344,0,1.9989656094,.6956956112,3.6188779386,1.5541679553,3.6188779386h10.0371064321v-7.237722873h-3.3874524618Zm-5.9460703545,6.2643298914h-.9487058372v-1.0274868716h.9487058372v1.0274868716Zm0-2.2174534383h-.9487058372v-1.0275198758h.9487058372v1.0275198758Zm0-1.9860609658h-.9487058372v-1.0278169136h.9487058372v1.0278169136Z"/>
        <path class="cls-4" d="M71.00460199,73.41665827c.2303033339-.5169778478,.480079148-1.1602957876,.6761901267-1.877741169,.4944359766-1.8075082234,.701504351-3.3255695798,.4618938317-3.3909839116-.2391484605-.0654473361-.8339832249,1.3465715136-1.3283861973,3.153749695-.196474025,.7174783856-.3087873304,1.3981900883-.3740366413,1.9606147247l.5643388802,.154360661Z"/>
        <path class="cls-4" d="M70.396730565,73.6899990856c-.0522126504,.6123599967-.0443246457,1.0017105885-.0443246457,1.0017105885,0,0,.2049891096-.3313292016,.4718611012-.8850407282l-.4275364556-.1166698603Z"/>
      </g>
    </g>
    <g>
      <circle class="cls-7" cx="101.2620047972" cy="125.0547054385" r="11.0728648425"/>
      <path class="cls-13" d="M111.7481925251,128.6104133311l-5.9947200104-5.3303109248-3.7552182095-3.4232290187-1.2714855853,4.4645776559,2.7028448622,.5005417543-5.8105206887,5.2197798464,3.6278867405,6.0854801112c.0049836346,0,.0099672693,.0002970378,.0149839081,.0002970378,4.8710243022,0,9.0046026941-3.1466867953,10.4862289831-7.5171364621Z"/>
      <g>
        <polygon class="cls-4" points="101.9982543051 123.0087088387 101.9982543051 119.8568733875 97.6190928933 119.8568733875 97.6190928933 130.0417726441 105.4482166417 130.0417726441 105.4482166417 123.0087088387 101.9982543051 123.0087088387"/>
        <polygon class="cls-4" points="102.726690068 119.7940333836 102.726690068 122.2803060616 105.4891748576 122.2803060616 102.726690068 119.7940333836"/>
      </g>
    </g>
    <g>
      <path class="cls-2" d="M196.020594611,125.0547054385c0,6.1154479282-4.9577263433,11.0728443547-11.073174117,11.0728443547-6.1147876897,0-11.0725140329-4.9573964265-11.0725140329-11.0728443547s4.9577263433-11.0728443547,11.0725140329-11.0728443547c6.1154477737,0,11.073174117,4.9573964265,11.073174117,11.0728443547Z"/>
      <path class="cls-10" d="M195.9767650295,126.0110022425l-6.8848087482-6.0616180719-.229148181,.2088506014-1.3050191881-.3300420376-1.2102641215,.5501800768-.3574355177,2.3102942635-3.1353992785,3.2726968453-2.1178797021,2.3712200237,.3845319683,1.7607412667,4.87132134,5.9836291384c5.3103432474-.4973073423,9.5283463904-4.7436942071,9.9841014287-10.0659521062Z"/>
      <path class="cls-4" d="M185.7899517864,119.5667994406c-.6504138272,.6500838016-.7403502802,1.6631148319-.2968728054,2.4994743595l-6.1989154029,6.1989485637,.2288511431,.2294782288,.7993321342,.7992958068,.7989954054,.799328811,1.1431995811-1.143529652-.7986687067-.7989987689,.5582330884-.5592232286,.7887014374,.7880413733,.916295686-.9166257512-.7877113114-.7880413733,3.5801969214-3.5804940496c.8363595065,.443477486,1.8490604692,.3542011148,2.5001343804-.2962127288,.8147747578-.8151048204,.7519347554-2.1994331431-.1405318961-3.0918998171-.8921696136-.892136632-2.2764648972-.9549766359-3.0912396549-.1395417735Zm2.330261748,2.329964769c-.3948292797,.3948292896-1.0346157535,.3948292896-1.4294120289,0-.3942021998-.3944992476-.3942021998-1.0342857376,0-1.4284879474,.3947962755-.3951263275,1.0345827493-.3951263275,1.4294120289-.0002970378,.3944992376,.3944992476,.3944992376,1.0342857376,0,1.4287849852Z"/>
    </g>
  </g>
  <g>
    <path class="cls-12" d="M168.7115639335,76.3999412525c0-14.2804569102-11.5769502705-25.857044427-25.8573738158-25.857044427-14.2801244713,0-25.8567467359,11.5765875168-25.8567467359,25.857044427,0,13.1091707228,9.7578246134,23.9325693054,22.4048371514,25.6208003364v47.5863190975c0,2.2974226241,2.2194006303,4.1600148635,4.958025816,4.1600148635,2.7379932361,0,4.9580539504-1.8625922395,4.9580539504-4.1600148635v-48.1648497853c11.1524502124-2.870144572,19.3932036339-12.9937880264,19.3932036339-25.0422696486Zm-26.9638703544,25.829023858c.3674334223,.0154459674,.7354962934,.028020569,1.1064965386,.028020569,.3983607294,0,.7938170889-.0122445596,1.1880192887-.029967817-.3942021998,.0177232574-.7896585593,.029967817-1.1880192887,.029967817-.3710002451,0-.7393931583-.0115844755-1.1064965386-.028020569Zm-.9585434346-.0615858442c.1556808252,.0125746016,.3107015664,.0261063252,.4670424757,.0357765569-.1560108673-.0102973116-.3116916925-.0228719132-.4670424757-.0357765569Zm3.5070266035,.0473940366c.3825847204-.0209576694,.7632221928-.0493082804,1.1409552953-.0867020433-.3777331025,.0377238049-.7583705749,.0657443739-1.1409552953,.0867020433Zm1.3359771304-.1082867926c.3435737525-.036766683,.6852002571-.0802662236,1.0245849687-.1302345881-.3393847117,.0499683645-.6810112162,.0934679051-1.0245849687,.1302345881Zm1.2215185547-.1585851991c.369680077-.0573613061,.7364887884-.1234357221,1.1006901678-.1966060418-.3642013793,.0731703197-.7310100907,.1392447357-1.1006901678,.1966060418Zm1.3543274673-.2491487342c.3639043415-.0767017695,.7261584729-.1585521949,1.0842540747-.2504358982-.3580956018,.0918837033-.7203497332,.1737341286-1.0842540747,.2504358982Zm-5.3538097827-2.0821031987c-12.8017032371,0-23.2164105014-10.4150045653-23.2164105014-23.2167081258s10.4147072643-23.2167081258,23.2164105014-23.2167081258c12.8020002749,0,23.2170375813,10.4150045653,23.2170375813,23.2167081258s-10.4150373064,23.2167081258-23.2170375813,23.2167081258Z"/>
    <path class="cls-12" d="M160.789895146,61.2395922699c-.4550949542-.5379355172-.935009069-1.0568276088-1.4358808527-1.5515606232-4.2373436059-4.1806424909-10.0546644146-6.7678090198-16.4647053059-6.7678090198-6.4069762959,0-12.2238020415,2.5871665289-16.4614756895,6.7697232636-.5008717837,.4941059346-.9820730624,1.0130310304-1.4360439281,1.5512635854-3.4652782324,4.0897489137-5.5594609167,9.372995844-5.5594609167,15.1393913132,0,5.7319060762,2.0683733977,10.9877595174,5.4979061327,15.0662209934,.4536447248,.5411699291,.9316096361,1.0645835966,1.4343956636,1.5631781029,4.2425252658,4.2174091739,10.0835430921,6.827447616,16.5246787381,6.827447616,6.4425830354,0,12.2834358407-2.6100384421,16.5278753503-6.827447616,.5012018257-.4985945063,.9775543266-1.02009393,1.4345936888-1.561890939,3.427750508-4.07974864,5.4982391651-9.3356020811,5.4982391651-15.0675081574,0-5.7663954692-2.0965949816-11.0496423995-5.5601220456-15.1410085192Zm-1.3414228239,1.6324869308c2.8046971651,3.4345164564,4.5660984713,7.7521263929,4.7936624505,12.469417237h-5.9056400557c-.0622129225-.4193184088-.1650210147-.828966586-.3197089339-1.2260731657-.2588217393-.6613712392-.6259274885-1.243466381-1.1016500695-1.7449652573s-1.0446133013-.8998596156-1.7062842873-1.1944551385c-.0912236169-.0406281748-.1869358054-.0715531138-.2810637922-.1067025908-.0667344983-.8312108718-.5405098314-3.3819407598-.7532219193-4.2547699325,2.0327618627-1.0610191426,3.8235039054-2.3924747309,5.2739066074-3.9424511523Zm-4.5809476623,17.3865155307c-.4032150475,.227563985-.8480126904,.3413294753-1.3340299162,.3413294753-.486352601,0-.9308202019-.1163728225-1.3343599582-.349052459-.4032149801-.2327126407-.7522674303-.545361463-1.0468629457-.9385735467-.2948925532-.3928820416-.5250308602-.8557329952-.6903819169-1.3884868524-.1656480945-.5324568193-.2481586018-1.0987429475-.2481586018-1.6985613468v-.0309249389c0-.5995213614,.0799361795-1.1635301995,.2404356184-1.6908383631,.160202401-.5276052014,.387733376-.9875517851,.6823288914-1.3807638687,.2948925532-.3928820416,.6439780076-.7032535738,1.0471573506-.9308175588,.4035423892-.227563985,.8480099901-.3413294753,1.3343599245-.3413294753,.475392539,0,.9176158541,.1163728225,1.326306899,.349052459,.4083637129,.2327126407,.7625621087,.545691505,1.0626363218,.9385735467,.299744171,.3932120837,.5324568059,.856030033,.6981049004,1.3884868524,.1653510567,.5327868614,.248191606,1.0990729896,.248191606,1.6985613468v.0309579431c0,.6001154371-.0828405494,1.1634971953-.248191606,1.6911354009-.1656480945,.5272751593-.3957864016,.9875517851-.6903819169,1.3804338267-.2948925532,.3932120837-.6439450034,.703286578-1.0471546503,.9308175588Zm3.1905163779-18.9277788423c-1.2183199279,1.3333698321-2.7267110145,2.4975601157-4.450421521,3.443856646-1.2267002145-3.9044303096-3.0702819861-7.0607873366-5.3132120788-9.0751989134,3.7535680942,.9824031293,7.1091054909,2.9561865312,9.7636335998,5.6313422674Zm-14.1267257531-5.7776829069c3.2543464258,.8992325358,6.0916187392,4.7888439579,7.736020146,10.1500798216-2.3270603403,.9675842418-4.9487161959,1.5709340908-7.736020146,1.6898812412v-11.8399610628Zm8.2803914692,12.1651514825c.1289144167,.5440742991,.387403334,2.265507559,.4995846198,3.0290268089-.6910393726,.0322451071-1.3317855967,.1704997166-1.9157949675,.4286916027-.6671799623,.2945955228-1.2386147318,.6955305901-1.7143373129,1.2022111263-.4757555853,.506647532-.8454356623,1.0913170017-1.1090732353,1.7526882409-.263967615,.6620313233-.3957864016,1.3601362414-.3957864016,2.0943477583v.0309579431c0,.7345085548,.1292444587,1.432646477,.388065944,2.0943477583,.2581563494,.6619983191,.6255921406,1.2408590489,1.1013147217,1.7372092694,.475392539,.4966802625,1.0442529807,.8921696362,1.7062842873,1.1867321548,.6030197918,.2688192397,1.2695726741,.4086910552,1.9931568192,.4325530945l-.1231386811,.8637860209c-.1340630723,.7854340412-.2894138555,1.5538379133-.4689567194,2.2980497039-2.5010915023-1.0049780046-5.2877683726-1.6225196613-8.2417105433-1.7414338074v-1.4107316857h2.6058468424v-1.0858713081h-6.5466806892v-3.7074942257h5.8018418375v-1.1013172754h-5.8018418375v-3.6146534005h6.4690217997v-1.0858713081h-2.5230062931l-.0051816599-1.6473058183c2.968133978-.1166698603,5.7715439792-.7393601727,8.2803914692-1.7559226529Zm-10.3615044892-12.3262780053v12.0010875856c-3.0754636459-.131851794-5.9483474943-.8505843394-8.4478217906-2.0018699794,1.7986300471-5.6345436751,4.9241940731-9.5715161296,8.4478217906-9.9992176062Zm-5.5435179411,.6536152514c-2.0002527228,1.9483371609-3.6588459369,4.8281519646-4.8115507285,8.3342215347-1.4426467143-.8683075968-2.7173680441-1.8945403087-3.7713242605-3.0490273564,2.3725071277-2.3921446889,5.3061538623-4.2215677036,8.582874989-5.2851941783Zm-9.9733090543,6.8280746959c1.2781207627,1.3643277752,2.8234105481,2.5629744476,4.5632271057,3.5547177665-.2831430569,1.1074560573-.5160207128,2.267124765-.7003801133,3.4663985172l-.1234357221,1.0710524206c-.3426187046,.0322121029-.6681391581,.089573409-.9724049049,.1788497802-.475722581,.1395747777-.8868229328,.3361808195-1.2331360341,.5895210876-.3466431434,.2536373059-.6154623763,.5585631445-.8067527386,.9153385872-.1914243818,.3568084469-.2870065466,.7577435142-.2870065466,1.2022111263v.0309249389c0,.57823365,.1587502161,1.0639565168,.4716960683,1.4587858064h-5.7056327275c.2261099359-4.7172908441,1.9873462211-9.0349007806,4.7938256131-12.467800031Zm-.0647872504,26.9293840115c-2.7676334452-3.4219418547-4.5029284269-7.7066796043-4.7290383628-12.3833752778,1.1226031001-.0002970378,2.2452080586-.0002970378,3.3677800129-.0006270799,2.1219062148-.0006600841,5.2221890214-.2642976637,7.1068610256,.9485408162,.9301904554,.5988612773,1.0715144524,1.6856567031-.2533402617,2.069198555-.2326796307,.0673615799-.5040731914,.1163728225-.8142796947,.1476278034-.4344673274,.0309579431-.8352703678,.0129046437-1.202376117-.0544569362-.3671057492-.067064542-.7007122324-.1653510609-1.0005884203-.2945955228-.300074213-.1292444619-.5661540971-.2765422233-.7988667319-.442190322-.2326796307-.1653510609-.4265463187-.3204048101-.5817320809-.4654252815l-.7447068349,.6826589507c.1653510567,.1653180567,.3980636916,.3387221432,.6981049004,.5195521757,.299909192,.1811270703,.6307763264,.3516267869,.9928654368,.511829192,.3619570935,.1604994429,.7342114984,.2974668885,1.1169632974,.4112323789,.1909602605,.0567342263,.3729124313,.1021810149,.5459864715,.1357132859l.2303033281,.9820730872c.1928765619,1.241189091,.4373716972,2.4395387255,.735962817,3.5808240917-1.7883018275,1.0133280682-3.3676189461,2.2445498896-4.6698987854,3.6514200835Zm1.380466796,1.5476991314c1.0831009677-1.1980195925,2.4000326329-2.261943105,3.8947290864-3.157644191,1.2616825585,3.765845658,3.1109080487,6.7916380549,5.3372395617,8.7013272932-3.5437602813-1.0394343934-6.7080052331-2.9745698727-9.2319686481-5.5436831022Zm14.2011474498,5.6725975221c-3.4896333885-.4251271487-6.587473884-4.2921636954-8.3925397507-9.8355167556,2.4865718753-1.1396681602,5.3386608535-1.8455290661,8.3925397507-1.977347856v11.8128646115Zm0-13.8959249321c-3.2441788418,.129574504-6.2915912048,.8586373651-8.9728526509,2.0485709277-.211919987-.8395939396-.3935421157-1.7104758643-.5458235081-2.6051868242l-.2001704908-.9079456456c.0986165584-.0077229837,.193701667-.0129046437,.2966747801-.0238620393,.3877355193-.0409252127,.7857970676-.1163398183,1.1944881125-.2246266108,.4083610029-.1086168346,.7807804287-.2688192397,1.1169282356-.4809042531,.335850769-.2120520092,.6101486996-.4889242746,.8222337076-.8302537499,.211754966-.3409994333,.3179294868-.7599878001,.3179294868-1.2563380205,0-.4035423994-.0852498562-.7600208043-.2559145895-1.0703923365-.1706317292-.3103715322-.3878653928-.5791907719-.6515359701-.8067217526-.263802594-.2272339429-.5638768071-.418691329-.8998595929-.573712074-.3361808111-.1553507871-.6670149412-.284265207-.9927004158-.3880634279-.325881358-.1031381368-.6336806963-.1804999904-.9230945518-.2327126407-.2896097614-.0515525663-.522289398-.092807821-.6981379046-.1237657641l-.5429191382-.1398718156c-.527440167-.1134684525-.9308175353-.2662119076-1.2099340795-.4576692936-.2792795076-.191127344-.4913665732-.3800104022-.6360549503-.5659890904-.1655181263-.2069033534-.2691513235-.4292856784-.3102395154-.6671799791-.0310919999-.3306691175,.0154769304-.6307433381,.1395727334-.8998596156,.1136004665-.2272339429,.3048928267-.4422233262,.5740090974-.6436479818,.2688192329-.2017546976,.6926592069-.3232761759,1.271981981-.3645314306,.5687284249-.0412552547,1.0910199363,.0025743279,1.5669075384,.1318187898,.47555756,.1292444619,.8892343926,.2820209212,1.2410240386,.4573722558,.4135426627,.2072333954,.7806484119,.4499133057,1.1013502518,.729359899l.667146958-.6513709655c-.6826237399-.5588931866-1.4015234775-.9720728135-2.1563626027-1.2412220952-.3184575541-.1134354483-.6538132601-.1975631637-.9999613404-.2629774956l.1600043758-1.1809564191c.143766308-.8512114193,.3124837933-1.6827523332,.5100469521-2.4856125939,2.6927139045,1.1999338363,5.7546458273,1.9351354793,9.0152630516,2.0650070212v1.6473058183h-4.5745145431v10.5952075178h4.5712801312v.8541157892h.0032344119v.5566158965Zm2.08111302,13.7328511613v-11.6497908407c2.7679989854,.1166698603,5.3715660438,.7119666836,7.6867118669,1.6695506516-1.6518273525,5.2755239466-4.4665247911,9.0893577168-7.6867118669,9.9802401891Zm3.7826116979,.3426166393c2.4717507659-1.944805711,4.5096942885-5.2404074738,5.8411498432-9.4004223373,1.7788275254,.9678812796,3.3336252727,2.1694653261,4.5774189129,3.5482819468-2.8011657154,2.8527513566-6.395554444,4.9203327057-10.4185687561,5.8521403906Zm11.7992995857-7.3982553201c-1.4709973246-1.5889543861-3.299100125-2.9565165733-5.3809062333-4.0362490994,.2552875097-1.0252425858,.4689567194-2.0943477583,.6407435957-3.1975792776l.2124150501-1.2209245099c.0664044563-.0257762831,.1350531984-.0467339525,.2001374866-.0754146056,.6668829244-.2945625186,1.238317694-.6952005481,1.714040275-1.2021781221,.475722581-.5066805362,.8454026581-1.0910199639,1.1093702731-1.7530512872,.1176627661-.2948925606,.2046590624-.5982011932,.2697763548-.9076156035l5.9633314024,.0080530257c-.2243295673,4.6766956735-1.961901839,8.961433423-4.7289082044,12.3849594796Z"/>
    <g>
      <path class="cls-3" d="M139.4022805332,114.1484993086l-5.5546403575,5.4869488759c.9759342807,2.6448578771,1.9592967258,5.296481616,3.3745477329,7.7456905732,2.8504739945,4.9325772653,4.6376845875-.1708297587,4.1339084339-3.6478886337-.2887867756-1.9937839494-1.1964023563-3.6439941377-1.7946012207-5.1291833071l-.1592145886-4.4555675083Z"/>
      <path class="cls-3" d="M133.8476401757,119.6354481845l-1.4162103478,8.9030819908c.8392968805,1.3034020151,1.6979033962,2.5990810465,2.5852192156,3.8699409166,1.2031704471,1.723050466,2.4285812685,3.8170681822,4.0491229378,5.1759172596,2.3131962739,1.9389969712,1.8523255842-3.221144279,1.6837401156-4.0675040804-.2307653869-1.1603287918-.4947330019-2.3664014099-.9540171703-3.4538569198-.4015974609-.9501580222-1.3121174113-1.4487525285-1.7997545096-2.3525066402-1.1151767669-2.0666242271-2.1517420143-4.1793553269-3.2214742397-6.2701386312-.3081272386-.6020956893-.6184987629-1.2032012524-.9266260015-1.8049338955Z"/>
      <path class="cls-3" d="M132.4314298279,128.5385301753l-.5156885503,8.7854220044s6.5247637779,8.3016463856,7.6460838862,7.0369252973c1.0178496441-1.148051228,1.2921145774-2.7992185381,.8238155957-4.2541098485-.9053712948-2.8127832659-2.7196453341-4.9867371636-4.5732273791-7.2860740315-1.1351465556-1.4081573578-2.2915808221-2.87209182-3.3809835525-4.2821634217Z"/>
      <path class="cls-3" d="M131.9157412776,137.3239521796l1.7871776339,7.3802020207s5.711936223,4.9354816352,6.3742645674,3.3974197313c.6320304861-1.4680929919-.106372546-3.1515054091-1.2663382623-4.0652597945-1.076828129-.8483070494-1.9283695689-1.7617313928-2.9230172326-2.7392829041-1.3356140842-1.3124121627-2.6570693654-2.6396762171-3.9720867064-3.9730790534Z"/>
      <path class="cls-1" d="M166.8989071001,148.7065409867c-1.254753787-5.5182038569-4.8507267174-23.113900031-5.9404264856-26.1274808726-1.4581256855-4.0323546034-5.320967881-4.3475777535-7.9516366038-7.1667968391-2.4115180956-2.583932117-3.4241860541-8.1556357881-3.0886653271-11.5914394085,.5798178371-5.9407566777-6.7242763052-5.9407566777-8.9274058634,0-2.2031295583,5.9407566777,1.6232811078,12.211225351,4.8695745901,15.2918377304,0,0-1.9715745433,13.3115855045,.5794853223,17.822270033l2.5510598656,4.5106845285-.5798178371,10.4514412062s-1.2753814139,1.20993411-3.5943557244,1.8700181853c-2.3190073148,.6600840753-.4638080638,0-.4638080638,0l5.5652677108,7.7837114159,18.3189498327-10.5339517156-1.3382214162-2.3102942635Z"/>
      <path class="cls-1" d="M134.0152355181,119.9242349674s3.6578558109,8.1749762515,4.0900788524,8.3135939073c.4322230416,.1385846516,4.1777380154-3.2865916151,1.695986976-7.6622229418l-2.4817817866-4.3756313267-3.3042840419,3.7242603612Z"/>
      <path class="cls-1" d="M133.7422577557,123.7332501239c-.0216177529,.3290849157-1.3939985192,4.8133330771-1.3108279278,4.8052800513,.0831375872-.0080530257,5.5472144118,8.6236353975,6.2002025668,7.5090834364,.6526911172-1.1141889149,.8283394852-5.0118533627-1.8384331159-8.443762487-2.666442559-3.4316120864-3.0509415232-3.8706010007-3.0509415232-3.8706010007Z"/>
      <path class="cls-1" d="M132.5932164307,132.1905773387c.024194219,.3294149578-.7152010775,4.9603007964-.6343077761,4.940960333,.0815533854-.0196705054,6.6862554634,7.7737111422,7.1787441795,6.5798830836,.4924910315-1.1941250964,.1279572948-5.0785878627-2.9877714787-8.1085717936-3.1151016937-3.0303469771-3.5566649247-3.412271623-3.5566649247-3.412271623Z"/>
      <path class="cls-1" d="M133.3803006622,141.2641590461c.0676916202,.2185208331,.2687862287,3.4663985172,.3226182493,3.4399951542,.0532006094-.0264363672,5.8608181824,4.1606419434,6.0194033775,3.2739840093,.1585851951-.8863608963-.6961906566-3.4502924658-3.3358668071-4.9893114915-2.6393791126-1.5390190258-3.0061548198-1.7246676719-3.0061548198-1.7246676719Z"/>
      <g>
        <path class="cls-6" d="M146.6367688115,101.1418066385c-.3058829528-.1524464172-.6965206987-.1814571123-1.20059389-.028350611-1.8593883696,.5662861282-2.1249756057,4.113610953-.9130942783,5.3480341823,1.8345716241,1.8638794034,3.8786539285,.3377650213,3.4399950673-1.7443381774-.2211281596-1.0510188689-.2701063968-3.0486973144-1.326306899-3.5753453939Z"/>
        <path class="cls-6" d="M138.4746666918,122.8878474445c.1472954715,.0186803793,.2323803066,.1904672599,.4293163855,.6101157108,.4844356906,1.0307542878,.6104457374,2.6187515519-.3632442575,3.4048456772-.9288702873,.7493604465-.863123649-.6130200807-1.0706893473-1.2969661953-.1901702173-.6239774764-.3796803505-1.2482849948-.5695205258-1.8725925132-.0138617652-.0457768306,.8898923236-.5888610036,.9656369694-.6233503965,.3165103061-.1450204713,.4847350115-.2378612965,.6085007757-.2220522829Z"/>
        <path class="cls-6" d="M136.560486644,132.8213206768l1.500338061-1.686943867s1.1109874791,3.4045486394-.06669922,3.9640689058l-1.433638841-2.2771250388Z"/>
        <path class="cls-6" d="M136.3042750166,140.758138594c.0099672693-.1237657641,1.0838932872-1.4439339147,1.0838932872-1.4439339147,0,0,1.522580635,1.3311255462,1.3962405462,3.7129729235l-.2011276127,.2062762735-2.2790062208-2.4753152824Z"/>
        <path class="cls-6" d="M137.3298476185,146.4101084887l.4744354171-1.1138918771s1.2505292491,.3300420376,1.5141998263,2.3515495182l-1.9886352434-1.2376576412Z"/>
      </g>
    </g>
    <polygon class="cls-2" points="147.5031291384 160.3131293246 152.2887385634 175 187.6032356997 175 166.4805458238 148.1015739316 147.5031291384 160.3131293246"/>
    <polygon class="cls-11" points="147.5031291384 160.3131293246 152.2887385634 175 160.1916939679 175 151.2786475424 157.8835908729 147.5031291384 160.3131293246"/>
  </g>
  <g>
    <polygon class="cls-12" points="184.947090452 76.0234953044 178.6447068729 72.3904585623 178.6447068729 75.1471346818 172.3055896159 75.1471346818 172.3055896159 76.8998229227 178.6447068729 76.8998229227 178.6447068729 79.6565320464 184.947090452 76.0234953044"/>
    <polygon class="cls-12" points="175.9086584499 105.7910758186 174.0212470969 98.765768001 172.0719198591 100.715095288 167.589289017 96.2327613705 166.3500171916 97.4720362176 170.8326481469 101.954337131 168.8833508098 103.9036644179 175.9086584499 105.7910758186"/>
    <polygon class="cls-12" points="173.4910345768 48.1407518629 166.4657269367 50.0284933057 168.4150211702 51.9777875884 163.9323903281 56.4601215059 165.1716651439 57.6996933909 169.654295986 53.2170624356 171.6036263469 55.1663897226 173.4910345768 48.1407518629"/>
    <polygon class="cls-12" points="99.9891564559 76.0234953044 106.291540035 72.3904585623 106.291540035 75.1471346818 112.6306902962 75.1471346818 112.6306902962 76.8998229227 106.291540035 76.8998229227 106.291540035 79.6565320464 99.9891564559 76.0234953044"/>
    <polygon class="cls-12" points="111.8282921145 48.2245495363 118.8534347336 50.111960937 116.9043055211 52.061288224 121.3866063212 56.5435891373 120.1473645095 57.7828639844 115.6648656843 53.3005300669 113.7155731115 55.2498573539 111.8282921145 48.2245495363"/>
    <polygon class="cls-12" points="112.2179727385 105.7910758186 114.1057141336 98.7660980431 116.0550083671 100.715095288 120.5375071924 96.2327613705 121.7767820082 97.4720362176 117.294448204 101.954667173 119.2436104207 103.90399446 112.2179727385 105.7910758186"/>
    <polygon class="cls-12" points="142.6156687431 35.382547843 146.2487053934 41.6849315813 143.4916993015 41.6849315813 143.4916993015 48.0240489984 141.7391431217 48.0240489984 141.7391431217 41.6849315813 138.9824670719 41.6849315813 142.6156687431 35.382547843"/>
  </g>
</svg>