<?xml version="1.0" encoding="UTF-8"?>
<svg id="BACKGROUND" xmlns="http://www.w3.org/2000/svg" width="816" height="821" xmlns:xlink="http://www.w3.org/1999/xlink" viewBox="0 0 816 821">
  <defs>
    <style>
      .cls-1, .cls-2, .cls-3, .cls-4 {
        fill: none;
      }

      .cls-5 {
        fill: url(#linear-gradient);
      }

      .cls-6 {
        clip-path: url(#clippath);
      }

      .cls-7 {
        fill: #674bff;
      }

      .cls-8 {
        fill: #ffe097;
      }

      .cls-9 {
        fill: #e3e1fd;
      }

      .cls-10 {
        fill: #fff;
      }

      .cls-11 {
        fill: #ffe1a5;
      }

      .cls-12 {
        fill: #ffebaf;
      }

      .cls-13 {
        fill: #ffbc00;
      }

      .cls-14 {
        fill: #ffac00;
      }

      .cls-15 {
        fill: #fbfbfb;
      }

      .cls-16 {
        fill: #fadea2;
      }

      .cls-17 {
        fill: #fdfdf6;
      }

      .cls-18 {
        fill: #753ae7;
      }

      .cls-19 {
        fill: #9f85f7;
      }

      .cls-20 {
        fill: #b7b1f8;
      }

      .cls-21 {
        fill: #b7a0f6;
      }

      .cls-22 {
        fill: #bab5f8;
      }

      .cls-23 {
        fill: #b396f6;
      }

      .cls-24 {
        fill: #a592f5;
      }

      .cls-25 {
        fill: #c3bef5;
      }

      .cls-26 {
        fill: #c6bcfb;
      }

      .cls-27 {
        fill: #a8a3f9;
      }

      .cls-28 {
        fill: #4b1acd;
      }

      .cls-29 {
        fill: #78509c;
      }

      .cls-30 {
        fill: #7b54cf;
      }

      .cls-31 {
        clip-path: url(#clippath-1);
      }

      .cls-32 {
        clip-path: url(#clippath-2);
      }

      .cls-2 {
        stroke-width: 2.7095255678px;
      }

      .cls-2, .cls-3 {
        stroke: #7b54cf;
      }

      .cls-2, .cls-3, .cls-4 {
        stroke-miterlimit: 10;
      }

      .cls-3, .cls-4 {
        stroke-width: 5.4190511357px;
      }

      .cls-4 {
        stroke: #fff;
      }

      .cls-33 {
        fill: url(#linear-gradient-3);
      }

      .cls-34 {
        fill: url(#linear-gradient-4);
      }

      .cls-35 {
        fill: url(#linear-gradient-2);
      }

      .cls-36 {
        opacity: .45;
      }

      .cls-37 {
        opacity: .7;
      }
    </style>
    <linearGradient id="linear-gradient" x1="1821.4599632173" y1="2093.1000266062" x2="1586.5669896846" y2="2459.4009583249" gradientTransform="translate(-2318.9531500507 2008.091527432) rotate(-84.2437996528)" gradientUnits="userSpaceOnUse">
      <stop offset=".00000007" stop-color="#6847ec"/>
      <stop offset=".593564678" stop-color="#9479f7" stop-opacity=".5141008029"/>
      <stop offset="1" stop-color="#b19aff" stop-opacity=".2"/>
    </linearGradient>
    <linearGradient id="linear-gradient-2" x1="-1235.6654585895" y1="3086.4200632814" x2="-1363.4267312802" y2="3339.9620403528" gradientTransform="translate(1665.7802420102 4034.0530848459) rotate(140.4167091835)" xlink:href="#linear-gradient"/>
    <linearGradient id="linear-gradient-3" x1="-1405.3940457844" y1="3776.9342896066" x2="-1495.7557358303" y2="3956.256873542" gradientTransform="translate(1665.7802420102 4034.0530848459) rotate(140.4167091835)" xlink:href="#linear-gradient"/>
    <linearGradient id="linear-gradient-4" x1="551.4763109072" y1="36.9762180588" x2="406.3981128047" y2="263.2166131535" gradientTransform="matrix(1, 0, 0, 1, 0, 0)" xlink:href="#linear-gradient"/>
    <clipPath id="clippath">
      <ellipse class="cls-1" cx="411.4745748841" cy="409.9738025962" rx="266.226661698" ry="266.3930448966"/>
    </clipPath>
    <clipPath id="clippath-1">
      <ellipse class="cls-1" cx="411.4745748841" cy="409.9738025962" rx="266.226661698" ry="266.3930448966"/>
    </clipPath>
    <clipPath id="clippath-2">
      <path class="cls-1" d="M143.1840675289,363.4372250558c-.2682430345,5.613595282-.536486069,11.2274615166-.8050000561,16.8413277512-.1557318925,3.2619979535-.3107825864,6.5454011598,.1227415097,9.7822005245,1.1398974204,8.5087234599,8.2282873452,25.5131646564,18.4445536239,26.3092232981,1.7324706693,.1349343783,3.3934098627-.5223965491,4.8915065675-1.3219775741,.2889018625-.153901058,.5736065697-.3156597405,.8537715169-.4847341423,4.5219272756-2.7301180646,7.6043502391-7.3588007657,8.6921581281-12.499854771,1.1298721756-5.3393912843-2.2919877059-9.059840981-3.2743951043-13.9873843636-1.0150548747-5.0925534958-1.1027769475-10.4590400368-.5081026347-15.6065969036,.6714204439-5.8103068456,2.3047224762-11.5699455613,1.9015450668-17.405180043-.4029064569-5.8346925767-3.5272604274-12.0489896996-9.1311012755-13.7123675081-3.5974371405-1.0678240663-7.4465230084-.0793891021-11.0667863649,.9087749095-7.9844300411,2.179271496-9.6374457443,11.067057597-9.9827051719,18.2827954074-.0460619352,.9648620909-.0921238704,1.9291822767-.1381858057,2.893773415Z"/>
    </clipPath>
  </defs>
  <g class="cls-36">
    <path class="cls-5" d="M188.5027798741,424.7166704545c-1.3712909067,13.6131988686-13.5121332198,23.5368366331-27.1169322151,22.1647328341-13.6052749305-1.3723747516-23.5227465054-13.5208040433-22.1517265512-27.1340029119,.0864338667-.8564810641,.3348973643-1.6490173224,.5037008092-2.4740678888-9.7805090424,.6435123465-19.3411356453,2.2277720054-28.5811598499,4.6910017916,.4657674508,.7882010173,.9895187495,1.5270886673,1.3737294797,2.3816730635,5.6154918081,12.4757399926,.0596095632,27.1442991094-12.4085434425,32.7625005851-12.467340148,5.6190143334-27.127499365,.0596095647-32.7421783154-12.4161304278-.3766240585-.8369724793-.5763160953-1.7010402153-.8532296118-2.553998896-8.0843478228,5.3984589439-15.6301693821,11.570758419-22.5283506098,18.4212521691,.8584410803,.4747088973,1.7381606731,.8876406093,2.553727879,1.4750657745,11.096862099,7.9949973929,13.6150951926,23.4783108786,5.6252461003,34.5819470722-7.99066195,11.103365241-23.4638868378,13.6234950662-34.5608118989,5.6282267206-.8291148339-.5974504101-1.5132074047-1.3130361394-2.2459257707-1.9893337465-4.3078747531,8.671295-7.8039756361,17.8435812964-10.395907826,27.4287993047,1.0846230981-.0341400234,2.1611176194-.1119034102,3.2703974004,0,13.6051327366,1.3723747516,23.5227465054,13.5208040433,22.1511846461,27.1348157696-1.3710199541,13.6137407737-13.5124041724,23.5373785382-27.1174741203,22.1650037866-1.1344783692-.1143419832-2.1995928829-.4088674235-3.2785259773-.667627125,.6055789718,10.0032978192,2.2012185983,19.7770988141,4.7037364434,29.2192538671,1.0195944837-.6548923543,2.0326861059-1.3187261433,3.1704783414-1.8316393526,12.4689034278-5.6179305231,27.1277710028-.0593386122,32.7421158798,12.4169432855,5.6154918081,12.4760109451,.0598805158,27.1440281569-12.4085434425,32.7627715377-1.1428778985,.5153517823-2.3166443889,.8367015267-3.4877013537,1.1669927058,5.506568879,8.2971095051,11.8232859127,16.0311795761,18.8515243692,23.0843458463,.583902767-1.1621155596,1.1846679601-2.321250641,1.9681993966-3.4104799602,7.9903909974-11.1036361935,23.4634078947-13.6237660187,34.5602699937-5.6282267206,11.0963201939,7.9952683455,13.6150951926,23.4780399261,5.6247041952,34.5816761196-.7792595629,1.0829974101-1.6828863508,2.0139904301-2.5934935686,2.9311648692,8.8508719916,4.3907863474,18.2174310418,7.9437873578,28.0169722831,10.5422224748-.0869757718-1.3485309257-.139811521-2.7070870964,0-4.0962609071,1.3712909067-13.6134698212,13.5124041724-23.5371075856,27.1174741203-22.1650037866,13.605611853,1.3723747516,23.5227465054,13.5210749958,22.1517265512,27.1342738645-.1341215173,1.3301061511-.4511360126,2.5905774926-.7819690885,3.842920257,10.1108657328-.6559761646,19.9838351179-2.3280244552,29.5141165294-4.9248338568-.7408513143-1.1160536233-1.4607722665-2.2548672621-2.0289597851-3.5166933664-5.6146121286-12.4757399926-.0590676581-27.144570062,12.4091526248-32.7627715377,12.4680857285-5.6182014757,27.1268901826-.0593386122,32.7421110382,12.4169432855,.5286284448,1.1732246149,.8632548565,2.3781506801,1.1970684105,3.5811800774,8.2548406961-5.5591338161,15.9323500237-11.9387120049,22.937286737-19.0140963856-1.1255369631-.5722518214-2.2499901159-1.1496517416-3.3064341745-1.910215597-11.0969307296-7.9949973929-13.614621918-23.4780399261-5.6244333847-34.5816761196,7.9898492942-11.1036361935,23.4628665823-13.622953161,34.5597289617-5.6279557681,.9727197153,.7004123856,1.7937059932,1.5241081891,2.6333879982,2.3315468386,4.2786119847-8.7813017422,7.7329862607-18.0684719269,10.2585351372-27.7715543019-1.1645541327,.0482295569-2.3266696924,.1203029397-3.5202157498,0-13.6050702916-1.3723747516-23.5227470996-13.5208040433-22.1511852057-27.134544817,1.3712909413-13.6134698212,13.5121335611-23.5371075857,27.1174748053-22.1650037866,1.0496702444,.1059424537,2.031602347,.3882750284,3.0343977973,.6180428052-.6930966663-9.901419654-2.3540359016-19.5711748632-4.9069509874-28.9117227036-.8900791824,.5465113275-1.7460183414,1.133123635-2.7230732978,1.5734215563-12.4681533207,5.6187433808-27.1275000503,.0596095647-32.7427210477-12.4164013804-5.6149500449-12.4760109451-.0590676596-27.1442991094,12.4090856611-32.7627715377,.8608163052-.3882750284,1.7495407248-.5960956473,2.6271560891-.8792410797-5.4431661174-8.0508136217-11.6569213352-15.5561997262-18.5437227294-22.4145511008-.4595355535,.8228829458-.8516039179,1.669338765-1.4157271623,2.4529335886-7.9901202467,11.103365241-23.4626636931,13.6237660187-34.5600676973,5.6282267206-11.096862099-7.9955392981-13.6145532875-23.4777689735-5.6244332426-34.581405167,.5186708541-.7207338281,1.1469421869-1.303281847,1.7254259027-1.950858482-8.5908218706-4.2024743134-17.6720678751-7.602658076-27.1494465223-10.1257683794,.0071117654,.8992915697,.0918529179,1.7836807482-.0002709526,2.6989585194Zm61.7292936585,152.4953561092c-5.5886676459,55.4778090352-55.0649444902,95.918834415-110.5088830539,90.3266443858-55.4433966586-5.5919190767-95.8586805236-55.0995592517-90.2700130189-110.5773682869,5.5886675047-55.4780799878,55.0646049796-95.918834415,110.5082725907-90.3266443858,55.4434643368,5.5921900292,95.8590201754,55.0992882992,90.2706234821,110.5773682869Z"/>
  </g>
  <path class="cls-26" d="M680.9011248608,725.4829285859c.2336740339-2.5022044385,.7291862038-5.0734989397,2.1774371371-7.1268380024,3.8567217198-5.4664761757,12.8432705834-4.5260592068,17.6522910027,.1240980745,4.8094604833,4.6501572813,6.5301110909,11.5530026598,8.0399709974,18.0721121484,5.3683418827-24.4134357429,21.024502155-46.3875962128,42.3398866762-59.4240549335,4.3460729924-2.6579871278,9.0736815542-5.0052890052,14.1559817758-5.3370973321,5.0827402857-.3318083269,10.5945430631,1.7558557351,13.098947822,6.1939021231,2.3098964294,4.0947963947,1.6696031726,9.1722559113,.6666971024,13.7665250526-2.6271826412,12.0331125864-7.2980229349,23.6164796687-13.7520029375,34.1049672851,5.1843950914-3.1887044251,10.6825558819-6.4755431432,16.7646817251-6.65684955,6.0830059714-.1808663426,12.7490968673,4.0226258833,12.9700090425,10.1078321751,.1817464708,4.9942874028-3.7568271705,9.0640001442-7.4071588302,12.4749369368-7.1466408866,6.6770924983-14.292401645,13.3541849966-21.4390425316,20.0312774948,3.824597041-3.7013790946,10.2636148644-4.3095476725,14.7126628547-1.3897224089,4.4486079263,2.9193851996,6.4566203872,9.0714812338,4.5885483081,14.0556471624-1.0653951716,2.8401736627-3.169341605,5.1553508612-5.3485389985,7.2641379997-15.551865082,15.0493118867-53.9096117715,32.124238798-74.1886453513,16.5389288449-15.0629538736-11.5767661209-26.6586427505-55.3847066146-25.031725795-72.7998030706Z"/>
  <path class="cls-27" d="M203.3111501414,746.701527672c-.108381024-1.4211462136,.0243857304-3.0362944652,1.1071121606-3.9629522442,.9803737879-.8388691473,2.4137128671-.8299277126,3.6941672045-.6746718917,4.5671763531,.5540979994,8.4306889076,2.4981826673,12.2072256903,4.9833596113-2.6520836583-7.2333497272-3.3042664705-14.8213763646-.7147728536-22.2070014345,1.5582481732-4.4438930505,4.9102022942-8.9812647366,9.613667785-9.1600934308,4.3409309654-.1650101133,8.0172153009,3.6578596538,9.1909817913,7.8429930029,1.1734955378,4.1854043016,.4392140999,8.6393225971-.3023830571,12.922811728-.5638522776,3.257933665-1.1279755077,6.51586733-1.6918277853,9.7740719475,1.2119708013-7.0019562351,19.8955732949-19.9217874849,21.168779407-6.8922204455,.249005409,2.547766987-.6126237539,5.0603101403-1.503515794,7.4609498835-4.2761734116,11.5252383877-13.3826182341,27.9983416005-28.2894126485,26.2263118126-10.9917325057-1.3068042304-23.6647256469-15.6163511961-24.4800219002-26.3135585392Z"/>
  <g class="cls-37">
    <path class="cls-35" d="M519.3451435037,686.6993526739c7.2235954348-4.0195813307,16.3362721664-1.4187076405,20.3536858766,5.8097649405s1.4176238303,16.3468393165-5.8059716046,20.3666915998c-.4543874548,.252798745-.9331606406,.402906467-1.4005538186,.6042242243,3.6960639657,4.6332888948,7.782841533,8.8330536825,12.1944912281,12.5700314859,.2303096819-.5034298694,.4156412377-1.0187816517,.7066442946-1.5043286517,4.247723392-7.0957058232,13.4392473206-9.4023250257,20.5300759977-5.1521630605,7.0913705822,4.24962006,9.3963640692,13.4473758976,5.1489116297,20.5428107683-.2847711479,.4760636601-.6443252042,.8732801233-.9716359051,1.3054494675,5.4680937536,2.1494667136,11.1342538336,3.7646149652,16.9128592289,4.8237685494-.0609643276-.5895927857-.1598620145-1.1691603264-.1501077221-1.776906934,.1327667578-8.2697432958,6.9404500024-14.8663544908,15.2050451994-14.7333167804,8.2645951971,.1330377104,14.8571421035,6.9447852434,14.7241043931,15.2147994918-.0097542924,.6183137578-.1284315167,1.2046551126-.2108010971,1.8018345702,5.7870049249-.8551263013,11.5423083994-2.2865687125,17.1903146575-4.3092296247-.3915264592-.5267317901-.8017486456-1.0344969006-1.1290593465-1.6238187337-4.0176846627-7.228472581-1.4178947828-16.3468393165,5.8059716046-20.3669625523,7.22413734-4.0195813307,16.3370850241-1.418436688,20.3542277817,5.8100358931,.3351683253,.6025985089,.5565365725,1.2331051322,.8006648353,1.8581927041,4.7511532614-3.7545897202,9.0465643053-7.9215692473,12.8642859736-12.4245299574-.6762976071-.2798940017-1.355846645-.5538270468-2.0026104223-.9415601701-7.0910996296-4.2504329177-9.3966350218-13.4476468502-5.1486406772-20.5430817209,4.2474524395-7.0954348707,13.4387054155-9.4020540731,20.5300759977-5.1518921079,.6500152081,.3896297913,1.2146803576,.8613582103,1.7828678905,1.3287513883,2.2128696143-5.5986928908,3.8667640829-11.4054773531,4.9375686275-17.330126182-.7781757723,.1116324576-1.5601448805,.2135106228-2.3711059134,.2005048995-8.264595197-.1330377104-14.8568711509-6.945056196-14.7238334405-15.2150704444,.1327667578-8.2697432958,6.9404500024-14.8660835382,15.205316152-14.7330458278,.8060838867,.0130057232,1.5796534653,.1400824771,2.3488878029,.2755587606-.8789701272-5.9102883428-2.3515973285-11.7875204725-4.4466025762-17.5501396664-.6383642477,.5091198733-1.2940694597,1.0044211657-2.0313313944,1.414643352-7.2235954348,4.0195813307-16.336543119,1.4187076405-20.3536858766-5.8100358931-4.0174137101-7.2282016285-1.4178947828-16.3468393165,5.805700652-20.3666915998,.7058314369-.3926102695,1.4403838459-.6703366506,2.1757491126-.9385796919-3.816637858-4.7934218619-8.0548779102-9.1178248304-12.6328924814-12.9523455578-.2977768711,.752706231-.6137075641,1.5037867466-1.0431673827,2.2212691438-4.2474524395,7.0951639181-13.4392473206,9.4020540731-20.5303469502,5.1518921079-7.090828677-4.2498910126-9.3960931166-13.4473758976-5.1486406771-20.5428107683,.3993840837-.667627125,.8814087003-1.2499041913,1.3626204592-1.8308264949-5.6068214679-2.1790005434-11.421192602-3.7879168859-17.348280004-4.8224137865,.1048586434,.7562286144,.2070077612,1.5140829441,.1945439431,2.3009291985-.1327667578,8.2697432958-6.9404500024,14.8660835382-15.205316152,14.7330458278-8.2648661496-.1327667578-14.8566001983-6.9447852434-14.723562488-15.2145285393,.0113800078-.7247981166,.1360181886-1.4168109726,.2468377885-2.1126171645-5.8317120984,.9082330044-11.6298260786,2.3995559329-17.3130561703,4.4959159434,.4262083878,.5616846713,.8629839257,1.1136150502,1.2154932153,1.7479150094,4.0171427576,7.228472581,1.4178947828,16.3468393165-5.8062425571,20.3669625524-7.2235954348,4.0195813307-16.336543119,1.418436688-20.3536858766-5.8100358931-.3099697366-.5578913353-.5091198733-1.1426069748-.7413262232-1.7197359424-4.6704093965,3.7627182972-8.8918503895,7.9261754409-12.6418339161,12.4188399535,.5782127779,.2533406501,1.1648250853,.475521755,1.7205488001,.8087934123,7.0913705822,4.2498910126,9.3963640692,13.4476468502,5.1489116297,20.5430817209-4.2474524395,7.0954348707-13.4389763681,9.4020540731-20.5300759977,5.1516211554-.489882241-.29344163-.8998334748-.6624790262-1.3431118744-1.0003568772-2.1126171645,5.4819123345-3.6884772939,11.1586395646-4.7115941867,16.9456444895,.5668327701-.0558162288,1.1220145797-.1533591529,1.7053754564-.1438758131,8.2643242445,.1327667578,14.8566001983,6.9442433383,14.7238334405,15.2147994918-.1330377104,8.2700142484-6.9407209549,14.8658125856-15.205316152,14.7327748752-.53621513-.0086704821-1.0423545251-.119490082-1.5631253587-.1828929827,.8827634631,5.7162863049,2.3320887437,11.3987035389,4.3536658457,16.9751783193,.4432783995-.3140340251,.8526877282-.6616661685,1.3382347282-.9318058777Zm54.3010620369-83.3016571825c29.4384544938-16.38097934,66.5749423671-5.7815858735,82.9461674147,23.6758352999,16.370954095,29.4568792683,5.777521585,66.6166690624-23.6612038613,82.9976484024-29.4384544938,16.3815212451-66.5746714146,5.7815858735-82.9458964621-23.6755643474-16.3712250476-29.4571502209-5.7777925376-66.6166690624,23.6609329087-82.997919355Z"/>
  </g>
  <g class="cls-37">
    <path class="cls-33" d="M248.8277263781,99.4359462128c5.1090816024-2.8428343324,11.5542303124-1.0030664028,14.3954389294,4.1092666303,2.8414795696,5.1123330332,1.0027954503,11.5618169842-4.1062861521,14.4046513167-.3213497444,.1788286942-.6603114056,.285313053-.9906025848,.4272921981,2.6141503659,3.2771712972,5.5046723501,6.2473533361,8.6249621111,8.8904956267,.1628424927-.356031673,.2939835351-.7204628755,.4996365335-1.0640307304,3.0040511098-5.018583445,9.5052870011-6.6499888506,14.5203480628-3.6440410729,5.0153320142,3.0056768252,6.6459245621,9.5112479576,3.6416024998,14.52956045-.2013177572,.3365230881-.4557422176,.6175009001-.6871357098,.9234063482,3.867305988,1.5200439006,7.8749654058,2.6623799228,11.9620139256,3.4115637704-.0430814581-.4169960005-.1129872204-.8269472343-.1062134062-1.2566780055,.0937495882-5.8493240153,4.9085767028-10.514585313,10.7538364296-10.4205647723,5.8458016319,.0940205407,10.5080824514,4.9120990862,10.4140619107,10.7608811963-.0070447667,.4373174431-.0910400625,.8521458231-.1492948644,1.2748318275,4.0932804289-.605037082,8.1635298896-1.6175868247,12.1581835841-3.0482163782-.2766425709-.372288827-.5668327701-.7315719308-.7984972148-1.1482969787-2.841208617-5.1126039857-1.0027954503-11.5618169842,4.1065571047-14.4049222692,5.1093525549-2.843105285,11.5545012649-1.003608308,14.395709882,4.1089956778,.2370834961,.4264793404,.3936940798,.8724672656,.5668327701,1.3143909023,3.3598118302-2.6553351561,6.3982739159-5.6027571794,9.0983162456-8.7872626987-.4785022332-.1980663264-.959172087-.3917974118-1.41654002-.6662723621-5.0153320142-3.0062187303-6.6459245621-9.5107060524-3.6413315472-14.5292894975,3.0037801572-5.018583445,9.5044741434-6.649717898,14.5200771102-3.6440410729,.4598065061,.2755587606,.8591905898,.6093723231,1.2610132466,.9402054073,1.5652929793-3.9599717659,2.7347242582-8.0670707757,3.4920366828-12.2573522236-.5503046635,.078847197-1.1035898052,.1509205798-1.6766544843,.1417081925-5.8455306793-.0937495882-10.5080824514-4.9118281336-10.4137909581-10.7608811963,.0937495882-5.8490530627,4.9085767028-10.5143143604,10.7541073822-10.4202938197,.5700842009,.0089414347,1.1174083861,.0988976869,1.6614811405,.1948148956-.6218361411-4.1802562029-1.6633778085-8.3366685799-3.1452173971-12.4126080445-.4514069765,.3600959615-.9152777711,.7104376305-1.43659051,1.0006278297-5.1090816024,2.8428343324-11.5542303124,1.0030664028-14.3954389294-4.1092666303-2.8414795696-5.1126039857-1.0027954503-11.5615460317,4.1062861521-14.4046513167,.4990946283-.2779973337,1.0185106992-.4744379447,1.5387396277-.663833789-2.6992294719-3.3904294702-5.6967777201-6.4489420459-8.9352028002-9.1611772411-.210259192,.5326927466-.4337950597,1.0634888253-.7375328872,1.5715248883-3.0043220623,5.0183124924-9.5052870011,6.6494469455-14.5203480628,3.6434991678-5.0153320142-3.0059477777-6.6456536095-9.5107060524-3.6416024998-14.5292894975,.2823325748-.4722703242,.623190904-.884118226,.9637782806-1.2948823174-3.9656617699-1.5411782008-8.0779088784-2.6789080294-12.2698160417-3.4104799602,.0739700508,.5348603672,.1463143862,1.070533592,.1373729514,1.6273411171-.0937495882,5.8487821101-4.9085767028,10.5137724553-10.7541073822,10.4200228671-5.8455306793-.0940205407-10.5075405463-4.9118281336-10.4135200055-10.7608811963,.0078576244-.5126422567,.0961881613-1.0019825926,.1744934531-1.4940324542-4.1244399741,.6421575837-8.2253070748,1.6969759268-12.2448884055,3.1798993257,.301570207,.3974874157,.6104561333,.7876591121,.8597324949,1.2360856104,2.841208617,5.1123330332,1.0027954503,11.5615460317-4.1065571047,14.4049222692-5.1090816024,2.8428343324-11.5542303124,1.0030664028-14.395709882-4.1092666303-.2192006267-.3945069375-.3598250089-.8079805546-.5242932171-1.2165770256-3.3031827437,2.6615670651-6.2888090789,5.6065505153-8.9411637567,8.7837403153,.4091383761,.1790996467,.8239667561,.3365230881,1.2168479782,.5719808688,5.0153320142,3.0059477777,6.6459245621,9.510977005,3.6416024998,14.52956045-3.0040511098,5.0183124924-9.5050160485,6.649717898-14.5203480627,3.6437701203-.3462773806-.2075496663-.6361966272-.4687479408-.9496887472-.7079990574-1.4943034067,3.877331233-2.6090707124,7.8923063701-3.3322430953,11.9853158464,.4007388364-.0395590748,.793417543-.1083810268,1.2058073499-.1018781652,5.8452597268,.0942914933,10.5078114988,4.9115571811,10.4137909581,10.7611521489-.0940205407,5.8490530627-4.9088476554,10.5140434079-10.7541073822,10.4202938197-.379402033-.006231909-.7373303649-.0845372009-1.105554894-.129515327,.6240037459,4.0426122989,1.6493566959,8.061922677,3.0791733917,12.0059082415,.31349212-.2221811049,.6028694615-.4679350831,.9464373164-.6592275954Zm38.4056296969-58.9164680623c20.820808102-11.5859317627,47.0861370843-4.0892161404,58.6650240802,16.74513959,11.5786160434,20.8340847778,4.0862356621,47.115670914-16.7345724399,58.7016026767-20.8213500071,11.5862027153-47.0864080368,4.0892161404-58.6652950328-16.74513959-11.5786160434-20.8340847778-4.0865066147-47.115670914,16.7348433924-58.7016026768Z"/>
  </g>
  <g class="cls-36">
    <path class="cls-34" d="M554.7082468264,186.9557929575c-8.4436948438,0-15.2893114478-6.8494099399-15.2893114478-15.2987947876,0-8.4491138951,6.8456166039-15.2990657402,15.2893114478-15.2990657402,.5313379838,0,1.0336840429,.1040457857,1.5503905881,.1566105837-1.0006278297-5.9734202909-2.5656498564-11.7531094965-4.6503589065-17.2810837674-.4552003125,.3348973727-.8765315541,.7031219112-1.3775228504,.9919573476-7.3127388294,4.2249633764-16.6635828673,1.7178392744-20.8855657655-5.5995057486-4.2222538508-7.317345023-1.7167554642-16.67442097,5.5959833652-20.8991133938,.4906950987-.2831454325,1.0090273593-.459264601,1.5154377069-.6825295161-3.8152830952-4.6357274679-8.0727607797-8.8926632472-12.706320627-12.7095720578-.2381673064,.5570784776-.4373174431,1.1236402951-.7475581322,1.661210188-4.2219828982,7.3176159756-13.5733688413,9.8250110301-20.8858367181,5.6003186062-7.3127388294-4.2249633764-9.8185081685-13.5817683708-5.5965252703-20.8993843464,.3159306931-.5467822801,.7126052511-1.0114659324,1.082455505-1.5037867466-5.591106219-2.1115333542-11.4396173766-3.6928125349-17.485923908-4.6928984595,.0880595843,.6646466467,.2024015675,1.3219775741,.2024015675,2.0107389993,0,8.4493848477-6.8450746988,15.2990657402-15.2895824003,15.2990657402-8.4442367489,0-15.2893114477-6.8496808925-15.2893114477-15.2990657402,0-.7047476266,.1148838884-1.3777938029,.2067368086-2.0568009357-6.1045613333,.9914154425-12.0072630043,2.5778427219-17.6501211636,4.7012979891,.4652255574,.5863413549,.9355992137,1.1680765161,1.3211647164,1.8357036411,4.2219828982,7.3176159756,1.7164845116,16.6741500174-5.5967962229,20.8988424413-7.3130097819,4.2249633764-16.6633119147,1.7175683219-20.8855657655-5.5997767011-.3871912182-.6708785558-.6570599749-1.3723747516-.9326187354-2.072245232-4.7535918345,3.8992783909-9.1113219688,8.2621566239-13.0070779763,13.0195417944,.7499967053,.2869387684,1.4986386478,.5847156395,2.2161210451,.9990021143,7.3130097819,4.2249633764,9.8185081685,13.5817683708,5.5959833652,20.8988424413-4.2217119456,7.317345023-13.5725559836,9.8247400775-20.8855657655,5.6000476537-.7131471562-.4123898069-1.3406733013-.9098587198-1.9606127744-1.4132885892-2.1475700456,5.7138477318-3.7491706689,11.6921451689-4.7381475382,17.8779922724,.8228829458-.1373729514,1.6538944686-.2536116027,2.5155236315-.2536116027,8.4439657964,0,15.2893114477,6.8494099399,15.2893114477,15.2990657402,0,8.4493848477-6.8453456514,15.2990657402-15.2893114477,15.2990657402-.8250505664,0-1.618670635-.1170515089-2.408226415-.2427735,1.0290778493,6.1758218585,2.667257069,12.1419264301,4.8522185689,17.8403298656,.6391771054-.5248351222,1.2937985072-1.0377483314,2.0334990149-1.4653114821,7.3124678768-4.2246924239,16.6638538199-1.7172973693,20.8858367181,5.6000476537,4.2217119456,7.317345023,1.7162135591,16.6738790649-5.5965252703,20.8988424413-.6876776149,.3974874157-1.4070566802,.6779233225-2.1250809826,.9575463716,3.9250188848,4.7311027715,8.3177019002,9.0560476451,13.0956794657,12.9241664909,.2817906696-.7272366897,.5668327701-1.4544733794,.9683844743-2.1508214764,4.2217119456-7.3176159756,13.5728269361-9.8241981724,20.8858367181-5.5997767011,7.3127388294,4.2244214713,9.8179662634,13.5812264657,5.5959833652,20.8988424413-.3698502539,.6410737734-.8247796138,1.1970684408-1.2685999185,1.7630883531,5.6569476927,2.0866057181,11.5737388972,3.6353705907,17.6880545229,4.5872269584-.1018781652-.7131471562-.2181168164-1.4230428816-.2181168164-2.1640981522,0-8.4496558003,6.8453456514-15.2990657402,15.2898533529-15.2990657402,8.4436948438,0,15.2890404952,6.8494099399,15.2890404952,15.2990657402,0,.6519118761-.1124453153,1.272664207-.1915634648,1.9034417828,6.0370941442-1.0391030942,11.8717867208-2.659128492,17.4490743589-4.8069694902-.3909845541-.5134551144-.8041872187-1.0033373554-1.1347493504-1.5766729871-4.2225248033-7.3176159756-1.7170264168-16.67442097,5.5959833652-20.8993843464,7.3130097819-4.2246924239,16.6638538199-1.7172973693,20.8855657655,5.6003186063,.2918159146,.5050555848,.4744379447,1.0385611891,.7025800061,1.5606867856,4.6064645907-3.8450878776,8.8300732043-8.1302027238,12.615009612-12.7889611599-.5337765569-.2316644447-1.0778493113-.4202474313-1.5940139514-.7185662075-7.3124678768-4.2246924239-9.8182372159-13.5806845606-5.5959833652-20.8985714887,4.2222538508-7.3176159756,13.5728269361-9.824469125,20.8858367181-5.5997767011,.4741669922,.2742039978,.8711125027,.6245456668,1.3043656573,.9402054073,2.0486723587-5.5420638044,3.573864358-11.3358425434,4.5360169233-17.3187461742-.5516594263,.0601514699-1.0892293191,.1669067812-1.6571458995,.1669067812Zm-89.813460224,47.3952939631c-34.411246955,0-62.3071684851-27.9132624944-62.3071684851-62.3461856548s27.8959215301-62.3461856548,62.3071684851-62.3461856548,62.3071684851,27.9132624944,62.3071684851,62.3461856548-27.8959215301,62.3461856548-62.3071684851,62.3461856548Z"/>
  </g>
  <ellipse class="cls-9" cx="411.4745748841" cy="409.9738025962" rx="266.226661698" ry="266.3930448966"/>
  <g class="cls-6">
    <g>
      <path class="cls-12" d="M431.0089166747,412.6771640948l-3.9786674931,56.1337851998,96.2827237125-23.8869073496-6.3657596079-54.5411260113-34.0709305309,10.3758575987c-1.6189415875,.4928627193-3.3682113597,.3091568789-4.8495090432-.5102036836l-21.3123160584-11.7850818994c-4.2157509891-2.331275886-9.2085939403-2.8114038346-13.7909437525-1.3260418626"/>
      <path class="cls-8" d="M441.3530728231,452.0901954356l11.0321047159,11.530657439c3.2218969736,3.385552324,2.7390594993,8.8330536825-1.0288068967,11.5978536756h0c-2.845001953,2.0876895283-6.7402160554,1.9882499363-9.4752112662-.2416896897l-16.840243941-13.7305213301"/>
      <path class="cls-8" d="M457.2677427954,444.1279833033l11.8230152588,12.4619214116c3.2576627124,3.7749111627,2.5523731806,9.5378013091-1.5195019955,12.4139628073h0c-3.4080413871,2.4071426048-8.0624645821,1.9603418219-10.9510898983-1.0504831021l-15.2670933373-15.8631889845"/>
      <path class="cls-8" d="M457.2677427954,444.1279833033l15.4350839288,15.804121325c4.457982584,3.3050794116,8.1342670124,2.8265771784,11.186547679,.9599849447l.182080125-.1110905525c4.6091741164-2.8184486014,5.3643189204-9.1736410592,1.5625834536-12.9688736644-3.0400878012-3.0354816075-6.5654516497-6.5589487881-9.6876380787-9.6805933119-5.5417928518-5.5407090415-11.7485033029-10.3658323537-18.4830293544-14.3707822458l-34.9352692195-20.7744752131c-13.080506122-7.6167476095-25.7356167139-11.4089997365-42.6525402313-1.3528661668h0c-6.4440648997,3.2240645941-13.9632695851,3.5166933664-20.6384570244,.803374361l-14.9622716994-6.0823432229-16.7104576614,47.7735437466,74.5284840173,23.0109177006c1.7655269262,.5817351612,3.4576257068,1.3661428426,5.0426982235,2.3375077951l19.5305319782,11.967432977c2.4299026204,1.2919018392,5.3721765449,1.1447745954,7.661454783-.382314072h.0002709526c4.1257947369-2.7523361751,4.4839940304-8.6864683438,.7188371601-11.9154100841l-9.2099487031-7.8996220894"/>
      <path class="cls-12" d="M442.9235139011,387.1374460868l-43.4846355644,14.0954944378c-3.3229622811,1.0773074062-5.3125669802,4.474239738-4.6273279383,7.9015187573h0c.6779233225,3.3925970908,3.7665116331,5.755032522,7.216008763,5.5195747413l31.7662079964-4.7636170795"/>
      <path class="cls-12" d="M366.2702198538,444.9205195616l-10.7925826467,8.4851505865c-3.4611480902,2.7211766299-3.861074079,7.8213167975-.8654224988,11.0491747276l.0428105056,.0460619364c2.6743018358,2.8821224546,7.1149434555,3.2200003056,10.1945903314,.7762791043l10.7497721411-8.5314834755c3.6131524803-2.8672200634,3.8239535773-8.2822071139,.4446331624-11.4220054597h0c-2.7149447208-2.5225683983-6.8605189951-2.693539468-9.773800995-.4031774196Z"/>
      <path class="cls-12" d="M382.1846188735,451.290343458l-10.7923116941,8.4851505865c-3.4616899953,2.7214475824-3.861074079,7.8213167975-.8654224988,11.0491747276l.042539553,.0460619364c2.6745727883,2.8818515021,7.1149434555,3.2200003056,10.194861284,.7760081517l10.7497721411-8.5309415704c3.6131524802-2.867491016,3.8239535773-8.2822071139,.4446331624-11.4225473648h0c-2.7152156734-2.5222974457-6.8605189951-2.6932685155-9.7740719475-.402906467Z"/>
      <path class="cls-12" d="M400.0360577943,455.8247346658l-11.6934999318,9.1934205965c-3.7502544791,2.9487767861-4.1829657286,8.4740415313-.9374958816,11.9712263129l.0460619364,.0498552723c2.8978377035,3.1227283341,7.7091424348,3.4890562046,11.0459232968,.8413077204l11.6468960903-9.2432758689c3.9147226873-3.1067421326,4.1431357012-8.9736780648,.481753664-12.3757584954h0c-2.9417320194-2.7328275902-7.4330417691-2.918159146-10.589639174-.4367755379Z"/>
      <path class="cls-12" d="M418.3375489288,462.1945585622l-11.6929580266,9.1934205965c-3.7507963843,2.9485058335-4.1835076337,8.4740415313-.9380377868,11.9712263129l.046332889,.0498552723c2.8978377035,3.1227283341,7.7088714822,3.4890562046,11.0456523442,.8413077204l11.6471670428-9.2432758689c3.9149936398-3.1067421326,4.1431357012-8.9736780648,.481753664-12.3757584954h0c-2.9414610668-2.7330985428-7.4333127217-2.9184300986-10.5899101266-.4367755379Z"/>
      <polygon class="cls-10" points="494.6670546587 390.3709940208 512.9685457932 453.6825836716 563.0993768722 436.9618298126 543.2060394069 374.5752722254 494.6670546587 390.3709940208"/>
      <polygon class="cls-21" points="514.5671659382 374.1103176205 539.2276428664 452.0901954356 704.4556020016 402.3121445987 683.8805478779 318.5875304592 514.5671659382 374.1103176205"/>
      <polygon class="cls-10" points="364.9634156234 398.7431573869 346.6619244889 455.2749719075 310.0584003147 441.7392654731 325.973070287 387.5958978301 364.9634156234 398.7431573869"/>
      <polygon class="cls-21" points="344.2748323741 380.430015292 320.4028274157 453.6825836716 144.2094178961 405.6687049981 148.709061182 313.0985733579 344.2748323741 380.430015292"/>
    </g>
  </g>
  <path class="cls-25" d="M113.4191159439,283.3376853095l-14.7896745407-13.8949895382H57.4554903699c-13.5733684984,0-24.5770229167-11.0104285105-24.5770229167-24.5924678339v-3.6161329585c0-13.5820393234,11.0036544184-24.5921968813,24.5770229167-24.5921968813h31.3866026572c13.5733684984,0,24.5770229167,11.0101575579,24.5770229167,24.5921968813v42.1035903306Z"/>
  <path class="cls-24" d="M683.8805478779,242.4314343722l-14.7896749143-13.8949895382h-41.1736811209c-13.5736397938,0-24.5770235376-11.0104285105-24.5770235376-24.5924678339v-3.6161329585c0-13.5820393234,11.0033837438-24.5924678339,24.5770235376-24.5924678339h31.386061545c13.5736397938,0,24.5772944902,11.0104285105,24.5772944902,24.5924678339v42.1035903306Z"/>
  <path class="cls-23" d="M146.8874471204,206.6223431243l14.7896745407-13.8949895382h77.2778377619c13.573708067,0,24.5770918108-11.0104285105,24.5770918108-24.5924678339v-3.6158620059c0-13.5820393234-11.0033837438-24.5924678339-24.5770918108-24.5924678339h-67.4904228177c-13.5737060192,0-24.577089485,11.0104285105-24.577089485,24.5924678339v42.1033193781Z"/>
  <g>
    <rect class="cls-13" x="333.8721504713" y="320.7142371572" width="20.9763348754" height="16.9556697345"/>
    <rect class="cls-13" x="367.5867783766" y="306.7422970899" width="20.9763348754" height="30.9276098017"/>
    <rect class="cls-13" x="401.3011353294" y="295.5690260867" width="20.9763348754" height="42.100880805"/>
    <rect class="cls-13" x="435.0157632348" y="283.9009956962" width="20.9763348754" height="53.7689111955"/>
    <rect class="cls-13" x="468.7303911401" y="273.9624555405" width="20.9763348754" height="63.7074513511"/>
    <rect class="cls-13" x="502.4450190455" y="213.274770548" width="20.9763348754" height="124.3951363436"/>
    <polygon class="cls-30" points="542.7359367032 328.7260336092 557.7919579908 339.0869888168 542.7359367032 347.8333376779 542.7359367032 328.7260336092"/>
    <polygon class="cls-30" points="308.2346185866 213.274770548 317.7824451407 198.208994968 327.3300007423 213.274770548 308.2346185866 213.274770548"/>
    <line class="cls-2" x1="504.9654804536" y1="202.3355808208" x2="318.4831284789" y2="337.450706265"/>
    <polygon class="cls-30" points="497.2803921669 197.278001948 512.9333219595 196.3421317818 505.7238160581 210.1428298267 497.2803921669 197.278001948"/>
    <path class="cls-3" d="M318.1035239326,203.2424808042c-.7223595435,2.8910638893,0,134.4274260874,0,134.4274260874h230.4061410198"/>
  </g>
  <g class="cls-31">
    <path class="cls-26" d="M480.3076524207,582.9432152598c2.013448525-4.4967288011,4.7641589846-8.4271667372,8.5144134638-11.4081868788,4.7362508702-3.7651568703,11.7877914251-5.7590968105,16.7654610325-2.3196249256,2.1613886265,1.4932195965,3.6142362905,3.7908973642,4.917247185,6.0731308356,4.6882922659,8.2123013516,8.2196170709,17.0846431563,10.4571433688,26.2734575593,.0577128968-12.8724145506,.3744564475-25.7437452909,.9496887472-38.6031541182,.5034298694-11.2480539117,1.2171189307-22.5711616845,4.0380061052-33.4707705951,2.8569238659-11.03887853,10.08783502-23.091390613,21.4762423614-23.5083866136,8.1153003327-.2972349659,15.3513595856,5.8647683116,18.8477315095,13.1991833463,3.4963719239,7.3341440822,4.023103714,15.682734575,4.4910387972,23.795325382,1.2569489581-18.8550472288,4.6552360527-37.5664895971,10.1081564626-55.6582634448,3.9412760388-13.0772546912,9.1527777115-26.1577608132,18.3879250034-36.2157910509,9.2354182444-10.0583011902,23.2125064104-16.6359457055,36.6021694113-13.9803395968,12.2332374451,2.4266511896,22.1969761895,12.3212970294,26.6565844889,23.9749669338,9.2018201261,24.0456855538-.865964404,60.9410256426-8.774527928,84.410666039-9.1798729682,27.241571081-23.4181594088,52.44151457-38.2861396149,76.9153051796-8.1329122495,13.3877663329-16.2373744795,28.7803107087-26.7121297652,40.4862744585-7.7755258137,8.6891778695-20.2873024977,13.8145166259-30.0475558643,20.017433741-17.202507523,10.9329360764-35.2349427585,20.5579841121-53.8919236609,28.7624278392-7.657119542,3.367398502-19.7982331143,12.9453007911-28.5960629631,11.1938633983-10.5655243956-2.1031338247-11.2415510501-18.8461057941-12.6453562995-27.2808592032-2.464584549-14.8118930248-9.1733701066-28.5307633945-13.6684731923-42.8571094193-3.2706684356-10.4243581082-5.2797817195-22.1262575696-.5744194419-31.9856795757,1.7397864324-3.6451248832,4.656319863-7.0626496101,8.6005763801-7.9237368678,4.2951400913-.9380377868,8.7677541139,1.4542024268,11.5455598302,4.8638695293,2.7775347638,3.4096671025,4.2022033608,7.6945109962,5.5713266816,11.8747671991-.1324958052-13.408358728-.9578173242-32.7251091309,5.2673179015-46.6287691512Z"/>
    <path class="cls-20" d="M251.3752224126,633.2439335984c-25.2780457767-10.6944978174-57.090856811-21.2191083754-57.3119541-54.849740985-.0783052899-11.8753091042,8.0749281962-24.2629895125,19.8321016842-25.8819311,7.2298271612-.9952087784,14.3480218677,1.9969204184,21.0340472408,4.9232081414-13.6637988271-23.9413688155-43.9872514648-52.3802792898-39.2959116604-82.5150818807,1.6345896163-10.4969733961,9.6453020558-19.6809106528,19.7542711207-22.9263804997,17.7411607779-5.6954229572,35.2805304676,7.1181948863,43.3462464805,22.2051047665,5.8197901855,10.8857903297,8.3382942953,23.1710506677,11.3607701796,35.1401093601,2.7897276293,11.0456523442,6.0671698791,21.9807560411,10.2059703392,32.594239041,1.4913229285,3.8242245299,4.0523665913,8.715731221,8.430418168,9.8529191445,4.2851148463,1.113073145,7.8524763427-2.9956515802,9.919573476-6.3774105683,3.5849734133-5.8650392642,5.0072034372-12.797089737,8.1093393762-18.9314558527,4.3138358184-8.5303996652,12.337825136-15.4884615845,21.7767287582-16.9703011731,14.231783579-2.2345458196,27.0928181217,9.6665037784,26.7584626541,23.8465354171-.2121558599,9.001044274-.7732986261,17.993959971-1.681802583,26.9513808818,1.7061883141-2.8176357437,3.7667825857-5.7314596487,6.8830080582-6.7954903791,3.8150121426-1.3024689893,8.1646136998,.7112504882,10.64410064,3.8911498139,2.4792159876,3.1801702783,3.4326980707,7.2788697585,3.968100343,11.2765039312,4.88717145,36.5051683924-13.3704253686,72.1235090331-15.3275157597,108.2425700175-.7705891004,14.2144426147-.8876406093,56.3407929609-26.3921347836,51.8272651007-12.0454673162-2.1313128916-13.5763493195-19.3053703951-17.5127482121-28.5294086317-12.6147386594-29.5592993386-34.5291113216-54.2937463176-64.5010714197-66.9737845457Z"/>
    <path class="cls-30" d="M325.9210473942,645.5291939364c-3.5446014808-7.1493544315-6.5020487491-14.5328118808-8.1559432177-22.3273043742-3.5700710221-16.8310315537-.8681320245-35.7443335844,17.2477566016-43.1619310571,7.896099706-3.2332769814,17.028555975-2.2158500925,24.9411837876,.9765130513,7.1531477674,2.885644838,12.7136363463,7.9570640336,19.343574707,11.5618169842,3.9049683949-3.56140054,.0604224224-20.2260672176-.1024200703-25.7375133818-.2541535078-8.6203559175-.1422500976-17.251278985,.3376068984-25.8621515626,.6725042712-12.0817749602,2.2104310412-24.562392099,8.4764801044-34.9119672987,6.2663200158-10.3493042471,18.4114978767-18.0075075994,30.2586279139-15.5792306944,8.2188042132,1.6847830613,14.9915345767,7.924278773,18.9477130067,15.3264319494,8.6374259292,16.1601529979,7.3040683472,36.1315248025,4.0182265678,53.4914557669,7.4257260498-12.659445833,19.4825733738-22.528893084,33.3548028964-27.3025354085,3.5912053223-1.2358146578,7.3945665046-2.1481119508,11.1675809993-1.703749741,36.7184080625,4.328467257,1.0504831021,62.0790264238-7.7560172289,77.2778397141,7.2981073908-2.7940628704,14.2521050215-5.2700274271,22.4137382431-4.0157879947,4.1829657285,.6426994888,8.4000714805,2.1765619703,11.2930320378,5.2667759963,5.6748305622,6.0625636855,4.4807425996,15.7794646414,1.624902544,23.578834281-3.2251484044,8.8086679515-8.0508136217,16.9337225766-13.0512432448,24.8696523099-16.4424855727,26.0948998176-34.5892627915,50.3565345673-56.6583493694,71.6994682658-11.2401962873,10.8703460334-31.4275172877,24.7859279667-46.8845483744,15.5629735404-16.1539210889-9.6388666166-26.5389910749-22.3858301287-35.9627213533-38.4890830876-8.2710980587-14.1326149395-16.5419251648-28.265771784-24.8127522708-42.398657676-3.4771342916-5.9417188406-6.9786543143-11.9444020088-10.0412311785-18.1218495826Z"/>
  </g>
  <g>
    <path class="cls-11" d="M201.3619174241,560.0087061831c.7462033505,3.531324805,1.7205487567,7.0415153098,1.890977917,10.6468101657,.2403349208,5.0949920689-1.1374588473,10.124142664-2.7750961206,14.9546850276-.9857254137,2.9065081857-2.4930345055,6.1736542379-5.4764931448,6.8873432993-3.6640914703,.8759896489-6.8507645297-2.7051904284-8.3643055304-6.1576680365-4.7048202536-10.7324311768-2.4981826042-23.3691169941,2.3318177323-34.0462738473,2.2391519567-4.9500324456,5.1976829605-8.7967460385,10.3241053976-10.7839121645,1.233105101,5.9661045716,.7806143257,12.3993313687,2.0689937489,18.4990155558Z"/>
    <path class="cls-14" d="M191.5046632875,402.0241220201c5.2060824898,9.0863943326,7.2271176356,19.9580951288,8.5973247321,30.4762028252,2.6499160378,20.3401382482,1.9728055901,40.6491169513,3.4923075472,60.9816685276,.7708600335,10.3178737494,1.156154574,20.6796418146,1.2176608051,31.0259655835,.0189666792,3.1931760015,1.336608979,29.364484443-.9312639491,30.2328874201-5.4133611983,2.0735999949-19.8968593461,4.6866665505-25.6508079124,3.9840865444-3.3999127242-33.5669587564-6.8000964009-67.1339175127-10.2000091251-100.7006053165-.9104006019-8.9880385508-1.8216140616-17.9869152043-2.0229318137-27.0196609286-.2140525225-9.5963270636,1.012007812-18.8648015212,1.6872215918-28.3879713917,.4134736067-5.8303573356-.3958616903-13.5546731142,8.3445259935-13.2460581404,4.634372588,.1636553504,8.6173752215,3.3725466008,11.5585652614,6.9602295398,1.4728981167,1.796957424,2.7669675438,3.7022958748,3.9074068692,5.6932553367Z"/>
    <path class="cls-29" d="M155.9416640449,751.7602120969c-.1623667596,3.5530010104,.2411477846,7.2081511385,.4505279314,10.3140804134,.3506126128,5.1952445187,.4985527106,10.5338229452,.6091013551,15.687069816,.1002524472,4.6490041437-2.1131590162,9.9740349419,.1880410767,14.3607570008,1.6547072845,3.154700737,5.3572740184,4.743295637,8.9040430301,5.0519106107,3.5470399643,.3083440212,7.0921832607-.4150993326,10.6430165609-.6752137968,8.527148019-.6248166194,17.002544099,2.0120937622,25.5229183041,2.1126171645,5.813287177,.0690929046,21.4553784718-2.620382275,17.4899877547-12.2177931488-1.4444480979-3.4950171611-6.0631054374-4.0274389551-9.8377455522-4.2263181392-5.0898438415-.2682430413-10.1601790988-.9052525262-15.1578990699-1.9042546405-8.4258117615-1.6839702036-11.6756167674-5.1093525549-12.3199419553-13.5346226242-.6367385162-8.3345009593,.3118663967-16.9879130899-2.623837813-24.9891423919-1.3537457693-3.6895611041-4.3399139342-7.5292299304-8.2530108072-7.1886425537-1.3024689564,.113258173-2.5133559475,.6917419034-3.6892900584,1.2639937248-2.9834586393,1.4517638537-6.0278816046,2.9772268056-8.2827488098,5.4117356197-2.5918659873,2.7989400166-3.4635865758,6.6039269142-3.6431619471,10.5338229452Z"/>
    <path class="cls-29" d="M93.4201074827,752.8093404361c-.6277970818,3.3649599289-.8255924506,6.8456166039-1.1398974204,10.2647670463-.5673746609,6.1731123328-1.5514098305,12.3074784485-2.9433576604,18.3478240235-1.000898757,4.3436406007-2.2548672052,7.3704517261,1.79180928,9.9829763766,4.5604025391,2.9438996399,10.1758943472,4.9074928926,15.0706523455,7.2677607033,3.4356784621,1.6571458995,6.8857825034,3.3199818028,10.5221717191,4.4728849752,7.118465659,2.2575767878,22.1958918185,5.7655996721,28.1438424179-.6166880424,1.4230428457-1.5270886673,2.0947342422-3.8231407196,1.3948637794-5.7897144505-1.8086083387-5.0814444405-8.6948676537-4.223337661-12.7696575962-5.8130163713-3.2766949183-1.2786251634-6.0401400788-3.5763029312-8.6808437295-5.9005340504-2.2114494618-1.9467941935-4.4197128824-3.9859832124-5.8707291198-6.5508202111-4.2358013721-7.4883160927,.103503878-17.2997794945,.7838657564-25.2091558763,.2826035202-3.2847579691,.0883305346-6.6101588233-.5752322851-9.8396424687-.2435863515-1.1873141484-.5729994325-2.4063297471-1.3574723261-3.3300070478-.6968899846-.8199024676-1.690743975-1.3292932935-2.6981455935-1.7067302192-8.214403828-3.0750406823-16.6107466971,.5519303789-19.9887122639,8.596241139-.7882009973,1.8760755736-1.3108684858,3.8296435812-1.6831573034,5.823854474Z"/>
    <path class="cls-29" d="M162.5945670296,336.064783885c-4.6484621211,1.8077955267-8.6206266522,5.3030836403-11.006363944,9.6854704581-1.5113733803,2.7767219061-2.8387699722,6.271197162-5.9121848615,7.0062914761-2.3870920545,.5711680111-4.8893389471-.9664878063-6.1630869321-3.065828295-1.2742898902-2.0990695361-1.5715248486-4.6351855628-1.7151297055-7.0870353411-.2861259035-4.8896100231-.2460249246-10.1924227109,.6884904552-15.0186298334,.8581067578-4.4322420901,2.7794313615-8.7929527026,6.1479135887-11.7961909547,2.6144212524-2.3307339809,5.9457829789-3.717198266,9.3310642648-4.6121545946,4.4482281792-1.1764760457,9.1717441595-1.5658348844,13.6587185548-.5467822801,5.669477982,1.2872956456,12.7496727157,5.7198086883,13.3135249932,12.0552216087,.5018041413,5.6377100605-4.4121914887,9.1617191462-9.2085937077,10.7546492873-3.0081153223,.9992730669-6.1798859908,1.4758786322-9.1343527062,2.6249884686Z"/>
    <path class="cls-28" d="M174.0780784319,489.9945628837c-4.2777990189-4.4357644735-9.8572541366-7.578272345-15.9209014791-7.8302582322-8.9037720776-.3701212065-16.5508661813,5.7539487117-20.6178641085,13.1750685679-4.7636169592,8.6924293003-1.2683289338,13.8754809534,.7123342805,22.7247917899,5.6868182043,25.4085769656,5.0067272613,53.7011730537,6.5746638709,79.5795817704,3.2722940684,54.0089751698,4.0038659806,115.9904586694,9.3148071112,169.8883432867,8.4344822435-.5305251261,20.3311962999-.0376624068,32.3617609211-.0376624068,6.6502596352-81.0508542089,14.4711016437-167.9886948399-.4430074358-248.2711275689-1.5235662455-8.2017342015-3.3413869712-16.5516794572-7.7180836745-23.7072657977-1.2038422245-1.9684703989-2.6401617456-3.8380431108-4.2637094858-5.5214714093Z"/>
    <path class="cls-18" d="M160.6315157316,486.4632380786c-9.8529188956-5.8208739958-34.8718654379-2.1150557376-42.547680513,2.4857188492-17.0402065049,10.2132860585-20.9652252906,37.0091401669-21.2741112091,54.6934013539-1.2455689188,71.378389474,1.3780647207,150.9858793588-8.6607276311,221.6649402574,0,0,19.6332225051,3.8686607509,35.9394838961,5.9549955164,18.1705552142-69.2213360885,31.0529946843-151.8139104033,38.8485707911-225.9898851311,1.3645170927-12.9821503402,9.0416869306-45.3254873042,.3189111632-56.5743540736-.6700656811-.8635258309-1.5582481732-1.604852054-2.6244464972-2.2348167722Z"/>
    <g>
      <path class="cls-11" d="M143.1840675289,363.4372250558c-.2682430345,5.613595282-.536486069,11.2274615166-.8050000561,16.8413277512-.1557318925,3.2619979535-.3107825864,6.5454011598,.1227415097,9.7822005245,1.1398974204,8.5087234599,8.2282873452,25.5131646564,18.4445536239,26.3092232981,1.7324706693,.1349343783,3.3934098627-.5223965491,4.8915065675-1.3219775741,.2889018625-.153901058,.5736065697-.3156597405,.8537715169-.4847341423,4.5219272756-2.7301180646,7.6043502391-7.3588007657,8.6921581281-12.499854771,1.1298721756-5.3393912843-2.2919877059-9.059840981-3.2743951043-13.9873843636-1.0150548747-5.0925534958-1.1027769475-10.4590400368-.5081026347-15.6065969036,.6714204439-5.8103068456,2.3047224762-11.5699455613,1.9015450668-17.405180043-.4029064569-5.8346925767-3.5272604274-12.0489896996-9.1311012755-13.7123675081-3.5974371405-1.0678240663-7.4465230084-.0793891021-11.0667863649,.9087749095-7.9844300411,2.179271496-9.6374457443,11.067057597-9.9827051719,18.2827954074-.0460619352,.9648620909-.0921238704,1.9291822767-.1381858057,2.893773415Z"/>
      <g class="cls-32">
        <path class="cls-16" d="M176.1646840972,330.8500307816c-2.912198116-2.6401618123-10.4395311882-.2622820848-14.304127553-.819631515-4.2219827915-.2154072907-11.6477086537-1.5612286908-14.7918421612,2.0402728291-4.1133308149,4.7113232341-5.953098698,12.54618766-5.6829589956,18.6350337444,.5196870103,11.7105699435,9.4394452889,21.9038055121,21.4984599288,22.2974995919,6.5280600306,.2129687176,11.0732892263-3.9347731772,13.7853201001-10.7340568922,.4868350508-1.2214541718,1.5094100126-5.3575451063,1.8318435591-6.6375250325,1.9804590578-7.8573534889,.7277785764-22.0035160567-2.3366948783-24.7815927256Z"/>
      </g>
      <g>
        <path class="cls-11" d="M176.1646840972,328.0034031132c-2.912198116-2.6401618123-10.4395311882-.2622820848-14.304127553-.819631515-4.2219827915-.2154072907-11.6477086537-1.5612286908-14.7918421612,2.0402728291-4.1133308149,4.7113232341-5.953098698,12.54618766-5.6829589956,18.6350337444,.5196870103,11.7105699435,9.4394452889,21.9038055121,21.4984599288,22.2974995919,6.5280600306,.2129687176,11.0732892263-3.9345022247,13.7853201001-10.7340568922,.4868350508-1.2214541718,1.5094100126-5.3575451063,1.8318435591-6.6375250325,1.9804590578-7.8573534889,.7277785764-22.0035160567-2.3366948783-24.7815927256Z"/>
        <path class="cls-11" d="M144.201289319,348.9255474752c-.1211816739,2.1822519742-1.588931692,3.8179926209-3.2775080465,3.6532534602-1.6890525056-.1647391607-2.959614814-2.0673680858-2.8382280671-4.24962006,.1213867469-2.1822519742,1.5888658124-3.8179926209,3.2777131196-3.6532534602,1.6888473071,.1644682081,2.959614814,2.0673680858,2.838022994,4.24962006Z"/>
        <path class="cls-11" d="M180.7613942794,349.1030214066c-.1213867469,2.1822519742-1.5888658124,3.8179926209-3.277442167,3.6529825076-1.6891182597-.1644682081-2.9598857666-2.0670971332-2.838432371-4.2493491074,.1213200983-2.1825229268,1.5887991639-3.8182635734,3.277646471-3.6532534602,1.6889140812,.1644682081,2.9593438614,2.0670971332,2.8382280671,4.24962006Z"/>
      </g>
    </g>
    <path class="cls-13" d="M96.5157404818,516.5817835155c4.4081272003,.2606563694,8.844975372,1.3769809452,13.1851584877,1.8730950953,9.3521335566,1.0699916869,18.6905135405,1.0556312008,28.08769023,.8808667951,16.9342640539-.3151178354,33.8224661726-.8535005859,50.4849648087-3.9025298218-.1934601279-20.7273294664-.047416698-41.457639411,.4679350713-62.1792788735,.2308515812-9.2898797104-.9120263173-19.9824808599,1.8963969682-28.8296240758,2.450224001-7.7199805375,4.9310656413-16.7990591508,.6107270705-24.3453590929-3.1373596934-5.4802866191-8.1716582602-9.9160510926-13.8020524591-12.6770577498-4.3016428442-2.1093657337-4.1341275471-2.0451499753-6.3887904147,.9892478219-3.3421998289,4.4969997536-5.2673177684,8.5705006451-11.8474006905,8.3331461965-7.7825703838-.2807068594-13.8746677452-9.5480975067-16.8906406917-15.8152303802-.1211157944-.2519858873-.1455015248-.4801279486-.1314119916-.6952642868-8.3981746004,1.9430008576-21.7580324814,7.169675874-23.6213732372,8.2022761067-5.8905086566,3.2638946215-10.3481552049,8.3144504694-12.9577642818,14.5124904383-6.5822505426,15.6347759706-2.0150741895,33.104171772-4.4116495836,49.2841043073-1.7521854573,11.8287052627-.4538455382,24.6022221263-1.3856513924,36.6100270358,0,9.1251405497-1.4796719307,18.6756766295-3.2961378937,27.7590904838Z"/>
    <polygon class="cls-15" points="142.2531403627 377.4503499133 134.4537050898 382.6759411194 144.138091493 403.6720555322 156.6181664114 396.2926623714 142.2531403627 377.4503499133"/>
    <polygon class="cls-15" points="171.8971812756 380.3002290124 176.7393744772 385.1454028146 173.5115166287 404.5263689758 163.9688384144 396.1157303452 171.8971812756 380.3002290124"/>
    <path class="cls-10" d="M160.6011690449,356.1093128827c.1921053651,2.5466831768,2.9783105407,4.5728664724,6.4197454625,4.5728664724,3.4415729625,0,6.227778138-2.0261832956,6.4198835031-4.5728664724h-12.8396289656Z"/>
    <path class="cls-29" d="M82.9461653193,447.3168240637l65.5905700344-7.8218587027c1.6934535006-.2021306149,3.2295496345,.961068755,3.4018093921,2.5754041488l4.6636354645,43.6981461871c.1740177408,1.6286958799-1.0897711967,3.0644735322-2.8081523329,3.1733964641-12.5418521021,.793349116-54.3676502466,4.9684572201-66.0368289009,6.1422237402-1.6836992085,.1693453543-3.1750220993-1.0033373554-3.3324455367-2.6062927415l-4.1266074904-42.0250140862c-.1525462913-1.5536420189,1.0195944837-2.9420029719,2.6480193699-3.1360050099Z"/>
    <path class="cls-11" d="M99.9543994221,484.5031672093c-4.0632045913-.7177533499-7.4552596912-2.6783661243-9.0223847651-7.3216802641-.436027203-1.2902761238,.90735559-1.9782246913,1.9331819825-1.6240896863,.741597157-2.3380497002,2.7910823216-4.1423228435,5.1044752798-5.0361953619,2.508749754-.9702811422,5.2551249032-1.0778493113,7.9429742994-1.1740374726l10.4154164104-.3725597796c4.979295197-.1782867891,9.9715961169-1.3745423721,14.3504604408-3.8133864272,4.5739501671-2.5472250819,10.2303558118-3.3728175534,15.4299354402-2.9398353514,.9678425447,.0804729124,2.8460856913,.2143234805,3.2647073967,1.3019270842,.4151653427,1.0781202639-.7201259128,1.7422250055-1.6240896453,1.9251179882-1.7145878003,.3473611908-3.4906818318,.2603854168-5.1724843724,.8166510368-.6673561555,.2210972946-1.9037126873,.6516409235-2.0069456127,1.5013481735-.1731386859,1.4225009765,2.0362084892,1.5222115211,2.9577181461,1.5059543671,4.312209994-.0755957662,11.2285450432-3.6649044205,13.4920827303,2.4057878419,.4690188815,1.2574908632,.392339307,2.6450389586,.2679720819,3.9813770187-.2135106174,2.3012001511-.6687109183,4.8150980672-2.4515787638,6.2839319327-1.3718328118,1.1304141093-3.2429651256,1.3913414313-5.0120804568,1.5606867856-7.3084034037,.700141433-14.4116957193-1.8736370004-21.5876033211-1.167534611-1.1057573978,.1089229319-2.1963414522,.335981183-3.2844869336,.5630394341-2.2802714102,.4752508024-4.5616920239,1.044251193-6.8588931065,1.4306295535-1.681531588,.2826035273-3.3896165269-.0972719715-5.1133516235,.0352238337-4.4309523061,.3416711869-8.6117503085,.3012992544-13.0250256075,.137643904Z"/>
    <path class="cls-13" d="M123.8786976215,387.0168721945c-2.7625670065,.1774739314-5.2586472865,1.6319473107-7.6359850488,3.0509259038-13.815058182,8.2450866122-25.1639061619,19.2996803912-35.5413892139,31.5445687967-9.8783884362,11.6561084775-17.9947723741,24.9238428233-22.7738336292,39.492420443-1.4046180716,4.2834891309-2.5190459513,8.6618116602-3.3205236241,13.0981180388-1.0488573602,5.8103068456-1.4330680904,12.0579311343,1.1239112193,17.3788976441,2.132396648,4.4390159043,6.2923313033,7.8519344376,11.0600125509,9.0755562299,5.3803690458,1.3807742812,11.049445401,.052564798,16.4088870399-1.4067857276,9.3158909215-2.5371998369,18.5209622459-5.4802866191,27.5822227961-8.8178803388,3.661587862-1.3485309257,10.0102772977-2.5683593821,13.0698736064-5.0397177452-1.7836807032-6.2232385577-3.6575886088-12.4188399535-4.3962052877-18.8826843906-2.963950055,.062590043-7.7766094275,1.7465602466-9.7041659401,2.0329571098-3.6353055815,.5397375134-7.3628648682,1.1336655401-11.1108869036,1.5693572678-4.9503033981,.5757742048-9.935624155,.8770734592-14.7897392692,.4178088582,2.5626693135-1.5203148531,5.1294029153-3.0436101845,7.5322102183-4.8061566325,5.7490714203-4.2190024199,10.4230030821-9.7082304737,15.0405766113-15.1440808719,10.7142770842-12.6141967543,22.691464051-25.9781192613,25.2449209774-42.8191760599,.9188001313-6.0576865393,1.8132145322-21.3608165679-7.789886103-20.7441285256Z"/>
    <path class="cls-29" d="M182.9227828513,323.5689934025c-.0132098181,3.1295021483-1.6398048937,6.2836609801-4.3585428818,7.8302582322-2.2434871977,1.2767284955-4.938652313,1.3945928621-7.5178497326,1.4812976835-2.8347056838,.0948333984-5.6694113676,.1896667969-8.5041170514,.2847711479-4.5815368388,.1536301055-9.564830223,.1872282238-13.2235687433-2.5767589117-1.3498856544-1.019865462-2.4938473632-2.5504765127-2.4017234928-4.2404076727,.0411847891-.7546028989,.3267687875-1.4780462527,.6995995102-2.1353771801,1.2219960461-2.1548857649,3.3332583944-3.6456667883,5.4686355206-4.9001771733,8.4734994121-4.9773986548,29.9112659675-12.8672664518,29.8375668711,4.2563938742Z"/>
  </g>
  <path class="cls-19" d="M371.7968393619,753.4379503914c-4.4352225684-5.0557039467-8.3410038209-9.9306825312-11.5767193754-13.4181130204-4.1333814088-4.4547311532-8.3380233427-9.0205528588-10.4530790803-14.4572161147-2.1150557376-5.4361213507-1.7880159893-12.001843953,2.5607727102-16.6776724008,4.3487886995-4.6758284478,13.296997223-6.3245748177,18.1237462506-2.4109359407-7.576375677-16.1528372786-15.2776604874-32.9071892559-14.3160498273-50.6199004624,.3508835742-6.463302532,2.6415165752-13.867623329,9.488487942-16.9721978411,10.0255159296-4.5446874054,19.0046130457,2.9877939557,26.6506235325,8.4396305553,2.7084418592-3.9312507938,.5722518214-12.534265747,.5733356317-17.4566610308,.0016257154-6.9483076268,.4096802812-13.9071824037,1.8370584039-20.7221813676,2.6108989351-12.4630052219,8.9969799855-24.6626445487,19.7009611428-31.549987848,4.5866850533-2.9512153592,10.1254974268-4.8684757229,15.4914420627-3.8984655332,6.1159413412,1.1052155206,11.1139323911,5.8607040231,13.8754809534,11.4314887995,2.7615485623,5.571055729,3.5830767453,11.8953595942,3.9125550667,18.1050505235,.6735880814,12.6862701371-.5489499006,25.4711670085-3.613965338,37.7995088047,3.5055843112-5.417154671,8.1754518025-10.2804822951,14.0811339517-12.8751240762,5.9051402441-2.5946417811,13.1620628446-2.6157760813,18.5163565201,.9824740078,7.3279121731,4.9245629043,9.2877120899,15.0126688769,8.2022761067,23.7787972754-2.8661362532,23.1382654071-8.5217291831,44.6359130213-19.9705589469,65.1795366473-10.5153981707,18.8683239046-23.5980719132,37.0576406764-41.2032149507,51.9608447162-19.5603367606,16.2222011357-38.2276138604-1.0548183431-51.8806427564-16.6188756938Z"/>
  <g>
    <path class="cls-29" d="M700.5823350571,783.9930004136c-.9570044665,2.9168043832-2.6222789429,5.8387568652-3.1105354686,8.8780318086-.2319353973,1.4444481344-.0235728733,3.0243725523,.8876406093,4.1683342899,.3926102695,.4934046244,.8987496646,.8865567991,1.4363195574,1.2160351205,6.3224071972,3.8762474228,14.6663914963,2.2383391556,21.0741487521-.3833978822,2.5832617733-1.0569859637,5.3415589048-2.5716108129,6.1725704276-5.2377840717,1.2591165786-4.0401737258-2.5171493469-9.2595330229-3.3869070869-13.2298009864-.9987311618-4.5574221761-1.1661798481-9.2443596791-1.5791115602-13.8771066688-.645679967-7.2468973556-.3928812221-19.4584585954-7.5644537641-23.6289605058-3.0533644769-1.7758231238-6.7464479644-1.6801768676-10.0883769252-.9193420597-4.2750896013,.9732616205-4.0604951683,2.1548857649-3.933689367,6.2224257,.2514439821,8.0565036256,1.8435612655,16.0203414734,1.8698436645,24.0884960594,.014360486,4.2937853284-.4340660123,8.6084340045-1.7774488392,12.7030691962Z"/>
    <path class="cls-29" d="M621.7148166327,784.1902538823c-3.003238252,.6321323387-5.8558268769,.9242192059-8.3293528606,3.2798808229-2.2085343732,2.1034047772-3.2086202978,5.7935077865-1.4097662058,8.2567375726,1.8278460166,2.503330766,5.4380180187,2.6572318241,8.535547764,2.5737784334,7.3831864968-.1988791841,14.7666439461-.3977583683,22.1501013954-.596908505,6.73859034-.1815382199,20.0410066143,1.4151852572,23.1184858697-6.6751874393,.6451380619-1.695621164,.7050185792-3.5486657693,.7573124246-5.3621512999,.1912925123-6.6215388311,.3820431194-13.2433486147,.5736065842-19.8648874458,.1156967461-4.0049498921-.2595725591-10.1994674776-5.5100914015-10.8478569703-5.7447363244-.7093538203-11.5206321941-1.2149513102-17.2949023483-1.6024134809,.5134551144,5.3448103356,.3657859654,10.7530235719-.4389431585,16.0617972161-.3292073688,2.1700591087-.8009357879,4.4016244501-2.1017790618,6.1685061391-1.5869691846,2.1556986226-4.1672504797,3.3077889373-6.6583883802,4.2851148463-3.8036321348,1.4918648336-7.681505273,2.7932500127-11.6154655925,3.8962979127-.596908505,.1674486864-1.1894817689,.3040087801-1.7763650289,.4272921981Z"/>
    <path class="cls-11" d="M622.5908062816,488.4978209039c1.7641721634-3.458167612,3.9613265288-6.6946960242,6.523995907-9.6101456445,1.8665922337,2.1952576974,3.7464611432,4.379135387,5.639877681,6.5513621162,1.0838102678,1.2431303772,2.1987800808,2.505227434,3.6275129663,3.328652285,.2425025474,.1398115245,.5015332014,.2733911401,.665730457,.5007203437,.1216577026,.1682615441,.1793705993,.3733726373,.2341030178,.5738775368,.5711680111,2.0928376271,1.0464188136,4.2843019886,.6546214018,6.4177825007-.3191821239,1.7392445272-1.3474471154,3.5058552637-2.9598858413,4.3317186878-1.977140881,1.0130916478-3.2698555779-.744577654-4.7254127676-1.9793085016-3.5616714925-3.0205792163-6.8065994343-6.4164277379-9.660542822-10.1146593242Z"/>
    <path class="cls-11" d="M639.4958078861,487.4654916238c.0401009799,.0138185809,.0802019598,.0270952567,.1203029397,.0401009799,1.5774858448,.5150808298,2.9344163,.1400824771,4.4886002241,.2362706384,.8906210876,.0552743237,1.9026289251,.4698317511,2.73174378,.775195294,.7475581322,.2755587606,2.452662636,.7998519776,2.7041066181,1.6758416266,.5288994107,1.8419355501-2.4670231221,1.0577988214-3.2685008151,.8711125027-1.1740374726-.2739330452-2.4255673793-.206465856-3.5635681605,.19210537-1.1821660496,.4140155223-2.2475515428,1.1762050931-3.4828242956,1.3832128543-2.1204747889,.3554897678-4.2455557715-1.0984417064-5.2133983407-3.0197663586-.4056159927-.8050000764-.621294236-1.8535865105-.0533776557-2.5537279435,.224619678-.277184476,.5486789481-.4614322215,.888453467-.5708970586,1.5384686751-.4969270078,3.1094516583,.4459879252,4.6484622386,.9705520948Z"/>
    <path class="cls-29" d="M676.8696502081,354.0720205318c2.2329201042,.0720733828,4.3539367983-.1671777338,6.3245748177-1.9094027393,1.7798874123-1.5736925088,2.9804782364-3.680890622,4.2249633764-5.7054482022,2.3727316288-3.8605321739,5.0454077491-7.61891523,6.435123465-11.9327510484,1.6227349235-5.0359244093,.4275631506-10.9042151043-1.3956766724-15.7380088986-1.8088793369-4.7972151978-6.7245008065-8.1849351424-11.5970408179-9.2343344342-6.6789807753-1.4384871779-16.1774939622,.4963851026-21.8691235835,4.2466395818-1.5520163035,1.0225749877-3.4549161812,1.7210907053-5.1199197051,2.5510184178-.8304696177,.4134736172-1.6701516227,.8334500959-2.3721897236,1.4398419408-1.2271441757,1.0588826316-1.9397494268,2.6179437019-2.2548672621,4.2084352698-.3151178354,1.5902206154-.2666173259,3.2281288826-.1896667969,4.8478833278,.3365230882,7.1122339298,1.2520718119,14.4043803641,4.6649903451,20.6525465579,1.5839887064,2.900005324,4.9492195879,4.4620468725,8.015589788,5.3133798379,3.3519542057,.93099302,6.8746085286,1.1046736155,10.3362985239,1.056173106,.0685509994-.0010838103,.1373729514-.0021676205,.2061949035-.0032514308,1.5720667934-.0265533516,3.1059292749,.1593201094,4.5907493418,.2072787137Z"/>
    <path class="cls-28" d="M639.0373561428,766.6934918717c4.1593928552-.0596095647,21.891341694-2.4304445255,32.6942205382-1.4403838459,1.3027399419-40.1792852002,5.9782974371-90.7246737067,6.7800460827-130.9166936775,.7635443337-38.3026677215-.3909845541-75.8821630418,1.1759341406-114.1590902694,.3777078783-9.2308120508,.9532111305-18.4711074414,1.1810822393-27.7065256859,.2162201484-8.7666703036-4.0022403664-9.9810797087-12.6342472442-9.4692503097-9.7472476434,.5782127779-18.7033137913,2.9550086951-28.4508323873,3.533221473-11.7143632794,58.7230079295-10.0268706925,116.8699707017-8.0510845743,176.2283624008,.9602558973,28.8550936171,7.4016112713,102.44472699,7.3048812049,103.9303599146Z"/>
    <path class="cls-18" d="M694.7685058281,763.1952232798c3.4332399758-.0864338689,33.9384347257-.7494548002,33.9322028166-2.057884746-.0997105446-21.2732988888,.1449596233-130.4040514208-2.1787295908-161.0300910155-2.2928006215-30.2174431237-2.4653974067-60.428925291-5.8298154305-90.614937917-.7900976852-7.0913705822-1.8199883922-14.5596361849-6.2048137831-20.1865081428-5.2003926174-6.6738326765-13.8860481035-9.0365390603-22.0073093927-9.2270187148-9.0834138544-.2129687176-17.3715819247,4.0615789785-26.2127641843,3.9193288809-.4831084269-.0075866719-1.0133626004-.014360486-1.3872771428,.2923578197-.3004863967,.2465668359-.4289179135,.6418866311-.5321508415,1.0171559363-1.4891553079,5.3957494182-.8968529966,11.1190804899-.2937125826,16.6839043098,1.6414306506,15.1332427692,3.2668750997,30.2916841271,4.9727924612,45.4233011809,1.657416852,14.6994477095,3.4072285294,29.3880573163,5.1982249969,44.071789777,6.1438494556,50.3795655355,20.0239366026,166.5193190693,20.5433526734,171.7086026315Z"/>
    <path class="cls-13" d="M658.6069052906,384.8768888207c-.2311225396-1.6341149313-.760834808-3.2229807838-1.1426069748-4.8324390315-.5064103476-2.1337514647-1.034225948-3.0674540104-3.2075364875-3.0742278246-2.6436841957-.0083995296-5.103662551,.2465668359-7.6768990793,.8881825145-6.1126899103,1.5249210468-12.0134949133,3.8743507548-17.5292763187,6.9160642714-11.2588920144,6.2083361665-20.9397562789,15.2990657402-27.7517747645,26.2152027574-1.6232768286,2.6008736901-3.3183560874,5.3719055923-4.3875349166,8.2540280469-1.3515114039,3.6440410729-2.1288743185,7.5994066452-2.6287818045,11.4431397599-1.0231168928,7.8652111134-.5354022723,15.9057285376,1.2875665981,23.6186643083,4.0241875243,17.026659307,16.5148299081,27.2437387015,29.069146145,39.4219727756-.8938725184-.8667772617,10.5387000914-12.5318271739,10.3810056975-14.2848902821-.0926657779-1.0323292801-2.3711059134-2.5304260227-3.0335849396-3.3820299406-1.3994700083-1.7991250445-2.4540173988-4.1052023418-3.5440595757-6.1051032385-2.1302290813-3.9090326834-4.0358384847-7.958689749-5.2545831308-12.2530169825-3.2015755311-11.2797553621-1.3458214-23.896661642,4.9676443624-33.7755922329,2.8829353123-4.510547382,7.3980888879-7.0818872423,12.1435521455-9.2492368253,4.9167052798-2.2456548749,9.7683819436-4.2409495779,13.4240739769-8.3423585838,3.5519172001-3.9854413072,4.6243474601-9.5814246724,4.9906753306-14.9091649963,.1495658169-2.1746653023,.1975244213-4.3989149244-.1070262639-6.5491944957Z"/>
    <g>
      <path class="cls-11" d="M683.3424360799,355.661157337c-.2015887098,1.5287143827-.4072417081,3.0574287654-.5123713041,4.5953555354-.2514439821,3.6887482464,.0774924341,7.3921279315,.5288994107,11.0613675931,.564394197,4.5899364841,.1319539001,9.3839002511-.078847197,14.0104153318-.2075496663,4.5576931286-.9057944313,9.1259534074-3.0140763547,13.2249238402-1.9058803559,3.7047344479-4.6546941476,6.8827371056-8.250234711,9.0281395307-1.2591165786,.7516224207-2.6279689468,1.3948638147-4.0697075556,1.5070381774-1.7655269262,.1379148566-3.4587095171-.5324217941-4.9855272318-1.3469052103-.2942544877-.1571524888-.5844446869-.321620697-.8700286925-.4942174821-4.6080903061-2.7826828626-7.7497853198-7.4996961006-8.8585232238-12.7391058876-1.203842255-5.6889200956,.2397930217-11.9002367404,2.5943708285-17.1247441363,1.0019825926-2.2226239067,2.0576137934-4.3737163357,2.4109359407-6.8171665844,.3451935703-2.3873630674,.1996920418-4.8172656878,.0460619364-7.2135701899-.1910215597-2.9783106159-.3828559771-5.9609564729-.8253215189-8.9121718321-.3376068984-2.2497191634-.8185477048-4.5628412274-.269055899-6.7708336955,1.6723192432-6.7196236603,10.4536209854-8.369724793,16.2357487641-8.6788816719,2.7206347247-.145772481,6.0525384405-.111361505,8.0714060168,2.0473175959,.5608718136,.5993470781,.9586301819,1.3344413922,1.2740189698,2.092295722,1.1079250463,2.6659023062,1.2398789464,5.6409614913,1.0225749877,8.5198325151-.1007943549,1.3417571115-.2742039978,2.6761985037-.4503231663,4.0109108485Z"/>
      <g>
        <path class="cls-11" d="M654.5851563394,321.4829295896c2.7030228079-2.5204007777,9.7147333354-.2229939626,13.3097319936-.7462033694,3.927999363-.1948148956,10.8351221997-1.4636857667,13.7708932626,1.9939399402,6.0170436542,7.0862224834,7.6438428662,20.6216579653,3.4335109284,28.8537388543-3.7540478151,7.3401050386-10.3278989944,10.0675135775-18.0413766702,10.3040551685-6.074756551,.1864153661-10.3157061288-3.7982130835-12.8575121594-10.3170608917-.4565550753-1.1707860418-1.4192495457-5.1348220962-1.7229873732-6.3614243668-1.8641536606-7.5303137406-.736449077-21.0746906572,2.1077400183-23.7270453351Z"/>
        <path class="cls-11" d="M685.2166149855,342.2438571743c.1238253231,2.2239786695,1.6192125401,3.8908788614,3.3405741979,3.7231592224,1.7210907053-.1677196389,3.0159730227-2.1069271606,2.8924186522-4.3309058301-.1235543705-2.2239786695-1.6192125401-3.8911498139-3.3403032453-3.7231592224-1.7210907053,.1677196389-3.0159730227,2.1069271606-2.8926896047,4.3309058301Z"/>
      </g>
    </g>
    <path class="cls-13" d="M638.6620868376,487.6754798632c.0238438259,.9578173242,.0864338688,1.9028998777,.0926657779,2.8645105378,.0008128577,.1324958052-1.7167554642,7.533836124-1.6582297097,7.6487200124,12.2866151008-.1734096428,69.709050709,3.2056398196,78.6764968647,1.4048890596,10.8608626936-2.1808972114-3.8589064585-17.9544008963-3.3576442096-27.9625758616,.7212757332-14.4555903992,1.4482414703-28.9111807985,2.1722267292-43.3667711977,.6922838086-13.8275223491,2.2760015624-27.8306219615,.0073157193-41.5852580701-.2037563303-1.2347308476-.4500522137-2.5090207699-1.1697022315-3.5321376627-.6725042712-.9561916088-1.6950792588-1.6007877655-2.7173832939-2.1665367253-7.984972148-4.4192363669-17.5444496625-5.0830701559-25.8559196536-8.6596440397-3.0853368798,4.9280852877-6.4998811285,10.1433802963-11.8636581438,12.3814484993-2.2974068152,.9586301819-4.8115756839,1.2948823174-7.3000040587,1.3488018783-.760834808,.0165281066-1.5498486829,.0013547628-2.2394229658-.3210787918-.7481000373-.3500707165-1.2929856495-1.0228459402-1.7430378632-1.7159426065-1.1076540937-1.7067302192-1.8080664792-3.6657172782-3.0311463664-5.2917036325-3.4809276276-4.6278698435-8.5450311038-2.2892782381-11.5916217666,1.4262943124-2.4816545607,3.0262692202-3.7776206884,6.8369461218-4.8389418931,10.6045415652-4.2956819964,15.247855705-5.9685431447,31.1646932978-6.1167541989,46.9726079587-.1520043901,16.2222011358,2.0370213983,32.2165311627,2.4941183788,48.4219332393,.0146314386,.5093908259,.0279081144,1.0185106992,.040642885,1.527901525Z"/>
    <polygon class="cls-17" points="683.2532926854 370.5345565945 688.3331114105 373.3825390257 676.294688861 395.1310887169 668.7586851165 385.802733742 683.2532926854 370.5345565945"/>
    <polygon class="cls-17" points="657.9487615055 372.3206759158 651.363801271 376.216702876 661.6128530684 395.1310887169 668.7586851165 385.802733742 657.9487615055 372.3206759158"/>
    <path class="cls-10" d="M670.9471689997,350.537444296c-.139540572,1.85141889-2.1651819625,3.3243170439-4.6671579657,3.3243170439s-4.5276173937-1.4728981539-4.6671579657-3.3243170439h9.3343159314Z"/>
    <path class="cls-11" d="M654.1898365442,494.4669059537c-2.5995189273-1.5750472717-5.7742701542-1.572337746-8.6241492534-2.3984721226-.5448856121-.1579653465-1.0846231255-.3327297522-1.6183996824-.5237513119-1.4197914508-.5077651105-2.7989400166-1.1306850619-4.1192918753-1.8587346093-.8600034475-.4738960396-1.6335730261-1.0412707148-2.3990140278-1.6181287298-1.6888473498,3.5256348011-3.4291756873,7.0106267172-5.4201351492,10.3560780613,1.8966679686,2.2256043849,4.3260286839,4.0060337023,6.9420757178,5.3372236637,3.2514308034,1.6552492315,6.6610979059,2.3879049725,10.1355226718,3.3684823123,2.6878494641,.75893814,5.6019443216-.88032489,6.9943695632-3.2573917599,1.7289483297-2.9509444066,1.159406034-7.5571380448-1.8909779647-9.4053055039Z"/>
    <path class="cls-29" d="M694.0499396205,458.5217965172l63.518597412,18.1595119894c1.4693757706,.4199764788,2.3556616171,1.9153636958,2.0188675763,3.4072285294l-10.2579932321,45.4568992992c-.3590121512,1.5910334731-1.9638642052,2.5675465244-3.5408081449,2.1540729072l-63.5280807518-16.6486804761c-1.4951162644-.3917974118-2.4152711818-1.8945003481-2.0849800027-3.4053318614l10.2680184771-46.9674598599c.3552188153-1.6254444491,2.0077585211-2.6133375082,3.6063786661-2.1562405278Z"/>
    <path class="cls-11" d="M725.7578928151,495.6016553041c-2.1643691048,.7394295552-4.0483023028,2.0879604809-5.303896498,4.1322975985-.6380932952,1.0388321417-3.3698370751,10.7251154575-3.8770602805,10.7215930741-1.266974203-.0083995296-2.523381256,.8036453136-3.2983055975,1.7939769458-.6402609157,.8185477048-1.0139045055,1.8273041115-1.6977887845,2.6098151249-.892246803,1.0204073671-2.2369843927,1.5552677343-3.5803672197,1.7308449977-1.3436537795,.1753063108-2.7057323335,.0268243041-4.0534504015-.1165096038-2.7875600088-.2969640134-.7938910212,3.05580305,.026282399,4.1374456973,1.2241636975,1.6137934887,3.0894011683,2.7382466416,4.8706433435,3.6326610651,2.0456918805,1.0271811813,4.1994938351,1.9142798855,6.4717020616,2.1914643615,2.2719372739,.2774554286,4.6910017916-.1067553114,6.5551554522-1.4357776523,2.4353216717-1.736264049,3.559503872-4.7384184908,4.553086935-7.5606604281,1.9056094033-5.4147160979,3.7180111237-10.7663002477,5.582977642-16.182642061,.3760821629-1.0938355128,.7272366897-2.2321072465,.6367385323-3.3852813715s-.7204628755-2.3353401745-1.7983121868-2.754232843c-.5695422957-.2213682472-1.2003198716-.2121558599-1.8096921946-.1674486864-1.1317688721,.0829114855-2.2372553453,.2972349659-3.2777132024,.6524537812Z"/>
    <path class="cls-13" d="M725.2869772537,455.6442802563c-6.1928918702,15.6624131324-9.4467612466,32.2802050159-12.4825138067,48.7955768291,5.9652917139,1.4122047789,11.985586799,2.5672755718,17.9809542478,3.8337078697,2.7845795305-8.6547668935,7.6064514119-17.1223055631,10.6798663788-25.555975162,4.3376796443-11.9040300763,8.7290078968-24.0841608183,8.9381832785-36.7536318963,.3652440603-22.174758079-12.3811775467-42.9221380354-29.1059956941-57.4755423113-3.3324456209-2.8991924663-6.9052261687-5.6490900683-11.0483618699-7.1788882613-4.1428647486-1.5295272404-8.9690718711-1.7042916461-12.8369197643,.4278341032-6.7036374589,3.695251108-8.3927557612,12.028126352-6.6407764633,18.9325396629,2.0183256712,7.9516449822,6.3988158211,15.0869098802,11.0946947588,21.8127654496,3.7036506376,5.3047093557,7.6430300085,10.4446795507,11.8018809586,15.4004020002,3.5156095561,4.188926685,14.0613544143,11.5834931896,11.6189879759,17.761211716Z"/>
    <path class="cls-29" d="M690.7741230861,323.6749358562c-.3270397483-1.6847830613-.7938910212-3.3478899172-1.2585746735-5.0017843859-.4505941188-1.6026844335-.9093168147-3.2248774518-1.7422250055-4.6660741554-1.3173713805-2.2803368034-3.4657542838-3.9377536555-5.5596757212-5.5342061799-5.3824727424-4.1041185316-11.712737564-1.9841856478-17.9346213589-1.2531556221-2.9693691812,.3487159537-5.9782974371,.5275446478-8.8639422751,1.3105975663-2.8861867431,.7830529185-5.700571056,2.2497191634-7.4585113104,4.6698674913-1.6929116383,2.3307339809-2.2754596572,6.2595462016-.7938910212,8.8793865715,1.5517453509,2.7436656929,6.9328633305,2.2350877248,9.5126027204,2.0662842755,4.2208990879-.2761006657,8.363492884-1.3704780836,12.6079648452-1.3609947438,2.0307894893,.0048771462,3.9667455801,.4045321825,5.9384674098,.8348048588,1.803189333,.3931521746,3.1175802353,1.7278645194,4.4894130818,2.9195139089,.9350573085,.8117738906,1.8554831785,1.667442097,2.5157945841,2.7152156734,1.2531556221,1.9893337465,1.4460738498,4.4663821136,1.3141199497,6.8139151536-.0493133672,.8797829849-.1371019989,1.7584821595-.2216391998,2.6374522867-.5432598967,3.0330430344-1.4531186165,5.9915741129-2.7165704362,8.8051455681-3.9033426795-3.9949246471-10.3203123225-4.7831256643-15.6214992948-4.5341202553-2.0440661651,.0959172087-4.0840680416,.3690373962-6.0752984561,.8421205781-1.8443741232,.4384012533-4.5208435795,.7638152862-5.7011129612,2.4483273949-.8199024676,1.1699731841-.1089229319,2.8314543246,.2370834961,4.0840680416,.4641417472,1.6809897253,1.0884164614,3.3202527554,1.8980227315,4.8660371498,1.8562960362,3.5443305282,4.8337937944,6.8889690147,8.6070792417,8.3699957456,4.6590293887,1.8286588743,9.9940854319,1.1358331606,14.1320730343-1.6398049352,7.4758522747-5.0145191565,10.3612261601-15.3884800873,10.7253864101-23.9302597603,.1690744018-3.9645779596,2.6331170456-7.0786358115,2.3803183006-11.2347772359-.0636738532-1.0456059559-.2113430022-2.0806447616-.4107640915-3.1075549903Zm-32.9529802397,26.0081949962c.2582177963-.3755402578,.7868462544-.5890508805,1.1889398638-.7323847885,3.5183190818-1.2555941952,7.3495883785-1.6224639709,11.0418590083-1.0569859637,1.449054328,.2221811049,2.9170753358,.6036823192,4.0978866225,1.4731691065,.5898637383,.4343369648,1.1306850619,1.0813716947,1.0637597778,1.81131791-.0804729124,.8786991746-1.0892293191,1.8202593448-1.7004983102,2.4280059524-.6115399436,.6077466077-1.3084299458,1.1271626785-2.0532785523,1.5598739279-1.5165215172,.8805958426-3.2424893687,1.4130176366-4.9887786626,1.5609577382-2.3255858821,.1969825162-4.7947766247-.388545981-6.5513621162-1.9882499363-.8616291629-.7846786339-1.5024319837-1.7850355111-1.8663212811-2.8916057945-.1593201094-.4847341423-.4549293599-1.2943404123-.3766240681-1.8045440959,.0205923951-.1343924732,.0718024302-.2533406501,.1444177182-.3595540563Z"/>
  </g>
  <g>
    <path class="cls-10" d="M88.0251710584,243.9533749408l-.2013177522-.0059609565c1.3361315629,.0398300273,2.4491401908-1.0220330825,2.46810687-2.3640611466,.0192376318-1.3241451947-1.0881454814-2.3935949764-2.4108714231-2.4331540512l-9.6018103291-.2869387684c-.0054190512-.0002709526-.2167620481-.0119219129-.2145944276-.0167990592l1.8533155111-3.0362944652c.3939650224-.7280495474,.6340289906-1.5319658135,.6880128231-2.3581001901,.0890791193-1.3669557003-.1769962947-3.7047344479-.1769962947-3.705276353,.0455200301-1.5376558174-1.1976103157-2.8141133603-2.7517942004-2.7910823921-1.4626019194,.0216762054-2.6236336395,1.2501751439-2.6669860491,2.7130480529,0,0-.0503971762,1.7102526026-.0785762424,2.6501870573-.0116509601,.3836688348-.1633843937,.7719438632-.4776893635,.9914154425-2.3114962902,1.6140644413-5.1174810027,4.3048943837-7.091370403,7.465014172-.4210602784,.6741299866-.6508280494,1.4512219486-.6744009221,2.2459258274l-.3964035954,13.2731533971c-.0233019202,.7754662466,.5860703875,1.422771929,1.3609947094,1.4458028972l7.8674426796,.2351868281,4.3435763465,.1297862796,5.5697008255,.1663648761c1.3231257793,.0395590748,2.4919506953-.9618816127,2.5518312111-2.2846720445,.0610287869-1.3406733013-.9868092239-2.4670231221-2.3223343926-2.5068531494l.9689907801,.0289919247c1.2614906947,.0376624068,2.39027906-.8754477438,2.5262972452-2.131041939,.1132581701-1.044251193-.4511360126-1.9795794541-1.3154746793-2.410123083-.006773814-.0035223834-.004335241-.0127347706,.003044934-.0124638181l.0300112783,.0008128577c1.3271256394,.0395590748,2.4350506576-1.0046921182,2.4746097314-2.3326306489l.0059609563-.1942729905c.0395590738-1.327667578-1.0040856938-2.436405482-2.3312758271-2.4759645568Z"/>
    <path class="cls-10" d="M53.8679964817,245.2185824648h15.0848147352c.7289588014,0,1.3207808612,.5918220599,1.3207808612,1.3207808612v5.2786684693c0,.7287316749-.591637662,1.3203693369-1.3203693369,1.3203693369h-15.084454566c-.729266337,0-1.3213380768-.5920717398-1.3213380768-1.3213380768v-5.2779142074c0-.7288404278,.5917259555-1.3205663833,1.3205663833-1.3205663833Z" transform="translate(-189.4912710455 303.1179705614) rotate(-88.2881677172)"/>
  </g>
  <g>
    <path class="cls-22" d="M719.2691207418,301.9198833034l14.7896749143-13.8947185857h57.3641808063c13.5736397938,0,24.5770235376-11.0104285105,24.5770235376-24.5924678339v-3.6161329585c0-13.5820393234-11.0033837438-24.5924678339-24.5770235376-24.5924678339h-47.576832183c-13.5736397938,0-24.5770235376,11.0104285105-24.5770235376,24.5924678339v42.1033193781Z"/>
    <g>
      <path class="cls-10" d="M750.2281610413,262.4529324017l.2462958834-.0075866719c-1.6335730261,.0490424146-2.9948387225-1.2496332388-3.0184115958-2.8907929368-.0230309682-1.6192125401,1.3309190089-2.9271005807,2.9487767861-2.9753301377l11.7422713938-.3511545268c.0065028616-.0002709526,.265262563-.0146314386,.2620111322-.0203214425l-2.2665182225-3.7131339775c-.4812117589-.8906210876-.775195294-1.8736370004-.8407658152-2.8840191226-.1091938845-1.6717773381,.2162201484-4.5305978719,.2162201484-4.5311397771-.0555452762-1.8804108146,1.4647695769-3.4416395054,3.3652308815-3.4134604384,1.7882869419,.0265533516,3.2083493452,1.5287143827,3.2617270009,3.3178141823,0,0,.0615062327,2.0917538168,.0959172087,3.2411346058,.0140895335,.4690188934,.1996920418,.9439987432,.5841737343,1.2122417845,2.826848131,1.9738894502,6.2581914388,5.2646083758,8.6721078577,9.1292048382,.5148098772,.8242377087,.7957876891,1.7747393135,.8247796138,2.7466461712l.4847341423,16.2322263807c.0284500195,.9480630318-.7169404921,1.7397864324-1.6647325713,1.7679654993l-9.6207127946,.2877516261-5.3117541225,.1587782042-6.8117475331,.2037563303c-1.6178577772,.0482295569-3.0471325679-1.1764760457-3.1208316661-2.7943338229-.0745119559-1.6395339826,1.2068227332-3.017056833,2.8403957593-3.065828295l-1.1848755753,.0352238337c-1.5433458213,.046332889-2.9235781974-1.0699916869-3.0899430735-2.6057508363-.1381858091-1.2772704006,.5516594263-2.4206902331,1.6089163425-2.9476929758,.008128577-.0040642885,.0054190513-.0154442963-.0035223834-.0151733437l-.0368495491,.0010838103c-1.623005876,.0485005095-2.9780396633-1.2284989385-3.0262692202-2.8525886248l-.0070447667-.2376254012c-.0485005095-1.6238187337,1.2276860808-2.9796653787,2.8504210043-3.0278949356Z"/>
      <rect class="cls-10" x="777.9336105177" y="258.0039371098" width="9.6853236989" height="21.6778706647" rx="1.6145524483" ry="1.6145524483" transform="translate(-7.6838202273 23.5103946503) rotate(-1.7123251871)"/>
    </g>
  </g>
  <line class="cls-4" x1="620.987579943" y1="193.1974562898" x2="665.0539506686" y2="193.1974562898"/>
  <line class="cls-4" x1="620.987579943" y1="209.1010172068" x2="665.0539506686" y2="209.1010172068"/>
  <line class="cls-4" x1="177.7792904029" y1="157.374546461" x2="238.3296009143" y2="157.374546461"/>
  <line class="cls-4" x1="177.7792904029" y1="175.2582287373" x2="238.3296009143" y2="175.2582287373"/>
  <path class="cls-30" d="M425.1189497744,597.8827269437c-.9849125809,58.9216161611-12.78896116,117.008698416-14.3119855388,175.8983421742-.0471457467,1.8327231628,2.7978562063,1.8316393526,2.845001953,0,1.5227534263-58.8896437582,13.3268020053-116.9767260131,14.3117145862-175.8983421742,.0303466875-1.8327231628-2.8143843129-1.8329941154-2.8447310004,0Z"/>
  <g>
    <path class="cls-7" d="M313.9349186901,682.3397258717c4.8570957151,8.2754332997,10.0474630876,16.3804374349,15.2446042742,24.39467246,2.8780581661,4.4384739992,5.8636845013,9.1609062885,6.0568736816,14.4482746799,.1931891802,5.2870974389-3.6394348793,11.1022814307-8.9257194604,10.9976937399-5.6409614913-.1119034101-9.4088278873-6.4042348724-14.9622716994-7.4021531765-7.2038158975-1.2943404123-12.8556154914,7.5546994716-11.4136059301,14.7346715432,2.8932315099,14.4043803641,19.3186470708,29.2485167444,29.2233181556,39.1995207181,8.9387251836,8.9801809264,23.2669678764,25.4316079338,37.1576221736,25.432691744,16.2295168551,.0008128577,32.7779448814-.6586856902,48.886345939,.044436221,10.1482574425-8.5176648946,13.2300719389-21.6759344033,17.2312284951-34.1150957993,4.5961683931-14.2924769539,8.187644668-28.9082003203,10.7305345088-43.7049200013,1.1361041132-6.6096169181,2.0652004653-13.3511877364,1.2339179899-20.0060537332-.4394850636-3.5191319395-1.4094952533-7.0572305587-3.4817404853-9.9347468197-2.072245232-2.8769743559-5.3838275053-5.0107258206-8.9284289861-5.0199382078-11.4829697873-.0295338298-18.7081909375,15.8908261464-21.2399717231,25.0300562295-.0799310073-9.3687269074-.1563396311-18.7423309609-.6267132874-28.1015745285-.3519673845-7.0062914761,.754602899-17.1607808277-4.1981390723-22.7090765411-6.6123264438-7.4073012752-20.4360554569-7.0171295788-23.1333882609,3.8637836047-.5695422957,2.2976777677-.2479215988,4.9221243312-1.6408887454,6.8358623115-1.9606127744,2.6938104206-6.3814748568,2.286839665-8.8582522712,.058796707-2.4765064619-2.2277720055-3.5080228843-5.6041119422-4.4403706671-8.8032489001-7.8963706586-27.0993209833-19.1414440921-65.6393431535-48.8343230462-76.5541254078-5.3840984578-1.9793085016-11.670198011-1.8110469575-16.6191466463,1.0908550345-1.6809897253,.9857254386-3.1815250411,2.2583896455-4.536829781,3.6592144166-8.4409853181,8.7254855134-10.7877055005,22.0086641555-8.8205898644,33.9918123813,3.1360050099,19.1056783532,15.2958143094,36.2125396201,24.8959347089,52.5685913239Z"/>
    <path class="cls-19" d="M393.9222840737,801.668862071c-11.4314887995-32.0989377486-23.3810389071-64.0111891787-35.8868546346-95.7064076025-10.5904520317-26.8408322345-19.8220769402-56.5803150301-38.7678932789-78.9097870249-1.1865012907-1.398386198-3.1907374284,.6234618566-2.011551857,2.0129066199,19.7399783124,23.2658840661,29.1081633147,54.8871324392,40.0871613274,82.8656945023,11.7647604569,29.9806305802,23.030697238,60.1541793882,33.8362856079,90.4940930722,.6099142282,1.7135040334,3.3595408776,.9751582884,2.7428528352-.7564995669Z"/>
  </g>
  <g>
    <path class="cls-27" d="M401.3084510487,773.2873935409c1.9004613046,8.3521128762,5.9848002988,16.7234633846,8.9490213812,23.2184673669,1.3672266528,2.9959225327,2.3854663994,5.5193037887,3.436220454,7.6392366725h53.3427028077c12.1877174139-3.6413315472,24.3399400415-7.8188782244,34.504454638-15.3743905538,3.2728360562-2.4323411935,6.5272473378-5.631749104,6.7849232289-9.7033533275,.3316459419-5.2377840717-4.7240580047-9.5592065619-9.9098191836-10.3455109112-5.1857611788-.7860333967-10.3766704564,1.0125497427-15.3134262262,2.7834957203,7.49752848-7.8877001764,31.0243398681-23.0182334199,20.3962254296-35.3896566742-5.2404935973-6.1004970448-16.1896868277-5.7506972809-21.0297125311,.6730461763,6.9033295007-7.958689749,12.5144862096-17.0372264571,16.5473442161-26.7725521876,5.8027201738-14.0077058061,.9537530357-33.251840921-16.9388706753-24.6146859444-16.6085794962,8.0169445509-26.6557716312,19.8824993627-36.5872670201,35.2276270392-.4091383761-6.49581684-1.7698621673-14.1662130578-7.6888209923-16.8651715771-4.9988039076-2.2792529932-11.1564719441,.449239356-14.4455651543,4.8522185689-3.2888222576,4.4024373078-4.3474339367,10.0439407042-5.0944501638,15.4892744422-1.1496517416,8.3811048008-1.782596938,16.8326572691-1.8945003481,25.2915254566-4.8031761543-3.1335664368-11.6677594379,.3969455106-14.1017263468,5.5927319344-2.5865132041,5.5212004567-2.4114778458,11.9037591237-.9567335139,18.2976977986Z"/>
    <path class="cls-7" d="M476.1057200124,705.851363916c-17.9310989755,31.1362432783-32.3365631499,64.0951844744-43.0210357223,98.4029275488-.5456984698,1.7533340607,2.1993219859,2.5030598135,2.7431237878,.7570414721,10.6132120474-34.0787881553,24.9241137759-66.7963106143,42.7340969539-97.7233785109,.9158196763-1.5899496629-1.5417201059-3.02518541-2.4561850194-1.43659051Z"/>
  </g>
</svg>