<svg id="Layer_1" data-name="Layer 1" xmlns="http://www.w3.org/2000/svg" width="60" height="60" viewBox="0 0 60 60">
  <defs>
    <style>
      .cls-1 {
        fill: #d9eaf8;
      }

      .cls-2 {
        fill: #8fbfe2;
      }

      .cls-3 {
        fill: #252967;
      }

      .cls-4 {
        fill: #edbc88;
      }

      .cls-5 {
        fill: #1f88c9;
      }

      .cls-6 {
        fill: #fbab45;
      }
    </style>
  </defs>
  <g>
    <path class="cls-1" d="M31.00567,0c1.77034.24618,3.55845.379,5.30894.74749,1.14994.24131,2.25459.64057,3.39926.8908,1.11071.5511,2.32992.86372,3.41187,1.42411,1.10947.57419,2.12017,1.32247,3.26283,1.84038l.9301.70172c4.74365,4.327,9.57879,8.8807,11.59083,15.208.52318,1.64474.658,3.3511,1.14472,4.96389l.0255.43042.2033,2.49674.07612.35432a21.04241,21.04241,0,0,1-.1138,3.15432,29.77194,29.77194,0,0,1-6.19527,16.33771,30.45738,30.45738,0,0,1-11.34586,9.0625c-5.08859,2.304-10.23475,2.67694-15.75784,2.21371a22.42269,22.42269,0,0,1-6.04547-1.06982,38.23207,38.23207,0,0,1-10.129-5.28014,34.64923,34.64923,0,0,1-6.224-6.84638,21.54075,21.54075,0,0,1-2.80525-5.2927A29.75945,29.75945,0,0,1,.22732,24.30735l.09881-.36161A33.38019,33.38019,0,0,1,9.56883,8.11621a39.57319,39.57319,0,0,1,7.157-4.98537,34.124,34.124,0,0,1,6.022-2.1736A49.72626,49.72626,0,0,1,31.00567,0Z"/>
    <path class="cls-2" d="M10.89492,45.10685A21.27294,21.27294,0,0,1,5.67471,33.22691a23.58605,23.58605,0,0,1,4.59178-17.74236,24.8781,24.8781,0,0,1,35.11829-4.56266,25.977,25.977,0,0,1,9.38971,14.652l.05546.24051a18.49476,18.49476,0,0,1,.20731,4.99753,23.79644,23.79644,0,0,1-3.724,12.099,19.385,19.385,0,0,1-2.49717,3.141,28.17676,28.17676,0,0,1-7.29582,5.53648l-1.96587.89044-.27537.034c-1.19207.16682-2.40683.72239-3.61551.96332a26.46225,26.46225,0,0,1-10.56519.09312,7.74418,7.74418,0,0,1-2.13675-.55758l-.77583-.05222c-4.608-2.02338-8.10124-3.79814-11.2908-7.85261Z"/>
    <path class="cls-3" d="M38.05574,26.638a10.36117,10.36117,0,0,0,1.02161,2.7166c.94953,1.60268,2.4854,3.26771,2.86237,5.11495a7.3525,7.3525,0,0,1-.78915,4.48735c-.53939.19474-8.06-2.85917-9.09209-3.31025l.34983-1.84156.69284-.36c2.32342-1.29251,2.94054-2.85508,3.64507-5.29068A3.70006,3.70006,0,0,0,38.05574,26.638Z"/>
    <path class="cls-3" d="M17.84173,38.73624A14.07317,14.07317,0,0,1,15.586,35.45075a6.4965,6.4965,0,0,1-.46082-4.19541c.58672-1.42368,1.66787-2.62307,2.15983-4.10425l.0822-.26117c.51915-1.529.08952-3.00977.45514-4.51648l.064-.24134.42514-1.41722a11.46105,11.46105,0,0,1,5.71139-6.158,10.51147,10.51147,0,0,1,8.34823-.54989c2.50606.97992,4.53995,3.6289,5.48221,6.105.64867,1.7027.9301,4.66956.16,6.34107l.04251.185a3.70006,3.70006,0,0,1-1.30952,1.51644c-.70453,2.4356-1.32165,3.99817-3.64507,5.29068l-.69284.36c-1.67229.55879-3.22275.18952-4.80071.641l-.21178,1.35443c-2.80327,1.43586-6.18231,2.10072-9.18115,3.09847l-.37294-.16279Z"/>
    <path class="cls-4" d="M32.71606,18.16148a12.12,12.12,0,0,1,3.01628,6.09645c.494.54137.7916.01416,1.51356.36241a8.36342,8.36342,0,0,1,.76733,1.83267l.04251.185a3.70006,3.70006,0,0,1-1.30952,1.51644c-.70453,2.4356-1.32165,3.99817-3.64507,5.29068l-.69284.36c-1.67229.55879-3.22275.18952-4.80071.641l.12268-.77544-.50615-.39036a14.13461,14.13461,0,0,1-3.72969-4.35892l-.13118-3.49527,1.2289-.25025.25023-.047c3.76051-.75194,5.91629-3.99371,7.87367-6.96744Z"/>
    <path class="cls-5" d="M32.40831,33.80513l-.34983,1.84156c1.03212.45108,8.5527,3.505,9.09209,3.31025,2.39709.928,5.92842,2.91137,7.0294,5.32549l.63609,1.76948a28.17676,28.17676,0,0,1-7.29582,5.53648l-1.96587.89044-.27537.034c-1.19207.16682-2.40683.72239-3.61551.96332a26.46225,26.46225,0,0,1-10.56519.09312,7.74418,7.74418,0,0,1-2.13675-.55758l-.77583-.05222c-4.608-2.02338-8.10124-3.79814-11.2908-7.85261a11.88832,11.88832,0,0,1,4.95582-5.21417,6.64458,6.64458,0,0,0,1.991-1.15644l.37294.16279c2.99884-.99775,6.37788-1.66261,9.18115-3.09847l.21178-1.35443c1.578-.45148,3.12842-.08221,4.80071-.641Z"/>
    <path class="cls-3" d="M22.18572,52.95946l.10652-3.799.27532-.15507c.61993.82848.47943,2.96965.394,4.00626l-.77583-.05222Z"/>
    <path class="cls-3" d="M39.55437,52.47883a6.938,6.938,0,0,1,.02063-1.19251c.07249-.61144.25107-1.79621.72277-2.14.59606.67179.65679,1.50426,1.12085,2.27687l.10162.1652-1.96587.89044Z"/>
    <path class="cls-6" d="M32.40831,33.80513l-.34983,1.84156c-.5908.66125-1.19249,1.44963-2.14686,1.51278a3.72657,3.72657,0,0,1-2.5158-1.35891l.21178-1.35443c1.578-.45148,3.12842-.08221,4.80071-.641Z"/>
  </g>
</svg>
