<svg id="Layer_1" data-name="Layer 1" xmlns="http://www.w3.org/2000/svg" width="60" height="60" viewBox="0 0 60 60">
  <defs>
    <style>
      .cls-1 {
        fill: #1f88c9;
      }

      .cls-2 {
        fill: #252967;
      }

      .cls-3 {
        fill: #edbc88;
      }

      .cls-4 {
        fill: #0e112b;
      }

      .cls-5 {
        fill: #020203;
      }

      .cls-6 {
        fill: #d9eaf8;
      }

      .cls-7 {
        fill: #fefefb;
      }
    </style>
  </defs>
  <g>
    <path class="cls-1" d="M13.73768,54.71512A35.06785,35.06785,0,0,1,2.30119,39.09825,29.74725,29.74725,0,0,1,20.5482,1.51258,27.34439,27.34439,0,0,1,41.37039,2.7175,32.45871,32.45871,0,0,1,57.71111,20.81,29.58331,29.58331,0,0,1,56.6443,42.647c-.49586-.83314-.981-1.737-1.557-2.51716-1.03765-1.40508-2.84572-2.79944-3.11258-4.63366a36.94614,36.94614,0,0,1,.0892-3.8676c-.18509-4.88008-5.18152-6.80347-8.25151-9.64182a7.75228,7.75228,0,0,1-2.62109-4.74966c-.09924-1.33469.14283-2.68981.05464-4.02552a5.56639,5.56639,0,0,0-2.23687-3.55849,13.32316,13.32316,0,0,0-9.70282-2.27039l-.31683.04424a10.07031,10.07031,0,0,0-5.043,2.307,13.05732,13.05732,0,0,0-3.00327.10157,8.17877,8.17877,0,0,0-5.39574,3.83876,9.50228,9.50228,0,0,0-.8958,7.60512c.55988,1.94417,1.44864,3.70764,1.93983,5.69912a14.36651,14.36651,0,0,1-.19112,4.33966,28.38184,28.38184,0,0,1-1.797,3.76934,8.4285,8.4285,0,0,0,1.36417,9.60327,10.245,10.245,0,0,0-1.91133,2.90975c-.49049,1.40508-.23064,4.31417-.07913,5.79737l.1291.87807-.36845.43918Z"/>
    <path class="cls-2" d="M23.94642,9.73391a10.07031,10.07031,0,0,1,5.043-2.307l.31683-.04424a13.32316,13.32316,0,0,1,9.70282,2.27039A5.56639,5.56639,0,0,1,41.246,13.21157c.08819,1.33571-.15388,2.69083-.05464,4.02552a7.75228,7.75228,0,0,0,2.62109,4.74966c3.07,2.83835,8.06642,4.76174,8.25151,9.64182a36.94614,36.94614,0,0,0-.0892,3.8676c.26686,1.83422,2.07493,3.22858,3.11258,4.63366.576.78017,1.06112,1.684,1.557,2.51716A27.24711,27.24711,0,0,1,41.72943,57.55581c-7.17226,2.82324-15.05431,3.52663-22.27252.36275l-5.71923-3.20344.36845-.43918-.1291-.87807c-.15151-1.4832-.41136-4.39229.07913-5.79737a10.245,10.245,0,0,1,1.91133-2.90975,8.4285,8.4285,0,0,1-1.36417-9.60327,28.38184,28.38184,0,0,0,1.797-3.76934,14.36651,14.36651,0,0,0,.19112-4.33966c-.49119-1.99148-1.37995-3.755-1.93983-5.69912a9.50228,9.50228,0,0,1,.8958-7.60512,8.17877,8.17877,0,0,1,5.39574-3.83876,13.05732,13.05732,0,0,1,3.00327-.10157Z"/>
    <path class="cls-3" d="M16.04527,22.09536c1.8453-1.17741,2.50776-3.04954,3.9236-4.58941,1.03027-1.12079,2.2486-2.0605,3.22085-3.23762.86666,2.6174,2.16581,5.00817,4.73928,6.31568,2.10716,1.07082,4.87606.76037,5.90768,3.43107a6.1529,6.1529,0,0,1,.232,2.16247c.803-.64673,1.43158-1.40844,2.57046-1.22036A2.99151,2.99151,0,0,1,38.528,26.48866a3.34043,3.34043,0,0,1,.056,2.34249,2.53338,2.53338,0,0,1-3.482,1.79766l-.59209-.30543A15.65475,15.65475,0,0,1,33.50409,32.624c-.49047.87873-1.21968,1.66794-1.19085,2.715l.00268.24978a4.59052,4.59052,0,0,0,1.29714,3.02606,7.36522,7.36522,0,0,0,3.98526,1.54592,28.61844,28.61844,0,0,1-2.38808,3.50751c-2.147,2.52387-4.79458,4.56829-7.00833,7.04121l-.08046-.21793a20.51329,20.51329,0,0,0-1.36786-2.89937c-.71313-1.25855-3.39892-4.91526-3.09349-6.28985a2.15335,2.15335,0,0,1,.95985-.43149l.03487-.50757a.97083.97083,0,0,0,.54883-.285c.24108-.25848.07979-1.906.07375-2.3438a11.40959,11.40959,0,0,1-3.16687-1.47517c-2.90909-2.06187-4.01577-4.9602-4.62464-8.33163l-1.44062-5.83224Z"/>
    <path class="cls-4" d="M21.00415,24.12138a.9566.9566,0,0,1,.39225.573c.14216.65142-.11365.94946-.471,1.43258a1.94261,1.94261,0,0,1-.569-1.36789l.64773-.63765Z"/>
    <path class="cls-5" d="M26.95642,24.1378c.35671.14046.5458.17132.7084.55654.24676.586-.00636,1.00747-.23972,1.5298a1.00064,1.00064,0,0,1-.72484-.55485,2.12991,2.12991,0,0,1,.25616-1.53149Z"/>
    <path class="cls-5" d="M26.308,21.93446a2.64159,2.64159,0,0,1,1.33029.32921c.32554.524.25145.55788.14518,1.13788a1.88115,1.88115,0,0,1-1.3206-.29971,1.43053,1.43053,0,0,1-.15487-1.16738Z"/>
    <path class="cls-4" d="M20.01446,22.00084a2.2239,2.2239,0,0,1,1.2844.34666c-.11535.61654-.403.69232-.88609,1.07017-.54081-.01175-.64406.05934-1.05776-.31583.09452-.60615.24306-.67255.65945-1.101Z"/>
    <path class="cls-6" d="M22.50412,32.58576a9.726,9.726,0,0,1,3.04888.38554,1.32527,1.32527,0,0,1,.60011,1.19422l-.589.50189a4.65,4.65,0,0,1-2.00892.16931l-.18138-.04227a1.647,1.647,0,0,1-1.106-.62893,2.41126,2.41126,0,0,1,.23635-1.57976Z"/>
    <path class="cls-7" d="M37.59832,40.16069c3.59906.85357,7.32215,2.55639,9.30727,5.85838a17.93865,17.93865,0,0,1,2.05078,6.54064,15.73752,15.73752,0,0,1-4.393,3.26715c-.65239.30342-1.40137.45965-2.07963.73021l-.41908-.24476-.30944.08348a2.94021,2.94021,0,0,1-2.28885-.26551l-.42174.33022c.25075.4194.50625.406.97022.5257a2.52537,2.52537,0,0,0,1.79836-.23l.16763.05362a6.56431,6.56431,0,0,1-2.17651.97965,29.5011,29.5011,0,0,1-11.50893,1.736,23.25268,23.25268,0,0,1-10.256-2.90505l-.64335-4.51836-.30845-.11464c-.36944.64035.27524,3.53334.39865,4.457a20.12229,20.12229,0,0,1-3.38013-2.16847l-.1291-.87807c-.15151-1.4832-.41136-4.39229.07913-5.79737a10.245,10.245,0,0,1,1.91133-2.90975,17.05543,17.05543,0,0,1,8.68733-4.32755l-.03487.50757a2.15335,2.15335,0,0,0-.95985.43149c-.30543,1.37459,2.38036,5.0313,3.09349,6.28985a20.51329,20.51329,0,0,1,1.36786,2.89937l.08046.21793c2.21375-2.47292,4.86131-4.51734,7.00833-7.04121a28.61844,28.61844,0,0,0,2.38808-3.50751Z"/>
  </g>
</svg>
