<svg id="Layer_1" data-name="Layer 1" xmlns="http://www.w3.org/2000/svg" width="60" height="60" viewBox="0 0 60 60">
  <defs>
    <style>
      .cls-1 {
        fill: #fefefb;
      }

      .cls-2 {
        fill: #fbab45;
      }

      .cls-3 {
        fill: #252967;
      }

      .cls-4 {
        fill: #edbc88;
      }

      .cls-5 {
        fill: #0e112b;
      }
    </style>
  </defs>
  <g>
    <path class="cls-1" d="M27.4669.17492a20.18351,20.18351,0,0,1,5.38826.01259c1.04134.19054,2.09191.226,3.13652.44088A31.91479,31.91479,0,0,1,48.26549,6.03574,29.074,29.074,0,0,1,59.713,25.14653a31.27954,31.27954,0,0,1-6.72154,23.82374,26.42116,26.42116,0,0,1-4.298,4.08008A31.39065,31.39065,0,0,1,32.5501,59.85942a38.24908,38.24908,0,0,1-5.45835.06977,28.89393,28.89393,0,0,1-14.57148-5.49206A29.968,29.968,0,0,1,.29654,34.21917,29.37476,29.37476,0,0,1,6.08709,12.10553,31.66378,31.66378,0,0,1,27.4669.17492Z"/>
    <path class="cls-2" d="M38.29262,26.5175c.0173-1.28479.03966-2.56957.03848-3.85435a4.16332,4.16332,0,0,1,.09929-1.582c.10467-.21281.43-.21487.645-.27232A2.59018,2.59018,0,0,1,40.31208,22.854a3.17775,3.17775,0,0,1-.391,2.49571,3.23685,3.23685,0,0,1-1.62851,1.16781Z"/>
    <path class="cls-2" d="M20.47965,26.56323l-.60684-.14158a2.66731,2.66731,0,0,1-1.59868-1.36715,3.98042,3.98042,0,0,1-.19115-2.82136,2.449,2.449,0,0,1,1.338-1.24755l.17265.1357a7.17664,7.17664,0,0,0,.79591.4992,24.6859,24.6859,0,0,1,.09006,4.94274Z"/>
    <path class="cls-3" d="M25.90549,7.96129A6.34127,6.34127,0,0,1,27.574,6.386c2.58484-1.30852,4.46144,1.47914,6.74569,2.15771a2.51792,2.51792,0,0,0,2.12353-.14978,1.80168,1.80168,0,0,0,.62562-1.50286l.00806-.16886.16133-.14245a6.90905,6.90905,0,0,1,1.14451,2.48691c1.14629,3.79571.78726,7.83473.69272,11.74214-.215.05745-.54035.05951-.645.27232a4.16332,4.16332,0,0,0-.09929,1.582c.00118,1.28478-.02118,2.56956-.03848,3.85435a9.76139,9.76139,0,0,1-.1831,3.67525l-.08736.226a5.3789,5.3789,0,0,1-3.20034,3.19715l-1.26588.4186c-.73239.03811-1.47044.26615-2.20523.34911a19.02888,19.02888,0,0,1-6.2465-.33417,6.56028,6.56028,0,0,1-2.71693-1.29827c-1.94192-1.66994-1.79282-3.85551-1.90763-6.18794a24.6859,24.6859,0,0,0-.09006-4.94274,7.17664,7.17664,0,0,1-.79591-.4992l-.17265-.1357c.0823-.80994-.4479-1.38036-.46848-2.14483l-.00209-.255a20.578,20.578,0,0,1-.22366-3.40558c.09484-.72109-.08259-1.66935.2994-2.28082a1.82691,1.82691,0,0,1,1.16151-.958,3.833,3.833,0,0,0,.64711-.17089l-.04145-.95267a2.45635,2.45635,0,0,1,.8123-1.97862c1.10337-1.02742,2.86933-.9049,4.29982-.87792Z"/>
    <path class="cls-1" d="M29.71894,27.43939c.73686.10611,2.26994.13748,2.75721.58626a1.77732,1.77732,0,0,1-.21741.94152c-.42821.72873-1.03387.83836-1.80234,1.021a4.3235,4.3235,0,0,1-2.90989-.73223c-.39869-.35616-.34979-.7296-.39035-1.21678.46789-.49217,1.85931-.50067,2.56278-.59975Z"/>
    <path class="cls-4" d="M36.39515,15.07991l.10615.13455a68.8994,68.8994,0,0,1,.51531,8.42744,4.91443,4.91443,0,0,1-.1649,2.25975c-2.09758,1.44043-5.15895-1.30854-7.53445-1.20359a7.0034,7.0034,0,0,0-2.59081.63755,8.38406,8.38406,0,0,1-2.98771,1.22146,2.37828,2.37828,0,0,1-1.02434-.63784,5.42338,5.42338,0,0,1-.22962-2.49952,65.57876,65.57876,0,0,1,.61609-8.076l2.50135.72548.22962.04691a16.6361,16.6361,0,0,0,10.56331-1.03622Z"/>
    <path class="cls-3" d="M32.49612,19.5088a7.18977,7.18977,0,0,1,1.83456-.06244c.48934.08121.61878.33592.92414.6783l-.19176.19785c-.8138-.08413-1.5927.11375-2.37252.00148-.28179-.35528-.23677-.35938-.19442-.81519Z"/>
    <path class="cls-5" d="M25.42121,20.72674l.461.03635a1.324,1.324,0,0,1,1.03835.59036,1.86235,1.86235,0,0,1-.226,1.36744c-.55169-.06125-.8654-.09086-1.19849-.60267a1.613,1.613,0,0,1-.07485-1.39148Z"/>
    <path class="cls-3" d="M25.39675,19.1881c.66023.44146,1.38964.01524,2.00067.47782-.08261.425-.25289.45375-.59672.70673a13.691,13.691,0,0,1-2.08713.08472l-.09035-.25942a2.46915,2.46915,0,0,1,.77353-1.00985Z"/>
    <path class="cls-3" d="M33.22822,20.69568l.72969.13454a1.29772,1.29772,0,0,1,.80068.76009,3.13791,3.13791,0,0,1-.45654,1.249L34.13,22.82848a1.50251,1.50251,0,0,1-1.14362-.65191,2.157,2.157,0,0,1,.24185-1.48089Z"/>
    <path class="cls-3" d="M25.10421,34.04944a19.02888,19.02888,0,0,0,6.2465.33417c.73479-.083,1.47284-.311,2.20523-.34911.66678.31277,1.54887.30222,2.12621.72753a20.22493,20.22493,0,0,0,2.37608.52295,17.97686,17.97686,0,0,1,5.15061,2.15449A17.75223,17.75223,0,0,1,50.54527,47.164,46.9518,46.9518,0,0,1,45.32549,52.081a25.22244,25.22244,0,0,1-19.06662,5.0603A27.04,27.04,0,0,1,8.731,47.089,16.87518,16.87518,0,0,1,12.276,40.21745c2.52281-2.76595,6.573-5.184,10.4154-5.39971a5.08236,5.08236,0,0,1,1.86765-.45844c.30328-.01936.325-.1164.54512-.30986Z"/>
    <path class="cls-2" d="M25.10421,34.04944a19.02888,19.02888,0,0,0,6.2465.33417c.73479-.083,1.47284-.311,2.20523-.34911.66678.31277,1.54887.30222,2.12621.72753a7.26254,7.26254,0,0,1-2.405,2.20229,9.42281,9.42281,0,0,1-6.50773.77356,6.513,6.513,0,0,1-4.078-2.92014,5.08236,5.08236,0,0,1,1.86765-.45844c.30328-.01936.325-.1164.54512-.30986Z"/>
  </g>
</svg>
