<svg id="Layer_1" data-name="Layer 1" xmlns="http://www.w3.org/2000/svg" width="60" height="60" viewBox="0 0 60 60">
  <defs>
    <style>
      .cls-1 {
        fill: #8fbfe2;
      }

      .cls-2 {
        fill: #1f88c9;
      }

      .cls-3 {
        fill: #ddedf8;
      }

      .cls-4 {
        fill: #edbc88;
      }

      .cls-5 {
        fill: #fbab45;
      }

      .cls-6 {
        fill: #252967;
      }

      .cls-7 {
        fill: #0e112b;
      }

      .cls-8 {
        fill: #df7126;
      }
    </style>
  </defs>
  <g>
    <path class="cls-1" d="M6.75514,48.91882a17.44346,17.44346,0,0,1-3.01969-4.48673A31.85728,31.85728,0,0,1,.00291,28.98446c.10579-8.045,4.1832-15.27737,9.82319-20.758a25.88187,25.88187,0,0,1,6.24076-4.23016A30.32106,30.32106,0,0,1,31.085.2644C38.75744.46213,46.89274,4.437,52.12635,9.9613A30.37423,30.37423,0,0,1,59.9869,31.54523a28.80528,28.80528,0,0,1-8.48578,19.35014,14.91893,14.91893,0,0,1-2.37264,1.94679,32.14575,32.14575,0,0,1-19.93406,6.90269,31.11427,31.11427,0,0,1-16.29936-5.35267,46.00418,46.00418,0,0,1-6.13992-5.47336Z"/>
    <path class="cls-2" d="M14.05628,42.61922a19.29751,19.29751,0,0,1,2.92644-1.84461,11.58672,11.58672,0,0,0-.939,2.22386l.31907-.00827c.29393,1.08812-2.252,6.02684-2.7357,7.6043a27.96074,27.96074,0,0,1-.79914,3.16286,35.91929,35.91929,0,0,0,11.4625,4.83523c.92941.20929,1.90281.206,2.81139.41594.46653.1081.86825.09588,1.32255.17952a6.8652,6.8652,0,0,0,2.89306.0668,24.22811,24.22811,0,0,1,3.147-.38155l.242-.048a15.50368,15.50368,0,0,0,2.56243-.6692c.38622-.13656.77372-.18748,1.15824-.31579l1.23956-.41856.79053-.29659.69665-.29161.77569-.33923.2169-.07505c.11273-.33494.06016-.34254-.08169-.66194-.11208-.25227-.23244-.4814-.321-.74492l-.83618-2.6441-.57033-1.90182-.09092-.33-.15936-.248.40566-.329c.493.36932.50754.82526.64376,1.40419l.26384.90861c.13658.38585.19078.77335.31808,1.15821l.41528,1.23956.16465.496.0939.41263a1.43831,1.43831,0,0,1,.165.64077l.00033.26848.24963.08431c.68541-.457,1.45747-.72873,2.14913-1.15723l.248-.16531,1.674-1.00184.47512-.32071a5.43566,5.43566,0,0,0,.6616-.45l.66095-.54191.45264.30683a32.14575,32.14575,0,0,1-19.93406,6.90269,31.11427,31.11427,0,0,1-16.29936-5.35267,46.00418,46.00418,0,0,1-6.13992-5.47336l.52738-.60075a24.29593,24.29593,0,0,1,6.77376-5.69885Z"/>
    <path class="cls-3" d="M16.04371,42.99847l.31907-.00827c.29393,1.08812-2.252,6.02684-2.7357,7.6043a27.96074,27.96074,0,0,1-.79914,3.16286l-.604-.56241a2.53585,2.53585,0,0,0,.06445-.83882l-.02809-.3184.34188-.38652a4.33547,4.33547,0,0,1,.365-1.75106,55.422,55.422,0,0,1,2.66824-6.457l.40833-.44469Z"/>
    <path class="cls-4" d="M24.15123,28.54073a22.90781,22.90781,0,0,0,2.212,1.84066,11.18106,11.18106,0,0,0,6.29068,1.33872l1.54342-.19175.085,2.30949a8.7652,8.7652,0,0,0,2.05687,4.43152,1.61083,1.61083,0,0,0,1.10633.01257,1.88375,1.88375,0,0,1-.70494,1.64523c-1.956,1.9349-5.23823,2.56574-7.89325,2.48044-3.10863-.09986-7.6969-1.07356-9.95313-3.40555A6.72552,6.72552,0,0,0,20.71429,38.24c2.51779-1.74145,2.84975-5.44856,3.32718-8.23384l.10976-1.46538Z"/>
    <path class="cls-5" d="M24.15123,28.54073a22.90781,22.90781,0,0,0,2.212,1.84066,11.18106,11.18106,0,0,0,6.29068,1.33872l1.54342-.19175.085,2.30949-.20269.07539-.32135.10482a8.42362,8.42362,0,0,1-3.882.13456,9.00179,9.00179,0,0,1-5.83473-4.14651l.10976-1.46538Z"/>
    <path class="cls-6" d="M12.62892,18.92518l.044-.16334.08-.27046c.83615-2.9334,3.13474-3.03259,4.68807-5.19926,1.4472-2.01786,1.57484-4.70031,2.90366-6.84218a8.93312,8.93312,0,0,1,5.397-3.75041l.28568-.05884.25986-.06315a13.74487,13.74487,0,0,1,2.81933-.20138,13.49881,13.49881,0,0,1,7.9971,1.98648,11.97489,11.97489,0,0,1,4.76052,7.88764c.7545,3.88.76441,8.09268,1.053,12.03484.21,2.86794.816,6.1766.51811,9.03a5.18314,5.18314,0,0,1-1.01471,2.45562,6.9144,6.9144,0,0,1-4.97508,2.51119,1.61083,1.61083,0,0,1-1.10633-.01257,8.7652,8.7652,0,0,1-2.05687-4.43152l-.085-2.30949-1.54342.19175a11.18106,11.18106,0,0,1-6.29068-1.33872,22.90781,22.90781,0,0,1-2.212-1.84066l-.10976,1.46538c-.47743,2.78528-.80939,6.49239-3.32718,8.23384a6.72552,6.72552,0,0,1-1.82014.76211,9.13914,9.13914,0,0,1-6.0576-.937,6.87294,6.87294,0,0,1-2.82727-4.14617A6.01948,6.01948,0,0,1,11.314,28.57645a21.61481,21.61481,0,0,0,2.30751-2.78958c1.2283-2.15047-.43676-4.75885-.99255-6.86169Z"/>
    <path class="cls-4" d="M23.12827,19.646l.19141-.09192C28.70012,16.89342,28.922,7.10726,36.67375,9.69217a5.74637,5.74637,0,0,1,3.397,3.01375,13.7499,13.7499,0,0,1,.84512,5.111c.11571,2.783.18118,5.94649-.87585,8.57505-.65732,1.634-2.17757,3.77255-3.84367,4.448l-1.999.68837-1.54342.19175a11.18106,11.18106,0,0,1-6.29068-1.33872,22.90781,22.90781,0,0,1-2.212-1.84066,23.94549,23.94549,0,0,1-1.76625-4.127c-1.24616-.38817-2.64178-.7565-3.31693-2.002a4.14044,4.14044,0,0,1-.12631-3.23064,2.00424,2.00424,0,0,1,1.21674-1.16086,1.54432,1.54432,0,0,1,1.42306.29262L23.12827,19.646Z"/>
    <path class="cls-7" d="M37.77609,18.12075a1.34711,1.34711,0,0,1,.98067.36369,1.92825,1.92825,0,0,1-.20367,1.348c-.531-.0357-.56077.02809-.90826-.36238a1.83444,1.83444,0,0,1,.13126-1.34932Z"/>
    <path class="cls-7" d="M31.69405,17.79372a1.58539,1.58539,0,0,1,1.14332.64277c.06085.72313-.01519.70823-.43511,1.25609a1.44025,1.44025,0,0,1-.99388-.47048,2.03263,2.03263,0,0,1,.28567-1.42838Z"/>
    <path class="cls-6" d="M31.83422,15.46178a6.01728,6.01728,0,0,1,1.467.15109,1.773,1.773,0,0,1,.0228,1.07721l-.5667.14415a3.95484,3.95484,0,0,1-1.57151-.25656c-.23111-.12828-.208-.26517-.27738-.49662.29592-.4414.44074-.43743.92575-.61927Z"/>
    <path class="cls-6" d="M37.57245,15.60592a4.96135,4.96135,0,0,1,1.74972.06184,1.59143,1.59143,0,0,1,.97964.90925l-.19042.37c-.80213-.20168-2.22021.06712-2.8425-.26383a1.85044,1.85044,0,0,1,.30356-1.07722Z"/>
    <path class="cls-8" d="M36.83247,19.84468a2.92659,2.92659,0,0,1,1.184,1.1807,2.08856,2.08856,0,0,1,.008,1.58573c-.25193.60639-.8322.62193-1.39265.775-.34586-.21988-.67484-.37295-.8299-.775a3.20749,3.20749,0,0,0,1.06068-.21823,2.1742,2.1742,0,0,0,.58822-1.187l-.61829-1.36123Z"/>
  </g>
</svg>
